<?xml version="1.0" encoding="iso-8859-1"?>
<!-- Generator: Adobe Illustrator 16.0.0, SVG Export Plug-In . SVG Version: 6.00 Build 0)  -->
<!DOCTYPE svg PUBLIC "-//W3C//DTD SVG 1.1//EN" "http://www.w3.org/Graphics/SVG/1.1/DTD/svg11.dtd">
<svg version="1.1" id="Layer_1" xmlns="http://www.w3.org/2000/svg" xmlns:xlink="http://www.w3.org/1999/xlink" x="0px" y="0px"
	 width="23.027px" height="30.984px" viewBox="0 0 23.027 30.984" style="enable-background:new 0 0 23.027 30.984;"
	 xml:space="preserve">
<path d="M19.816,4.739c1.857,2.734,1.521,4.453,1.379,4.612c-0.143,0.158-0.65,0.459-0.761,1.093
	c-0.111,0.634,2.9,4.137,2.567,4.707c-0.333,0.57-1.854,0.903-1.854,0.903s0.602,1.363,0.38,1.712S21.005,18.1,21.005,18.1
	s0.412,0.096,0.237,0.475c-0.174,0.381-0.995,0.912-1.141,1.047c1.133,3.177-0.061,3.404-4.646,3.266
	c-0.302,0.175-0.524,0.47-0.616,0.961c-0.044,0.169-0.097,0.143-0.168,0.356c-0.081,0.242,0.599,0.647,0.257,1.453
	c-0.342,0.807-0.874,0.467-0.962,0.706c-0.652,1.766-1.238,2.785-0.788,3.301c0.656,0.753,1.662,1.32,1.662,1.32L2.539,30.968
	c0,0,1.538-7.999,2.075-8.78c0.538-0.781-2.248-2.713-3.274-5.719c-2.373-6.393-2.2-13.933,5.572-15.888S17.959,2.006,19.816,4.739z
	"/>
<g>
</g>
<g>
</g>
<g>
</g>
<g>
</g>
<g>
</g>
<g>
</g>
<g>
</g>
<g>
</g>
<g>
</g>
<g>
</g>
<g>
</g>
<g>
</g>
<g>
</g>
<g>
</g>
<g>
</g>
</svg>
