<?xml version="1.0" encoding="iso-8859-1"?>
<!-- Generator: Adobe Illustrator 16.0.0, SVG Export Plug-In . SVG Version: 6.00 Build 0)  -->
<!DOCTYPE svg PUBLIC "-//W3C//DTD SVG 1.1//EN" "http://www.w3.org/Graphics/SVG/1.1/DTD/svg11.dtd">
<svg version="1.1" id="Layer_1" xmlns="http://www.w3.org/2000/svg" xmlns:xlink="http://www.w3.org/1999/xlink" x="0px" y="0px"
	 width="31.292px" height="31.547px" viewBox="0 0 31.292 31.547" style="enable-background:new 0 0 31.292 31.547;"
	 xml:space="preserve">
<path d="M14.363,18.863c-0.638,0.284-0.774,5.215-4.075,4.506c-0.851-0.354,1.417,5.527,0.284,3.66
	c-1.134-1.868-4.11-1.817-3.473-4.086c0.425-1.204-2.339-0.07-4.323-2.125c-1.984-2.057,0.638-2.268,0.283-3.26
	c-0.354-0.993-2.268,0.495-3.01-2.269c-0.743-2.765,7.185-7.201,9.034-10.56c-0.851-1.7,4.819-7.087,7.441-3.188
	c2.835-3.686,6.38,0.313,7.016,0.921c0.636,0.608,3.047,6.521,4.745,7.866s5.248,3.615,0.995,8.362
	c1.56,2.692-4.393,4.819-4.393,4.819s0.354,3.757-1.489,5.032c-1.842,1.275,0.567,3.26-0.142,2.977
	c-0.709-0.283-2.339-4.182-0.992-6.45c-1.347-0.851-3.047-5.599-3.047-5.599s3.189-2.125,3.543-3.259
	c0.354-1.135,1.559-3.687,1.063-5.457c-0.496-1.771-2.622-5.031-3.614-5.599c-0.993-0.567-4.04,0.851-4.04,0.851
	s-1.336-1.064-2.582-0.709c-1.245,0.354-3.58,4.415-3.868,5.952C10.359,17.274,15.001,18.579,14.363,18.863z"/>
<g>
</g>
<g>
</g>
<g>
</g>
<g>
</g>
<g>
</g>
<g>
</g>
<g>
</g>
<g>
</g>
<g>
</g>
<g>
</g>
<g>
</g>
<g>
</g>
<g>
</g>
<g>
</g>
<g>
</g>
</svg>
