<?xml version="1.0" encoding="iso-8859-1"?>
<!-- Generator: Adobe Illustrator 16.0.0, SVG Export Plug-In . SVG Version: 6.00 Build 0)  -->
<!DOCTYPE svg PUBLIC "-//W3C//DTD SVG 1.1//EN" "http://www.w3.org/Graphics/SVG/1.1/DTD/svg11.dtd">
<svg version="1.1" id="Layer_1" xmlns="http://www.w3.org/2000/svg" xmlns:xlink="http://www.w3.org/1999/xlink" x="0px" y="0px"
	 width="31.496px" height="24.957px" viewBox="0 0 31.496 24.957" style="enable-background:new 0 0 31.496 24.957;"
	 xml:space="preserve">
<path d="M29.045,21.303c0,0,0.616-1.848,0.616-4.106c-1.164-0.753-1.643-4.653-2.943-4.312c-9.787,3.628-10.745-1.916-10.745-1.916
	s-5.03,3.593-5.304,4.585c-0.273,0.993-0.479,3.696,0.103,6.229c-2.84,0.376-2.943-6.297-2.943-6.297s-1.232,1.813-1.3,2.875
	c-0.068,1.061,1.489,1.677,0.993,3.815c-0.497,2.139-1.489,2.874-2.498,2.771c0.718-0.428,1.129-2.275,0.342-4.32
	c-0.787-2.044-2.635-1.548-2.806-5.073c-0.171-3.524,1.095-3.764,1.095-3.764s-5.081,1.472-3.259-3.08
	c0.487,2.088,1.03,2.727,1.411,2.122c0.924-5.886,4.996-3.696,4.996-3.696s5.27-11.155,14.783-5.57
	c7.802,0.711,8.82,5.707,9.372,9.129C32.877,19.045,29.045,21.303,29.045,21.303z"/>
<g>
</g>
<g>
</g>
<g>
</g>
<g>
</g>
<g>
</g>
<g>
</g>
<g>
</g>
<g>
</g>
<g>
</g>
<g>
</g>
<g>
</g>
<g>
</g>
<g>
</g>
<g>
</g>
<g>
</g>
</svg>
