<?xml version="1.0" encoding="iso-8859-1"?>
<!-- Generator: Adobe Illustrator 16.0.0, SVG Export Plug-In . SVG Version: 6.00 Build 0)  -->
<!DOCTYPE svg PUBLIC "-//W3C//DTD SVG 1.1//EN" "http://www.w3.org/Graphics/SVG/1.1/DTD/svg11.dtd">
<svg version="1.1" id="Layer_1" xmlns="http://www.w3.org/2000/svg" xmlns:xlink="http://www.w3.org/1999/xlink" x="0px" y="0px"
	 width="29.823px" height="31.338px" viewBox="0 0 29.823 31.338" style="enable-background:new 0 0 29.823 31.338;"
	 xml:space="preserve">
<path d="M16.952,30.978c-0.172-0.258,4.818-5.249-1.549-8.089c-6.367-2.839-5.12-3.27-5.421-3.227s-0.129,4.868-1.42,5.321
	c-1.291,0.453,1.721,0.831,1.721,0.831s-0.344,0.962-0.187,1.421s0.746,0.257,0.746,0.257s-0.115,0.631,0.244,0.933
	c0.358,0.302,1.305-0.115,1.305-0.115s0.775,1.979-0.086,2.883c-0.86,0.904-4.732-2.71-8.604-2.624
	C5.12,23.147,1.076,22.2,1.076,22.2s2.147-1.633,2.625-1.506c-0.172-0.73-2.926,1.248-2.926,1.248v-1.936
	c0,0,0.946-0.99,1.333-0.947c-0.172-0.86-1.764,0.302-1.764,0.302L0,17.726c0,0,1.678-0.903,2.194-1.075
	C2.194,15.79,0,17.21,0,17.21s0.043-2.496,0-3.571s5.55,0,5.55,0S5.034,2.065,11.703,0c1,0.793,2.625,4.689,6.996,5.55
	c-2.35,2.883-1.36,6.368-1.36,6.368s1.247-6.814,2.71-5.766s2.188,1.567,2.882,2.065c-0.478-0.342-0.86,2.797-0.86,2.797
	s0.885-2.641,1.463-2.237s1.549,1.118,2.28,1.592c4.604,3.012,3.915,9.164,3.915,9.164S31.752,31.063,16.952,30.978z"/>
<g>
</g>
<g>
</g>
<g>
</g>
<g>
</g>
<g>
</g>
<g>
</g>
<g>
</g>
<g>
</g>
<g>
</g>
<g>
</g>
<g>
</g>
<g>
</g>
<g>
</g>
<g>
</g>
<g>
</g>
</svg>
