<?xml version="1.0" encoding="iso-8859-1"?>
<!-- Generator: Adobe Illustrator 16.0.0, SVG Export Plug-In . SVG Version: 6.00 Build 0)  -->
<!DOCTYPE svg PUBLIC "-//W3C//DTD SVG 1.1//EN" "http://www.w3.org/Graphics/SVG/1.1/DTD/svg11.dtd">
<svg version="1.1" id="Layer_1" xmlns="http://www.w3.org/2000/svg" xmlns:xlink="http://www.w3.org/1999/xlink" x="0px" y="0px"
	 width="20.225px" height="32.125px" viewBox="0 0 20.225 32.125" style="enable-background:new 0 0 20.225 32.125;"
	 xml:space="preserve">
<path d="M19.534,28.036c0,0-1.448-2.779-1.967-5.042c-0.646-3.217,4.765-7.644,1.722-11.159c-0.502-0.44,1.014-2.867,0.646-3.504
	c-0.246,0.707-1.076,1.844-1.076,1.844s-0.038-3.42-0.714-4.173c0.169,1.345,0.069,2.728,0.069,2.728s-1.03-2.943-2.06-3.381
	c1.066,1.04,1.015,2.644,1.015,2.644s-1.722-3.289-4.12-3.228C14.8,5.718,15.23,7.071,15.23,7.071S3.887,5.534,5.947,1.168
	c-1.599,0.4-1.599,4.796-1.599,4.796S2.78,3.32,5.393,0c-5.441,3.412-3.351,9.53-3.351,9.53S0.874,9.438,0.259,5.134
	c-1.199,5.288,2.152,8.054,2.152,8.054s-1.322,2.336-0.584,3.443c0.738,1.106-0.984,3.597-0.953,4.396s1.292,0.707,1.292,0.707
	S1.673,23.056,2.75,23.21c-0.246,0.092-0.676,0.953,0.553,1.445c-0.369,0.092-1.106,4.396,4.181,1.691
	c1.967,1.014,3.043,5.779,3.043,5.779L19.534,28.036z"/>
<g>
</g>
<g>
</g>
<g>
</g>
<g>
</g>
<g>
</g>
<g>
</g>
<g>
</g>
<g>
</g>
<g>
</g>
<g>
</g>
<g>
</g>
<g>
</g>
<g>
</g>
<g>
</g>
<g>
</g>
</svg>
