<?xml version="1.0" encoding="iso-8859-1"?>
<!-- Generator: Adobe Illustrator 16.0.0, SVG Export Plug-In . SVG Version: 6.00 Build 0)  -->
<!DOCTYPE svg PUBLIC "-//W3C//DTD SVG 1.1//EN" "http://www.w3.org/Graphics/SVG/1.1/DTD/svg11.dtd">
<svg version="1.1" id="Layer_1" xmlns="http://www.w3.org/2000/svg" xmlns:xlink="http://www.w3.org/1999/xlink" x="0px" y="0px"
	 width="20.923px" height="33.569px" viewBox="0 0 20.923 33.569" style="enable-background:new 0 0 20.923 33.569;"
	 xml:space="preserve">
<path d="M10.539,33.569c-0.28-1.238-1.297-4.543-2.713-5.459c-1.887,0.934-3.257,1.094-4.074,0.472
	c-0.7-0.532-0.787-1.506-0.649-2.178c0.019-0.089,0.039-0.167,0.061-0.234c-0.596-0.356-0.691-0.807-0.688-1.068
	c0.001-0.125,0.025-0.248,0.067-0.36c-0.155-0.101-0.255-0.224-0.319-0.331c-0.185-0.312-0.187-0.685-0.145-0.973
	c-0.282-0.033-0.633-0.122-0.884-0.346c-0.197-0.176-0.307-0.412-0.317-0.683c-0.014-0.363,0.2-0.869,0.471-1.509
	c0.384-0.908,0.911-2.151,0.541-2.707c-0.708-1.061,0.092-2.879,0.439-3.563c-0.75-0.735-3.124-3.501-2.057-8.206L0.69,4.573
	l0.269,1.878C1.19,8.071,1.495,9.055,1.77,9.651C1.475,7.576,1.537,3.594,5.56,1.071L7.267,0L6.021,1.583
	C5.146,2.696,4.766,3.725,4.64,4.587c0.249-1.11,0.712-2.176,1.575-2.392l0.717-0.18L6.616,2.685C6.326,3.299,6.327,3.86,6.62,4.398
	c1.176,2.166,6.449,3.258,8.336,3.585c-0.285-0.437-0.812-1.049-1.722-1.543l-1.148-0.624l1.306-0.034
	c1.419-0.03,2.584,0.944,3.368,1.864c-0.125-0.239-0.287-0.473-0.499-0.679l-1.336-1.303l1.718,0.73
	c0.605,0.257,1.172,1.165,1.586,2.006c-0.014-0.317-0.039-0.654-0.08-0.987l-0.14-1.109l0.747,0.832
	c0.504,0.561,0.692,2.173,0.763,3.308c0.179-0.294,0.35-0.61,0.437-0.861l0.251-0.721l0.383,0.661
	c0.261,0.453-0.012,1.201-0.328,2.067c-0.163,0.448-0.437,1.197-0.367,1.38c1.971,2.268,0.697,4.875-0.426,7.175
	c-0.743,1.521-1.445,2.959-1.207,4.148c0.501,2.184,1.92,4.921,1.935,4.949l-0.621,0.323c-0.06-0.115-1.475-2.845-1.998-5.125
	c-0.287-1.43,0.465-2.971,1.262-4.602c1.079-2.208,2.194-4.492,0.536-6.406c-0.333-0.289-0.201-0.861,0.055-1.598l-0.559,0.765
	l-0.012-1.053c-0.001-0.159-0.006-0.328-0.013-0.503l-0.055,0.762l-0.558-1.592c-0.095-0.273-0.22-0.592-0.364-0.922
	c0,0.044,0,0.072,0,0.08l-0.042,1.327L17.21,9.522C17.199,9.5,16.396,7.994,15.178,7.11c0.549,0.645,0.728,1.186,0.739,1.222
	l0.167,0.527l-0.548-0.074c-0.323-0.043-7.932-1.106-9.532-4.052C5.803,4.36,5.701,3.975,5.699,3.579
	C5.237,4.523,5.051,6.19,5.051,7.331v1.276L4.4,7.51C4.343,7.413,3.243,5.494,4.417,2.867c-3.216,3.254-1.762,7.706-1.69,7.917
	l0.17,0.503l-0.529-0.042c-0.193-0.016-1.024-0.221-1.667-2.533c-0.016,3.606,2.177,5.481,2.287,5.573l0.224,0.187l-0.143,0.255
	c-0.338,0.598-1.104,2.318-0.598,3.077c0.58,0.87-0.007,2.255-0.478,3.368c-0.199,0.47-0.424,1.002-0.417,1.208
	c0.003,0.082,0.028,0.138,0.084,0.188c0.181,0.163,0.605,0.198,0.833,0.184l0.538-0.037l-0.184,0.507
	c-0.051,0.14-0.165,0.592-0.021,0.831c0.037,0.062,0.11,0.146,0.326,0.177l1.355,0.194l-1.281,0.48
	c0.004,0.006-0.069,0.119-0.047,0.26c0.031,0.199,0.247,0.388,0.607,0.532l1.005,0.402l-0.944,0.236
	c-0.109,0.258-0.218,1.095,0.196,1.566c0.532,0.606,1.822,0.428,3.636-0.5l0.16-0.082l0.16,0.083
	c2.088,1.077,3.179,5.812,3.224,6.013L10.539,33.569z"/>
<g>
</g>
<g>
</g>
<g>
</g>
<g>
</g>
<g>
</g>
<g>
</g>
<g>
</g>
<g>
</g>
<g>
</g>
<g>
</g>
<g>
</g>
<g>
</g>
<g>
</g>
<g>
</g>
<g>
</g>
</svg>
