<?xml version="1.0" encoding="iso-8859-1"?>
<!-- Generator: Adobe Illustrator 16.0.0, SVG Export Plug-In . SVG Version: 6.00 Build 0)  -->
<!DOCTYPE svg PUBLIC "-//W3C//DTD SVG 1.1//EN" "http://www.w3.org/Graphics/SVG/1.1/DTD/svg11.dtd">
<svg version="1.1" id="Layer_1" xmlns="http://www.w3.org/2000/svg" xmlns:xlink="http://www.w3.org/1999/xlink" x="0px" y="0px"
	 width="31.927px" height="31.261px" viewBox="0 0 31.927 31.261" style="enable-background:new 0 0 31.927 31.261;"
	 xml:space="preserve">
<g>
	<path d="M14.04,26.617c0,0,2.902-2.902,3.397-3.397s0.301-7.525,1.397-8.621C19.93,13.502,31.927,1.505,31.927,1.505L30.422,0
		c0,0-12.04,12.04-13.094,13.093c-1.053,1.053-8.641,0.475-9.092,0.927c-0.451,0.452-3.396,3.397-3.396,3.397L14.04,26.617z"/>
	<path d="M0,23.714l0.331,0.331c0.146-0.148,0.291-0.296,0.437-0.444c1.031-1.017,2.065-2.031,2.861-2.771
		c0.795-0.74,1.337-1.222,1.337-1.222s-0.481,0.542-1.222,1.338c-0.74,0.796-1.754,1.829-2.771,2.86
		c-0.149,0.146-0.296,0.291-0.445,0.437l0.21,0.21c0.146-0.149,0.29-0.296,0.437-0.445c1.031-1.017,2.065-2.031,2.86-2.771
		c0.796-0.74,1.338-1.222,1.338-1.222s-0.481,0.542-1.222,1.338c-0.74,0.796-1.754,1.83-2.771,2.861
		c-0.148,0.146-0.296,0.291-0.444,0.437l0.231,0.231c0.146-0.149,0.29-0.296,0.437-0.445c1.031-1.017,2.064-2.031,2.86-2.771
		c0.796-0.74,1.338-1.222,1.338-1.222s-0.482,0.542-1.222,1.338c-0.74,0.796-1.754,1.83-2.771,2.86
		c-0.149,0.147-0.296,0.292-0.445,0.437l0.178,0.178c0.146-0.148,0.291-0.296,0.437-0.445c1.031-1.017,2.065-2.031,2.861-2.771
		c0.796-0.74,1.338-1.222,1.338-1.222S5.7,21.365,4.959,22.161c-0.74,0.796-1.754,1.83-2.771,2.861
		c-0.149,0.146-0.296,0.291-0.445,0.437l0.134,0.134c0.146-0.148,0.291-0.295,0.437-0.444c1.031-1.017,2.065-2.031,2.861-2.771
		c0.795-0.74,1.337-1.221,1.337-1.221s-0.481,0.542-1.221,1.338s-1.754,1.83-2.771,2.861c-0.149,0.146-0.296,0.291-0.444,0.437
		l0.188,0.188c0.146-0.148,0.291-0.296,0.437-0.445c1.031-1.017,2.065-2.031,2.861-2.771c0.796-0.74,1.338-1.222,1.338-1.222
		S6.42,22.085,5.68,22.881c-0.74,0.796-1.754,1.83-2.771,2.861c-0.149,0.146-0.296,0.291-0.445,0.437l0.167,0.167
		c0.146-0.148,0.291-0.295,0.438-0.444c1.031-1.018,2.064-2.032,2.861-2.771c0.795-0.74,1.338-1.221,1.338-1.221
		s-0.482,0.542-1.222,1.338c-0.74,0.796-1.753,1.83-2.771,2.861c-0.149,0.147-0.296,0.291-0.444,0.437l0.209,0.209
		c0.146-0.148,0.291-0.295,0.437-0.445c1.031-1.017,2.065-2.031,2.861-2.771c0.796-0.74,1.338-1.222,1.338-1.222
		s-0.481,0.542-1.222,1.338c-0.74,0.796-1.754,1.83-2.771,2.861c-0.149,0.146-0.296,0.291-0.444,0.437l0.209,0.21
		c0.146-0.149,0.29-0.296,0.437-0.445c1.031-1.017,2.065-2.031,2.861-2.771c0.796-0.74,1.338-1.222,1.338-1.222
		s-0.481,0.542-1.222,1.338c-0.74,0.796-1.754,1.83-2.771,2.86c-0.148,0.147-0.296,0.292-0.444,0.438l0.188,0.188
		c0.146-0.148,0.29-0.295,0.437-0.444c1.031-1.017,2.065-2.031,2.861-2.771c0.796-0.74,1.338-1.222,1.338-1.222
		S7.989,23.654,7.25,24.45c-0.74,0.796-1.754,1.83-2.771,2.861c-0.149,0.147-0.296,0.292-0.444,0.438l0.199,0.198
		c0.146-0.148,0.291-0.295,0.437-0.444c1.031-1.017,2.064-2.031,2.861-2.771c0.795-0.74,1.338-1.222,1.338-1.222
		s-0.481,0.542-1.222,1.338c-0.74,0.796-1.754,1.83-2.771,2.861C4.727,27.855,4.58,28,4.432,28.146l0.199,0.199
		c0.146-0.149,0.29-0.296,0.437-0.445c1.031-1.017,2.064-2.031,2.86-2.771c0.796-0.74,1.338-1.222,1.338-1.222
		s-0.482,0.542-1.222,1.338c-0.74,0.796-1.754,1.83-2.771,2.86c-0.149,0.147-0.296,0.292-0.445,0.437l0.146,0.146
		c0.146-0.149,0.29-0.295,0.437-0.445c1.031-1.017,2.065-2.031,2.861-2.771c0.796-0.74,1.338-1.222,1.338-1.222
		s-0.481,0.542-1.222,1.338c-0.74,0.796-1.754,1.83-2.771,2.861c-0.148,0.146-0.296,0.292-0.444,0.437L5.286,29
		c0.146-0.148,0.291-0.295,0.437-0.444c1.031-1.017,2.065-2.031,2.861-2.771c0.795-0.74,1.338-1.222,1.338-1.222
		S9.44,25.106,8.7,25.902c-0.74,0.796-1.753,1.83-2.771,2.861c-0.149,0.146-0.296,0.291-0.444,0.437l0.177,0.177
		c0.146-0.149,0.29-0.295,0.437-0.445c1.031-1.017,2.065-2.031,2.861-2.771c0.796-0.74,1.338-1.222,1.338-1.222
		s-0.481,0.543-1.222,1.338c-0.74,0.796-1.754,1.83-2.771,2.861c-0.148,0.147-0.296,0.292-0.444,0.437l0.134,0.134
		c0.146-0.148,0.29-0.295,0.437-0.444c1.031-1.017,2.065-2.031,2.861-2.771c0.796-0.74,1.338-1.222,1.338-1.222
		s-0.481,0.542-1.222,1.338c-0.74,0.796-1.754,1.83-2.771,2.861c-0.149,0.147-0.296,0.292-0.444,0.438l0.156,0.156
		c0.146-0.148,0.29-0.295,0.437-0.444c1.031-1.017,2.064-2.031,2.861-2.771c0.796-0.74,1.338-1.222,1.338-1.222
		s-0.482,0.542-1.222,1.338c-0.739,0.796-1.754,1.83-2.771,2.861c-0.148,0.147-0.296,0.292-0.444,0.437l0.135,0.135
		c0.146-0.149,0.29-0.296,0.437-0.445c1.031-1.017,2.064-2.031,2.86-2.771c0.796-0.74,1.338-1.222,1.338-1.222
		s-0.482,0.542-1.222,1.338c-0.74,0.796-1.754,1.83-2.771,2.861c-0.148,0.147-0.296,0.292-0.445,0.437l0.124,0.124
		c0.146-0.148,0.29-0.295,0.437-0.444c1.031-1.017,2.064-2.031,2.861-2.771c0.796-0.74,1.338-1.222,1.338-1.222
		s-0.482,0.542-1.222,1.338c-0.74,0.796-1.754,1.83-2.771,2.861c-0.149,0.147-0.296,0.291-0.445,0.437l0.342,0.341l5.165-5.165
		L5.165,18.55L0,23.714z"/>
</g>
<g>
</g>
<g>
</g>
<g>
</g>
<g>
</g>
<g>
</g>
<g>
</g>
<g>
</g>
<g>
</g>
<g>
</g>
<g>
</g>
<g>
</g>
<g>
</g>
<g>
</g>
<g>
</g>
<g>
</g>
</svg>
