<?xml version="1.0" encoding="iso-8859-1"?>
<!-- Generator: Adobe Illustrator 16.0.0, SVG Export Plug-In . SVG Version: 6.00 Build 0)  -->
<!DOCTYPE svg PUBLIC "-//W3C//DTD SVG 1.1//EN" "http://www.w3.org/Graphics/SVG/1.1/DTD/svg11.dtd">
<svg version="1.1" id="Layer_1" xmlns="http://www.w3.org/2000/svg" xmlns:xlink="http://www.w3.org/1999/xlink" x="0px" y="0px"
	 width="17.611px" height="31.651px" viewBox="0 0 17.611 31.651" style="enable-background:new 0 0 17.611 31.651;"
	 xml:space="preserve">
<path d="M12.848,18.896v-1.36h1.215v-1.992l-1.997,0.039l5.546-11.09c0,0-1.563-4.373-8.24-4.49C2.694-0.115,0,4.258,0,4.258
	l5.11,11.286h-2.06v1.992h1.187v1.404c-0.919,1.261-1.493,2.907-1.493,4.731c0,1.878,0.604,3.573,1.57,4.847H4.237v1.142H2.715
	v1.992H14.37V29.66h-1.522v-1.142H12.8c0.967-1.274,1.57-2.969,1.57-4.847C14.37,21.826,13.784,20.162,12.848,18.896z"/>
<g>
</g>
<g>
</g>
<g>
</g>
<g>
</g>
<g>
</g>
<g>
</g>
<g>
</g>
<g>
</g>
<g>
</g>
<g>
</g>
<g>
</g>
<g>
</g>
<g>
</g>
<g>
</g>
<g>
</g>
</svg>
