<?xml version="1.0" encoding="iso-8859-1"?>
<!-- Generator: Adobe Illustrator 16.0.0, SVG Export Plug-In . SVG Version: 6.00 Build 0)  -->
<!DOCTYPE svg PUBLIC "-//W3C//DTD SVG 1.1//EN" "http://www.w3.org/Graphics/SVG/1.1/DTD/svg11.dtd">
<svg version="1.1" id="Layer_1" xmlns="http://www.w3.org/2000/svg" xmlns:xlink="http://www.w3.org/1999/xlink" x="0px" y="0px"
	 width="31.536px" height="26.685px" viewBox="0 0 31.536 26.685" style="enable-background:new 0 0 31.536 26.685;"
	 xml:space="preserve">
<path d="M18.988,17.135v-1.017l-0.586-1.463l13.133-6.299c0,0-0.378-0.786-1.268-1.877c-0.075-0.09-0.818,0.256-0.899,0.161
	c-0.067-0.078,0.529-0.597,0.458-0.678c-0.273-0.306-0.583-0.627-0.931-0.955c-0.059-0.056-0.511,0.363-0.572,0.308
	c-0.08-0.074,0.229-0.623,0.146-0.696c-0.24-0.21-0.495-0.422-0.766-0.635c-0.099-0.077-0.571,0.394-0.674,0.316
	c-0.103-0.075,0.163-0.699,0.056-0.774c-0.316-0.225-0.652-0.447-1.008-0.664c-0.058-0.034-0.502,0.461-0.561,0.426
	c-0.071-0.042,0.241-0.615,0.169-0.656c-0.237-0.137-0.483-0.27-0.737-0.399c-0.159-0.082-0.577,0.713-0.742,0.634
	c-0.127-0.061,0.001-0.995-0.13-1.054c-0.529-0.236-1.09-0.457-1.687-0.659c-0.097-0.033-0.47,0.653-0.569,0.621
	c-0.113-0.037,0.046-0.791-0.07-0.826c-0.442-0.134-0.901-0.256-1.379-0.365c-0.13-0.029-0.367,0.643-0.5,0.615
	c-0.125-0.026-0.146-0.752-0.274-0.776c-0.401-0.077-0.814-0.145-1.24-0.201c-0.099-0.014-0.288,0.724-0.388,0.712
	c-0.098-0.012-0.106-0.772-0.206-0.783c-0.444-0.048-0.9-0.086-1.37-0.111c-0.15-0.009-0.472,1.305-0.624,1.301
	c-0.241-0.01-0.314-1.336-0.562-1.338c-0.565-0.006-1.111,0.009-1.638,0.041c-0.125,0.006-0.156,0.74-0.279,0.75
	c-0.105,0.008-0.302-0.709-0.406-0.7c-0.31,0.028-0.612,0.063-0.907,0.103c-0.378,0.052-0.468,1.121-0.824,1.19
	c-0.134,0.026-0.543-0.953-0.675-0.925c-0.343,0.076-0.674,0.16-0.995,0.251c-0.334,0.095-0.657,0.196-0.97,0.306
	C8.278,1.099,8.05,1.185,7.828,1.273C7.662,1.341,7.989,2.375,7.83,2.446c-0.15,0.066-0.789-0.831-0.933-0.761
	C6.313,1.968,5.775,2.273,5.28,2.596c-0.106,0.07,0.281,0.699,0.179,0.77C5.37,3.426,4.791,2.929,4.706,2.99
	c-0.275,0.198-1.557,1.299-1.89,1.646C2.756,4.698,3.129,5.222,3.072,5.284C3.014,5.347,2.519,4.959,2.45,5.04
	C2.062,5.501,1.542,6.21,1.294,6.547C1.217,6.652,2.27,7.207,2.199,7.312c-0.18,0.26-1.135-0.434-1.275-0.196
	C0.25,8.246,0,9.054,0,9.054l13.196,5.572l-0.653,1.492v1.051c-0.688,0.943-1.118,2.176-1.118,3.542
	c0,1.406,0.452,2.675,1.175,3.628h-0.058v0.855h-1.14v1.49h8.725v-1.49h-1.14v-0.855h-0.036c0.724-0.953,1.175-2.222,1.175-3.628
	C20.128,19.329,19.689,18.084,18.988,17.135z"/>
<g>
</g>
<g>
</g>
<g>
</g>
<g>
</g>
<g>
</g>
<g>
</g>
<g>
</g>
<g>
</g>
<g>
</g>
<g>
</g>
<g>
</g>
<g>
</g>
<g>
</g>
<g>
</g>
<g>
</g>
</svg>
