<?xml version="1.0" encoding="iso-8859-1"?>
<!-- Generator: Adobe Illustrator 16.0.0, SVG Export Plug-In . SVG Version: 6.00 Build 0)  -->
<!DOCTYPE svg PUBLIC "-//W3C//DTD SVG 1.1//EN" "http://www.w3.org/Graphics/SVG/1.1/DTD/svg11.dtd">
<svg version="1.1" id="Layer_1" xmlns="http://www.w3.org/2000/svg" xmlns:xlink="http://www.w3.org/1999/xlink" x="0px" y="0px"
	 width="23.291px" height="31.764px" viewBox="0 0 23.291 31.764" style="enable-background:new 0 0 23.291 31.764;"
	 xml:space="preserve">
<path d="M23.291,11.935C23.291,5.354,18.067,0,11.646,0S0,5.354,0,11.935c0,3.979,1.91,7.508,4.841,9.678
	c0.145,0.924,0.381,1.97,0.543,2.876c0.249,1.392,0.762,1.007,1.523,1.024c0.587,0.016,3.125,0.077,4.258,0.104v1.381h-0.313v3.711
	h-2.64v1.055h6.937v-1.055h-2.598v-1.78c0.342,0.045,0.96,0.112,1.6,0.112c0.489-0.001,0.993-0.04,1.396-0.158
	c0.682-0.199,0.85-0.577,0.779-0.864c-0.103-0.421-0.684-0.652-1.32-0.527c-0.853,0.167-2.185,0.032-2.455,0.002v-0.495h-0.409
	v-1.385c1.193-0.029,3.54-0.086,4.102-0.101c0.762-0.018,1.273,0.367,1.523-1.024c0.154-0.868,0.38-1.866,0.524-2.763
	C21.312,19.567,23.291,15.983,23.291,11.935z M15.098,27.95c0.45-0.089,0.748,0.073,0.774,0.18c0.012,0.053-0.083,0.194-0.457,0.304
	c-0.868,0.254-2.335,0.093-2.863,0.021v-0.489C12.93,28.006,14.216,28.124,15.098,27.95z M2.65,11.935
	c0-5.091,4.035-9.232,8.995-9.232s8.995,4.142,8.995,9.232c0,2.795-1.218,5.304-3.138,6.997c-0.106-0.007-0.22-0.011-0.351-0.011
	c-1.173,0-1.202-0.146-1.202-1.479c0-1.332-0.589-1.861-1.904-1.861c-1.058,0-2.102,0.057-2.471,0.08
	c-0.368-0.023-1.413-0.08-2.471-0.08c-1.315,0-1.904,0.529-1.904,1.861c0,1.333-0.029,1.479-1.202,1.479
	c-0.076,0-0.148,0.002-0.217,0.004C3.865,17.23,2.65,14.727,2.65,11.935z M15.174,23.99c-0.892,0-2.753,0-3.459,0
	c0,0-0.104,0-0.279,0c-0.706,0-2.566,0-3.459,0c-1.113,0,0-1.523,0.352-1.523c0.286,0,2.348,0.02,3.107,0.026v0.003
	c0,0,0.051-0.001,0.14-0.002c0.089,0.001,0.14,0.002,0.14,0.002v-0.003c0.76-0.007,2.821-0.026,3.107-0.026
	C15.174,22.467,16.288,23.99,15.174,23.99z M18.403,20.909c0.024-0.229,0.037-0.445,0.037-0.641c0-0.615-0.035-0.963-0.273-1.151
	c1.88-1.793,3.061-4.35,3.061-7.183c0-5.414-4.299-9.818-9.582-9.818s-9.582,4.404-9.582,9.818c0,2.805,1.157,5.338,3.005,7.129
	c-0.313,0.17-0.358,0.523-0.358,1.205c0,0.16,0.01,0.334,0.026,0.518c-2.528-2.081-4.15-5.275-4.15-8.852
	c0-6.258,4.961-11.349,11.06-11.349s11.06,5.091,11.06,11.349C22.705,15.582,21.02,18.831,18.403,20.909z"/>
<g>
</g>
<g>
</g>
<g>
</g>
<g>
</g>
<g>
</g>
<g>
</g>
<g>
</g>
<g>
</g>
<g>
</g>
<g>
</g>
<g>
</g>
<g>
</g>
<g>
</g>
<g>
</g>
<g>
</g>
</svg>
