<?xml version="1.0" encoding="iso-8859-1"?>
<!-- Generator: Adobe Illustrator 16.0.0, SVG Export Plug-In . SVG Version: 6.00 Build 0)  -->
<!DOCTYPE svg PUBLIC "-//W3C//DTD SVG 1.1//EN" "http://www.w3.org/Graphics/SVG/1.1/DTD/svg11.dtd">
<svg version="1.1" id="Layer_1" xmlns="http://www.w3.org/2000/svg" xmlns:xlink="http://www.w3.org/1999/xlink" x="0px" y="0px"
	 width="31.901px" height="25.976px" viewBox="0 0 31.901 25.976" style="enable-background:new 0 0 31.901 25.976;"
	 xml:space="preserve">
<path d="M31.744,4.11c-0.143,0.001-0.735,0.006-1.616,0.013l-0.282-3.981L26.241,0c0,0-0.012,0.926,0.007,1.019
	c0.018,0.091-1.73,1.026-1.098,1.021c0.072,0,0.152-0.001,0.237-0.001v0.155h2.194V2.023c0.054,0,0.104-0.001,0.153-0.001
	c0.735,0-0.768-0.858-0.759-0.972c0.01-0.113-0.006-0.278-0.006-0.278l2.117,0.112l-0.494,3.251
	c-3.597,0.031-9.312,0.079-12.099,0.103c-1.012,0.009-0.846,0.621-0.325,1.021s6.229,4.78,6.229,4.78s-7.21,10.34-7.92,10.435
	c-0.712,0.095-4.192-1.024-4.192-1.024l0.475-0.665l0.823,0.172c0,0,7.091-9.297,7.399-9.913c0.309-0.617-0.817-1.185-1.684-0.167
	c-0.866,1.02-2.158,2.538-2.158,2.538s-8.287-1.088-8.659-1.088S5.632,10.344,5.36,10.78c-0.273,0.438-2.597,4.168-2.597,4.168
	s-0.996-0.451-1.85-0.451c-0.854,0-1.303,1.375-0.474,1.375c0.829,0,7.821,2.146,7.821,2.146l-0.493,0.818l-0.735-0.593
	l-0.759,0.285l5.219,6.091l-0.903,1.355H20.93L27.19,9.896l2.655-1.755C29.846,8.142,32.573,4.103,31.744,4.11z"/>
<g>
</g>
<g>
</g>
<g>
</g>
<g>
</g>
<g>
</g>
<g>
</g>
<g>
</g>
<g>
</g>
<g>
</g>
<g>
</g>
<g>
</g>
<g>
</g>
<g>
</g>
<g>
</g>
<g>
</g>
</svg>
