<?xml version="1.0" encoding="iso-8859-1"?>
<!-- Generator: Adobe Illustrator 16.0.0, SVG Export Plug-In . SVG Version: 6.00 Build 0)  -->
<!DOCTYPE svg PUBLIC "-//W3C//DTD SVG 1.1//EN" "http://www.w3.org/Graphics/SVG/1.1/DTD/svg11.dtd">
<svg version="1.1" id="Layer_1" xmlns="http://www.w3.org/2000/svg" xmlns:xlink="http://www.w3.org/1999/xlink" x="0px" y="0px"
	 width="24.129px" height="31.416px" viewBox="0 0 24.129 31.416" style="enable-background:new 0 0 24.129 31.416;"
	 xml:space="preserve">
<path d="M12.071,27.403v-6.92h5.812c0.13,0.039,0.25,0.044,0.354,0c1.447-7.439,6.87-16.809,5.737-19.022
	c-1.132-2.215-4.49-1.645-5.479-0.058c-0.757,1.214-1.385,2.017-2.325,8.402c-2.004-0.654-5.74-1.538-8.222-0.091
	c-2.405,1.402-3.291,3.736-3.611,5.052c-1.688-0.149-2.992-0.106-3.473,0.275c-1.946,1.547,0,5.442,0,5.442h2.521v2.171H0.614v1.3
	h3.37v-0.148v-1.151v-2.171h6.065v6.92c-4.048,0.23-7.438,1.822-8.908,4.013h19.838C19.51,29.226,16.12,27.634,12.071,27.403z
	 M9.155,11.784c1.682-0.979,4.916-0.178,6.681,0.438c-0.173,1.321-0.357,2.828-0.555,4.545c-2.331-0.546-5.655-1.271-8.547-1.705
	C7,14.128,7.64,12.666,9.155,11.784z"/>
<g>
</g>
<g>
</g>
<g>
</g>
<g>
</g>
<g>
</g>
<g>
</g>
<g>
</g>
<g>
</g>
<g>
</g>
<g>
</g>
<g>
</g>
<g>
</g>
<g>
</g>
<g>
</g>
<g>
</g>
</svg>
