<?xml version="1.0" encoding="iso-8859-1"?>
<!-- Generator: Adobe Illustrator 16.0.0, SVG Export Plug-In . SVG Version: 6.00 Build 0)  -->
<!DOCTYPE svg PUBLIC "-//W3C//DTD SVG 1.1//EN" "http://www.w3.org/Graphics/SVG/1.1/DTD/svg11.dtd">
<svg version="1.1" id="Layer_1" xmlns="http://www.w3.org/2000/svg" xmlns:xlink="http://www.w3.org/1999/xlink" x="0px" y="0px"
	 width="31.017px" height="31.614px" viewBox="0 0 31.017 31.614" style="enable-background:new 0 0 31.017 31.614;"
	 xml:space="preserve">
<path d="M19.932,17.014l0.336-0.335l-1.463-2.374l0.93-0.931l1.337,2.312l0.364-0.365l0.336,0.692l0.506-0.246l-0.421-0.868
	l0.335-0.335l-1.392-2.257l1.095-1.095l1.32,2.282l0.364-0.365l0.335,0.693l0.506-0.246l-0.421-0.868l0.335-0.335l-1.374-2.229
	l0.927-0.927l1.251,2.163l0.365-0.365l0.336,0.692l0.506-0.245l-0.421-0.868l0.335-0.335l-1.301-2.111l1.245-1.246l1.285,2.223
	l0.365-0.365l0.336,0.692l0.506-0.246l-0.421-0.868l0.335-0.335l-1.337-2.17L28.2,4.909l1.216,2.103l0.364-0.365l0.335,0.692
	l0.506-0.245l-0.421-0.868l0.815-0.793l-1.962-3.185L25.625,0l-0.821,0.798l-0.927-0.45l-0.245,0.506l0.75,0.364l-0.379,0.379
	l2.582,1.531l-0.932,0.932l-2.434-1.491l-0.34,0.341l-0.926-0.45l-0.246,0.506l0.751,0.365l-0.379,0.38l2.463,1.461l-1.179,1.179
	L20.87,4.827l-0.34,0.34l-0.926-0.449l-0.246,0.506l0.751,0.365l-0.38,0.379l2.523,1.496L21.32,8.395L18.945,6.94l-0.341,0.341
	l-0.926-0.45l-0.245,0.506l0.75,0.365l-0.379,0.379l2.404,1.426l-1.061,1.061L16.8,9.132l-0.34,0.34l-0.927-0.449l-0.246,0.506
	l0.751,0.365l-0.38,0.379l2.375,1.408l-0.93,0.93l-2.229-1.365l-0.341,0.34l-0.926-0.449l-0.246,0.506l0.75,0.364l-0.379,0.379
	l2.256,1.338l-1.004,1.005l-1.797-1.797l-2.908,2.908c0,0,0.04,2.464-0.768,3.07L0,28.423l3.191,3.19l9.392-9.392
	c0.989-1.03,3.11-0.97,3.11-0.97l2.908-2.908l-1.918-1.918l1.058-1.058l1.407,2.431l0.364-0.365l0.335,0.692l0.506-0.245
	L19.932,17.014z"/>
<g>
</g>
<g>
</g>
<g>
</g>
<g>
</g>
<g>
</g>
<g>
</g>
<g>
</g>
<g>
</g>
<g>
</g>
<g>
</g>
<g>
</g>
<g>
</g>
<g>
</g>
<g>
</g>
<g>
</g>
</svg>
