<?xml version="1.0" encoding="iso-8859-1"?>
<!-- Generator: Adobe Illustrator 16.0.0, SVG Export Plug-In . SVG Version: 6.00 Build 0)  -->
<!DOCTYPE svg PUBLIC "-//W3C//DTD SVG 1.1//EN" "http://www.w3.org/Graphics/SVG/1.1/DTD/svg11.dtd">
<svg version="1.1" id="Layer_1" xmlns="http://www.w3.org/2000/svg" xmlns:xlink="http://www.w3.org/1999/xlink" x="0px" y="0px"
	 width="30.25px" height="30.616px" viewBox="0 0 30.25 30.616" style="enable-background:new 0 0 30.25 30.616;"
	 xml:space="preserve">
<g>
	<path d="M23.432,7.304l-6.169-5.441c0.034-0.124,0.057-0.251,0.057-0.385C17.319,0.661,16.658,0,15.841,0
		c-0.816,0-1.478,0.661-1.478,1.478c0,0.201,0.041,0.393,0.114,0.568L8.264,7.304H0v23.313h30.25V7.304H23.432z M14.937,2.639
		c0.25,0.195,0.562,0.316,0.904,0.316c0.406,0,0.774-0.164,1.041-0.429l5.416,4.777H9.424L14.937,2.639z M29.25,29.616H1V8.304
		h28.25V29.616z"/>
	<path d="M21.441,15.017c-1.154,0.223-2.384,0.46-3.411,0.653l7.606,0.304l-0.393-0.244C25.243,15.729,23.464,15.394,21.441,15.017z
		"/>
	<path d="M9.622,14.507c0.003-0.002,0.008-0.002,0.011-0.001c-0.006,0.004-0.012,0.008-0.012,0.008l6.215,0.243l0.602-0.656
		c-0.413-0.072-0.683-0.115-0.742-0.119c-2.399-0.448-3.928-2.48-3.972-2.538c-0.39-0.675-1.175-1.141-2.083-1.145
		c-1.299-0.006-2.36,0.932-2.366,2.092C7.271,13.55,8.323,14.499,9.622,14.507z M9.639,10.98c0.922,0.004,1.67,0.646,1.666,1.431
		c-0.004,0.783-0.757,1.417-1.681,1.412c-0.922-0.004-1.67-0.645-1.667-1.429C7.961,11.609,8.716,10.976,9.639,10.98z"/>
	<path d="M9.404,19.473c0.926,0.004,1.729-0.475,2.117-1.168c0.11-0.143,1.626-2.041,3.974-2.455c0.374-0.013,9.57-1.816,9.57-1.816
		l0.366-0.245l-8.656,0.372l-0.833,0.907l-6.393,0.204c-0.042-0.002-0.082-0.006-0.124-0.006c-1.299-0.008-2.36,0.931-2.366,2.091
		S8.104,19.465,9.404,19.473z M17.097,14.536c0.199,0.002,0.358,0.162,0.358,0.36c-0.001,0.199-0.163,0.359-0.361,0.357
		c-0.198-0.001-0.358-0.163-0.357-0.36C16.737,14.695,16.899,14.534,17.097,14.536z M9.421,15.946
		c0.923,0.005,1.67,0.647,1.667,1.43c-0.003,0.785-0.758,1.418-1.681,1.414c-0.923-0.005-1.67-0.646-1.667-1.431
		C7.744,16.575,8.499,15.941,9.421,15.946z"/>
	<path d="M3.461,25.843c0.224,0.24,0.496,0.431,0.818,0.569c0.322,0.14,0.692,0.209,1.11,0.209c0.375,0,0.709-0.063,1.002-0.187
		c0.293-0.125,0.54-0.29,0.739-0.494s0.351-0.434,0.454-0.688c0.103-0.254,0.155-0.512,0.155-0.771H6.182
		c-0.024,0.12-0.057,0.232-0.097,0.338c-0.041,0.106-0.094,0.197-0.159,0.274s-0.144,0.137-0.238,0.18
		c-0.094,0.044-0.208,0.065-0.342,0.065c-0.188,0-0.344-0.041-0.468-0.123c-0.125-0.081-0.225-0.189-0.299-0.324
		c-0.075-0.134-0.128-0.285-0.162-0.454c-0.034-0.168-0.05-0.339-0.05-0.512s0.017-0.343,0.05-0.512
		c0.034-0.168,0.087-0.319,0.162-0.454c0.074-0.134,0.174-0.242,0.299-0.324c0.125-0.081,0.281-0.122,0.468-0.122
		c0.163,0,0.296,0.031,0.4,0.094s0.186,0.135,0.249,0.216c0.063,0.082,0.106,0.165,0.13,0.249s0.041,0.15,0.05,0.198h1.542
		c-0.067-0.648-0.294-1.149-0.681-1.503s-0.936-0.532-1.647-0.537c-0.398,0-0.758,0.065-1.077,0.194
		c-0.32,0.13-0.594,0.313-0.822,0.548s-0.403,0.52-0.526,0.851c-0.123,0.332-0.184,0.699-0.184,1.103
		c0,0.38,0.058,0.734,0.173,1.063C3.069,25.318,3.238,25.603,3.461,25.843z"/>
	<polygon points="9.988,21.354 8.402,21.354 8.402,26.499 12.265,26.499 12.265,25.18 9.988,25.18 	"/>
	<path d="M17.292,21.991c-0.228-0.238-0.503-0.424-0.825-0.559s-0.677-0.202-1.067-0.202c-0.389,0-0.745,0.067-1.066,0.202
		s-0.597,0.32-0.825,0.559c-0.228,0.237-0.405,0.521-0.53,0.851s-0.188,0.69-0.188,1.084c0,0.395,0.063,0.756,0.188,1.085
		s0.302,0.612,0.53,0.851c0.228,0.237,0.503,0.424,0.825,0.559s0.677,0.201,1.066,0.201c0.39,0,0.745-0.066,1.067-0.201
		s0.597-0.321,0.825-0.559c0.228-0.238,0.405-0.521,0.53-0.851s0.188-0.69,0.188-1.085c0-0.394-0.063-0.755-0.188-1.084
		S17.52,22.229,17.292,21.991z M16.318,24.633c-0.069,0.183-0.155,0.325-0.256,0.429c-0.101,0.104-0.211,0.175-0.332,0.216
		s-0.23,0.062-0.332,0.062c-0.101,0-0.211-0.021-0.331-0.062c-0.121-0.041-0.231-0.112-0.332-0.216
		c-0.101-0.104-0.187-0.246-0.256-0.429c-0.07-0.183-0.104-0.418-0.104-0.707c0-0.288,0.035-0.523,0.104-0.706
		c0.069-0.183,0.155-0.325,0.256-0.429c0.101-0.104,0.211-0.176,0.332-0.216c0.12-0.041,0.23-0.062,0.331-0.062
		c0.101,0,0.211,0.021,0.332,0.062c0.12,0.04,0.231,0.112,0.332,0.216c0.101,0.104,0.187,0.246,0.256,0.429
		c0.07,0.183,0.104,0.418,0.104,0.706C16.423,24.215,16.388,24.45,16.318,24.633z"/>
	<path d="M22.545,23.829c-0.137-0.113-0.292-0.206-0.465-0.277c-0.173-0.072-0.351-0.135-0.533-0.188
		c-0.183-0.048-0.362-0.093-0.537-0.134s-0.333-0.084-0.472-0.13c-0.139-0.045-0.253-0.098-0.342-0.158
		c-0.089-0.06-0.136-0.136-0.141-0.228c0-0.071,0.02-0.13,0.058-0.176c0.038-0.046,0.086-0.081,0.144-0.104
		c0.058-0.024,0.12-0.041,0.188-0.051c0.067-0.01,0.127-0.015,0.18-0.015c0.082,0,0.163,0.01,0.245,0.029
		c0.082,0.019,0.156,0.053,0.224,0.101c0.067,0.043,0.119,0.099,0.155,0.166s0.047,0.148,0.033,0.245h1.499
		c-0.01-0.313-0.075-0.575-0.195-0.789s-0.279-0.387-0.476-0.52c-0.197-0.132-0.423-0.227-0.677-0.284
		c-0.255-0.058-0.521-0.087-0.8-0.087c-0.264,0-0.521,0.032-0.771,0.098c-0.25,0.064-0.471,0.167-0.663,0.306
		c-0.192,0.14-0.347,0.316-0.465,0.53s-0.177,0.47-0.177,0.768c0,0.26,0.053,0.472,0.159,0.638s0.242,0.303,0.407,0.411
		c0.166,0.107,0.353,0.194,0.562,0.259c0.209,0.065,0.415,0.127,0.616,0.185c0.221,0.063,0.404,0.116,0.548,0.162
		c0.144,0.045,0.257,0.089,0.339,0.129c0.082,0.041,0.139,0.085,0.173,0.13c0.034,0.046,0.05,0.103,0.05,0.17
		c0,0.096-0.021,0.174-0.064,0.234c-0.043,0.06-0.099,0.107-0.166,0.144s-0.139,0.061-0.216,0.072
		c-0.077,0.012-0.146,0.018-0.209,0.018c-0.149,0-0.298-0.023-0.447-0.071c-0.149-0.049-0.252-0.149-0.31-0.303
		c-0.038-0.102-0.058-0.214-0.058-0.339h-1.585c0,0.273,0.043,0.509,0.13,0.706s0.197,0.365,0.332,0.505
		c0.134,0.139,0.286,0.25,0.454,0.331c0.168,0.082,0.336,0.146,0.504,0.194c0.168,0.049,0.327,0.08,0.476,0.094
		c0.149,0.015,0.271,0.021,0.368,0.021c0.288,0,0.574-0.029,0.857-0.09c0.284-0.06,0.538-0.158,0.764-0.295
		c0.226-0.138,0.408-0.318,0.548-0.545c0.139-0.226,0.209-0.507,0.209-0.843c0-0.235-0.041-0.437-0.123-0.602
		C22.792,24.081,22.683,23.941,22.545,23.829z"/>
	<polygon points="27.745,22.672 27.745,21.354 23.486,21.354 23.486,26.499 27.825,26.499 27.825,25.18 25.072,25.18 25.072,24.539 
		27.5,24.539 27.5,23.313 25.072,23.313 25.072,22.672 	"/>
</g>
<g>
</g>
<g>
</g>
<g>
</g>
<g>
</g>
<g>
</g>
<g>
</g>
<g>
</g>
<g>
</g>
<g>
</g>
<g>
</g>
<g>
</g>
<g>
</g>
<g>
</g>
<g>
</g>
<g>
</g>
</svg>
