<?xml version="1.0" encoding="iso-8859-1"?>
<!-- Generator: Adobe Illustrator 16.0.0, SVG Export Plug-In . SVG Version: 6.00 Build 0)  -->
<!DOCTYPE svg PUBLIC "-//W3C//DTD SVG 1.1//EN" "http://www.w3.org/Graphics/SVG/1.1/DTD/svg11.dtd">
<svg version="1.1" id="Layer_1" xmlns="http://www.w3.org/2000/svg" xmlns:xlink="http://www.w3.org/1999/xlink" x="0px" y="0px"
	 width="30.124px" height="31.72px" viewBox="0 0 30.124 31.72" style="enable-background:new 0 0 30.124 31.72;"
	 xml:space="preserve">
<g>
	<path d="M7.659,23.506c-0.001,0.015-0.003,0.029-0.003,0.029l8.29-9.117l0.51-0.022l0.252-1.626L27.338,2.441
		c-3.548,3.081-12.258,10.65-12.672,11.1C11,16.548,6.105,16.378,5.687,16.358c-0.451-0.083-0.925-0.094-1.409-0.021
		c-1.164,0.173-2.249,0.791-3.052,1.737c-1.572,1.851-1.639,4.439-0.157,6.021c0.099,0.104,0.205,0.205,0.314,0.298
		c1.769,1.503,4.579,1.113,6.262-0.869C7.65,23.518,7.654,23.512,7.659,23.506z M2.266,23.353c-0.071-0.06-0.139-0.125-0.202-0.192
		c-1.008-1.076-0.921-2.883,0.201-4.205c0.59-0.695,1.376-1.146,2.214-1.271c0.804-0.12,1.558,0.079,2.125,0.56
		c0.071,0.061,0.139,0.125,0.202,0.193c1.008,1.075,0.922,2.883-0.2,4.204C5.409,24.05,3.462,24.369,2.266,23.353z"/>
	<path d="M14.387,25.904c-0.021-0.358-0.256-5.217,2.722-8.945c0.545-0.515,12.846-15.977,12.846-15.977L30.124,0l-13.08,12.999
		l-0.299,2.196l-9.333,8.76c-0.065,0.052-0.133,0.101-0.196,0.156c-1.959,1.708-2.313,4.521-0.787,6.272
		c0.051,0.059,0.104,0.115,0.157,0.17c1.569,1.593,4.276,1.551,6.164-0.095C14.147,29.24,14.723,27.46,14.387,25.904z
		 M11.737,29.297c-1.316,1.146-3.166,1.19-4.147,0.073c-0.966-1.11-0.68-2.948,0.639-4.098c1.275-1.111,3.054-1.187,4.052-0.174
		c0.032,0.033,0.064,0.067,0.094,0.102C13.342,26.309,13.056,28.146,11.737,29.297z M17.548,14.457
		c-0.236-0.24-0.233-0.624,0.006-0.86c0.239-0.235,0.625-0.233,0.86,0.006c0.235,0.239,0.232,0.625-0.007,0.86
		C18.168,14.698,17.784,14.695,17.548,14.457z"/>
</g>
<g>
</g>
<g>
</g>
<g>
</g>
<g>
</g>
<g>
</g>
<g>
</g>
<g>
</g>
<g>
</g>
<g>
</g>
<g>
</g>
<g>
</g>
<g>
</g>
<g>
</g>
<g>
</g>
<g>
</g>
</svg>
