<?xml version="1.0" encoding="iso-8859-1"?>
<!-- Generator: Adobe Illustrator 16.0.0, SVG Export Plug-In . SVG Version: 6.00 Build 0)  -->
<!DOCTYPE svg PUBLIC "-//W3C//DTD SVG 1.1//EN" "http://www.w3.org/Graphics/SVG/1.1/DTD/svg11.dtd">
<svg version="1.1" id="Layer_1" xmlns="http://www.w3.org/2000/svg" xmlns:xlink="http://www.w3.org/1999/xlink" x="0px" y="0px"
	 width="26.422px" height="31.842px" viewBox="0 0 26.422 31.842" style="enable-background:new 0 0 26.422 31.842;"
	 xml:space="preserve">
<g>
	<path d="M14.4,10.295c-0.262,0.503-2.209,4.819-1.902,4.883c0.525-0.092,3.198,0.667,3.198,0.667
		c0.441-0.826,1.049-1.885,0.985-3.065c-0.101-1.875-1.749-4.512-1.749-4.512s0.025-8.467-5.754-8.264
		C3.398,0.207,1.624,9.586,1.573,10.701c-0.051,1.115,0.152,2.788,0.152,2.788s-0.507,0.102-0.456,0.558
		c0.05,0.457,0.481,0.912,0.507,1.268s-1.065,0.279-1.014,0.761s0.761,0.659,0.659,1.014s-1.47,0.735-1.419,1.927
		s2.104,2.307,2.23,3.65c0.127,1.344-1.8,2.18-1.977,3.6s2.357,2.281,2.383,3.574s-1.673,2.002-1.673,2.002s4.436-0.076,2.839-5.12
		c-0.279-0.507,2.535-3.271,1.572-5.881c0.963-0.71,0-2.333,0-2.333s0.982-0.785,0.963-2.154s-0.963-3.117-0.963-3.117
		S7.53,9.357,8.214,7.608c2.383,0.888,4.462-3.6,4.462-3.6S14.501,7.051,14.4,10.295z"/>
	<path d="M19.064,26.316c0-1.572-2.484-2.941-2.484-2.941s0.404-0.765,0.579-1.705l-2.658-0.931c0,0-1.09,1.191-1.166,2.434
		c-0.076,1.242,0.963,4.538,3.448,5.171c-0.836,1.395,0.355,1.927,0.355,1.927s2.23,0.278,1.318-2.281
		C18.126,27.762,19.064,27.888,19.064,26.316z"/>
	<path d="M25.973,20.67c-0.7-0.601-3.915-1.194-4.772-1.538c-0.857-0.345-4.382-2.335-6.684-2.875
		c-2.3-0.539-2.574-0.391-2.834,0.163c-0.26,0.552-0.728,2.522-0.728,2.522l0.237,0.083c0,0,0.639-1.42,0.899-1.997
		c0.02-0.045,0.077-0.07,0.163-0.081l-0.68,2.149l0.208,0.073l0.881-2.196c0.051,0.007,0.105,0.016,0.163,0.027l-0.705,2.228
		l0.208,0.073l0.886-2.212c0.056,0.016,0.113,0.03,0.17,0.045l-0.71,2.248l0.208,0.074l0.894-2.209
		c0.065,0.02,0.13,0.04,0.198,0.061l-0.731,2.312l0.208,0.073l0.879-2.27c0.074,0.025,0.148,0.051,0.222,0.076l-0.735,2.322
		l0.209,0.073l0.893-2.268c0.067,0.025,0.134,0.048,0.201,0.072l-0.735,2.32l0.208,0.073l0.87-2.266
		c0.066,0.024,0.133,0.05,0.2,0.075l-0.731,2.31l0.208,0.072l0.889-2.237c0.082,0.032,0.165,0.064,0.245,0.098l-0.722,2.285
		l0.208,0.072l0.892-2.202c0.069,0.029,0.139,0.06,0.206,0.088l-0.711,2.249l0.208,0.073l0.864-2.164
		c0.063,0.028,0.124,0.057,0.183,0.083l-0.725,2.294l0.207,0.071l0.907-2.18c0.063,0.032,0.125,0.062,0.181,0.092l-0.727,2.298
		l0.208,0.071l0.867-2.168c0.1,0.067,0.154,0.122,0.146,0.153c-0.072,0.331-0.635,2.178-0.635,2.178s0.086,0.042,0.188,0.083
		c0.331-0.407,1.162-1.509,2.023-1.241c1.103,0.342,4.298,2.639,5.202,2.979C26.147,23.597,26.956,21.48,25.973,20.67z
		 M25.644,22.051c-0.074,0.214-0.307,0.326-0.521,0.25c-0.213-0.074-0.325-0.307-0.25-0.521c0.075-0.213,0.308-0.325,0.522-0.251
		C25.607,21.604,25.719,21.838,25.644,22.051z"/>
</g>
<g>
</g>
<g>
</g>
<g>
</g>
<g>
</g>
<g>
</g>
<g>
</g>
<g>
</g>
<g>
</g>
<g>
</g>
<g>
</g>
<g>
</g>
<g>
</g>
<g>
</g>
<g>
</g>
<g>
</g>
</svg>
