<?xml version="1.0" encoding="iso-8859-1"?>
<!-- Generator: Adobe Illustrator 16.0.0, SVG Export Plug-In . SVG Version: 6.00 Build 0)  -->
<!DOCTYPE svg PUBLIC "-//W3C//DTD SVG 1.1//EN" "http://www.w3.org/Graphics/SVG/1.1/DTD/svg11.dtd">
<svg version="1.1" id="Layer_1" xmlns="http://www.w3.org/2000/svg" xmlns:xlink="http://www.w3.org/1999/xlink" x="0px" y="0px"
	 width="15.028px" height="31.835px" viewBox="0 0 15.028 31.835" style="enable-background:new 0 0 15.028 31.835;"
	 xml:space="preserve">
<path d="M14.958,16.269c-0.33-2.403-5.042-2.593-4.952-4.478c0,0-0.613-3.982,0.236-4.915c2.686-3.806,0.193-7.905-2.728-6.643
	C4.593-1.029,2.101,3.07,4.787,6.876c0.849,0.933,0.235,4.915,0.235,4.915c0.09,1.885-4.622,2.075-4.952,4.478
	c-0.283,1.459,0.377,15.566,0.377,15.566h0.566l0.283-12.843l0.456-0.062v12.304h0.536V18.855l0.883-0.121v12.5h0.536V18.661
	l0.965-0.132v12.705h0.536V18.456l1.022-0.141v12.919h0.536V18.242l0.748-0.103l0.229,0.032v13.063h0.536v-12.99l1.022,0.141v12.849
	h0.537V18.458l1.14,0.157v12.62h0.536V18.688l1.022,0.141v12.406h0.536V18.901l0.661,0.09l0.283,12.843h0.566
	C14.581,31.835,15.241,17.729,14.958,16.269z M7.63,4.417c-0.489,0-0.885-0.396-0.885-0.885c0-0.489,0.396-0.886,0.885-0.886
	c0.489,0,0.886,0.396,0.886,0.886C8.516,4.021,8.12,4.417,7.63,4.417z"/>
<g>
</g>
<g>
</g>
<g>
</g>
<g>
</g>
<g>
</g>
<g>
</g>
<g>
</g>
<g>
</g>
<g>
</g>
<g>
</g>
<g>
</g>
<g>
</g>
<g>
</g>
<g>
</g>
<g>
</g>
</svg>
