<?xml version="1.0" encoding="iso-8859-1"?>
<!-- Generator: Adobe Illustrator 16.0.0, SVG Export Plug-In . SVG Version: 6.00 Build 0)  -->
<!DOCTYPE svg PUBLIC "-//W3C//DTD SVG 1.1//EN" "http://www.w3.org/Graphics/SVG/1.1/DTD/svg11.dtd">
<svg version="1.1" id="Layer_1" xmlns="http://www.w3.org/2000/svg" xmlns:xlink="http://www.w3.org/1999/xlink" x="0px" y="0px"
	 width="31.06px" height="31.779px" viewBox="0 0 31.06 31.779" style="enable-background:new 0 0 31.06 31.779;"
	 xml:space="preserve">
<g>
	<path d="M7.128,27.315c-0.289-0.263-2.212-2.021-2.212-2.021s0.062-0.067,0.174-0.19l0.221-0.243l2.522,2.303L8.166,26.8
		l-2.521-2.303l0.279-0.306l2.521,2.303l0.333-0.365l-2.521-2.303l0.235-0.257l2.521,2.303l0.333-0.365l-2.521-2.303l0.28-0.306
		l2.521,2.303l0.333-0.365l-2.521-2.303l0.289-0.316l2.521,2.303l0.333-0.365l-2.521-2.303l0.279-0.305l2.521,2.303l0.333-0.365
		l-2.521-2.303l0.235-0.257l2.521,2.303l0.333-0.365l-2.521-2.302l0.279-0.306l2.521,2.303l0.333-0.365l-2.521-2.303l0.234-0.257
		l2.521,2.303l0.333-0.365l-2.521-2.303l0.279-0.306l2.521,2.303l0.333-0.365l-2.522-2.302l0.289-0.316l2.521,2.303l0.333-0.365
		l-2.521-2.303l0.279-0.306l2.521,2.303l0.333-0.365l-2.521-2.303l0.295-0.323l2.521,2.303l0.333-0.364l-2.521-2.303l0.28-0.306
		l2.521,2.303l0.333-0.365l-2.521-2.303l0.235-0.257l2.521,2.303l0.333-0.365l-2.521-2.303l0.279-0.306l2.521,2.303l0.333-0.365
		l-2.521-2.303l0.289-0.316l2.521,2.303l0.333-0.365l-2.522-2.303l0.279-0.306l2.521,2.303l0.333-0.365l-2.521-2.303l0.273-0.299
		l2.522,2.303l0.333-0.365l-2.521-2.303l0.279-0.306l2.521,2.303l0.333-0.365l-2.521-2.303l0.289-0.316l2.521,2.303l0.333-0.365
		l-2.521-2.303l0.279-0.306l2.521,2.303l0.333-0.365l-2.521-2.303l0.294-0.322l2.521,2.303l0.333-0.365L19.002,9.87l0.28-0.306
		l2.521,2.303l0.333-0.365l-2.521-2.303l0.235-0.257l2.521,2.303l0.333-0.365l-2.521-2.303l0.279-0.306l2.521,2.303l0.333-0.365
		l-2.522-2.303l0.289-0.316l2.521,2.303l0.333-0.365l-2.521-2.303l0.279-0.305l2.521,2.303l0.333-0.365L22.03,6.555l0.292-0.319
		l2.521,2.303l0.333-0.365l-2.521-2.303l0.181-0.198c0.111-0.122,0.173-0.19,0.173-0.19s1.924,1.757,2.212,2.021
		c0.289,0.264,0.618,0.32,0.971-0.155c-0.369-0.337-2.919-2.764-3.188-3.009s-0.639-0.448-0.882-0.182
		c-0.011,0.012-0.069,0.075-0.16,0.175c-0.07,0.077-0.158,0.173-0.27,0.296L3.945,24.06c-0.259,0.284-0.411,0.45-0.43,0.471
		c-0.244,0.267-0.008,0.617,0.261,0.862c0.27,0.246,2.916,2.566,3.285,2.903C7.502,27.901,7.416,27.579,7.128,27.315z"/>
	<path d="M3.714,21.113c-0.289-0.263-2.212-2.021-2.212-2.021l-0.106-0.446l0.132-0.145l2.802,2.559l0.333-0.365L1.86,18.137
		l0.29-0.317l2.802,2.56l0.333-0.365l-2.802-2.56l0.279-0.305l2.802,2.559l0.333-0.365l-2.802-2.559l0.234-0.256l2.802,2.559
		l0.334-0.365l-2.803-2.559l0.279-0.306l2.802,2.559l0.333-0.364l-2.802-2.56l0.235-0.257l2.802,2.559l0.333-0.365l-2.802-2.559
		l0.279-0.305l2.803,2.559l0.333-0.365L5.455,14.2l0.289-0.316l2.803,2.559l0.333-0.365l-2.802-2.559l0.279-0.306l2.802,2.559
		l0.333-0.364l-2.803-2.559l0.295-0.323l2.802,2.559l0.333-0.365l-2.802-2.559l0.279-0.306l2.802,2.559l0.333-0.365L7.93,11.49
		l0.235-0.257l2.802,2.559l0.333-0.365l-2.803-2.559l0.279-0.305l2.802,2.559l0.334-0.365L9.11,10.198l0.289-0.317l2.803,2.559
		l0.333-0.365L9.732,9.517l0.279-0.305l2.802,2.559l0.333-0.365l-2.803-2.559l0.273-0.299l2.802,2.559l0.333-0.365l-2.802-2.559
		l0.279-0.306l2.803,2.559l0.333-0.365l-2.802-2.559l0.289-0.315l2.803,2.559l0.333-0.365l-2.802-2.559l0.279-0.306l2.802,2.559
		l0.333-0.364L12.798,6.16l0.295-0.323l2.802,2.559l0.333-0.365l-2.802-2.559l0.279-0.305l2.802,2.559l0.333-0.365l-2.803-2.559
		l0.235-0.257l2.803,2.56l0.333-0.365L14.606,4.18l0.279-0.306l2.803,2.559l0.333-0.365l-2.803-2.559l0.289-0.317l2.803,2.56
		l0.333-0.365l-2.802-2.56l0.278-0.305l2.803,2.559l0.333-0.365l-2.803-2.559l0.292-0.319l2.802,2.559l0.333-0.365l-2.803-2.559
		l0.081-0.089l0.454,0.066c0,0,1.924,1.757,2.212,2.021s0.618,0.319,0.972-0.155c-0.369-0.337-2.919-2.764-3.188-3.01
		c-0.27-0.246-0.639-0.448-0.883-0.181c-0.005,0.006-0.028,0.032-0.06,0.065l-0.371,0.406L0.532,17.857
		c-0.259,0.285-0.411,0.451-0.43,0.472c-0.243,0.267-0.008,0.616,0.261,0.862c0.269,0.246,2.917,2.566,3.285,2.904
		C4.089,21.699,4.003,21.376,3.714,21.113z"/>
	<path d="M27.973,8.659c-0.26-0.235-0.618-0.43-0.852-0.171C26.889,8.745,7.389,30.283,7,30.713
		c-0.389,0.43,0.831,1.309,1.107,1.003c0.13-0.144,4.511-4.982,9.125-10.079l2.234,2.023l0.271-0.3l-2.235-2.022
		c0.075-0.083,0.15-0.166,0.226-0.25l2.234,2.023l0.271-0.298L18,20.79c0.064-0.07,0.127-0.141,0.191-0.211l2.234,2.023l0.27-0.298
		l-2.234-2.023c0.075-0.083,0.15-0.167,0.227-0.25l2.234,2.023l0.271-0.298l-2.235-2.023c0.063-0.069,0.125-0.138,0.187-0.207
		l2.235,2.023l0.271-0.299l-2.234-2.023c0.075-0.083,0.151-0.167,0.226-0.25l2.235,2.023l0.271-0.298l-2.235-2.023
		c0.064-0.07,0.128-0.141,0.191-0.211l2.234,2.023l0.27-0.298l-2.234-2.023c0.076-0.084,0.151-0.167,0.227-0.25l2.234,2.023
		l0.27-0.299l-2.234-2.023c0.079-0.087,0.156-0.173,0.234-0.259l2.235,2.023l0.27-0.299l-2.234-2.023
		c0.076-0.084,0.151-0.167,0.226-0.25l2.235,2.023l0.271-0.299l-2.234-2.023c0.063-0.071,0.126-0.14,0.189-0.21l2.234,2.022
		l0.271-0.298l-2.234-2.023c0.076-0.084,0.152-0.168,0.227-0.251l2.234,2.023l0.271-0.298l-2.234-2.023
		c0.063-0.069,0.128-0.141,0.19-0.21l2.234,2.023l0.271-0.299l-2.234-2.023c0.076-0.083,0.152-0.167,0.227-0.25l2.235,2.022
		l0.27-0.298l-2.235-2.022c0.08-0.088,0.157-0.173,0.234-0.26l2.234,2.023l0.271-0.298l-2.234-2.023
		c0.076-0.084,0.152-0.168,0.226-0.25l2.234,2.022l0.271-0.298l-2.234-2.022c0.081-0.09,0.161-0.178,0.239-0.265l2.235,2.023
		l0.27-0.299l-2.234-2.022c0.077-0.085,0.152-0.168,0.227-0.25L27.76,14.5l0.271-0.299l-2.234-2.023
		c0.064-0.071,0.127-0.141,0.189-0.21l2.235,2.023l0.271-0.298l-2.235-2.023c0.077-0.085,0.154-0.169,0.227-0.25l2.234,2.022
		l0.271-0.299l-2.234-2.022c0.082-0.09,0.16-0.177,0.234-0.259l2.234,2.023l0.271-0.299l-2.235-2.023
		c0.082-0.09,0.158-0.174,0.227-0.25l2.234,2.023l0.27-0.298l-2.235-2.022c0.149-0.164,0.228-0.251,0.228-0.251
		s1.862,1.686,2.141,1.938s0.596,0.305,0.936-0.154C30.702,11.224,28.234,8.895,27.973,8.659z"/>
</g>
<g>
</g>
<g>
</g>
<g>
</g>
<g>
</g>
<g>
</g>
<g>
</g>
<g>
</g>
<g>
</g>
<g>
</g>
<g>
</g>
<g>
</g>
<g>
</g>
<g>
</g>
<g>
</g>
<g>
</g>
</svg>
