<?xml version="1.0" encoding="iso-8859-1"?>
<!-- Generator: Adobe Illustrator 16.0.0, SVG Export Plug-In . SVG Version: 6.00 Build 0)  -->
<!DOCTYPE svg PUBLIC "-//W3C//DTD SVG 1.1//EN" "http://www.w3.org/Graphics/SVG/1.1/DTD/svg11.dtd">
<svg version="1.1" id="Layer_1" xmlns="http://www.w3.org/2000/svg" xmlns:xlink="http://www.w3.org/1999/xlink" x="0px" y="0px"
	 width="19.62px" height="31.15px" viewBox="0 0 19.62 31.15" style="enable-background:new 0 0 19.62 31.15;" xml:space="preserve"
	>
<path d="M19.61,0h-0.551v11.389h-0.674V0h-0.552v11.389h-0.533V0h-0.552v11.389h-0.573V0h-0.552v11.389h-0.673V0h-0.553v11.389
	h-0.453V0h-0.552v11.389h-0.512V0h-0.552v11.389h-0.573V0h-0.552v11.389h-0.674V0H9.976v11.389H9.403V0H8.851v11.389H8.408V0H7.856
	v11.389H7.283V0H6.731v11.389H6.218V0H5.666v11.389H5.093V0H4.541v11.389H4.028V0H3.476v11.389H2.903V0H2.351v11.389H1.678V0H1.125
	v11.389H0.552V0H0v11.389c0,0,0,0.076,0,0.211c0,0.548,0,2.129,0,4.152c0,2.522,7.233,4.835,7.414,7.515
	c0.181,2.681-2.17,5.782-2.23,7.884c5.184,0,6.389,0,9.252,0c-0.061-2.102-2.411-5.203-2.23-7.884
	c0.181-2.68,7.414-4.992,7.414-7.515c0-2.523,0-4.363,0-4.363h-0.01V0z"/>
<g>
</g>
<g>
</g>
<g>
</g>
<g>
</g>
<g>
</g>
<g>
</g>
<g>
</g>
<g>
</g>
<g>
</g>
<g>
</g>
<g>
</g>
<g>
</g>
<g>
</g>
<g>
</g>
<g>
</g>
</svg>
