<?xml version="1.0" encoding="utf-8"?>
<!-- Generator: Adobe Illustrator 16.0.4, SVG Export Plug-In . SVG Version: 6.00 Build 0)  -->
<!DOCTYPE svg PUBLIC "-//W3C//DTD SVG 1.1//EN" "http://www.w3.org/Graphics/SVG/1.1/DTD/svg11.dtd">
<svg version="1.1" id="Layer_1" xmlns="http://www.w3.org/2000/svg" xmlns:xlink="http://www.w3.org/1999/xlink" x="0px" y="0px"
	 width="28.684px" height="31.842px" viewBox="0 0 28.684 31.842" enable-background="new 0 0 28.684 31.842" xml:space="preserve">
<path d="M8.214,7.608c-0.685,1.749-2.838,5.63-2.838,5.63s0.943,1.748,0.963,3.117c0.019,1.369-0.963,2.154-0.963,2.154
	s0.963,1.623,0,2.333c0.963,2.61-1.852,5.374-1.572,5.882c1.597,5.043-2.839,5.119-2.839,5.119s1.699-0.709,1.673-2.002
	s-2.56-2.154-2.383-3.574s2.104-2.256,1.977-3.6c-0.126-1.343-2.179-2.458-2.229-3.65c-0.051-1.191,1.316-1.572,1.419-1.927
	c0.102-0.354-0.608-0.532-0.659-1.014c-0.051-0.482,1.04-0.405,1.014-0.761c-0.025-0.356-0.457-0.811-0.507-1.268
	c-0.051-0.456,0.456-0.558,0.456-0.558s-0.203-1.673-0.151-2.788C1.624,9.586,3.398,0.207,9.178,0.003
	c5.779-0.203,5.754,8.264,5.754,8.264s1.411,2.261,1.7,4.084l-2.492-1.535c0.116-0.238,0.209-0.423,0.26-0.521
	c0.102-3.244-1.724-6.286-1.724-6.286S10.598,8.496,8.214,7.608z M19.064,26.315c0-1.571-2.483-2.94-2.483-2.94
	s0.283-0.541,0.479-1.267l-2.56-1.369c0,0-1.09,1.191-1.166,2.434s0.963,4.538,3.448,5.171c-0.837,1.396,0.354,1.927,0.354,1.927
	s2.23,0.278,1.318-2.28C18.126,27.763,19.064,27.888,19.064,26.315z M23.938,20.033c-0.858-0.513-2.343-1.054-2.815-1.335
	c-0.595-0.354-0.162-1.896-0.162-1.896l-1.693-1.01l-2.711,4.545l1.692,1.01c0,0,1.15-1.111,1.745-0.758
	c0.473,0.283,1.653,1.332,2.513,1.844c0.665,0.396,5.626,3.127,6.097,2.012C29.361,23.498,24.603,20.431,23.938,20.033z
	 M15.965,20.77l3.234-5.419l-0.245-0.146l-3.234,5.42L15.965,20.77z M15.519,20.466l3.234-5.42L18.51,14.9l-3.234,5.419
	L15.519,20.466z M15.09,20.191l3.233-5.42l-0.245-0.147l-3.234,5.42L15.09,20.191z M14.633,19.899l3.234-5.419l-0.243-0.146
	l-3.234,5.419L14.633,19.899z M14.165,19.6l3.232-5.42l-0.243-0.146l-3.233,5.42L14.165,19.6z M13.71,19.311l3.233-5.42
	l-0.244-0.146l-3.234,5.42L13.71,19.311z M16.198,13.464l-3.234,5.42l0.244,0.145l3.234-5.419L16.198,13.464z M15.759,13.163
	l-3.233,5.42l0.244,0.146l3.234-5.42L15.759,13.163z M15.296,12.887l-3.233,5.42l0.244,0.146l3.234-5.42L15.296,12.887z
	 M14.798,12.59l-3.232,5.42l0.244,0.146l3.233-5.419L14.798,12.59z M14.278,12.281L11.043,17.7l0.244,0.146l3.234-5.419
	L14.278,12.281z M13.793,11.992l-3.233,5.42l0.245,0.146l3.233-5.419L13.793,11.992z M13.334,11.659l-3.233,5.42l0.245,0.146
	l3.232-5.42L13.334,11.659z M12.155,11.703c0,0-0.613,0.438-1.633,2.146c-1.019,1.708-1.079,2.399-1.079,2.399l0.576,0.344
	l2.711-4.546L12.155,11.703z"/>
</svg>
