<?xml version="1.0" encoding="iso-8859-1"?>
<!-- Generator: Adobe Illustrator 16.0.0, SVG Export Plug-In . SVG Version: 6.00 Build 0)  -->
<!DOCTYPE svg PUBLIC "-//W3C//DTD SVG 1.1//EN" "http://www.w3.org/Graphics/SVG/1.1/DTD/svg11.dtd">
<svg version="1.1" id="Layer_1" xmlns="http://www.w3.org/2000/svg" xmlns:xlink="http://www.w3.org/1999/xlink" x="0px" y="0px"
	 width="31.776px" height="28.145px" viewBox="0 0 31.776 28.145" style="enable-background:new 0 0 31.776 28.145;"
	 xml:space="preserve">
<path d="M30.587,4.397c0.333,0.338,0.73,0.426,1.189-0.129c-0.428-0.433-3.375-3.54-3.687-3.856
	c-0.311-0.314-0.748-0.585-1.061-0.276C26.716,0.444,0.63,26.22,0.11,26.734c-0.52,0.514,0.956,1.708,1.326,1.342
	c0.174-0.171,6.034-5.962,12.207-12.061l2.674,2.707l0.363-0.359l-2.674-2.707c0.101-0.099,0.201-0.198,0.302-0.298l2.674,2.706
	l0.362-0.357L14.669,15c0.085-0.084,0.17-0.168,0.255-0.253l2.674,2.707l0.361-0.357l-2.674-2.706c0.101-0.1,0.202-0.2,0.303-0.299
	l2.674,2.706l0.362-0.357l-2.674-2.706c0.084-0.083,0.167-0.165,0.25-0.248l2.674,2.706l0.362-0.357l-2.674-2.707
	c0.101-0.1,0.202-0.2,0.302-0.299l2.674,2.706l0.362-0.357l-2.674-2.706c0.085-0.084,0.17-0.168,0.255-0.253l2.674,2.707
	l0.361-0.357l-2.673-2.706c0.101-0.101,0.202-0.2,0.303-0.299l2.673,2.706l0.362-0.357l-2.673-2.707
	c0.105-0.104,0.209-0.207,0.313-0.31l2.674,2.707l0.362-0.358l-2.674-2.706c0.102-0.101,0.202-0.2,0.303-0.299l2.674,2.706
	l0.362-0.357L19.85,9.881c0.085-0.084,0.169-0.167,0.254-0.251l2.674,2.706l0.363-0.357l-2.674-2.706
	c0.102-0.101,0.203-0.201,0.303-0.3l2.674,2.707l0.362-0.357l-2.674-2.707c0.085-0.083,0.171-0.168,0.255-0.251l2.673,2.706
	l0.363-0.358l-2.674-2.706c0.102-0.1,0.203-0.201,0.304-0.299l2.674,2.706l0.361-0.357L22.412,7.35
	c0.106-0.105,0.21-0.208,0.314-0.311L25.4,9.745l0.362-0.357l-2.674-2.706c0.103-0.101,0.204-0.201,0.303-0.3l2.674,2.707
	l0.362-0.357l-2.674-2.707c0.108-0.107,0.215-0.212,0.32-0.316l2.674,2.706l0.362-0.357l-2.674-2.706
	c0.103-0.102,0.204-0.201,0.303-0.3l2.674,2.707L27.773,7.4L25.1,4.694c0.086-0.085,0.17-0.169,0.254-0.251l2.674,2.707l0.362-0.357
	l-2.674-2.707c0.104-0.103,0.206-0.203,0.303-0.299l2.674,2.706l0.362-0.358l-2.674-2.706c0.11-0.108,0.214-0.211,0.313-0.31
	l2.673,2.706l0.362-0.358L27.056,2.76c0.108-0.107,0.211-0.208,0.303-0.299l2.674,2.706l0.361-0.357L27.72,2.104
	c0.198-0.195,0.304-0.301,0.304-0.301S30.252,4.058,30.587,4.397z"/>
<g>
</g>
<g>
</g>
<g>
</g>
<g>
</g>
<g>
</g>
<g>
</g>
<g>
</g>
<g>
</g>
<g>
</g>
<g>
</g>
<g>
</g>
<g>
</g>
<g>
</g>
<g>
</g>
<g>
</g>
</svg>
