<?xml version="1.0" encoding="iso-8859-1"?>
<!-- Generator: Adobe Illustrator 16.0.0, SVG Export Plug-In . SVG Version: 6.00 Build 0)  -->
<!DOCTYPE svg PUBLIC "-//W3C//DTD SVG 1.1//EN" "http://www.w3.org/Graphics/SVG/1.1/DTD/svg11.dtd">
<svg version="1.1" id="Layer_1" xmlns="http://www.w3.org/2000/svg" xmlns:xlink="http://www.w3.org/1999/xlink" x="0px" y="0px"
	 width="31.206px" height="31.179px" viewBox="0 0 31.206 31.179" style="enable-background:new 0 0 31.206 31.179;"
	 xml:space="preserve">
<path d="M30.853,7.877l0.354-0.354L28.64,4.958c0.196-0.196,0.326-0.325,0.355-0.354c0.354-0.354-1.838-2.898-2.368-2.368
	c-0.041,0.041-0.169,0.169-0.354,0.354L23.683,0l-0.354,0.354l2.59,2.59c-0.102,0.102-0.212,0.212-0.333,0.332l-2.59-2.59
	l-0.354,0.355l2.59,2.59c-0.105,0.105-0.217,0.217-0.331,0.331l-2.59-2.59l-0.355,0.355l2.59,2.589
	c-0.109,0.109-0.217,0.217-0.332,0.333l-2.59-2.59l-0.354,0.354l2.589,2.59c-0.125,0.125-0.255,0.254-0.386,0.387l-2.59-2.59
	L20.53,3.153l2.589,2.59c-0.109,0.108-0.221,0.221-0.332,0.332l-2.59-2.59l-0.354,0.355l2.59,2.59
	c-0.11,0.109-0.221,0.221-0.332,0.332l-2.59-2.59l-0.354,0.354l2.59,2.589c-0.11,0.11-0.22,0.22-0.332,0.332l-2.59-2.59
	l-0.355,0.354l2.59,2.59c-0.114,0.114-0.228,0.228-0.342,0.342l-2.589-2.59l-0.355,0.355l2.59,2.59
	c-0.111,0.111-0.22,0.221-0.332,0.331l-2.59-2.589l-0.355,0.354l2.59,2.59c-0.111,0.111-0.221,0.222-0.332,0.332l-2.59-2.589
	L16.403,7.28l2.59,2.59c-0.111,0.11-0.222,0.221-0.333,0.332l-2.59-2.59l-0.354,0.354l2.59,2.59c-0.13,0.13-0.259,0.259-0.387,0.387
	l-2.589-2.59l-0.355,0.355l2.59,2.59c-0.111,0.111-0.222,0.221-0.332,0.331l-2.589-2.59L14.29,9.393l2.589,2.59
	c-0.112,0.112-0.222,0.222-0.332,0.333l-2.59-2.59l-0.354,0.354l2.59,2.59c-0.113,0.113-0.221,0.221-0.332,0.332l-2.59-2.589
	l-0.354,0.354l2.59,2.589c-0.086,0.086-0.171,0.171-0.254,0.254l-2.59-2.59l-0.354,0.354l2.589,2.59
	c-0.112,0.112-0.225,0.224-0.332,0.332l-2.59-2.589l-0.354,0.354l2.59,2.59c-0.117,0.117-0.225,0.225-0.333,0.333l-2.589-2.59
	l-0.354,0.354l2.59,2.59c-0.646,0.646-1.04,1.04-1.04,1.04l0.288,0.288l-0.288,0.287l-0.685-0.686L0,28.065l0.01,0.168
	c0.004,0.053,0.085,1.281,0.895,2.091c0.817,0.816,2.012,0.851,2.061,0.852l0.161,0.003l11.795-11.795l-0.708-0.708l0.288-0.288
	l0.354,0.355c0,0,0.393-0.394,1.04-1.04l2.566,2.565l0.354-0.354l-2.566-2.566c0.107-0.107,0.216-0.215,0.333-0.333l2.565,2.565
	l0.354-0.354l-2.565-2.565c0.107-0.107,0.219-0.219,0.332-0.333l2.565,2.566l0.354-0.354l-2.565-2.565
	c0.083-0.083,0.168-0.168,0.253-0.254l2.566,2.566l0.354-0.354l-2.566-2.566c0.109-0.109,0.22-0.219,0.332-0.331l2.566,2.565
	l0.354-0.354l-2.566-2.566c0.111-0.111,0.22-0.22,0.333-0.332l2.565,2.565l0.354-0.354l-2.565-2.565
	c0.11-0.11,0.22-0.22,0.332-0.332l2.565,2.565l0.354-0.354l-2.566-2.566c0.128-0.128,0.257-0.257,0.387-0.387l2.565,2.565
	l0.354-0.354l-2.565-2.565c0.11-0.11,0.221-0.221,0.332-0.332l2.566,2.566l0.354-0.354l-2.566-2.566
	c0.11-0.111,0.221-0.22,0.332-0.331l2.566,2.565l0.354-0.355l-2.565-2.565c0.111-0.111,0.221-0.221,0.332-0.332l2.565,2.565
	l0.354-0.354l-2.566-2.566c0.115-0.114,0.228-0.227,0.342-0.341l2.566,2.566l0.354-0.354l-2.566-2.566
	c0.113-0.112,0.222-0.221,0.332-0.331l2.566,2.565l0.354-0.354l-2.566-2.566c0.112-0.112,0.222-0.222,0.332-0.332l2.566,2.565
	l0.354-0.354l-2.565-2.566c0.111-0.111,0.222-0.222,0.331-0.332l2.566,2.566l0.354-0.354l-2.566-2.566
	c0.131-0.131,0.261-0.26,0.387-0.386l2.565,2.565l0.354-0.354l-2.565-2.566c0.114-0.114,0.223-0.223,0.332-0.332L29.48,9.25
	l0.354-0.354L27.269,6.33c0.114-0.115,0.227-0.227,0.331-0.332l2.566,2.565l0.354-0.354l-2.565-2.565
	c0.119-0.119,0.23-0.23,0.332-0.333L30.853,7.877z M2.832,30.412c-0.291-0.036-0.942-0.166-1.396-0.619
	c-0.458-0.458-0.611-1.139-0.657-1.445l11.023-11.022l2.058,2.058L2.832,30.412z"/>
<g>
</g>
<g>
</g>
<g>
</g>
<g>
</g>
<g>
</g>
<g>
</g>
<g>
</g>
<g>
</g>
<g>
</g>
<g>
</g>
<g>
</g>
<g>
</g>
<g>
</g>
<g>
</g>
<g>
</g>
</svg>
