<?xml version="1.0" encoding="iso-8859-1"?>
<!-- Generator: Adobe Illustrator 16.0.0, SVG Export Plug-In . SVG Version: 6.00 Build 0)  -->
<!DOCTYPE svg PUBLIC "-//W3C//DTD SVG 1.1//EN" "http://www.w3.org/Graphics/SVG/1.1/DTD/svg11.dtd">
<svg version="1.1" id="Layer_1" xmlns="http://www.w3.org/2000/svg" xmlns:xlink="http://www.w3.org/1999/xlink" x="0px" y="0px"
	 width="26.613px" height="31.842px" viewBox="0 0 26.613 31.842" style="enable-background:new 0 0 26.613 31.842;"
	 xml:space="preserve">
<g>
	<path d="M12.676,4.009c0,0,1.471,2.46,1.695,5.315l1.978,1.914c-0.509-1.517-1.417-2.97-1.417-2.97s0.025-8.467-5.754-8.264
		C3.398,0.207,1.624,9.585,1.573,10.701c-0.051,1.115,0.152,2.788,0.152,2.788s-0.507,0.102-0.456,0.558
		c0.05,0.457,0.481,0.913,0.507,1.268s-1.065,0.279-1.014,0.761c0.051,0.481,0.761,0.659,0.659,1.014s-1.47,0.735-1.419,1.927
		s2.104,2.307,2.23,3.65c0.127,1.343-1.8,2.18-1.977,3.6c-0.177,1.419,2.357,2.281,2.383,3.574c0.025,1.292-1.673,2.002-1.673,2.002
		s4.436-0.076,2.839-5.121c-0.279-0.507,2.535-3.27,1.572-5.881c0.963-0.71,0-2.333,0-2.333s0.982-0.786,0.963-2.154
		c-0.019-1.369-0.963-3.118-0.963-3.118S7.53,9.357,8.214,7.608C10.598,8.496,12.676,4.009,12.676,4.009z"/>
	<path d="M19.064,26.316c0-1.571-2.484-2.94-2.484-2.94s0.887-1.647,0.608-3.092c-0.279-1.445-1.851-2.434-1.927-3.245
		c-0.021-0.227,0.094-0.52,0.261-0.856l-2.574-2.574c-0.313,0.875-0.545,1.733-0.526,2.315c0.051,1.546,2.079,4.816,2.079,4.816
		s-1.09,1.191-1.166,2.434c-0.076,1.242,0.963,4.538,3.448,5.171c-0.836,1.394,0.355,1.926,0.355,1.926s2.23,0.279,1.318-2.281
		C18.126,27.761,19.064,27.888,19.064,26.316z"/>
	<path d="M26.555,22.192C26.28,21.921,12.509,8.313,12.344,8.15c-0.165-0.163-0.396-0.02-0.561,0.146
		c-0.164,0.167-1.72,1.807-1.946,2.036c0.242,0.293,0.452,0.246,0.627,0.068c0.177-0.179,1.353-1.37,1.353-1.37
		s0.056,0.056,0.16,0.159l-1.411,1.428l0.19,0.189l1.412-1.429c0.048,0.048,0.102,0.102,0.16,0.158l-1.412,1.428l0.191,0.189
		l1.412-1.429c0.053,0.052,0.107,0.106,0.166,0.164l-1.412,1.429l0.191,0.188l1.412-1.428c0.051,0.05,0.105,0.104,0.16,0.158
		l-1.412,1.429l0.191,0.188l1.412-1.428c0.044,0.043,0.089,0.087,0.135,0.133l-1.412,1.428l0.191,0.189l1.412-1.429
		c0.053,0.052,0.105,0.104,0.16,0.159l-1.412,1.428l0.191,0.188l1.412-1.429c0.056,0.055,0.112,0.111,0.168,0.167l-1.411,1.429
		l0.191,0.188l1.411-1.429c0.053,0.052,0.106,0.104,0.16,0.158l-1.412,1.429l0.191,0.189l1.412-1.429
		c0.055,0.055,0.11,0.108,0.166,0.164l-1.412,1.428l0.191,0.188l1.412-1.429c0.053,0.052,0.106,0.105,0.16,0.158l-1.412,1.429
		l0.191,0.189l1.411-1.428c0.044,0.043,0.09,0.088,0.135,0.132l-1.412,1.429l0.191,0.188l1.412-1.429
		c0.053,0.052,0.106,0.105,0.16,0.158l-1.412,1.429l0.192,0.189L16,13.163c0.044,0.044,0.089,0.088,0.134,0.133l-1.412,1.429
		l0.191,0.189l1.412-1.429c0.054,0.052,0.106,0.104,0.16,0.158l-1.412,1.429l0.191,0.189l1.412-1.429
		c0.055,0.054,0.11,0.109,0.166,0.163l-1.411,1.429l0.191,0.189l1.411-1.429c0.054,0.052,0.107,0.104,0.16,0.158l-1.411,1.429
		l0.19,0.188l1.412-1.429c0.045,0.044,0.09,0.089,0.135,0.133l-1.412,1.429l0.191,0.188l1.411-1.428
		c0.053,0.053,0.106,0.105,0.16,0.158l-1.412,1.429l0.191,0.189l1.413-1.429c0.044,0.043,0.087,0.087,0.132,0.13l-1.413,1.429
		l0.191,0.188l1.412-1.429c0.053,0.053,0.106,0.105,0.16,0.158l-1.412,1.429l0.191,0.188l1.412-1.429
		c0.044,0.044,0.09,0.089,0.135,0.133l-1.412,1.429l0.191,0.188l1.412-1.429c0.054,0.053,0.107,0.105,0.16,0.157l-1.412,1.429
		L18,17.962l1.412-1.429c3.259,3.22,6.353,6.276,6.444,6.367C26.051,23.094,26.83,22.463,26.555,22.192z"/>
</g>
<g>
</g>
<g>
</g>
<g>
</g>
<g>
</g>
<g>
</g>
<g>
</g>
<g>
</g>
<g>
</g>
<g>
</g>
<g>
</g>
<g>
</g>
<g>
</g>
<g>
</g>
<g>
</g>
<g>
</g>
</svg>
