<?xml version="1.0" encoding="utf-8"?>
<!-- Generator: Adobe Illustrator 16.0.4, SVG Export Plug-In . SVG Version: 6.00 Build 0)  -->
<!DOCTYPE svg PUBLIC "-//W3C//DTD SVG 1.1//EN" "http://www.w3.org/Graphics/SVG/1.1/DTD/svg11.dtd">
<svg version="1.1" id="Layer_1" xmlns="http://www.w3.org/2000/svg" xmlns:xlink="http://www.w3.org/1999/xlink" x="0px" y="0px"
	 width="31.65px" height="30.814px" viewBox="0 0 31.65 30.814" enable-background="new 0 0 31.65 30.814" xml:space="preserve">
<path d="M5.597,23.077c0,0-0.01-11.3-5.597-14.113C2.308,6.069,5.059,2.617,7.145,0c6.004,5.604,14.562,2.865,14.562,2.865
	L5.597,23.077z M22.619,2.865L5.574,24.242l2.714,2.163L25.333,5.028L22.619,2.865z M20.956,11.46l6.626,5.281l0.819-1.027
	l-6.626-5.281L20.956,11.46z M19.298,13.538l6.625,5.279l0.819-1.027l-6.625-5.279L19.298,13.538z M25.028,6.353l-0.819,1.028
	l6.625,5.281l0.82-1.028L25.028,6.353z M22.549,9.46l6.626,5.281l0.818-1.026l-6.626-5.281L22.549,9.46z M17.76,15.471l6.626,5.281
	l0.819-1.028l-6.626-5.281L17.76,15.471z M16.103,17.549l6.625,5.279l0.818-1.026l-6.625-5.28L16.103,17.549z M14.593,19.445
	l6.626,5.281l0.818-1.027l-6.626-5.281L14.593,19.445z M12.934,21.525l6.626,5.281l0.819-1.027l-6.626-5.281L12.934,21.525z
	 M11.395,23.453l6.626,5.28l0.818-1.027l-6.625-5.28L11.395,23.453z M9.739,25.533l6.626,5.28l0.818-1.028l-6.625-5.279
	L9.739,25.533z"/>
</svg>
