<?xml version="1.0" encoding="iso-8859-1"?>
<!-- Generator: Adobe Illustrator 16.0.0, SVG Export Plug-In . SVG Version: 6.00 Build 0)  -->
<!DOCTYPE svg PUBLIC "-//W3C//DTD SVG 1.1//EN" "http://www.w3.org/Graphics/SVG/1.1/DTD/svg11.dtd">
<svg version="1.1" id="Layer_1" xmlns="http://www.w3.org/2000/svg" xmlns:xlink="http://www.w3.org/1999/xlink" x="0px" y="0px"
	 width="30.219px" height="30.22px" viewBox="0 0 30.219 30.22" style="enable-background:new 0 0 30.219 30.22;"
	 xml:space="preserve">
<polygon points="23.407,1.097 28.025,5.715 27.08,6.66 22.844,2.424 22.265,3.003 26.5,7.239 25.496,8.244 21.259,4.008 
	20.68,4.588 24.916,8.824 23.819,9.921 19.583,5.685 19.003,6.264 23.24,10.5 22.143,11.597 17.907,7.361 17.328,7.94 
	21.563,12.176 20.466,13.273 16.23,9.037 15.651,9.616 19.887,13.852 19.003,14.737 14.767,10.5 14.188,11.08 18.424,15.315 
	17.327,16.413 13.091,12.177 12.512,12.756 16.748,16.992 15.651,18.089 11.415,13.853 10.835,14.432 15.071,18.668 13.975,19.765 
	9.739,15.529 9.159,16.108 13.396,20.345 12.268,21.473 8.031,17.236 7.452,17.815 11.688,22.051 10.591,23.148 6.355,18.912 
	5.776,19.491 10.012,23.729 8.916,24.824 4.679,20.588 4.1,21.168 8.336,25.404 7.239,26.5 3.003,22.265 2.424,22.844 6.66,27.08 
	5.714,28.025 1.097,23.408 0,24.505 5.714,30.22 30.219,5.715 24.505,0 "/>
<g>
</g>
<g>
</g>
<g>
</g>
<g>
</g>
<g>
</g>
<g>
</g>
<g>
</g>
<g>
</g>
<g>
</g>
<g>
</g>
<g>
</g>
<g>
</g>
<g>
</g>
<g>
</g>
<g>
</g>
</svg>
