<?xml version="1.0" encoding="iso-8859-1"?>
<!-- Generator: Adobe Illustrator 16.0.0, SVG Export Plug-In . SVG Version: 6.00 Build 0)  -->
<!DOCTYPE svg PUBLIC "-//W3C//DTD SVG 1.1//EN" "http://www.w3.org/Graphics/SVG/1.1/DTD/svg11.dtd">
<svg version="1.1" id="Layer_1" xmlns="http://www.w3.org/2000/svg" xmlns:xlink="http://www.w3.org/1999/xlink" x="0px" y="0px"
	 width="32px" height="32px" viewBox="0 0 32 32" style="enable-background:new 0 0 32 32;" xml:space="preserve">
<g>
	<path d="M9.002,16.386c0.044,0.027,0.094,0.046,0.152,0.057s0.117,0.017,0.179,0.017c0.152,0,0.269-0.025,0.352-0.076
		c0.083-0.05,0.144-0.111,0.185-0.182c0.04-0.07,0.063-0.142,0.073-0.214c0.009-0.071,0.013-0.13,0.013-0.173v-0.287
		c-0.033,0.029-0.073,0.052-0.122,0.067c-0.049,0.017-0.101,0.03-0.157,0.041c-0.056,0.011-0.116,0.021-0.179,0.027
		C9.434,15.67,9.374,15.68,9.316,15.69c-0.062,0.011-0.119,0.024-0.173,0.043c-0.054,0.019-0.102,0.042-0.144,0.073
		c-0.042,0.03-0.075,0.07-0.1,0.119c-0.025,0.048-0.038,0.107-0.038,0.176c0,0.072,0.013,0.131,0.038,0.176
		C8.924,16.322,8.958,16.359,9.002,16.386z"/>
	<path d="M27.043,14.754c-0.092-0.103-0.232-0.152-0.42-0.152c-0.123,0-0.224,0.021-0.306,0.063
		c-0.081,0.041-0.146,0.093-0.194,0.154c-0.049,0.061-0.084,0.126-0.103,0.194c-0.021,0.068-0.032,0.13-0.035,0.185h1.25
		C27.199,15.002,27.135,14.854,27.043,14.754z"/>
	<path d="M10.248,24.292c0.044-0.034,0.087-0.081,0.129-0.139c0.043-0.058,0.064-0.105,0.064-0.143c0-0.054-0.011-0.097-0.03-0.132
		c-0.021-0.034-0.045-0.052-0.074-0.052c-0.052,0-0.097,0.009-0.134,0.028c-0.037,0.02-0.068,0.044-0.092,0.074
		c-0.025,0.029-0.046,0.064-0.061,0.102c-0.015,0.039-0.033,0.087-0.053,0.144c-0.019,0.058-0.031,0.104-0.033,0.141
		s-0.003,0.067-0.003,0.093c0.044,0,0.091-0.01,0.143-0.031C10.156,24.354,10.203,24.326,10.248,24.292z"/>
	<path d="M13.319,23.316c0.037-0.061,0.075-0.126,0.113-0.196c0.04-0.072,0.076-0.142,0.106-0.211
		c0.032-0.068,0.058-0.133,0.079-0.192c0.021-0.061,0.032-0.108,0.032-0.146c0-0.014-0.002-0.028-0.004-0.045
		c-0.001-0.017-0.005-0.03-0.011-0.046c-0.006-0.015-0.016-0.026-0.028-0.036c-0.013-0.01-0.031-0.014-0.054-0.014
		c-0.032,0-0.063,0.027-0.096,0.083c-0.032,0.054-0.063,0.125-0.092,0.211c-0.03,0.086-0.058,0.18-0.084,0.283
		c-0.026,0.104-0.05,0.204-0.072,0.302c0.019,0.001,0.036,0.003,0.055,0.004S13.299,23.315,13.319,23.316z"/>
	<path d="M14.841,23.129c0.055-0.129,0.103-0.258,0.142-0.386c0.041-0.13,0.066-0.249,0.077-0.36c0-0.035-0.001-0.066-0.003-0.091
		c-0.001-0.024-0.007-0.037-0.016-0.037c-0.034,0-0.07,0.023-0.108,0.069c-0.038,0.046-0.077,0.107-0.114,0.187
		c-0.039,0.078-0.084,0.206-0.138,0.382c-0.053,0.177-0.08,0.265-0.08,0.266c0,0-0.017,0.081-0.049,0.245
		c-0.032,0.163-0.052,0.308-0.058,0.433c0.055-0.099,0.113-0.207,0.174-0.33C14.729,23.384,14.787,23.259,14.841,23.129z"/>
	<path d="M13.309,23.791c-0.036,0.045-0.07,0.088-0.1,0.125c-0.005,0.075-0.009,0.149-0.012,0.222
		c-0.002,0.031-0.003,0.063-0.004,0.097c-0.001,0.033-0.002,0.066-0.003,0.1c-0.001,0.032-0.002,0.064-0.003,0.094
		c-0.001,0.03-0.001,0.059-0.001,0.083c0,0.065,0.006,0.121,0.019,0.165c0.012,0.045,0.03,0.081,0.053,0.11
		c0.023,0.028,0.051,0.048,0.084,0.062c0.034,0.014,0.071,0.019,0.112,0.019c0.026,0,0.058-0.005,0.095-0.018
		c0.039-0.013,0.08-0.028,0.126-0.05c0.045-0.021,0.093-0.047,0.144-0.075c0.05-0.029,0.1-0.062,0.148-0.095
		c0.033-0.023,0.063-0.049,0.094-0.073c-0.016-0.104-0.029-0.21-0.029-0.321c0-0.119,0.018-0.277,0.052-0.476
		c0.009-0.05,0.013-0.074,0.02-0.11h-0.688C13.38,23.696,13.344,23.744,13.309,23.791z"/>
	<path d="M8.307,26.028c-0.082,0.134-0.147,0.27-0.195,0.406c-0.04,0.115-0.02,0.173,0.062,0.173c0.029,0,0.055-0.004,0.078-0.011
		c0.022-0.007,0.043-0.021,0.063-0.038c0.019-0.02,0.036-0.039,0.05-0.063c0.015-0.021,0.03-0.053,0.046-0.093
		c0.016-0.042,0.031-0.082,0.044-0.122c0.013-0.038,0.029-0.091,0.048-0.156c0.01-0.035,0.018-0.073,0.023-0.114
		c0.005-0.042,0.012-0.095,0.02-0.156c0.007-0.062,0.012-0.101,0.014-0.117C8.474,25.798,8.39,25.895,8.307,26.028z"/>
	<path d="M8.355,24.096c-0.116,0.201-0.178,0.338-0.188,0.408c-0.023,0.153-0.013,0.27,0.032,0.349
		c0.029,0.051,0.067,0.075,0.115,0.075c0.082,0,0.15-0.065,0.204-0.197c0.042-0.104,0.066-0.209,0.071-0.313l0.136-0.604
		C8.584,23.813,8.461,23.906,8.355,24.096z"/>
	<path d="M16.182,19.906c-0.011-0.023-0.026-0.042-0.045-0.057c-0.019-0.014-0.041-0.021-0.066-0.021
		c-0.034,0-0.067,0.016-0.098,0.043c-0.031,0.03-0.057,0.067-0.081,0.113c-0.023,0.046-0.042,0.095-0.055,0.15
		c-0.014,0.056-0.02,0.117-0.02,0.186c0,0.035,0.003,0.068,0.01,0.099c0.007,0.032,0.018,0.059,0.032,0.081
		c0.014,0.023,0.032,0.041,0.056,0.055c0.023,0.014,0.051,0.021,0.083,0.021c0.028,0,0.056-0.015,0.082-0.044
		c0.027-0.028,0.05-0.064,0.07-0.108c0.021-0.044,0.036-0.097,0.048-0.159c0.012-0.063,0.018-0.116,0.018-0.165
		c0-0.038-0.002-0.074-0.009-0.106C16.203,19.959,16.194,19.932,16.182,19.906z"/>
	<path d="M15.718,24.292c0.044-0.034,0.087-0.081,0.129-0.139c0.043-0.058,0.064-0.105,0.064-0.143c0-0.054-0.011-0.097-0.03-0.132
		c-0.02-0.034-0.044-0.052-0.074-0.052c-0.052,0-0.097,0.009-0.134,0.028s-0.068,0.044-0.092,0.074
		c-0.026,0.029-0.046,0.064-0.061,0.102c-0.015,0.039-0.032,0.087-0.053,0.144c-0.02,0.058-0.031,0.104-0.033,0.141
		c-0.003,0.037-0.004,0.067-0.004,0.093c0.044,0,0.092-0.01,0.143-0.031C15.626,24.354,15.673,24.326,15.718,24.292z"/>
	<path d="M23.766,24.482c0.005-0.05,0.004-0.09-0.003-0.116c-0.008-0.028-0.015-0.051-0.021-0.071l-0.502,0.528
		c0.014,0,0.03,0.01,0.048,0.027c0.018,0.019,0.038,0.038,0.061,0.061s0.049,0.042,0.08,0.061c0.03,0.018,0.064,0.027,0.103,0.027
		c0.047,0,0.086-0.008,0.117-0.023c0.031-0.017,0.055-0.037,0.074-0.063c0.018-0.026,0.031-0.057,0.038-0.092
		c0.007-0.035,0.01-0.071,0.01-0.109c0-0.033-0.001-0.066-0.006-0.1C23.76,24.576,23.761,24.533,23.766,24.482z"/>
	<path d="M19.431,24.292c0.044-0.034,0.087-0.081,0.129-0.139c0.043-0.058,0.064-0.105,0.064-0.143c0-0.054-0.011-0.097-0.03-0.132
		c-0.021-0.034-0.045-0.052-0.074-0.052c-0.052,0-0.097,0.009-0.134,0.028c-0.037,0.02-0.068,0.044-0.092,0.074
		c-0.025,0.029-0.046,0.064-0.061,0.102c-0.015,0.039-0.033,0.087-0.053,0.144c-0.019,0.058-0.031,0.104-0.033,0.141
		c-0.003,0.037-0.003,0.067-0.003,0.093c0.044,0,0.091-0.01,0.143-0.031C19.339,24.354,19.386,24.326,19.431,24.292z"/>
	<circle cx="16.41" cy="7.747" r="0.168"/>
	<path d="M20.413,10.172c0.042-0.021,0.079-0.047,0.115-0.077c0.145-0.121,0.227-0.304,0.229-0.515
		c0.003-0.219-0.08-0.442-0.232-0.628c-0.269-0.323-0.693-0.443-1.007-0.284c-0.041,0.021-0.081,0.046-0.116,0.075
		c-0.146,0.121-0.227,0.304-0.23,0.514c-0.002,0.222,0.08,0.444,0.233,0.628C19.674,10.209,20.1,10.329,20.413,10.172z"/>
	<path d="M10.823,10.129c0.245,0.253,0.684,0.278,1.044,0.063c0.206-0.123,0.358-0.306,0.428-0.514c0.067-0.2,0.051-0.4-0.047-0.563
		c-0.023-0.038-0.052-0.075-0.084-0.109c-0.244-0.253-0.684-0.278-1.045-0.063c-0.206,0.124-0.357,0.307-0.428,0.517
		c-0.066,0.198-0.049,0.398,0.048,0.562C10.762,10.059,10.791,10.096,10.823,10.129z"/>
	<path d="M16,1.69C8.097,1.69,1.69,8.097,1.69,16S8.097,30.31,16,30.31S30.31,23.903,30.31,16S23.903,1.69,16,1.69z M23.976,13.031
		h0.768v3.867h-0.768V13.031z M22.285,16.015l0.612-1.917h0.797l-1.17,3.152c-0.084,0.224-0.199,0.385-0.347,0.484
		c-0.148,0.099-0.354,0.148-0.617,0.148c-0.08,0-0.159-0.003-0.236-0.008c-0.077-0.005-0.156-0.013-0.235-0.02v-0.634
		c0.072,0.008,0.146,0.015,0.222,0.022s0.152,0.01,0.228,0.006c0.065-0.008,0.121-0.028,0.165-0.063
		c0.045-0.033,0.079-0.075,0.101-0.127c0.021-0.051,0.033-0.104,0.033-0.161c0-0.063-0.012-0.12-0.033-0.175l-0.986-2.626h0.823
		l0.634,1.917H22.285z M21.142,4.649l-0.209,0.482l-4.074,2.179l-0.61-0.4L21.142,4.649z M16.705,7.412l2.633,0.989
		c0.013-0.005,0.025-0.014,0.036-0.02c0.445-0.226,1.034-0.07,1.397,0.367c0.098,0.117,0.175,0.249,0.227,0.387
		c0.203,0.351,1.022,0.307,1.083,0.343c0.064,0.039-0.041,0.278-0.159,0.29c-0.118,0.012-0.638-0.123-0.917,0.194
		c-0.058,0.148-0.149,0.277-0.271,0.379c-0.054,0.044-0.113,0.084-0.176,0.115c-0.446,0.224-1.032,0.069-1.397-0.367
		c-0.202-0.242-0.312-0.541-0.308-0.836c0.003-0.15,0.034-0.291,0.09-0.416l-2.063-0.794l-0.524,0.25l-4.01-3.267l-0.121-0.438
		L16.705,7.412z M20.276,16.259c0.044,0.043,0.13,0.065,0.261,0.065c0.086,0,0.166-0.008,0.238-0.022v0.602
		c-0.065,0.011-0.138,0.018-0.217,0.021c-0.079,0.004-0.157,0.006-0.232,0.006c-0.12,0-0.232-0.008-0.339-0.024
		s-0.2-0.048-0.282-0.097c-0.081-0.05-0.145-0.117-0.192-0.203c-0.047-0.087-0.07-0.2-0.07-0.342v-1.651h-0.466v-0.515h0.466v-0.839
		h0.769v0.839h0.563v0.515h-0.563v1.386C20.211,16.129,20.233,16.215,20.276,16.259z M16.629,20.021
		c-0.043-0.043-0.085-0.08-0.127-0.108c-0.042-0.029-0.077-0.055-0.107-0.075l-0.01,0.015c0.024,0.048,0.042,0.099,0.055,0.152
		c0.012,0.054,0.018,0.115,0.018,0.182c0,0.05-0.005,0.099-0.017,0.149c-0.01,0.05-0.026,0.098-0.046,0.145
		c-0.021,0.047-0.046,0.09-0.075,0.131c-0.03,0.042-0.063,0.077-0.101,0.107c-0.038,0.029-0.079,0.053-0.124,0.07
		c-0.046,0.018-0.093,0.026-0.145,0.026c-0.073,0-0.135-0.017-0.188-0.048c-0.052-0.031-0.095-0.074-0.128-0.126
		c-0.033-0.052-0.057-0.11-0.073-0.175c-0.015-0.065-0.022-0.131-0.022-0.197c0-0.11,0.013-0.204,0.041-0.284
		c0.017-0.048,0.046-0.084,0.071-0.124c-0.017,0-0.029,0-0.049,0.001c-0.046,0.002-0.099,0.004-0.154,0.006
		c-0.057,0.002-0.11,0.003-0.162,0.005c-0.052,0.002-0.099,0.004-0.141,0.005c-0.042,0.001-0.071,0.001-0.089,0.001
		c-0.02,0.101-0.037,0.197-0.055,0.292c-0.018,0.093-0.041,0.181-0.07,0.263c-0.028,0.08-0.063,0.154-0.102,0.222
		c-0.039,0.065-0.085,0.123-0.14,0.171c-0.054,0.047-0.116,0.084-0.188,0.11c-0.071,0.026-0.151,0.039-0.243,0.039
		c-0.02,0-0.042-0.001-0.069-0.004c-0.027-0.003-0.054-0.007-0.083-0.013c-0.029-0.006-0.058-0.014-0.087-0.022
		c-0.029-0.011-0.055-0.021-0.077-0.036c-0.023-0.014-0.042-0.03-0.056-0.049s-0.021-0.04-0.021-0.064
		c0-0.013,0.002-0.029,0.008-0.05s0.014-0.04,0.026-0.06c0.01-0.02,0.025-0.035,0.042-0.049c0.017-0.015,0.038-0.021,0.062-0.021
		c0.027,0,0.057,0.004,0.087,0.014c0.03,0.009,0.062,0.019,0.094,0.03c0.032,0.011,0.066,0.021,0.099,0.03
		c0.034,0.01,0.068,0.014,0.103,0.014c0.027,0,0.055-0.011,0.08-0.033c0.026-0.021,0.051-0.052,0.074-0.091
		c0.023-0.039,0.046-0.084,0.067-0.137c0.021-0.051,0.041-0.107,0.059-0.168c0.018-0.061,0.035-0.124,0.05-0.189
		c0.015-0.065,0.03-0.132,0.045-0.197l-0.155-0.001c-0.014,0-0.033,0-0.053-0.004c-0.021-0.004-0.042-0.009-0.061-0.016
		c-0.019-0.008-0.036-0.018-0.049-0.03c-0.014-0.013-0.02-0.029-0.02-0.048c0-0.014,0.003-0.026,0.011-0.037
		c0.008-0.012,0.02-0.021,0.038-0.025c0.047-0.01,0.088-0.018,0.124-0.025c0.035-0.007,0.067-0.014,0.094-0.019
		c0.027-0.005,0.051-0.009,0.072-0.013c0.021-0.005,0.041-0.007,0.058-0.01c0.02-0.099,0.036-0.181,0.048-0.247
		c0.011-0.066,0.022-0.126,0.03-0.18c0.009-0.053,0.017-0.104,0.024-0.149c0.008-0.048,0.017-0.098,0.026-0.152
		c-0.073,0.021-0.137,0.046-0.19,0.074c-0.055,0.03-0.099,0.061-0.134,0.095c-0.035,0.033-0.062,0.067-0.078,0.104
		c-0.017,0.036-0.026,0.07-0.026,0.104c0,0.002,0,0.008,0,0.018c-0.001,0.01-0.005,0.021-0.014,0.033
		c-0.008,0.011-0.021,0.021-0.04,0.03s-0.046,0.015-0.081,0.015c-0.048,0-0.085-0.003-0.112-0.008
		c-0.027-0.006-0.047-0.014-0.06-0.022c-0.012-0.009-0.02-0.021-0.023-0.032c-0.003-0.012-0.004-0.023-0.004-0.035
		c0-0.125,0.031-0.232,0.093-0.32c0.063-0.09,0.15-0.162,0.263-0.22c0.112-0.057,0.247-0.099,0.405-0.125s0.331-0.04,0.521-0.04
		c0.127,0,0.26,0.007,0.399,0.019c0.14,0.012,0.284,0.025,0.432,0.037c0.042,0.013,0.072,0.028,0.088,0.051
		c0.017,0.021,0.025,0.045,0.025,0.068c0,0.016-0.002,0.032-0.007,0.05c-0.004,0.018-0.011,0.034-0.02,0.05
		c-0.01,0.014-0.022,0.026-0.037,0.036c-0.016,0.01-0.032,0.015-0.052,0.015c-0.002,0-0.004,0-0.009-0.001
		c-0.003,0-0.007-0.001-0.011-0.001c-0.056-0.004-0.116-0.009-0.179-0.014c-0.064-0.005-0.131-0.01-0.201-0.016
		c-0.069-0.006-0.141-0.009-0.215-0.011c-0.074-0.002-0.15-0.004-0.227-0.004c-0.022,0-0.049,0.002-0.081,0.004
		c-0.032,0.002-0.063,0.004-0.092,0.007c-0.033,0.003-0.068,0.006-0.104,0.011c0,0.007-0.001,0.016-0.003,0.024
		c-0.001,0.011-0.003,0.024-0.006,0.046c-0.004,0.021-0.008,0.049-0.014,0.083c-0.007,0.034-0.013,0.075-0.018,0.124
		c-0.004,0.048-0.013,0.109-0.022,0.183c-0.01,0.073-0.02,0.166-0.027,0.275h0.691c0.02,0,0.035,0.005,0.046,0.013
		c0.009,0.007,0.018,0.016,0.022,0.025c0.015-0.008,0.023-0.021,0.04-0.029c0.075-0.033,0.158-0.051,0.25-0.051
		c0.079,0,0.154,0.013,0.223,0.037c0.069,0.024,0.134,0.059,0.194,0.099c0.06,0.042,0.116,0.093,0.168,0.155
		c0.02,0.024,0.037,0.045,0.055,0.068c0.002-0.007,0.003-0.014,0.004-0.021c0.015-0.063,0.028-0.116,0.039-0.158
		c0.011-0.043,0.022-0.077,0.032-0.105c0.007-0.018,0.013-0.033,0.021-0.044c0.006-0.011,0.014-0.02,0.023-0.024
		c0.009-0.008,0.019-0.011,0.032-0.014c0.013-0.002,0.029-0.003,0.049-0.003c0.021,0,0.038,0.001,0.05,0.003
		c0.013,0.003,0.021,0.008,0.027,0.015c0.005,0.009,0.009,0.02,0.011,0.035c0.001,0.015,0.001,0.036,0.001,0.062
		c0,0.03-0.001,0.074-0.006,0.131s-0.005,0.105-0.003,0.148h0.013c0.017-0.033,0.038-0.076,0.063-0.131
		c0.025-0.055,0.051-0.1,0.079-0.136c0.027-0.035,0.058-0.065,0.093-0.09s0.076-0.037,0.122-0.037c0.016,0,0.031,0.003,0.046,0.009
		c0.015,0.005,0.028,0.013,0.04,0.022c0.011,0.01,0.02,0.021,0.027,0.037c0.006,0.015,0.009,0.03,0.009,0.049
		c0,0.015-0.002,0.034-0.006,0.06c-0.004,0.026-0.012,0.059-0.021,0.1s-0.016,0.074-0.02,0.101
		c-0.003,0.026-0.006,0.048-0.006,0.065c0,0.029,0.003,0.055,0.009,0.075c0.006,0.02,0.014,0.035,0.023,0.048
		c0.01,0.013,0.021,0.021,0.033,0.025c0.012,0.006,0.025,0.008,0.039,0.008c0.037,0,0.076-0.009,0.116-0.024
		c0.04-0.018,0.077-0.036,0.11-0.057c0.039-0.024,0.078-0.053,0.115-0.082l-0.019,0.292c-0.022,0.014-0.047,0.029-0.074,0.048
		c-0.027,0.018-0.057,0.033-0.088,0.049c-0.031,0.016-0.063,0.028-0.098,0.039c-0.033,0.011-0.068,0.016-0.103,0.016
		c-0.063,0-0.113-0.014-0.151-0.039c-0.038-0.024-0.068-0.058-0.091-0.1c-0.022-0.041-0.04-0.087-0.05-0.139
		c-0.011-0.051-0.02-0.103-0.026-0.155h-0.02l-0.225,0.623c-0.011,0.033-0.022,0.06-0.032,0.081
		c-0.011,0.021-0.021,0.038-0.032,0.053c-0.012,0.012-0.023,0.021-0.036,0.028c-0.012,0.005-0.026,0.007-0.041,0.007
		c-0.035,0-0.062-0.007-0.083-0.021c-0.02-0.015-0.037-0.034-0.047-0.059c-0.011-0.024-0.02-0.052-0.023-0.084
		c-0.003-0.031-0.005-0.063-0.005-0.097c0-0.037,0.002-0.079,0.006-0.129c0.004-0.048,0.01-0.1,0.017-0.154
		c0.006-0.047,0.013-0.096,0.022-0.145C16.705,20.094,16.669,20.06,16.629,20.021z M13.458,14.618
		c0.036-0.087,0.084-0.167,0.146-0.241c0.062-0.074,0.132-0.138,0.211-0.19c0.079-0.052,0.166-0.093,0.257-0.121
		c0.092-0.028,0.185-0.044,0.279-0.044c0.058,0,0.114,0.01,0.168,0.027v0.715c-0.036-0.007-0.08-0.014-0.13-0.019
		c-0.05-0.006-0.1-0.009-0.146-0.009c-0.141,0-0.259,0.024-0.357,0.071c-0.098,0.046-0.176,0.11-0.236,0.192
		c-0.059,0.081-0.102,0.176-0.126,0.287c-0.026,0.109-0.038,0.227-0.038,0.349v1.263h-0.77v-2.801h0.732v0.521H13.458z
		 M17.509,16.974c-0.162,0-0.321-0.017-0.476-0.05c-0.155-0.031-0.293-0.087-0.415-0.165c-0.121-0.077-0.22-0.18-0.298-0.306
		c-0.077-0.126-0.12-0.281-0.127-0.466h0.731c0,0.083,0.017,0.155,0.051,0.214c0.034,0.06,0.078,0.108,0.133,0.146
		s0.116,0.066,0.187,0.084c0.07,0.019,0.144,0.027,0.219,0.027c0.055,0,0.111-0.007,0.171-0.019c0.06-0.013,0.113-0.033,0.163-0.061
		c0.048-0.026,0.089-0.063,0.122-0.108c0.033-0.044,0.048-0.102,0.048-0.17c0-0.058-0.02-0.107-0.059-0.149
		c-0.04-0.041-0.097-0.078-0.17-0.11c-0.074-0.033-0.166-0.063-0.274-0.09c-0.108-0.026-0.23-0.055-0.368-0.084
		c-0.112-0.025-0.221-0.056-0.327-0.089c-0.106-0.035-0.202-0.079-0.285-0.136c-0.083-0.056-0.149-0.127-0.201-0.211
		c-0.05-0.084-0.076-0.188-0.076-0.312c0-0.176,0.035-0.324,0.106-0.441c0.07-0.117,0.164-0.209,0.279-0.276
		c0.115-0.066,0.246-0.113,0.39-0.141c0.144-0.027,0.292-0.041,0.443-0.041c0.152,0,0.299,0.016,0.442,0.044s0.27,0.077,0.381,0.146
		c0.112,0.069,0.205,0.16,0.279,0.274c0.074,0.113,0.118,0.257,0.133,0.431H17.98c-0.011-0.148-0.067-0.249-0.167-0.302
		c-0.101-0.052-0.22-0.077-0.357-0.077c-0.043,0-0.091,0.002-0.141,0.007c-0.051,0.006-0.097,0.018-0.138,0.035
		c-0.042,0.019-0.077,0.045-0.106,0.079c-0.029,0.034-0.043,0.08-0.043,0.138c0,0.068,0.024,0.125,0.076,0.169
		c0.05,0.042,0.116,0.077,0.197,0.105c0.082,0.026,0.174,0.051,0.279,0.072c0.105,0.022,0.211,0.046,0.32,0.07
		c0.112,0.025,0.221,0.057,0.327,0.093s0.202,0.083,0.285,0.144c0.083,0.06,0.149,0.134,0.201,0.222
		c0.05,0.088,0.076,0.197,0.076,0.327c0,0.186-0.037,0.339-0.111,0.463c-0.074,0.125-0.171,0.226-0.29,0.302
		c-0.12,0.075-0.255,0.13-0.409,0.161C17.824,16.957,17.668,16.974,17.509,16.974z M10.388,9.355
		c0.095-0.279,0.296-0.524,0.566-0.688c0.487-0.292,1.094-0.244,1.44,0.115c0.018,0.018,0.032,0.036,0.047,0.055l0.008,0.021
		l2.743-1.319l0.531,0.474l-3.095,1.271l0.017,0.042c0.017,0.146,0.005,0.298-0.046,0.451c-0.08,0.237-0.237,0.449-0.446,0.606
		c-0.128,0.125-0.306,0.191-0.479,0.23c-0.399,0.104-0.817,0.012-1.081-0.264c-0.048-0.053-0.091-0.106-0.128-0.168
		C10.319,9.94,10.292,9.645,10.388,9.355z M11.341,13.665v-0.634h0.769v0.634H11.341z M12.11,14.098v2.801h-0.769v-2.801H12.11z
		 M8.173,15.741c0.055-0.103,0.127-0.185,0.217-0.246c0.09-0.062,0.192-0.107,0.306-0.138c0.114-0.031,0.23-0.056,0.35-0.074
		c0.119-0.018,0.232-0.031,0.34-0.043c0.108-0.011,0.205-0.027,0.29-0.049s0.152-0.053,0.203-0.095
		c0.05-0.041,0.076-0.102,0.076-0.181c0-0.083-0.013-0.149-0.041-0.197c-0.027-0.05-0.063-0.088-0.108-0.115
		c-0.045-0.026-0.098-0.045-0.157-0.054c-0.059-0.009-0.124-0.013-0.192-0.013c-0.148,0-0.266,0.031-0.355,0.097
		c-0.088,0.065-0.14,0.174-0.154,0.325h-0.77c0.011-0.181,0.056-0.33,0.136-0.45c0.079-0.118,0.18-0.215,0.304-0.287
		c0.122-0.072,0.259-0.123,0.411-0.153c0.152-0.031,0.308-0.047,0.466-0.047c0.141,0,0.284,0.01,0.428,0.03
		c0.145,0.021,0.276,0.06,0.396,0.116c0.119,0.058,0.216,0.14,0.292,0.244s0.115,0.239,0.115,0.406v1.456
		c0,0.127,0.007,0.247,0.021,0.363s0.04,0.202,0.076,0.261h-0.78c-0.014-0.045-0.026-0.089-0.035-0.134
		c-0.009-0.045-0.015-0.091-0.019-0.138c-0.124,0.127-0.268,0.216-0.433,0.268c-0.167,0.053-0.336,0.079-0.509,0.079
		c-0.134,0-0.259-0.018-0.374-0.052c-0.116-0.034-0.217-0.086-0.303-0.154c-0.087-0.068-0.155-0.155-0.203-0.261
		c-0.048-0.104-0.073-0.229-0.073-0.373C8.092,15.976,8.12,15.844,8.173,15.741z M7.546,16.898H6.695v-1.669H5.13v1.669H4.28v-3.867
		H5.13v1.483h1.565v-1.483h0.851V16.898z M22.167,24.859l-0.091,0.068c-0.007,0.007-0.064,0.038-0.171,0.096
		c-0.153,0.081-0.249,0.132-0.288,0.147c-0.094,0.042-0.153,0.066-0.176,0.073c-0.061,0.02-0.124,0.029-0.19,0.029
		c-0.067,0-0.124-0.048-0.168-0.145c-0.045-0.097-0.068-0.236-0.068-0.422c0-0.072,0.004-0.15,0.014-0.235
		c0.01-0.083,0.022-0.174,0.036-0.271h-0.029l-0.475,0.943c-0.025,0.051-0.053,0.084-0.082,0.102
		c-0.03,0.018-0.065,0.027-0.105,0.027c-0.049,0-0.089-0.011-0.12-0.032c-0.03-0.021-0.053-0.05-0.07-0.085
		c-0.016-0.036-0.027-0.077-0.032-0.122c-0.002-0.017-0.002-0.034-0.003-0.052c-0.049,0.034-0.1,0.068-0.156,0.102
		c-0.06,0.036-0.122,0.068-0.188,0.097c-0.066,0.028-0.134,0.05-0.205,0.067c-0.07,0.016-0.143,0.025-0.215,0.025
		c-0.112,0-0.212-0.021-0.296-0.064c-0.084-0.041-0.155-0.098-0.211-0.168c-0.012-0.015-0.017-0.036-0.027-0.053
		c-0.018,0.015-0.035,0.027-0.053,0.043c-0.052,0.044-0.108,0.083-0.167,0.119c-0.059,0.036-0.123,0.065-0.193,0.088
		c-0.07,0.023-0.149,0.035-0.237,0.035c-0.044,0-0.08-0.015-0.11-0.043c-0.03-0.027-0.053-0.065-0.072-0.116
		c-0.018-0.049-0.031-0.108-0.039-0.176c-0.008-0.067-0.011-0.141-0.011-0.22c0-0.077,0.002-0.159,0.008-0.245
		c0.005-0.085,0.013-0.173,0.023-0.261h-0.027l-0.368,0.932c-0.032,0.051-0.067,0.084-0.106,0.102
		c-0.039,0.018-0.083,0.027-0.134,0.027c-0.039,0-0.069-0.011-0.092-0.031s-0.042-0.047-0.054-0.079
		c-0.013-0.033-0.021-0.068-0.025-0.106c-0.004-0.039-0.006-0.076-0.006-0.113c0-0.016,0.001-0.038,0.003-0.066
		c0.003-0.03,0.006-0.063,0.011-0.101c0.005-0.038,0.011-0.077,0.017-0.12c0.006-0.042,0.012-0.082,0.018-0.125
		c0.014-0.097,0.03-0.2,0.049-0.313h-0.027c-0.014,0.018-0.031,0.045-0.049,0.082c-0.019,0.037-0.045,0.09-0.079,0.16
		c-0.034,0.07-0.078,0.162-0.129,0.275c-0.053,0.112-0.121,0.25-0.204,0.413c-0.025,0.048-0.053,0.081-0.084,0.098
		s-0.068,0.026-0.106,0.026c-0.049,0-0.089-0.011-0.12-0.031c-0.03-0.021-0.053-0.049-0.069-0.083
		c-0.016-0.034-0.027-0.073-0.033-0.118c-0.001-0.008-0.001-0.015-0.001-0.022c-0.033,0.022-0.065,0.044-0.1,0.065
		c-0.06,0.036-0.123,0.068-0.188,0.097s-0.134,0.05-0.205,0.067c-0.07,0.016-0.143,0.025-0.215,0.025
		c-0.113,0-0.212-0.021-0.296-0.064c-0.084-0.041-0.155-0.098-0.211-0.168c-0.002-0.003-0.003-0.009-0.006-0.013
		c-0.027,0.016-0.055,0.035-0.083,0.049c-0.047,0.025-0.096,0.049-0.146,0.072c-0.051,0.023-0.102,0.044-0.152,0.063
		c-0.051,0.018-0.102,0.033-0.15,0.044s-0.094,0.017-0.136,0.017c-0.065,0-0.125-0.028-0.182-0.085
		c-0.056-0.057-0.104-0.132-0.146-0.228c-0.006-0.015-0.009-0.035-0.014-0.049c-0.083,0.047-0.165,0.094-0.232,0.132
		c-0.09,0.051-0.171,0.094-0.242,0.127c-0.071,0.034-0.134,0.06-0.189,0.076s-0.105,0.026-0.149,0.026
		c-0.092,0-0.173-0.028-0.242-0.084c-0.07-0.056-0.128-0.136-0.175-0.24c-0.004-0.009-0.005-0.024-0.009-0.033l-0.017,0.012
		c-0.007,0.007-0.064,0.038-0.171,0.096c-0.153,0.081-0.249,0.132-0.288,0.147c-0.094,0.042-0.153,0.066-0.176,0.073
		c-0.061,0.02-0.124,0.029-0.19,0.029c-0.067,0-0.123-0.048-0.168-0.145c-0.046-0.097-0.068-0.236-0.068-0.422
		c0-0.072,0.004-0.15,0.014-0.235c0.01-0.083,0.022-0.174,0.036-0.271h-0.029l-0.475,0.943c-0.025,0.051-0.053,0.084-0.082,0.102
		c-0.03,0.018-0.065,0.027-0.105,0.027c-0.049,0-0.089-0.011-0.12-0.032c-0.03-0.021-0.053-0.05-0.07-0.085
		c-0.016-0.036-0.027-0.077-0.032-0.122c-0.002-0.017-0.002-0.035-0.003-0.053c-0.049,0.034-0.101,0.069-0.157,0.103
		c-0.06,0.036-0.122,0.068-0.188,0.097c-0.066,0.028-0.134,0.05-0.205,0.067c-0.07,0.016-0.143,0.025-0.215,0.025
		c-0.112,0-0.212-0.021-0.296-0.064c-0.084-0.041-0.155-0.098-0.211-0.168c-0.024-0.03-0.036-0.071-0.055-0.106
		c-0.031,0.043-0.052,0.081-0.1,0.13c-0.087,0.086-0.16,0.152-0.221,0.199c-0.01,0.008-0.019,0.013-0.025,0.017
		c-0.116,0.075-0.2,0.13-0.251,0.165c-0.033,0.021-0.056,0.062-0.067,0.118c-0.013,0.057-0.026,0.164-0.041,0.318
		c-0.005,0.046-0.01,0.081-0.013,0.104c-0.007,0.056-0.014,0.109-0.021,0.163c-0.007,0.053-0.02,0.113-0.037,0.18
		c-0.018,0.067-0.038,0.129-0.061,0.185c-0.023,0.057-0.053,0.113-0.09,0.17c-0.037,0.056-0.078,0.104-0.124,0.143
		c-0.046,0.038-0.101,0.07-0.165,0.094c-0.064,0.023-0.135,0.036-0.21,0.036c-0.062,0-0.119-0.007-0.171-0.021
		c-0.052-0.014-0.1-0.035-0.144-0.063c-0.044-0.027-0.08-0.067-0.107-0.118s-0.044-0.11-0.05-0.177
		c-0.01-0.128,0.025-0.263,0.105-0.405c0.046-0.08,0.078-0.136,0.095-0.167c0.018-0.032,0.045-0.076,0.085-0.133
		c0.039-0.058,0.08-0.109,0.121-0.156c0.084-0.095,0.154-0.171,0.209-0.229c0.054-0.058,0.121-0.12,0.196-0.187l0.036-0.216
		c-0.135,0.129-0.267,0.192-0.395,0.192c-0.094,0-0.181-0.028-0.261-0.085c-0.078-0.058-0.138-0.128-0.178-0.213
		c-0.073-0.151-0.075-0.327-0.006-0.529c0.063-0.188,0.126-0.344,0.191-0.467c0.063-0.123,0.147-0.229,0.248-0.32
		c0.148-0.132,0.291-0.197,0.43-0.197c0.063,0,0.109,0.018,0.138,0.053c0.003,0.004,0.009,0.011,0.016,0.021
		c0.008,0.01,0.012,0.018,0.016,0.02c0.002,0.002,0.008,0.007,0.015,0.014c0.008,0.008,0.014,0.012,0.02,0.014
		s0.014,0.006,0.024,0.009c0.01,0.004,0.02,0.006,0.032,0.008c0.013,0.001,0.027,0.001,0.042,0.001l0.08-0.001
		c0.054,0,0.092,0.016,0.112,0.049c0.008,0.014,0.015,0.031,0.024,0.053c0.015,0.037,0.017,0.162,0.005,0.373
		C9.142,24.143,9.127,24.224,9.1,24.32s-0.045,0.204-0.054,0.322s-0.022,0.273-0.04,0.461c0.034-0.02,0.072-0.045,0.112-0.075
		c0.122-0.093,0.262-0.266,0.412-0.495c0-0.01-0.004-0.02-0.004-0.029c0-0.067,0.013-0.147,0.038-0.24
		c0.025-0.092,0.052-0.174,0.079-0.246c0.026-0.071,0.061-0.139,0.101-0.204c0.042-0.065,0.089-0.123,0.144-0.173
		c0.055-0.049,0.116-0.088,0.184-0.117c0.069-0.029,0.144-0.045,0.227-0.045c0.068,0,0.13,0.011,0.188,0.034
		c0.058,0.021,0.108,0.051,0.151,0.091c0.043,0.039,0.077,0.087,0.101,0.143c0.024,0.055,0.036,0.116,0.036,0.187
		c0,0.072-0.024,0.155-0.074,0.246c-0.048,0.091-0.105,0.169-0.172,0.233c-0.065,0.065-0.144,0.123-0.233,0.174
		c-0.091,0.052-0.188,0.091-0.294,0.119c0.019,0.032,0.036,0.059,0.054,0.08s0.036,0.038,0.054,0.049
		c0.019,0.013,0.038,0.021,0.058,0.025c0.02,0.005,0.042,0.007,0.064,0.007c0.072,0,0.149-0.014,0.23-0.042
		c0.08-0.028,0.158-0.063,0.234-0.105c0.077-0.044,0.149-0.09,0.217-0.141c0.03-0.021,0.049-0.041,0.075-0.063
		c0.008-0.077,0.016-0.154,0.025-0.242c0.015-0.125,0.031-0.238,0.049-0.339s0.036-0.187,0.053-0.258
		c0.013-0.056,0.039-0.102,0.077-0.14c0.039-0.037,0.09-0.057,0.156-0.057c0.065,0,0.11,0.021,0.136,0.061
		c0.025,0.04,0.038,0.093,0.038,0.16c0,0.018-0.001,0.042-0.005,0.072c-0.003,0.031-0.008,0.064-0.013,0.102
		c-0.006,0.037-0.011,0.076-0.018,0.114c-0.006,0.04-0.011,0.085-0.017,0.135c-0.006,0.05-0.011,0.087-0.014,0.112
		c-0.003,0.024-0.005,0.042-0.005,0.05h0.036c0.007-0.013,0.019-0.034,0.035-0.064c0.016-0.03,0.034-0.072,0.054-0.128
		c0.021-0.055,0.042-0.104,0.066-0.147c0.023-0.043,0.045-0.084,0.066-0.123c0.021-0.04,0.04-0.075,0.056-0.104
		c0.018-0.03,0.03-0.053,0.039-0.067c0.039-0.065,0.083-0.11,0.132-0.134c0.049-0.024,0.105-0.037,0.165-0.037
		c0.061,0,0.109,0.026,0.145,0.077c0.036,0.05,0.054,0.12,0.054,0.21c0,0.014-0.003,0.035-0.008,0.066
		c-0.005,0.032-0.013,0.069-0.021,0.113s-0.018,0.1-0.028,0.169c-0.011,0.068-0.02,0.13-0.028,0.185
		c-0.008,0.055-0.015,0.107-0.021,0.161c-0.006,0.054-0.009,0.103-0.009,0.147c0,0.074,0.01,0.137,0.028,0.185
		c0.019,0.049,0.048,0.072,0.088,0.072c0.015,0,0.035-0.005,0.062-0.016c0.04-0.015,0.065-0.027,0.076-0.039
		c0.053-0.04,0.081-0.06,0.083-0.06c0.004,0.002,0.045-0.023,0.122-0.072c0.049-0.031,0.116-0.076,0.174-0.114
		c-0.023-0.148-0.035-0.313-0.035-0.499c0-0.071,0.003-0.149,0.009-0.232c0.006-0.081,0.014-0.163,0.025-0.244
		c-0.036-0.006-0.064-0.011-0.084-0.015c-0.021-0.005-0.042-0.01-0.064-0.015c-0.022-0.004-0.051-0.01-0.085-0.015
		c-0.034-0.005-0.085-0.013-0.15-0.021c-0.029-0.003-0.052-0.011-0.068-0.022c-0.016-0.011-0.027-0.024-0.034-0.041
		c-0.008-0.015-0.012-0.031-0.013-0.047c-0.001-0.018-0.002-0.032-0.002-0.044c0-0.02,0.012-0.034,0.035-0.044
		c0.024-0.01,0.055-0.018,0.092-0.022s0.077-0.008,0.122-0.009c0.044-0.001,0.087,0,0.128,0.001
		c0.041,0.002,0.077,0.002,0.109,0.003c0.033,0,0.055,0,0.067-0.003c0.033-0.162,0.074-0.32,0.124-0.473
		c0.05-0.152,0.106-0.288,0.169-0.407c0.062-0.118,0.13-0.214,0.203-0.286c0.074-0.071,0.151-0.106,0.231-0.106
		c0.053,0,0.1,0.014,0.143,0.043c0.043,0.028,0.08,0.067,0.11,0.116c0.03,0.048,0.054,0.104,0.069,0.17
		c0.017,0.063,0.025,0.132,0.025,0.201c0,0.058-0.008,0.119-0.025,0.184c-0.017,0.064-0.04,0.131-0.069,0.197
		c-0.029,0.067-0.063,0.134-0.102,0.203c-0.04,0.068-0.081,0.137-0.125,0.204c0.011-0.004,0.029-0.006,0.055-0.002
		c0.025,0.002,0.054,0.004,0.088,0.004c0.033,0.001,0.069,0.003,0.108,0.003c0.039,0.002,0.076,0.002,0.112,0.004
		c0.036,0.002,0.07,0.003,0.102,0.003c0.032,0.002,0.057,0.003,0.078,0.004c0.002,0,0.002,0.003,0.003,0.004
		c0.013-0.05,0.029-0.109,0.052-0.195c0.053-0.199,0.105-0.357,0.158-0.478s0.111-0.23,0.173-0.335
		c0.063-0.104,0.128-0.194,0.196-0.271c0.068-0.078,0.14-0.139,0.214-0.183c0.075-0.045,0.151-0.066,0.228-0.066
		c0.056,0,0.102,0.011,0.139,0.032c0.036,0.021,0.064,0.05,0.085,0.085c0.021,0.035,0.035,0.074,0.044,0.119
		c0.009,0.044,0.013,0.09,0.013,0.136c0,0.114-0.013,0.23-0.041,0.349c-0.026,0.119-0.063,0.237-0.109,0.357
		c-0.046,0.119-0.099,0.24-0.159,0.361c-0.06,0.119-0.123,0.239-0.188,0.356c-0.065,0.12-0.131,0.236-0.197,0.351
		c-0.066,0.115-0.126,0.228-0.182,0.338c-0.006,0.012-0.013,0.027-0.02,0.048c-0.007,0.02-0.013,0.04-0.019,0.063
		c-0.006,0.022-0.012,0.047-0.018,0.072c-0.006,0.025-0.012,0.05-0.015,0.075v0.026c0,0.031,0.003,0.062,0.01,0.091
		c0.007,0.03,0.015,0.057,0.024,0.081c0.01,0.023,0.021,0.042,0.031,0.057c0.012,0.014,0.021,0.021,0.032,0.021
		c0.023,0,0.05-0.006,0.08-0.015c0.031-0.011,0.063-0.022,0.097-0.04c0.034-0.017,0.068-0.035,0.104-0.057s0.07-0.042,0.104-0.065
		c0.006-0.003,0.013-0.009,0.02-0.013c-0.009-0.054-0.024-0.104-0.024-0.159c0-0.067,0.013-0.147,0.038-0.24
		c0.025-0.092,0.052-0.174,0.079-0.246c0.026-0.071,0.061-0.139,0.101-0.204c0.042-0.065,0.089-0.123,0.144-0.173
		c0.055-0.049,0.116-0.088,0.184-0.117c0.068-0.029,0.144-0.045,0.227-0.045c0.068,0,0.13,0.011,0.188,0.034
		c0.058,0.021,0.108,0.051,0.151,0.091c0.043,0.039,0.077,0.087,0.101,0.143c0.024,0.055,0.036,0.116,0.036,0.187
		c0,0.072-0.024,0.155-0.074,0.246c-0.049,0.091-0.106,0.169-0.172,0.233c-0.065,0.065-0.144,0.123-0.233,0.174
		c-0.09,0.052-0.188,0.091-0.294,0.119c0.019,0.032,0.036,0.059,0.054,0.08s0.036,0.038,0.054,0.049
		c0.019,0.013,0.038,0.021,0.058,0.025c0.02,0.005,0.042,0.007,0.064,0.007c0.072,0,0.148-0.014,0.229-0.042
		c0.08-0.028,0.159-0.063,0.234-0.105c0.077-0.044,0.148-0.09,0.216-0.141c0.008-0.006,0.012-0.011,0.02-0.016
		c0.001-0.017,0.002-0.032,0.005-0.05c0.01-0.076,0.023-0.162,0.042-0.259c0.02-0.098,0.035-0.181,0.049-0.253
		c0.014-0.071,0.028-0.139,0.042-0.198c0.015-0.06,0.028-0.108,0.041-0.146c0.011-0.038,0.023-0.07,0.034-0.093
		c0.011-0.022,0.023-0.04,0.037-0.055c0.014-0.013,0.031-0.021,0.05-0.024c0.02-0.006,0.044-0.007,0.074-0.007
		c0.046,0,0.082,0.001,0.108,0.005c0.025,0.003,0.045,0.011,0.058,0.021c0.012,0.012,0.02,0.027,0.022,0.051
		c0.002,0.021,0.004,0.051,0.004,0.09c0,0.021-0.001,0.044-0.004,0.07c-0.001,0.027-0.004,0.057-0.008,0.086
		c-0.002,0.031-0.006,0.062-0.01,0.094c-0.009,0.062-0.013,0.093-0.015,0.095c-0.017,0.084-0.034,0.177-0.052,0.278l0.019,0.023
		c0.003-0.004,0.019-0.037,0.048-0.098c0.03-0.062,0.062-0.121,0.096-0.181c0.034-0.061,0.071-0.124,0.112-0.188
		c0.04-0.065,0.078-0.123,0.114-0.173c0.035-0.05,0.072-0.092,0.111-0.125c0.04-0.032,0.086-0.049,0.141-0.049
		c0.051,0,0.094,0.016,0.13,0.046c0.037,0.028,0.054,0.071,0.054,0.126c0,0.048-0.002,0.093-0.009,0.136
		c-0.007,0.055-0.015,0.096-0.022,0.124c-0.009,0.032-0.018,0.071-0.029,0.117c-0.008,0.04-0.024,0.099-0.045,0.175
		c-0.003,0.012-0.008,0.029-0.012,0.053c0,0.007-0.001,0.012-0.001,0.014l0.02,0.023c0.003-0.004,0.02-0.037,0.051-0.098
		c0.031-0.06,0.065-0.119,0.102-0.18c0.037-0.06,0.076-0.123,0.118-0.188c0.041-0.067,0.081-0.125,0.117-0.175
		c0.036-0.049,0.07-0.09,0.105-0.123s0.078-0.051,0.129-0.051c0.056,0,0.105,0.016,0.144,0.046c0.04,0.028,0.059,0.071,0.059,0.126
		c0,0.085-0.004,0.164-0.013,0.239c-0.009,0.076-0.021,0.16-0.038,0.251c-0.018,0.092-0.03,0.176-0.039,0.25
		c-0.008,0.075-0.013,0.154-0.013,0.239c0,0.065,0.009,0.119,0.026,0.162c0.017,0.04,0.037,0.062,0.062,0.062
		c0.025,0,0.052-0.006,0.079-0.017c0.028-0.011,0.056-0.025,0.085-0.042c0.029-0.018,0.058-0.037,0.085-0.06
		c0.022-0.018,0.043-0.037,0.063-0.057c-0.01-0.058-0.026-0.113-0.026-0.174c0-0.067,0.013-0.147,0.038-0.24
		c0.025-0.092,0.052-0.174,0.079-0.246c0.026-0.071,0.061-0.139,0.101-0.204c0.042-0.065,0.089-0.123,0.144-0.173
		c0.055-0.049,0.116-0.088,0.184-0.117c0.069-0.029,0.144-0.045,0.227-0.045c0.068,0,0.13,0.011,0.188,0.034
		c0.058,0.021,0.108,0.051,0.151,0.091c0.043,0.039,0.077,0.087,0.101,0.143c0.024,0.055,0.036,0.116,0.036,0.187
		c0,0.072-0.024,0.155-0.074,0.246c-0.048,0.091-0.106,0.169-0.172,0.233c-0.065,0.065-0.144,0.123-0.233,0.174
		c-0.091,0.052-0.188,0.091-0.294,0.119c0.019,0.032,0.036,0.059,0.054,0.08s0.036,0.038,0.054,0.049
		c0.019,0.013,0.038,0.021,0.058,0.025c0.02,0.005,0.042,0.007,0.064,0.007c0.072,0,0.149-0.014,0.229-0.042
		s0.159-0.063,0.234-0.105c0.077-0.044,0.149-0.09,0.217-0.141c0.029-0.021,0.048-0.04,0.074-0.061
		c0.008-0.079,0.016-0.156,0.025-0.244c0.015-0.125,0.031-0.238,0.049-0.339s0.036-0.187,0.053-0.258
		c0.013-0.056,0.039-0.102,0.077-0.14c0.039-0.037,0.09-0.057,0.156-0.057c0.065,0,0.11,0.021,0.136,0.061s0.038,0.093,0.038,0.16
		c0,0.018-0.001,0.042-0.005,0.072c-0.004,0.031-0.008,0.064-0.013,0.102c-0.006,0.037-0.012,0.076-0.018,0.114
		c-0.006,0.04-0.012,0.085-0.017,0.135c-0.006,0.05-0.01,0.087-0.014,0.112c-0.003,0.024-0.005,0.042-0.005,0.05h0.036
		c0.007-0.013,0.018-0.034,0.034-0.064c0.016-0.03,0.034-0.072,0.055-0.128c0.02-0.055,0.042-0.104,0.066-0.147
		s0.046-0.084,0.066-0.123c0.021-0.04,0.04-0.075,0.056-0.104c0.018-0.03,0.03-0.053,0.039-0.067
		c0.039-0.065,0.083-0.11,0.132-0.134c0.049-0.024,0.105-0.037,0.165-0.037c0.061,0,0.109,0.026,0.145,0.077
		c0.036,0.05,0.054,0.12,0.054,0.21c0,0.014-0.002,0.035-0.008,0.066c-0.005,0.032-0.013,0.069-0.021,0.113s-0.018,0.1-0.028,0.169
		c-0.011,0.068-0.02,0.13-0.028,0.185c-0.008,0.055-0.015,0.107-0.02,0.161c-0.006,0.054-0.009,0.103-0.009,0.147
		c0,0.074,0.009,0.137,0.028,0.185c0.019,0.049,0.048,0.072,0.088,0.072c0.015,0,0.035-0.005,0.062-0.016
		c0.04-0.015,0.065-0.027,0.077-0.039c0.053-0.04,0.081-0.06,0.083-0.06c0.004,0.002,0.045-0.023,0.123-0.072
		c0.096-0.062,0.212-0.138,0.346-0.228L22.167,24.859z M22.567,22.148c-0.002,0.016-0.007,0.031-0.011,0.049
		c-0.019,0.058-0.038,0.121-0.059,0.191c-0.021,0.069-0.042,0.138-0.064,0.207c-0.022,0.07-0.044,0.135-0.065,0.196
		c-0.021,0.063-0.04,0.116-0.057,0.159c-0.02,0.058-0.049,0.102-0.088,0.13c-0.038,0.028-0.077,0.042-0.115,0.042
		c-0.038,0-0.072-0.014-0.101-0.044c-0.029-0.03-0.043-0.074-0.043-0.134c0-0.021,0.001-0.049,0.003-0.084
		c0.001-0.034,0.003-0.072,0.006-0.114c0.003-0.041,0.005-0.085,0.009-0.133c0.004-0.046,0.007-0.091,0.012-0.136
		c0.008-0.105,0.018-0.219,0.029-0.34c0-0.036,0.009-0.068,0.027-0.097c0.018-0.028,0.042-0.053,0.07-0.073
		c0.029-0.02,0.062-0.035,0.099-0.046c0.036-0.011,0.072-0.017,0.109-0.017c0.032,0,0.062,0.004,0.091,0.013
		c0.029,0.007,0.055,0.02,0.078,0.035s0.042,0.036,0.055,0.062s0.02,0.055,0.02,0.088C22.57,22.119,22.569,22.134,22.567,22.148z
		 M24.556,25.039c-0.099,0.049-0.201,0.092-0.311,0.13c-0.108,0.037-0.218,0.067-0.329,0.088c-0.11,0.021-0.215,0.032-0.314,0.032
		c-0.071,0-0.138-0.006-0.2-0.019c-0.062-0.014-0.115-0.033-0.162-0.06c-0.046-0.027-0.084-0.063-0.113-0.107
		c-0.029-0.044-0.047-0.097-0.053-0.16c-0.017,0.004-0.033,0.008-0.049,0.008c-0.017,0.001-0.033,0.002-0.049,0.002
		c-0.019,0-0.037-0.001-0.054-0.002c-0.017,0-0.031-0.006-0.043-0.014s-0.022-0.021-0.029-0.038
		c-0.007-0.018-0.011-0.044-0.011-0.076c0-0.029,0.007-0.057,0.021-0.082c0.015-0.024,0.032-0.048,0.051-0.067
		c0.02-0.019,0.039-0.036,0.058-0.051c0.02-0.014,0.033-0.026,0.043-0.035c0.068-0.058,0.124-0.107,0.166-0.146
		c0.042-0.038,0.084-0.084,0.127-0.137c0.042-0.051,0.076-0.094,0.1-0.127c0.026-0.033,0.055-0.072,0.088-0.118
		c0.034-0.045,0.076-0.101,0.123-0.165c0.048-0.065,0.112-0.147,0.189-0.245c0.016-0.021,0.033-0.043,0.052-0.063
		c0.02-0.021,0.042-0.04,0.065-0.056c0.023-0.017,0.049-0.03,0.078-0.041s0.061-0.016,0.095-0.016c0.058,0,0.103,0.007,0.135,0.02
		c0.031,0.012,0.054,0.028,0.068,0.047c0.015,0.019,0.023,0.037,0.025,0.058c0.003,0.021,0.004,0.038,0.004,0.052
		c0,0.03-0.012,0.062-0.035,0.097s-0.048,0.07-0.076,0.104c-0.028,0.032-0.054,0.063-0.079,0.091
		c-0.024,0.028-0.039,0.047-0.043,0.062c0,0.038,0.003,0.072,0.009,0.104s0.013,0.062,0.022,0.092
		c0.01,0.03,0.019,0.062,0.029,0.095c0.01,0.034,0.02,0.072,0.028,0.116s0.011,0.105,0.003,0.182
		c-0.007,0.077-0.01,0.155-0.01,0.233c0.043-0.029,0.09-0.056,0.14-0.08c0.05-0.023,0.103-0.049,0.158-0.074
		c0.054-0.025,0.11-0.055,0.167-0.085c0.057-0.031,0.115-0.069,0.173-0.113l0.002,0.411C24.742,24.938,24.655,24.99,24.556,25.039z
		 M27.457,16.752c-0.224,0.147-0.495,0.222-0.813,0.222c-0.22,0-0.418-0.037-0.595-0.109s-0.327-0.173-0.45-0.303
		c-0.123-0.13-0.218-0.285-0.285-0.466c-0.067-0.18-0.1-0.379-0.1-0.596c0-0.209,0.034-0.404,0.103-0.584
		c0.068-0.181,0.167-0.337,0.292-0.469c0.127-0.132,0.277-0.236,0.453-0.312c0.175-0.076,0.369-0.114,0.582-0.114
		c0.238,0,0.446,0.047,0.623,0.139s0.322,0.216,0.436,0.371c0.114,0.155,0.196,0.331,0.247,0.53c0.05,0.199,0.069,0.407,0.054,0.623
		h-2.019c0.01,0.245,0.074,0.425,0.189,0.539c0.115,0.113,0.282,0.171,0.499,0.171c0.155,0,0.289-0.039,0.4-0.117
		c0.112-0.077,0.18-0.159,0.206-0.246h0.677C27.847,16.362,27.681,16.604,27.457,16.752z"/>
	<path d="M16,0C7.178,0,0,7.178,0,16s7.178,16,16,16s16-7.178,16-16S24.822,0,16,0z M16,31.099C7.674,31.099,0.901,24.326,0.901,16
		S7.674,0.901,16,0.901S31.099,7.674,31.099,16S24.326,31.099,16,31.099z"/>
</g>
<g>
</g>
<g>
</g>
<g>
</g>
<g>
</g>
<g>
</g>
<g>
</g>
<g>
</g>
<g>
</g>
<g>
</g>
<g>
</g>
<g>
</g>
<g>
</g>
<g>
</g>
<g>
</g>
<g>
</g>
</svg>
