<?xml version="1.0" encoding="iso-8859-1"?>
<!-- Generator: Adobe Illustrator 16.0.0, SVG Export Plug-In . SVG Version: 6.00 Build 0)  -->
<!DOCTYPE svg PUBLIC "-//W3C//DTD SVG 1.1//EN" "http://www.w3.org/Graphics/SVG/1.1/DTD/svg11.dtd">
<svg version="1.1" id="Layer_1" xmlns="http://www.w3.org/2000/svg" xmlns:xlink="http://www.w3.org/1999/xlink" x="0px" y="0px"
	 width="31.173px" height="25.034px" viewBox="0 0 31.173 25.034" style="enable-background:new 0 0 31.173 25.034;"
	 xml:space="preserve">
<path d="M5.523,21.929c2.149-0.221,3.904-5.449,3.801-6.945c0.124-0.123,1.929,1.231,1.826-0.854
	c-1.064,1.045-1.537-0.397-1.148-1.031c0.388-0.633,0.682-0.583,0.897-0.972c0.216-0.388,0.314-2.655,1.075-2.737
	c1.104,1.408,1.898,1.025,1.575,0.25c-0.441,0.863-0.971-0.59-0.405-0.994c0.722-0.5,1.495-0.38,2.22,1.004
	c0.182,0.559,0.03,2.149,0.128,2.492c0.098,0.344,1.289,1.642,1.289,2.149c0,0.509-0.748,0.194-0.788,0.354
	c-0.04,0.159-0.123,0.356-0.007,0.515c0.131,0.182,0.493,0.231,0.493,0.383c0,0.287-0.427,0.501-0.427,0.501
	s0.346,0.236,0.339,0.501c-0.007,0.265-0.624,0.053-0.634,0.294c0.923,2.96-2.404,0.917-3.489,1.473
	c-1.084,0.555-3.562,2.495-2.266,4.97c0.478,0.911,2.436-0.335,4.17-0.077c2.975,0.441,3.939,3.668,8.805,0.347
	c3.77-2.237,5.908,0.193,6.681-2.703c0.772-2.896-3.823-4.749-2.355-7.105c0.818-1.313,4.055-2.703,3.862-7.221
	c-0.417-3.126-3.476-3.359-3.244-2.124c1.352,0.231,0.696,1.761-0.154,1.699c-2.124-0.154,0.309-3.359-3.823-5.6
	c-4.132-2.239-5.526,3.89-9.542,2.925c-0.608-0.157-1.417-0.817-2.197-0.801c-0.958,0.021-1.891,0.727-2.587,0.541
	C8.354,2.823,7.069,1.615,6.103,1.925C4.943,2.297,4.969,4.61,4.21,5.439C2.739,7.046,1.033,7.51,1.044,8.528
	c0.01,0.973,1.931,2.24,1.544,3.746c-0.386,1.506-2.66,1.166-2.587,1.737c0.124,0.984,1.628,1.912,1.776,2.163
	c0.147,0.251-1.002,0.97-0.811,1.931c0.171,1.195,3.321,2.317,0.579,3.398C2.434,22.276,3.374,22.149,5.523,21.929z"/>
<g>
</g>
<g>
</g>
<g>
</g>
<g>
</g>
<g>
</g>
<g>
</g>
<g>
</g>
<g>
</g>
<g>
</g>
<g>
</g>
<g>
</g>
<g>
</g>
<g>
</g>
<g>
</g>
<g>
</g>
</svg>
