<?xml version="1.0" encoding="iso-8859-1"?>
<!-- Generator: Adobe Illustrator 16.0.0, SVG Export Plug-In . SVG Version: 6.00 Build 0)  -->
<!DOCTYPE svg PUBLIC "-//W3C//DTD SVG 1.1//EN" "http://www.w3.org/Graphics/SVG/1.1/DTD/svg11.dtd">
<svg version="1.1" id="Layer_1" xmlns="http://www.w3.org/2000/svg" xmlns:xlink="http://www.w3.org/1999/xlink" x="0px" y="0px"
	 width="31.75px" height="30.311px" viewBox="0 0 31.75 30.311" style="enable-background:new 0 0 31.75 30.311;"
	 xml:space="preserve">
<path d="M28.151,0H7.189C3.974,0,3.705,2.695,3.705,5.456c0,2.76,0.269,5.455,3.484,5.455h20.962c3.215,0,3.484-2.695,3.484-5.455
	C31.635,2.695,31.366,0,28.151,0z M6.763,10.129c-1.919-0.209-2.32-1.824-2.32-4.674c0-2.851,0.4-4.465,2.32-4.674V10.129z
	 M8.508,2.104h1.663v2.771H8.508V2.104z M10.202,9.002H8.539V6.231h1.663V9.002z M11.28,2.104h1.663v2.771H11.28V2.104z
	 M12.974,9.002h-1.663V6.231h1.663V9.002z M14.113,2.104h1.663v2.771h-1.663V2.104z M15.807,9.002h-1.663V6.231h1.663V9.002z
	 M16.802,2.104h1.663v2.771h-1.663V2.104z M18.496,9.002h-1.663V6.231h1.663V9.002z M19.574,2.104h1.663v2.771h-1.663V2.104z
	 M21.268,9.002h-1.663V6.231h1.663V9.002z M22.263,2.104h1.663v2.771h-1.663V2.104z M23.957,9.002h-1.663V6.231h1.663V9.002z
	 M25.035,2.104h1.663v2.771h-1.663V2.104z M26.729,9.002h-1.663V6.231h1.663V9.002z M28.402,10.147V0.764
	c2.073,0.127,2.494,1.755,2.494,4.691S30.475,10.02,28.402,10.147z"/>
<path d="M24.446,13.453H3.484C0.269,13.453,0,16.149,0,18.909c0,2.76,0.269,5.456,3.484,5.456h20.962
	c3.215,0,3.484-2.695,3.484-5.456C27.931,16.149,27.662,13.453,24.446,13.453z M3.059,23.583c-1.919-0.209-2.319-1.824-2.319-4.674
	c0-2.85,0.4-4.465,2.319-4.674V23.583z M4.804,15.558h1.663v2.771H4.804V15.558z M6.498,22.456H4.835v-2.771h1.663V22.456z
	 M7.576,15.558h1.663v2.771H7.576V15.558z M9.269,22.456H7.606v-2.771h1.663V22.456z M10.409,15.558h1.663v2.771h-1.663V15.558z
	 M12.103,22.456h-1.663v-2.771h1.663V22.456z M13.098,15.558h1.663v2.771h-1.663V15.558z M14.792,22.456h-1.663v-2.771h1.663V22.456
	z M15.869,15.558h1.663v2.771h-1.663V15.558z M17.563,22.456H15.9v-2.771h1.663V22.456z M18.559,15.558h1.663v2.771h-1.663V15.558z
	 M20.252,22.456h-1.663v-2.771h1.663V22.456z M21.33,15.558h1.663v2.771H21.33V15.558z M23.024,22.456h-1.663v-2.771h1.663V22.456z
	 M24.697,23.6v-9.383c2.073,0.127,2.495,1.755,2.495,4.691S26.771,23.473,24.697,23.6z"/>
<path d="M31.75,28.248L3.976,27.487c-0.303-0.762-1.044-1.302-1.914-1.302C0.923,26.186,0,27.109,0,28.248s0.923,2.063,2.063,2.063
	c0.836,0,1.553-0.5,1.877-1.216l27.811-0.565V28.248z"/>
<g>
</g>
<g>
</g>
<g>
</g>
<g>
</g>
<g>
</g>
<g>
</g>
<g>
</g>
<g>
</g>
<g>
</g>
<g>
</g>
<g>
</g>
<g>
</g>
<g>
</g>
<g>
</g>
<g>
</g>
</svg>
