<?xml version="1.0" encoding="iso-8859-1"?>
<!-- Generator: Adobe Illustrator 16.0.0, SVG Export Plug-In . SVG Version: 6.00 Build 0)  -->
<!DOCTYPE svg PUBLIC "-//W3C//DTD SVG 1.1//EN" "http://www.w3.org/Graphics/SVG/1.1/DTD/svg11.dtd">
<svg version="1.1" id="Layer_1" xmlns="http://www.w3.org/2000/svg" xmlns:xlink="http://www.w3.org/1999/xlink" x="0px" y="0px"
	 width="27.931px" height="22.381px" viewBox="0 0 27.931 22.381" style="enable-background:new 0 0 27.931 22.381;"
	 xml:space="preserve">
<path d="M27.931,12.691c0-2.76-0.269-5.456-3.484-5.456H10.561l-4.56-4.437c0.293-0.765,0.114-1.665-0.525-2.253
	C4.638-0.227,3.333-0.172,2.562,0.665C1.79,1.502,1.843,2.808,2.681,3.58c0.616,0.566,1.481,0.684,2.205,0.377l3.708,3.279h-5.11
	C0.269,7.235,0,9.931,0,12.691c0,2.76,0.269,5.456,3.484,5.456h17.451l4.79,4.235l0.19-0.207l-4.14-4.028h2.672
	C27.662,18.146,27.931,15.451,27.931,12.691z M24.697,8c2.073,0.127,2.495,1.755,2.495,4.691s-0.421,4.564-2.495,4.691V8z
	 M3.059,17.365c-1.919-0.209-2.319-1.824-2.319-4.674c0-2.85,0.4-4.465,2.319-4.674V17.365z M21.33,9.34h1.663v2.771H21.33V9.34z
	 M18.559,9.34h1.663v2.771h-1.663V9.34z M17.563,14.049l-0.598-0.582h0.598V14.049z M15.869,9.34h1.663v2.771h-1.663V9.34z
	 M13.098,9.34h1.663v1.982l-1.663-1.618V9.34z M4.804,9.34h1.663v2.771H4.804V9.34z M6.498,16.238H4.835v-2.771h1.663V16.238z
	 M7.576,9.34h1.663v2.771H7.576V9.34z M9.269,16.238H7.606v-2.771h1.663V16.238z M10.409,9.34h0.566l1.096,0.969v1.802h-1.663V9.34z
	 M12.103,16.238h-1.663v-2.771h1.663V16.238z M13.098,11.217l1.012,0.895h-1.012V11.217z M14.792,16.238h-1.663v-2.771h1.663V16.238
	z M15.9,16.238v-2.543l1.663,1.47v1.073H15.9z M18.589,16.238v-0.166l0.188,0.166H18.589z M18.589,15.047v-1.581h1.663v2.771h-0.439
	L18.589,15.047z M23.024,16.238h-1.663v-2.771h1.663V16.238z"/>
<g>
</g>
<g>
</g>
<g>
</g>
<g>
</g>
<g>
</g>
<g>
</g>
<g>
</g>
<g>
</g>
<g>
</g>
<g>
</g>
<g>
</g>
<g>
</g>
<g>
</g>
<g>
</g>
<g>
</g>
</svg>
