<?xml version="1.0" encoding="iso-8859-1"?>
<!-- Generator: Adobe Illustrator 16.0.0, SVG Export Plug-In . SVG Version: 6.00 Build 0)  -->
<!DOCTYPE svg PUBLIC "-//W3C//DTD SVG 1.1//EN" "http://www.w3.org/Graphics/SVG/1.1/DTD/svg11.dtd">
<svg version="1.1" id="Layer_1" xmlns="http://www.w3.org/2000/svg" xmlns:xlink="http://www.w3.org/1999/xlink" x="0px" y="0px"
	 width="31.965px" height="29.563px" viewBox="0 0 31.965 29.563" style="enable-background:new 0 0 31.965 29.563;"
	 xml:space="preserve">
<path d="M10.973,10.402c0.839-0.779,0.959-0.12,2.038,0.899s4.796-0.569,4.796-0.569s1.139,0.569,1.438,1.469
	s-1.02,0.959-0.839,2.158c0.18,1.199,3.686,1.379,4.196,1.619s0,0.48,0,0.959s0.868,0.09,1.619,0.719c0.75,0.629,0,3.417,0,3.417
	s-0.12,0.66-0.299,1.619s0.328,0.629,0.299,1.738s-1.14,3.027-1.678,3.717c-0.539,0.69,0.748,1.379,1.678,1.379
	c0.93,0,1.259-1.829,1.739-2.039s2.757,0.33,2.878-0.42c0.12-0.749-1.469-1.738-1.319-2.218s3.596-1.858,3.896-2.698
	c0.3-0.84-0.6-2.519-0.36-2.998s0.779-0.479,0.899-1.559s-0.87-1.379-0.959-2.039c-0.089-0.659,0.839-1.378,0.359-2.397
	c-0.479-1.02-1.319-0.3-1.739-1.079c-0.419-0.78,0.72-0.78,0.84-1.919c0.12-1.139-1.139-1.918-1.139-1.918s1.228-2.398-0.42-4.017
	s-5.722,0.372-6.774-0.36c-1.052-0.731-2.549-4.226-5.516-3.836c-2.967,0.39-4.437,1.439-4.437,1.439S8.663,2.249,6.955,3.447
	C5.248,4.646,5.187,7.734,4.498,8.423C3.809,9.112,2.758,7.944,2.04,8.603c-0.719,0.66-0.211,2.218-0.3,2.998
	c-0.089,0.779-1.05,0.48-1.438,1.499c-0.389,1.019,0.78,2.488,0.78,3.177s-1.02,1.169-1.079,2.338s1.678,1.379,2.098,2.039
	c0.42,0.659-0.389,1.409-0.299,2.158c0.09,0.75,1.528,0.87,1.679,1.439c0.15,0.569-0.661,1.559-0.121,2.398
	c0.541,0.839,3.485-0.095,3.957,0.54c0.472,0.635,0.36,2.668,1.739,2.338c1.379-0.33,0.269-3.237,0.21-3.777
	S8.005,25.18,7.195,24.43c-0.809-0.75,0.659-1.678,1.259-2.278s-0.179-4.58,0.359-5.036c0.539-0.457,2.428-1.258,2.758-2.338
	S10.133,11.181,10.973,10.402z"/>
<g>
</g>
<g>
</g>
<g>
</g>
<g>
</g>
<g>
</g>
<g>
</g>
<g>
</g>
<g>
</g>
<g>
</g>
<g>
</g>
<g>
</g>
<g>
</g>
<g>
</g>
<g>
</g>
<g>
</g>
</svg>
