<?xml version="1.0" encoding="iso-8859-1"?>
<!-- Generator: Adobe Illustrator 16.0.0, SVG Export Plug-In . SVG Version: 6.00 Build 0)  -->
<!DOCTYPE svg PUBLIC "-//W3C//DTD SVG 1.1//EN" "http://www.w3.org/Graphics/SVG/1.1/DTD/svg11.dtd">
<svg version="1.1" id="Layer_1" xmlns="http://www.w3.org/2000/svg" xmlns:xlink="http://www.w3.org/1999/xlink" x="0px" y="0px"
	 width="25.897px" height="31.436px" viewBox="0 0 25.897 31.436" style="enable-background:new 0 0 25.897 31.436;"
	 xml:space="preserve">
<path d="M12.415,3.245l-4.002,8.393c0,0,2.152,3.723,2.389,5.81c0.236,2.087-1.549,3.55-1.549,3.55s1.528,1.162,1.743,2.389
	s-0.602,9.059-3.486,7.94c1.42-1.636,0-5.487,0-5.487s-0.215,3.163-1.614,3.099c0.538-0.925-0.452-3.034-0.452-3.034
	s-0.131,1.113-1.227,1.227C4.454,26.291,3.765,25,3.765,25s-1.463,2.582,0,4.519c-2.754,0.172-1.743-5.552-1.743-5.552
	s-0.496-1.205-2.001,0.969c-0.301-2.045,2.776-5.616,2.776-5.616s-1.054-0.302-2.001,1.42C0.451,19.448,2.99,13.38,2.99,13.38
	s-1.162,0.861-1.937,2.26C0.58,14.241,3.765,9.442,3.765,9.442s3.465-9.769,8.198-8.65c3.164-2.646,5.746,2.088,6.649,3.293
	c0.903,1.205,1.441,2.732,2.108,4.604c0.667,1.873,4.132,6.871,4.218,7.868c0.085,0.997-1.033,1.987-1.033,1.987
	s2.711-0.945,1.808,0.518c-3.4,2.107-7.02,0.127-7.294-2.505s-0.581-5.565-0.581-5.565L12.415,3.245z"/>
<g>
</g>
<g>
</g>
<g>
</g>
<g>
</g>
<g>
</g>
<g>
</g>
<g>
</g>
<g>
</g>
<g>
</g>
<g>
</g>
<g>
</g>
<g>
</g>
<g>
</g>
<g>
</g>
<g>
</g>
</svg>
