<?xml version="1.0" encoding="iso-8859-1"?>
<!-- Generator: Adobe Illustrator 16.0.0, SVG Export Plug-In . SVG Version: 6.00 Build 0)  -->
<!DOCTYPE svg PUBLIC "-//W3C//DTD SVG 1.1//EN" "http://www.w3.org/Graphics/SVG/1.1/DTD/svg11.dtd">
<svg version="1.1" id="Layer_1" xmlns="http://www.w3.org/2000/svg" xmlns:xlink="http://www.w3.org/1999/xlink" x="0px" y="0px"
	 width="29.958px" height="23.036px" viewBox="0 0 29.958 23.036" style="enable-background:new 0 0 29.958 23.036;"
	 xml:space="preserve">
<path d="M24.503,8.798l0.079-0.237l-0.107-0.044c-0.076-0.032-0.154-0.054-0.231-0.084c0.066-0.361,0.11-0.738,0.11-1.144
	c0-3.302-2.258-5.135-5.456-6.321l0.079-0.237L18.87,0.687c-2.103-0.879-4.448-0.921-6.613-0.083l-0.131,0.051l0.156,0.295
	C9.055,2.123,6.771,3.968,6.771,7.289c0,0.048,0.007,0.091,0.007,0.138C6.343,7.524,5.911,7.645,5.486,7.809L5.355,7.859
	l0.156,0.295C2.285,9.328,0,12.173,0,15.494c0,4.137,3.533,6.917,8.792,6.917c2.308,0,4.283-0.536,5.773-1.487
	c1.548,1.335,3.832,2.112,6.602,2.112c5.258,0,8.792-2.78,8.792-6.917C29.958,12.817,27.7,9.984,24.503,8.798z M7.521,7.289
	c0-3.031,2.125-4.622,5.116-5.668l0.131,0.248l0.102-0.036c1.839-0.654,3.799-0.588,5.554,0.143l0.125,0.052l0.116-0.35
	c2.899,1.084,4.94,2.638,4.94,5.611c0,0.321-0.03,0.616-0.074,0.9c-1.846-0.539-3.822-0.47-5.669,0.245L17.73,8.484l0.156,0.295
	c-0.947,0.344-1.798,0.846-2.549,1.448c-0.88-0.885-1.971-1.596-3.209-2.055l0.079-0.237L12.1,7.892
	c-1.457-0.609-3.03-0.806-4.579-0.598C7.521,7.292,7.521,7.291,7.521,7.289z M16.833,15.494c0,1.98-0.878,3.445-2.214,4.454
	c-0.924-0.96-1.495-2.228-1.495-3.829c0-1.067,0.275-2.074,0.748-2.984c0.542,0.045,1.103,0.071,1.69,0.071
	c0.283,0,0.558-0.008,0.831-0.018C16.671,13.913,16.833,14.686,16.833,15.494z M15.563,12.456c-0.419,0-0.838-0.013-1.253-0.036
	c0.28-0.41,0.591-0.8,0.955-1.15c0.305,0.37,0.579,0.76,0.801,1.179C15.897,12.451,15.73,12.456,15.563,12.456z M13.458,12.354
	c-2.74-0.28-5.138-1.227-5.771-3.694c1.347-0.179,2.708-0.003,3.965,0.52l0.125,0.052l0.116-0.35
	c1.105,0.413,2.083,1.042,2.873,1.824C14.251,11.199,13.82,11.757,13.458,12.354z M15.834,10.791
	c0.707-0.561,1.511-1.026,2.407-1.34l0.131,0.248l0.102-0.036c1.529-0.543,3.14-0.583,4.649-0.163
	c-1.018,2.05-3.537,2.762-6.255,2.918C16.593,11.836,16.249,11.291,15.834,10.791z M0.75,15.494c0-3.031,2.125-5.622,5.116-6.668
	l0.131,0.248l0.102-0.036c0.282-0.1,0.567-0.178,0.854-0.244c0.628,2.478,2.884,3.828,6.136,4.256
	c-0.446,0.947-0.713,1.978-0.713,3.069c0,1.671,0.584,3.115,1.618,4.249c-1.468,0.873-3.336,1.293-5.201,1.293
	C4.789,21.661,0.75,19.754,0.75,15.494z M21.167,22.286c-2.207,0-4.421-0.583-5.967-1.817c1.515-1.21,2.384-2.925,2.384-4.975
	c0-0.82-0.141-1.61-0.399-2.354c3.248-0.258,5.638-1.338,6.641-3.408c0.067,0.026,0.136,0.046,0.202,0.074l0.125,0.052l0.116-0.35
	c2.899,1.084,4.94,3.638,4.94,6.611C29.208,20.379,25.169,22.286,21.167,22.286z"/>
<g>
</g>
<g>
</g>
<g>
</g>
<g>
</g>
<g>
</g>
<g>
</g>
<g>
</g>
<g>
</g>
<g>
</g>
<g>
</g>
<g>
</g>
<g>
</g>
<g>
</g>
<g>
</g>
<g>
</g>
</svg>
