<?xml version="1.0" encoding="utf-8"?>
<!-- Generator: Adobe Illustrator 16.0.4, SVG Export Plug-In . SVG Version: 6.00 Build 0)  -->
<!DOCTYPE svg PUBLIC "-//W3C//DTD SVG 1.1//EN" "http://www.w3.org/Graphics/SVG/1.1/DTD/svg11.dtd">
<svg version="1.1" id="Layer_1" xmlns="http://www.w3.org/2000/svg" xmlns:xlink="http://www.w3.org/1999/xlink" x="0px" y="0px"
	 width="23.832px" height="31.664px" viewBox="0 0 23.832 31.664" enable-background="new 0 0 23.832 31.664" xml:space="preserve">
<path d="M23.637,14.777c-0.005-0.014-0.014-0.025-0.02-0.039c-0.059-0.127-0.125-0.249-0.203-0.363
	c-0.02-0.029-0.044-0.055-0.066-0.083c-0.068-0.093-0.142-0.183-0.225-0.266c-0.038-0.038-0.082-0.071-0.123-0.107
	c-0.073-0.063-0.145-0.125-0.225-0.18c-0.058-0.04-0.119-0.073-0.182-0.109c-0.07-0.041-0.14-0.08-0.214-0.113
	c-0.075-0.034-0.151-0.061-0.229-0.087c-0.069-0.023-0.139-0.046-0.211-0.064c-0.084-0.021-0.168-0.034-0.256-0.046
	c-0.043-0.005-0.082-0.019-0.127-0.023V4.618h-3.361C17.459,1.962,14.963,0,11.997,0C9.03,0,6.534,1.962,5.8,4.618H2.291v8.917
	c-0.045,0.003-0.088,0.018-0.133,0.023C2.07,13.57,1.984,13.583,1.9,13.604c-0.073,0.017-0.142,0.04-0.211,0.063
	c-0.078,0.026-0.156,0.052-0.231,0.085c-0.075,0.034-0.145,0.074-0.216,0.115c-0.062,0.035-0.124,0.068-0.181,0.108
	c-0.081,0.056-0.154,0.118-0.227,0.182c-0.041,0.036-0.083,0.068-0.121,0.105c-0.084,0.084-0.159,0.176-0.229,0.27
	c-0.02,0.027-0.043,0.051-0.062,0.078c-0.081,0.117-0.149,0.241-0.208,0.372c-0.004,0.011-0.011,0.021-0.017,0.031
	C0.071,15.301,0,15.614,0,15.946c0,0.002,0,0.003,0,0.005c0,0.001,0,0.003,0,0.005c0,0.331,0.071,0.644,0.195,0.93
	c0.006,0.014,0.014,0.025,0.021,0.039c0.058,0.127,0.124,0.25,0.203,0.363c0.02,0.029,0.044,0.055,0.065,0.082
	c0.07,0.094,0.143,0.184,0.225,0.267c0.039,0.038,0.082,0.071,0.123,0.106c0.072,0.063,0.145,0.125,0.224,0.18
	c0.058,0.041,0.121,0.074,0.182,0.109c0.07,0.041,0.14,0.08,0.214,0.113c0.075,0.034,0.152,0.061,0.23,0.087
	c0.07,0.022,0.14,0.046,0.212,0.063c0.083,0.021,0.168,0.035,0.255,0.047c0.043,0.006,0.084,0.019,0.127,0.023v8.678h3.363
	c0.734,2.656,3.23,4.619,6.197,4.619c2.966,0,5.462-1.963,6.197-4.619h3.51v-8.916c0.046-0.004,0.088-0.018,0.133-0.023
	c0.088-0.012,0.174-0.025,0.258-0.045c0.072-0.018,0.142-0.041,0.211-0.064c0.08-0.025,0.156-0.052,0.231-0.084
	c0.075-0.035,0.144-0.074,0.215-0.115c0.062-0.034,0.124-0.067,0.183-0.107c0.08-0.057,0.153-0.119,0.227-0.182
	c0.041-0.036,0.083-0.068,0.121-0.106c0.084-0.084,0.158-0.176,0.229-0.271c0.021-0.026,0.043-0.051,0.062-0.078
	c0.081-0.117,0.148-0.241,0.208-0.371c0.005-0.012,0.012-0.021,0.017-0.032c0.125-0.287,0.195-0.6,0.195-0.931
	c0-0.001,0-0.003,0-0.005c0-0.003,0-0.005,0-0.006C23.832,15.376,23.762,15.063,23.637,14.777z M21.333,17.255
	c-0.235,0-0.458-0.051-0.661-0.139v0.012v0.455h-0.013v8.58h-3.271l-0.141,0.416h-0.005c-0.007,0.03-0.019,0.06-0.024,0.088
	l-0.127,0.377h0.021c-0.709,2.164-2.805,3.735-5.278,3.735c-2.473,0-4.569-1.573-5.278-3.735l-0.004-0.01
	c-0.048-0.148-0.091-0.301-0.126-0.455H6.36l-0.177-0.416H3.159v-7.873H3.16v-0.01v-0.914v-0.01
	c-0.202,0.087-0.425,0.139-0.661,0.139c-0.89,0-1.614-0.692-1.617-1.544c0.003-0.852,0.727-1.544,1.617-1.544
	c0.236,0,0.458,0.051,0.661,0.139v-0.01V14.08h0.013V5.5h3.27l0.14-0.417h0.006c0.007-0.03,0.017-0.059,0.024-0.088L6.74,4.618
	H6.719c0.708-2.162,2.805-3.735,5.278-3.735c2.474,0,4.569,1.573,5.278,3.735l0.004,0.01c0.049,0.149,0.092,0.301,0.125,0.455h0.068
	L17.648,5.5h3.024v7.872c0,0-0.001,0-0.002,0v0.011v0.913v0.011c0.202-0.087,0.425-0.139,0.661-0.139
	c0.891,0,1.613,0.692,1.617,1.544C22.945,16.564,22.223,17.255,21.333,17.255z M15.404,7.052l0.533,0.248L7.619,25.236l-0.534-0.248
	L15.404,7.052z M9.02,15.873l-0.534-0.247l3.833-8.264l0.533,0.247L9.02,15.873z M13.623,16.021l0.534,0.248l-3.839,8.26
	l-0.534-0.248L13.623,16.021z"/>
</svg>
