<?xml version="1.0" encoding="iso-8859-1"?>
<!-- Generator: Adobe Illustrator 16.0.0, SVG Export Plug-In . SVG Version: 6.00 Build 0)  -->
<!DOCTYPE svg PUBLIC "-//W3C//DTD SVG 1.1//EN" "http://www.w3.org/Graphics/SVG/1.1/DTD/svg11.dtd">
<svg version="1.1" id="Layer_1" xmlns="http://www.w3.org/2000/svg" xmlns:xlink="http://www.w3.org/1999/xlink" x="0px" y="0px"
	 width="29.344px" height="31.295px" viewBox="0 0 29.344 31.295" style="enable-background:new 0 0 29.344 31.295;"
	 xml:space="preserve">
<g>
	<path d="M9.7,15.007l-2.612-0.198l0.459,0.31c0,0,0.655,0.148,1.635,0.369c-0.083,0.091-0.156,0.18-0.204,0.265
		c-0.013,0.022-0.026,0.06-0.04,0.107h1.897c0.395,0.089,0.8,0.18,1.223,0.274c0.579-0.091,1.173-0.184,1.759-0.274h0.171
		c0.001-0.009,0.002-0.019,0.003-0.027c0.759-0.117,1.5-0.231,2.169-0.333l-2.108-0.16c0.513-4.081,1.617-12.578-1.88-14.013
		C11.017,0.863,8.184-0.524,5.68,0.21C0.55,1.613,0.183,8.739,0.183,8.739S-0.395,20.057,0.505,23.05s4.748,8.245,4.748,8.245
		s0.511-14.667,0.061-15.543c-2.992-1.618-3.481-6.779-3.481-6.779s3.359-0.266,5.436-0.117s5.437-0.116,5.437-0.116
		s0.221,1.853-0.531,3.563C11.642,13.51,10.487,14.348,9.7,15.007z"/>
	<path d="M26.157,17.253c-0.005,0-0.009,0-0.014,0c0.008-0.005,0.015-0.009,0.015-0.009l-7.415-0.559l-0.747,0.758
		c0.491,0.104,0.812,0.168,0.881,0.174c2.847,0.639,4.586,3.133,4.635,3.204c0.438,0.822,1.355,1.412,2.439,1.457
		c1.551,0.063,2.86-1.012,2.917-2.397C28.924,18.496,27.708,17.316,26.157,17.253z M25.983,21.465
		c-1.103-0.046-1.968-0.845-1.929-1.781s0.967-1.662,2.069-1.616c1.102,0.046,1.968,0.844,1.93,1.78
		C28.015,20.784,27.086,21.51,25.983,21.465z"/>
	<path d="M26.277,16.342c0.049,0.005,0.098,0.012,0.148,0.013c1.551,0.063,2.859-1.011,2.917-2.396
		c0.057-1.386-1.159-2.564-2.711-2.628c-1.106-0.046-2.087,0.489-2.58,1.303c-0.139,0.165-2.031,2.368-4.853,2.762
		c-0.448,0-11.512,1.757-11.512,1.757L7.238,17.43l10.358-0.072l1.035-1.048L26.277,16.342z M26.598,12.144
		c1.102,0.045,1.968,0.845,1.929,1.781s-0.967,1.661-2.069,1.616c-1.103-0.046-1.968-0.845-1.93-1.78
		C24.567,12.824,25.495,12.099,26.598,12.144z M17.227,16.895c-0.237-0.01-0.421-0.21-0.412-0.447c0.01-0.236,0.21-0.421,0.447-0.41
		c0.237,0.009,0.421,0.209,0.412,0.445C17.664,16.72,17.463,16.904,17.227,16.895z"/>
</g>
<g>
</g>
<g>
</g>
<g>
</g>
<g>
</g>
<g>
</g>
<g>
</g>
<g>
</g>
<g>
</g>
<g>
</g>
<g>
</g>
<g>
</g>
<g>
</g>
<g>
</g>
<g>
</g>
<g>
</g>
</svg>
