<?xml version="1.0" encoding="iso-8859-1"?>
<!-- Generator: Adobe Illustrator 16.0.0, SVG Export Plug-In . SVG Version: 6.00 Build 0)  -->
<!DOCTYPE svg PUBLIC "-//W3C//DTD SVG 1.1//EN" "http://www.w3.org/Graphics/SVG/1.1/DTD/svg11.dtd">
<svg version="1.1" id="Layer_1" xmlns="http://www.w3.org/2000/svg" xmlns:xlink="http://www.w3.org/1999/xlink" x="0px" y="0px"
	 width="22.228px" height="29.583px" viewBox="0 0 22.228 29.583" style="enable-background:new 0 0 22.228 29.583;"
	 xml:space="preserve">
<path d="M1.949,10.772c0.012,0.045,0.022,0.092,0.032,0.139c-0.252,0.052-0.648,0.052-0.964-0.396
	c-0.134,0.644,0.614,0.739,1.021,0.746c0.044,0.429-0.01,0.893-0.302,1.331c-0.612,0.92-1.296,1.341-1.517,1.957
	c-0.314,0.86,1.337,1.011,1.337,1.011l0.004,0.326c0,0-0.53,0.514-0.417,0.915c0.15,0.535,1.215,0.345,1.215,0.345
	s-1.022,0.378-0.974,0.875c0.048,0.497,0.475,0.714,0.475,0.714s-0.99,1.945,0.466,2.373s4.409-1.349,4.794,0.728
	c0.372,1.432,2.029,4.948,1.456,5.607C8,28.102,7.119,29.112,7.119,29.112l15.108,0.471c0,0-6.288-6.429-6.758-7.113
	c-0.202-0.294-0.783-1.086-1.245-2.043c1.603-0.116,1.478-4.121,1.478-4.121s0.899,2.141,0.514,3.853
	c0.984-0.3,3.167-5.094,1.84-10.529c-0.599-1.755-0.401-6.805-8.961-9.244c-11.128-2.44-8.917,7.528-8.917,7.528L1.22,8.004
	C1.351,9.101,1.779,10.336,1.949,10.772z M14.225,20.427c-0.343-0.711-0.621-1.512-0.628-2.268l0.351-0.313
	C13.948,17.847,14.975,18.617,14.225,20.427z"/>
<g>
</g>
<g>
</g>
<g>
</g>
<g>
</g>
<g>
</g>
<g>
</g>
<g>
</g>
<g>
</g>
<g>
</g>
<g>
</g>
<g>
</g>
<g>
</g>
<g>
</g>
<g>
</g>
<g>
</g>
</svg>
