<?xml version="1.0" encoding="iso-8859-1"?>
<!-- Generator: Adobe Illustrator 16.0.0, SVG Export Plug-In . SVG Version: 6.00 Build 0)  -->
<!DOCTYPE svg PUBLIC "-//W3C//DTD SVG 1.1//EN" "http://www.w3.org/Graphics/SVG/1.1/DTD/svg11.dtd">
<svg version="1.1" id="Layer_1" xmlns="http://www.w3.org/2000/svg" xmlns:xlink="http://www.w3.org/1999/xlink" x="0px" y="0px"
	 width="22.13px" height="31.723px" viewBox="0 0 22.13 31.723" style="enable-background:new 0 0 22.13 31.723;"
	 xml:space="preserve">
<path d="M13.765,31.291c2.612-2.332,9.456-5.979,8.216-15.07c-0.302-3.199-0.968-4.933-1.599-7.16
	C19.221,4.964,13.349-2.296,6.726,0.709C0.103,3.713-2.942,20.122,3.761,21.402c0.899,0.131,2.913-3.21,3.138-4.303
	c0.225-1.092,1.353-0.255,2.445-2.531s0.107-4.219,0.836-5.703c0.729-1.485,1.041-2.597,3.225-2.278
	c1.457,0.364,1.054,2.337,1.353,3.43c0.298,1.093,2.613,2.321,2.557,3.124c-0.057,0.801-1.03,0.586-1.007,1.45
	c0,0.353,0.498,0.606,0.515,1.016c0.017,0.41-0.55,0.726-0.55,0.726s0.504,0.316,0.37,0.776c-0.133,0.461-0.76,0.425-0.998,0.555
	c-0.112,0.061,0.896,1.622,0.207,2.47c-0.842,0.99-5.05-0.053-5.861,0.262c-1.524,0.592-2.785,2.647-1.946,3.619
	c0.84,0.972,4.496,1.07,4.49,6.714C12.535,31.912,13.017,31.958,13.765,31.291"/>
<g>
</g>
<g>
</g>
<g>
</g>
<g>
</g>
<g>
</g>
<g>
</g>
<g>
</g>
<g>
</g>
<g>
</g>
<g>
</g>
<g>
</g>
<g>
</g>
<g>
</g>
<g>
</g>
<g>
</g>
</svg>
