<?xml version="1.0" encoding="iso-8859-1"?>
<!-- Generator: Adobe Illustrator 16.0.0, SVG Export Plug-In . SVG Version: 6.00 Build 0)  -->
<!DOCTYPE svg PUBLIC "-//W3C//DTD SVG 1.1//EN" "http://www.w3.org/Graphics/SVG/1.1/DTD/svg11.dtd">
<svg version="1.1" id="Layer_1" xmlns="http://www.w3.org/2000/svg" xmlns:xlink="http://www.w3.org/1999/xlink" x="0px" y="0px"
	 width="19.59px" height="31.978px" viewBox="0 0 19.59 31.978" style="enable-background:new 0 0 19.59 31.978;"
	 xml:space="preserve">
<g>
	<path d="M0.932,8.443c0,0,0.033-0.18,0.088-0.494c0.057-0.312,0.147-0.748,0.274-1.254C1.358,6.443,1.439,6.175,1.53,5.898
		c0.09-0.277,0.198-0.562,0.323-0.845C1.976,4.77,2.124,4.491,2.284,4.221c0.074-0.146,0.17-0.244,0.248-0.375
		c0.069-0.119,0.216-0.27,0.32-0.404l0.042-0.053l0.018-0.022l0.002-0.003l0.09-0.088L3.181,3.1c0.119-0.117,0.23-0.24,0.346-0.358
		c0.237-0.23,0.495-0.435,0.727-0.653c0.251-0.202,0.494-0.396,0.724-0.581c0.241-0.179,0.469-0.349,0.679-0.504
		C5.875,0.857,6.075,0.719,6.252,0.59c0.183-0.115,0.341-0.225,0.472-0.314C6.988,0.104,7.145,0,7.145,0S6.961,0.002,6.639,0.05
		c-0.32,0.052-0.773,0.149-1.299,0.333C5.082,0.485,4.796,0.589,4.505,0.726C4.223,0.877,3.917,1.027,3.621,1.217
		C3.333,1.42,3.023,1.619,2.739,1.863C2.602,1.99,2.461,2.116,2.325,2.249L2.12,2.447l-0.103,0.1L2.01,2.553L2.007,2.557
		L1.982,2.584l-0.01,0.012L1.95,2.622L1.907,2.674C1.794,2.823,1.688,2.932,1.57,3.116C1.46,3.289,1.333,3.471,1.254,3.643
		c-0.182,0.344-0.319,0.7-0.419,1.049c-0.201,0.699-0.258,1.367-0.237,1.93C0.61,7.184,0.698,7.644,0.777,7.957
		C0.856,8.273,0.932,8.443,0.932,8.443z"/>
	<path d="M19.565,9.609c-0.022-0.316-0.065-0.627-0.121-0.934c-0.063-0.301-0.138-0.638-0.223-0.906l-0.126-0.412l-0.157-0.436
		c-0.097-0.279-0.22-0.549-0.332-0.818c-0.472-1.072-1.097-2.041-1.823-2.842c-0.72-0.809-1.553-1.428-2.377-1.867
		c-0.825-0.447-1.644-0.707-2.375-0.863c-0.732-0.16-1.38-0.208-1.91-0.22C9.59,0.297,9.175,0.334,8.893,0.358
		c-0.28,0.03-0.429,0.047-0.429,0.047s0.149,0.007,0.431,0.019c0.28,0.016,0.691,0.054,1.205,0.129
		c0.514,0.075,1.13,0.207,1.811,0.426c0.678,0.224,1.414,0.551,2.142,1.016c0.723,0.471,1.427,1.092,2.041,1.855
		c0.615,0.764,1.119,1.678,1.528,2.672c0.094,0.253,0.198,0.504,0.278,0.767l0.123,0.377l0.112,0.418
		c0.079,0.286,0.115,0.522,0.165,0.794c0.043,0.271,0.079,0.541,0.094,0.814c0.07,1.09-0.117,2.194-0.549,3.23
		c-0.412,1.045-1.03,2.031-1.69,2.984c-0.63,0.898-1.273,1.795-1.868,2.703c0.165-0.551,0.306-1.107,0.418-1.674
		c0.21-1.094,0.303-2.217,0.246-3.352c-0.056-1.133-0.277-2.297-0.825-3.369c-0.065-0.135-0.139-0.267-0.22-0.396
		c-0.071-0.128-0.164-0.261-0.261-0.395c-0.098-0.145-0.18-0.236-0.266-0.339L13.315,9.01L13.28,8.969l-0.018-0.02L13.226,8.91
		l-0.148-0.156c-0.395-0.416-0.83-0.775-1.267-1.107C10.936,6.98,10.04,6.416,9.264,5.78C8.876,5.461,8.532,5.111,8.26,4.713
		C7.978,4.322,7.786,3.871,7.68,3.388c-0.104-0.484-0.133-1-0.092-1.52c0.005-0.067,0.017-0.134,0.024-0.202
		c0.045-0.197,0.09-0.395,0.125-0.594C7.778,0.814,7.803,0.561,7.83,0.304C7.815,0.336,7.802,0.367,7.786,0.4l0,0
		C7.802,0.368,7.814,0.336,7.83,0.304C7.798,0.347,7.77,0.395,7.738,0.438c-0.06,0.049-0.15,0.128-0.268,0.254
		c-0.207,0.223-0.486,0.582-0.738,1.1C6.49,2.281,6.254,2.914,6.144,3.679C5.729,4.304,5.273,4.899,4.798,5.484
		c-0.64,0.774-1.303,1.539-1.965,2.338C2.51,8.229,2.192,8.646,1.893,9.089C1.6,9.529,1.316,9.99,1.096,10.493l-0.297,0.579
		l-0.282,0.639c-0.166,0.438-0.321,0.885-0.401,1.357c-0.05,0.233-0.08,0.472-0.098,0.713c-0.023,0.24-0.021,0.485-0.011,0.729
		l0.029,0.365l0.067,0.362c0.057,0.238,0.122,0.477,0.218,0.702c0.084,0.229,0.199,0.447,0.324,0.654
		c0.121,0.211,0.268,0.402,0.423,0.584c0.313,0.361,0.669,0.672,1.055,0.928c0.773,0.502,1.63,0.838,2.512,0.965
		c-0.406-0.179-0.786-0.399-1.149-0.632c-0.359-0.241-0.704-0.495-1.006-0.786c-0.304-0.289-0.579-0.6-0.794-0.94
		c-0.107-0.171-0.203-0.346-0.286-0.524c-0.083-0.179-0.156-0.361-0.204-0.551c-0.058-0.186-0.087-0.379-0.113-0.57
		c-0.022-0.193-0.03-0.387-0.029-0.582c0.005-0.195,0.015-0.392,0.047-0.588c0.027-0.195,0.064-0.391,0.118-0.585
		c0.039-0.194,0.12-0.385,0.175-0.579c0.063-0.191,0.145-0.381,0.215-0.572l0.262-0.563l0.297-0.551l0.011-0.02L2.193,11
		c0.204-0.422,0.432-0.843,0.699-1.251c0.265-0.41,0.557-0.812,0.861-1.21c0.594-0.812,1.244-1.611,1.822-2.477
		c0.189-0.281,0.373-0.569,0.55-0.861C6.187,5.646,6.31,6.105,6.537,6.561c0.236,0.48,0.577,0.943,1.004,1.337
		C7.649,7.993,7.763,8.086,7.877,8.18c0.119,0.084,0.24,0.172,0.364,0.252c0.092,0.055,0.188,0.111,0.281,0.166
		c0.042,0.033,0.082,0.071,0.124,0.104c0.181,0.146,0.377,0.26,0.566,0.389l0.287,0.164c0.605,0.496,1.153,1.137,1.579,1.857
		c0.08,0.135,0.146,0.28,0.217,0.422c0.034,0.088,0.07,0.176,0.103,0.265c0.092,0.315,0.176,0.634,0.209,0.966
		c0.087,0.659,0.044,1.346-0.072,2.025c-0.123,0.68-0.301,1.362-0.542,2.031c-0.149,0.42-0.325,0.834-0.511,1.243
		c-0.166,0.153-0.345,0.308-0.538,0.462c-0.398,0.313-0.844,0.635-1.33,0.966c-0.496,0.327-1.018,0.671-1.56,1.026
		c-0.545,0.359-1.114,0.738-1.669,1.172c-0.556,0.43-1.118,0.895-1.618,1.438c-0.506,0.535-0.951,1.15-1.287,1.815
		c-0.345,0.653-0.563,1.493-0.432,2.267c0.124,0.784,0.553,1.418,1.002,1.885c0.456,0.475,0.965,0.798,1.435,1.066
		c0.472,0.27,0.93,0.452,1.334,0.605c0.143,0.055,0.278,0.1,0.41,0.142c0.143,0.116,0.291,0.225,0.443,0.319
		c0.753,0.451,1.575,0.668,2.386,0.732c1.619,0.112,3.243-0.291,4.552-1.191c0.654-0.447,1.214-1.028,1.609-1.7
		c0.346-0.571,0.546-1.21,0.642-1.851c0.145-0.215,0.264-0.402,0.355-0.547c0.154-0.26,0.236-0.398,0.236-0.398
		s-0.064,0.07-0.185,0.203c0.069-0.145,0.133-0.291,0.185-0.441c-0.014,0.021-0.029,0.041-0.042,0.063
		c0.002-0.008,0.006-0.018,0.008-0.023c0.022-0.069,0.034-0.104,0.034-0.104s-0.017,0.033-0.05,0.099
		c-0.028,0.06-0.075,0.146-0.144,0.248c-0.072,0.098-0.147,0.191-0.226,0.282c-0.163,0.173-0.383,0.349-0.689,0.458
		c-0.455,0.166-1.102,0.102-1.595-0.336c-0.504-0.42-0.788-1.168-0.807-1.992c-0.01-0.414,0.042-0.852,0.145-1.295
		c0.053-0.225,0.115-0.444,0.184-0.664c0.033-0.11,0.083-0.234,0.123-0.352l0.062-0.168l0.071-0.17
		c0.373-0.913,0.925-1.809,1.545-2.715c0.623-0.908,1.353-1.803,2.043-2.781c0.691-0.976,1.375-2.023,1.859-3.207
		C19.453,12.193,19.665,10.873,19.565,9.609z M12.209,9.886l0.005,0.006C12.224,9.903,12.217,9.895,12.209,9.886z M7.778,0.42
		C7.639,0.725,7.51,1.037,7.405,1.359C7.386,1.403,7.368,1.447,7.348,1.49c0.001-0.002,0.001-0.003,0.001-0.004
		C7.466,1.123,7.61,0.768,7.778,0.42L7.778,0.42z"/>
</g>
<g>
</g>
<g>
</g>
<g>
</g>
<g>
</g>
<g>
</g>
<g>
</g>
<g>
</g>
<g>
</g>
<g>
</g>
<g>
</g>
<g>
</g>
<g>
</g>
<g>
</g>
<g>
</g>
<g>
</g>
</svg>
