<?xml version="1.0" encoding="iso-8859-1"?>
<!-- Generator: Adobe Illustrator 16.0.0, SVG Export Plug-In . SVG Version: 6.00 Build 0)  -->
<!DOCTYPE svg PUBLIC "-//W3C//DTD SVG 1.1//EN" "http://www.w3.org/Graphics/SVG/1.1/DTD/svg11.dtd">
<svg version="1.1" id="Layer_1" xmlns="http://www.w3.org/2000/svg" xmlns:xlink="http://www.w3.org/1999/xlink" x="0px" y="0px"
	 width="14.629px" height="31.662px" viewBox="0 0 14.629 31.662" style="enable-background:new 0 0 14.629 31.662;"
	 xml:space="preserve">
<path d="M5.679,0.211C0.549,1.614,0.183,8.74,0.183,8.74s-0.578,11.317,0.322,14.311s4.748,8.245,4.748,8.245
	s0.511-14.667,0.061-15.543c-2.992-1.618-3.481-6.779-3.481-6.779s3.359-0.266,5.436-0.117s5.437-0.116,5.437-0.116
	s0.221,1.853-0.531,3.563s-2.769,2.687-3.195,3.45C8.55,16.517,7.612,31.662,7.612,31.662s5.152-2.32,6.313-15.269
	c0.387-3.438,2.077-13.496-1.751-15.066C11.017,0.864,8.183-0.523,5.679,0.211z"/>
<g>
</g>
<g>
</g>
<g>
</g>
<g>
</g>
<g>
</g>
<g>
</g>
<g>
</g>
<g>
</g>
<g>
</g>
<g>
</g>
<g>
</g>
<g>
</g>
<g>
</g>
<g>
</g>
<g>
</g>
</svg>
