<?xml version="1.0" encoding="iso-8859-1"?>
<!-- Generator: Adobe Illustrator 16.0.0, SVG Export Plug-In . SVG Version: 6.00 Build 0)  -->
<!DOCTYPE svg PUBLIC "-//W3C//DTD SVG 1.1//EN" "http://www.w3.org/Graphics/SVG/1.1/DTD/svg11.dtd">
<svg version="1.1" id="Layer_1" xmlns="http://www.w3.org/2000/svg" xmlns:xlink="http://www.w3.org/1999/xlink" x="0px" y="0px"
	 width="23.167px" height="31.592px" viewBox="0 0 23.167 31.592" style="enable-background:new 0 0 23.167 31.592;"
	 xml:space="preserve">
<path d="M2.148,9.928h-1.93c0,0-2.58-12.38,10.004-9.491c12.582,2.889,8.924,20.095,6.997,20.865c0.128-1.541,0-3.66,0-3.66
	s-0.386,3.917-1.733,4.045c-0.342,0.033-0.575-0.088-0.734-0.285c0.43,1.387,1.385,2.683,1.657,3.078
	c0.47,0.685,6.758,7.112,6.758,7.112l-15.108-0.47c0,0,0.881-1.011,1.455-1.669c0.574-0.659-1.083-4.176-1.455-5.607
	c-0.385-2.076-3.338-0.3-4.794-0.728s-0.466-2.373-0.466-2.373s-0.428-0.216-0.476-0.714c-0.048-0.497,0.974-0.874,0.974-0.874
	s-1.064,0.189-1.215-0.347C1.97,18.41,2.5,17.896,2.5,17.896L2.496,17.57c0,0-1.652-0.15-1.338-1.011
	c0.221-0.616,0.904-1.037,1.518-1.957c0.291-0.438,0.346-0.903,0.302-1.331c-0.408-0.007-1.155-0.103-1.021-0.746
	c0.316,0.447,0.712,0.447,0.964,0.396c-0.01-0.047-0.02-0.094-0.031-0.14C2.714,12.336,2.266,11.045,2.148,9.928z"/>
<g>
</g>
<g>
</g>
<g>
</g>
<g>
</g>
<g>
</g>
<g>
</g>
<g>
</g>
<g>
</g>
<g>
</g>
<g>
</g>
<g>
</g>
<g>
</g>
<g>
</g>
<g>
</g>
<g>
</g>
</svg>
