<?xml version="1.0" encoding="iso-8859-1"?>
<!-- Generator: Adobe Illustrator 16.0.0, SVG Export Plug-In . SVG Version: 6.00 Build 0)  -->
<!DOCTYPE svg PUBLIC "-//W3C//DTD SVG 1.1//EN" "http://www.w3.org/Graphics/SVG/1.1/DTD/svg11.dtd">
<svg version="1.1" id="Layer_1" xmlns="http://www.w3.org/2000/svg" xmlns:xlink="http://www.w3.org/1999/xlink" x="0px" y="0px"
	 width="19.589px" height="31.978px" viewBox="0 0 19.589 31.978" style="enable-background:new 0 0 19.589 31.978;"
	 xml:space="preserve">
<g>
	<path d="M0.932,8.444c0,0,0.033-0.18,0.088-0.495c0.057-0.311,0.147-0.748,0.274-1.253C1.358,6.443,1.439,6.176,1.53,5.898
		c0.09-0.276,0.198-0.561,0.323-0.844c0.123-0.284,0.271-0.563,0.431-0.834c0.074-0.146,0.17-0.244,0.248-0.374
		c0.069-0.12,0.216-0.271,0.32-0.404L2.894,3.39l0.018-0.022l0.002-0.004l0.09-0.088L3.181,3.1c0.119-0.117,0.23-0.24,0.346-0.357
		c0.237-0.23,0.495-0.435,0.727-0.654c0.251-0.201,0.494-0.396,0.724-0.58c0.241-0.18,0.469-0.349,0.679-0.504
		C5.875,0.858,6.075,0.719,6.252,0.59c0.183-0.114,0.341-0.225,0.472-0.314C6.988,0.105,7.145,0,7.145,0S6.961,0.002,6.639,0.051
		C6.319,0.102,5.866,0.2,5.339,0.384C5.082,0.486,4.796,0.59,4.505,0.727c-0.282,0.15-0.588,0.301-0.885,0.49
		C3.333,1.421,3.023,1.619,2.739,1.863C2.602,1.99,2.461,2.117,2.325,2.25L2.12,2.447l-0.103,0.1L2.01,2.554L2.007,2.557
		L1.982,2.584l-0.01,0.013L1.95,2.623L1.907,2.674c-0.113,0.15-0.22,0.258-0.337,0.443C1.46,3.289,1.333,3.471,1.254,3.644
		c-0.182,0.344-0.319,0.7-0.419,1.049C0.635,5.391,0.578,6.059,0.599,6.621C0.61,7.184,0.698,7.645,0.777,7.958
		C0.856,8.273,0.932,8.444,0.932,8.444z"/>
	<path d="M19.565,9.609c-0.022-0.316-0.065-0.627-0.121-0.934c-0.063-0.301-0.138-0.637-0.223-0.905l-0.126-0.413l-0.157-0.436
		c-0.097-0.279-0.22-0.549-0.332-0.818c-0.472-1.071-1.097-2.041-1.823-2.842c-0.72-0.809-1.553-1.428-2.377-1.867
		c-0.825-0.446-1.644-0.707-2.375-0.863c-0.732-0.16-1.38-0.207-1.91-0.219C9.59,0.297,9.175,0.334,8.893,0.359
		c-0.28,0.029-0.429,0.047-0.429,0.047s0.149,0.006,0.431,0.018c0.28,0.016,0.691,0.055,1.205,0.129
		c0.514,0.076,1.13,0.208,1.811,0.427c0.678,0.224,1.414,0.55,2.142,1.016c0.723,0.47,1.427,1.091,2.041,1.854
		c0.615,0.764,1.119,1.678,1.528,2.673c0.094,0.253,0.198,0.503,0.278,0.767l0.123,0.377l0.112,0.418
		c0.079,0.285,0.115,0.521,0.165,0.794c0.043,0.271,0.079,0.54,0.094,0.813c0.07,1.091-0.117,2.195-0.549,3.231
		c-0.412,1.045-1.03,2.03-1.69,2.984c-0.63,0.897-1.273,1.794-1.868,2.703c0.165-0.551,0.306-1.108,0.418-1.675
		c0.21-1.094,0.303-2.216,0.246-3.352c-0.056-1.133-0.277-2.296-0.825-3.369c-0.065-0.135-0.139-0.266-0.22-0.395
		c-0.071-0.128-0.164-0.262-0.261-0.395c-0.098-0.145-0.18-0.236-0.266-0.339L13.315,9.01L13.28,8.969l-0.018-0.02L13.226,8.91
		l-0.148-0.156c-0.395-0.415-0.83-0.775-1.267-1.107C10.936,6.98,10.04,6.417,9.264,5.781c-0.388-0.32-0.732-0.67-1.004-1.068
		C7.978,4.322,7.786,3.872,7.68,3.389c-0.104-0.484-0.133-1-0.092-1.52c0.005-0.067,0.017-0.135,0.024-0.202
		c0.045-0.197,0.09-0.396,0.125-0.595C7.778,0.814,7.803,0.561,7.83,0.305C7.815,0.336,7.802,0.368,7.786,0.4l0,0
		C7.802,0.369,7.814,0.336,7.83,0.305c-0.032,0.043-0.06,0.09-0.092,0.134c-0.06,0.048-0.15,0.128-0.268,0.253
		C7.264,0.914,6.984,1.273,6.732,1.792C6.49,2.282,6.254,2.914,6.144,3.68C5.729,4.305,5.273,4.9,4.798,5.484
		C4.158,6.26,3.495,7.023,2.833,7.822C2.51,8.229,2.192,8.646,1.893,9.09C1.6,9.529,1.316,9.99,1.096,10.494l-0.297,0.578
		l-0.282,0.639c-0.166,0.438-0.321,0.885-0.401,1.357c-0.05,0.234-0.08,0.473-0.098,0.714c-0.023,0.239-0.021,0.485-0.011,0.728
		l0.029,0.365l0.067,0.363c0.057,0.238,0.122,0.477,0.218,0.701c0.084,0.229,0.199,0.447,0.324,0.654
		c0.121,0.211,0.268,0.403,0.423,0.584c0.313,0.361,0.669,0.672,1.055,0.928c0.773,0.503,1.63,0.839,2.512,0.965
		c-0.406-0.178-0.786-0.398-1.149-0.631c-0.359-0.241-0.704-0.495-1.006-0.787c-0.304-0.289-0.579-0.599-0.794-0.939
		c-0.107-0.171-0.203-0.346-0.286-0.525c-0.083-0.178-0.156-0.361-0.204-0.55c-0.058-0.187-0.087-0.38-0.113-0.571
		c-0.022-0.193-0.03-0.387-0.029-0.582c0.005-0.195,0.015-0.391,0.047-0.588c0.027-0.195,0.064-0.391,0.118-0.584
		c0.039-0.195,0.12-0.385,0.175-0.579c0.063-0.192,0.145-0.382,0.215-0.573l0.262-0.562l0.297-0.551l0.011-0.02l0.013-0.027
		c0.204-0.423,0.432-0.843,0.699-1.251c0.265-0.41,0.557-0.812,0.861-1.211c0.594-0.811,1.244-1.61,1.822-2.476
		c0.189-0.282,0.373-0.569,0.55-0.862C6.187,5.646,6.31,6.106,6.537,6.561c0.236,0.481,0.577,0.943,1.004,1.338
		C7.649,7.994,7.763,8.087,7.877,8.18c0.119,0.085,0.24,0.172,0.364,0.252c0.092,0.055,0.188,0.111,0.281,0.167
		C8.564,8.632,8.604,8.67,8.646,8.702c0.181,0.146,0.377,0.259,0.566,0.389l0.287,0.163c0.605,0.497,1.153,1.138,1.579,1.857
		c0.08,0.135,0.146,0.281,0.217,0.422c0.034,0.089,0.07,0.176,0.103,0.266c0.092,0.314,0.176,0.633,0.209,0.966
		c0.087,0.659,0.044,1.345-0.072,2.024c-0.123,0.68-0.301,1.363-0.542,2.031c-0.149,0.421-0.325,0.834-0.511,1.244
		c-0.166,0.152-0.345,0.307-0.538,0.461c-0.398,0.313-0.844,0.636-1.33,0.967c-0.496,0.326-1.018,0.67-1.56,1.026
		c-0.545,0.359-1.114,0.737-1.669,1.171c-0.556,0.43-1.118,0.895-1.618,1.438c-0.506,0.535-0.951,1.15-1.287,1.816
		c-0.345,0.653-0.563,1.492-0.432,2.267c0.124,0.784,0.553,1.418,1.002,1.884c0.456,0.475,0.965,0.799,1.435,1.066
		c0.472,0.27,0.93,0.453,1.334,0.605c0.143,0.055,0.278,0.1,0.41,0.143c0.143,0.116,0.291,0.225,0.443,0.318
		c0.753,0.451,1.575,0.668,2.386,0.732c1.619,0.113,3.243-0.291,4.552-1.191c0.654-0.446,1.214-1.027,1.609-1.699
		c0.346-0.572,0.546-1.21,0.642-1.851c0.145-0.215,0.264-0.403,0.355-0.548c0.154-0.26,0.236-0.397,0.236-0.397
		s-0.064,0.07-0.185,0.202c0.069-0.145,0.133-0.291,0.185-0.44c-0.014,0.021-0.029,0.041-0.042,0.062
		c0.002-0.007,0.006-0.017,0.008-0.023c0.022-0.068,0.034-0.104,0.034-0.104s-0.017,0.033-0.05,0.098
		c-0.028,0.061-0.075,0.147-0.144,0.248c-0.072,0.098-0.147,0.191-0.226,0.283c-0.163,0.172-0.383,0.348-0.689,0.458
		c-0.455,0.166-1.102,0.101-1.595-0.336c-0.504-0.421-0.788-1.169-0.807-1.992c-0.01-0.414,0.042-0.852,0.145-1.296
		c0.053-0.225,0.115-0.443,0.184-0.663c0.033-0.11,0.083-0.235,0.123-0.353l0.062-0.168l0.071-0.17
		c0.373-0.912,0.925-1.809,1.545-2.715c0.623-0.908,1.353-1.802,2.043-2.781c0.691-0.975,1.375-2.023,1.859-3.207
		C19.453,12.193,19.665,10.873,19.565,9.609z M10.159,25.02c0.011-0.034,0.027-0.068,0.04-0.102
		c-0.015,0.134-0.025,0.269-0.031,0.404c-0.016,0.533,0.04,1.092,0.255,1.624c0.212,0.528,0.601,1.012,1.093,1.309
		c0.49,0.302,1.057,0.427,1.588,0.397c0.382-0.016,0.748-0.103,1.089-0.234c-0.158,0.119-0.322,0.237-0.5,0.354
		c-0.621,0.398-1.41,0.787-2.205,0.773c-0.793-0.012-1.409-0.59-1.614-1.501C9.663,27.141,9.814,26.061,10.159,25.02z M12.209,9.887
		l0.005,0.006C12.224,9.904,12.217,9.896,12.209,9.887z M8.583,6.504c0.775,0.817,1.65,1.442,2.408,2.133
		c0.383,0.343,0.735,0.698,1.06,1.064l0.119,0.139l0.03,0.035l0.003,0.004l0.001,0.001l0.007,0.01l0.06,0.079
		c0.08,0.105,0.168,0.218,0.211,0.299c0.105,0.164,0.226,0.379,0.314,0.588c0.188,0.422,0.321,0.878,0.41,1.35
		c0.007,0.034,0.01,0.07,0.016,0.104c-0.237-0.692-0.554-1.351-0.941-1.947c-0.712-1.109-1.672-1.966-2.75-2.553
		C9.289,7.689,9.05,7.57,8.816,7.453C8.74,7.411,8.673,7.361,8.6,7.317C8.512,7.243,8.419,7.172,8.335,7.092
		C8.196,6.957,8.063,6.816,7.94,6.666l-0.178-0.23L7.604,6.191C7.507,6.025,7.411,5.855,7.337,5.676
		C7.253,5.498,7.193,5.311,7.135,5.123C7.081,4.933,7.04,4.738,7.009,4.54C6.983,4.342,6.963,4.141,6.959,3.938
		C6.957,3.822,6.964,3.706,6.968,3.59C7.008,3.5,7.052,3.412,7.09,3.322c0.002-0.006,0.004-0.012,0.006-0.018
		c0.002,0.055,0,0.109,0.004,0.164C7.141,4.034,7.29,4.612,7.562,5.128C7.832,5.645,8.194,6.102,8.583,6.504z M7.778,0.421
		C7.639,0.725,7.51,1.037,7.405,1.359C7.386,1.404,7.368,1.447,7.348,1.49c0.001-0.001,0.001-0.002,0.001-0.004
		C7.466,1.123,7.61,0.768,7.778,0.421L7.778,0.421z M3.7,28.52c-0.338-0.422-0.581-0.924-0.623-1.443
		c-0.049-0.527,0.102-1.056,0.421-1.592c0.309-0.543,0.7-1.055,1.152-1.527c0.454-0.47,0.943-0.924,1.465-1.337
		c0.523-0.413,1.051-0.817,1.569-1.212c0.521-0.39,1.027-0.776,1.489-1.173c0.119-0.099,0.234-0.198,0.347-0.296
		c-0.145,0.256-0.291,0.512-0.441,0.766c-0.371,0.629-0.773,1.244-1.188,1.852c-0.416,0.611-0.845,1.188-1.298,1.798
		c-0.459,0.618-0.916,1.319-1.228,2.099c-0.313,0.774-0.508,1.688-0.306,2.617c0.075,0.338,0.214,0.664,0.394,0.96
		c-0.199-0.131-0.403-0.272-0.61-0.425C4.44,29.307,4.04,28.939,3.7,28.52z M14.929,28.869c-0.454,0.567-1.025,1.021-1.651,1.357
		c-0.628,0.338-1.316,0.547-2.01,0.664c-0.696,0.113-1.407,0.118-2.085,0.006c-0.676-0.116-1.33-0.334-1.845-0.697
		c-0.515-0.361-0.854-0.854-0.938-1.406c-0.098-0.552,0.036-1.176,0.307-1.773c0.271-0.605,0.658-1.164,1.115-1.73
		c0.46-0.581,0.929-1.208,1.368-1.83c0.004-0.008,0.01-0.016,0.016-0.023c-0.159,0.381-0.305,0.766-0.418,1.158
		c-0.356,1.238-0.471,2.559-0.085,3.787c0.193,0.607,0.539,1.197,1.063,1.6c0.524,0.403,1.188,0.553,1.752,0.504
		c1.146-0.108,1.939-0.699,2.554-1.211c0.62-0.527,1.06-1.068,1.405-1.52c0.105-0.137,0.197-0.264,0.282-0.386
		C15.56,27.917,15.28,28.425,14.929,28.869z M13.468,27.088c0.525,0.381,1.134,0.437,1.609,0.32c-0.224,0.135-0.458,0.248-0.7,0.332
		c-0.82,0.294-1.752,0.212-2.336-0.255c-0.59-0.464-0.755-1.266-0.658-2.075c0.099-0.807,0.432-1.613,0.821-2.392
		c0.068-0.099,0.13-0.198,0.195-0.298c-0.045,0.189-0.084,0.378-0.11,0.563c-0.073,0.508-0.093,1.011-0.042,1.494
		C12.339,25.737,12.782,26.631,13.468,27.088z"/>
</g>
<g>
</g>
<g>
</g>
<g>
</g>
<g>
</g>
<g>
</g>
<g>
</g>
<g>
</g>
<g>
</g>
<g>
</g>
<g>
</g>
<g>
</g>
<g>
</g>
<g>
</g>
<g>
</g>
<g>
</g>
</svg>
