<?xml version="1.0" encoding="iso-8859-1"?>
<!-- Generator: Adobe Illustrator 16.0.0, SVG Export Plug-In . SVG Version: 6.00 Build 0)  -->
<!DOCTYPE svg PUBLIC "-//W3C//DTD SVG 1.1//EN" "http://www.w3.org/Graphics/SVG/1.1/DTD/svg11.dtd">
<svg version="1.1" id="Layer_1" xmlns="http://www.w3.org/2000/svg" xmlns:xlink="http://www.w3.org/1999/xlink" x="0px" y="0px"
	 width="25.915px" height="31.638px" viewBox="0 0 25.915 31.638" style="enable-background:new 0 0 25.915 31.638;"
	 xml:space="preserve">
<path d="M16.155,19.052c0,0-1.881,6.382-2.188,8.902s4.61,0.554,6.578,2.605c1.967,2.051,5.1,0.118,5.348-2.176
	c0.249-2.293-1.66-9.332-1.66-9.332s-2.213-4.499-2.151-6.773c0.062-2.274-2.306-14.598-11.219-11.893
	c-4.057,1.536-3.719,0.581-5.072,3.07c-1.353,2.49,0.246,5.564-0.369,7.347c-0.615,1.783-7.5,15.884-4.795,19.757
	c2.705,3.872,10.696-3.835,9.897-5.126s2.643-3.996-0.123-4.918C7.635,19.593,6.713,7.483,10.709,5.455
	c-0.554,8.544,7.376,9.494,8.299,10.557C19.93,17.073,16.155,19.052,16.155,19.052z"/>
<g>
</g>
<g>
</g>
<g>
</g>
<g>
</g>
<g>
</g>
<g>
</g>
<g>
</g>
<g>
</g>
<g>
</g>
<g>
</g>
<g>
</g>
<g>
</g>
<g>
</g>
<g>
</g>
<g>
</g>
</svg>
