<?xml version="1.0" encoding="iso-8859-1"?>
<!-- Generator: Adobe Illustrator 16.0.0, SVG Export Plug-In . SVG Version: 6.00 Build 0)  -->
<!DOCTYPE svg PUBLIC "-//W3C//DTD SVG 1.1//EN" "http://www.w3.org/Graphics/SVG/1.1/DTD/svg11.dtd">
<svg version="1.1" id="Layer_1" xmlns="http://www.w3.org/2000/svg" xmlns:xlink="http://www.w3.org/1999/xlink" x="0px" y="0px"
	 width="23.994px" height="31.982px" viewBox="0 0 23.994 31.982" style="enable-background:new 0 0 23.994 31.982;"
	 xml:space="preserve">
<path d="M18.611,7.321c-0.375,1.123-2.086,2.05-2.086,2.05l0.267-1.301c0,0-2.782,2.667-4.602,1.922
	c2.214-0.262,2.033-1.335,2.033-1.335S9.14,10.745,9.14,11.013s-0.803,3.051,0.749,5.564c-3.21-0.267-3.05-5.832-3.05-5.832
	l-2.408,3.478c0,0,3.424,1.927,1.551,4.71c4.869-1.071,1.659,3.103,3.371,3.37c4.923,1.338,2.676,5.617,2.676,5.617
	s2.086,2.034,0.642,3.64c-1.444,1.604-1.15-1.873-1.15-1.873s-3.718-0.625-1.418-3.336c2.301-2.71-4.602,2.052-3.638-3.888
	c-0.482-0.481-6.528,1.673-3.531-4.006c0.802-0.756-4.228-0.97-2.301-6.107c-0.749-1.979-1.284-2.221,1.124-4.601
	c0.75-1.338-4.976-4.977,2.729-7.705c4.441-0.482,4.495,3.21,4.495,3.21l0.642,0.214c0,0,5.886-5.511,10.22-0.053
	c7.063,1.712,3.12,11.183,2.47,12.092c0.366,0.91,0.42,2.054,0.42,2.054l-2.408-0.287l1.209-6.475
	C21.533,10.799,18.557,10.05,18.611,7.321z"/>
<g>
</g>
<g>
</g>
<g>
</g>
<g>
</g>
<g>
</g>
<g>
</g>
<g>
</g>
<g>
</g>
<g>
</g>
<g>
</g>
<g>
</g>
<g>
</g>
<g>
</g>
<g>
</g>
<g>
</g>
</svg>
