<?xml version="1.0" encoding="iso-8859-1"?>
<!-- Generator: Adobe Illustrator 16.0.0, SVG Export Plug-In . SVG Version: 6.00 Build 0)  -->
<!DOCTYPE svg PUBLIC "-//W3C//DTD SVG 1.1//EN" "http://www.w3.org/Graphics/SVG/1.1/DTD/svg11.dtd">
<svg version="1.1" id="Layer_1" xmlns="http://www.w3.org/2000/svg" xmlns:xlink="http://www.w3.org/1999/xlink" x="0px" y="0px"
	 width="23.502px" height="30.043px" viewBox="0 0 23.502 30.043" style="enable-background:new 0 0 23.502 30.043;"
	 xml:space="preserve">
<path d="M1.744,13.053c0.292-0.438,0.346-0.902,0.302-1.332c-0.408-0.006-1.155-0.102-1.022-0.745
	c0.317,0.447,0.712,0.446,0.965,0.396c-0.01-0.047-0.02-0.094-0.032-0.139c-0.243-0.627-0.55-2.017-0.401-3.476
	C0.689,7.521-1.613,6.522,1.845,3.028c4.152-4.195,11.984-3.724,14.98-0.472c2.996,3.253,1.199,7.747,1.199,7.747
	s0.685-0.899,0.984,0.385c4.366-1.155,4.665,5.607,4.323,6.464c-0.342,0.855,1.025,10.535-0.813,10.914
	c-1.354,0.279-3.867-5.488-4.963-9.713c-1.487,1.803-2.508,3.949-2.078,4.576c0.471,0.684,6.758,7.113,6.758,7.113L7.127,29.571
	c0,0,0.88-1.01,1.455-1.669c0.575-0.658-1.083-4.174-1.455-5.607c-0.385-2.075-3.339-0.299-4.794-0.727
	c-1.456-0.428-0.466-2.373-0.466-2.373s-0.428-0.217-0.476-0.714c-0.048-0.498,0.974-0.875,0.974-0.875S1.3,17.796,1.15,17.262
	c-0.112-0.402,0.417-0.915,0.417-0.915L1.564,16.02c0,0-1.652-0.149-1.338-1.01C0.447,14.394,1.131,13.972,1.744,13.053z"/>
<g>
</g>
<g>
</g>
<g>
</g>
<g>
</g>
<g>
</g>
<g>
</g>
<g>
</g>
<g>
</g>
<g>
</g>
<g>
</g>
<g>
</g>
<g>
</g>
<g>
</g>
<g>
</g>
<g>
</g>
</svg>
