<?xml version="1.0" encoding="iso-8859-1"?>
<!-- Generator: Adobe Illustrator 16.0.0, SVG Export Plug-In . SVG Version: 6.00 Build 0)  -->
<!DOCTYPE svg PUBLIC "-//W3C//DTD SVG 1.1//EN" "http://www.w3.org/Graphics/SVG/1.1/DTD/svg11.dtd">
<svg version="1.1" id="Layer_1" xmlns="http://www.w3.org/2000/svg" xmlns:xlink="http://www.w3.org/1999/xlink" x="0px" y="0px"
	 width="20.937px" height="31.163px" viewBox="0 0 20.937 31.163" style="enable-background:new 0 0 20.937 31.163;"
	 xml:space="preserve">
<path d="M5.651,8.082c-0.1,2.119-3.354,5.751-3.354,5.751s0.075,1.815,0.983,3.708s4.995,4.238,4.995,4.238
	s-0.454,6.963,0.303,9.384c-2.043-1.23-6.433-6.129-7.492-10.367S-2.092,2.255,5.651,2.937c1.565-5.828,9.71-1.589,12.084,0.832
	c2.374,2.422,3.69,17.102,3.032,19.448s-5.378,7.72-8.405,7.946c1.589-2.194,0.076-9.762,0.076-9.762s7.492-1.286,4.691-9.99
	C16.241,11.648,8.957,14.136,5.651,8.082z"/>
<g>
</g>
<g>
</g>
<g>
</g>
<g>
</g>
<g>
</g>
<g>
</g>
<g>
</g>
<g>
</g>
<g>
</g>
<g>
</g>
<g>
</g>
<g>
</g>
<g>
</g>
<g>
</g>
<g>
</g>
</svg>
