<?xml version="1.0" encoding="iso-8859-1"?>
<!-- Generator: Adobe Illustrator 16.0.0, SVG Export Plug-In . SVG Version: 6.00 Build 0)  -->
<!DOCTYPE svg PUBLIC "-//W3C//DTD SVG 1.1//EN" "http://www.w3.org/Graphics/SVG/1.1/DTD/svg11.dtd">
<svg version="1.1" id="Layer_1" xmlns="http://www.w3.org/2000/svg" xmlns:xlink="http://www.w3.org/1999/xlink" x="0px" y="0px"
	 width="21.028px" height="30.438px" viewBox="0 0 21.028 30.438" style="enable-background:new 0 0 21.028 30.438;"
	 xml:space="preserve">
<path d="M0.037,16.485c0.205-0.571,0.84-0.963,1.408-1.816c0.271-0.406,0.321-0.838,0.28-1.235
	c-0.378-0.006-1.072-0.095-0.948-0.693c0.294,0.416,0.661,0.416,0.896,0.368c-0.009-0.044-0.019-0.088-0.03-0.129
	c-0.417-1.072-1.045-4.563,1.184-6.416c0.026-0.021,0.058-0.042,0.085-0.062C2.08,5.853,0.932,4.878,0.824,4.353
	c-0.171-0.833,3.339,0,3.339,0S2.868,1.595,3.606,1.241s2.525,2.312,2.525,2.312S6.389,0.043,7.116,0s1.241,3.149,1.241,3.149
	S10.102,0,10.754,0c0.653,0,0.428,2.739,0.428,2.739s2.664-2.169,3.082-1.946s-0.728,2.781-0.728,2.781s3.209-0.858,3.381-0.425
	c0.171,0.435-1.969,1.944-1.969,1.944s3.521,0.417,3.553,1.027c0.032,0.609-2.611,1.498-2.611,1.498s3.841,0.471,3.852,1.155
	S17.474,9.93,17.474,9.93s3.478,1.681,3.553,2.354c0.075,0.673-3.017,0.916-2.868,1.069s2.377,2.43,2.307,2.782
	c-0.071,0.353-2.264,0-2.264,0s2.868,2.708,0.556,3.681c-1.347,0.567-3.316-0.225-4.728-0.983c-0.896,1.819-0.219,4.448,0.163,5.003
	c0.437,0.637,6.273,6.603,6.273,6.603L6.442,30.002c0,0,0.818-0.938,1.351-1.55c0.533-0.61-1.005-3.875-1.351-5.204
	c-0.357-1.927-3.099-0.278-4.45-0.675C0.642,22.177,1.56,20.37,1.56,20.37s-0.397-0.2-0.441-0.662
	c-0.045-0.462,0.904-0.813,0.904-0.813s-0.988,0.177-1.127-0.32c-0.104-0.372,0.387-0.849,0.387-0.849l-0.003-0.303
	C1.279,17.424-0.254,17.284,0.037,16.485z"/>
<g>
</g>
<g>
</g>
<g>
</g>
<g>
</g>
<g>
</g>
<g>
</g>
<g>
</g>
<g>
</g>
<g>
</g>
<g>
</g>
<g>
</g>
<g>
</g>
<g>
</g>
<g>
</g>
<g>
</g>
</svg>
