<?xml version="1.0" encoding="iso-8859-1"?>
<!-- Generator: Adobe Illustrator 16.0.0, SVG Export Plug-In . SVG Version: 6.00 Build 0)  -->
<!DOCTYPE svg PUBLIC "-//W3C//DTD SVG 1.1//EN" "http://www.w3.org/Graphics/SVG/1.1/DTD/svg11.dtd">
<svg version="1.1" id="Layer_1" xmlns="http://www.w3.org/2000/svg" xmlns:xlink="http://www.w3.org/1999/xlink" x="0px" y="0px"
	 width="11.183px" height="31.154px" viewBox="0 0 11.183 31.154" style="enable-background:new 0 0 11.183 31.154;"
	 xml:space="preserve">
<path d="M7.24,10.715c-0.306,0.135-0.457,0.954,0.167,1.121c-1.143,1.579-2.258,8.35-2.258,8.35s-0.668,4.588,0.804,5.673
	c1.472,1.085,1.703,5.296,1.703,5.296s0.81-3.157-0.208-4.818c-1.018-1.662-0.25-7.562-0.25-7.562s2.95-3.282,1.164-7.104
	c0.332-0.049,0.499-0.374,0.374-0.831c2.077-0.83,4.113-5.359,0.333-9.555C8.195,0.287,4.332-1.541,1.299,2.53
	c-3.033,4.071,0.021,7.936,1.329,8.517c-0.107,0.162-0.457,0.519,0.125,0.748c-1.828,0.789,0.167,4.424,0.167,4.424
	s1.475,1.495,0.956,6.544c-0.52,5.048,1.667,7.581,2.309,7.894c-1.292-1.556-0.896-6.606-0.896-6.606s-0.127-6.671-0.291-8.101
	c-0.164-1.43-0.208-3.178-1.039-4.071c0.337-0.157,0.187-0.706-0.104-0.935C4,10.528,3.637,10.298,3.637,10.298
	S1.787,9.624,2.13,4.898C2.618,3.984,4.176,4.41,5.994,3.942c1.87,0.26,2.514,0.291,3.282,1.247
	C9.785,10.175,7.24,10.715,7.24,10.715"/>
<g>
</g>
<g>
</g>
<g>
</g>
<g>
</g>
<g>
</g>
<g>
</g>
<g>
</g>
<g>
</g>
<g>
</g>
<g>
</g>
<g>
</g>
<g>
</g>
<g>
</g>
<g>
</g>
<g>
</g>
</svg>
