<?xml version="1.0" encoding="iso-8859-1"?>
<!-- Generator: Adobe Illustrator 16.0.0, SVG Export Plug-In . SVG Version: 6.00 Build 0)  -->
<!DOCTYPE svg PUBLIC "-//W3C//DTD SVG 1.1//EN" "http://www.w3.org/Graphics/SVG/1.1/DTD/svg11.dtd">
<svg version="1.1" id="Layer_1" xmlns="http://www.w3.org/2000/svg" xmlns:xlink="http://www.w3.org/1999/xlink" x="0px" y="0px"
	 width="31.504px" height="31.956px" viewBox="0 0 31.504 31.956" style="enable-background:new 0 0 31.504 31.956;"
	 xml:space="preserve">
<path d="M22.283,0.002c-2.686-0.088-7.054,2.91-5.983,9.278c-0.091,0.277-2.883-0.705-5.722,0.479
	c-4.537,2.409-3.965,1.904-6.663,2.855s-6.557,6.864-1.309,7.57c8.623,0.394,16.98,7.095,17.208,7.838s0.996-1.785,0.996-1.785
	s-0.966,5.533,2.871,5.711c3.837,0.179,4.253-2.707,3.004-4.462c-0.227-0.318-1.339-1.189-2.767,0.477
	c2.29,1.13,2.761,2.121,0.191,1.952c-2.433-0.158-1.67-3.979-1.406-4.268c-0.083-0.471,2.223-11.003,3.229-11.4
	c3.401-0.605,5.572-2.791,5.572-7.582C31.504,0.299,25.882,0.121,22.283,0.002z"/>
<g>
</g>
<g>
</g>
<g>
</g>
<g>
</g>
<g>
</g>
<g>
</g>
<g>
</g>
<g>
</g>
<g>
</g>
<g>
</g>
<g>
</g>
<g>
</g>
<g>
</g>
<g>
</g>
<g>
</g>
</svg>
