<?xml version="1.0" encoding="iso-8859-1"?>
<!-- Generator: Adobe Illustrator 16.0.0, SVG Export Plug-In . SVG Version: 6.00 Build 0)  -->
<!DOCTYPE svg PUBLIC "-//W3C//DTD SVG 1.1//EN" "http://www.w3.org/Graphics/SVG/1.1/DTD/svg11.dtd">
<svg version="1.1" id="Layer_1" xmlns="http://www.w3.org/2000/svg" xmlns:xlink="http://www.w3.org/1999/xlink" x="0px" y="0px"
	 width="28.254px" height="31.156px" viewBox="0 0 28.254 31.156" style="enable-background:new 0 0 28.254 31.156;"
	 xml:space="preserve">
<path d="M27.304,15.119c0.325-0.56,1.521-2.126-0.671-4.165c-0.279-0.629,1.287-2.189-1.029-3.219
	c-0.368-0.325,0.302-1.018-0.761-1.478C23.781,5.8,22.158,5.9,22.158,5.9s-0.246-0.995-0.94-0.939
	C20.525,5.018,20.637,5.9,20.637,5.9s-1.163-3.49-2.237-3.938c-1.074-0.447-3.535-1.611-4.564-1.731
	C12.806,0.108,9.36-0.588,6.943,1.247C5.825,0.575,3.497,1.962,2.558,3.305C2.33,3.709,2.503,4.194,2.696,4.544
	c-1.919,2.161-1.282,5.628-0.846,6.75c0.013,0.046,0.023,0.096,0.034,0.145c-0.264,0.054-0.678,0.054-1.008-0.414
	c-0.14,0.674,0.642,0.774,1.068,0.78c0.046,0.448-0.011,0.934-0.316,1.393c-0.641,0.961-1.355,1.401-1.586,2.046
	c-0.329,0.899,1.398,1.056,1.398,1.056l0.004,0.342c0,0-0.554,0.537-0.437,0.957c0.157,0.559,1.27,0.36,1.27,0.36
	s-1.069,0.395-1.018,0.915c0.05,0.521,0.497,0.746,0.497,0.746s-1.035,2.034,0.487,2.481c1.522,0.447,4.61-1.41,5.013,0.761
	c0.389,1.497,2.122,5.173,1.521,5.861c-0.601,0.689-1.521,1.746-1.521,1.746l15.796,0.492c0,0-4.878-6.312-5.37-7.026
	c-0.413-0.601-1.917-2.729-1.334-4.563c0.952-0.045,2.813-0.37,2.722-2.239c2.405-0.917,2.237-4.027,2.237-4.027l0.171-3.672
	c0,0,0.007-0.825,0.298-0.031c0.291,0.795,0.451,0.853,0.658,0.982c0.432,0.273,1.39,1.3,0.886,1.915
	c-0.502,0.615-1.007,2.104,1.208,2.875c-1.04,0.033-2.45,2.551-0.433,4.425c-0.701-0.141-1.681,1.315-0.103,3.127
	c-0.335-0.201-1.88,2.148-0.102,2.819c-1.611,1.142-0.604,1.88-0.659,3.088c-0.414,4.396,2.673,1.879,3.132,1.073
	c-2.7,1.269-2.192-0.85-2.192-0.85l0.179-1.164c0,0,2.629-0.839,2.059-3.178c0.839-0.323,1.611-0.782,0.671-2.729
	c0.873-0.2,1.275-1.04,0.223-2.685C27.864,18.866,29.127,17.559,27.304,15.119z"/>
<g>
</g>
<g>
</g>
<g>
</g>
<g>
</g>
<g>
</g>
<g>
</g>
<g>
</g>
<g>
</g>
<g>
</g>
<g>
</g>
<g>
</g>
<g>
</g>
<g>
</g>
<g>
</g>
<g>
</g>
</svg>
