<?xml version="1.0" encoding="iso-8859-1"?>
<!-- Generator: Adobe Illustrator 16.0.0, SVG Export Plug-In . SVG Version: 6.00 Build 0)  -->
<!DOCTYPE svg PUBLIC "-//W3C//DTD SVG 1.1//EN" "http://www.w3.org/Graphics/SVG/1.1/DTD/svg11.dtd">
<svg version="1.1" id="Layer_1" xmlns="http://www.w3.org/2000/svg" xmlns:xlink="http://www.w3.org/1999/xlink" x="0px" y="0px"
	 width="17.715px" height="31.615px" viewBox="0 0 17.715 31.615" style="enable-background:new 0 0 17.715 31.615;"
	 xml:space="preserve">
<g>
	<path d="M9.063,4.833c0.473-0.094,0.95-0.186,1.422-0.276c0.944-0.183,1.896-0.367,2.754-0.558
		C12.71,2.968,11.58-0.203,8.068,0.011C6.199,0.124,3.149,1.448,2.434,3.202C1.962,4.359,2.077,5.537,2.243,6.25
		C3.779,5.924,7.01,5.242,9.063,4.833z"/>
	<path d="M13.417,19.501c-0.335-1.303,0.326-4.623,0.326-4.623s0.895,0.129,0.129,2.67c-0.228,0.341,1.034-0.635,0.725-2.72
		s-1.391-1.693-1.44-1.97c-0.05-0.277,0.292-0.912,0.268-1.768c-0.023-0.854,0.302-0.74,0.448-1.75
		c0.027-0.181,0.615,0.854,0.188,3.143c1.27-0.903-0.047-4.199-0.027-4.423c0.041-0.478,0.055-0.991,0.004-1.466
		c1.034-0.42,1.686-0.932,1.032-1.308c-0.772-0.446-1.064-0.468-1.294-0.607c-0.944,0.22-2.025,0.429-3.141,0.644
		C10.163,5.415,9.687,5.506,9.217,5.6C7.188,6.003,4.013,6.674,2.459,7.003C2.284,7.137,1.193,7.095,0.806,7.761
		c0.6,0.912,1.656,1.212,2.877,1.195c-0.109,1.241-0.248,2.268-0.687,2.6c-1.222,0.928-1.774,7.49-1.106,8.336
		c0.104-1.254,0.889-1.499,1.23-1.77C3.463,17.854,0.7,23.938,0,23.083c0.333,1.221,2.511-1.258,2.41,0
		c-1.515,3.615-0.504,5.699-0.131,5.928c0.374,0.228,0.289,1.17-1.303,1.693c1.188,0.879,2.02-0.912,2.02-0.912
		c0.684-0.213,1.465,0.08,1.368,1.823c1.21-0.792-0.02-4.396-0.127-4.686c0.178,0.519,1.496,0.376,2.177-0.599
		c-0.902,0.465-1.949,0.83-2.376-0.447c-0.261-0.554,0.196-1.107,0.196-1.107s0.406,1.377,1.367,0.781
		c-1.287-0.081-0.717-3.126-0.717-3.126s0.359,3.501,1.433,2.735c-1.002-0.13-0.293-3.027-0.391-4.087
		c-0.099-1.059,2.054-2.083,3.127-3.825s-1.434-4.543-1.498-5.243c-0.066-0.7,0.764-0.944,1.301-3.241
		C8.934,8.445,8.99,8.122,9.034,7.806C9.84,7.563,10.523,7.37,10.96,7.339c0.53-0.036,1.186-0.16,1.826-0.332
		c-0.026,0.697-0.04,1.563,0.044,1.748c0.146,0.318,0.484,1.07,0.484,1.299c0,0.227-0.77,0.415-0.77,0.415
		c0.197,0.591,0.383,1.076,0.351,1.152c-0.049,0.113-0.275,0.103-0.325,0.195s0.373,0.175,0.243,0.337
		c-0.13,0.163-0.215,0.16-0.342,0.269c-0.126,0.109-0.016,0.79-0.366,0.917c-0.35,0.125-1.266-0.085-1.551,0.134
		c-0.286,0.22,0.185,3.831-0.134,4.987c-0.318,1.155,1.831,2.4,1.979,3.793c0.146,1.392,0.13,1.718,0.439,2.246
		c0.309,0.529,1.172,2.076,2.011,1.906c-0.669-0.758-0.587-1.563-0.587-1.563s1.67,2.263,2.345,2.279
		c-0.911-1.377-0.26-1.051,0-0.848c0.261,0.203,1.002,0.105,1.107-0.749C16.607,26.274,13.751,20.804,13.417,19.501z"/>
</g>
<g>
</g>
<g>
</g>
<g>
</g>
<g>
</g>
<g>
</g>
<g>
</g>
<g>
</g>
<g>
</g>
<g>
</g>
<g>
</g>
<g>
</g>
<g>
</g>
<g>
</g>
<g>
</g>
<g>
</g>
</svg>
