<?xml version="1.0" encoding="iso-8859-1"?>
<!-- Generator: Adobe Illustrator 16.0.0, SVG Export Plug-In . SVG Version: 6.00 Build 0)  -->
<!DOCTYPE svg PUBLIC "-//W3C//DTD SVG 1.1//EN" "http://www.w3.org/Graphics/SVG/1.1/DTD/svg11.dtd">
<svg version="1.1" id="Layer_1" xmlns="http://www.w3.org/2000/svg" xmlns:xlink="http://www.w3.org/1999/xlink" x="0px" y="0px"
	 width="24.44px" height="30.366px" viewBox="0 0 24.44 30.366" style="enable-background:new 0 0 24.44 30.366;"
	 xml:space="preserve">
<path d="M0.04,15.333c0.221-0.616,0.905-1.038,1.517-1.957c0.292-0.438,0.346-0.902,0.302-1.331
	c-0.408-0.007-1.155-0.103-1.022-0.746c0.316,0.447,0.712,0.446,0.965,0.396c-0.01-0.047-0.021-0.094-0.032-0.139
	c-0.231-0.595-0.948-2.684-0.727-3.871C-0.291,7.73,1.71,4.491,2.876,3.521C4.259,2.447,8.298,1.644,13.929,2.45
	c0.931-1.199,3.865-4.286,7.352-0.939c4.237,4.065,3.467,10.785,1.969,15.579s-1.402,9.041,0.385,10.357
	c-0.407,1.315-5.65-3.81-5.65-3.81s0.877,2.204,3.724,4.194c-7.244-1.477-6.035-9.416-6.035-9.416s3.724-9.009,1.958-12.155
	c-1.083-1.93-2.105-1.733-2.734-1.293c0.412,1.169,0.896,2.517,1.29,3.519c0.855,2.183-0.471,6.934-2.183,8.817
	c-1.712,1.883,0.816,5.265,1.287,5.949s6.758,7.113,6.758,7.113L6.94,29.895c0,0,0.881-1.01,1.455-1.669
	c0.574-0.658-1.083-4.175-1.455-5.606c-0.385-2.076-3.338-0.3-4.794-0.728s-0.466-2.373-0.466-2.373s-0.427-0.217-0.475-0.714
	c-0.048-0.498,0.974-0.875,0.974-0.875s-1.064,0.19-1.215-0.345c-0.112-0.401,0.417-0.915,0.417-0.915l-0.004-0.327
	C1.378,16.343-0.274,16.193,0.04,15.333z"/>
<g>
</g>
<g>
</g>
<g>
</g>
<g>
</g>
<g>
</g>
<g>
</g>
<g>
</g>
<g>
</g>
<g>
</g>
<g>
</g>
<g>
</g>
<g>
</g>
<g>
</g>
<g>
</g>
<g>
</g>
</svg>
