<?xml version="1.0" encoding="utf-8"?>
<!-- Generator: Adobe Illustrator 16.0.4, SVG Export Plug-In . SVG Version: 6.00 Build 0)  -->
<!DOCTYPE svg PUBLIC "-//W3C//DTD SVG 1.1//EN" "http://www.w3.org/Graphics/SVG/1.1/DTD/svg11.dtd">
<svg version="1.1" id="Layer_1" xmlns="http://www.w3.org/2000/svg" xmlns:xlink="http://www.w3.org/1999/xlink" x="0px" y="0px"
	 width="31.475px" height="28.035px" viewBox="0 0 31.475 28.035" enable-background="new 0 0 31.475 28.035" xml:space="preserve">
<path d="M18.456,13.535c-0.123,0.541-1.561,1.731-1.522,2.16s0.966,0.393,0.966,0.393s-0.485,0.188-0.475,0.428
	c0.012,0.235,0.622,0.521,0.622,0.521s-0.609,0.417-0.425,0.653c0.184,0.236,0.652,0.132,0.652,0.132s-0.403,1.464,0.808,1.137
	c5.178-2.354,5.117,1.153,5.117,1.153s-2.16,2.978-5.693,0.62c-2.062-1.472-6.65-2.044-8.049-1.145
	c-0.688,0.498-1.57,3.074,1.047,2.551c0.671-0.213,0.949-1.201,0.196-0.914c-0.755,0.285-1.352-0.549-0.427-0.916
	c1.565-0.736,3.525,2.797-0.556,2.812c-0.483-0.018-3.82-1.072-1.08-4.826c-6.863,1.325-9.055-2.231-9.554-3.387
	c-0.498-1.152,1.326-3.696,3.469-2.093c1.025,1.342,0.368,2.257-0.286,2.683c-1.275,0.712-1.693-0.688-1.221-1.144
	c0.711-0.908,0.223,0.998,0.722,0.653c0.497-0.343,0.015-2.714-1.277-1.602c-1.292,1.112,0.303,2.667,1.211,2.847
	c0.906,0.182,10.937-7.73,13.618-9.317c2.685-1.588,13.146-5.309,14.912,4.572c1.77,9.884-6.708,8.64-6.708,8.64L24.46,19.59
	c0,0,1.178-4.68-1.474-5.956C20.885,12.578,18.578,12.995,18.456,13.535z"/>
</svg>
