<?xml version="1.0" encoding="iso-8859-1"?>
<!-- Generator: Adobe Illustrator 16.0.0, SVG Export Plug-In . SVG Version: 6.00 Build 0)  -->
<!DOCTYPE svg PUBLIC "-//W3C//DTD SVG 1.1//EN" "http://www.w3.org/Graphics/SVG/1.1/DTD/svg11.dtd">
<svg version="1.1" id="Layer_1" xmlns="http://www.w3.org/2000/svg" xmlns:xlink="http://www.w3.org/1999/xlink" x="0px" y="0px"
	 width="25.534px" height="30.433px" viewBox="0 0 25.534 30.433" style="enable-background:new 0 0 25.534 30.433;"
	 xml:space="preserve">
<path d="M2.328,0.016C3.515-0.113,3.804,0.55,3.997,2.251C3.162,1.545,2.391,1.124,1.846,2.494C1.267,5.693,3.836,4.99,5.574,4.428
	C5.967,4.283,5.967,4.283,7.101,3.19c1.133-1.093,13.447-5.066,12.85,4.421C19.915,8.2,19.886,8.752,19.86,9.287
	c0.129,0.78,0.085,1.732-0.089,2.727c-0.126,8.559,1.536,8.534,3.101,8.31c0.451,1.955-2.325,2.616-4.206,2.839
	c0.043,0.063,0.081,0.115,0.11,0.158c0.471,0.684,6.758,7.112,6.758,7.112l-15.108-0.471c0,0,0.881-1.011,1.455-1.669
	s-1.083-4.175-1.455-5.607c-0.385-2.075-3.338-0.299-4.794-0.727s-0.466-2.373-0.466-2.373s-0.427-0.217-0.475-0.714
	c-0.048-0.498,0.974-0.875,0.974-0.875S4.6,18.188,4.45,17.651c-0.112-0.4,0.417-0.915,0.417-0.915L4.863,16.41
	c0,0-1.652-0.149-1.337-1.01c0.221-0.617,0.905-1.037,1.517-1.957c0.292-0.438,0.346-0.903,0.302-1.332
	c-0.408-0.006-1.155-0.102-1.022-0.745c0.317,0.446,0.713,0.446,0.965,0.395c-0.01-0.046-0.02-0.093-0.032-0.139
	c-0.231-0.595-0.948-2.683-0.727-3.87c-0.024,0.002-0.04-0.007-0.062-0.008C0.79,7.67-2.295,2.134,2.328,0.016z"/>
<g>
</g>
<g>
</g>
<g>
</g>
<g>
</g>
<g>
</g>
<g>
</g>
<g>
</g>
<g>
</g>
<g>
</g>
<g>
</g>
<g>
</g>
<g>
</g>
<g>
</g>
<g>
</g>
<g>
</g>
</svg>
