<?xml version="1.0" encoding="iso-8859-1"?>
<!-- Generator: Adobe Illustrator 16.0.0, SVG Export Plug-In . SVG Version: 6.00 Build 0)  -->
<!DOCTYPE svg PUBLIC "-//W3C//DTD SVG 1.1//EN" "http://www.w3.org/Graphics/SVG/1.1/DTD/svg11.dtd">
<svg version="1.1" id="Layer_1" xmlns="http://www.w3.org/2000/svg" xmlns:xlink="http://www.w3.org/1999/xlink" x="0px" y="0px"
	 width="19.064px" height="31.842px" viewBox="0 0 19.064 31.842" style="enable-background:new 0 0 19.064 31.842;"
	 xml:space="preserve">
<path d="M12.676,4.009c0,0-2.079,4.487-4.462,3.6c-0.684,1.749-2.839,5.627-2.839,5.627s0.944,1.749,0.963,3.118
	c0.019,1.369-0.963,2.154-0.963,2.154s0.963,1.623,0,2.333c0.963,2.611-1.851,5.374-1.572,5.881
	c1.597,5.044-2.839,5.121-2.839,5.121s1.698-0.71,1.673-2.002c-0.025-1.293-2.56-2.155-2.383-3.574
	c0.177-1.42,2.104-2.256,1.977-3.6c-0.126-1.344-2.18-2.459-2.23-3.65s1.318-1.572,1.419-1.927s-0.608-0.532-0.659-1.014
	c-0.051-0.482,1.04-0.406,1.014-0.761s-0.457-0.811-0.507-1.268c-0.051-0.456,0.456-0.558,0.456-0.558s-0.203-1.673-0.152-2.788
	C1.624,9.585,3.398,0.207,9.178,0.003c5.78-0.203,5.754,8.264,5.754,8.264s1.648,2.636,1.749,4.512
	c0.102,1.875-1.496,3.447-1.419,4.258c0.076,0.812,1.647,1.8,1.927,3.245c0.279,1.445-0.608,3.092-0.608,3.092
	s2.484,1.369,2.484,2.94c0,1.572-0.938,1.445-0.608,1.673c0.913,2.56-1.318,2.281-1.318,2.281s-1.191-0.532-0.355-1.926
	c-2.484-0.634-3.523-3.929-3.448-5.171c0.076-1.242,1.166-2.434,1.166-2.434s-2.028-3.27-2.079-4.816
	c-0.05-1.546,1.673-5.044,1.978-5.627C14.501,7.051,12.676,4.009,12.676,4.009z"/>
<g>
</g>
<g>
</g>
<g>
</g>
<g>
</g>
<g>
</g>
<g>
</g>
<g>
</g>
<g>
</g>
<g>
</g>
<g>
</g>
<g>
</g>
<g>
</g>
<g>
</g>
<g>
</g>
<g>
</g>
</svg>
