<?xml version="1.0" encoding="iso-8859-1"?>
<!-- Generator: Adobe Illustrator 16.0.0, SVG Export Plug-In . SVG Version: 6.00 Build 0)  -->
<!DOCTYPE svg PUBLIC "-//W3C//DTD SVG 1.1//EN" "http://www.w3.org/Graphics/SVG/1.1/DTD/svg11.dtd">
<svg version="1.1" id="Layer_1" xmlns="http://www.w3.org/2000/svg" xmlns:xlink="http://www.w3.org/1999/xlink" x="0px" y="0px"
	 width="27.123px" height="31.087px" viewBox="0 0 27.123 31.087" style="enable-background:new 0 0 27.123 31.087;"
	 xml:space="preserve">
<path d="M25.495,7.754c0,0,0.887-0.521-0.253-3.069c-1.141-2.546-3.355-1.129-3.355-1.129s1.034-0.91,0.522-1.805
	c-0.511-0.895-1.849-0.656-1.849-0.656s0.72-0.384-0.9-0.963c-1.619-0.579-1.956,1.232-2.411,1.231
	c-0.455,0-2.242-1.866-5.076-1.231c-1.349,0.23-3.867-0.724-6.003,1.553c-0.495-0.423-3.553,0.443-3.676,2.36
	c-1-0.468-3.249,2.221-2.237,3.996c0.547,0.602,1.069,0.62,1.394,0.543c0.013,1.178,0.261,2.216,0.465,2.74
	c0.013,0.047,0.023,0.097,0.034,0.146c-0.265,0.054-0.681,0.054-1.013-0.417c-0.14,0.678,0.645,0.778,1.074,0.784
	c0.046,0.45-0.011,0.938-0.318,1.399c-0.643,0.965-1.362,1.408-1.594,2.056c-0.331,0.903,1.405,1.061,1.405,1.061l0.004,0.344
	c0,0-0.556,0.54-0.438,0.962c0.158,0.562,1.276,0.362,1.276,0.362s-1.074,0.396-1.023,0.919s0.5,0.75,0.5,0.75
	s-1.04,2.044,0.489,2.494c1.53,0.448,4.632-1.417,5.037,0.764c0.39,1.504,2.132,5.198,1.529,5.891
	c-0.604,0.691-1.529,1.754-1.529,1.754l15.873,0.494c0,0-4.901-6.342-5.396-7.061c-0.442-0.643-2.133-3.032-1.196-4.945
	c0.639,0.233,1.755,0.405,1.82-1.209c1.236,0.006,1.635-1.568,1.635-1.568s3.244,0.462,2.867-2.883
	c-0.129-0.513,3.322,0.443,3.878-1.821C27.585,9.333,25.495,7.754,25.495,7.754z"/>
<g>
</g>
<g>
</g>
<g>
</g>
<g>
</g>
<g>
</g>
<g>
</g>
<g>
</g>
<g>
</g>
<g>
</g>
<g>
</g>
<g>
</g>
<g>
</g>
<g>
</g>
<g>
</g>
<g>
</g>
</svg>
