<?xml version="1.0" encoding="iso-8859-1"?>
<!-- Generator: Adobe Illustrator 16.0.0, SVG Export Plug-In . SVG Version: 6.00 Build 0)  -->
<!DOCTYPE svg PUBLIC "-//W3C//DTD SVG 1.1//EN" "http://www.w3.org/Graphics/SVG/1.1/DTD/svg11.dtd">
<svg version="1.1" id="Layer_1" xmlns="http://www.w3.org/2000/svg" xmlns:xlink="http://www.w3.org/1999/xlink" x="0px" y="0px"
	 width="17.303px" height="31.839px" viewBox="0 0 17.303 31.839" style="enable-background:new 0 0 17.303 31.839;"
	 xml:space="preserve">
<path d="M9.46,6.324c-1.968-1.92-3.24,1.513-3.24,1.513s-0.752,4.352-2.232,4.704c-1.64,1.537,3.048,4.183,3.048,4.183
	s-1.184,1.337-0.024,2.13c2.952,3.385-1.08,2.583-0.024,5.4s-0.96,7.585-0.96,7.585s0.448-3.856-0.576-5.305
	c-9.473-7.017-0.636-6.133-3.648-8.784c-3.84-2.745-0.417-8.441,0-9.722C2.219,6.749,2.379-2.916,9.46,0.876
	c6.792-3.912,5.833,7.023,6.625,8.064c3.416,5.201-1.608,6.034,0,8.329c2.616,5.513-2.313,6.04-2.328,7.969s-5.041,5.4-5.041,5.4
	s1.744-1.904,1.272-3.696c-0.696-3.488,0.824-4.85,1.632-5.208c0.808-0.359-2.729-3.737-0.096-5.377
	c1.057-0.658,3.383-2.346,3.657-3.399c0.408-1.571-0.929-1.986-1.568-2.481S13.372,2.868,9.46,6.324z"/>
<g>
</g>
<g>
</g>
<g>
</g>
<g>
</g>
<g>
</g>
<g>
</g>
<g>
</g>
<g>
</g>
<g>
</g>
<g>
</g>
<g>
</g>
<g>
</g>
<g>
</g>
<g>
</g>
<g>
</g>
</svg>
