<?xml version="1.0" encoding="iso-8859-1"?>
<!-- Generator: Adobe Illustrator 16.0.0, SVG Export Plug-In . SVG Version: 6.00 Build 0)  -->
<!DOCTYPE svg PUBLIC "-//W3C//DTD SVG 1.1//EN" "http://www.w3.org/Graphics/SVG/1.1/DTD/svg11.dtd">
<svg version="1.1" id="Layer_1" xmlns="http://www.w3.org/2000/svg" xmlns:xlink="http://www.w3.org/1999/xlink" x="0px" y="0px"
	 width="26.706px" height="31.583px" viewBox="0 0 26.706 31.583" style="enable-background:new 0 0 26.706 31.583;"
	 xml:space="preserve">
<path d="M12.893,3.347l-3.268,6.35c0,0,1.788,3.268,1.634,4.563s-1.634,3.699-1.634,3.699s3.854,5.117,0.802,5.24
	c0.585-1.295-0.191-4.307-1.054-2.75c-0.863,1.557-3.509,6.326-3.509,6.326s-1.109,4.746-2.897,4.809c0.679-1.604,0-4.377,0-4.377
	s-1.048,0.862-1.603,2.589c-1.233-2.405,2.034-5.549,2.034-5.549s-2.281,1.233-3.391,2.713c-0.186-2.836,2.774-4.192,2.774-4.192
	s-0.889-3.738,1.048-5.344c0.328-1.606-1.479-2.732,1.418-6.924C6.097,8.256,8.885-1.585,16.407,0.22
	c2.097,0.661,6.781,8.306,7.151,9.416c0.37,1.109-0.863,1.541-0.863,1.541s1.356,0.863,1.788,2.219
	c0.432,1.356-0.246,2.506-0.246,2.506s2.712,0.947,2.343,3.783c-0.74-0.863-2.898-2.262-2.898-2.262s3.576,3.186,1.542,5.714
	c0.616,0.555,3.391,8.446-0.74,8.446c2.22-1.665-1.418-9.494-1.418-9.494s-1.295,2.773-0.555,3.945
	c-1.479,0.369-1.172-3.842-1.973-4.624s-4.932-4.069-2.281-8.507c0.74-1.85-1.232-7.029-2.157-8.508
	C15.174,2.915,12.893,3.347,12.893,3.347z"/>
<g>
</g>
<g>
</g>
<g>
</g>
<g>
</g>
<g>
</g>
<g>
</g>
<g>
</g>
<g>
</g>
<g>
</g>
<g>
</g>
<g>
</g>
<g>
</g>
<g>
</g>
<g>
</g>
<g>
</g>
</svg>
