<?xml version="1.0" encoding="iso-8859-1"?>
<!-- Generator: Adobe Illustrator 16.0.0, SVG Export Plug-In . SVG Version: 6.00 Build 0)  -->
<!DOCTYPE svg PUBLIC "-//W3C//DTD SVG 1.1//EN" "http://www.w3.org/Graphics/SVG/1.1/DTD/svg11.dtd">
<svg version="1.1" id="Layer_1" xmlns="http://www.w3.org/2000/svg" xmlns:xlink="http://www.w3.org/1999/xlink" x="0px" y="0px"
	 width="29.53px" height="31.081px" viewBox="0 0 29.53 31.081" style="enable-background:new 0 0 29.53 31.081;"
	 xml:space="preserve">
<path d="M2.554,15.447c-0.589-4.984,3.964-7.496,5.69-7.496c2.612,1.003,10.008,6.397,10.008,6.397s0.393,2.669,2.394,3.257
	c-0.353,2.473,1.688,3.729,1.688,3.729s0.628,3.65-2.865,7.732c2.943,3.963,5.887,1.177,8.006-0.707s3.062-5.181,0.549-6.907
	c1.099-0.157,2.08-6.437-0.785-7.574c0.471-1.452,0.707-7.183-3.729-7.025C19.626-5.275,2.593,0.729,2.043,9.207
	C1.102,9.953-2.313,16.899,2.554,15.447z"/>
<g>
</g>
<g>
</g>
<g>
</g>
<g>
</g>
<g>
</g>
<g>
</g>
<g>
</g>
<g>
</g>
<g>
</g>
<g>
</g>
<g>
</g>
<g>
</g>
<g>
</g>
<g>
</g>
<g>
</g>
</svg>
