<?xml version="1.0" encoding="iso-8859-1"?>
<!-- Generator: Adobe Illustrator 16.0.0, SVG Export Plug-In . SVG Version: 6.00 Build 0)  -->
<!DOCTYPE svg PUBLIC "-//W3C//DTD SVG 1.1//EN" "http://www.w3.org/Graphics/SVG/1.1/DTD/svg11.dtd">
<svg version="1.1" id="Layer_1" xmlns="http://www.w3.org/2000/svg" xmlns:xlink="http://www.w3.org/1999/xlink" x="0px" y="0px"
	 width="30.552px" height="30.587px" viewBox="0 0 30.552 30.587" style="enable-background:new 0 0 30.552 30.587;"
	 xml:space="preserve">
<path d="M30.171,22.882c-1.731,2.026-2.497,1.58-3.035-0.247c-0.883-2.996-1.156-9.707-4.079-15.315
	c0.396-0.425,0.503-1.067,0.213-1.607c-0.317-0.589-0.996-0.856-1.614-0.678c-0.539-0.751-1.138-1.467-1.816-2.129
	C12.042-4.713,3.965,4.597,1.847,8.688c-0.143,0.245-0.258,0.5-0.35,0.763C1.405,9.688,1.346,9.89,1.324,10.048
	c0,0.001,0,0.003,0,0.003c-0.333,1.528,0,3.113,0.253,3.767c0.011,0.04,0.02,0.082,0.029,0.123c-0.225,0.046-0.578,0.047-0.86-0.353
	c-0.119,0.574,0.547,0.66,0.911,0.665c0.04,0.383-0.009,0.797-0.269,1.188c-0.546,0.819-1.156,1.195-1.353,1.744
	c-0.28,0.768,1.192,0.901,1.192,0.901l0.004,0.291c0,0-0.472,0.458-0.372,0.815C0.994,19.67,1.943,19.5,1.943,19.5
	s-0.912,0.336-0.869,0.78c0.043,0.443,0.424,0.637,0.424,0.637s-0.882,1.733,0.416,2.115c1.298,0.381,3.931-1.202,4.274,0.648
	c0.332,1.277,1.81,4.411,1.297,4.999c-0.512,0.587-1.297,1.487-1.297,1.487l13.47,0.42c0,0-4.16-5.381-4.579-5.99
	c-0.324-0.472,0.536-1.362,1.646-2.516c0.838,2.072,2.59,3.971,5.949,5.266C29.485,30.323,31.488,24.485,30.171,22.882z"/>
<g>
</g>
<g>
</g>
<g>
</g>
<g>
</g>
<g>
</g>
<g>
</g>
<g>
</g>
<g>
</g>
<g>
</g>
<g>
</g>
<g>
</g>
<g>
</g>
<g>
</g>
<g>
</g>
<g>
</g>
</svg>
