<?xml version="1.0" encoding="iso-8859-1"?>
<!-- Generator: Adobe Illustrator 16.0.0, SVG Export Plug-In . SVG Version: 6.00 Build 0)  -->
<!DOCTYPE svg PUBLIC "-//W3C//DTD SVG 1.1//EN" "http://www.w3.org/Graphics/SVG/1.1/DTD/svg11.dtd">
<svg version="1.1" id="Layer_1" xmlns="http://www.w3.org/2000/svg" xmlns:xlink="http://www.w3.org/1999/xlink" x="0px" y="0px"
	 width="24.537px" height="31.764px" viewBox="0 0 24.537 31.764" style="enable-background:new 0 0 24.537 31.764;"
	 xml:space="preserve">
<path d="M24.063,8.254c0-0.553-0.736-0.332-1.032-0.847c-0.295-0.517,0.553-0.738,0-1.695c-0.553-0.959-1.437-0.627-1.51-0.995
	c-0.073-0.369,0.036-0.773-0.886-1.511c-0.92-0.737-2.542-0.774-2.542-0.774S17.319-0.037,16.176,0
	c-1.142,0.037-2.688,1.105-3.389,1.188S9.913,1.032,8.549,1.953C7.186,2.874,7.585,3.386,7.112,4.09c-0.474,0.705,0,2.063,0,2.063
	s-0.737-0.479-0.995,0c-0.258,0.479,0,0.7,0,0.7s-1.18-1.179-4.422,0.995c-2.438,1.635-1.211,3.455-0.451,4.26
	c-0.262,1.419,0.043,2.855,0.278,3.461c0.011,0.039,0.02,0.079,0.028,0.119c-0.217,0.044-0.558,0.044-0.83-0.34
	C0.605,15.902,1.249,15.984,1.6,15.99c0.038,0.369-0.008,0.77-0.26,1.146c-0.527,0.792-1.115,1.154-1.306,1.686
	c-0.271,0.74,1.151,0.869,1.151,0.869l0.003,0.281c0,0-0.455,0.441-0.358,0.787c0.128,0.461,1.046,0.298,1.046,0.298
	s-0.88,0.324-0.839,0.753c0.041,0.428,0.409,0.615,0.409,0.615s-0.852,1.675,0.401,2.042c1.253,0.368,3.796-1.161,4.127,0.626
	c0.32,1.234,1.748,4.261,1.252,4.828c-0.493,0.566-1.252,1.438-1.252,1.438l13.008,0.404c0,0-4.017-5.196-4.422-5.784
	c-0.322-0.47-1.457-2.074-1.162-3.528c0.521,0.367,1.204,0.703,1.637,0.35c-0.849-0.176-0.479-1.502-0.479-1.502
	s0.442,1.879,1.548,1.29c-0.989-0.163-0.7-1.4-0.7-1.4s0.994-1.143,1.363-0.958c0.369,0.184,0.258,0.516,0.516,0
	s-0.11-0.848,0.222-1.119c0.331-0.271,2.543,0.234,3.5-0.355c0.959-0.59,1.143-0.404,0.885-2.1c0.251-0.599,2.542-1.806,2.542-3.354
	s0.405-2.874-0.368-3.832C23.584,9.139,24.063,8.807,24.063,8.254z"/>
<g>
</g>
<g>
</g>
<g>
</g>
<g>
</g>
<g>
</g>
<g>
</g>
<g>
</g>
<g>
</g>
<g>
</g>
<g>
</g>
<g>
</g>
<g>
</g>
<g>
</g>
<g>
</g>
<g>
</g>
</svg>
