<?xml version="1.0" encoding="iso-8859-1"?>
<!-- Generator: Adobe Illustrator 16.0.0, SVG Export Plug-In . SVG Version: 6.00 Build 0)  -->
<!DOCTYPE svg PUBLIC "-//W3C//DTD SVG 1.1//EN" "http://www.w3.org/Graphics/SVG/1.1/DTD/svg11.dtd">
<svg version="1.1" id="Layer_1" xmlns="http://www.w3.org/2000/svg" xmlns:xlink="http://www.w3.org/1999/xlink" x="0px" y="0px"
	 width="17.545px" height="30.362px" viewBox="0 0 17.545 30.362" style="enable-background:new 0 0 17.545 30.362;"
	 xml:space="preserve">
<g>
	<path d="M15.687,24.818l-1.066-2.758c0,0,1.104,0.607,1.49,2.593c0.865-0.698-1.379-4.358-1.256-5.098
		c0.124-0.739,0.354-3.731,0.833-4.999c0.335-0.889,0.426-3.109,0.292-4.604c0.324,0.104,0.618,0.194,0.849,0.247
		c0.91,0.205-0.492-1.568-1.375-2.742C14.655,7.389,11.453,7.162,8.8,7.689c-2.581,0.513-6.84,2.258-8.158,2.813
		c0.068,0.447-0.053,1.158-0.11,1.389c-0.01,0.043,0.166,0.012,0.474-0.068c-0.494,0.74-1.208,2.084-0.951,3.396
		c0.382,1.948,0.698,4.357,1.379,4.304c-0.202-1.195,0.552-0.772,0.552-0.772s1.122,2.611,1.417,3.845s0.417,5.015-0.368,4.817
		c-0.036,1.104,0.993,0,0.993,0s0.626,1.288-1.49,2.428c2.999,0.773,2.373-4.91,2.373-4.91s0.848,2.346,0,3.311
		c1.067,0.093,0.882-1.896,0.882-1.896s0.661,1.987,2.079,1.068c-1.108,0.008-2.905-3.973-2.905-3.973s1.673,3.349,3.403,3.569
		c-2.754-2.456-2.741-5.556-2.741-5.556s0.572,2.355,1.932,1.656c-1.859-0.911-1.686-2.828-1.686-2.828s2.089,1.356,2.384-0.078
		c-0.628,0.644-3.798-1.541-3.513-2.888c0.19-0.901,0.989-4.69,1.498-7.103c1.012-0.309,2.014-0.604,2.873-0.827l5.01,2.524
		c0,0-0.699,1.377-0.422,2.666c0.276,1.287-3.09,4.542-3.494,5.885c-0.404,1.344-0.737,4.229,0.109,5.958s2.759,0.855,2.979,1.104
		c0.221,0.249,0.51,2.579-0.386,2.317c0.758,0.814,1.085-0.846,1.085-0.846s0.597,1.163-0.023,1.353
		c0.745,0.169,0.648-1.059,0.648-1.059s0.698,1.36,1.545,0.772c-1.43-0.58-0.883-2.648-0.883-2.648s0.956,2.832,2.262,2.262
		C15.984,28.846,15.687,24.818,15.687,24.818z"/>
	<path d="M8.628,6.823c2.292-0.455,4.883-0.381,6.214-0.298c-0.49-1.45-0.887-7.999-8.13-6.223c-6.553,1.608-6.603,7.502-6.32,9.346
		C1.833,9.043,5.994,7.347,8.628,6.823z"/>
</g>
<g>
</g>
<g>
</g>
<g>
</g>
<g>
</g>
<g>
</g>
<g>
</g>
<g>
</g>
<g>
</g>
<g>
</g>
<g>
</g>
<g>
</g>
<g>
</g>
<g>
</g>
<g>
</g>
<g>
</g>
</svg>
