<?xml version="1.0" encoding="iso-8859-1"?>
<!-- Generator: Adobe Illustrator 16.0.0, SVG Export Plug-In . SVG Version: 6.00 Build 0)  -->
<!DOCTYPE svg PUBLIC "-//W3C//DTD SVG 1.1//EN" "http://www.w3.org/Graphics/SVG/1.1/DTD/svg11.dtd">
<svg version="1.1" id="Layer_1" xmlns="http://www.w3.org/2000/svg" xmlns:xlink="http://www.w3.org/1999/xlink" x="0px" y="0px"
	 width="15.262px" height="31.829px" viewBox="0 0 15.262 31.829" style="enable-background:new 0 0 15.262 31.829;"
	 xml:space="preserve">
<path d="M14.562,5.46C13.609,2.292,10.848,0,7.585,0C4.258,0,1.452,2.385,0.554,5.649H0v4.426h0.553
	c0.833,2.913,3.318,4.854,6.337,5.114v0.785c-1.73,0.064-3.32,0.297-3.557,0.611c0,0.312,0,6.642,0,7.759H2.586v1.563h3.828v4.424
	h-5.75v1.497h1.259h11.555h0.796v-1.497H8.848v-4.424h3.504v-1.563h-0.749c0-1.102,0-7.264,0-7.759
	c-0.374-0.4-1.725-0.586-3.23-0.621v-0.786c3.041-0.298,5.521-2.307,6.292-5.293h0.597V5.46H14.562z M7.585,14.007
	c-2.779,0-5.032-1.699-5.032-4.185c0-2.486,2.253-4.504,5.032-4.504c2.778,0,5.031,2.018,5.031,4.504
	C12.616,12.308,10.363,14.007,7.585,14.007z"/>
<g>
</g>
<g>
</g>
<g>
</g>
<g>
</g>
<g>
</g>
<g>
</g>
<g>
</g>
<g>
</g>
<g>
</g>
<g>
</g>
<g>
</g>
<g>
</g>
<g>
</g>
<g>
</g>
<g>
</g>
</svg>
