<?xml version="1.0" encoding="iso-8859-1"?>
<!-- Generator: Adobe Illustrator 16.0.0, SVG Export Plug-In . SVG Version: 6.00 Build 0)  -->
<!DOCTYPE svg PUBLIC "-//W3C//DTD SVG 1.1//EN" "http://www.w3.org/Graphics/SVG/1.1/DTD/svg11.dtd">
<svg version="1.1" id="Layer_1" xmlns="http://www.w3.org/2000/svg" xmlns:xlink="http://www.w3.org/1999/xlink" x="0px" y="0px"
	 width="20.56px" height="31.574px" viewBox="0 0 20.56 31.574" style="enable-background:new 0 0 20.56 31.574;"
	 xml:space="preserve">
<g>
	<rect y="30.139" width="8.991" height="1.436"/>
	<path d="M8.665,5.515H7.264V4.481H5.195V0L4.76,0.257c0,0-0.401,0.137-0.561,0.331C4.006,0.493,3.711,0.803,3.565,0.962
		C3.454,0.866,3.047,1.16,2.903,1.353C2.778,1.239,2.417,1.501,2.298,1.711C2.161,1.478,1.691,2.068,1.691,2.068v3.446H0.327
		l0.047,0.792H0v23.359h8.991V6.307H8.665V5.515z M2.248,28.257H1.11V7.949h1.138V28.257z"/>
	<path d="M11.39,22.186v8.671h9.17v-8.671H11.39z M13.681,30.441h-1.157v-7.771h1.157V30.441z"/>
</g>
<g>
</g>
<g>
</g>
<g>
</g>
<g>
</g>
<g>
</g>
<g>
</g>
<g>
</g>
<g>
</g>
<g>
</g>
<g>
</g>
<g>
</g>
<g>
</g>
<g>
</g>
<g>
</g>
<g>
</g>
</svg>
