<?xml version="1.0" encoding="iso-8859-1"?>
<!-- Generator: Adobe Illustrator 16.0.0, SVG Export Plug-In . SVG Version: 6.00 Build 0)  -->
<!DOCTYPE svg PUBLIC "-//W3C//DTD SVG 1.1//EN" "http://www.w3.org/Graphics/SVG/1.1/DTD/svg11.dtd">
<svg version="1.1" id="Layer_1" xmlns="http://www.w3.org/2000/svg" xmlns:xlink="http://www.w3.org/1999/xlink" x="0px" y="0px"
	 width="31.952px" height="32.001px" viewBox="0 0 31.952 32.001" style="enable-background:new 0 0 31.952 32.001;"
	 xml:space="preserve">
<g>
	<path d="M30.975,16.648c0.009-0.21,0.032-0.415,0.032-0.627c0-0.188-0.021-0.37-0.028-0.557c0.075-0.362,0.256-0.733,0.43-1.074
		c0.173-0.383,0.351-0.725,0.39-0.918c0.158-0.642-0.215-1.028-0.625-1.277c-0.292-0.181-0.6-0.301-0.793-0.433
		c-0.109-0.368-0.24-0.726-0.376-1.081c-0.039-0.384-0.001-0.804,0.031-1.188c0.05-0.423,0.115-0.809,0.095-1.007
		c-0.183-1.126-1.371-1.011-1.927-1.15c-0.222-0.312-0.449-0.618-0.693-0.91c-0.368-0.692-0.399-1.772-0.599-2.094
		c-0.502-1.039-1.618-0.507-2.182-0.47c-0.312-0.225-0.632-0.433-0.96-0.63c-0.548-0.577-0.965-1.521-1.239-1.804
		c-0.451-0.478-0.989-0.355-1.413-0.171c-0.31,0.136-0.578,0.333-0.798,0.432c-0.385-0.114-0.775-0.218-1.173-0.302
		c-0.692-0.351-1.363-1.125-1.705-1.272c-0.586-0.268-1.05-0.029-1.391,0.286c-0.247,0.248-0.437,0.525-0.612,0.688
		c-0.396,0.017-0.79,0.039-1.178,0.086c-0.776-0.088-1.683-0.637-2.058-0.646c-0.646-0.08-1.013,0.281-1.221,0.727
		c-0.156,0.311-0.247,0.633-0.363,0.838c-0.361,0.142-0.712,0.298-1.06,0.466C8.778,2.704,7.763,2.539,7.378,2.613
		C6.73,2.73,6.54,3.248,6.464,3.703c-0.058,0.336-0.038,0.673-0.076,0.91c-0.304,0.258-0.6,0.522-0.881,0.802
		c-0.666,0.397-1.712,0.52-2.01,0.74c-0.984,0.598-0.375,1.656-0.287,2.22c-0.198,0.33-0.383,0.668-0.556,1.014
		c-0.238,0.289-0.589,0.53-0.896,0.756c-0.336,0.253-0.657,0.468-0.785,0.621c-0.451,0.487-0.283,1.012-0.054,1.421
		c0.173,0.299,0.378,0.547,0.487,0.754c-0.08,0.385-0.135,0.775-0.186,1.167c-0.316,0.727-0.978,1.479-1.146,1.836
		c-0.366,1.07,0.708,1.536,1.136,1.925c0.05,0.403,0.106,0.806,0.188,1.201c-0.037,0.77-0.503,1.696-0.479,2.062
		c-0.036,1.151,1.179,1.221,1.702,1.452c0.169,0.348,0.352,0.687,0.548,1.019c0.113,0.357,0.124,0.782,0.144,1.166
		c0.029,0.42,0.034,0.805,0.091,0.995c0.162,0.644,0.693,0.789,1.16,0.823c0.347,0.02,0.667-0.017,0.904,0.005
		c0.275,0.274,0.568,0.533,0.863,0.786c0.448,0.647,0.69,1.657,0.915,1.971c0.389,0.515,0.911,0.525,1.361,0.41
		c0.338-0.102,0.639-0.257,0.871-0.314c0.349,0.172,0.704,0.333,1.068,0.479c0.306,0.209,0.58,0.521,0.824,0.825
		c0.277,0.324,0.523,0.61,0.685,0.726c0.263,0.191,0.521,0.25,0.76,0.23c0.242-0.037,0.463-0.154,0.661-0.291
		c0.284-0.196,0.515-0.433,0.713-0.558c0.385,0.048,0.775,0.074,1.169,0.094c0.752,0.25,1.559,0.87,1.93,0.987
		c0.626,0.22,1.039-0.159,1.324-0.522c0.205-0.271,0.349-0.56,0.495-0.747c0.392-0.082,0.776-0.186,1.156-0.299
		c0.784-0.014,1.748,0.327,2.13,0.313c0.643-0.046,0.938-0.479,1.086-0.918c0.101-0.339,0.134-0.678,0.212-0.904
		c0.324-0.193,0.643-0.394,0.951-0.61c0.35-0.154,0.771-0.221,1.173-0.26c0.422-0.056,0.797-0.103,0.983-0.175
		c0.62-0.222,0.746-0.737,0.726-1.222c-0.008-0.347-0.08-0.674-0.073-0.908c0.244-0.287,0.471-0.587,0.693-0.893
		c0.135-0.115,0.281-0.222,0.448-0.313c0.182-0.117,0.378-0.22,0.57-0.315c0.382-0.189,0.742-0.344,0.897-0.469
		c0.841-0.768,0.102-1.697-0.086-2.24c0.141-0.363,0.279-0.728,0.393-1.103c0.381-0.679,1.258-1.286,1.413-1.627
		C32.36,17.738,31.327,17.1,30.975,16.648z M16.046,29.332c-7.339,0-13.311-5.971-13.311-13.311c0-7.339,5.972-13.311,13.311-13.311
		s13.31,5.972,13.31,13.311C29.356,23.361,23.386,29.332,16.046,29.332z"/>
	<path d="M13.592,16.75c0,0-1.67-0.867-2.914-1.506c-0.281,0.141-0.537,0.267-0.736,0.364l3.8,1.311L13.592,16.75z"/>
	<path d="M6.436,13.972c0.001,0,0.004,0,0.006,0.001c-0.004,0.002-0.007,0.002-0.007,0.002l3.02,1.038l0,0.002l0.157-0.311
		c-0.139-0.07-0.23-0.113-0.252-0.122c-1.039-0.536-1.475-1.666-1.505-1.747c-0.087-0.379-0.398-0.705-0.816-0.833
		c-0.291-0.09-0.596-0.074-0.859,0.044c-0.27,0.122-0.464,0.335-0.546,0.603c-0.026,0.087-0.04,0.175-0.041,0.266
		C5.589,13.385,5.937,13.819,6.436,13.972z M5.954,12.745c0.053-0.173,0.182-0.313,0.364-0.395c0.189-0.085,0.411-0.095,0.625-0.031
		c0.359,0.11,0.609,0.413,0.605,0.735c0,0.059-0.009,0.117-0.026,0.173c-0.053,0.173-0.182,0.313-0.363,0.396
		c-0.189,0.084-0.411,0.095-0.624,0.029c-0.36-0.11-0.609-0.413-0.606-0.736C5.928,12.858,5.937,12.802,5.954,12.745z"/>
	<path d="M13.769,13.449l-4.033,1.323l-0.272,0.538l-2.987,0.944c-0.02,0.004-0.039,0.009-0.06,0.014
		c-0.509,0.141-0.868,0.57-0.872,1.045c-0.001,0.087,0.011,0.172,0.034,0.255c0.074,0.271,0.262,0.489,0.529,0.618
		c0.259,0.125,0.564,0.15,0.857,0.068c0.434-0.119,0.757-0.448,0.846-0.838c0.05-0.121,0.515-1.182,1.545-1.677
		c0.175-0.056,4.271-2.127,4.271-2.127L13.769,13.449z M6.876,17.934c-0.215,0.06-0.436,0.042-0.624-0.047
		C6.074,17.8,5.949,17.656,5.9,17.479c-0.014-0.053-0.021-0.107-0.021-0.163c0.003-0.326,0.261-0.624,0.626-0.725
		c0.216-0.061,0.438-0.043,0.624,0.047c0.18,0.086,0.305,0.231,0.353,0.405c0.014,0.054,0.022,0.108,0.021,0.163
		C7.5,17.533,7.243,17.833,6.876,17.934z M9.963,15.258c-0.098,0-0.176-0.08-0.174-0.176c0-0.099,0.08-0.177,0.177-0.175
		c0.097,0,0.175,0.08,0.174,0.177C10.14,15.181,10.061,15.26,9.963,15.258z"/>
	<path d="M17.581,13.619c0,0,1.67,0.867,2.915,1.503c0.281-0.139,0.535-0.266,0.735-0.363l-3.801-1.31L17.581,13.619z"/>
	<path d="M24.736,16.395c-0.002,0-0.004,0-0.006,0c0.004-0.002,0.007-0.003,0.007-0.003l-3.02-1.038l-0.001-0.002l-0.157,0.313
		c0.14,0.069,0.23,0.113,0.252,0.121c1.039,0.535,1.475,1.665,1.505,1.746c0.087,0.381,0.397,0.707,0.816,0.835
		c0.292,0.09,0.596,0.072,0.859-0.045c0.271-0.12,0.464-0.335,0.546-0.603c0.026-0.086,0.04-0.176,0.041-0.267
		C25.583,16.983,25.235,16.549,24.736,16.395z M25.218,17.62c-0.053,0.176-0.182,0.315-0.365,0.397
		c-0.188,0.084-0.41,0.096-0.623,0.029c-0.359-0.11-0.609-0.412-0.606-0.735c0-0.059,0.009-0.115,0.026-0.171
		c0.053-0.173,0.182-0.313,0.364-0.396c0.188-0.084,0.41-0.095,0.624-0.03c0.36,0.11,0.61,0.412,0.606,0.735
		C25.244,17.508,25.235,17.565,25.218,17.62z"/>
	<path d="M25.064,12.182c-0.26-0.126-0.564-0.15-0.857-0.069c-0.434,0.119-0.757,0.449-0.846,0.837
		c-0.051,0.121-0.516,1.183-1.546,1.679c-0.174,0.057-4.271,2.126-4.271,2.126l-0.141,0.165l4.033-1.324l0.272-0.539l2.987-0.943
		c0.02-0.005,0.039-0.009,0.06-0.015c0.51-0.141,0.868-0.569,0.872-1.043c0-0.087-0.011-0.174-0.034-0.257
		C25.518,12.529,25.331,12.31,25.064,12.182z M21.206,15.461c-0.097-0.001-0.175-0.08-0.174-0.178s0.08-0.176,0.177-0.175
		c0.098,0.001,0.176,0.08,0.175,0.177C21.383,15.383,21.304,15.462,21.206,15.461z M24.667,13.776
		c-0.216,0.06-0.438,0.043-0.624-0.047c-0.179-0.087-0.305-0.23-0.353-0.406c-0.014-0.053-0.022-0.107-0.021-0.163
		c0.003-0.327,0.26-0.625,0.627-0.727c0.215-0.059,0.436-0.043,0.623,0.048c0.18,0.087,0.304,0.23,0.354,0.405
		c0.015,0.054,0.021,0.109,0.02,0.164C25.291,13.377,25.033,13.676,24.667,13.776z"/>
	<path d="M14.244,13.25c0,0,0.867-1.67,1.505-2.915c-0.14-0.281-0.266-0.535-0.364-0.735L14.074,13.4L14.244,13.25z"/>
	<path d="M16.41,9.019c0.536-1.039,1.666-1.475,1.747-1.504c0.38-0.088,0.706-0.398,0.834-0.817c0.089-0.29,0.073-0.596-0.045-0.859
		c-0.121-0.27-0.335-0.464-0.602-0.545c-0.086-0.026-0.175-0.04-0.266-0.041c-0.47-0.005-0.905,0.343-1.058,0.842
		C17.02,6.096,17.02,6.098,17.02,6.1c-0.002-0.004-0.002-0.006-0.002-0.006l-1.038,3.02h-0.002l0.311,0.158
		C16.358,9.133,16.402,9.041,16.41,9.019z M17.34,6.192c0.111-0.36,0.413-0.61,0.736-0.607c0.058,0.001,0.116,0.01,0.171,0.026
		c0.174,0.054,0.313,0.183,0.396,0.364c0.085,0.189,0.095,0.411,0.03,0.624c-0.11,0.359-0.413,0.609-0.736,0.607
		c-0.059,0-0.115-0.01-0.17-0.027c-0.173-0.054-0.314-0.183-0.396-0.364C17.285,6.627,17.275,6.406,17.34,6.192z"/>
	<path d="M13.575,7.47c0.122,0.051,1.183,0.516,1.678,1.546c0.056,0.174,2.126,4.271,2.126,4.271l0.164,0.14l-1.324-4.033
		l-0.538-0.271l-0.944-2.986c-0.004-0.021-0.008-0.04-0.014-0.06c-0.14-0.511-0.57-0.869-1.044-0.872
		c-0.086-0.001-0.172,0.011-0.256,0.033c-0.269,0.075-0.487,0.262-0.616,0.53c-0.126,0.258-0.15,0.563-0.07,0.856
		C12.857,7.057,13.187,7.381,13.575,7.47z M15.911,9.447c0.097,0,0.175,0.08,0.174,0.178c-0.001,0.097-0.08,0.175-0.177,0.174
		c-0.097-0.001-0.176-0.08-0.175-0.178C15.735,9.523,15.814,9.445,15.911,9.447z M13.107,5.911c0.086-0.179,0.23-0.304,0.406-0.353
		c0.053-0.016,0.107-0.021,0.164-0.021c0.327,0.002,0.624,0.26,0.726,0.626c0.06,0.216,0.042,0.437-0.047,0.622
		c-0.086,0.18-0.231,0.306-0.406,0.353c-0.054,0.016-0.109,0.023-0.164,0.021c-0.326-0.002-0.625-0.259-0.726-0.626
		C13,6.32,13.017,6.098,13.107,5.911z"/>
	<path d="M16.234,20.889l1.31-3.801l-0.17,0.15c0,0-0.867,1.67-1.504,2.915C16.009,20.434,16.136,20.688,16.234,20.889z"/>
	<path d="M15.208,21.47c-0.537,1.04-1.666,1.475-1.747,1.505c-0.38,0.087-0.706,0.396-0.835,0.817
		c-0.089,0.289-0.073,0.595,0.045,0.858c0.121,0.27,0.335,0.464,0.602,0.546c0.086,0.025,0.175,0.04,0.266,0.04
		c0.469,0.004,0.904-0.343,1.057-0.842c0.001-0.002,0.001-0.005,0.001-0.007c0.003,0.005,0.003,0.008,0.003,0.008l1.038-3.02
		l0.001-0.001l-0.31-0.156C15.259,21.357,15.216,21.448,15.208,21.47z M14.277,24.297c-0.109,0.359-0.413,0.608-0.735,0.606
		c-0.058-0.001-0.116-0.01-0.17-0.026c-0.175-0.054-0.314-0.182-0.396-0.365c-0.085-0.188-0.095-0.409-0.03-0.622
		c0.11-0.36,0.413-0.61,0.735-0.606c0.058,0,0.116,0.008,0.171,0.025c0.173,0.053,0.313,0.182,0.395,0.364
		C14.333,23.861,14.342,24.083,14.277,24.297z"/>
	<path d="M18.043,23.019c-0.122-0.051-1.183-0.515-1.678-1.545c-0.056-0.175-2.126-4.271-2.126-4.271l-0.164-0.141l1.323,4.032
		l0.538,0.273l0.944,2.986c0.005,0.02,0.008,0.039,0.015,0.06c0.139,0.51,0.57,0.868,1.043,0.872c0.086,0,0.173-0.011,0.256-0.033
		c0.269-0.074,0.487-0.262,0.616-0.529c0.126-0.261,0.15-0.564,0.069-0.858C18.761,23.43,18.43,23.108,18.043,23.019z
		 M15.707,21.041c-0.097,0-0.175-0.079-0.174-0.177c0.001-0.097,0.08-0.176,0.177-0.175c0.098,0.001,0.175,0.08,0.175,0.177
		C15.883,20.965,15.804,21.043,15.707,21.041z M18.511,24.575c-0.087,0.181-0.231,0.306-0.406,0.354
		c-0.053,0.015-0.107,0.021-0.163,0.021c-0.326-0.002-0.625-0.26-0.727-0.626c-0.06-0.216-0.042-0.438,0.048-0.623
		c0.085-0.181,0.23-0.306,0.405-0.354c0.054-0.015,0.108-0.022,0.164-0.021c0.327,0.003,0.625,0.261,0.726,0.627
		C18.617,24.169,18.602,24.39,18.511,24.575z"/>
</g>
<g>
</g>
<g>
</g>
<g>
</g>
<g>
</g>
<g>
</g>
<g>
</g>
<g>
</g>
<g>
</g>
<g>
</g>
<g>
</g>
<g>
</g>
<g>
</g>
<g>
</g>
<g>
</g>
<g>
</g>
</svg>
