<?xml version="1.0" encoding="iso-8859-1"?>
<!-- Generator: Adobe Illustrator 16.0.0, SVG Export Plug-In . SVG Version: 6.00 Build 0)  -->
<!DOCTYPE svg PUBLIC "-//W3C//DTD SVG 1.1//EN" "http://www.w3.org/Graphics/SVG/1.1/DTD/svg11.dtd">
<svg version="1.1" id="Layer_1" xmlns="http://www.w3.org/2000/svg" xmlns:xlink="http://www.w3.org/1999/xlink" x="0px" y="0px"
	 width="28.918px" height="24.22px" viewBox="0 0 28.918 24.22" style="enable-background:new 0 0 28.918 24.22;"
	 xml:space="preserve">
<g>
	<path d="M26.636,6.676H2.275C0.847,8.495,0,11.279,0,14.402c0,4.121,1.474,7.655,3.813,9.153H5.28v0.665h18.338v-0.665h1.466
		c2.354-1.488,3.834-5.019,3.834-9.153C28.918,11.274,28.068,8.492,26.636,6.676z M3.766,15.446
		c0.028,0.206,0.044,0.411,0.068,0.618c0.038,0.21,0.072,0.42,0.104,0.629c0.044,0.207,0.088,0.41,0.131,0.612
		c0.053,0.199,0.104,0.396,0.154,0.588c0.059,0.191,0.116,0.379,0.171,0.562c0.123,0.362,0.242,0.707,0.366,1.023
		c0.134,0.314,0.257,0.602,0.365,0.857c0.121,0.254,0.227,0.476,0.314,0.657c0.182,0.364,0.298,0.574,0.298,0.574
		s-0.202-0.13-0.509-0.414c-0.152-0.142-0.335-0.319-0.527-0.539c-0.194-0.218-0.404-0.474-0.61-0.77
		c-0.101-0.151-0.206-0.308-0.314-0.47c-0.098-0.17-0.198-0.346-0.302-0.525c-0.092-0.188-0.186-0.381-0.282-0.578
		c-0.082-0.204-0.167-0.412-0.252-0.625c-0.07-0.22-0.141-0.442-0.213-0.666c-0.058-0.23-0.112-0.465-0.165-0.701
		c-0.041-0.244-0.081-0.496-0.112-0.748c-0.024-0.242-0.033-0.465-0.049-0.699c-0.007-0.529,0.011-1.005,0.09-1.496
		c0.07-0.484,0.187-0.954,0.338-1.392c0.298-0.879,0.726-1.634,1.167-2.211C4.211,9.438,4.436,9.191,4.64,8.982
		c0.203-0.211,0.398-0.377,0.56-0.51c0.325-0.265,0.538-0.376,0.538-0.376S5.604,8.293,5.398,8.644s-0.476,0.857-0.746,1.473
		c-0.262,0.62-0.521,1.351-0.692,2.146c-0.087,0.397-0.152,0.811-0.191,1.231c-0.042,0.414-0.05,0.867-0.041,1.264
		C3.743,14.987,3.747,15.229,3.766,15.446z"/>
	<path d="M26.225,2.564c0,0-2.703-2.564-11.476-2.564C5.975,0,2.398,2.564,2.398,2.564v3.374h23.826V2.564z"/>
</g>
<g>
</g>
<g>
</g>
<g>
</g>
<g>
</g>
<g>
</g>
<g>
</g>
<g>
</g>
<g>
</g>
<g>
</g>
<g>
</g>
<g>
</g>
<g>
</g>
<g>
</g>
<g>
</g>
<g>
</g>
</svg>
