<?xml version="1.0" encoding="iso-8859-1"?>
<!-- Generator: Adobe Illustrator 16.0.0, SVG Export Plug-In . SVG Version: 6.00 Build 0)  -->
<!DOCTYPE svg PUBLIC "-//W3C//DTD SVG 1.1//EN" "http://www.w3.org/Graphics/SVG/1.1/DTD/svg11.dtd">
<svg version="1.1" id="Layer_1" xmlns="http://www.w3.org/2000/svg" xmlns:xlink="http://www.w3.org/1999/xlink" x="0px" y="0px"
	 width="32px" height="32.048px" viewBox="0 0 32 32.048" style="enable-background:new 0 0 32 32.048;" xml:space="preserve">
<g>
	<path d="M31.022,16.672c0.009-0.209,0.032-0.415,0.032-0.627c0-0.189-0.021-0.371-0.029-0.559c0.075-0.362,0.257-0.734,0.431-1.076
		c0.173-0.382,0.352-0.725,0.391-0.919c0.159-0.642-0.215-1.029-0.626-1.278c-0.293-0.183-0.602-0.301-0.794-0.434
		c-0.11-0.368-0.241-0.728-0.377-1.084c-0.039-0.384-0.002-0.804,0.031-1.188c0.05-0.424,0.116-0.811,0.095-1.01
		c-0.184-1.127-1.373-1.012-1.93-1.152c-0.223-0.311-0.45-0.618-0.694-0.911c-0.368-0.692-0.4-1.774-0.6-2.097
		c-0.503-1.04-1.62-0.508-2.185-0.471c-0.312-0.224-0.633-0.432-0.962-0.631c-0.549-0.578-0.967-1.521-1.241-1.805
		c-0.453-0.479-0.991-0.356-1.415-0.172c-0.31,0.135-0.578,0.333-0.799,0.432c-0.385-0.115-0.776-0.219-1.175-0.303
		c-0.693-0.351-1.365-1.126-1.708-1.273c-0.587-0.268-1.052-0.029-1.393,0.286c-0.248,0.249-0.437,0.526-0.613,0.69
		c-0.396,0.016-0.791,0.039-1.179,0.086c-0.777-0.089-1.685-0.639-2.061-0.648C11.576,0.449,11.208,0.812,11,1.258
		c-0.157,0.311-0.248,0.633-0.364,0.839c-0.362,0.142-0.713,0.298-1.061,0.467c-0.783,0.144-1.8-0.022-2.185,0.053
		C6.74,2.733,6.55,3.252,6.474,3.708C6.416,4.043,6.437,4.381,6.398,4.619c-0.304,0.258-0.6,0.522-0.883,0.803
		C4.849,5.82,3.801,5.942,3.503,6.163C2.518,6.762,3.127,7.821,3.216,8.385C3.018,8.717,2.833,9.055,2.66,9.402
		c-0.239,0.289-0.59,0.53-0.898,0.756c-0.336,0.254-0.658,0.47-0.787,0.622c-0.451,0.488-0.283,1.014-0.054,1.423
		c0.174,0.3,0.378,0.548,0.488,0.757c-0.08,0.384-0.136,0.775-0.187,1.168c-0.316,0.727-0.979,1.48-1.148,1.839
		c-0.366,1.071,0.71,1.539,1.138,1.927c0.05,0.404,0.106,0.808,0.188,1.202c-0.037,0.771-0.504,1.7-0.479,2.066
		c-0.037,1.152,1.181,1.222,1.704,1.454c0.17,0.348,0.353,0.688,0.549,1.02c0.113,0.358,0.125,0.784,0.144,1.168
		c0.029,0.42,0.034,0.807,0.091,0.997c0.162,0.645,0.694,0.79,1.162,0.824c0.347,0.02,0.668-0.018,0.905,0.005
		c0.276,0.275,0.569,0.534,0.865,0.786c0.449,0.649,0.691,1.66,0.916,1.975c0.39,0.516,0.912,0.527,1.364,0.411
		c0.338-0.102,0.641-0.258,0.872-0.315c0.35,0.172,0.706,0.334,1.07,0.479c0.306,0.21,0.581,0.521,0.825,0.826
		c0.277,0.325,0.523,0.612,0.686,0.728c0.263,0.19,0.522,0.25,0.761,0.23c0.242-0.038,0.464-0.154,0.662-0.292
		c0.284-0.195,0.516-0.433,0.714-0.558c0.386,0.048,0.777,0.074,1.171,0.093c0.753,0.251,1.561,0.872,1.933,0.989
		c0.627,0.221,1.04-0.16,1.325-0.522c0.206-0.272,0.35-0.562,0.496-0.749c0.393-0.082,0.777-0.186,1.158-0.298
		c0.785-0.015,1.75,0.326,2.133,0.313c0.644-0.046,0.938-0.479,1.088-0.919c0.101-0.339,0.134-0.678,0.213-0.905
		c0.324-0.194,0.644-0.395,0.952-0.612c0.351-0.154,0.773-0.221,1.175-0.259c0.423-0.056,0.799-0.104,0.984-0.176
		c0.621-0.223,0.747-0.739,0.727-1.224c-0.008-0.348-0.08-0.674-0.073-0.909c0.244-0.288,0.471-0.589,0.694-0.896
		c0.135-0.113,0.281-0.221,0.449-0.312c0.183-0.117,0.379-0.221,0.571-0.316c0.383-0.189,0.744-0.345,0.899-0.47
		c0.842-0.769,0.102-1.699-0.086-2.244c0.142-0.363,0.279-0.729,0.393-1.104c0.382-0.679,1.26-1.288,1.416-1.629
		C32.41,17.764,31.375,17.124,31.022,16.672z M16.071,29.375c-7.351,0-13.331-5.979-13.331-13.33S8.72,2.714,16.071,2.714
		s13.33,5.98,13.33,13.331S23.421,29.375,16.071,29.375z"/>
	<path d="M20.242,11.293C19.88,9.457,16.731,8.369,16,9.746c-0.73-1.377-3.879-0.289-4.241,1.547
		c-0.473,1.92-2.978,2.448-4.368,1.446c0,2.17,2.337,2.197,3.783,2.337c3.425-0.15,4.508-1.729,4.826-2.45
		c0.32,0.721,1.402,2.3,4.827,2.45c1.446-0.14,3.783-0.167,3.783-2.337C23.218,13.741,20.715,13.213,20.242,11.293z"/>
	<path d="M15.952,13.406c-1.896,2.591-5.704,2.004-5.704,2.004s-0.18,3.549,0.938,4.476c-0.069,4.131,4.401,5.038,5.521,5.108
		c1.121,0.07,3.261-1.274,2.809-2.097c0.916-0.898,1.216-2.003,1.121-3.081c0.979-0.141,0.432-4.313,0.432-4.313
		S17.172,15.646,15.952,13.406z"/>
	<path d="M16.109,4.258c-6.568,0-11.912,5.344-11.912,11.912c0,6.569,5.344,11.913,11.912,11.913
		c6.569,0,11.913-5.344,11.913-11.913C28.021,9.602,22.678,4.258,16.109,4.258z M16.109,27.627c-6.317,0-11.456-5.14-11.456-11.457
		c0-6.316,5.139-11.456,11.456-11.456c6.317,0,11.457,5.14,11.457,11.456C27.565,22.487,22.426,27.627,16.109,27.627z"/>
</g>
<g>
</g>
<g>
</g>
<g>
</g>
<g>
</g>
<g>
</g>
<g>
</g>
<g>
</g>
<g>
</g>
<g>
</g>
<g>
</g>
<g>
</g>
<g>
</g>
<g>
</g>
<g>
</g>
<g>
</g>
</svg>
