<?xml version="1.0" encoding="iso-8859-1"?>
<!-- Generator: Adobe Illustrator 16.0.0, SVG Export Plug-In . SVG Version: 6.00 Build 0)  -->
<!DOCTYPE svg PUBLIC "-//W3C//DTD SVG 1.1//EN" "http://www.w3.org/Graphics/SVG/1.1/DTD/svg11.dtd">
<svg version="1.1" id="Layer_1" xmlns="http://www.w3.org/2000/svg" xmlns:xlink="http://www.w3.org/1999/xlink" x="0px" y="0px"
	 width="37.06px" height="28.392px" viewBox="0 0 37.06 28.392" style="enable-background:new 0 0 37.06 28.392;"
	 xml:space="preserve">
<g>
	<polygon points="12.391,13.782 12.059,12.816 12.052,12.816 11.709,13.782 	"/>
	<path d="M15.869,12.618h-0.634v0.74h0.634c0.13,0,0.229-0.029,0.296-0.089c0.067-0.059,0.101-0.154,0.101-0.287
		c0-0.127-0.034-0.221-0.101-0.278S15.999,12.618,15.869,12.618z"/>
	<path d="M37.06,11.448h-4.8C30.975,4.932,25.223,0,18.336,0C11.267,0,5.404,5.2,4.332,11.974H0l2.197,4.39L0,19.717h5.257
		c2.158,5.094,7.208,8.675,13.079,8.675c6.067,0,11.244-3.834,13.271-9.201h5.453l-2.197-3.353L37.06,11.448z M31.065,10.407H20.438
		l2.931-8.502C27.057,3.421,29.915,6.548,31.065,10.407z M29.48,13.218v0.45h-1.275v0.645h1.418v0.486h-1.997v-2.631h1.968v0.486
		h-1.389v0.563H29.48z M27.301,14.313v0.486h-1.86v-2.631h0.579v2.145H27.301z M22.697,12.168h0.652l0.615,1.039l0.611-1.039h0.646
		l-0.977,1.622v1.009h-0.579v-1.024L22.697,12.168z M20.526,12.654v-0.486h2.155v0.486h-0.788v2.145h-0.579v-2.145H20.526z
		 M18.336,0.909c1.72,0,3.36,0.339,4.871,0.938l-0.239,0.211c0,0-2.445,4.711-4.311,8.35h-0.685c-1.833-3.675-4.25-8.458-4.25-8.458
		L13.56,1.812C15.045,1.236,16.651,0.909,18.336,0.909z M19.761,13.911c-0.045-0.044-0.105-0.081-0.179-0.112
		c-0.073-0.03-0.157-0.057-0.25-0.077c-0.093-0.021-0.188-0.046-0.284-0.072c-0.098-0.024-0.193-0.055-0.287-0.091
		c-0.094-0.035-0.178-0.081-0.251-0.137c-0.074-0.058-0.133-0.127-0.178-0.211c-0.045-0.083-0.068-0.187-0.068-0.31
		c0-0.135,0.029-0.252,0.087-0.352s0.133-0.183,0.227-0.249c0.093-0.066,0.199-0.115,0.317-0.146
		c0.118-0.032,0.236-0.049,0.353-0.049c0.138,0,0.27,0.016,0.397,0.047c0.126,0.029,0.239,0.08,0.336,0.148
		c0.099,0.068,0.177,0.156,0.234,0.264c0.058,0.106,0.087,0.236,0.087,0.389h-0.56c-0.005-0.078-0.022-0.144-0.05-0.195
		c-0.028-0.052-0.066-0.092-0.113-0.121c-0.047-0.03-0.1-0.051-0.163-0.063c-0.061-0.012-0.126-0.019-0.195-0.019
		c-0.046,0-0.093,0.006-0.139,0.016c-0.047,0.01-0.09,0.026-0.128,0.051c-0.037,0.025-0.069,0.057-0.093,0.095
		c-0.025,0.038-0.037,0.084-0.037,0.138c0,0.052,0.01,0.094,0.029,0.126s0.059,0.061,0.116,0.086s0.138,0.054,0.24,0.081
		c0.102,0.028,0.235,0.063,0.399,0.105c0.032,0.007,0.074,0.018,0.125,0.031c0.052,0.013,0.107,0.031,0.165,0.055
		c0.058,0.024,0.115,0.054,0.173,0.091c0.058,0.036,0.111,0.082,0.159,0.137c0.048,0.053,0.086,0.118,0.115,0.192
		c0.03,0.075,0.044,0.162,0.044,0.26c0,0.121-0.023,0.233-0.07,0.336c-0.046,0.104-0.115,0.191-0.208,0.268
		c-0.092,0.074-0.207,0.134-0.343,0.176c-0.137,0.043-0.294,0.065-0.474,0.065c-0.145,0-0.285-0.019-0.421-0.056
		c-0.136-0.037-0.256-0.094-0.36-0.17c-0.103-0.075-0.186-0.173-0.249-0.291c-0.062-0.117-0.092-0.258-0.089-0.42h0.56
		c0,0.089,0.015,0.163,0.047,0.225c0.032,0.063,0.075,0.111,0.128,0.15c0.052,0.038,0.114,0.065,0.184,0.084
		c0.07,0.019,0.145,0.027,0.223,0.027c0.051,0,0.107-0.004,0.166-0.013c0.06-0.009,0.114-0.025,0.166-0.05
		c0.051-0.024,0.094-0.059,0.128-0.102s0.052-0.098,0.052-0.163C19.83,14.014,19.807,13.955,19.761,13.911z M16.605,13.651
		c0.047,0.041,0.085,0.089,0.114,0.146s0.051,0.117,0.064,0.182c0.014,0.066,0.023,0.132,0.028,0.198
		c0.002,0.042,0.004,0.091,0.007,0.147c0.002,0.056,0.006,0.113,0.012,0.172c0.006,0.057,0.016,0.113,0.03,0.166
		c0.013,0.055,0.034,0.1,0.061,0.137h-0.579c-0.017-0.041-0.03-0.088-0.038-0.139c-0.009-0.049-0.016-0.103-0.022-0.157
		c-0.006-0.056-0.012-0.112-0.015-0.17s-0.009-0.112-0.016-0.164c-0.021-0.138-0.062-0.238-0.125-0.302
		c-0.064-0.064-0.169-0.096-0.313-0.096h-0.579v1.027h-0.579v-2.631h1.418c0.118,0,0.225,0.02,0.319,0.058
		c0.095,0.038,0.176,0.09,0.243,0.156s0.12,0.144,0.155,0.232c0.036,0.088,0.054,0.182,0.054,0.28c0,0.154-0.033,0.288-0.098,0.401
		c-0.065,0.113-0.171,0.199-0.319,0.258v0.007C16.5,13.581,16.559,13.61,16.605,13.651z M13.352,1.889l2.797,8.519H5.607
		C6.763,6.532,9.641,3.396,13.352,1.889z M14.148,12.168v2.631h-0.579v-2.631H14.148z M13.341,14.799h-0.6l-0.199-0.586h-0.984
		l-0.206,0.586h-0.586l0.999-2.631h0.593L13.341,14.799z M8.894,13.665v1.134H8.315v-2.631h0.579v1.01h1.065v-1.01h0.578v2.631
		H9.959v-1.134H8.894z M5.329,16.896l-0.003-0.067h9.484c-1.536,1.431-3.214,2.079-3.381,2.143
		c-1.119,0.257-2.083,1.173-2.461,2.409c-0.234,0.762-0.208,1.553,0.042,2.265C7.179,21.84,5.871,19.507,5.329,16.896z
		 M9.998,23.509c-0.25-0.558-0.281-1.211-0.09-1.841c0.325-1.06,1.217-1.795,2.17-1.787c0.171,0,0.339,0.027,0.502,0.077
		c0.512,0.156,0.927,0.538,1.168,1.072c0.25,0.558,0.281,1.211,0.089,1.841c-0.325,1.06-1.217,1.795-2.169,1.788
		c-0.171-0.002-0.339-0.026-0.502-0.077C10.652,24.426,10.239,24.044,9.998,23.509z M18.336,27.483
		c-2.453,0-4.745-0.681-6.719-1.845c0.015,0,0.029,0.004,0.044,0.004c1.384,0.013,2.667-1.01,3.116-2.482
		c0.002-0.007,0.004-0.012,0.005-0.02c0.005,0.014,0.006,0.021,0.006,0.021l2.176-6.332h2.586l1.961,6.209
		c0.014,0.058,0.025,0.117,0.041,0.178c0.414,1.502,1.682,2.559,3.08,2.569c0.068,0.001,0.135-0.008,0.202-0.012
		C22.912,26.857,20.697,27.483,18.336,27.483z M26.321,23.697c-0.254,0.529-0.68,0.898-1.196,1.041
		c-0.158,0.043-0.321,0.063-0.483,0.063c-0.962-0.008-1.842-0.767-2.141-1.847c-0.176-0.634-0.125-1.288,0.141-1.839
		c0.254-0.527,0.679-0.896,1.196-1.039c0.157-0.043,0.32-0.065,0.482-0.063c0.963,0.007,1.843,0.767,2.142,1.849
		C26.637,22.495,26.587,23.147,26.321,23.697z M27.244,24.026c0.33-0.744,0.395-1.599,0.167-2.428
		c-0.354-1.279-1.326-2.233-2.471-2.496c-0.25-0.104-1.864-0.813-3.311-2.273h9.729C30.788,19.659,29.306,22.156,27.244,24.026z"/>
</g>
<g>
</g>
<g>
</g>
<g>
</g>
<g>
</g>
<g>
</g>
<g>
</g>
<g>
</g>
<g>
</g>
<g>
</g>
<g>
</g>
<g>
</g>
<g>
</g>
<g>
</g>
<g>
</g>
<g>
</g>
</svg>
