<?xml version="1.0" encoding="iso-8859-1"?>
<!-- Generator: Adobe Illustrator 16.0.0, SVG Export Plug-In . SVG Version: 6.00 Build 0)  -->
<!DOCTYPE svg PUBLIC "-//W3C//DTD SVG 1.1//EN" "http://www.w3.org/Graphics/SVG/1.1/DTD/svg11.dtd">
<svg version="1.1" id="Layer_1" xmlns="http://www.w3.org/2000/svg" xmlns:xlink="http://www.w3.org/1999/xlink" x="0px" y="0px"
	 width="31.985px" height="32px" viewBox="0 0 31.985 32" style="enable-background:new 0 0 31.985 32;" xml:space="preserve">
<g>
	<g>
		<g>
			<path d="M5.746,8.746c0.21-0.287,0.319-0.427,0.545-0.693C6.63,8.308,6.8,8.437,7.14,8.691c0.38-0.449,0.583-0.657,1.009-1.044
				C7.848,7.353,7.698,7.206,7.397,6.911C7.651,6.682,7.781,6.57,8.048,6.36C8.771,7.179,9.136,7.588,9.86,8.406
				C9.654,8.568,9.554,8.652,9.358,8.83C9.02,8.498,8.851,8.333,8.512,8.002C8.105,8.371,7.912,8.568,7.549,8.997
				c0.382,0.286,0.574,0.431,0.956,0.717C8.33,9.92,8.244,10.026,8.083,10.248C7.148,9.646,6.679,9.348,5.746,8.746z"/>
			<path d="M9.4,7.046C9.327,6.94,9.295,6.835,9.303,6.729C9.311,6.623,9.344,6.517,9.41,6.414c0.064-0.102,0.151-0.198,0.258-0.289
				c0.109-0.091,0.228-0.177,0.355-0.248c0.114-0.064,0.234-0.118,0.36-0.168c0.126-0.049,0.248-0.08,0.367-0.092
				c0.117-0.012,0.224,0.003,0.317,0.039c0.096,0.037,0.168,0.11,0.22,0.213c0.181,0.363,0.271,0.546,0.452,0.909
				c0.039,0.079,0.082,0.152,0.128,0.22s0.092,0.113,0.134,0.139c-0.217,0.093-0.324,0.143-0.536,0.249
				c-0.025-0.021-0.049-0.043-0.07-0.066c-0.021-0.023-0.061-0.079-0.061-0.079c-0.013,0.002-0.107,0.227-0.198,0.318
				s-0.191,0.172-0.304,0.24c-0.087,0.053-0.173,0.091-0.261,0.119s-0.176,0.043-0.259,0.042c-0.084-0.001-0.165-0.016-0.242-0.052
				C9.993,7.873,9.921,7.816,9.857,7.737C9.786,7.65,9.748,7.563,9.739,7.481C9.73,7.398,9.744,7.318,9.78,7.242
				c0.037-0.077,0.09-0.153,0.159-0.224c0.068-0.07,0.144-0.134,0.224-0.197c0.081-0.063,0.157-0.124,0.234-0.177
				c0.076-0.052,0.144-0.101,0.2-0.147c0.056-0.048,0.096-0.094,0.12-0.14c0.024-0.045,0.023-0.096-0.004-0.143
				c-0.029-0.05-0.062-0.081-0.102-0.1c-0.039-0.018-0.082-0.027-0.127-0.024c-0.043,0.003-0.094,0.017-0.143,0.036
				c-0.049,0.02-0.102,0.044-0.155,0.074C10.071,6.267,9.99,6.337,9.948,6.415C9.907,6.492,9.913,6.583,9.963,6.676
				C9.734,6.817,9.621,6.89,9.4,7.046z M10.927,6.587c-0.015,0.03-0.036,0.062-0.066,0.089c-0.03,0.027-0.065,0.059-0.101,0.087
				c-0.038,0.029-0.078,0.057-0.121,0.086c-0.043,0.03-0.084,0.061-0.121,0.091c-0.04,0.032-0.076,0.066-0.107,0.1
				c-0.032,0.032-0.058,0.066-0.074,0.102c-0.016,0.034-0.023,0.075-0.021,0.113c0.002,0.039,0.016,0.078,0.043,0.117
				c0.03,0.042,0.063,0.066,0.098,0.082c0.035,0.016,0.072,0.023,0.112,0.021c0.039-0.003,0.081-0.013,0.125-0.03
				c0.043-0.017,0.086-0.036,0.129-0.061c0.103-0.06,0.175-0.118,0.214-0.18c0.04-0.061,0.06-0.123,0.063-0.18
				c0.003-0.056-0.003-0.108-0.022-0.155s-0.038-0.081-0.053-0.107C10.986,6.692,10.967,6.656,10.927,6.587z"/>
			<path d="M12.151,4.688c-0.276,0.088-0.413,0.136-0.684,0.239c-0.07-0.162-0.105-0.24-0.176-0.401
				c0.281-0.107,0.423-0.159,0.709-0.25C12.061,4.441,12.092,4.523,12.151,4.688z M11.588,5.205
				c0.264-0.101,0.397-0.147,0.666-0.232c0.264,0.73,0.395,1.094,0.659,1.824c-0.221,0.07-0.331,0.109-0.547,0.192
				C12.054,6.275,11.899,5.919,11.588,5.205z"/>
			<path d="M12.785,4.816c0.258-0.069,0.387-0.1,0.649-0.154c0.034,0.14,0.051,0.21,0.085,0.35c0.004-0.001,0.006-0.004,0.01-0.005
				c0.018-0.063,0.047-0.125,0.089-0.185c0.042-0.061,0.098-0.117,0.16-0.165c0.063-0.049,0.135-0.089,0.214-0.122
				c0.08-0.033,0.164-0.056,0.248-0.067c0.053-0.008,0.104-0.009,0.154-0.003c0.029,0.195,0.043,0.291,0.072,0.486
				c-0.031-0.002-0.07,0-0.114,0.002c-0.045,0.002-0.086,0.008-0.127,0.014c-0.123,0.019-0.224,0.053-0.301,0.1
				c-0.076,0.046-0.135,0.101-0.172,0.165c-0.039,0.064-0.059,0.137-0.062,0.216c-0.004,0.078,0.005,0.156,0.025,0.238
				c0.081,0.339,0.121,0.51,0.201,0.849c-0.227,0.047-0.341,0.075-0.565,0.136C13.124,5.929,13.012,5.558,12.785,4.816z"/>
			<path d="M16.521,5.704c-0.003,0.057,0.007,0.105,0.032,0.147S16.61,5.931,16.65,5.96c0.04,0.028,0.088,0.048,0.142,0.064
				c0.053,0.017,0.11,0.028,0.168,0.033c0.043,0.004,0.087,0.004,0.133,0c0.047-0.005,0.092-0.013,0.132-0.026
				c0.041-0.015,0.075-0.035,0.105-0.063s0.05-0.068,0.057-0.115c0.005-0.038-0.008-0.073-0.036-0.105
				c-0.027-0.033-0.069-0.062-0.127-0.091c-0.056-0.029-0.128-0.058-0.215-0.084c-0.085-0.025-0.185-0.053-0.296-0.08
				c-0.089-0.021-0.179-0.048-0.267-0.074c-0.086-0.026-0.164-0.06-0.232-0.099c-0.068-0.04-0.125-0.088-0.167-0.146
				c-0.042-0.058-0.064-0.131-0.064-0.215c0-0.122,0.029-0.224,0.092-0.304s0.149-0.144,0.255-0.187s0.225-0.073,0.358-0.084
				c0.132-0.012,0.271-0.011,0.409,0.001c0.138,0.012,0.272,0.036,0.399,0.071c0.127,0.035,0.236,0.085,0.327,0.146
				c0.091,0.062,0.166,0.134,0.217,0.222c0.05,0.088,0.067,0.191,0.056,0.311c-0.25-0.044-0.375-0.061-0.626-0.091
				c0.006-0.103-0.034-0.177-0.118-0.223s-0.187-0.073-0.308-0.083c-0.039-0.003-0.081-0.008-0.126-0.007
				c-0.044,0.001-0.086,0.008-0.123,0.018c-0.038,0.011-0.07,0.025-0.098,0.048c-0.027,0.021-0.042,0.054-0.045,0.095
				c-0.003,0.046,0.018,0.085,0.06,0.117c0.041,0.032,0.096,0.058,0.164,0.082c0.069,0.024,0.146,0.047,0.232,0.069
				c0.088,0.023,0.175,0.049,0.264,0.076c0.092,0.029,0.184,0.063,0.269,0.1c0.084,0.036,0.158,0.08,0.217,0.131
				c0.061,0.051,0.105,0.113,0.135,0.18c0.028,0.066,0.034,0.145,0.015,0.232c-0.026,0.124-0.08,0.224-0.153,0.297
				s-0.159,0.13-0.257,0.168c-0.097,0.037-0.206,0.06-0.323,0.068c-0.118,0.009-0.235,0.009-0.354-0.002
				c-0.121-0.011-0.239-0.031-0.354-0.061c-0.116-0.029-0.218-0.068-0.309-0.124c-0.09-0.055-0.165-0.127-0.224-0.213
				s-0.095-0.192-0.103-0.319C16.167,5.691,16.286,5.693,16.521,5.704z"/>
			<path d="M19.541,4.896c0.198,0.059,0.297,0.09,0.492,0.156c-0.052,0.134-0.078,0.2-0.13,0.334
				c-0.189-0.064-0.286-0.096-0.477-0.152c-0.123,0.364-0.183,0.545-0.307,0.909c-0.029,0.085-0.03,0.146-0.008,0.184
				c0.022,0.037,0.081,0.074,0.179,0.105c0.064,0.021,0.126,0.036,0.185,0.045c-0.061,0.155-0.092,0.234-0.153,0.39
				c-0.049-0.009-0.103-0.023-0.161-0.039c-0.058-0.017-0.114-0.033-0.168-0.05c-0.086-0.026-0.167-0.052-0.24-0.084
				c-0.075-0.032-0.135-0.073-0.185-0.12c-0.049-0.046-0.085-0.104-0.104-0.17c-0.019-0.066-0.016-0.147,0.01-0.241
				c0.119-0.44,0.178-0.661,0.296-1.103c-0.161-0.037-0.241-0.053-0.402-0.085c0.031-0.139,0.046-0.21,0.078-0.349
				c0.167,0.033,0.25,0.051,0.416,0.09c0.06-0.225,0.089-0.338,0.149-0.563c0.288,0.066,0.432,0.104,0.716,0.188
				C19.652,4.563,19.615,4.676,19.541,4.896z"/>
			<path d="M20.421,7.588c-0.132,0.107-0.263,0.173-0.391,0.189c-0.129,0.018-0.274-0.016-0.445-0.086
				c-0.05-0.021-0.102-0.045-0.15-0.068C19.386,7.6,19.337,7.58,19.287,7.557c0.069-0.162,0.103-0.244,0.172-0.406
				c0.048,0.023,0.096,0.048,0.146,0.072c0.049,0.025,0.103,0.049,0.154,0.065c0.045,0.015,0.091,0.018,0.131,0.009
				c0.04-0.009,0.078-0.027,0.107-0.052c0.03-0.025,0.056-0.057,0.074-0.093c0.019-0.039,0.028-0.076,0.031-0.117
				c0.048-0.776,0.043-1.173-0.032-1.971c0.285,0.099,0.425,0.154,0.704,0.271c-0.014,0.573-0.036,0.854-0.106,1.414
				c0.003,0.002,0.004,0.003,0.008,0.005c0.435-0.386,0.665-0.57,1.143-0.923c0.259,0.14,0.386,0.215,0.636,0.371
				C21.577,6.697,21.168,6.978,20.421,7.588z"/>
			<path d="M23.121,5.738c0.255,0.167,0.379,0.254,0.625,0.438c-0.704,0.837-1.056,1.255-1.762,2.089
				c-0.189-0.142-0.286-0.212-0.483-0.341C22.15,7.05,22.475,6.615,23.121,5.738z"/>
			<path d="M23.343,8.28c-0.118,0.127-0.169,0.253-0.16,0.372c0.009,0.121,0.075,0.243,0.198,0.371
				c0.088,0.091,0.183,0.154,0.289,0.188c0.104,0.034,0.19,0.042,0.254,0.021c0.151,0.173,0.224,0.263,0.366,0.446
				c-0.254,0.062-0.479,0.055-0.68-0.021c-0.201-0.074-0.385-0.205-0.559-0.384c-0.12-0.123-0.211-0.247-0.275-0.378
				c-0.064-0.129-0.102-0.258-0.112-0.388s0.007-0.26,0.052-0.389c0.045-0.128,0.117-0.251,0.221-0.364
				c0.1-0.109,0.216-0.191,0.35-0.246c0.133-0.054,0.277-0.078,0.432-0.068c0.153,0.01,0.313,0.049,0.474,0.125
				c0.159,0.075,0.312,0.188,0.455,0.335c0.159,0.164,0.269,0.337,0.328,0.504c0.06,0.168,0.078,0.328,0.055,0.477
				c-0.022,0.149-0.08,0.284-0.168,0.401c-0.09,0.117-0.204,0.212-0.341,0.289C24.086,9.007,23.849,8.748,23.343,8.28z M24.37,8.837
				c0.089-0.11,0.132-0.217,0.131-0.325c-0.001-0.107-0.061-0.23-0.182-0.354c-0.08-0.082-0.156-0.138-0.231-0.17
				s-0.145-0.048-0.209-0.048c-0.064-0.001-0.121,0.009-0.168,0.03c-0.049,0.022-0.086,0.046-0.118,0.07
				C23.917,8.34,24.073,8.498,24.37,8.837z"/>
		</g>
	</g>
	<g>
		<path d="M17.278,7.041c-0.444-0.068-0.898-0.104-1.351-0.104c-4.416,0-8.242,3.296-8.902,7.666
			c-0.74,4.911,2.653,9.51,7.564,10.252c0.445,0.068,0.9,0.103,1.35,0.103c4.416,0,8.244-3.296,8.901-7.666
			c0.359-2.378-0.231-4.754-1.662-6.691C21.75,8.663,19.653,7.398,17.278,7.041z M24.18,17.192c-0.61,4.045-4.153,7.097-8.241,7.097
			c-0.42,0-0.84-0.032-1.25-0.094c-2.199-0.332-4.14-1.503-5.464-3.299c-1.324-1.795-1.871-3.993-1.539-6.193
			c0.61-4.045,4.153-7.097,8.241-7.097c0.412,0,0.833,0.031,1.25,0.093c2.199,0.332,4.139,1.503,5.464,3.299
			C23.966,12.794,24.512,14.993,24.18,17.192z"/>
		<path d="M31.529,16.427c0.163-0.245,0.304-0.456,0.356-0.601c0.226-0.545,0.071-1.047-0.458-1.486
			c-0.063-0.055-0.123-0.095-0.187-0.142c0.152-0.326,0.299-0.62,0.333-0.792c0.157-0.635-0.214-1.02-0.622-1.266
			c-0.094-0.059-0.187-0.104-0.279-0.152c0.025-0.114,0.049-0.227,0.076-0.342c0.029-0.104,0.058-0.205,0.085-0.302
			c0.083-0.289,0.155-0.539,0.162-0.708c-0.009-0.845-0.623-1.15-1.155-1.324c0.045-0.359,0.094-0.68,0.076-0.854
			c-0.131-0.805-0.778-0.97-1.337-1.051c-0.017-0.191-0.029-0.384-0.036-0.556c-0.015-0.36-0.027-0.646-0.097-0.804
			c-0.247-0.799-0.917-0.892-1.4-0.892c-0.036,0-0.069,0.004-0.104,0.004c-0.071-0.361-0.127-0.676-0.22-0.824
			c-0.36-0.744-1.035-0.676-1.594-0.567c-0.086-0.189-0.167-0.381-0.238-0.552c-0.122-0.299-0.227-0.557-0.33-0.699
			c-0.232-0.335-0.556-0.505-0.964-0.505c-0.16,0-0.333,0.025-0.529,0.078c-0.08,0.021-0.147,0.052-0.223,0.079
			c-0.186-0.312-0.344-0.585-0.47-0.714c-0.448-0.475-0.981-0.354-1.401-0.171c-0.108,0.047-0.204,0.104-0.302,0.159
			c-0.138-0.147-0.272-0.301-0.389-0.438c-0.226-0.264-0.404-0.473-0.555-0.566c-0.483-0.316-0.999-0.295-1.549,0.078
			c-0.066,0.051-0.119,0.101-0.18,0.151c-0.277-0.238-0.513-0.449-0.675-0.519c-0.582-0.266-1.042-0.029-1.381,0.282
			c-0.085,0.086-0.157,0.174-0.229,0.261c-0.167-0.091-0.333-0.185-0.488-0.276c-0.313-0.186-0.561-0.333-0.733-0.364
			c-0.585-0.163-1.082,0.039-1.44,0.581c-0.046,0.065-0.08,0.127-0.12,0.191c-0.338-0.136-0.633-0.261-0.807-0.265
			c-0.641-0.08-1.005,0.278-1.211,0.722c-0.053,0.104-0.092,0.207-0.134,0.31c-0.206-0.031-0.411-0.069-0.604-0.106
			C9.877,1.43,9.62,1.381,9.443,1.381H9.408C8.559,1.406,8.316,2.155,8.235,2.401C8.21,2.479,8.2,2.55,8.182,2.626
			C7.822,2.612,7.51,2.596,7.333,2.629C6.691,2.746,6.501,3.261,6.427,3.711C6.408,3.826,6.403,3.938,6.396,4.048
			c-0.189,0.032-0.38,0.06-0.562,0.081c-0.362,0.045-0.648,0.08-0.803,0.163c-0.785,0.329-0.817,1.014-0.76,1.571
			c-0.348,0.098-0.651,0.18-0.79,0.281C2.78,6.572,2.896,7.233,3.049,7.78C2.976,7.818,2.904,7.86,2.831,7.898L2.723,7.954
			C2.628,8.006,2.536,8.055,2.446,8.102C2.185,8.238,1.958,8.356,1.842,8.46C1.168,8.999,1.448,9.742,1.541,9.988
			c0.029,0.074,0.062,0.138,0.094,0.207c-0.286,0.211-0.545,0.393-0.657,0.524c-0.447,0.484-0.281,1.005-0.054,1.411
			c0.058,0.1,0.119,0.186,0.179,0.275c-0.155,0.176-0.315,0.344-0.459,0.493c-0.205,0.215-0.383,0.398-0.483,0.55
			c-0.386,0.747,0.002,1.308,0.385,1.713c-0.201,0.286-0.383,0.536-0.46,0.698c-0.261,0.767,0.223,1.22,0.671,1.559
			c-0.077,0.175-0.16,0.351-0.24,0.513c-0.163,0.331-0.291,0.592-0.305,0.769c-0.155,0.842,0.407,1.242,0.909,1.499
			c-0.108,0.342-0.206,0.64-0.194,0.81c-0.026,0.82,0.586,1.084,1.126,1.255c-0.008,0.091-0.013,0.183-0.022,0.273l-0.011,0.097
			C2.01,22.738,2,22.841,1.991,22.938c-0.028,0.297-0.053,0.553-0.031,0.709c0.083,0.854,0.857,1.03,1.115,1.089
			c0.082,0.018,0.156,0.023,0.234,0.035c0.021,0.354,0.031,0.669,0.081,0.834c0.161,0.64,0.688,0.782,1.151,0.817
			c0.111,0.006,0.213,0.002,0.317,0.001c0.056,0.209,0.104,0.42,0.146,0.608c0.071,0.329,0.128,0.59,0.21,0.749
			c0.278,0.514,0.768,0.732,1.401,0.667c0.089-0.013,0.167-0.033,0.25-0.052c0.128,0.334,0.235,0.624,0.337,0.767
			c0.385,0.512,0.904,0.522,1.351,0.407c0.108-0.033,0.206-0.074,0.307-0.112c0.069,0.106,0.14,0.216,0.196,0.313
			c0.239,0.387,0.435,0.694,0.583,0.838c0.233,0.229,0.499,0.354,0.8,0.374c0.231-0.002,0.476-0.068,0.745-0.202
			c0.075-0.036,0.137-0.077,0.207-0.116c0.234,0.274,0.442,0.509,0.583,0.609c0.26,0.188,0.518,0.248,0.754,0.229
			c0.24-0.039,0.459-0.153,0.656-0.291c0.089-0.062,0.166-0.127,0.245-0.192c0.172,0.13,0.339,0.264,0.487,0.385
			c0.249,0.204,0.463,0.379,0.619,0.455C14.912,31.953,15.091,32,15.27,32c0.427,0,0.766-0.273,0.985-0.479
			c0.064-0.063,0.113-0.124,0.17-0.188c0.306,0.182,0.573,0.345,0.743,0.398c0.622,0.219,1.03-0.159,1.313-0.52
			c0.065-0.087,0.118-0.173,0.173-0.259c0.207,0.067,0.409,0.142,0.589,0.211c0.312,0.117,0.558,0.21,0.736,0.231
			c0.583,0.042,1.022-0.227,1.325-0.811c0.039-0.082,0.064-0.159,0.095-0.24c0.352,0.075,0.658,0.146,0.835,0.14
			c0.639-0.044,0.931-0.474,1.079-0.909c0.033-0.111,0.052-0.217,0.074-0.324c0.118,0.001,0.236,0.004,0.356,0.01
			c0.169,0.004,0.331,0.008,0.476,0.008c0.264,0,0.432-0.012,0.541-0.036c0.585-0.115,0.919-0.519,0.992-1.197
			c0.011-0.084,0.012-0.159,0.016-0.24c0.362-0.047,0.675-0.092,0.838-0.155c0.616-0.221,0.742-0.732,0.72-1.212
			c-0.003-0.107-0.016-0.206-0.026-0.308c0.112-0.042,0.226-0.088,0.334-0.124c0.104-0.033,0.204-0.063,0.301-0.093
			c0.299-0.091,0.535-0.163,0.681-0.249c0.709-0.476,0.623-1.164,0.476-1.706c0.325-0.156,0.617-0.288,0.751-0.396
			c0.6-0.548,0.389-1.176,0.154-1.688c0.15-0.116,0.304-0.231,0.451-0.337c0.293-0.209,0.524-0.374,0.618-0.519
			c0.543-0.665,0.234-1.287-0.087-1.753c0.264-0.257,0.498-0.477,0.57-0.635c0.417-0.706,0.002-1.23-0.394-1.637
			c0.065-0.099,0.128-0.195,0.199-0.295C31.414,16.598,31.473,16.51,31.529,16.427z M1.19,19.957
			c-0.454-0.237-0.857-0.553-0.734-1.225c0.011-0.142,0.143-0.409,0.282-0.691c0.074-0.149,0.148-0.311,0.22-0.472
			c0.096,0.07,0.186,0.137,0.255,0.2c0.049,0.4,0.104,0.801,0.186,1.191C1.384,19.284,1.289,19.631,1.19,19.957z M1.223,14.037
			c-0.136,0.313-0.338,0.627-0.536,0.915c-0.334-0.363-0.612-0.803-0.313-1.377c0.08-0.121,0.25-0.299,0.448-0.504
			c0.13-0.136,0.276-0.292,0.419-0.45c0.062,0.091,0.125,0.181,0.167,0.259C1.328,13.262,1.273,13.648,1.223,14.037z M28.213,6.135
			c0.056,0.129,0.069,0.42,0.082,0.728c0.007,0.157,0.02,0.335,0.035,0.51c-0.12-0.017-0.233-0.031-0.326-0.055
			c-0.221-0.308-0.445-0.613-0.688-0.904c-0.157-0.295-0.25-0.659-0.324-1.008C27.478,5.394,28.006,5.465,28.213,6.135z
			 M23.129,2.331c0.593-0.158,0.961-0.054,1.227,0.329c0.086,0.122,0.187,0.367,0.303,0.65c0.064,0.157,0.141,0.334,0.219,0.508
			c-0.118,0.024-0.23,0.045-0.323,0.052c-0.31-0.223-0.627-0.428-0.953-0.625c-0.234-0.247-0.442-0.56-0.628-0.859
			C23.027,2.368,23.075,2.345,23.129,2.331z M18.32,0.722c0.458-0.311,0.867-0.337,1.272-0.072c0.121,0.075,0.305,0.291,0.5,0.519
			c0.106,0.125,0.229,0.264,0.354,0.398c-0.093,0.055-0.187,0.11-0.267,0.147c-0.382-0.114-0.77-0.217-1.164-0.3
			c-0.288-0.146-0.57-0.364-0.828-0.581C18.231,0.797,18.272,0.757,18.32,0.722z M13.254,0.776c0.231-0.35,0.52-0.527,0.854-0.527
			c0.1,0,0.205,0.015,0.326,0.048c0.14,0.025,0.394,0.177,0.662,0.335c0.134,0.08,0.291,0.167,0.447,0.252
			C15.472,0.97,15.4,1.058,15.334,1.12c-0.392,0.015-0.784,0.038-1.168,0.085c-0.328-0.038-0.674-0.161-1-0.289
			C13.196,0.87,13.221,0.823,13.254,0.776z M8.472,2.479c0.186-0.574,0.477-0.836,0.972-0.85c0.153,0,0.4,0.046,0.684,0.102
			c0.167,0.032,0.358,0.065,0.55,0.096c-0.042,0.105-0.082,0.211-0.127,0.288C10.192,2.256,9.844,2.411,9.5,2.577
			C9.164,2.639,8.787,2.643,8.434,2.633C8.449,2.581,8.454,2.529,8.472,2.479z M5.137,4.516C5.262,4.45,5.555,4.414,5.865,4.375
			c0.157-0.02,0.334-0.046,0.51-0.075C6.37,4.412,6.366,4.525,6.353,4.615C6.05,4.871,5.757,5.132,5.478,5.411
			C5.195,5.579,4.847,5.695,4.515,5.794C4.465,5.287,4.512,4.777,5.137,4.516z M1.838,10.045C1.815,9.994,1.792,9.951,1.772,9.899
			C1.559,9.332,1.628,8.949,2,8.65c0.1-0.088,0.313-0.2,0.561-0.33c0.09-0.047,0.184-0.097,0.278-0.147l0.105-0.055
			C3.001,8.09,3.061,8.055,3.118,8.023c0.035,0.117,0.066,0.229,0.08,0.323c-0.196,0.329-0.38,0.664-0.551,1.009
			C2.43,9.617,2.122,9.837,1.838,10.045z M3.128,24.494c-0.592-0.136-0.877-0.403-0.922-0.875c-0.019-0.133,0.005-0.375,0.032-0.657
			c0.01-0.099,0.02-0.201,0.028-0.305l0.01-0.095c0.007-0.07,0.01-0.15,0.017-0.224c0.119,0.036,0.232,0.07,0.32,0.11
			c0.168,0.345,0.351,0.682,0.544,1.01c0.103,0.326,0.12,0.707,0.138,1.061C3.238,24.511,3.185,24.506,3.128,24.494z M6.584,28.202
			c-0.065,0.007-0.129,0.011-0.195,0.011c-0.444,0-0.758-0.18-0.956-0.547c-0.066-0.128-0.122-0.388-0.188-0.687
			c-0.038-0.172-0.084-0.364-0.132-0.555c0.116-0.003,0.23-0.007,0.324,0.002c0.275,0.272,0.565,0.53,0.857,0.78
			c0.194,0.279,0.347,0.627,0.479,0.957C6.71,28.177,6.649,28.193,6.584,28.202z M11.074,30.558
			c-0.235,0.117-0.444,0.176-0.628,0.178c-0.231-0.016-0.444-0.118-0.634-0.304C9.684,30.308,9.489,30,9.269,29.644
			c-0.048-0.083-0.114-0.18-0.172-0.272c0.115-0.045,0.227-0.09,0.32-0.113c0.348,0.171,0.7,0.332,1.06,0.475
			c0.277,0.19,0.523,0.465,0.749,0.739C11.175,30.501,11.128,30.532,11.074,30.558z M16.083,31.342
			c-0.187,0.176-0.475,0.41-0.813,0.41c-0.137,0-0.278-0.037-0.422-0.114c-0.132-0.064-0.337-0.231-0.575-0.427
			c-0.134-0.109-0.289-0.23-0.443-0.348c0.093-0.078,0.183-0.153,0.262-0.203c0.382,0.046,0.77,0.073,1.161,0.091
			c0.322,0.107,0.648,0.284,0.951,0.458C16.163,31.254,16.128,31.299,16.083,31.342z M21.081,30.477
			c-0.236,0.455-0.556,0.677-0.979,0.677c-0.033,0-0.068-0.002-0.099-0.004c-0.143-0.017-0.389-0.109-0.672-0.217
			c-0.164-0.062-0.35-0.128-0.535-0.19c0.061-0.099,0.12-0.197,0.177-0.271c0.389-0.081,0.771-0.184,1.148-0.296
			c0.332-0.006,0.693,0.055,1.032,0.123C21.127,30.358,21.108,30.419,21.081,30.477z M25.506,28.007
			c-0.061,0.568-0.321,0.891-0.797,0.983c-0.122,0.028-0.338,0.031-0.49,0.031c-0.144,0-0.304-0.003-0.467-0.007
			c-0.101-0.006-0.205-0.008-0.307-0.009c0.024-0.119,0.046-0.237,0.079-0.328c0.321-0.191,0.638-0.391,0.943-0.605
			c0.314-0.139,0.688-0.201,1.051-0.241C25.514,27.89,25.514,27.946,25.506,28.007z M28.485,25.445
			c-0.115,0.066-0.35,0.139-0.622,0.222c-0.098,0.029-0.2,0.061-0.306,0.094c-0.091,0.03-0.185,0.069-0.278,0.104
			c-0.015-0.122-0.028-0.241-0.025-0.338c0.242-0.284,0.467-0.582,0.687-0.886c0.135-0.112,0.279-0.219,0.445-0.311
			c0.154-0.099,0.317-0.184,0.48-0.266C28.992,24.548,29.036,25.076,28.485,25.445z M15.937,29.148
			c-7.284,0-13.211-5.927-13.211-13.21c0-7.286,5.927-13.212,13.211-13.212s13.21,5.926,13.21,13.212
			C29.147,23.222,23.221,29.148,15.937,29.148z M29.814,9.564c0.469,0.158,0.926,0.412,0.933,1.069
			c-0.005,0.133-0.076,0.38-0.152,0.644c-0.028,0.097-0.057,0.199-0.091,0.327c-0.021,0.083-0.039,0.174-0.058,0.261
			c-0.104-0.052-0.206-0.104-0.282-0.154c-0.109-0.366-0.239-0.722-0.374-1.074C29.756,10.29,29.784,9.917,29.814,9.564z
			 M30.867,20.863c-0.077,0.116-0.313,0.284-0.563,0.463c-0.128,0.092-0.271,0.201-0.412,0.311
			c-0.053-0.111-0.103-0.217-0.134-0.309c0.141-0.359,0.276-0.722,0.389-1.093c0.161-0.286,0.41-0.557,0.654-0.802
			C31.089,19.858,31.3,20.331,30.867,20.863z M31.15,16.55c-0.06,0.084-0.113,0.17-0.171,0.255c-0.086-0.088-0.167-0.17-0.226-0.245
			c0.009-0.207,0.032-0.412,0.032-0.621c0-0.188-0.021-0.368-0.028-0.554c0.066-0.322,0.22-0.648,0.375-0.957
			c0.045,0.033,0.09,0.063,0.135,0.101c0.45,0.375,0.574,0.758,0.388,1.208c-0.044,0.122-0.178,0.322-0.332,0.552
			C31.266,16.373,31.207,16.463,31.15,16.55z"/>
		<circle cx="27.038" cy="15.775" r="1.013"/>
		<circle cx="4.979" cy="16" r="1.014"/>
		<polygon points="18.966,10.249 18.97,9.881 16.584,14.549 17.125,15.635 		"/>
		<path d="M15.603,16.141l-2.165,2.331c-0.049-0.007-0.098-0.011-0.147-0.012c-0.641-0.013-1.235,0.493-1.413,1.201
			c-0.099,0.393-0.06,0.798,0.108,1.137c0.174,0.353,0.465,0.596,0.819,0.686c0.088,0.021,0.179,0.034,0.269,0.036
			c0.49,0.01,0.953-0.285,1.223-0.742c0.03,0.011,0.062,0.018,0.096,0.018c0.188,0.004,0.344-0.146,0.349-0.336
			c0.003-0.147-0.089-0.274-0.22-0.324c0.048-0.334-0.001-0.667-0.144-0.956c-0.097-0.195-0.231-0.355-0.392-0.477l1.873-1.757
			L15.603,16.141z M14.012,19.362c0.124,0.252,0.152,0.556,0.077,0.855c-0.131,0.524-0.555,0.898-1.006,0.89
			c-0.059,0-0.118-0.008-0.176-0.022c-0.236-0.06-0.432-0.226-0.553-0.468c-0.126-0.254-0.153-0.559-0.079-0.856
			c0.133-0.523,0.556-0.899,1.006-0.891c0.06,0.001,0.119,0.009,0.176,0.023C13.695,18.953,13.891,19.12,14.012,19.362z"/>
		<path d="M20.787,20.406c0.023-0.187,0.015-0.383-0.025-0.575c-0.151-0.715-0.725-1.242-1.365-1.254
			c-0.018-0.001-0.035,0.001-0.053,0.001l-2.396-2.702l-2.991-6.015l0.066,0.53l1.999,6.275l0.745,0.03l1.866,2.138
			c-0.14,0.11-0.258,0.251-0.351,0.419c-0.182,0.335-0.236,0.737-0.153,1.133c0.152,0.715,0.726,1.243,1.366,1.256
			c0.091,0.002,0.182-0.008,0.27-0.026c0.199-0.042,0.379-0.134,0.533-0.266c0.508-0.193,1.017,0.271,1.159,0.328
			c0.144,0.059,0.405-0.151,0.355-0.233C21.764,21.367,20.806,20.925,20.787,20.406z M16.406,16.293
			c-0.118-0.004-0.213-0.102-0.211-0.22c0.003-0.119,0.101-0.213,0.22-0.211c0.118,0.003,0.213,0.101,0.211,0.219
			C16.624,16.2,16.526,16.295,16.406,16.293z M20.249,20.768c-0.13,0.237-0.332,0.396-0.57,0.447
			c-0.058,0.011-0.117,0.018-0.176,0.017c-0.452-0.009-0.86-0.4-0.972-0.929c-0.065-0.301-0.024-0.604,0.11-0.853
			c0.129-0.237,0.332-0.396,0.57-0.446c0.058-0.012,0.118-0.018,0.177-0.017c0.451,0.009,0.859,0.399,0.972,0.929
			C20.424,20.217,20.384,20.52,20.249,20.768z"/>
		<path d="M17.858,25.506c-0.454-0.134-1.506,1.174-1.682,1.174c-0.031,0-0.337,0-0.367,0c-0.176,0-1.228-1.308-1.682-1.174
			c-0.454,0.134-0.627,2.807-0.086,2.807s1.44-0.645,1.582-0.697c0.052-0.02,0.688-0.02,0.74,0c0.14,0.053,1.041,0.697,1.582,0.697
			S18.311,25.64,17.858,25.506z"/>
	</g>
</g>
<g>
</g>
<g>
</g>
<g>
</g>
<g>
</g>
<g>
</g>
<g>
</g>
<g>
</g>
<g>
</g>
<g>
</g>
<g>
</g>
<g>
</g>
<g>
</g>
<g>
</g>
<g>
</g>
<g>
</g>
</svg>
