<?xml version="1.0" encoding="iso-8859-1"?>
<!-- Generator: Adobe Illustrator 16.0.0, SVG Export Plug-In . SVG Version: 6.00 Build 0)  -->
<!DOCTYPE svg PUBLIC "-//W3C//DTD SVG 1.1//EN" "http://www.w3.org/Graphics/SVG/1.1/DTD/svg11.dtd">
<svg version="1.1" id="Layer_1" xmlns="http://www.w3.org/2000/svg" xmlns:xlink="http://www.w3.org/1999/xlink" x="0px" y="0px"
	 width="31.833px" height="31.487px" viewBox="0 0 31.833 31.487" style="enable-background:new 0 0 31.833 31.487;"
	 xml:space="preserve">
<g>
	<circle cx="13.572" cy="10.3" r="3.213"/>
	<ellipse cx="28.426" cy="3.511" rx="3.407" ry="3.511"/>
	<path d="M30.667,8.528c-1.232-1.001-3.372-0.442-4.436-0.144c-0.977,0.375-2.644,0.747-4.629,0.882
		c-0.251-0.365-0.642-0.652-1.116-0.801V7.36h-1.581v1.13c-0.784,0.275-1.336,0.929-1.336,1.691c0,0.636,0.383,1.194,0.964,1.523
		v0.487h2.39v-0.48c0.323-0.181,0.583-0.433,0.754-0.728c1.904-0.177,4.521-0.37,4.51-0.101c-0.028,0.726-0.347,8.016-0.063,8.258
		l-0.583,5.4l0.516,5.311h-1.503v1.563h5.109v-0.338v-1.225V19.819c0.601-0.118,1.06-0.436,1.139-1.093
		C31.049,16.66,32.04,9.645,30.667,8.528z"/>
	<path d="M3.799,26.059c0.329,0.056,0.665,0.108,1.005,0.158c0.035,0.006,0.07,0.011,0.106,0.016c1.574,0.23,3.226,0.396,4.732,0.45
		c0.09,0.003,0.177,0.005,0.267,0.008c0.19,0.005,0.378,0.008,0.563,0.01c0.053,0,0.108,0.002,0.161,0.002
		c0.066,0,0.128-0.002,0.193-0.003c0.105-0.001,0.209-0.002,0.311-0.004c0.128-0.003,0.253-0.008,0.377-0.013
		c0.1-0.004,0.199-0.009,0.296-0.014c0.118-0.008,0.233-0.017,0.348-0.026c0.094-0.008,0.188-0.015,0.278-0.024
		c0.11-0.012,0.215-0.025,0.319-0.039c0.086-0.012,0.172-0.022,0.254-0.035c0.102-0.017,0.196-0.036,0.292-0.056
		c0.074-0.015,0.151-0.028,0.222-0.045c0.095-0.022,0.181-0.049,0.268-0.074c0.061-0.019,0.125-0.034,0.183-0.054
		c0.09-0.031,0.169-0.066,0.249-0.102c0.042-0.02,0.091-0.035,0.13-0.056c0.113-0.058,0.216-0.119,0.302-0.187
		c0.045-0.035,0.088-0.078,0.13-0.129c0.017-0.02,0.032-0.046,0.049-0.068c0.023-0.033,0.048-0.065,0.071-0.104
		c0.019-0.031,0.035-0.068,0.053-0.102c0.02-0.037,0.039-0.072,0.058-0.112c0.018-0.038,0.034-0.083,0.051-0.125
		s0.034-0.082,0.051-0.127c0.016-0.045,0.03-0.095,0.046-0.143s0.031-0.095,0.047-0.146c0.014-0.049,0.026-0.104,0.04-0.154
		c0.015-0.056,0.029-0.109,0.043-0.167c0.013-0.052,0.023-0.107,0.035-0.161c0.015-0.063,0.028-0.125,0.041-0.19
		c0.011-0.053,0.02-0.109,0.029-0.163c0.013-0.071,0.026-0.143,0.038-0.216c0.009-0.053,0.017-0.107,0.024-0.161
		c0.013-0.08,0.024-0.16,0.036-0.242c0.007-0.052,0.013-0.105,0.019-0.157c0.012-0.089,0.023-0.178,0.033-0.27
		c0.006-0.048,0.01-0.097,0.016-0.145c0.01-0.1,0.021-0.199,0.03-0.302c0.004-0.043,0.007-0.086,0.011-0.129
		c0.01-0.109,0.019-0.219,0.027-0.33c0.003-0.04,0.006-0.081,0.008-0.122c0.009-0.117,0.018-0.235,0.024-0.354
		c0.002-0.032,0.003-0.064,0.005-0.096c0.007-0.13,0.014-0.26,0.021-0.39c0.001-0.026,0.002-0.052,0.003-0.078
		c0.006-0.138,0.012-0.275,0.017-0.414c0-0.02,0.001-0.04,0.002-0.06c0.004-0.145,0.008-0.289,0.012-0.434c0-0.006,0-0.01,0-0.015
		l0,0c0.037-1.716-0.022-3.437-0.119-4.597c0-0.001,0-0.001,0-0.001c-0.001-0.012-0.002-0.021-0.003-0.033
		c-0.01-0.111-0.02-0.217-0.029-0.317c-0.004-0.043-0.009-0.082-0.014-0.122c-0.007-0.066-0.015-0.13-0.021-0.19
		c-0.006-0.039-0.01-0.075-0.015-0.111c-0.008-0.058-0.016-0.111-0.024-0.162c-0.004-0.028-0.008-0.058-0.013-0.083
		c-0.013-0.071-0.025-0.138-0.038-0.19c-0.118-0.084-0.252-0.15-0.395-0.206c-0.007-0.003-0.013-0.007-0.02-0.009
		c-0.144-0.055-0.297-0.097-0.456-0.13c-0.004-0.001-0.007-0.002-0.011-0.003c-0.001,0-0.002,0-0.003,0
		c-1.105-0.223-2.529,0.021-3.143,0.02c-0.282,0.15-0.554,1.444-0.985,2.875c-0.056,0.184-0.113,0.367-0.174,0.553
		c-0.001,0.004-0.003,0.009-0.004,0.014c-0.127,0.385-0.267,0.771-0.423,1.138c0,0.001,0,0.001,0,0.001
		c-0.077,0.182-0.158,0.358-0.244,0.528c-0.002,0.006-0.005,0.011-0.008,0.017c-0.086,0.17-0.176,0.332-0.271,0.486
		c-0.001,0.002-0.002,0.004-0.003,0.006c-0.29,0.468-0.623,0.851-1.011,1.083c0,0,0,0,0.001,0c-0.305,0.183-0.642,0.275-1.02,0.241
		C3.765,20.494-0.396,25.348,3.799,26.059z"/>
	<path d="M16.283,27.345l0.01,0.002l2.04-9.216l-2.059-0.456l-0.152,0.69c0.049,3.181-0.184,7.114-1.221,7.923
		c-0.693,0.541-2.129,0.816-4.268,0.816c-1.117,0-2.422-0.08-3.789-0.225v0.523h3.473l-0.44,2.478H6.744l-1.071,1.606h12.05
		l-1.071-1.606h-3.333l-0.44-2.478h3.405V27.345z"/>
	<path d="M7.315,20.574c0.04,0.003,0.08,0.005,0.119,0.005c1.031,0,1.752-1.323,2.271-2.749c-0.776,0.897-1.651,1.585-2.487,1.531
		C6.211,19.376,6.037,20.202,7.315,20.574z"/>
	<path d="M3.731,26.454c-0.604-0.102-1.035-0.283-1.345-0.499c-0.582,0.919-1.104,1.774-1.431,2.313H0v1.45h4.675v-1.45H4.599
		l1.061-1.527C5.019,26.658,4.373,26.563,3.731,26.454z"/>
	<path d="M16.785,7.933l0.116,0.109c0,0,1.49-1.973,2.242-1.639c0.036,0.072,0.022,0.452,0.016,0.598h-0.112V7.29h1.317V7.001
		h-0.122V6.455l0.673-0.395h0.712V5.855h-0.649l-0.748-0.403l-0.001,0.002l-2.942-1.049l-0.225,0.572l0.732,0.373v0.507
		L16.785,7.933z M20.242,5.692l0.467,0.252l-0.467,0.273V5.692z"/>
</g>
<g>
</g>
<g>
</g>
<g>
</g>
<g>
</g>
<g>
</g>
<g>
</g>
<g>
</g>
<g>
</g>
<g>
</g>
<g>
</g>
<g>
</g>
<g>
</g>
<g>
</g>
<g>
</g>
<g>
</g>
</svg>
