<?xml version="1.0" encoding="iso-8859-1"?>
<!-- Generator: Adobe Illustrator 16.0.0, SVG Export Plug-In . SVG Version: 6.00 Build 0)  -->
<!DOCTYPE svg PUBLIC "-//W3C//DTD SVG 1.1//EN" "http://www.w3.org/Graphics/SVG/1.1/DTD/svg11.dtd">
<svg version="1.1" id="Layer_1" xmlns="http://www.w3.org/2000/svg" xmlns:xlink="http://www.w3.org/1999/xlink" x="0px" y="0px"
	 width="31.916px" height="30.438px" viewBox="0 0 31.916 30.438" style="enable-background:new 0 0 31.916 30.438;"
	 xml:space="preserve">
<g>
	<polygon points="12.277,25.775 11.853,23.384 15.141,23.384 15.141,22.032 21.261,16.008 19.833,14.556 12.934,21.348 
		6.026,21.348 6.026,23.384 9.38,23.384 8.954,25.775 5.93,25.775 4.896,27.327 16.531,27.327 15.496,25.775 	"/>
	<path d="M12.072,20.572v-0.034c0.383-0.376,5.782-5.674,6.398-6.278c0.639-0.625,0.813-1.018,0.333-1.347
		c-0.48-0.329-2.412-1.626-2.412-1.626h-0.001l-0.003-0.004c0,0-5.053,2.994-6.822,1.628c-1.016-0.663-1.681,0.384,0.312,1.825
		c0.459,0.332,1.1,0.396,1.814,0.3L8.56,17.717c-1.646,0.003-3.326,0.018-3.696,0.07C4.093,17.895,0,24.786,0,24.786l3.462,0.002
		l2.929-4.216H12.072z"/>
	<path d="M23.628,20.832l0.048-0.233h-4.469l0.02,0.212c0.013,0.139,0.104,0.989,0.437,1.555H18.19v1.019h2.595v6.093h-1.076v0.962
		h3.244v-0.962h-0.984v-6.093h2.362v-1.019h-1.296C23.415,21.806,23.6,20.969,23.628,20.832z"/>
	<path d="M28.238,7.556c2.028,0,3.678-1.694,3.678-3.778C31.916,1.694,30.267,0,28.238,0c-2.029,0-3.68,1.694-3.68,3.777
		C24.559,5.861,26.209,7.556,28.238,7.556z"/>
	<path d="M30.401,8.623c-1.189-0.967-3.256-0.428-4.282-0.139C24.956,8.93,19.8,9.307,19.8,9.307l0.048,0.709l-0.07-0.006
		l0.004-0.053L19.695,9.95l-0.004,0.055L19.633,10l0.003-0.053L19.551,9.94l-0.004,0.054l-0.099-0.008l0.004-0.054l-0.086-0.005
		l-0.004,0.054l-0.099-0.007l0.004-0.055l-0.086-0.006l-0.003,0.054l-0.06-0.004l0.004-0.054l-0.086-0.007l-0.004,0.055
		l-0.072-0.006l0.004-0.054L18.88,9.893l-0.004,0.055L18.51,9.92l0.003-0.039l-0.349-0.478l0.005-0.059l-0.38-0.027l-0.101,1.402
		l0.381,0.027l0.004-0.052l0.411-0.421v-0.001l0.002-0.029l0.366,0.026l-0.004,0.053l0.086,0.007l0.004-0.054l0.072,0.005
		l-0.004,0.054l0.085,0.007l0.005-0.054l0.059,0.004l-0.003,0.054l0.085,0.006l0.004-0.054l0.099,0.007l-0.004,0.054l0.086,0.006
		l0.004-0.054l0.099,0.007l-0.004,0.054l0.085,0.007l0.004-0.054l0.059,0.004l-0.003,0.054l0.085,0.006l0.005-0.054l0.099,0.008
		l-0.004,0.053l0.023,0.002l0.052,0.778c0.046-0.005,0.11-0.013,0.192-0.021c-0.083,0.008-0.146,0.016-0.192,0.021l0,0
		c-0.052,0.005-0.08,0.009-0.08,0.009l0.08-0.009l0,0l0.64-0.067c0.002,0,0.005-0.001,0.007-0.001l-0.646,0.068v0.001l0.845-0.09
		c0.353-0.035,0.779-0.076,1.237-0.117v-0.001c1.804-0.162,4.078-0.317,4.068-0.07c-0.027,0.7-0.334,7.739-0.062,7.974l0.027,4.931
		l0.498,5.129h-1.452v1.508h4.935v-0.325v-1.183v-9.688c0.58-0.114,0.434-0.138,0.51-0.772C30.771,16.475,31.728,9.7,30.401,8.623z
		 M18.124,9.971l0.068,0.005l-0.011,0.158l-0.068-0.005L18.124,9.971z M17.741,10.646l0.088-1.239l0.064,0.005l-0.088,1.239
		L17.741,10.646z M17.853,10.655l0.088-1.24l0.064,0.005l-0.089,1.24L17.853,10.655z M18.024,10.668l-0.063-0.006l0.088-1.239
		l0.064,0.005L18.024,10.668z M18.085,10.529l0.02-0.282l0.239,0.017L18.085,10.529z M18.133,9.854l0.021-0.284l0.22,0.302
		L18.133,9.854z"/>
	<path d="M17.81,11.659c1.205,0.812,2.772,0.663,3.806-0.266c-0.368,0.034-0.711,0.068-0.995,0.098l-0.734,0.078l-0.001-0.01
		l-0.175,0.018l-0.235,0.024c-0.039,0.008-0.076,0.023-0.118,0.023c-0.212,0-0.391-0.122-0.486-0.295
		c-0.101,0.096-0.236,0.156-0.387,0.156c-0.271,0-0.486-0.195-0.54-0.451c-0.104-0.024-0.2-0.069-0.272-0.144
		c-0.053,0.016-0.104,0.032-0.161,0.032c-0.312,0-0.563-0.252-0.563-0.563c0-0.137,0.056-0.258,0.137-0.355
		c-0.081-0.098-0.137-0.219-0.137-0.355c0-0.312,0.252-0.563,0.563-0.563c0.15,0,0.287,0.062,0.388,0.158
		c0.101-0.097,0.236-0.158,0.388-0.158c0.215,0,0.395,0.125,0.49,0.302c0.025-0.004,0.047-0.015,0.073-0.015
		c0.121,0,0.227,0.046,0.319,0.111l-0.01-0.137l-0.025-0.385l0.384-0.027c0.679-0.05,1.893-0.15,3.099-0.278
		c-0.119-0.842-0.576-1.632-1.336-2.144c-1.42-0.957-3.35-0.583-4.307,0.838C16.015,8.772,16.39,10.701,17.81,11.659z"/>
</g>
<g>
</g>
<g>
</g>
<g>
</g>
<g>
</g>
<g>
</g>
<g>
</g>
<g>
</g>
<g>
</g>
<g>
</g>
<g>
</g>
<g>
</g>
<g>
</g>
<g>
</g>
<g>
</g>
<g>
</g>
</svg>
