<?xml version="1.0" encoding="iso-8859-1"?>
<!-- Generator: Adobe Illustrator 16.0.0, SVG Export Plug-In . SVG Version: 6.00 Build 0)  -->
<!DOCTYPE svg PUBLIC "-//W3C//DTD SVG 1.1//EN" "http://www.w3.org/Graphics/SVG/1.1/DTD/svg11.dtd">
<svg version="1.1" id="Layer_1" xmlns="http://www.w3.org/2000/svg" xmlns:xlink="http://www.w3.org/1999/xlink" x="0px" y="0px"
	 width="26.59px" height="21.805px" viewBox="0 0 26.59 21.805" style="enable-background:new 0 0 26.59 21.805;"
	 xml:space="preserve">
<path d="M0.838,21.805l1.654-1.258c0.264,0.235,0.595,0.412,0.905,0.229C4.046,20.389,24.995,5.907,25.971,4.922
	c0.976-0.985,0.506-2.028,0.506-2.028l-0.478,0.364L25.51,2.685L12.373,12.06l0.325,0.427l-8.822,6.156l8.064-7.168l0.338,0.415
	L24.452,1.295L24.01,0.686l0.465-0.381c0,0-0.905-0.7-2.09,0.021C21.2,1.045,2.24,18.049,1.713,18.591
	c-0.226,0.232-0.171,0.55-0.038,0.837L0,20.703L0.838,21.805z"/>
<g>
</g>
<g>
</g>
<g>
</g>
<g>
</g>
<g>
</g>
<g>
</g>
<g>
</g>
<g>
</g>
<g>
</g>
<g>
</g>
<g>
</g>
<g>
</g>
<g>
</g>
<g>
</g>
<g>
</g>
</svg>
