<?xml version="1.0" encoding="iso-8859-1"?>
<!-- Generator: Adobe Illustrator 16.0.0, SVG Export Plug-In . SVG Version: 6.00 Build 0)  -->
<!DOCTYPE svg PUBLIC "-//W3C//DTD SVG 1.1//EN" "http://www.w3.org/Graphics/SVG/1.1/DTD/svg11.dtd">
<svg version="1.1" id="Layer_1" xmlns="http://www.w3.org/2000/svg" xmlns:xlink="http://www.w3.org/1999/xlink" x="0px" y="0px"
	 width="31.805px" height="24.433px" viewBox="0 0 31.805 24.433" style="enable-background:new 0 0 31.805 24.433;"
	 xml:space="preserve">
<g>
	<path d="M21.694,10.886c0.804,0.396,1.66,0.82,2.372,1.176l-4.476-3.692l0.125,0.33C19.716,8.699,20.641,9.723,21.694,10.886z"/>
	<path d="M28.632,16.646c-0.002-0.002-0.005-0.003-0.008-0.005c0.006,0,0.011,0.001,0.011,0.001l-3.66-3.014l-0.667,0.121
		c0.035,0.037,0.063,0.068,0.094,0.101l-1.317,1.7l-3.406-2.639l0.001-0.021l-0.045-0.013l-0.049-0.038l-0.015,0.02l-2.092-0.603
		c0,1.456-1.18,2.635-2.635,2.635c-1.455,0-2.634-1.179-2.634-2.635l-2.878,0.632l-0.003-0.004l-3.499,2.712L4.479,13.85l3.789-3.46
		l0.157-0.143c0.013-0.012,0.022-0.021,0.024-0.023C8.552,10.13,8.474,9.988,8.38,9.885C8.285,9.781,7.352,8.8,7.222,8.658
		C7.04,8.794,7.061,8.921,7.163,9.032S7.94,9.883,7.94,9.883l0.025,0.174l-0.034,0.031L6.947,9.011L6.806,9.139l0.984,1.078
		l-0.123,0.112L6.684,9.251l-0.14,0.128l0.984,1.078L7.41,10.564L6.426,9.486l-0.14,0.128l0.984,1.078l-0.122,0.111L6.164,9.726
		L6.023,9.854l0.984,1.078L6.89,11.039L5.906,9.961l-0.14,0.128l0.984,1.078l-0.099,0.09l-0.984-1.078l-0.141,0.128l0.984,1.078
		l-0.117,0.107l-0.984-1.078l-0.141,0.128l0.984,1.078l-0.125,0.113l-0.984-1.078l-0.14,0.128l0.984,1.078L5.871,11.97l-0.984-1.078
		l-0.14,0.128l0.984,1.078l-0.122,0.111l-0.984-1.078L4.484,11.26l0.984,1.078l-0.118,0.107l-0.984-1.078l-0.14,0.128l0.984,1.078
		l-0.115,0.105L4.111,11.6l-0.14,0.128l0.984,1.078l-0.117,0.107l-0.984-1.078l-0.14,0.128l0.984,1.078l-0.122,0.111l-0.984-1.078
		l-0.14,0.128l0.984,1.077l-0.118,0.107l-0.984-1.078l-0.141,0.128l0.984,1.078l-0.099,0.09l-0.984-1.078l-0.141,0.128l0.984,1.078
		L3.82,13.842l-0.984-1.078l-0.141,0.128L3.68,13.97l-0.124,0.114l-0.984-1.078l-0.14,0.128l0.984,1.078l-0.118,0.107l-0.984-1.078
		L2.174,13.37l0.984,1.078l-0.122,0.111l-0.984-1.078l-0.141,0.128l0.984,1.078l-0.117,0.107l-0.984-1.078l-0.141,0.128l0.984,1.078
		l-0.099,0.09l-0.985-1.078l-0.14,0.128l0.984,1.078l-0.118,0.107L1.297,14.17l-0.14,0.129l0.984,1.078l-0.099,0.09l-0.984-1.078
		l-0.141,0.128l0.984,1.078l-0.117,0.107L0.8,14.624l-0.14,0.128l0.985,1.078l-0.122,0.111l-0.984-1.078l-0.14,0.127l0.984,1.078
		L1.327,16.12l-0.172-0.041c0,0-0.676-0.74-0.777-0.851C0.276,15.117,0.152,15.084,0,15.254c0.13,0.142,1.022,1.16,1.117,1.264
		c0.094,0.104,0.229,0.194,0.331,0.1c0.008-0.007,0.072-0.066,0.182-0.166l1.029-0.939l1.229,1.586l0.133,0.171l1.375,1.774
		l1.942-1.504l-0.003-0.004l2.166-1.678l0.413,8.575h9.088l0.5-8.554l2.08,1.611l-0.003,0.003l1.943,1.505l1.375-1.774l0.132-0.171
		l0.711-0.918c0.207,0.765,0.205,1.368,0.205,1.398c-0.075,0.59,0.187,1.234,0.735,1.655c0.785,0.603,1.863,0.523,2.401-0.178
		C29.618,18.311,29.417,17.249,28.632,16.646z M28.668,18.695c-0.364,0.474-1.115,0.511-1.673,0.083
		c-0.558-0.428-0.715-1.163-0.352-1.636c0.364-0.475,1.114-0.511,1.672-0.083C28.874,17.487,29.032,18.221,28.668,18.695z"/>
	<path d="M31.055,13.733c-0.56-0.43-1.268-0.511-1.823-0.269c-0.132,0.036-1.928,0.489-3.543-0.342
		c-0.234-0.165-6.646-3.312-6.646-3.312l-0.335-0.02l5.425,3.767l0.924-0.167l3.974,2.826c0.024,0.02,0.047,0.041,0.072,0.061
		c0.786,0.603,1.862,0.523,2.401-0.178C32.041,15.397,31.84,14.336,31.055,13.733z M24.493,13.13
		c-0.092,0.12-0.264,0.143-0.384,0.05s-0.142-0.264-0.05-0.384c0.092-0.12,0.264-0.142,0.384-0.05
		C24.563,12.838,24.585,13.01,24.493,13.13z M31.09,15.783c-0.364,0.474-1.114,0.511-1.673,0.082
		c-0.558-0.428-0.715-1.163-0.352-1.637c0.364-0.474,1.114-0.511,1.672-0.083S31.454,15.308,31.09,15.783z"/>
	<path d="M9.336,5.616C9.301,5.716,9.302,5.964,9.329,6.207c0,0.035-0.01,0.068-0.01,0.104c0,0.162,0.007,0.322,0.022,0.48
		c0.247,2.606,2.409,4.571,5.029,4.571c2.786,0,5.052-2.266,5.052-5.051c0-0.14-0.03-0.271-0.042-0.408
		c0.021-0.163,0.039-0.336,0.053-0.539c0.18-0.318,0.098-1.987-0.472-2.019c0.033-0.92-0.342-0.928-0.472-1.172
		c-0.13-0.245-0.236-0.929-0.488-0.96c0.122,0.496,0.073,0.553,0,0.488c-0.074-0.066-0.668-1.222-1.042-1.238
		c0.375,0.489,0.586,0.937,0.521,0.896c-0.065-0.041-2.044-1.303-3.029-1.351c-0.985-0.049-2.214,0.765-2.214,0.765
		s-0.058-0.407,0.309-0.765c-0.269-0.082-0.65,0.662-0.717,0.781c-0.032,0.056-0.546-0.031-1.034,0.195
		c-0.545,0.253-1.077,0.835-1.262,1.206c-0.35,0.7-0.268,1.621-0.261,1.758c0.007,0.138-0.22,0.44-0.179,0.758
		C9.133,5.021,9.41,5.404,9.336,5.616z M10.281,6.959c0.136-0.397,0.384-0.561,0.374-0.814c-0.016-0.456-0.305-0.37-0.309-0.83
		c-0.002-0.25,0.045-0.527,0.119-0.786c0.163-0.356,0.38-0.68,0.63-0.976c0.67-0.205,2.686,0.456,3.126,0.296
		c0.212-0.261,2.06-0.415,2.996-0.22c0.385,0.081,0.882,0.639,1.099,1.563c0.155,0.662,0.218,1.445,0.243,2.062
		c-0.433,1.918-2.143,3.357-4.19,3.357c-2.015,0-3.7-1.37-4.164-3.268C10.223,7.201,10.244,7.066,10.281,6.959z"/>
</g>
<g>
</g>
<g>
</g>
<g>
</g>
<g>
</g>
<g>
</g>
<g>
</g>
<g>
</g>
<g>
</g>
<g>
</g>
<g>
</g>
<g>
</g>
<g>
</g>
<g>
</g>
<g>
</g>
<g>
</g>
</svg>
