<?xml version="1.0" encoding="iso-8859-1"?>
<!-- Generator: Adobe Illustrator 16.0.0, SVG Export Plug-In . SVG Version: 6.00 Build 0)  -->
<!DOCTYPE svg PUBLIC "-//W3C//DTD SVG 1.1//EN" "http://www.w3.org/Graphics/SVG/1.1/DTD/svg11.dtd">
<svg version="1.1" id="Layer_1" xmlns="http://www.w3.org/2000/svg" xmlns:xlink="http://www.w3.org/1999/xlink" x="0px" y="0px"
	 width="30.669px" height="31.777px" viewBox="0 0 30.669 31.777" style="enable-background:new 0 0 30.669 31.777;"
	 xml:space="preserve">
<g>
	<path d="M25.846,4.966c0.926-1.161,0.305-2.219,0.305-2.219L25.684,3.19l-0.587-0.553l-12.914,11.5l0.396,0.418L3.891,22.13
		l7.763-8.565l0.408,0.402l11.747-12.69L23.269,0.68l0.452-0.459c0,0-1.045-0.641-2.225,0.263S2.08,21.687,1.581,22.325
		c-0.213,0.273-0.119,0.606,0.057,0.896L0,24.772l1.02,1.078l1.617-1.531c0.308,0.22,0.681,0.37,0.99,0.139
		C4.274,23.971,24.919,6.128,25.846,4.966z"/>
	<path d="M30.607,8.591c0.148-0.248,0.023-0.662-0.31-0.973c-0.333-0.31-0.755-0.406-0.992-0.239l-0.007-0.007l-0.968,1.04
		l-0.313-0.291l-0.375,0.403l-0.756-0.704l-0.242,0.26l0.755,0.705L27.218,8.98l-0.757-0.705l-0.242,0.26l0.756,0.704l-0.279,0.3
		L25.94,8.835l-0.242,0.26L26.455,9.8l-0.183,0.195L25.517,9.29l-0.243,0.261l0.757,0.704l-0.218,0.234l-0.756-0.704l-0.244,0.26
		l0.757,0.705l-0.182,0.196l-0.757-0.705l-0.242,0.261l0.757,0.704l-0.219,0.234l-0.757-0.704l-0.243,0.26l0.756,0.705l-0.182,0.196
		l-0.756-0.705l-0.242,0.26l0.757,0.705l-0.206,0.221l-0.757-0.704l-0.242,0.26l0.757,0.705l-0.182,0.195l-0.757-0.705l-0.243,0.261
		l0.757,0.705l-0.23,0.248L22.4,12.636l-0.242,0.261l0.756,0.705l-0.183,0.195l-0.756-0.704l-0.243,0.26l0.756,0.705l-0.254,0.274
		l-0.772-0.72l-0.243,0.261l0.771,0.72l-0.182,0.195l-0.772-0.719l-0.241,0.259l0.772,0.72l-1.996,2.142l-0.22-0.155l-1.068,1.146
		c0,0-1.329-0.607-1.166-0.261c0.46,0.916-2.043,3.446-2.775,3.737c-1.396,0.741-5.219,5.054-5.94,6.376
		C7.69,29.341,6.889,29.9,8.238,31.134c1.326,1.258,1.828,0.419,3.083-0.386c1.268-0.813,5.299-4.932,5.939-6.377
		c0.238-0.751,2.585-3.427,3.531-3.033c0.357,0.139-0.344-1.146-0.344-1.146l0.27-0.289c0.464,0.629,2.101,3.283-0.294,6.786
		c-0.006,0.203,0.181,0.51,0.306,0.481c2.605-2.484,2.16-7.932,2.16-7.932s0.383-0.202,0.376-0.403
		c-0.007-0.187-0.4-1.019-0.461-1.148l0.744-0.799l0.741,0.691l0.243-0.26l-0.741-0.69l0.181-0.195l0.742,0.69l0.243-0.261
		l-0.742-0.69l0.254-0.273l0.757,0.705l0.243-0.26l-0.756-0.705l0.181-0.196l0.757,0.705l0.242-0.259l-0.757-0.706l0.231-0.247
		l0.757,0.705l0.242-0.26l-0.756-0.705l0.182-0.195l0.757,0.705l0.243-0.26l-0.757-0.705l0.206-0.222l0.757,0.705l0.242-0.261
		l-0.756-0.705l0.182-0.196l0.757,0.705l0.242-0.26l-0.757-0.705l0.219-0.235l0.757,0.705l0.242-0.261l-0.757-0.705l0.183-0.195
		l0.757,0.706l0.243-0.261l-0.757-0.705l0.218-0.234l0.756,0.705l0.244-0.26l-0.757-0.706l0.182-0.194l0.757,0.704l0.243-0.261
		l-0.757-0.704l0.279-0.3l0.757,0.705l0.243-0.26l-0.757-0.705l0.182-0.195l0.757,0.705l0.242-0.261l-0.757-0.705l0.376-0.403
		l-0.352-0.328l0.968-1.039L30.607,8.591z"/>
</g>
<g>
</g>
<g>
</g>
<g>
</g>
<g>
</g>
<g>
</g>
<g>
</g>
<g>
</g>
<g>
</g>
<g>
</g>
<g>
</g>
<g>
</g>
<g>
</g>
<g>
</g>
<g>
</g>
<g>
</g>
</svg>
