<?xml version="1.0" encoding="utf-8"?>
<!-- Generator: Adobe Illustrator 16.0.4, SVG Export Plug-In . SVG Version: 6.00 Build 0)  -->
<!DOCTYPE svg PUBLIC "-//W3C//DTD SVG 1.1//EN" "http://www.w3.org/Graphics/SVG/1.1/DTD/svg11.dtd">
<svg version="1.1" id="Layer_1" xmlns="http://www.w3.org/2000/svg" xmlns:xlink="http://www.w3.org/1999/xlink" x="0px" y="0px"
	 width="31.617px" height="27.986px" viewBox="0 0 31.617 27.986" enable-background="new 0 0 31.617 27.986" xml:space="preserve">
<path d="M27.55,21.686c-1.323-0.391-0.424-2.158-0.424-2.158s-0.39-0.196-0.433-0.648c-0.043-0.453,0.888-0.795,0.888-0.795
	s-0.97,0.172-1.104-0.313c-0.103-0.365,0.379-0.832,0.379-0.832l-0.004-0.301c0,0-1.502-0.136-1.218-0.919
	c0.201-0.561,0.824-0.941,1.382-1.779c0.264-0.399,0.313-0.822,0.274-1.211c-0.371-0.007-1.052-0.094-0.931-0.68
	c0.289,0.407,0.646,0.407,0.877,0.359c-0.01-0.043-0.018-0.086-0.028-0.126c-0.408-1.052-1.024-4.472,1.16-6.287
	c0.237-0.187,0.562-0.398,0.959-0.617c-3.272-2.104-8.035,2.539-10.701,3.486C15.69,9.911-0.438,6.379,0.009,10.956
	c1.841-3.434,15.83,0.944,15.83,0.944S1.81,9.984,2.307,14.063c2.479-2.863,15.722,0.925,15.722,0.925S3.85,12.797,4.546,15.833
	c1.287-2.387,15.672,1.939,15.522,1.939c-0.148,0-13.084-3.285-13.084,0.796c2.637-2.638,15.334,1.748,15.334,1.748
	S9.173,18.42,9.421,20.906c3.594-1.646,11.841,2.091,17.711,2.239c2.037,0.052,3.474-0.574,4.484-1.412
	C30.803,20.894,28.682,22.019,27.55,21.686z"/>
</svg>
