<?xml version="1.0" encoding="utf-8"?>
<!-- Generator: Adobe Illustrator 16.0.4, SVG Export Plug-In . SVG Version: 6.00 Build 0)  -->
<!DOCTYPE svg PUBLIC "-//W3C//DTD SVG 1.1//EN" "http://www.w3.org/Graphics/SVG/1.1/DTD/svg11.dtd">
<svg version="1.1" id="Layer_1" xmlns="http://www.w3.org/2000/svg" xmlns:xlink="http://www.w3.org/1999/xlink" x="0px" y="0px"
	 width="32px" height="31.652px" viewBox="0 0 32 31.652" enable-background="new 0 0 32 31.652" xml:space="preserve">
<path d="M16.368,27.547h-3.423l0.442,2.491h3.351l1.076,1.614H5.703l1.076-1.614h3.15l0.442-2.491H6.88v-2.118h7.784l1.695-7.66
	l2.071,0.459l-2.052,9.263l-0.01-0.002V27.547z M13.643,13.584c1.784,0,3.23-1.446,3.23-3.229c0-1.784-1.446-3.23-3.23-3.23
	c-1.784,0-3.23,1.446-3.23,3.23C10.413,12.137,11.859,13.584,13.643,13.584z M7.259,24.621h1.808h2.86h1.924
	c0,0,1.689-8.264,1.876-9.176s0.109-1.353-0.497-1.356c-0.605-0.005-3.028,0-3.028,0v0.001l-0.005-0.002
	c0,0-2.619,5.524-4.942,5.375c-1.263,0.02-1.227,1.311,1.332,1.396c0.589,0.02,1.179-0.3,1.741-0.798l-0.439,1.589
	c-1.64-0.004-3.745,0.006-4.22,0.072c-0.661,0.092-3.67,4.979-4.708,6.694H0v1.459h4.699v-1.459H4.623L7.259,24.621z M28.575,7.058
	c1.892,0,3.425-1.58,3.425-3.529S30.467,0,28.575,0S25.15,1.58,25.15,3.529S26.684,7.058,28.575,7.058z M30.827,8.573
	c1.38,1.122,0.384,8.174,0.135,10.251c-0.08,0.662-0.541,0.981-1.146,1.1v10.085v1.23v0.34h-5.135v-1.57h1.51l-0.518-5.339
	l0.586-5.429c-0.285-0.244,0.035-7.572,0.064-8.301c0.019-0.479-2.693-0.145-4.555,0.142l0.633,2.807l-2.659,0.601l-1.56-6.909
	L18.5,7.509L18.372,6.94l0.157-0.036l-0.041-0.188l0.502-0.112l-0.055-0.246c-0.069-0.006-0.125-0.059-0.125-0.125
	c0-0.048,0.031-0.083,0.072-0.105l-0.064-0.285l0.836-0.188l0.173,0.763l0.442-0.101l0.041,0.186l0.146-0.031l0.129,0.566
	l0.257-0.057l0.534,2.365c2.146-0.114,3.954-0.52,4.992-0.917C27.438,8.129,29.589,7.566,30.827,8.573z M20.314,13.922l-1.355-6.006
	l-0.337,0.075l1.354,6.007L20.314,13.922z M19.775,14.631l0.096,0.424l2.658-0.604l-0.096-0.424L19.775,14.631z M17.125,6.768
	l-0.029-0.132l-1.988,0.428l0.028,0.132L17.125,6.768z M18.484,6.2l-0.01-0.134l-2.737,0.2l0.01,0.134L18.484,6.2z M16.25,7.743
	l2.309-1.219l-0.062-0.118l-2.309,1.219L16.25,7.743z"/>
</svg>
