<?xml version="1.0" encoding="iso-8859-1"?>
<!-- Generator: Adobe Illustrator 16.0.0, SVG Export Plug-In . SVG Version: 6.00 Build 0)  -->
<!DOCTYPE svg PUBLIC "-//W3C//DTD SVG 1.1//EN" "http://www.w3.org/Graphics/SVG/1.1/DTD/svg11.dtd">
<svg version="1.1" id="Layer_1" xmlns="http://www.w3.org/2000/svg" xmlns:xlink="http://www.w3.org/1999/xlink" x="0px" y="0px"
	 width="31.626px" height="31.282px" viewBox="0 0 31.626 31.282" style="enable-background:new 0 0 31.626 31.282;"
	 xml:space="preserve">
<g>
	<polygon points="16.177,27.226 16.177,27.166 16.188,27.168 18.214,18.014 16.169,17.561 14.492,25.131 6.8,25.131 6.8,27.226 
		10.249,27.226 9.813,29.687 6.7,29.687 5.636,31.282 17.607,31.282 16.543,29.687 13.231,29.687 12.794,27.226 	"/>
	<circle cx="13.483" cy="10.232" r="3.192"/>
	<path d="M7.175,24.332h1.787h2.826h1.901c0,0,1.669-8.167,1.854-9.067s0.107-1.336-0.49-1.341c-0.6-0.005-2.992,0-2.992,0v0.001
		l-0.007-0.002c0,0-2.587,5.46-4.883,5.313c-1.249,0.018-1.213,1.295,1.316,1.378c0.582,0.02,1.166-0.296,1.72-0.788l-0.435,1.569
		c-1.62-0.003-3.701,0.007-4.17,0.072c-0.652,0.09-3.627,4.922-4.652,6.617H0v1.441h4.645v-1.441H4.569L7.175,24.332z"/>
	<ellipse cx="28.241" cy="3.488" rx="3.385" ry="3.488"/>
	<path d="M30.467,8.473c-1.224-0.994-3.649-0.637-4.705-0.34c-0.813,0.229-2.274,1.177-3.852,1.954v-0.013
		c0.443-0.308,0.735-0.818,0.735-1.398c0-0.939-0.761-1.699-1.7-1.699c-0.181,0-0.355,0.028-0.52,0.081c-1.141,0-3.298,0-3.507,0
		c-0.285,0-0.238,1.552,0,1.552c0.123,0,1.268,0,2.331,0c-0.001,0.022-0.004,0.044-0.004,0.066c0,0.844,0.615,1.541,1.422,1.674
		v0.288c-0.065,0.025-0.131,0.056-0.195,0.08l-0.251,1.436c0,0,0.169-0.063,0.446-0.163v0.405c-0.121,0.127-0.195,0.298-0.195,0.487
		c0,0.393,0.321,0.711,0.719,0.711c0.109,0,0.213-0.025,0.306-0.069l0.189-0.128c0.138-0.13,0.224-0.313,0.224-0.514
		c0-0.084-0.016-0.162-0.042-0.237h0.042v-1.089c1.696-0.575,4.059-1.294,4.041-0.832c-0.029,0.721-0.279,8.052,0.002,8.293l0,0
		l-0.579,5.364l0.512,5.277h-1.493v1.551h5.077v-0.335v-1.216V19.69c0.596-0.118,1.052-0.433,1.13-1.086
		C30.847,16.551,31.831,9.582,30.467,8.473z M20.945,8.054c0.128,0,0.247,0.039,0.345,0.104h-0.688
		C20.7,8.093,20.819,8.054,20.945,8.054z M20.529,8.215h0.833c0.044,0.04,0.081,0.086,0.111,0.137h-1.057
		C20.448,8.301,20.486,8.255,20.529,8.215z M20.386,8.408h1.12c0.021,0.045,0.039,0.093,0.048,0.145h-1.217
		C20.348,8.501,20.364,8.453,20.386,8.408z M20.325,8.676c0-0.022,0.001-0.044,0.003-0.066h1.235
		c0.002,0.022,0.003,0.044,0.003,0.066c0,0.029-0.002,0.059-0.006,0.087h-1.229C20.328,8.734,20.325,8.705,20.325,8.676z
		 M20.343,8.819h1.206c-0.011,0.047-0.027,0.092-0.049,0.134h-1.109C20.37,8.911,20.354,8.866,20.343,8.819z M20.424,9.01h1.044
		c-0.029,0.047-0.065,0.09-0.107,0.126h-0.828C20.49,9.1,20.454,9.057,20.424,9.01z M20.605,9.193h0.681
		c-0.097,0.065-0.215,0.103-0.341,0.103C20.82,9.296,20.703,9.259,20.605,9.193z"/>
</g>
<g>
</g>
<g>
</g>
<g>
</g>
<g>
</g>
<g>
</g>
<g>
</g>
<g>
</g>
<g>
</g>
<g>
</g>
<g>
</g>
<g>
</g>
<g>
</g>
<g>
</g>
<g>
</g>
<g>
</g>
</svg>
