<?xml version="1.0" encoding="iso-8859-1"?>
<!-- Generator: Adobe Illustrator 16.0.0, SVG Export Plug-In . SVG Version: 6.00 Build 0)  -->
<!DOCTYPE svg PUBLIC "-//W3C//DTD SVG 1.1//EN" "http://www.w3.org/Graphics/SVG/1.1/DTD/svg11.dtd">
<svg version="1.1" id="Layer_1" xmlns="http://www.w3.org/2000/svg" xmlns:xlink="http://www.w3.org/1999/xlink" x="0px" y="0px"
	 width="27.4px" height="29.217px" viewBox="0 0 27.4 29.217" style="enable-background:new 0 0 27.4 29.217;" xml:space="preserve"
	>
<path d="M18.084,2.259c0,0,1.198-3.224,3.077-1.969c-1.425,1.196-1.254,4.16-1.254,4.16s6.213,1.537,5.699,3.19
	c-0.856-0.798-1.312,0-1.312,0s3.707,2.565,3.021,4.56c-0.627-1.084-1.368-0.741-1.368-0.741s-0.115,8.491-1.653,9.288
	c0.229-1.88-0.684-2.508-0.684-2.508s-0.854,10.41-3.304,10.677c0.569-1.729-0.41-4.942-1.539-7.2s-3.419-6.838-3.419-6.838
	s-0.684,2.223-0.399,2.564c-1.254,0.398-0.912-1.596-0.912-1.596s-5.186,7.465-6.496,5.756c1.539-0.969,1.025-3.077,1.025-3.077
	s-1.88,3.133-2.165,2.335c0.851-0.436,1.139-4.329,1.139-4.329s-5.471,8.319-2.507,12.65c-4.274,0.798-6.383-12.253-4.103-18.235
	C3.211,4.962,10.962-0.224,13.64,0.86C16.317,1.942,18.084,2.259,18.084,2.259z"/>
<g>
</g>
<g>
</g>
<g>
</g>
<g>
</g>
<g>
</g>
<g>
</g>
<g>
</g>
<g>
</g>
<g>
</g>
<g>
</g>
<g>
</g>
<g>
</g>
<g>
</g>
<g>
</g>
<g>
</g>
</svg>
