<?xml version="1.0" encoding="utf-8"?>
<!-- Generator: Adobe Illustrator 16.0.4, SVG Export Plug-In . SVG Version: 6.00 Build 0)  -->
<!DOCTYPE svg PUBLIC "-//W3C//DTD SVG 1.1//EN" "http://www.w3.org/Graphics/SVG/1.1/DTD/svg11.dtd">
<svg version="1.1" id="Layer_1" xmlns="http://www.w3.org/2000/svg" xmlns:xlink="http://www.w3.org/1999/xlink" x="0px" y="0px"
	 width="32px" height="31.65px" viewBox="0 0 32 31.65" enable-background="new 0 0 32 31.65" xml:space="preserve">
<path d="M10.413,10.354c0-1.783,1.446-3.229,3.23-3.229c1.784,0,3.23,1.446,3.23,3.229c0,1.784-1.446,3.23-3.23,3.23
	C11.859,13.584,10.413,12.138,10.413,10.354z M28.575,7.058c1.892,0,3.425-1.58,3.425-3.529C32,1.58,30.467,0,28.575,0
	S25.15,1.58,25.15,3.529C25.15,5.478,26.684,7.058,28.575,7.058z M30.827,8.572c1.38,1.122,0.384,8.175,0.135,10.252
	c-0.08,0.66-0.541,0.98-1.146,1.1v10.086v1.231v0.339h-5.135v-1.57h1.512l-0.519-5.337l0.585-5.43
	c-0.285-0.244,0.035-7.573,0.063-8.303c0.017-0.425-6.486,0.3-6.486,0.3l-0.521,0.018v2.644h-0.207v0.608
	c0.234,0.089,0.394,0.256,0.394,0.449c0,0.284-0.34,0.515-0.758,0.515s-0.757-0.231-0.757-0.515c0-0.193,0.158-0.36,0.392-0.449
	v-0.608h-0.167v-3.599l-0.095-0.006c0,0,0.057-0.351-0.224-0.351c0.074-0.375-0.23-1.168-0.754-1.186
	c0.053-0.082,0.074-0.165,0.077-0.243c-0.925-0.742-1.55-2.123-1.55-3.707c0-2.359,1.391-4.284,3.1-4.284
	c1.711,0,3.102,1.925,3.102,4.284c0,1.588-0.631,2.974-1.559,3.712c0.006,0.077,0.028,0.156,0.078,0.238
	c-0.306,0.011-0.533,0.287-0.658,0.589l0.543,0.021c2.627-0.011,4.886-0.478,6.096-0.942C27.438,8.128,29.589,7.566,30.827,8.572z
	 M21.27,4.81c0-2.032-1.123-3.686-2.502-3.686s-2.5,1.654-2.5,3.686c0,2.033,1.122,3.688,2.5,3.688S21.27,6.843,21.27,4.81z
	 M3.818,26.194c0.331,0.057,0.669,0.108,1.011,0.159c0.036,0.004,0.07,0.012,0.106,0.016c1.583,0.231,3.243,0.399,4.758,0.453
	c0.09,0.004,0.178,0.005,0.268,0.008c0.191,0.005,0.379,0.009,0.566,0.01c0.053,0,0.109,0.002,0.162,0.002
	c0.066,0,0.129-0.001,0.195-0.002c0.105,0,0.209-0.002,0.312-0.005c0.128-0.003,0.254-0.008,0.379-0.013
	c0.1-0.004,0.2-0.01,0.297-0.015c0.119-0.007,0.235-0.016,0.35-0.023c0.095-0.011,0.188-0.019,0.279-0.026
	c0.111-0.012,0.217-0.024,0.322-0.039c0.085-0.013,0.172-0.023,0.254-0.036c0.102-0.016,0.197-0.036,0.293-0.056
	c0.074-0.016,0.152-0.028,0.223-0.046c0.095-0.021,0.182-0.047,0.269-0.073c0.061-0.021,0.125-0.035,0.184-0.055
	c0.091-0.031,0.169-0.067,0.25-0.104c0.042-0.019,0.09-0.034,0.13-0.055c0.114-0.059,0.217-0.119,0.303-0.188
	c0.045-0.035,0.088-0.079,0.13-0.13c0.017-0.02,0.032-0.046,0.049-0.068c0.024-0.033,0.049-0.064,0.072-0.104
	c0.019-0.031,0.035-0.068,0.053-0.103c0.02-0.036,0.04-0.072,0.058-0.112c0.018-0.039,0.035-0.084,0.051-0.127
	c0.017-0.042,0.035-0.081,0.051-0.127c0.017-0.045,0.032-0.095,0.046-0.144c0.016-0.048,0.031-0.095,0.047-0.146
	c0.014-0.05,0.027-0.104,0.042-0.155c0.014-0.056,0.029-0.108,0.042-0.168c0.013-0.052,0.024-0.107,0.036-0.162
	c0.015-0.062,0.027-0.125,0.041-0.19c0.01-0.054,0.02-0.108,0.029-0.164c0.013-0.071,0.026-0.143,0.039-0.218
	c0.008-0.053,0.016-0.106,0.025-0.16c0.011-0.081,0.024-0.162,0.035-0.244c0.007-0.054,0.013-0.105,0.02-0.157
	c0.011-0.09,0.023-0.181,0.033-0.272c0.005-0.047,0.01-0.096,0.015-0.145c0.011-0.1,0.021-0.2,0.031-0.303
	c0.003-0.043,0.007-0.088,0.011-0.13c0.009-0.11,0.019-0.221,0.027-0.333c0.002-0.04,0.006-0.079,0.009-0.121
	c0.008-0.118,0.017-0.237,0.023-0.357c0.002-0.032,0.003-0.063,0.004-0.096c0.008-0.13,0.015-0.261,0.021-0.394
	c0.001-0.023,0.002-0.051,0.003-0.077c0.006-0.14,0.012-0.277,0.017-0.415c0-0.021,0-0.039,0.002-0.061
	c0.004-0.146,0.008-0.292,0.011-0.437c0-0.008,0.001-0.012,0.001-0.016c0.037-1.725-0.022-3.455-0.12-4.621v-0.001
	c-0.001-0.012-0.003-0.021-0.003-0.032c-0.01-0.113-0.02-0.22-0.03-0.319c-0.004-0.043-0.008-0.082-0.014-0.122
	c-0.007-0.066-0.014-0.131-0.021-0.192c-0.006-0.038-0.01-0.074-0.015-0.11c-0.008-0.06-0.016-0.112-0.024-0.163
	c-0.004-0.028-0.008-0.059-0.012-0.084c-0.013-0.071-0.026-0.139-0.039-0.191c-0.119-0.084-0.253-0.149-0.397-0.206
	c-0.007-0.004-0.012-0.007-0.02-0.009c-0.144-0.056-0.298-0.098-0.458-0.132c-0.003-0.001-0.006-0.002-0.01-0.002h-0.002
	c-1.112-0.226-2.542,0.02-3.16,0.019c-0.283,0.152-0.556,1.453-0.99,2.892c-0.056,0.185-0.114,0.369-0.175,0.556
	c-0.001,0.005-0.002,0.01-0.004,0.014c-0.127,0.388-0.268,0.773-0.425,1.145c0,0,0,0-0.001,0.001
	c-0.076,0.183-0.158,0.359-0.244,0.531c-0.003,0.005-0.005,0.011-0.008,0.016c-0.086,0.172-0.177,0.334-0.272,0.49
	c0,0.002-0.002,0.004-0.003,0.006c-0.292,0.47-0.626,0.854-1.016,1.088c0.001,0,0.001,0,0.001,0
	c-0.306,0.184-0.645,0.278-1.025,0.244C3.785,20.602-0.398,25.479,3.818,26.194z M16.367,27.487h0.002l0.009,0.003l2.05-9.265
	l-2.068-0.458l-0.154,0.693c0.049,3.197-0.185,7.149-1.227,7.965c-0.697,0.543-2.141,0.82-4.29,0.82
	c-1.124,0-2.435-0.081-3.81-0.228v0.527h3.491l-0.443,2.49H6.779l-1.077,1.613h12.112l-1.076-1.613h-3.352l-0.442-2.49h3.423V27.487
	z M7.354,20.682c0.041,0.003,0.082,0.004,0.12,0.004c1.037,0,1.761-1.329,2.282-2.763c-0.781,0.902-1.66,1.594-2.5,1.539
	C6.244,19.478,6.069,20.309,7.354,20.682z M3.751,26.593C3.144,26.49,2.71,26.308,2.4,26.091c-0.586,0.924-1.111,1.783-1.438,2.325
	H0v1.457h4.699v-1.457H4.623l1.065-1.534C5.045,26.797,4.395,26.702,3.751,26.593z M17.505,7.413l0.136,0.063l2.394-5.118
	l-0.136-0.063L17.505,7.413z M19.147,2.446l-0.135-0.062L17.906,4.74l0.135,0.062L19.147,2.446z M18.276,7.211l0.135,0.063
	l1.109-2.354l-0.135-0.063L18.276,7.211z"/>
</svg>
