<?xml version="1.0" encoding="iso-8859-1"?>
<!-- Generator: Adobe Illustrator 16.0.0, SVG Export Plug-In . SVG Version: 6.00 Build 0)  -->
<!DOCTYPE svg PUBLIC "-//W3C//DTD SVG 1.1//EN" "http://www.w3.org/Graphics/SVG/1.1/DTD/svg11.dtd">
<svg version="1.1" id="Layer_1" xmlns="http://www.w3.org/2000/svg" xmlns:xlink="http://www.w3.org/1999/xlink" x="0px" y="0px"
	 width="32px" height="25.731px" viewBox="0 0 32 25.731" style="enable-background:new 0 0 32 25.731;" xml:space="preserve">
<g>
	<path d="M32,20.941l-2.68-2.49l2.49-2.59h-3.816c-0.058-0.136-0.134-0.263-0.212-0.377c0.212-0.206,0.4-0.384,0.458-0.511
		c0.336-0.567,0.001-0.989-0.316-1.316c0.053-0.079,0.103-0.156,0.16-0.237c0.047-0.073,0.096-0.144,0.141-0.21
		c0.131-0.197,0.244-0.367,0.286-0.483c0.181-0.438,0.056-0.842-0.369-1.195c-0.051-0.044-0.1-0.076-0.15-0.114
		c0.123-0.262,0.241-0.498,0.268-0.637c0.126-0.51-0.171-0.819-0.5-1.018c-0.074-0.047-0.149-0.084-0.224-0.122
		c0.021-0.092,0.039-0.183,0.061-0.274c0.023-0.084,0.047-0.165,0.068-0.243c0.067-0.232,0.125-0.434,0.131-0.569
		c-0.008-0.68-0.501-0.926-0.929-1.064c0.037-0.29,0.076-0.547,0.061-0.687c-0.104-0.647-0.626-0.78-1.076-0.845
		c-0.012-0.154-0.023-0.31-0.027-0.447c-0.013-0.29-0.022-0.519-0.078-0.646c-0.199-0.642-0.737-0.717-1.127-0.717
		c-0.027,0-0.055,0.003-0.084,0.003c-0.056-0.29-0.101-0.543-0.176-0.663c-0.289-0.598-0.833-0.543-1.282-0.455
		c-0.068-0.153-0.134-0.307-0.191-0.444c-0.099-0.24-0.183-0.447-0.265-0.563c-0.187-0.269-0.448-0.405-0.775-0.405
		c-0.129,0-0.268,0.021-0.426,0.063c-0.064,0.017-0.119,0.042-0.18,0.063c-0.149-0.251-0.276-0.47-0.378-0.574
		c-0.359-0.382-0.789-0.285-1.127-0.137c-0.087,0.037-0.163,0.084-0.242,0.128c-0.111-0.119-0.219-0.242-0.313-0.353
		c-0.181-0.212-0.325-0.38-0.445-0.455c-0.389-0.255-0.803-0.237-1.246,0.063c-0.053,0.04-0.095,0.08-0.145,0.121
		C17.12,0.349,16.929,0.179,16.8,0.123c-0.469-0.214-0.839-0.023-1.111,0.228c-0.068,0.068-0.126,0.14-0.184,0.209
		c-0.136-0.072-0.268-0.148-0.392-0.222c-0.253-0.149-0.452-0.268-0.59-0.293c-0.472-0.132-0.87,0.031-1.158,0.467
		c-0.037,0.054-0.064,0.103-0.097,0.154c-0.272-0.109-0.509-0.21-0.649-0.213c-0.515-0.064-0.809,0.224-0.974,0.58
		c-0.044,0.084-0.075,0.167-0.107,0.249c-0.167-0.025-0.332-0.056-0.485-0.086c-0.24-0.046-0.447-0.085-0.589-0.085h-0.028
		c-0.683,0.021-0.877,0.622-0.942,0.82C9.473,1.993,9.465,2.052,9.45,2.112C9.162,2.101,8.91,2.088,8.768,2.115
		C8.251,2.208,8.099,2.622,8.04,2.985C8.024,3.077,8.02,3.167,8.014,3.256C7.863,3.281,7.708,3.304,7.563,3.321
		C7.272,3.356,7.042,3.385,6.917,3.452C6.287,3.717,6.26,4.267,6.306,4.716C6.027,4.794,5.783,4.859,5.671,4.941
		C5.107,5.285,5.201,5.816,5.324,6.257c-0.06,0.031-0.117,0.064-0.176,0.095L5.061,6.396C4.985,6.438,4.91,6.478,4.839,6.515
		C4.628,6.625,4.446,6.72,4.353,6.804C3.811,7.237,4.036,7.835,4.11,8.032c0.023,0.06,0.05,0.11,0.076,0.166
		c-0.23,0.17-0.439,0.316-0.529,0.422C3.298,9.01,3.432,9.429,3.614,9.755c0.047,0.08,0.096,0.149,0.144,0.221
		c-0.125,0.143-0.254,0.277-0.37,0.397C3.223,10.546,3.08,10.693,3,10.815c-0.311,0.601,0.001,1.051,0.31,1.377
		c-0.162,0.23-0.308,0.432-0.37,0.562c-0.21,0.616,0.179,0.98,0.539,1.253c-0.061,0.141-0.128,0.282-0.193,0.412
		c-0.131,0.267-0.234,0.477-0.245,0.618c-0.067,0.367,0.037,0.628,0.208,0.824H0.191l2.49,2.59L0,20.941h5.785
		c0.192,0.215,0.476,0.286,0.738,0.306c0.09,0.005,0.171,0.002,0.255,0.001c0.046,0.168,0.083,0.338,0.116,0.489
		c0.059,0.265,0.104,0.474,0.17,0.603c0.223,0.413,0.617,0.588,1.126,0.536c0.072-0.01,0.134-0.026,0.202-0.041
		c0.103,0.268,0.188,0.501,0.271,0.616c0.31,0.411,0.727,0.42,1.086,0.327c0.087-0.027,0.167-0.06,0.247-0.091
		c0.055,0.086,0.112,0.174,0.157,0.251c0.193,0.312,0.351,0.559,0.469,0.674c0.188,0.184,0.401,0.285,0.645,0.302
		c0.186-0.003,0.381-0.056,0.598-0.163c0.061-0.029,0.11-0.063,0.166-0.094c0.188,0.221,0.356,0.409,0.471,0.49
		c0.208,0.15,0.415,0.199,0.605,0.184c0.192-0.031,0.37-0.123,0.527-0.233c0.071-0.05,0.134-0.103,0.197-0.155
		c0.139,0.104,0.272,0.212,0.391,0.31c0.201,0.164,0.374,0.305,0.498,0.366c0.144,0.075,0.287,0.113,0.43,0.113
		c0.344,0,0.616-0.219,0.792-0.385c0.052-0.05,0.092-0.1,0.138-0.15c0.245,0.146,0.46,0.277,0.598,0.32
		c0.499,0.176,0.827-0.128,1.055-0.418c0.053-0.069,0.095-0.139,0.141-0.208c0.164,0.055,0.328,0.114,0.473,0.17
		c0.251,0.094,0.448,0.169,0.592,0.186c0.47,0.034,0.821-0.182,1.065-0.651c0.031-0.066,0.052-0.128,0.076-0.193
		c0.282,0.061,0.529,0.117,0.671,0.112c0.514-0.035,0.749-0.381,0.869-0.731c0.026-0.09,0.042-0.174,0.059-0.261
		c0.095,0.001,0.19,0.003,0.286,0.009c0.138,0.003,0.267,0.006,0.383,0.006c0.214,0,0.348-0.01,0.437-0.029
		c0.47-0.093,0.739-0.417,0.797-0.963c0.009-0.067,0.009-0.127,0.012-0.192c0.291-0.038,0.544-0.074,0.674-0.126
		c0.495-0.177,0.597-0.588,0.579-0.974c-0.001-0.087-0.012-0.166-0.02-0.247c0.056-0.021,0.113-0.043,0.169-0.063H32z
		 M27.603,12.371c0.053-0.259,0.178-0.521,0.302-0.77c0.036,0.027,0.071,0.051,0.107,0.081c0.362,0.302,0.462,0.609,0.313,0.972
		c-0.035,0.099-0.143,0.259-0.268,0.444c-0.045,0.068-0.093,0.14-0.139,0.21c-0.048,0.067-0.09,0.137-0.137,0.204
		c-0.07-0.07-0.134-0.136-0.182-0.196c0.008-0.167,0.026-0.332,0.026-0.5C27.626,12.665,27.609,12.521,27.603,12.371z
		 M27.637,15.627c0.053,0.076,0.1,0.154,0.14,0.234h-0.357C27.491,15.781,27.562,15.702,27.637,15.627z M26.845,7.691
		c0.376,0.128,0.744,0.331,0.75,0.86c-0.005,0.106-0.063,0.306-0.123,0.518c-0.021,0.077-0.045,0.16-0.073,0.263
		c-0.016,0.066-0.031,0.14-0.047,0.21C27.27,9.5,27.187,9.459,27.126,9.417c-0.089-0.294-0.192-0.58-0.3-0.863
		C26.798,8.275,26.82,7.975,26.845,7.691z M3.879,15.861h-0.34c-0.222-0.175-0.372-0.411-0.3-0.798
		c0.009-0.114,0.114-0.329,0.227-0.557c0.059-0.119,0.119-0.249,0.177-0.379c0.077,0.057,0.149,0.11,0.205,0.161
		c0.04,0.321,0.084,0.644,0.149,0.958C3.987,15.446,3.937,15.656,3.879,15.861z M3.855,11.288c-0.109,0.251-0.271,0.504-0.431,0.735
		c-0.269-0.292-0.492-0.646-0.252-1.107c0.064-0.097,0.202-0.239,0.36-0.404c0.105-0.11,0.223-0.235,0.337-0.362
		c0.05,0.072,0.1,0.145,0.134,0.208C3.939,10.664,3.896,10.976,3.855,11.288z M25.558,4.934c0.045,0.104,0.055,0.338,0.065,0.585
		c0.005,0.126,0.016,0.27,0.027,0.41c-0.096-0.014-0.188-0.025-0.263-0.044c-0.178-0.248-0.357-0.493-0.553-0.728
		c-0.126-0.236-0.202-0.53-0.261-0.811C24.966,4.337,25.391,4.396,25.558,4.934z M21.469,1.875c0.478-0.127,0.773-0.043,0.987,0.265
		c0.069,0.099,0.15,0.295,0.244,0.523c0.051,0.126,0.113,0.269,0.176,0.408c-0.095,0.02-0.186,0.036-0.26,0.041
		c-0.249-0.179-0.505-0.344-0.766-0.502c-0.188-0.199-0.356-0.45-0.506-0.691C21.387,1.905,21.426,1.886,21.469,1.875z
		 M17.602,0.581c0.369-0.25,0.697-0.271,1.023-0.059c0.097,0.061,0.245,0.234,0.402,0.418c0.085,0.1,0.184,0.211,0.284,0.32
		c-0.074,0.043-0.15,0.089-0.215,0.118c-0.308-0.092-0.619-0.175-0.937-0.241c-0.23-0.117-0.458-0.293-0.665-0.467
		C17.532,0.642,17.565,0.609,17.602,0.581z M13.529,0.625C13.715,0.344,13.948,0.2,14.217,0.2c0.079,0,0.164,0.013,0.261,0.039
		c0.114,0.021,0.317,0.142,0.532,0.27c0.109,0.064,0.235,0.134,0.359,0.202c-0.057,0.069-0.114,0.141-0.168,0.19
		c-0.315,0.012-0.63,0.031-0.939,0.068c-0.264-0.03-0.542-0.129-0.804-0.232C13.482,0.7,13.502,0.663,13.529,0.625z M9.683,1.993
		c0.149-0.461,0.385-0.672,0.781-0.683c0.123,0,0.322,0.037,0.551,0.081c0.134,0.026,0.288,0.054,0.442,0.077
		c-0.034,0.085-0.067,0.17-0.103,0.232c-0.288,0.113-0.568,0.238-0.846,0.372c-0.269,0.05-0.572,0.053-0.855,0.045
		C9.665,2.076,9.669,2.035,9.683,1.993z M7.001,3.632C7.103,3.579,7.338,3.55,7.587,3.519c0.126-0.016,0.269-0.037,0.41-0.061
		C7.994,3.548,7.991,3.64,7.979,3.712C7.737,3.917,7.5,4.128,7.276,4.352C7.048,4.487,6.769,4.58,6.501,4.659
		C6.462,4.252,6.5,3.843,7.001,3.632z M4.349,8.077c-0.018-0.04-0.037-0.074-0.053-0.116C4.125,7.505,4.18,7.196,4.48,6.957
		C4.56,6.886,4.732,6.796,4.931,6.69C5.003,6.653,5.08,6.613,5.155,6.572L5.24,6.528c0.045-0.023,0.094-0.051,0.139-0.076
		c0.028,0.095,0.053,0.184,0.064,0.26C5.285,6.978,5.138,7.246,5,7.523C4.826,7.733,4.578,7.911,4.349,8.077z M8.167,22.679
		c-0.053,0.005-0.104,0.008-0.157,0.008c-0.357,0-0.609-0.145-0.77-0.439c-0.053-0.104-0.098-0.313-0.15-0.553
		c-0.031-0.138-0.068-0.292-0.107-0.445c0.094-0.003,0.186-0.006,0.262,0.001c0.221,0.22,0.454,0.427,0.689,0.628
		c0.156,0.225,0.279,0.504,0.385,0.77C8.267,22.657,8.218,22.671,8.167,22.679z M8.535,19.069V16.15h0.538v1.12h0.988v-1.12h0.537
		v2.919h-0.537v-1.26H9.073v1.26H8.535z M11.777,24.572c-0.19,0.095-0.358,0.141-0.506,0.143c-0.186-0.013-0.356-0.095-0.509-0.244
		c-0.104-0.1-0.261-0.348-0.438-0.634c-0.039-0.066-0.092-0.145-0.139-0.219c0.093-0.036,0.182-0.072,0.258-0.091
		c0.279,0.137,0.563,0.266,0.852,0.381c0.223,0.153,0.422,0.374,0.603,0.595C11.858,24.526,11.82,24.552,11.777,24.572z
		 M15.804,25.202c-0.151,0.143-0.383,0.33-0.655,0.33c-0.108,0-0.223-0.03-0.339-0.092c-0.106-0.052-0.271-0.187-0.463-0.343
		c-0.107-0.088-0.231-0.186-0.356-0.28c0.075-0.063,0.148-0.123,0.212-0.163c0.307,0.037,0.618,0.059,0.933,0.073
		c0.26,0.086,0.521,0.229,0.766,0.368C15.868,25.132,15.84,25.169,15.804,25.202z M19.823,24.507
		c-0.189,0.366-0.448,0.544-0.787,0.544c-0.026,0-0.055-0.001-0.08-0.003c-0.115-0.014-0.313-0.088-0.541-0.175
		c-0.131-0.05-0.28-0.103-0.43-0.153c0.048-0.079,0.097-0.157,0.142-0.217c0.313-0.065,0.619-0.147,0.923-0.238
		c0.268-0.004,0.557,0.045,0.829,0.1C19.86,24.412,19.844,24.46,19.823,24.507z M15.686,23.438c-2.6,0-4.98-0.941-6.828-2.497
		h13.656C20.667,22.497,18.285,23.438,15.686,23.438z M12.095,17.424c-0.017-0.036-0.04-0.065-0.068-0.085
		c-0.028-0.021-0.063-0.035-0.1-0.042s-0.077-0.01-0.121-0.01c-0.094,0-0.168,0.024-0.225,0.073
		c-0.056,0.049-0.088,0.131-0.098,0.246h-0.485c0.008-0.137,0.035-0.25,0.085-0.34s0.115-0.162,0.191-0.217
		c0.078-0.055,0.165-0.094,0.261-0.117c0.096-0.022,0.194-0.034,0.295-0.034c0.089,0,0.18,0.007,0.27,0.022
		c0.092,0.016,0.175,0.044,0.251,0.088c0.074,0.044,0.137,0.104,0.184,0.184c0.048,0.08,0.073,0.182,0.073,0.307V18.6
		c0,0.095,0.003,0.187,0.012,0.274c0.01,0.087,0.025,0.152,0.049,0.195h-0.492c-0.009-0.032-0.017-0.065-0.023-0.1
		c-0.004-0.034-0.009-0.068-0.011-0.104c-0.078,0.096-0.17,0.163-0.273,0.202c-0.106,0.04-0.214,0.061-0.322,0.061
		c-0.084,0-0.164-0.014-0.237-0.039c-0.072-0.027-0.137-0.065-0.191-0.117c-0.054-0.052-0.096-0.117-0.127-0.196
		s-0.047-0.173-0.047-0.282c0-0.12,0.018-0.219,0.052-0.297c0.034-0.077,0.079-0.139,0.137-0.186s0.121-0.081,0.192-0.104
		c0.072-0.023,0.146-0.041,0.222-0.055c0.074-0.014,0.147-0.025,0.216-0.033c0.068-0.009,0.13-0.021,0.183-0.036
		c0.054-0.017,0.097-0.041,0.129-0.072c0.031-0.031,0.047-0.076,0.047-0.137C12.121,17.511,12.113,17.461,12.095,17.424z
		 M13.482,16.956v2.113h-0.485v-2.113H13.482z M12.997,16.629V16.15h0.485v0.479H12.997z M14.335,17.349
		c0.021-0.065,0.053-0.126,0.092-0.182c0.039-0.057,0.084-0.104,0.134-0.144s0.104-0.07,0.161-0.092
		c0.06-0.022,0.117-0.033,0.177-0.033c0.037,0,0.072,0.007,0.107,0.021v0.54c-0.023-0.005-0.052-0.011-0.083-0.015
		c-0.032-0.004-0.063-0.006-0.094-0.006c-0.088,0-0.163,0.018-0.226,0.053c-0.061,0.035-0.11,0.084-0.147,0.146
		s-0.065,0.134-0.081,0.217s-0.023,0.171-0.023,0.264v0.952h-0.487v-2.113h0.463v0.393H14.335z M17.178,18.356
		c-0.024-0.031-0.062-0.06-0.108-0.084s-0.104-0.047-0.173-0.067s-0.145-0.042-0.232-0.063c-0.071-0.019-0.14-0.041-0.207-0.068
		c-0.066-0.025-0.127-0.06-0.179-0.102c-0.053-0.042-0.095-0.096-0.128-0.159c-0.03-0.063-0.048-0.143-0.048-0.235
		c0-0.134,0.023-0.244,0.067-0.333c0.045-0.089,0.104-0.158,0.176-0.208c0.073-0.051,0.155-0.087,0.247-0.107
		c0.091-0.02,0.184-0.03,0.28-0.03s0.188,0.011,0.278,0.033c0.091,0.021,0.172,0.058,0.241,0.11c0.072,0.051,0.13,0.121,0.176,0.206
		c0.047,0.086,0.075,0.194,0.084,0.325h-0.46c-0.008-0.111-0.044-0.188-0.107-0.227c-0.064-0.04-0.139-0.06-0.226-0.06
		c-0.026,0-0.057,0.001-0.089,0.006c-0.031,0.004-0.061,0.013-0.087,0.026c-0.027,0.014-0.049,0.034-0.067,0.06
		s-0.026,0.061-0.026,0.104c0,0.052,0.016,0.094,0.047,0.127c0.032,0.032,0.074,0.059,0.126,0.079
		c0.051,0.021,0.108,0.039,0.176,0.056c0.065,0.016,0.134,0.033,0.202,0.053c0.07,0.02,0.139,0.043,0.207,0.069
		c0.067,0.027,0.126,0.063,0.179,0.108c0.054,0.045,0.096,0.102,0.126,0.168c0.033,0.067,0.049,0.149,0.049,0.248
		c0,0.139-0.023,0.255-0.07,0.35c-0.047,0.094-0.107,0.169-0.184,0.227c-0.074,0.057-0.16,0.098-0.258,0.122
		c-0.097,0.025-0.195,0.038-0.296,0.038c-0.103,0-0.202-0.013-0.301-0.038c-0.098-0.024-0.186-0.065-0.262-0.124
		c-0.077-0.059-0.14-0.136-0.188-0.231c-0.05-0.095-0.077-0.212-0.081-0.352h0.462c0,0.063,0.011,0.116,0.032,0.162
		c0.022,0.045,0.05,0.081,0.084,0.11c0.035,0.027,0.073,0.05,0.117,0.063c0.045,0.015,0.092,0.021,0.139,0.021
		c0.034,0,0.071-0.005,0.108-0.014c0.038-0.01,0.072-0.025,0.104-0.046c0.029-0.02,0.056-0.047,0.076-0.081
		c0.02-0.034,0.031-0.077,0.031-0.129C17.216,18.426,17.204,18.388,17.178,18.356z M18.958,16.956v0.388h-0.356v1.048
		c0,0.098,0.014,0.163,0.042,0.195c0.026,0.033,0.081,0.05,0.163,0.05c0.055,0,0.106-0.006,0.151-0.017v0.453
		c-0.042,0.009-0.087,0.015-0.137,0.017c-0.05,0.003-0.1,0.005-0.148,0.005c-0.074,0-0.146-0.006-0.213-0.019
		c-0.067-0.013-0.126-0.036-0.178-0.074c-0.051-0.036-0.092-0.088-0.121-0.153s-0.045-0.15-0.045-0.258v-1.247h-0.294v-0.388h0.294
		v-0.634h0.485v0.634H18.958z M19.608,18.939l-0.622-1.983h0.52l0.399,1.447h0.007l0.388-1.447h0.502l-0.739,2.38
		c-0.053,0.169-0.126,0.291-0.219,0.366c-0.094,0.074-0.223,0.111-0.39,0.111c-0.051,0-0.1-0.001-0.149-0.005
		c-0.048-0.005-0.098-0.01-0.149-0.015v-0.479c0.047,0.005,0.094,0.011,0.142,0.016c0.047,0.006,0.096,0.008,0.144,0.005
		c0.04-0.005,0.076-0.021,0.104-0.048c0.027-0.025,0.05-0.057,0.063-0.096c0.013-0.038,0.021-0.079,0.021-0.123
		C19.628,19.023,19.621,18.979,19.608,18.939z M20.979,19.069V16.15h0.485v2.919H20.979z M23.38,22.521
		c-0.048,0.457-0.258,0.717-0.641,0.791c-0.099,0.022-0.271,0.025-0.395,0.025c-0.115,0-0.244-0.003-0.375-0.006
		c-0.081-0.005-0.165-0.006-0.247-0.007c0.021-0.096,0.037-0.19,0.063-0.264c0.259-0.154,0.513-0.314,0.758-0.487
		c0.254-0.111,0.555-0.162,0.846-0.193C23.387,22.427,23.387,22.472,23.38,22.521z M22.369,18.561
		c0.073,0.086,0.178,0.129,0.314,0.129c0.099,0,0.183-0.029,0.254-0.088c0.07-0.059,0.113-0.121,0.129-0.187h0.429
		c-0.069,0.252-0.173,0.433-0.314,0.544c-0.142,0.112-0.313,0.169-0.514,0.169c-0.141,0-0.265-0.027-0.377-0.083
		c-0.112-0.055-0.207-0.131-0.283-0.229c-0.078-0.099-0.139-0.216-0.181-0.353c-0.042-0.136-0.063-0.286-0.063-0.449
		c0-0.158,0.021-0.305,0.064-0.441c0.043-0.136,0.105-0.254,0.185-0.354c0.08-0.1,0.175-0.178,0.287-0.235
		c0.11-0.058,0.231-0.086,0.367-0.086c0.15,0,0.281,0.034,0.394,0.104c0.112,0.069,0.204,0.163,0.275,0.28
		c0.071,0.116,0.123,0.251,0.155,0.4c0.031,0.149,0.044,0.307,0.034,0.471H22.25C22.255,18.339,22.295,18.475,22.369,18.561z
		 M5.22,14.566c-0.096-0.57-0.156-1.152-0.156-1.75c0-5.858,4.766-10.624,10.622-10.624c5.858,0,10.622,4.766,10.622,10.624
		c0,0.598-0.061,1.18-0.157,1.75H5.22z"/>
	<path d="M11.945,18.117c-0.036,0.008-0.073,0.015-0.112,0.021c-0.04,0.006-0.079,0.013-0.115,0.021
		c-0.039,0.008-0.074,0.019-0.109,0.032c-0.034,0.014-0.064,0.032-0.092,0.056c-0.026,0.022-0.046,0.053-0.062,0.09
		c-0.018,0.036-0.025,0.081-0.025,0.133c0,0.055,0.008,0.099,0.025,0.133c0.016,0.034,0.037,0.062,0.063,0.081
		c0.028,0.021,0.061,0.035,0.097,0.044c0.036,0.008,0.074,0.012,0.113,0.012c0.095,0,0.17-0.019,0.222-0.057
		c0.053-0.038,0.092-0.084,0.116-0.137c0.025-0.054,0.04-0.107,0.047-0.162c0.006-0.055,0.008-0.099,0.008-0.131v-0.217
		c-0.021,0.022-0.045,0.038-0.076,0.051S11.98,18.108,11.945,18.117z"/>
	<path d="M22.652,17.336c-0.077,0-0.142,0.016-0.192,0.047c-0.052,0.032-0.092,0.071-0.123,0.116
		c-0.031,0.047-0.053,0.096-0.065,0.147s-0.021,0.099-0.021,0.14h0.79c-0.023-0.147-0.063-0.26-0.123-0.336
		C22.859,17.374,22.77,17.336,22.652,17.336z"/>
	<path d="M16.509,8.88c0.904-1.305,2.907-4.266,2.907-4.266l0.052-0.262l-3.56,3.857l0.003,0.079
		c-1.933-1.909-3.756-3.711-3.802-3.757c-0.097-0.096-0.232-0.011-0.329,0.086c-0.098,0.099-1.012,1.063-1.146,1.197
		c0.144,0.173,0.267,0.145,0.37,0.039C11.109,5.751,11.8,5.05,11.8,5.05s0.034,0.033,0.095,0.093l-0.83,0.841l0.112,0.111
		l0.83-0.841c0.029,0.029,0.061,0.061,0.095,0.094l-0.831,0.841l0.112,0.11l0.83-0.84c0.031,0.03,0.064,0.062,0.097,0.097
		l-0.829,0.84l0.112,0.11l0.831-0.84c0.029,0.029,0.062,0.062,0.094,0.093l-0.83,0.84l0.112,0.11l0.829-0.84
		c0.026,0.026,0.053,0.052,0.079,0.078l-0.83,0.841l0.113,0.111l0.829-0.841c0.031,0.031,0.063,0.062,0.095,0.094l-0.831,0.84
		l0.113,0.11l0.83-0.84c0.032,0.032,0.065,0.064,0.1,0.098l-0.83,0.842l0.111,0.109l0.831-0.84c0.031,0.03,0.062,0.062,0.094,0.093
		l-0.83,0.841l0.112,0.11l0.829-0.84c0.033,0.032,0.065,0.063,0.098,0.096l-0.829,0.841l0.112,0.111l0.829-0.841
		c0.031,0.03,0.063,0.062,0.095,0.093l-0.831,0.84l0.113,0.111l0.83-0.84c0.025,0.026,0.053,0.052,0.079,0.078L13.11,8.006
		l0.112,0.11l0.831-0.84c0.03,0.029,0.063,0.062,0.094,0.092l-0.83,0.841l0.112,0.111l0.83-0.841
		c0.026,0.026,0.053,0.053,0.079,0.078l-0.83,0.84l0.112,0.111l0.83-0.84c0.031,0.03,0.063,0.063,0.095,0.093l-0.831,0.84
		l0.113,0.111l0.83-0.841c0.032,0.032,0.063,0.064,0.097,0.097l-0.83,0.84l0.112,0.111l0.83-0.839
		c0.032,0.029,0.063,0.061,0.094,0.093l-0.829,0.84l0.086,0.083c-0.862,0.215-1.608,0.107-1.64,0.104
		c-0.456-0.123-0.991,0.012-1.383,0.397c-0.561,0.552-0.616,1.409-0.123,1.91c0.493,0.5,1.351,0.459,1.912-0.093
		c0.001-0.002,0.002-0.004,0.004-0.006c-0.001,0.004-0.002,0.009-0.002,0.009l2.725-2.505c0.015,0.015,0.03,0.029,0.045,0.045
		l-0.83,0.84l0.111,0.11l0.05-0.049l-1.808,1.915c-0.02,0.017-0.038,0.032-0.057,0.051c-0.561,0.552-0.615,1.408-0.123,1.908
		c0.493,0.502,1.352,0.46,1.911-0.092c0.4-0.395,0.542-0.942,0.411-1.406c-0.011-0.096-0.136-1.252,0.409-2.335l0.435-0.438
		c1.916,1.892,3.735,3.689,3.79,3.743c0.114,0.113,0.572-0.257,0.411-0.416C20.388,12.714,18.481,10.829,16.509,8.88z
		 M12.693,11.121c-0.398,0.392-0.993,0.436-1.327,0.097c-0.333-0.338-0.279-0.934,0.118-1.326c0.399-0.393,0.994-0.436,1.327-0.097
		S13.091,10.728,12.693,11.121z M14.289,9.077l0.784-0.794c0.026,0.026,0.053,0.053,0.079,0.079l-0.64,0.648
		C14.436,9.036,14.363,9.059,14.289,9.077z M15.27,8.655c-0.132,0.084-0.264,0.155-0.399,0.217l0.394-0.399
		c0.031,0.031,0.063,0.063,0.094,0.094L15.27,8.655z M14.721,13.347c-0.398,0.393-0.994,0.437-1.328,0.098
		c-0.333-0.338-0.279-0.934,0.119-1.326c0.398-0.392,0.994-0.436,1.327-0.096C15.172,12.36,15.12,12.954,14.721,13.347z
		 M16.206,8.541c-0.085-0.085-0.084-0.224,0.003-0.308c0.085-0.084,0.223-0.083,0.307,0.003c0.084,0.085,0.083,0.224-0.003,0.308
		C16.427,8.628,16.29,8.628,16.206,8.541z"/>
	<path d="M17.093,8.322l3.397-3.119l-0.274,0.063c0,0-0.907,0.615-1.938,1.317C17.879,7.173,17.451,7.801,17.093,8.322z"/>
</g>
<g>
</g>
<g>
</g>
<g>
</g>
<g>
</g>
<g>
</g>
<g>
</g>
<g>
</g>
<g>
</g>
<g>
</g>
<g>
</g>
<g>
</g>
<g>
</g>
<g>
</g>
<g>
</g>
<g>
</g>
</svg>
