<?xml version="1.0" encoding="iso-8859-1"?>
<!-- Generator: Adobe Illustrator 16.0.0, SVG Export Plug-In . SVG Version: 6.00 Build 0)  -->
<!DOCTYPE svg PUBLIC "-//W3C//DTD SVG 1.1//EN" "http://www.w3.org/Graphics/SVG/1.1/DTD/svg11.dtd">
<svg version="1.1" id="Layer_1" xmlns="http://www.w3.org/2000/svg" xmlns:xlink="http://www.w3.org/1999/xlink" x="0px" y="0px"
	 width="25.65px" height="31.414px" viewBox="0 0 25.65 31.414" style="enable-background:new 0 0 25.65 31.414;"
	 xml:space="preserve">
<path d="M25.573,3.87c0.669-4.825-3.17-4.721-4.791-1.973c1.585-0.458,2.853-0.704,1.479,1.409
	c-1.373,2.112-3.064,1.902-6.763-1.409C11.8-1.414,3.945-0.04,2.607,7.604C1.268,15.246,6.974,20.742,0,21.19
	c4.292,4.72,6.841,2.191,7.918,0.444c0.856,1.146,1.658,1.933,1.375,2.342c-0.454,0.662-1.753,7.423-1.753,7.423l10.398,0.015
	c0,0-0.85-0.479-1.405-1.116c-0.38-0.437,0.115-1.298,0.666-2.79c0.075-0.202,0.524,0.085,0.813-0.598
	c0.29-0.681-0.285-1.022-0.217-1.228c0.061-0.181,0.105-0.159,0.143-0.302c0.077-0.415,0.265-0.665,0.521-0.813
	c3.876,0.118,4.886-0.074,3.928-2.761c0.124-0.114,0.817-0.563,0.965-0.885c0.147-0.32-0.201-0.401-0.201-0.401
	s0.255,0.013,0.442-0.281c0.188-0.295-0.322-1.447-0.322-1.447s1.286-0.281,1.568-0.764c0.281-0.482-2.265-3.443-2.17-3.979
	s0.522-0.79,0.644-0.924c0.121-0.135,0.404-1.588-1.166-3.898c-0.292-0.43-0.626-0.879-1.018-1.313
	C22.785,7.306,25.159,6.851,25.573,3.87z"/>
<g>
</g>
<g>
</g>
<g>
</g>
<g>
</g>
<g>
</g>
<g>
</g>
<g>
</g>
<g>
</g>
<g>
</g>
<g>
</g>
<g>
</g>
<g>
</g>
<g>
</g>
<g>
</g>
<g>
</g>
</svg>
