<?xml version="1.0" encoding="iso-8859-1"?>
<!-- Generator: Adobe Illustrator 16.0.0, SVG Export Plug-In . SVG Version: 6.00 Build 0)  -->
<!DOCTYPE svg PUBLIC "-//W3C//DTD SVG 1.1//EN" "http://www.w3.org/Graphics/SVG/1.1/DTD/svg11.dtd">
<svg version="1.1" id="Layer_1" xmlns="http://www.w3.org/2000/svg" xmlns:xlink="http://www.w3.org/1999/xlink" x="0px" y="0px"
	 width="31.407px" height="31.064px" viewBox="0 0 31.407 31.064" style="enable-background:new 0 0 31.407 31.064;"
	 xml:space="preserve">
<g>
	<circle cx="13.391" cy="10.161" r="3.17"/>
	<ellipse cx="28.045" cy="3.464" rx="3.362" ry="3.464"/>
	<path d="M30.256,8.414c-1.215-0.988-3.326-0.438-4.375-0.143c-1.218,0.468-3.514,0.942-6.175,0.929
		c-0.596-0.896-3.509-5.025-3.509-5.025l-0.244-0.151l2.521,5.039l0.67,0.223v0.339l-0.066-0.163l-0.549-0.184
		c0.067,0.265,0.113,0.438,0.127,0.473c0.371,1.543-0.429,2.991-0.452,3.031c-0.296,0.41-0.364,1-0.125,1.541
		c0.34,0.771,1.18,1.152,1.87,0.848c0.69-0.306,0.974-1.182,0.633-1.954c-0.001-0.002-0.003-0.004-0.004-0.007
		c0.004,0.003,0.009,0.006,0.009,0.006l-0.831-2.07c0.103-0.018,0.219-0.037,0.342-0.058l0.958,1.969
		c0.009,0.026,0.018,0.051,0.03,0.076c0.341,0.772,1.179,1.153,1.87,0.848c0.689-0.304,0.973-1.181,0.631-1.954
		c-0.243-0.551-0.74-0.9-1.253-0.945c-0.045-0.012-0.311-0.081-0.669-0.238c1.905-0.276,4.191-0.521,4.174-0.104
		c-0.028,0.715-0.342,7.907-0.063,8.146l-0.575,5.328l0.508,5.24h-1.482v1.54h5.041V30.66v-1.207v-9.899
		c0.593-0.116,1.045-0.431,1.124-1.078C30.633,16.437,31.61,9.516,30.256,8.414z M18.919,8.891
		c-0.118,0.052-0.256-0.002-0.308-0.119c-0.053-0.119,0.001-0.256,0.119-0.309c0.119-0.053,0.257,0.002,0.309,0.121
		C19.091,8.701,19.037,8.838,18.919,8.891z M20.175,13.396c0.242,0.549,0.06,1.163-0.407,1.369
		c-0.465,0.206-1.043-0.072-1.286-0.622c-0.243-0.549-0.061-1.163,0.406-1.369C19.355,12.566,19.932,12.846,20.175,13.396z
		 M21.894,11.583c0.465-0.206,1.042,0.073,1.285,0.622s0.061,1.163-0.406,1.369c-0.466,0.206-1.043-0.072-1.286-0.622
		C21.245,12.403,21.428,11.789,21.894,11.583z"/>
	<path d="M19.037,7.917L17.196,3.32l-0.041,0.3c0,0,0.273,1.145,0.587,2.444C18.181,6.691,18.649,7.358,19.037,7.917z"/>
	<path d="M3.748,25.709c0.324,0.056,0.657,0.107,0.992,0.156c0.035,0.006,0.069,0.01,0.104,0.015
		c1.553,0.229,3.183,0.393,4.669,0.445c0.089,0.003,0.175,0.004,0.263,0.007c0.188,0.006,0.373,0.009,0.556,0.01
		c0.052,0,0.107,0.003,0.159,0.003c0.066,0,0.127-0.002,0.191-0.003c0.104-0.001,0.206-0.002,0.307-0.004
		c0.126-0.004,0.249-0.008,0.372-0.013c0.098-0.005,0.196-0.009,0.292-0.015c0.117-0.007,0.23-0.016,0.344-0.024
		c0.092-0.009,0.185-0.016,0.274-0.025c0.109-0.011,0.212-0.024,0.315-0.038c0.085-0.012,0.17-0.022,0.25-0.035
		c0.1-0.017,0.193-0.035,0.288-0.055c0.074-0.014,0.15-0.027,0.22-0.044c0.093-0.022,0.178-0.049,0.264-0.073
		c0.06-0.018,0.124-0.034,0.18-0.054c0.089-0.03,0.167-0.065,0.246-0.101c0.042-0.019,0.089-0.033,0.128-0.054
		c0.112-0.057,0.213-0.117,0.298-0.185c0.044-0.034,0.087-0.077,0.128-0.127c0.017-0.02,0.032-0.045,0.048-0.068
		c0.024-0.032,0.048-0.063,0.071-0.102c0.018-0.03,0.035-0.066,0.052-0.101c0.019-0.036,0.039-0.069,0.057-0.11
		c0.018-0.038,0.034-0.081,0.05-0.122c0.016-0.043,0.034-0.082,0.05-0.126c0.016-0.045,0.03-0.093,0.045-0.141
		c0.016-0.048,0.031-0.093,0.046-0.145c0.014-0.047,0.027-0.102,0.04-0.152c0.014-0.054,0.029-0.106,0.042-0.163
		c0.012-0.052,0.023-0.107,0.035-0.16c0.014-0.062,0.027-0.123,0.04-0.187c0.011-0.053,0.02-0.108,0.029-0.162
		c0.013-0.07,0.025-0.14,0.038-0.213c0.009-0.053,0.016-0.106,0.024-0.159c0.012-0.079,0.024-0.157,0.035-0.239
		c0.007-0.051,0.013-0.104,0.019-0.153c0.012-0.089,0.022-0.177,0.033-0.267c0.005-0.047,0.01-0.095,0.015-0.143
		c0.011-0.099,0.021-0.197,0.03-0.299c0.003-0.041,0.007-0.085,0.011-0.126c0.009-0.108,0.019-0.217,0.027-0.327
		c0.003-0.039,0.006-0.079,0.008-0.119c0.008-0.116,0.017-0.232,0.023-0.351c0.002-0.032,0.004-0.063,0.005-0.095
		c0.007-0.127,0.014-0.255,0.02-0.384c0.001-0.026,0.002-0.052,0.003-0.076c0.006-0.137,0.011-0.272,0.016-0.41
		c0-0.019,0.001-0.038,0.002-0.058c0.004-0.143,0.008-0.286,0.012-0.428c0-0.006,0-0.011,0-0.015l0,0
		c0.037-1.692-0.022-3.392-0.118-4.535c0-0.001,0-0.001,0-0.001c-0.001-0.012-0.002-0.021-0.003-0.033
		c-0.01-0.109-0.02-0.214-0.029-0.313c-0.004-0.043-0.009-0.081-0.013-0.121c-0.007-0.064-0.014-0.128-0.021-0.188
		c-0.005-0.037-0.01-0.074-0.015-0.109c-0.008-0.059-0.016-0.109-0.024-0.16c-0.004-0.028-0.008-0.057-0.013-0.082
		c-0.012-0.07-0.025-0.136-0.037-0.188c-0.117-0.083-0.249-0.147-0.39-0.203c-0.007-0.003-0.013-0.006-0.02-0.009
		c-0.141-0.055-0.292-0.096-0.45-0.127c-0.004-0.002-0.006-0.003-0.01-0.004c-0.001,0-0.002,0-0.003,0
		c-1.091-0.22-2.496,0.021-3.102,0.02c-0.277,0.148-0.545,1.426-0.971,2.836c-0.055,0.182-0.111,0.363-0.171,0.546
		c-0.001,0.004-0.003,0.01-0.004,0.014C9.994,17.619,9.856,18,9.703,18.361c0,0,0,0,0,0.002c-0.076,0.178-0.156,0.353-0.241,0.521
		c-0.002,0.005-0.005,0.011-0.008,0.016c-0.084,0.168-0.173,0.328-0.267,0.479c-0.001,0.002-0.002,0.004-0.003,0.007
		c-0.286,0.461-0.614,0.839-0.997,1.068c0,0,0,0,0.001,0c-0.3,0.18-0.633,0.271-1.005,0.239C3.715,20.219-0.391,25.007,3.748,25.709
		z"/>
	<path d="M16.065,26.979l0.009,0.002l2.013-9.093l-2.031-0.449l-0.151,0.68c0.048,3.14-0.181,7.019-1.204,7.817
		c-0.684,0.534-2.101,0.806-4.211,0.806c-1.102,0-2.389-0.08-3.738-0.222v0.517h3.426l-0.435,2.443h-3.09l-1.057,1.585h11.888
		l-1.057-1.585H13.14l-0.435-2.443h3.36V26.979z"/>
	<path d="M7.218,20.298c0.04,0.004,0.079,0.005,0.118,0.005c1.017,0,1.728-1.306,2.239-2.712c-0.766,0.886-1.628,1.563-2.454,1.511
		C6.128,19.116,5.957,19.932,7.218,20.298z"/>
	<path d="M3.682,26.1c-0.596-0.101-1.021-0.279-1.327-0.493c-0.574,0.907-1.09,1.751-1.411,2.283H0v1.43h4.613v-1.43H4.537
		l1.046-1.507C4.952,26.301,4.314,26.207,3.682,26.1z"/>
</g>
<g>
</g>
<g>
</g>
<g>
</g>
<g>
</g>
<g>
</g>
<g>
</g>
<g>
</g>
<g>
</g>
<g>
</g>
<g>
</g>
<g>
</g>
<g>
</g>
<g>
</g>
<g>
</g>
<g>
</g>
</svg>
