<?xml version="1.0" encoding="iso-8859-1"?>
<!-- Generator: Adobe Illustrator 16.0.0, SVG Export Plug-In . SVG Version: 6.00 Build 0)  -->
<!DOCTYPE svg PUBLIC "-//W3C//DTD SVG 1.1//EN" "http://www.w3.org/Graphics/SVG/1.1/DTD/svg11.dtd">
<svg version="1.1" id="Layer_1" xmlns="http://www.w3.org/2000/svg" xmlns:xlink="http://www.w3.org/1999/xlink" x="0px" y="0px"
	 width="32px" height="25.731px" viewBox="0 0 32 25.731" style="enable-background:new 0 0 32 25.731;" xml:space="preserve">
<g>
	<path d="M32,20.941l-2.681-2.49l2.49-2.59h-3.815c-0.059-0.136-0.134-0.263-0.212-0.377c0.212-0.206,0.4-0.384,0.458-0.511
		c0.335-0.567,0.001-0.989-0.316-1.316c0.053-0.079,0.104-0.156,0.16-0.237c0.047-0.073,0.095-0.144,0.14-0.21
		c0.131-0.197,0.244-0.367,0.286-0.483c0.182-0.438,0.057-0.842-0.369-1.195c-0.051-0.044-0.099-0.076-0.15-0.114
		c0.123-0.262,0.241-0.498,0.268-0.637c0.126-0.51-0.172-0.819-0.5-1.018c-0.075-0.047-0.15-0.084-0.225-0.122
		c0.02-0.092,0.04-0.183,0.062-0.274c0.023-0.084,0.046-0.165,0.068-0.243c0.067-0.232,0.125-0.434,0.13-0.569
		c-0.007-0.68-0.5-0.926-0.928-1.064c0.037-0.29,0.075-0.547,0.061-0.687c-0.105-0.647-0.625-0.78-1.075-0.845
		c-0.013-0.154-0.023-0.31-0.029-0.447c-0.013-0.29-0.022-0.519-0.078-0.646c-0.198-0.642-0.738-0.717-1.126-0.717
		c-0.029,0-0.055,0.003-0.084,0.003c-0.057-0.29-0.102-0.543-0.177-0.663c-0.29-0.598-0.832-0.543-1.281-0.455
		c-0.069-0.153-0.135-0.307-0.192-0.444c-0.098-0.24-0.183-0.447-0.265-0.563c-0.187-0.269-0.447-0.405-0.775-0.405
		c-0.128,0-0.268,0.021-0.426,0.063c-0.064,0.017-0.118,0.042-0.179,0.063c-0.149-0.251-0.277-0.47-0.378-0.574
		c-0.36-0.382-0.789-0.285-1.127-0.137c-0.087,0.037-0.164,0.084-0.243,0.128c-0.111-0.119-0.219-0.242-0.313-0.353
		c-0.181-0.212-0.325-0.38-0.446-0.455c-0.389-0.255-0.803-0.237-1.246,0.063c-0.054,0.04-0.096,0.08-0.145,0.121
		C17.12,0.349,16.93,0.179,16.8,0.123c-0.468-0.214-0.838-0.023-1.11,0.228c-0.068,0.068-0.126,0.14-0.185,0.209
		c-0.134-0.072-0.268-0.148-0.392-0.222c-0.252-0.149-0.451-0.268-0.59-0.293c-0.471-0.132-0.87,0.031-1.158,0.467
		c-0.038,0.054-0.064,0.103-0.097,0.154c-0.271-0.109-0.509-0.21-0.649-0.213c-0.515-0.064-0.809,0.224-0.974,0.58
		c-0.043,0.084-0.074,0.167-0.107,0.249c-0.166-0.025-0.331-0.056-0.486-0.086c-0.239-0.046-0.446-0.085-0.587-0.085h-0.029
		c-0.683,0.021-0.878,0.622-0.942,0.82c-0.02,0.062-0.029,0.12-0.043,0.181C9.162,2.101,8.91,2.088,8.769,2.115
		c-0.517,0.093-0.669,0.507-0.729,0.87C8.024,3.077,8.02,3.167,8.015,3.256C7.863,3.281,7.708,3.304,7.563,3.321
		C7.272,3.356,7.042,3.385,6.917,3.452C6.286,3.717,6.26,4.267,6.306,4.716c-0.28,0.078-0.523,0.144-0.635,0.226
		C5.107,5.285,5.201,5.816,5.323,6.257C5.264,6.288,5.207,6.321,5.147,6.352L5.061,6.396C4.985,6.438,4.91,6.478,4.839,6.515
		c-0.21,0.11-0.393,0.205-0.486,0.289C3.811,7.237,4.036,7.835,4.11,8.032c0.023,0.06,0.05,0.11,0.075,0.166
		c-0.23,0.17-0.438,0.316-0.528,0.422C3.298,9.01,3.432,9.429,3.614,9.755c0.047,0.08,0.096,0.149,0.144,0.221
		c-0.125,0.143-0.254,0.277-0.37,0.397C3.223,10.546,3.08,10.693,3,10.815c-0.311,0.601,0.001,1.051,0.31,1.377
		c-0.162,0.23-0.308,0.432-0.37,0.562c-0.21,0.616,0.179,0.98,0.539,1.253c-0.061,0.141-0.128,0.282-0.193,0.412
		c-0.131,0.267-0.234,0.477-0.245,0.618c-0.067,0.367,0.037,0.628,0.208,0.824H0.19l2.49,2.59L0,20.941h5.784
		c0.193,0.215,0.476,0.286,0.738,0.306c0.09,0.005,0.171,0.002,0.255,0.001c0.045,0.168,0.083,0.338,0.117,0.489
		c0.058,0.265,0.104,0.474,0.169,0.603c0.223,0.413,0.618,0.588,1.127,0.536c0.071-0.01,0.134-0.026,0.201-0.041
		c0.103,0.268,0.189,0.501,0.271,0.616c0.31,0.411,0.727,0.42,1.086,0.327c0.087-0.027,0.166-0.06,0.247-0.091
		c0.055,0.086,0.113,0.174,0.158,0.251c0.192,0.312,0.349,0.559,0.468,0.674c0.188,0.184,0.401,0.285,0.644,0.302
		c0.186-0.003,0.382-0.056,0.599-0.163c0.061-0.029,0.11-0.063,0.167-0.094c0.188,0.221,0.355,0.409,0.469,0.49
		c0.209,0.15,0.416,0.199,0.606,0.184c0.193-0.031,0.37-0.123,0.528-0.233c0.071-0.05,0.133-0.103,0.197-0.155
		c0.138,0.104,0.272,0.212,0.391,0.31c0.2,0.164,0.373,0.305,0.498,0.366c0.143,0.075,0.287,0.113,0.43,0.113
		c0.343,0,0.616-0.219,0.792-0.385c0.052-0.05,0.091-0.1,0.137-0.15c0.246,0.146,0.46,0.277,0.598,0.32
		c0.5,0.176,0.828-0.128,1.055-0.418c0.053-0.069,0.095-0.139,0.139-0.208c0.166,0.055,0.329,0.114,0.473,0.17
		c0.25,0.094,0.449,0.169,0.592,0.186c0.469,0.034,0.822-0.182,1.065-0.651c0.031-0.066,0.051-0.128,0.076-0.193
		c0.283,0.061,0.529,0.117,0.671,0.112c0.514-0.035,0.749-0.381,0.868-0.731c0.027-0.09,0.042-0.174,0.06-0.261
		c0.095,0.001,0.19,0.003,0.286,0.009c0.136,0.003,0.267,0.006,0.383,0.006c0.212,0,0.347-0.01,0.435-0.029
		c0.471-0.093,0.739-0.417,0.797-0.963c0.009-0.067,0.009-0.127,0.012-0.192c0.292-0.038,0.543-0.074,0.674-0.126
		c0.495-0.177,0.596-0.588,0.579-0.974c-0.002-0.087-0.012-0.166-0.021-0.247c0.057-0.021,0.114-0.043,0.17-0.063H32z
		 M27.604,12.371c0.053-0.259,0.176-0.521,0.301-0.77c0.037,0.027,0.073,0.051,0.108,0.081c0.362,0.302,0.461,0.609,0.312,0.972
		c-0.036,0.099-0.143,0.259-0.267,0.444c-0.046,0.068-0.093,0.14-0.138,0.21c-0.048,0.067-0.091,0.137-0.138,0.204
		c-0.069-0.07-0.134-0.136-0.182-0.196c0.007-0.167,0.026-0.332,0.026-0.5C27.626,12.665,27.609,12.521,27.604,12.371z
		 M27.638,15.627c0.052,0.076,0.1,0.154,0.14,0.234H27.42C27.491,15.781,27.563,15.702,27.638,15.627z M26.845,7.691
		c0.377,0.128,0.745,0.331,0.75,0.86c-0.004,0.106-0.062,0.306-0.122,0.518c-0.022,0.077-0.046,0.16-0.073,0.263
		c-0.016,0.066-0.031,0.14-0.047,0.21C27.27,9.5,27.187,9.459,27.126,9.417c-0.088-0.294-0.192-0.58-0.3-0.863
		C26.798,8.275,26.82,7.975,26.845,7.691z M3.879,15.861h-0.34c-0.222-0.175-0.372-0.411-0.3-0.798
		c0.008-0.114,0.114-0.329,0.227-0.557c0.059-0.119,0.119-0.249,0.176-0.379c0.077,0.057,0.149,0.11,0.206,0.161
		c0.04,0.321,0.084,0.644,0.149,0.958C3.987,15.446,3.937,15.656,3.879,15.861z M3.855,11.288c-0.11,0.251-0.271,0.504-0.431,0.735
		c-0.269-0.292-0.492-0.646-0.252-1.107c0.064-0.097,0.202-0.239,0.36-0.404c0.105-0.11,0.223-0.235,0.337-0.362
		c0.05,0.072,0.1,0.145,0.134,0.208C3.939,10.664,3.896,10.976,3.855,11.288z M25.558,4.934c0.045,0.104,0.055,0.338,0.065,0.585
		c0.005,0.126,0.016,0.27,0.028,0.41c-0.097-0.014-0.188-0.025-0.262-0.044c-0.177-0.248-0.358-0.493-0.553-0.728
		c-0.126-0.236-0.202-0.53-0.261-0.811C24.966,4.337,25.391,4.396,25.558,4.934z M21.47,1.875c0.477-0.127,0.773-0.043,0.987,0.265
		c0.069,0.099,0.15,0.295,0.244,0.523c0.052,0.126,0.113,0.269,0.177,0.408c-0.095,0.02-0.186,0.036-0.26,0.041
		c-0.249-0.179-0.504-0.344-0.767-0.502c-0.188-0.199-0.355-0.45-0.505-0.691C21.387,1.905,21.426,1.886,21.47,1.875z M17.602,0.581
		c0.368-0.25,0.697-0.271,1.023-0.059c0.097,0.061,0.245,0.234,0.402,0.418c0.085,0.1,0.184,0.211,0.285,0.32
		c-0.075,0.043-0.15,0.089-0.215,0.118c-0.308-0.092-0.619-0.175-0.936-0.241c-0.231-0.117-0.458-0.293-0.666-0.467
		C17.531,0.642,17.564,0.609,17.602,0.581z M13.529,0.625C13.715,0.344,13.947,0.2,14.216,0.2c0.08,0,0.165,0.013,0.262,0.039
		c0.113,0.021,0.317,0.142,0.532,0.27c0.108,0.064,0.234,0.134,0.36,0.202c-0.059,0.069-0.116,0.141-0.169,0.19
		c-0.315,0.012-0.63,0.031-0.939,0.068c-0.264-0.03-0.542-0.129-0.804-0.232C13.482,0.7,13.502,0.663,13.529,0.625z M9.684,1.993
		c0.149-0.461,0.384-0.672,0.781-0.683c0.123,0,0.321,0.037,0.55,0.081c0.134,0.026,0.288,0.054,0.442,0.077
		c-0.034,0.085-0.066,0.17-0.102,0.232c-0.288,0.113-0.568,0.238-0.845,0.372c-0.27,0.05-0.572,0.053-0.856,0.045
		C9.665,2.076,9.669,2.035,9.684,1.993z M7.002,3.632C7.103,3.579,7.338,3.55,7.587,3.519c0.126-0.016,0.269-0.037,0.41-0.061
		C7.993,3.548,7.99,3.64,7.979,3.712c-0.243,0.205-0.479,0.416-0.704,0.64C7.049,4.487,6.769,4.58,6.501,4.659
		C6.462,4.252,6.5,3.843,7.002,3.632z M4.349,8.077c-0.018-0.04-0.037-0.074-0.053-0.116C4.125,7.505,4.18,7.196,4.48,6.957
		C4.56,6.886,4.732,6.796,4.931,6.69c0.072-0.037,0.148-0.077,0.224-0.118l0.084-0.044c0.045-0.023,0.094-0.051,0.14-0.076
		c0.028,0.095,0.053,0.184,0.064,0.26C5.285,6.978,5.138,7.246,5,7.523C4.825,7.733,4.578,7.911,4.349,8.077z M8.166,22.679
		c-0.052,0.005-0.104,0.008-0.157,0.008c-0.357,0-0.609-0.145-0.769-0.439c-0.053-0.104-0.098-0.313-0.151-0.553
		c-0.031-0.138-0.068-0.292-0.107-0.445c0.094-0.003,0.186-0.006,0.261,0.001c0.221,0.22,0.455,0.427,0.689,0.628
		c0.156,0.225,0.279,0.504,0.385,0.77C8.267,22.657,8.218,22.671,8.166,22.679z M8.535,19.069V16.15h0.538v1.12h0.988v-1.12h0.538
		v2.919h-0.538v-1.26H9.073v1.26H8.535z M11.776,24.572c-0.189,0.095-0.357,0.141-0.505,0.143c-0.186-0.013-0.357-0.095-0.51-0.244
		c-0.104-0.1-0.26-0.348-0.437-0.634c-0.039-0.066-0.092-0.145-0.138-0.219c0.092-0.036,0.182-0.072,0.257-0.091
		c0.279,0.137,0.563,0.266,0.852,0.381c0.223,0.153,0.421,0.374,0.603,0.595C11.857,24.526,11.82,24.552,11.776,24.572z
		 M15.804,25.202c-0.15,0.143-0.382,0.33-0.654,0.33c-0.11,0-0.223-0.03-0.339-0.092c-0.106-0.052-0.271-0.187-0.462-0.343
		c-0.108-0.088-0.232-0.186-0.356-0.28c0.075-0.063,0.147-0.123,0.211-0.163c0.307,0.037,0.619,0.059,0.933,0.073
		c0.259,0.086,0.521,0.229,0.765,0.368C15.868,25.132,15.84,25.169,15.804,25.202z M19.822,24.507
		c-0.19,0.366-0.447,0.544-0.788,0.544c-0.026,0-0.054-0.001-0.079-0.003c-0.115-0.014-0.313-0.088-0.541-0.175
		c-0.131-0.05-0.281-0.103-0.43-0.153c0.049-0.079,0.097-0.157,0.143-0.217c0.313-0.065,0.619-0.147,0.923-0.238
		c0.267-0.004,0.557,0.045,0.83,0.1C19.86,24.412,19.844,24.46,19.822,24.507z M15.687,23.438c-2.599,0-4.98-0.941-6.829-2.497
		h13.656C20.667,22.497,18.286,23.438,15.687,23.438z M12.095,17.424c-0.017-0.036-0.04-0.065-0.068-0.085
		c-0.028-0.021-0.062-0.035-0.099-0.042c-0.038-0.007-0.079-0.01-0.121-0.01c-0.094,0-0.168,0.024-0.224,0.073
		c-0.056,0.049-0.089,0.131-0.098,0.246h-0.486c0.007-0.137,0.035-0.25,0.086-0.34c0.05-0.09,0.114-0.162,0.191-0.217
		c0.078-0.055,0.164-0.094,0.26-0.117c0.096-0.022,0.194-0.034,0.295-0.034c0.089,0,0.179,0.007,0.27,0.022s0.174,0.044,0.25,0.088
		c0.075,0.044,0.137,0.104,0.184,0.184c0.048,0.08,0.073,0.182,0.073,0.307V18.6c0,0.095,0.003,0.187,0.013,0.274
		c0.009,0.087,0.025,0.152,0.048,0.195h-0.492c-0.01-0.032-0.017-0.065-0.023-0.1c-0.005-0.034-0.009-0.068-0.012-0.104
		c-0.078,0.096-0.168,0.163-0.274,0.202c-0.105,0.04-0.212,0.061-0.321,0.061c-0.084,0-0.163-0.014-0.236-0.039
		c-0.073-0.027-0.137-0.065-0.191-0.117c-0.055-0.052-0.097-0.117-0.128-0.196s-0.046-0.173-0.046-0.282
		c0-0.12,0.017-0.219,0.051-0.297c0.034-0.077,0.08-0.139,0.137-0.186s0.122-0.081,0.193-0.104c0.071-0.023,0.146-0.041,0.221-0.055
		c0.075-0.014,0.147-0.025,0.216-0.033c0.068-0.009,0.129-0.021,0.183-0.036c0.054-0.017,0.097-0.041,0.128-0.072
		c0.032-0.031,0.047-0.076,0.047-0.137C12.121,17.511,12.112,17.461,12.095,17.424z M13.482,16.956v2.113h-0.485v-2.113H13.482z
		 M12.997,16.629V16.15h0.485v0.479H12.997z M14.335,17.349c0.022-0.065,0.053-0.126,0.092-0.182
		c0.038-0.057,0.083-0.104,0.133-0.144s0.104-0.07,0.163-0.092c0.058-0.022,0.117-0.033,0.176-0.033
		c0.037,0,0.072,0.007,0.106,0.021v0.54c-0.023-0.005-0.05-0.011-0.083-0.015c-0.032-0.004-0.063-0.006-0.092-0.006
		c-0.089,0-0.165,0.018-0.226,0.053c-0.061,0.035-0.111,0.084-0.148,0.146c-0.037,0.062-0.064,0.134-0.08,0.217
		c-0.017,0.083-0.024,0.171-0.024,0.264v0.952h-0.487v-2.113h0.462v0.393H14.335z M17.178,18.356
		c-0.025-0.031-0.062-0.06-0.108-0.084c-0.046-0.024-0.104-0.047-0.172-0.067c-0.069-0.021-0.146-0.042-0.233-0.063
		c-0.071-0.019-0.139-0.041-0.207-0.068c-0.067-0.025-0.127-0.06-0.179-0.102c-0.053-0.042-0.095-0.096-0.127-0.159
		c-0.032-0.063-0.048-0.143-0.048-0.235c0-0.134,0.022-0.244,0.067-0.333s0.104-0.158,0.176-0.208
		c0.073-0.051,0.156-0.087,0.247-0.107c0.091-0.02,0.185-0.03,0.281-0.03c0.096,0,0.188,0.011,0.278,0.033
		c0.09,0.021,0.17,0.058,0.241,0.11c0.071,0.051,0.129,0.121,0.176,0.206c0.047,0.086,0.075,0.194,0.084,0.325h-0.461
		c-0.007-0.111-0.043-0.188-0.107-0.227c-0.064-0.04-0.139-0.06-0.226-0.06c-0.027,0-0.057,0.001-0.089,0.006
		c-0.032,0.004-0.062,0.013-0.087,0.026c-0.026,0.014-0.049,0.034-0.067,0.06c-0.019,0.025-0.027,0.061-0.027,0.104
		c0,0.052,0.016,0.094,0.047,0.127c0.032,0.032,0.074,0.059,0.125,0.079s0.109,0.039,0.176,0.056
		c0.066,0.016,0.134,0.033,0.202,0.053c0.07,0.02,0.14,0.043,0.207,0.069c0.067,0.027,0.127,0.063,0.179,0.108
		c0.053,0.045,0.095,0.102,0.127,0.168c0.032,0.067,0.048,0.149,0.048,0.248c0,0.139-0.023,0.255-0.07,0.35
		c-0.047,0.094-0.108,0.169-0.184,0.227c-0.075,0.057-0.161,0.098-0.258,0.122c-0.097,0.025-0.195,0.038-0.296,0.038
		c-0.103,0-0.203-0.013-0.301-0.038c-0.098-0.024-0.185-0.065-0.261-0.124c-0.077-0.059-0.139-0.136-0.188-0.231
		c-0.049-0.095-0.076-0.212-0.08-0.352h0.461c0,0.063,0.011,0.116,0.033,0.162c0.022,0.045,0.05,0.081,0.084,0.11
		c0.034,0.027,0.073,0.05,0.118,0.063c0.044,0.015,0.091,0.021,0.139,0.021c0.034,0,0.071-0.005,0.108-0.014
		c0.038-0.01,0.072-0.025,0.103-0.046c0.031-0.02,0.056-0.047,0.077-0.081c0.021-0.034,0.03-0.077,0.03-0.129
		C17.215,18.426,17.203,18.388,17.178,18.356z M18.957,16.956v0.388h-0.355v1.048c0,0.098,0.013,0.163,0.041,0.195
		c0.027,0.033,0.082,0.05,0.164,0.05c0.055,0,0.105-0.006,0.15-0.017v0.453c-0.041,0.009-0.086,0.015-0.137,0.017
		c-0.05,0.003-0.099,0.005-0.147,0.005c-0.075,0-0.146-0.006-0.214-0.019c-0.067-0.013-0.126-0.036-0.177-0.074
		c-0.051-0.036-0.092-0.088-0.122-0.153c-0.029-0.065-0.044-0.15-0.044-0.258v-1.247h-0.295v-0.388h0.295v-0.634h0.486v0.634H18.957
		z M19.607,18.939l-0.623-1.983h0.52l0.4,1.447h0.007l0.387-1.447h0.502l-0.738,2.38c-0.053,0.169-0.126,0.291-0.22,0.366
		c-0.093,0.074-0.223,0.111-0.39,0.111c-0.051,0-0.1-0.001-0.149-0.005c-0.049-0.005-0.099-0.01-0.149-0.015v-0.479
		c0.046,0.005,0.093,0.011,0.141,0.016c0.047,0.006,0.096,0.008,0.143,0.005c0.042-0.005,0.076-0.021,0.105-0.048
		c0.028-0.025,0.049-0.057,0.063-0.096c0.013-0.038,0.021-0.079,0.021-0.123C19.628,19.023,19.621,18.979,19.607,18.939z
		 M20.979,19.069V16.15h0.485v2.919H20.979z M23.381,22.521c-0.049,0.457-0.258,0.717-0.641,0.791
		c-0.098,0.022-0.271,0.025-0.394,0.025c-0.116,0-0.245-0.003-0.376-0.006c-0.081-0.005-0.164-0.006-0.247-0.007
		c0.02-0.096,0.037-0.19,0.063-0.264c0.258-0.154,0.513-0.314,0.759-0.487c0.252-0.111,0.553-0.162,0.845-0.193
		C23.387,22.427,23.387,22.472,23.381,22.521z M22.369,18.561c0.073,0.086,0.177,0.129,0.314,0.129c0.098,0,0.183-0.029,0.253-0.088
		c0.07-0.059,0.114-0.121,0.13-0.187h0.427c-0.068,0.252-0.172,0.433-0.314,0.544c-0.142,0.112-0.313,0.169-0.513,0.169
		c-0.14,0-0.265-0.027-0.376-0.083c-0.112-0.055-0.207-0.131-0.284-0.229c-0.078-0.099-0.138-0.216-0.18-0.353
		c-0.042-0.136-0.063-0.286-0.063-0.449c0-0.158,0.021-0.305,0.064-0.441c0.043-0.136,0.105-0.254,0.185-0.354
		c0.08-0.1,0.175-0.178,0.286-0.235s0.233-0.086,0.368-0.086c0.151,0,0.281,0.034,0.394,0.104c0.112,0.069,0.204,0.163,0.275,0.28
		c0.072,0.116,0.124,0.251,0.156,0.4s0.043,0.307,0.034,0.471h-1.276C22.256,18.339,22.295,18.475,22.369,18.561z M5.221,14.566
		c-0.096-0.57-0.157-1.152-0.157-1.75c0-5.858,4.766-10.624,10.623-10.624s10.622,4.766,10.622,10.624
		c0,0.598-0.062,1.18-0.157,1.75H5.221z"/>
	<path d="M11.945,18.117c-0.036,0.008-0.073,0.015-0.113,0.021c-0.041,0.006-0.079,0.013-0.115,0.021
		c-0.038,0.008-0.075,0.019-0.109,0.032s-0.064,0.032-0.091,0.056c-0.027,0.022-0.047,0.053-0.063,0.09
		c-0.017,0.036-0.024,0.081-0.024,0.133c0,0.055,0.008,0.099,0.024,0.133c0.016,0.034,0.037,0.062,0.064,0.081
		c0.028,0.021,0.06,0.035,0.097,0.044c0.036,0.008,0.074,0.012,0.113,0.012c0.096,0,0.169-0.019,0.222-0.057
		c0.053-0.038,0.092-0.084,0.117-0.137c0.025-0.054,0.041-0.107,0.046-0.162c0.006-0.055,0.008-0.099,0.008-0.131v-0.217
		c-0.02,0.022-0.046,0.038-0.077,0.051C12.014,18.099,11.98,18.108,11.945,18.117z"/>
	<path d="M22.652,17.336c-0.078,0-0.142,0.016-0.193,0.047c-0.052,0.032-0.092,0.071-0.123,0.116
		c-0.031,0.047-0.052,0.096-0.065,0.147c-0.013,0.052-0.02,0.099-0.022,0.14h0.791c-0.023-0.147-0.064-0.26-0.123-0.336
		C22.859,17.374,22.771,17.336,22.652,17.336z"/>
	<polygon points="14.645,13.685 17.063,13.685 17.431,5.188 14.276,5.188 	"/>
	<rect x="15.197" y="3.207" width="1.244" height="1.772"/>
	<polygon points="11.194,13.644 13.168,13.644 13.469,6.707 10.894,6.707 	"/>
	<rect x="11.646" y="5.091" width="1.015" height="1.446"/>
	<polygon points="18.38,13.713 20.354,13.713 20.655,6.775 18.08,6.775 	"/>
	<rect x="18.832" y="5.159" width="1.015" height="1.447"/>
</g>
<g>
</g>
<g>
</g>
<g>
</g>
<g>
</g>
<g>
</g>
<g>
</g>
<g>
</g>
<g>
</g>
<g>
</g>
<g>
</g>
<g>
</g>
<g>
</g>
<g>
</g>
<g>
</g>
<g>
</g>
</svg>
