<?xml version="1.0" encoding="iso-8859-1"?>
<!-- Generator: Adobe Illustrator 16.0.0, SVG Export Plug-In . SVG Version: 6.00 Build 0)  -->
<!DOCTYPE svg PUBLIC "-//W3C//DTD SVG 1.1//EN" "http://www.w3.org/Graphics/SVG/1.1/DTD/svg11.dtd">
<svg version="1.1" id="Layer_1" xmlns="http://www.w3.org/2000/svg" xmlns:xlink="http://www.w3.org/1999/xlink" x="0px" y="0px"
	 width="31.082px" height="24.433px" viewBox="0 0 31.082 24.433" style="enable-background:new 0 0 31.082 24.433;"
	 xml:space="preserve">
<g>
	<path d="M6.653,5.616C6.618,5.716,6.619,5.964,6.646,6.207c0,0.035-0.01,0.068-0.01,0.104c0,0.162,0.007,0.322,0.022,0.48
		c0.247,2.606,2.409,4.571,5.029,4.571c2.786,0,5.052-2.266,5.052-5.051c0-0.14-0.03-0.271-0.042-0.408
		c0.021-0.163,0.039-0.336,0.053-0.539c0.18-0.318,0.098-1.987-0.472-2.019c0.033-0.92-0.342-0.928-0.472-1.172
		c-0.13-0.245-0.236-0.929-0.488-0.96c0.122,0.496,0.073,0.553,0,0.488c-0.074-0.066-0.668-1.222-1.042-1.238
		c0.375,0.489,0.586,0.937,0.521,0.896c-0.065-0.041-2.044-1.303-3.029-1.351c-0.985-0.049-2.214,0.765-2.214,0.765
		S9.495,0.364,9.862,0.006c-0.269-0.082-0.65,0.662-0.717,0.781C9.113,0.844,8.599,0.757,8.111,0.983
		C7.566,1.236,7.034,1.818,6.849,2.188c-0.35,0.7-0.268,1.621-0.261,1.758c0.007,0.138-0.22,0.44-0.179,0.758
		C6.45,5.021,6.727,5.404,6.653,5.616z M7.598,6.959c0.136-0.397,0.384-0.561,0.374-0.814c-0.016-0.456-0.305-0.37-0.309-0.83
		c-0.002-0.25,0.045-0.527,0.119-0.786c0.163-0.356,0.38-0.68,0.63-0.976c0.67-0.205,2.686,0.456,3.126,0.296
		c0.212-0.261,2.06-0.415,2.996-0.22c0.385,0.081,0.882,0.639,1.099,1.563c0.155,0.662,0.218,1.445,0.243,2.062
		c-0.433,1.918-2.143,3.357-4.19,3.357c-2.015,0-3.7-1.37-4.164-3.268C7.54,7.201,7.561,7.066,7.598,6.959z"/>
	<path d="M25.24,6.019c-0.414-0.176-0.861-0.285-1.329-0.321l-0.07-0.017c0,0-0.004,0.007-0.007,0.013
		c-0.086-0.005-0.172-0.013-0.259-0.013c-2.356,0-4.267,1.911-4.267,4.267c0,1.132,0.443,2.158,1.163,2.921c0,0.001,0,0.004,0,0.005
		c0.387,0.507,0.513,1.181,0.545,1.879l-0.614,0.796l-3.406-2.639l0.001-0.021l-0.045-0.013l-0.049-0.038l-0.015,0.02l-2.092-0.603
		c0,1.456-1.18,2.635-2.635,2.635c-1.455,0-2.634-1.179-2.634-2.635l-2.878,0.632l-0.003-0.004l-3.499,2.712L1.82,13.881L0,15.544
		l1.205,1.555l0.133,0.171l1.375,1.774l1.942-1.504l-0.003-0.004l2.166-1.678l0.413,8.575h9.088l0.5-8.554l2.08,1.611l-0.003,0.003
		l1.943,1.505l0.035-0.044c0.679,0.622,2.765,0.647,2.968,0.653c0.215,0.006,0.405-0.671,0-0.811c-0.139-0.063-0.177-1,0-1.418
		c0.177-0.417,1.083-3.384,1.083-3.384l6.158-1.908v-4.66L25.24,6.019z M23.251,11.429c-0.933,0-1.69-0.757-1.69-1.69
		s0.757-1.69,1.69-1.69c0.934,0,1.69,0.756,1.69,1.69S24.185,11.429,23.251,11.429z"/>
</g>
<g>
</g>
<g>
</g>
<g>
</g>
<g>
</g>
<g>
</g>
<g>
</g>
<g>
</g>
<g>
</g>
<g>
</g>
<g>
</g>
<g>
</g>
<g>
</g>
<g>
</g>
<g>
</g>
<g>
</g>
</svg>
