<?xml version="1.0" encoding="iso-8859-1"?>
<!-- Generator: Adobe Illustrator 16.0.0, SVG Export Plug-In . SVG Version: 6.00 Build 0)  -->
<!DOCTYPE svg PUBLIC "-//W3C//DTD SVG 1.1//EN" "http://www.w3.org/Graphics/SVG/1.1/DTD/svg11.dtd">
<svg version="1.1" id="Layer_1" xmlns="http://www.w3.org/2000/svg" xmlns:xlink="http://www.w3.org/1999/xlink" x="0px" y="0px"
	 width="31.952px" height="32px" viewBox="0 0 31.952 32" style="enable-background:new 0 0 31.952 32;" xml:space="preserve">
<g>
	<g>
		<polygon points="19.781,6.678 19.943,6.304 16.157,8.053 16.628,8.363 		"/>
		<path d="M15.339,8.541l-2.125,1.021l-0.006-0.017c-0.012-0.015-0.022-0.028-0.035-0.042c-0.269-0.279-0.739-0.316-1.114-0.09
			c-0.211,0.125-0.365,0.316-0.438,0.532c-0.075,0.225-0.056,0.453,0.059,0.64c0.028,0.049,0.062,0.09,0.098,0.131
			c0.206,0.213,0.529,0.285,0.838,0.205c0.134-0.03,0.272-0.082,0.371-0.18c0.161-0.121,0.283-0.285,0.345-0.469
			c0.039-0.118,0.05-0.235,0.036-0.349l-0.013-0.033l2.395-0.984L15.339,8.541z M13.095,10.195c-0.053,0.161-0.172,0.303-0.33,0.398
			c-0.279,0.166-0.619,0.146-0.809-0.049c-0.025-0.025-0.047-0.055-0.065-0.086c-0.075-0.124-0.088-0.28-0.037-0.435
			c0.056-0.161,0.173-0.302,0.331-0.397c0.278-0.168,0.62-0.148,0.81,0.049c0.024,0.025,0.048,0.055,0.063,0.084
			C13.134,9.886,13.147,10.04,13.095,10.195z"/>
		<path d="M20.67,10.042c-0.048-0.028-0.681,0.005-0.839-0.266c-0.039-0.106-0.099-0.21-0.175-0.3
			c-0.281-0.338-0.738-0.458-1.081-0.283c-0.009,0.004-0.019,0.01-0.028,0.014l-2.038-0.766l-3.467-2.185l0.092,0.339l3.104,2.529
			l0.405-0.193l1.596,0.613c-0.043,0.098-0.065,0.207-0.069,0.322c-0.002,0.229,0.083,0.46,0.238,0.646
			c0.283,0.339,0.736,0.459,1.082,0.285c0.049-0.023,0.095-0.055,0.137-0.09c0.094-0.078,0.165-0.178,0.21-0.292
			c0.216-0.246,0.619-0.142,0.71-0.151C20.639,10.257,20.719,10.071,20.67,10.042z M16.339,8.817
			c-0.064,0.031-0.144,0.005-0.175-0.059c-0.03-0.063-0.007-0.142,0.058-0.174s0.142-0.005,0.174,0.057
			C16.429,8.706,16.403,8.783,16.339,8.817z M19.468,10.518c-0.026,0.023-0.056,0.043-0.089,0.061
			c-0.242,0.121-0.571,0.028-0.779-0.222c-0.119-0.143-0.184-0.315-0.181-0.485c0.002-0.164,0.065-0.305,0.177-0.398
			c0.027-0.023,0.059-0.043,0.091-0.059c0.243-0.123,0.572-0.03,0.779,0.221c0.118,0.143,0.183,0.315,0.179,0.485
			C19.644,10.284,19.581,10.425,19.468,10.518z"/>
	</g>
	<path d="M30.975,16.647c0.009-0.209,0.032-0.413,0.032-0.626c0-0.189-0.021-0.371-0.028-0.558c0.074-0.361,0.255-0.733,0.43-1.075
		c0.173-0.38,0.353-0.723,0.392-0.916c0.157-0.642-0.216-1.027-0.627-1.277c-0.292-0.182-0.601-0.301-0.792-0.434
		c-0.11-0.366-0.241-0.725-0.377-1.082c-0.039-0.382-0.002-0.802,0.031-1.186c0.05-0.423,0.116-0.81,0.095-1.008
		c-0.184-1.126-1.37-1.011-1.927-1.151c-0.223-0.31-0.448-0.616-0.693-0.908c-0.367-0.692-0.398-1.772-0.599-2.095
		c-0.502-1.037-1.617-0.507-2.182-0.47c-0.312-0.223-0.632-0.432-0.96-0.63c-0.548-0.577-0.967-1.52-1.239-1.803
		c-0.451-0.478-0.989-0.354-1.412-0.171c-0.31,0.134-0.577,0.333-0.799,0.431c-0.385-0.115-0.775-0.219-1.173-0.303
		c-0.692-0.349-1.363-1.123-1.705-1.271c-0.586-0.267-1.051-0.029-1.392,0.287c-0.247,0.248-0.436,0.524-0.611,0.688
		c-0.396,0.016-0.79,0.039-1.177,0.086c-0.776-0.088-1.684-0.638-2.059-0.647c-0.646-0.08-1.014,0.283-1.221,0.728
		c-0.157,0.31-0.247,0.632-0.364,0.839c-0.36,0.14-0.712,0.296-1.059,0.466C8.778,2.703,7.762,2.538,7.377,2.614
		C6.73,2.73,6.54,3.248,6.464,3.704C6.407,4.037,6.426,4.375,6.389,4.613C6.084,4.87,5.79,5.136,5.507,5.414
		C4.84,5.813,3.795,5.936,3.497,6.155C2.514,6.752,3.123,7.812,3.211,8.373C3.013,8.704,2.828,9.042,2.655,9.389
		c-0.239,0.289-0.589,0.53-0.896,0.755c-0.336,0.254-0.657,0.47-0.786,0.622c-0.45,0.487-0.283,1.012-0.055,1.42
		c0.174,0.3,0.378,0.548,0.488,0.757c-0.08,0.382-0.135,0.774-0.185,1.166c-0.316,0.726-0.979,1.479-1.147,1.835
		c-0.365,1.07,0.709,1.537,1.137,1.925c0.049,0.403,0.105,0.806,0.187,1.199c-0.037,0.771-0.503,1.699-0.478,2.063
		c-0.037,1.15,1.179,1.221,1.701,1.453c0.17,0.347,0.353,0.687,0.548,1.018c0.113,0.357,0.125,0.782,0.144,1.166
		c0.028,0.42,0.033,0.806,0.09,0.995c0.162,0.644,0.693,0.79,1.16,0.823c0.347,0.02,0.667-0.018,0.903,0.006
		c0.277,0.274,0.569,0.532,0.864,0.783c0.448,0.649,0.69,1.658,0.914,1.972c0.389,0.516,0.911,0.526,1.361,0.412
		c0.338-0.102,0.64-0.258,0.871-0.316c0.35,0.172,0.705,0.334,1.067,0.479c0.307,0.209,0.58,0.521,0.824,0.825
		c0.276,0.324,0.522,0.61,0.685,0.726c0.263,0.191,0.521,0.25,0.76,0.23c0.241-0.037,0.463-0.154,0.661-0.291
		c0.282-0.195,0.515-0.433,0.713-0.558c0.385,0.049,0.775,0.074,1.169,0.094c0.753,0.249,1.56,0.87,1.931,0.986
		c0.626,0.221,1.037-0.159,1.322-0.521c0.206-0.272,0.35-0.562,0.495-0.749c0.393-0.081,0.776-0.185,1.156-0.296
		c0.784-0.016,1.748,0.325,2.13,0.312c0.644-0.047,0.938-0.478,1.087-0.918c0.101-0.338,0.134-0.677,0.213-0.903
		c0.324-0.195,0.643-0.394,0.951-0.612c0.35-0.154,0.771-0.221,1.172-0.257c0.423-0.057,0.799-0.104,0.982-0.176
		c0.62-0.223,0.747-0.739,0.726-1.223c-0.008-0.348-0.08-0.673-0.072-0.907c0.244-0.288,0.471-0.589,0.692-0.896
		c0.136-0.112,0.281-0.22,0.448-0.31c0.183-0.117,0.379-0.221,0.57-0.316c0.383-0.188,0.742-0.345,0.897-0.47
		c0.842-0.767,0.103-1.696-0.087-2.24c0.143-0.363,0.279-0.728,0.393-1.103c0.382-0.677,1.259-1.285,1.414-1.626
		C32.361,17.737,31.327,17.1,30.975,16.647z M16.046,2.711c5.521,0,10.268,3.382,12.279,8.182c-0.391,0.057-0.9,0.127-1.487,0.205
		c-1.903-4.037-6.002-6.846-10.754-6.846c-4.785,0-8.908,2.848-10.794,6.93c-0.58-0.068-1.104-0.132-1.562-0.189
		C5.718,6.14,10.486,2.711,16.046,2.711z M25.777,17.27c0.108,0.105,0.263,0.159,0.466,0.159c0.146,0,0.271-0.036,0.376-0.108
		c0.104-0.073,0.168-0.15,0.191-0.231h0.634c-0.102,0.312-0.256,0.536-0.466,0.674c-0.21,0.139-0.463,0.209-0.761,0.209
		c-0.206,0-0.392-0.035-0.558-0.102c-0.166-0.068-0.305-0.163-0.42-0.284s-0.204-0.268-0.267-0.437s-0.094-0.354-0.094-0.557
		c0-0.197,0.032-0.378,0.097-0.548c0.063-0.17,0.155-0.315,0.273-0.438c0.117-0.123,0.259-0.221,0.423-0.291
		c0.164-0.072,0.346-0.107,0.545-0.107c0.224,0,0.418,0.043,0.583,0.13c0.166,0.086,0.302,0.202,0.408,0.348
		c0.105,0.145,0.183,0.311,0.23,0.496c0.047,0.186,0.064,0.38,0.051,0.583h-1.891C25.609,16.994,25.668,17.162,25.777,17.27z
		 M16.104,12.089c-2.554,0-7.089-0.471-10.336-0.851c1.841-3.854,5.767-6.53,10.316-6.53c4.519,0,8.422,2.641,10.279,6.454
		C23.406,11.552,18.836,12.089,16.104,12.089z M24.439,14.281v3.618h-0.721v-3.618H24.439z M21.686,17.737l-0.922-2.458h0.77
		l0.593,1.794h0.011l0.573-1.794h0.744l-1.095,2.949c-0.078,0.21-0.186,0.361-0.323,0.455c-0.14,0.093-0.332,0.139-0.578,0.139
		c-0.074,0-0.148-0.002-0.221-0.007c-0.073-0.005-0.146-0.011-0.221-0.019v-0.593c0.067,0.007,0.137,0.013,0.208,0.021
		c0.071,0.006,0.142,0.008,0.213,0.004c0.061-0.006,0.111-0.024,0.154-0.058c0.042-0.031,0.073-0.071,0.094-0.119
		c0.021-0.047,0.03-0.098,0.03-0.152C21.716,17.843,21.707,17.788,21.686,17.737z M20.256,17.302c0.04,0.04,0.122,0.062,0.243,0.062
		c0.081,0,0.156-0.008,0.224-0.021v0.563c-0.061,0.01-0.129,0.017-0.203,0.02c-0.074,0.004-0.147,0.006-0.218,0.006
		c-0.112,0-0.217-0.008-0.316-0.023c-0.101-0.016-0.188-0.045-0.265-0.092c-0.076-0.045-0.136-0.108-0.18-0.188
		c-0.043-0.082-0.065-0.188-0.065-0.32v-1.546H19.04v-0.481h0.437v-0.785h0.719v0.785h0.528v0.481h-0.528v1.298
		C20.195,17.18,20.215,17.262,20.256,17.302z M18.087,17.016c-0.037-0.039-0.09-0.074-0.159-0.104
		c-0.069-0.03-0.155-0.059-0.257-0.084c-0.101-0.025-0.216-0.052-0.344-0.079c-0.105-0.023-0.208-0.051-0.308-0.084
		c-0.099-0.031-0.188-0.074-0.266-0.126c-0.078-0.053-0.141-0.118-0.188-0.197c-0.048-0.08-0.071-0.177-0.071-0.292
		c0-0.165,0.033-0.304,0.099-0.413c0.066-0.109,0.153-0.196,0.262-0.259c0.107-0.063,0.229-0.106,0.364-0.131
		c0.136-0.025,0.274-0.039,0.416-0.039s0.279,0.014,0.413,0.041s0.252,0.072,0.357,0.137c0.104,0.064,0.191,0.15,0.262,0.255
		c0.069,0.107,0.11,0.242,0.124,0.404h-0.685c-0.01-0.139-0.063-0.232-0.157-0.281s-0.206-0.074-0.335-0.074
		c-0.04,0-0.084,0.002-0.131,0.008c-0.048,0.005-0.091,0.016-0.13,0.033c-0.039,0.017-0.071,0.041-0.099,0.073
		s-0.041,0.075-0.041,0.13c0,0.064,0.023,0.116,0.071,0.157c0.048,0.04,0.109,0.073,0.186,0.099s0.162,0.049,0.26,0.068
		c0.099,0.02,0.198,0.043,0.3,0.066c0.105,0.023,0.206,0.052,0.307,0.085c0.1,0.034,0.188,0.079,0.267,0.135
		c0.077,0.056,0.14,0.125,0.188,0.208c0.047,0.083,0.071,0.186,0.071,0.307c0,0.172-0.035,0.316-0.104,0.434s-0.16,0.21-0.271,0.28
		c-0.111,0.072-0.239,0.123-0.382,0.152c-0.145,0.031-0.291,0.047-0.439,0.047c-0.151,0-0.301-0.016-0.446-0.047
		c-0.146-0.029-0.273-0.082-0.387-0.154s-0.207-0.167-0.279-0.286c-0.073-0.118-0.112-0.264-0.119-0.437h0.684
		c0,0.078,0.017,0.146,0.049,0.2c0.032,0.057,0.073,0.102,0.124,0.138s0.109,0.062,0.176,0.079c0.065,0.017,0.133,0.025,0.204,0.025
		c0.051,0,0.104-0.006,0.16-0.018c0.056-0.013,0.106-0.031,0.152-0.057s0.084-0.059,0.114-0.102c0.03-0.042,0.046-0.096,0.046-0.16
		C18.144,17.101,18.125,17.055,18.087,17.016z M13.875,15.766c0.033-0.08,0.079-0.155,0.137-0.225s0.124-0.129,0.198-0.178
		c0.074-0.05,0.153-0.087,0.24-0.114c0.086-0.027,0.173-0.041,0.262-0.041c0.054,0,0.106,0.009,0.157,0.025v0.669
		c-0.034-0.006-0.075-0.012-0.122-0.018c-0.048-0.005-0.093-0.008-0.137-0.008c-0.133,0-0.244,0.022-0.334,0.066
		c-0.092,0.044-0.165,0.104-0.222,0.18c-0.056,0.076-0.096,0.166-0.119,0.269c-0.023,0.104-0.035,0.213-0.035,0.328v1.18h-0.72
		v-2.62h0.684v0.486H13.875z M11.893,14.874v-0.593h0.721v0.593H11.893z M12.614,15.279v2.62h-0.721v-2.62H12.614z M10.558,15.859
		c-0.025-0.045-0.06-0.081-0.102-0.106s-0.091-0.042-0.146-0.051s-0.116-0.013-0.181-0.013c-0.139,0-0.249,0.031-0.331,0.092
		c-0.083,0.061-0.132,0.162-0.145,0.305h-0.72c0.01-0.17,0.052-0.311,0.126-0.422c0.075-0.11,0.169-0.2,0.284-0.269
		c0.114-0.066,0.243-0.115,0.386-0.145c0.141-0.028,0.286-0.043,0.436-0.043c0.132,0,0.266,0.01,0.399,0.028
		c0.136,0.019,0.259,0.055,0.371,0.108c0.111,0.055,0.202,0.131,0.272,0.229c0.071,0.099,0.107,0.225,0.107,0.38v1.363
		c0,0.119,0.007,0.232,0.02,0.34c0.014,0.108,0.038,0.189,0.071,0.243h-0.729c-0.014-0.04-0.024-0.082-0.033-0.124
		s-0.015-0.085-0.018-0.13c-0.115,0.119-0.25,0.203-0.405,0.252c-0.156,0.049-0.314,0.074-0.477,0.074
		c-0.125,0-0.242-0.017-0.35-0.049c-0.108-0.032-0.203-0.08-0.284-0.145s-0.145-0.146-0.189-0.243
		c-0.046-0.098-0.069-0.215-0.069-0.35c0-0.149,0.025-0.271,0.076-0.368c0.051-0.096,0.119-0.173,0.203-0.23
		c0.084-0.057,0.18-0.101,0.286-0.129c0.106-0.029,0.216-0.052,0.327-0.068c0.111-0.018,0.218-0.031,0.319-0.04
		c0.102-0.01,0.191-0.025,0.271-0.047c0.079-0.02,0.142-0.049,0.189-0.088c0.047-0.039,0.071-0.096,0.071-0.17
		C10.596,15.967,10.583,15.905,10.558,15.859z M6.08,16.34v1.56H5.285v-3.618H6.08v1.389h1.465v-1.389H8.34v3.618H7.544v-1.56H6.08z
		 M15.976,20.077c3.428,0,7.807,0.394,10.567,0.684c-1.778,4.015-5.793,6.825-10.459,6.825c-4.693,0-8.73-2.842-10.492-6.894
		C8.579,20.412,12.814,20.077,15.976,20.077z M16.046,29.331c-5.624,0-10.434-3.51-12.38-8.452c0.424-0.043,0.906-0.09,1.447-0.142
		c1.799,4.286,6.038,7.305,10.971,7.305c4.903,0,9.122-2.983,10.939-7.229c0.545,0.059,1.013,0.11,1.37,0.152
		C26.427,25.862,21.638,29.331,16.046,29.331z"/>
	<path d="M26.197,15.75c-0.115,0-0.209,0.02-0.285,0.059s-0.138,0.088-0.184,0.145c-0.045,0.059-0.077,0.119-0.096,0.184
		s-0.03,0.121-0.033,0.172h1.171c-0.034-0.183-0.095-0.321-0.18-0.416C26.504,15.798,26.373,15.75,26.197,15.75z"/>
	<path d="M10.335,16.72c-0.053,0.01-0.108,0.018-0.168,0.025c-0.059,0.006-0.115,0.015-0.17,0.025
		c-0.058,0.01-0.111,0.023-0.162,0.04c-0.05,0.017-0.095,0.04-0.134,0.068s-0.07,0.064-0.094,0.111
		c-0.023,0.045-0.036,0.1-0.036,0.164c0,0.068,0.013,0.123,0.036,0.166c0.023,0.041,0.056,0.076,0.097,0.102
		c0.04,0.025,0.088,0.043,0.141,0.053c0.055,0.01,0.11,0.016,0.168,0.016c0.142,0,0.252-0.024,0.33-0.072
		c0.077-0.047,0.134-0.104,0.171-0.17c0.037-0.065,0.061-0.133,0.069-0.2c0.008-0.067,0.013-0.122,0.013-0.161v-0.269
		c-0.031,0.026-0.069,0.047-0.114,0.063S10.387,16.709,10.335,16.72z"/>
	<path d="M12.861,23.719c-0.041,0.02-0.086,0.033-0.133,0.04c-0.048,0.007-0.092,0.011-0.133,0.011
		c-0.063,0-0.123-0.008-0.179-0.022s-0.104-0.037-0.147-0.067c-0.042-0.031-0.076-0.07-0.102-0.12s-0.038-0.108-0.038-0.18h-0.448
		c-0.002,0.13,0.021,0.241,0.072,0.337c0.049,0.094,0.115,0.172,0.198,0.232c0.083,0.062,0.179,0.107,0.288,0.137
		s0.221,0.043,0.338,0.043c0.144,0,0.27-0.016,0.379-0.051c0.108-0.035,0.2-0.082,0.274-0.143c0.073-0.06,0.129-0.131,0.167-0.213
		c0.037-0.084,0.056-0.173,0.056-0.27c0-0.077-0.012-0.147-0.035-0.208c-0.023-0.06-0.055-0.111-0.093-0.154
		c-0.039-0.043-0.081-0.08-0.128-0.109c-0.046-0.029-0.092-0.054-0.138-0.072c-0.046-0.02-0.09-0.033-0.131-0.045
		c-0.042-0.01-0.075-0.02-0.101-0.025c-0.132-0.032-0.239-0.06-0.321-0.083c-0.081-0.022-0.145-0.044-0.19-0.064
		c-0.047-0.021-0.077-0.044-0.094-0.07c-0.016-0.025-0.023-0.059-0.023-0.1c0-0.043,0.01-0.08,0.029-0.111
		c0.021-0.03,0.045-0.055,0.076-0.075c0.03-0.02,0.064-0.033,0.101-0.041c0.037-0.008,0.075-0.013,0.112-0.013
		c0.055,0,0.107,0.006,0.156,0.016c0.05,0.01,0.093,0.026,0.131,0.051c0.037,0.023,0.067,0.055,0.09,0.097s0.036,0.094,0.04,0.157
		h0.448c0-0.123-0.023-0.227-0.07-0.313c-0.046-0.086-0.108-0.156-0.188-0.21c-0.077-0.055-0.168-0.096-0.27-0.119
		c-0.101-0.025-0.207-0.037-0.317-0.037c-0.095,0-0.188,0.012-0.282,0.038c-0.095,0.025-0.18,0.065-0.255,0.118
		c-0.074,0.052-0.135,0.118-0.182,0.198c-0.046,0.08-0.068,0.174-0.068,0.282c0,0.099,0.018,0.182,0.054,0.249
		c0.037,0.065,0.084,0.122,0.144,0.167s0.126,0.082,0.201,0.111c0.074,0.027,0.151,0.053,0.23,0.072
		c0.075,0.021,0.151,0.041,0.227,0.057c0.074,0.018,0.142,0.037,0.201,0.063c0.059,0.024,0.106,0.055,0.143,0.09
		c0.037,0.034,0.055,0.081,0.055,0.138c0,0.054-0.014,0.098-0.041,0.132S12.902,23.699,12.861,23.719z"/>
	<polygon points="14.192,23.171 15.043,23.171 15.043,24.08 15.507,24.08 15.507,21.973 15.043,21.973 15.043,22.781 14.192,22.781 
		14.192,21.973 13.728,21.973 13.728,24.08 14.192,24.08 	"/>
	<path d="M16.097,23.811c0.089,0.099,0.197,0.176,0.324,0.232c0.128,0.059,0.274,0.086,0.438,0.086s0.309-0.027,0.437-0.086
		c0.128-0.057,0.236-0.134,0.324-0.232c0.089-0.098,0.156-0.215,0.204-0.348c0.047-0.134,0.07-0.276,0.07-0.429
		c0-0.155-0.023-0.3-0.07-0.437c-0.048-0.135-0.115-0.254-0.204-0.354c-0.088-0.102-0.196-0.179-0.324-0.235
		c-0.128-0.058-0.273-0.086-0.437-0.086s-0.31,0.028-0.438,0.086c-0.127,0.057-0.235,0.134-0.324,0.235
		c-0.088,0.1-0.156,0.219-0.203,0.354c-0.048,0.137-0.071,0.281-0.071,0.437c0,0.152,0.023,0.295,0.071,0.429
		C15.941,23.596,16.009,23.713,16.097,23.811z M16.317,22.766c0.021-0.086,0.054-0.163,0.099-0.23
		c0.046-0.068,0.104-0.123,0.178-0.163c0.072-0.04,0.161-0.061,0.266-0.061c0.104,0,0.192,0.021,0.265,0.061
		c0.073,0.04,0.133,0.095,0.178,0.163c0.045,0.067,0.078,0.145,0.099,0.23c0.021,0.087,0.031,0.177,0.031,0.269
		c0,0.089-0.01,0.176-0.031,0.259c-0.021,0.084-0.054,0.158-0.099,0.225c-0.045,0.067-0.104,0.121-0.178,0.162
		c-0.072,0.04-0.161,0.061-0.265,0.061c-0.104,0-0.193-0.021-0.266-0.061c-0.073-0.041-0.132-0.095-0.178-0.162
		c-0.045-0.066-0.078-0.141-0.099-0.225c-0.021-0.083-0.03-0.17-0.03-0.259C16.287,22.942,16.296,22.853,16.317,22.766z"/>
	<path d="M18.673,23.324h0.486c0.132,0,0.244-0.02,0.337-0.058c0.092-0.039,0.167-0.09,0.226-0.152
		c0.058-0.063,0.1-0.135,0.127-0.216c0.026-0.08,0.04-0.164,0.04-0.25c0-0.085-0.014-0.168-0.04-0.25
		c-0.027-0.082-0.069-0.154-0.127-0.217c-0.059-0.063-0.134-0.112-0.226-0.151c-0.093-0.039-0.205-0.058-0.337-0.058H18.21v2.107
		h0.463V23.324z M18.673,22.332h0.359c0.054,0,0.104,0.004,0.153,0.012c0.05,0.008,0.093,0.023,0.131,0.046
		c0.037,0.022,0.067,0.055,0.09,0.097c0.022,0.041,0.034,0.096,0.034,0.162s-0.012,0.121-0.034,0.162
		c-0.022,0.04-0.053,0.073-0.09,0.095c-0.038,0.023-0.081,0.039-0.131,0.047c-0.049,0.008-0.1,0.012-0.153,0.012h-0.359V22.332z"/>
</g>
<g>
</g>
<g>
</g>
<g>
</g>
<g>
</g>
<g>
</g>
<g>
</g>
<g>
</g>
<g>
</g>
<g>
</g>
<g>
</g>
<g>
</g>
<g>
</g>
<g>
</g>
<g>
</g>
<g>
</g>
</svg>
