<?xml version="1.0" encoding="iso-8859-1"?>
<!-- Generator: Adobe Illustrator 16.0.0, SVG Export Plug-In . SVG Version: 6.00 Build 0)  -->
<!DOCTYPE svg PUBLIC "-//W3C//DTD SVG 1.1//EN" "http://www.w3.org/Graphics/SVG/1.1/DTD/svg11.dtd">
<svg version="1.1" id="Layer_1" xmlns="http://www.w3.org/2000/svg" xmlns:xlink="http://www.w3.org/1999/xlink" x="0px" y="0px"
	 width="32px" height="25.732px" viewBox="0 0 32 25.732" style="enable-background:new 0 0 32 25.732;" xml:space="preserve">
<g>
	<path d="M32,20.941l-2.681-2.49l2.49-2.59h-3.815c-0.059-0.135-0.134-0.264-0.212-0.377c0.212-0.207,0.4-0.383,0.458-0.511
		c0.336-0.567,0.001-0.989-0.316-1.315c0.053-0.08,0.103-0.157,0.16-0.237c0.047-0.074,0.095-0.145,0.14-0.212
		c0.131-0.197,0.244-0.366,0.286-0.482c0.182-0.438,0.057-0.842-0.369-1.195c-0.05-0.044-0.099-0.076-0.15-0.113
		c0.122-0.263,0.241-0.499,0.268-0.638c0.126-0.51-0.172-0.819-0.5-1.018c-0.076-0.047-0.15-0.084-0.225-0.122
		c0.02-0.092,0.04-0.183,0.062-0.275c0.023-0.083,0.046-0.164,0.068-0.242c0.067-0.232,0.125-0.434,0.13-0.569
		c-0.007-0.68-0.5-0.925-0.928-1.065c0.037-0.289,0.076-0.546,0.061-0.686c-0.105-0.647-0.625-0.78-1.075-0.846
		c-0.013-0.153-0.023-0.309-0.029-0.446c-0.012-0.29-0.021-0.519-0.078-0.646c-0.198-0.642-0.738-0.717-1.126-0.717
		c-0.029,0-0.055,0.003-0.084,0.003c-0.057-0.29-0.102-0.543-0.177-0.662c-0.289-0.6-0.832-0.544-1.281-0.457
		c-0.069-0.152-0.135-0.306-0.191-0.443c-0.098-0.24-0.183-0.447-0.266-0.563c-0.187-0.27-0.447-0.405-0.775-0.405
		c-0.128,0-0.268,0.021-0.426,0.063C21.354,1.699,21.3,1.725,21.24,1.746c-0.15-0.25-0.277-0.471-0.378-0.574
		c-0.36-0.381-0.789-0.285-1.127-0.137c-0.087,0.037-0.164,0.084-0.243,0.128c-0.111-0.119-0.219-0.242-0.313-0.353
		c-0.181-0.212-0.325-0.38-0.446-0.455c-0.389-0.254-0.803-0.237-1.246,0.063c-0.054,0.041-0.096,0.081-0.145,0.122
		C17.12,0.349,16.93,0.179,16.8,0.123c-0.468-0.214-0.838-0.023-1.11,0.227c-0.068,0.069-0.126,0.141-0.185,0.21
		c-0.134-0.073-0.268-0.148-0.392-0.222c-0.253-0.149-0.452-0.269-0.59-0.293c-0.471-0.132-0.87,0.031-1.158,0.467
		c-0.038,0.053-0.064,0.102-0.097,0.154c-0.271-0.109-0.509-0.21-0.649-0.213c-0.515-0.064-0.809,0.224-0.974,0.58
		c-0.043,0.084-0.074,0.166-0.108,0.249c-0.166-0.025-0.331-0.056-0.485-0.086c-0.239-0.046-0.446-0.085-0.588-0.085h-0.029
		c-0.682,0.02-0.878,0.622-0.942,0.82C9.473,1.993,9.465,2.051,9.45,2.112C9.161,2.102,8.91,2.088,8.769,2.114
		c-0.517,0.095-0.669,0.509-0.729,0.87C8.024,3.077,8.02,3.167,8.014,3.256C7.863,3.281,7.708,3.304,7.563,3.32
		C7.272,3.356,7.042,3.385,6.917,3.452C6.286,3.717,6.26,4.267,6.307,4.715C6.026,4.794,5.783,4.859,5.671,4.941
		C5.107,5.285,5.2,5.816,5.323,6.256C5.264,6.287,5.207,6.321,5.147,6.352L5.061,6.396C4.985,6.438,4.91,6.478,4.839,6.516
		C4.628,6.625,4.446,6.72,4.352,6.803C3.811,7.236,4.036,7.834,4.11,8.032c0.024,0.06,0.05,0.11,0.076,0.166
		c-0.23,0.17-0.439,0.316-0.529,0.422C3.298,9.01,3.432,9.429,3.614,9.755c0.047,0.08,0.096,0.149,0.144,0.222
		c-0.125,0.142-0.253,0.276-0.37,0.396C3.223,10.546,3.08,10.693,3,10.815c-0.311,0.601,0.002,1.05,0.31,1.377
		c-0.162,0.23-0.308,0.431-0.37,0.562c-0.21,0.616,0.179,0.98,0.539,1.253c-0.061,0.141-0.128,0.282-0.193,0.413
		c-0.13,0.266-0.234,0.476-0.245,0.617c-0.068,0.367,0.037,0.628,0.208,0.824H0.19l2.49,2.59L0,20.941h5.784
		c0.193,0.215,0.476,0.286,0.739,0.306c0.089,0.005,0.171,0.002,0.255,0.001c0.045,0.168,0.083,0.338,0.117,0.489
		c0.058,0.265,0.104,0.475,0.169,0.603c0.223,0.413,0.618,0.588,1.127,0.536c0.071-0.011,0.134-0.026,0.201-0.042
		c0.103,0.268,0.189,0.502,0.271,0.617c0.31,0.411,0.727,0.42,1.086,0.327c0.087-0.026,0.166-0.06,0.247-0.091
		c0.055,0.086,0.113,0.174,0.158,0.252c0.192,0.311,0.35,0.558,0.469,0.674c0.188,0.184,0.4,0.285,0.644,0.301
		c0.186-0.003,0.382-0.056,0.599-0.163c0.06-0.029,0.11-0.062,0.167-0.094c0.188,0.221,0.355,0.409,0.469,0.49
		c0.209,0.151,0.417,0.199,0.606,0.184c0.193-0.031,0.37-0.123,0.528-0.233c0.071-0.05,0.133-0.103,0.197-0.155
		c0.138,0.104,0.272,0.212,0.391,0.309c0.2,0.165,0.373,0.306,0.499,0.367c0.142,0.075,0.286,0.114,0.429,0.114
		c0.343,0,0.616-0.221,0.792-0.386c0.052-0.05,0.091-0.101,0.137-0.15c0.246,0.146,0.461,0.277,0.598,0.319
		c0.5,0.176,0.828-0.127,1.055-0.417c0.053-0.069,0.095-0.139,0.14-0.208c0.166,0.055,0.328,0.114,0.473,0.17
		c0.251,0.094,0.449,0.169,0.592,0.186c0.469,0.034,0.822-0.182,1.065-0.651c0.031-0.065,0.051-0.128,0.076-0.193
		c0.283,0.061,0.529,0.117,0.671,0.112c0.514-0.035,0.749-0.381,0.868-0.73c0.026-0.09,0.042-0.175,0.06-0.261
		c0.095,0,0.19,0.003,0.287,0.008c0.136,0.003,0.266,0.005,0.383,0.005c0.212,0,0.347-0.008,0.435-0.028
		c0.471-0.093,0.739-0.417,0.797-0.962c0.008-0.068,0.009-0.129,0.012-0.193c0.291-0.039,0.543-0.074,0.674-0.125
		c0.495-0.178,0.596-0.589,0.579-0.975c-0.002-0.086-0.012-0.166-0.021-0.247c0.057-0.021,0.113-0.043,0.169-0.063H32z
		 M27.604,12.371c0.053-0.259,0.177-0.521,0.301-0.77c0.037,0.027,0.073,0.051,0.108,0.081c0.362,0.302,0.461,0.609,0.312,0.972
		c-0.036,0.098-0.143,0.258-0.267,0.443c-0.046,0.068-0.094,0.141-0.139,0.211c-0.048,0.067-0.091,0.137-0.138,0.205
		c-0.069-0.071-0.134-0.137-0.182-0.197c0.007-0.167,0.026-0.332,0.026-0.5C27.626,12.665,27.609,12.521,27.604,12.371z
		 M27.638,15.627c0.052,0.076,0.1,0.154,0.14,0.234h-0.358C27.491,15.781,27.563,15.702,27.638,15.627z M26.845,7.691
		c0.377,0.127,0.745,0.331,0.75,0.859c-0.004,0.107-0.062,0.306-0.122,0.518c-0.022,0.078-0.046,0.16-0.073,0.264
		c-0.016,0.066-0.031,0.14-0.046,0.209C27.27,9.5,27.187,9.458,27.126,9.417c-0.088-0.294-0.192-0.58-0.3-0.863
		C26.798,8.274,26.82,7.975,26.845,7.691z M3.879,15.861h-0.34c-0.222-0.176-0.372-0.412-0.3-0.798
		c0.008-0.114,0.114-0.329,0.226-0.556c0.06-0.121,0.12-0.25,0.177-0.38c0.077,0.057,0.149,0.11,0.206,0.161
		c0.04,0.322,0.084,0.644,0.149,0.958C3.987,15.446,3.937,15.656,3.879,15.861z M3.855,11.288c-0.11,0.251-0.271,0.503-0.431,0.735
		c-0.268-0.292-0.492-0.646-0.252-1.107c0.064-0.097,0.202-0.24,0.36-0.404c0.104-0.109,0.223-0.235,0.337-0.362
		c0.05,0.073,0.1,0.146,0.134,0.208C3.939,10.664,3.896,10.976,3.855,11.288z M25.558,4.934c0.045,0.104,0.055,0.338,0.065,0.585
		c0.005,0.126,0.017,0.27,0.028,0.41c-0.096-0.014-0.188-0.025-0.262-0.044c-0.177-0.248-0.358-0.493-0.553-0.728
		c-0.126-0.237-0.202-0.53-0.261-0.811C24.966,4.338,25.391,4.395,25.558,4.934z M21.47,1.875c0.477-0.127,0.772-0.043,0.987,0.265
		c0.069,0.099,0.15,0.295,0.244,0.522c0.052,0.127,0.113,0.27,0.177,0.409c-0.095,0.02-0.186,0.036-0.26,0.041
		c-0.25-0.179-0.505-0.344-0.767-0.502c-0.188-0.199-0.355-0.45-0.505-0.691C21.387,1.904,21.426,1.886,21.47,1.875z M17.603,0.581
		c0.368-0.25,0.697-0.271,1.023-0.059c0.097,0.061,0.245,0.234,0.402,0.417c0.085,0.101,0.185,0.212,0.285,0.32
		c-0.075,0.044-0.15,0.089-0.215,0.119c-0.308-0.092-0.619-0.175-0.936-0.241c-0.231-0.117-0.458-0.293-0.666-0.468
		C17.532,0.642,17.564,0.609,17.603,0.581z M13.529,0.625c0.186-0.281,0.418-0.424,0.687-0.424c0.08,0,0.166,0.012,0.262,0.038
		c0.113,0.021,0.317,0.142,0.532,0.27c0.108,0.064,0.234,0.134,0.36,0.202c-0.059,0.069-0.116,0.141-0.169,0.19
		c-0.315,0.012-0.63,0.03-0.939,0.068c-0.264-0.03-0.542-0.13-0.804-0.232C13.482,0.7,13.502,0.662,13.529,0.625z M9.684,1.993
		c0.149-0.462,0.383-0.672,0.781-0.683c0.123,0,0.321,0.037,0.55,0.082c0.134,0.025,0.288,0.052,0.442,0.076
		c-0.034,0.085-0.066,0.17-0.102,0.232c-0.288,0.113-0.568,0.238-0.845,0.372c-0.27,0.049-0.572,0.052-0.856,0.044
		C9.665,2.076,9.669,2.034,9.684,1.993z M7.002,3.632c0.1-0.053,0.336-0.082,0.585-0.113c0.126-0.016,0.27-0.037,0.41-0.061
		C7.994,3.549,7.99,3.64,7.979,3.712c-0.243,0.206-0.479,0.415-0.704,0.64C7.048,4.486,6.769,4.58,6.501,4.659
		C6.462,4.252,6.499,3.842,7.002,3.632z M4.349,8.078C4.331,8.037,4.313,8.002,4.296,7.961C4.125,7.504,4.18,7.196,4.48,6.956
		c0.08-0.07,0.252-0.161,0.452-0.265c0.072-0.038,0.147-0.078,0.223-0.119l0.085-0.044c0.045-0.022,0.093-0.051,0.139-0.076
		c0.028,0.095,0.053,0.184,0.065,0.26C5.285,6.977,5.138,7.246,5,7.523C4.825,7.732,4.578,7.91,4.349,8.078z M8.167,22.678
		c-0.052,0.006-0.104,0.009-0.158,0.009c-0.357,0-0.609-0.145-0.769-0.439c-0.053-0.104-0.098-0.312-0.151-0.552
		c-0.031-0.139-0.068-0.293-0.107-0.446c0.094-0.003,0.186-0.006,0.261,0.001c0.221,0.22,0.454,0.427,0.689,0.628
		c0.156,0.225,0.279,0.504,0.385,0.77C8.267,22.656,8.218,22.67,8.167,22.678z M8.535,19.069V16.15h0.538v1.12h0.988v-1.12h0.538
		v2.919h-0.538v-1.259H9.073v1.259H8.535z M11.776,24.572c-0.189,0.094-0.357,0.141-0.505,0.143
		c-0.186-0.013-0.357-0.095-0.51-0.244c-0.104-0.1-0.26-0.347-0.437-0.634c-0.039-0.066-0.092-0.146-0.138-0.219
		c0.092-0.036,0.182-0.072,0.257-0.091c0.279,0.137,0.563,0.266,0.852,0.381c0.223,0.153,0.421,0.374,0.603,0.595
		C11.857,24.526,11.82,24.552,11.776,24.572z M15.804,25.203c-0.15,0.141-0.382,0.329-0.655,0.329c-0.11,0-0.223-0.029-0.339-0.092
		c-0.107-0.052-0.272-0.187-0.463-0.343c-0.108-0.088-0.231-0.186-0.356-0.279c0.075-0.063,0.147-0.124,0.211-0.165
		c0.307,0.038,0.618,0.06,0.933,0.073c0.259,0.087,0.521,0.229,0.765,0.369C15.868,25.132,15.84,25.168,15.804,25.203z
		 M19.822,24.507c-0.189,0.366-0.447,0.544-0.787,0.544c-0.027,0-0.055-0.001-0.08-0.003c-0.115-0.014-0.313-0.088-0.541-0.175
		c-0.131-0.05-0.281-0.103-0.43-0.152c0.049-0.08,0.097-0.159,0.143-0.218c0.313-0.065,0.619-0.147,0.923-0.238
		c0.267-0.005,0.557,0.044,0.829,0.1C19.86,24.412,19.844,24.461,19.822,24.507z M15.687,23.439c-2.6,0-4.98-0.943-6.829-2.498
		h13.656C20.667,22.496,18.286,23.439,15.687,23.439z M12.095,17.424c-0.017-0.036-0.04-0.065-0.069-0.086
		c-0.028-0.021-0.062-0.033-0.099-0.041c-0.038-0.007-0.079-0.01-0.122-0.01c-0.093,0-0.168,0.023-0.224,0.073
		c-0.056,0.049-0.089,0.131-0.098,0.245h-0.486c0.007-0.135,0.035-0.249,0.086-0.339c0.05-0.09,0.114-0.162,0.191-0.217
		c0.078-0.055,0.165-0.093,0.26-0.116s0.194-0.035,0.295-0.035c0.089,0,0.179,0.007,0.27,0.021c0.091,0.017,0.174,0.045,0.25,0.089
		c0.075,0.044,0.137,0.104,0.184,0.185c0.048,0.079,0.073,0.181,0.073,0.306V18.6c0,0.095,0.004,0.187,0.013,0.273
		c0.01,0.088,0.025,0.153,0.048,0.196h-0.492c-0.009-0.032-0.018-0.065-0.023-0.101c-0.005-0.033-0.009-0.068-0.012-0.104
		c-0.078,0.096-0.169,0.164-0.273,0.202c-0.105,0.04-0.212,0.06-0.322,0.06c-0.085,0-0.163-0.013-0.236-0.038
		c-0.073-0.027-0.137-0.065-0.191-0.117c-0.055-0.052-0.098-0.117-0.128-0.195c-0.031-0.08-0.046-0.175-0.046-0.283
		c0-0.12,0.017-0.219,0.051-0.297c0.034-0.077,0.079-0.139,0.137-0.186c0.056-0.047,0.121-0.081,0.192-0.104
		c0.072-0.023,0.146-0.041,0.221-0.055c0.075-0.014,0.147-0.025,0.215-0.033c0.069-0.008,0.129-0.02,0.183-0.036
		s0.097-0.041,0.128-0.071c0.032-0.033,0.047-0.077,0.047-0.138C12.121,17.51,12.112,17.461,12.095,17.424z M13.482,16.956v2.113
		h-0.485v-2.113H13.482z M12.997,16.629V16.15h0.485v0.479H12.997z M14.335,17.349c0.022-0.065,0.053-0.126,0.092-0.183
		c0.039-0.056,0.083-0.104,0.133-0.143c0.05-0.04,0.104-0.07,0.163-0.092c0.058-0.022,0.117-0.033,0.176-0.033
		c0.037,0,0.072,0.006,0.106,0.021v0.54c-0.023-0.006-0.051-0.011-0.083-0.015s-0.063-0.007-0.092-0.007
		c-0.089,0-0.165,0.019-0.226,0.054c-0.061,0.035-0.111,0.083-0.148,0.146c-0.037,0.062-0.064,0.134-0.08,0.217
		c-0.017,0.083-0.024,0.171-0.024,0.264v0.952h-0.486v-2.113h0.462v0.393H14.335z M17.178,18.355
		c-0.025-0.03-0.062-0.059-0.108-0.084c-0.046-0.023-0.104-0.046-0.173-0.066c-0.068-0.021-0.145-0.041-0.232-0.063
		c-0.071-0.019-0.139-0.042-0.207-0.067c-0.067-0.026-0.127-0.061-0.179-0.103c-0.053-0.042-0.095-0.096-0.127-0.159
		c-0.032-0.064-0.048-0.143-0.048-0.235c0-0.134,0.022-0.244,0.067-0.333s0.104-0.158,0.176-0.208
		c0.073-0.052,0.156-0.087,0.247-0.106c0.091-0.021,0.185-0.031,0.281-0.031c0.096,0,0.188,0.011,0.278,0.033
		c0.09,0.021,0.17,0.058,0.242,0.11c0.07,0.052,0.129,0.12,0.176,0.206c0.046,0.086,0.075,0.194,0.084,0.325h-0.462
		c-0.006-0.111-0.042-0.187-0.106-0.228c-0.064-0.04-0.139-0.059-0.226-0.059c-0.027,0-0.057,0.002-0.089,0.006
		s-0.061,0.013-0.087,0.026c-0.026,0.014-0.049,0.034-0.067,0.06c-0.019,0.025-0.027,0.061-0.027,0.104
		c0,0.052,0.016,0.094,0.047,0.126c0.032,0.033,0.074,0.06,0.125,0.08c0.051,0.021,0.11,0.039,0.176,0.055
		c0.066,0.017,0.134,0.035,0.203,0.055c0.07,0.019,0.139,0.041,0.207,0.068c0.067,0.027,0.127,0.063,0.179,0.108
		c0.053,0.045,0.095,0.102,0.127,0.168c0.032,0.067,0.048,0.149,0.048,0.248c0,0.138-0.023,0.255-0.07,0.349
		c-0.047,0.095-0.108,0.17-0.184,0.228c-0.075,0.058-0.161,0.098-0.259,0.122c-0.096,0.025-0.195,0.037-0.295,0.037
		c-0.103,0-0.203-0.012-0.301-0.037c-0.098-0.024-0.185-0.065-0.261-0.125c-0.077-0.058-0.139-0.135-0.188-0.23
		c-0.049-0.095-0.077-0.213-0.081-0.352h0.461c0,0.063,0.011,0.117,0.033,0.162c0.022,0.045,0.05,0.081,0.084,0.11
		c0.034,0.028,0.073,0.05,0.118,0.063c0.044,0.015,0.091,0.021,0.138,0.021c0.034,0,0.071-0.005,0.108-0.014
		c0.038-0.01,0.072-0.025,0.103-0.045c0.031-0.021,0.056-0.048,0.078-0.082c0.02-0.034,0.03-0.078,0.03-0.129
		C17.216,18.426,17.203,18.388,17.178,18.355z M18.957,16.956v0.388h-0.355v1.048c0,0.098,0.013,0.163,0.041,0.196
		c0.027,0.032,0.082,0.049,0.164,0.049c0.055,0,0.105-0.006,0.15-0.017v0.454c-0.042,0.008-0.086,0.014-0.137,0.016
		c-0.05,0.004-0.099,0.005-0.147,0.005c-0.075,0-0.146-0.006-0.214-0.019c-0.067-0.013-0.126-0.036-0.177-0.074
		c-0.052-0.037-0.092-0.088-0.122-0.152c-0.029-0.066-0.044-0.152-0.044-0.258v-1.248h-0.295v-0.388h0.295v-0.634h0.486v0.634
		H18.957z M19.607,18.939l-0.622-1.983h0.52l0.4,1.447h0.006l0.387-1.447h0.503l-0.738,2.38c-0.053,0.169-0.126,0.291-0.22,0.366
		c-0.093,0.074-0.223,0.112-0.39,0.112c-0.051,0-0.1-0.002-0.149-0.007c-0.049-0.004-0.099-0.009-0.149-0.014v-0.479
		c0.046,0.006,0.092,0.012,0.141,0.017c0.047,0.006,0.096,0.007,0.143,0.005c0.041-0.006,0.077-0.021,0.105-0.047
		c0.028-0.026,0.049-0.059,0.063-0.096c0.013-0.039,0.021-0.08,0.021-0.124C19.628,19.023,19.621,18.979,19.607,18.939z
		 M20.979,19.069V16.15h0.485v2.919H20.979z M23.381,22.521c-0.049,0.457-0.258,0.716-0.641,0.79
		c-0.098,0.022-0.271,0.025-0.394,0.025c-0.116,0-0.244-0.003-0.376-0.006c-0.081-0.005-0.165-0.006-0.247-0.007
		c0.02-0.096,0.038-0.19,0.063-0.264c0.258-0.154,0.513-0.314,0.758-0.487c0.253-0.111,0.554-0.162,0.846-0.193
		C23.387,22.427,23.387,22.473,23.381,22.521z M22.369,18.561c0.073,0.086,0.177,0.129,0.314,0.129c0.098,0,0.183-0.029,0.253-0.088
		c0.07-0.059,0.114-0.121,0.13-0.186h0.427c-0.068,0.251-0.173,0.433-0.314,0.543c-0.142,0.112-0.313,0.168-0.514,0.168
		c-0.139,0-0.265-0.026-0.376-0.082c-0.112-0.055-0.207-0.131-0.284-0.229c-0.078-0.099-0.138-0.217-0.18-0.352
		c-0.042-0.137-0.063-0.287-0.063-0.45c0-0.158,0.021-0.305,0.064-0.441c0.044-0.136,0.105-0.255,0.185-0.354
		c0.08-0.1,0.175-0.178,0.286-0.235c0.11-0.058,0.233-0.086,0.368-0.086c0.151,0,0.282,0.035,0.394,0.104
		c0.112,0.069,0.204,0.163,0.275,0.28c0.072,0.117,0.124,0.25,0.156,0.4c0.032,0.149,0.043,0.307,0.034,0.471h-1.276
		C22.256,18.34,22.295,18.475,22.369,18.561z M5.221,14.566c-0.096-0.57-0.157-1.152-0.157-1.75c0-5.858,4.766-10.623,10.623-10.623
		s10.622,4.765,10.622,10.623c0,0.598-0.062,1.18-0.157,1.75H5.221z"/>
	<path d="M22.653,17.336c-0.078,0-0.143,0.016-0.194,0.047s-0.092,0.07-0.123,0.116c-0.031,0.048-0.052,0.096-0.065,0.147
		c-0.012,0.053-0.02,0.098-0.022,0.14h0.791c-0.024-0.147-0.064-0.26-0.122-0.336S22.771,17.336,22.653,17.336z"/>
	<path d="M11.945,18.117c-0.036,0.008-0.073,0.015-0.113,0.021c-0.04,0.005-0.079,0.013-0.115,0.021
		c-0.038,0.009-0.075,0.02-0.109,0.032c-0.034,0.014-0.064,0.032-0.091,0.056c-0.026,0.022-0.048,0.053-0.063,0.09
		c-0.016,0.036-0.024,0.081-0.024,0.133c0,0.055,0.008,0.1,0.024,0.133c0.016,0.034,0.038,0.062,0.065,0.082
		c0.028,0.021,0.06,0.034,0.097,0.043c0.036,0.008,0.074,0.012,0.113,0.012c0.096,0,0.169-0.019,0.222-0.057
		c0.053-0.038,0.092-0.084,0.117-0.137c0.025-0.054,0.04-0.108,0.046-0.162c0.006-0.055,0.008-0.099,0.008-0.131v-0.217
		c-0.02,0.022-0.046,0.039-0.077,0.052C12.013,18.099,11.98,18.108,11.945,18.117z"/>
	<path d="M19.038,11.148c0,0,0.321-0.1,0.51,0.111c0.03-0.283-0.403-0.252-0.572-0.356c-0.168-0.105-0.319-0.805-0.319-0.805
		s0.574,0.324,0.399,0.675c0.249-0.15,0.258-0.37,0.234-0.761c-0.025-0.392-0.404-0.317-0.418-0.473
		c-0.009-0.11,0.095-0.126,0.158-0.209c0,0.02,0.001,0.038,0.009,0.055c0.064,0.155,0.383,0.421,0.288,0.627
		c0.293-0.203-0.165-0.549-0.172-0.688c-0.008-0.139,0.313-0.288,0.319-0.516c0.007-0.227-0.629-0.354-0.645-0.509
		c-0.016-0.157,0.283-0.217,0.289-0.375c0.002-0.067-0.09-0.256-0.197-0.452c0.085,0.07,0.172,0.138,0.154,0.207
		c0.169-0.081-0.106-0.266-0.092-0.344c0.013-0.08,0.229-0.137,0.135-0.369c-0.096-0.232-0.744-0.596-0.744-0.596
		s0.198-0.057,0.418-0.037s0.438,0.165,0.264,0.405c0.244,0.075,0.204-0.452,0.062-0.534c-0.142-0.081-0.393-0.153-0.682-0.085
		c0.271-1.201-1.148-1.284-1.148-1.284s0.078-0.268-0.037-0.361c-0.115-0.096-0.89-0.194-1.271-0.277
		c-0.38-0.083-1.39,0.316-1.75,0.467c-0.359,0.15-0.742,0.82-0.995,0.817c-0.253-0.005-0.557,0.083-0.641,0.584
		c0.057,0.177,0.121,0.325,0.177,0.44c-0.041,0.105-0.068,0.213-0.084,0.322c-0.151,0.028-0.335,0.021-0.409-0.156
		c-0.044,0.276,0.206,0.308,0.391,0.293c-0.038,0.412,0.048,0.802,0.117,0.979c0.003,0.014,0.006,0.027,0.009,0.04
		c-0.072,0.015-0.186,0.015-0.277-0.114c-0.038,0.186,0.177,0.213,0.293,0.215c0.013,0.123-0.003,0.255-0.087,0.383
		c-0.175,0.263-0.371,0.384-0.434,0.56c-0.091,0.248,0.383,0.29,0.383,0.29l0.001,0.095c0,0-0.152,0.146-0.12,0.263
		c0.042,0.152,0.349,0.099,0.349,0.099s-0.293,0.108-0.28,0.251c0.013,0.143,0.137,0.206,0.137,0.206s-0.285,0.557,0.133,0.68
		c0.418,0.123,1.265-0.386,1.376,0.209c0.107,0.411,0.582,1.42,0.417,1.609c-0.164,0.188-0.417,0.478-0.417,0.478l4.334,0.136
		c0,0-0.771-0.997-1.201-1.563c0.4,0.41,0.525-0.138,0.525-0.138s-0.124,0.505,0.024,0.59c0.146,0.085,0.658,0.096,0.546,0.571
		c0.072,0.024,0.167,0.067,0.16-0.186c-0.004-0.124-0.087-0.314-0.167-0.487c0.843-0.079,0.535-0.765,0.535-0.765
		s0.933,0.128,0.208,0.67C20.282,11.537,19.038,11.148,19.038,11.148z M19.241,8.846c0,0.094-0.104,0.221-0.167,0.34
		c0.003-0.234-0.318-0.517-0.318-0.517S19.241,8.695,19.241,8.846z M18.909,7.016c0.06,0.105-0.081,0.088-0.126,0.214
		c-0.097-0.168-0.18-0.3-0.18-0.3S18.844,6.904,18.909,7.016z M18.482,12.109c-0.076-0.164-0.145-0.312-0.131-0.37
		c0.029-0.12,0.252-0.363,0.252-0.363S19.296,11.883,18.482,12.109z"/>
</g>
<g>
</g>
<g>
</g>
<g>
</g>
<g>
</g>
<g>
</g>
<g>
</g>
<g>
</g>
<g>
</g>
<g>
</g>
<g>
</g>
<g>
</g>
<g>
</g>
<g>
</g>
<g>
</g>
<g>
</g>
</svg>
