<?xml version="1.0" encoding="iso-8859-1"?>
<!-- Generator: Adobe Illustrator 16.0.0, SVG Export Plug-In . SVG Version: 6.00 Build 0)  -->
<!DOCTYPE svg PUBLIC "-//W3C//DTD SVG 1.1//EN" "http://www.w3.org/Graphics/SVG/1.1/DTD/svg11.dtd">
<svg version="1.1" id="Layer_1" xmlns="http://www.w3.org/2000/svg" xmlns:xlink="http://www.w3.org/1999/xlink" x="0px" y="0px"
	 width="31.347px" height="31.346px" viewBox="0 0 31.347 31.346" style="enable-background:new 0 0 31.347 31.346;"
	 xml:space="preserve">
<g>
	<path d="M19.487,14.945c-0.325-1.651-3.157-2.629-3.814-1.391c-0.656-1.238-3.489-0.261-3.813,1.391
		c-0.426,1.728-2.677,2.201-3.928,1.302c0,1.951,2.102,1.977,3.402,2.102c3.08-0.136,4.053-1.555,4.339-2.204
		c0.288,0.649,1.261,2.068,4.34,2.204c1.301-0.125,3.402-0.15,3.402-2.102C22.164,17.146,19.914,16.673,19.487,14.945z"/>
	<circle cx="15.673" cy="27.271" r="0.924"/>
	<circle cx="3.981" cy="15.672" r="0.924"/>
	<circle cx="27.51" cy="15.672" r="0.924"/>
	<path d="M15.674,0C7.031,0,0,7.031,0,15.673c0,8.643,7.031,15.673,15.674,15.673c8.641,0,15.673-7.03,15.673-15.673
		C31.347,7.031,24.315,0,15.674,0z M15.674,30.342c-8.089,0-14.67-6.58-14.67-14.669S7.585,1.004,15.674,1.004
		s14.669,6.58,14.669,14.669S23.763,30.342,15.674,30.342z"/>
	<path d="M15.674,6.282c-5.178,0-9.391,4.213-9.391,9.391s4.213,9.391,9.391,9.391c5.177,0,9.39-4.213,9.39-9.391
		S20.851,6.282,15.674,6.282z M15.674,24.463c-4.847,0-8.79-3.942-8.79-8.79c0-4.847,3.943-8.79,8.79-8.79s8.79,3.943,8.79,8.79
		C24.463,20.521,20.521,24.463,15.674,24.463z"/>
</g>
<g>
	<g>
		<path d="M3.196,12.482c0.091-0.441,0.145-0.656,0.264-1.073c0.363,0.109,0.545,0.162,0.909,0.271
			c0.204-0.711,0.329-1.049,0.615-1.685c-0.344-0.163-0.516-0.245-0.86-0.408c0.168-0.373,0.258-0.552,0.45-0.901
			c0.861,0.495,1.293,0.744,2.153,1.237c-0.155,0.281-0.228,0.429-0.363,0.729c-0.386-0.183-0.58-0.277-0.966-0.46
			c-0.275,0.611-0.395,0.938-0.591,1.621c0.408,0.122,0.612,0.184,1.021,0.306c-0.097,0.336-0.139,0.509-0.213,0.864
			C4.647,12.785,4.164,12.684,3.196,12.482z"/>
		<path d="M5.716,6.971C5.96,6.665,6.087,6.52,6.351,6.238c1.16,0.22,1.715,0.392,2.739,0.841C8.851,7.274,8.735,7.378,8.51,7.594
			c-0.228-0.088-0.345-0.13-0.579-0.208C7.552,7.77,7.374,7.977,7.041,8.42c0.105,0.229,0.161,0.341,0.275,0.563
			C7.134,9.24,7.047,9.374,6.883,9.651C6.318,8.658,6.078,8.115,5.716,6.971z M6.852,7.998c0.245-0.313,0.373-0.461,0.641-0.743
			C7.098,7.141,6.897,7.089,6.487,7.004C6.484,7.008,6.482,7.01,6.479,7.014C6.615,7.416,6.69,7.613,6.852,7.998z"/>
		<path d="M7.793,4.934c0.292-0.224,0.442-0.33,0.748-0.53c0.554,0.828,0.83,1.241,1.382,2.068C9.676,6.633,9.556,6.717,9.321,6.896
			C8.711,6.111,8.404,5.721,7.793,4.934z"/>
		<path d="M9.223,3.99C10,3.552,10.408,3.367,11.245,3.073c0.173-0.061,0.338-0.094,0.49-0.103s0.287,0.002,0.404,0.034
			c0.117,0.031,0.213,0.08,0.287,0.147S12.546,3.3,12.57,3.39c0.038,0.141,0.022,0.274-0.039,0.4s-0.183,0.241-0.364,0.354
			c0.001,0.003,0.001,0.003,0.002,0.006c0.101-0.011,0.189-0.005,0.263,0.014s0.136,0.049,0.19,0.09
			c0.053,0.041,0.096,0.086,0.13,0.141s0.063,0.112,0.084,0.171c0.015,0.038,0.029,0.082,0.046,0.132s0.037,0.103,0.059,0.153
			c0.021,0.05,0.046,0.097,0.076,0.142s0.065,0.08,0.107,0.105c-0.283,0.068-0.422,0.107-0.7,0.195
			c-0.034-0.03-0.062-0.065-0.089-0.107c-0.025-0.041-0.051-0.088-0.076-0.135s-0.047-0.094-0.069-0.143s-0.046-0.098-0.071-0.141
			c-0.067-0.114-0.151-0.187-0.253-0.215c-0.104-0.027-0.25-0.008-0.437,0.064c-0.298,0.115-0.444,0.18-0.734,0.316
			c0.171,0.349,0.256,0.52,0.427,0.868c-0.264,0.124-0.394,0.192-0.649,0.336C9.975,5.278,9.723,4.852,9.223,3.99z M10.525,4.581
			c0.328-0.155,0.495-0.226,0.833-0.354c0.173-0.065,0.297-0.137,0.37-0.221s0.09-0.183,0.05-0.301
			c-0.039-0.114-0.115-0.183-0.229-0.202C11.434,3.484,11.284,3.51,11.1,3.58c-0.358,0.137-0.536,0.209-0.883,0.373
			C10.34,4.204,10.402,4.33,10.525,4.581z"/>
		<path d="M15.356,3.98c0.002,0.083,0.027,0.15,0.07,0.207c0.044,0.057,0.102,0.104,0.171,0.139c0.068,0.035,0.148,0.065,0.24,0.084
			c0.091,0.018,0.188,0.027,0.291,0.031c0.068,0.003,0.139,0.001,0.215-0.002c0.078-0.004,0.15-0.016,0.22-0.033
			c0.068-0.019,0.129-0.041,0.179-0.078c0.049-0.035,0.077-0.083,0.083-0.146c0.007-0.067-0.018-0.126-0.074-0.172
			c-0.057-0.047-0.137-0.09-0.235-0.126c-0.099-0.035-0.211-0.064-0.34-0.09s-0.259-0.053-0.391-0.078
			c-0.134-0.025-0.27-0.052-0.401-0.082s-0.251-0.07-0.358-0.118c-0.107-0.047-0.197-0.105-0.267-0.179
			c-0.071-0.073-0.113-0.167-0.123-0.282c-0.011-0.127,0.021-0.24,0.101-0.339c0.081-0.1,0.191-0.185,0.333-0.253
			c0.142-0.069,0.304-0.121,0.488-0.153c0.183-0.032,0.368-0.043,0.554-0.037c0.215,0.007,0.421,0.031,0.614,0.075
			c0.195,0.045,0.365,0.111,0.507,0.193c0.144,0.082,0.249,0.178,0.32,0.289c0.071,0.112,0.096,0.241,0.072,0.383
			c-0.326-0.051-0.49-0.071-0.818-0.101c0.001-0.074-0.019-0.139-0.057-0.189S16.66,2.83,16.591,2.798
			c-0.067-0.032-0.147-0.057-0.239-0.073s-0.193-0.026-0.297-0.029c-0.071-0.002-0.14,0.002-0.211,0.01
			c-0.071,0.009-0.135,0.023-0.193,0.047c-0.058,0.022-0.104,0.053-0.139,0.088c-0.037,0.037-0.055,0.08-0.054,0.131
			c0.001,0.049,0.017,0.087,0.046,0.116c0.029,0.03,0.087,0.058,0.17,0.081c0.084,0.023,0.199,0.05,0.346,0.08
			c0.146,0.031,0.338,0.071,0.57,0.128c0.044,0.011,0.105,0.024,0.177,0.043c0.073,0.02,0.147,0.044,0.228,0.075
			c0.079,0.03,0.157,0.07,0.233,0.114c0.077,0.045,0.145,0.097,0.204,0.155c0.059,0.06,0.101,0.129,0.129,0.205
			s0.037,0.161,0.021,0.252c-0.02,0.111-0.07,0.205-0.147,0.291c-0.077,0.087-0.177,0.156-0.304,0.21
			c-0.126,0.055-0.277,0.095-0.451,0.119c-0.175,0.025-0.373,0.029-0.596,0.021c-0.182-0.007-0.357-0.025-0.528-0.059
			c-0.171-0.032-0.324-0.081-0.459-0.146s-0.249-0.148-0.34-0.253c-0.091-0.104-0.144-0.228-0.155-0.379
			C14.901,3.998,15.052,3.988,15.356,3.98z"/>
		<path d="M19.157,3.258C18.7,3.13,18.469,3.076,18.002,2.991c0.035-0.18,0.052-0.269,0.087-0.448
			c1.323,0.24,1.977,0.444,3.199,1.018c-0.081,0.165-0.122,0.245-0.203,0.41c-0.431-0.202-0.651-0.292-1.098-0.451
			c-0.283,0.757-0.426,1.135-0.709,1.893c-0.274-0.098-0.412-0.143-0.692-0.221C18.815,4.417,18.929,4.031,19.157,3.258z"/>
		<path d="M21.817,5.572c-0.126-0.797-0.227-1.199-0.509-2.003c0.37,0.174,0.551,0.27,0.906,0.474
			c0.135,0.531,0.187,0.795,0.258,1.32c0.52-0.12,0.788-0.167,1.339-0.226c0.319,0.259,0.475,0.396,0.773,0.684
			c-0.878,0.006-1.304,0.054-2.111,0.22c-0.23,0.305-0.345,0.455-0.574,0.76c-0.237-0.176-0.36-0.259-0.608-0.415
			C21.501,6.061,21.607,5.897,21.817,5.572z"/>
		<path d="M24.838,6.072c0.261,0.268,0.387,0.41,0.63,0.702c-0.619,0.524-0.93,0.784-1.548,1.308
			c0.453,0.545,0.662,0.843,1.028,1.487c-0.158,0.094-0.237,0.142-0.396,0.235c-0.508-0.896-0.814-1.293-1.492-1.988
			C23.771,7.119,24.126,6.77,24.838,6.072z"/>
		<path d="M26.953,9.031c0.623,1.22,0.87,1.897,1.186,3.395c-0.179,0.038-0.269,0.059-0.447,0.097
			c-0.215-1.02-0.366-1.496-0.732-2.382c-0.195,0.085-0.292,0.129-0.486,0.214c0.322,0.778,0.456,1.192,0.657,2.078
			c-0.165,0.038-0.246,0.056-0.41,0.094c-0.193-0.854-0.323-1.253-0.634-2.003c-0.222,0.097-0.333,0.144-0.555,0.24
			c0.327,0.79,0.46,1.217,0.649,2.128c-0.179,0.037-0.269,0.056-0.448,0.093c-0.254-1.229-0.456-1.785-0.965-2.783
			C25.64,9.734,26.077,9.499,26.953,9.031z"/>
	</g>
</g>
<g>
</g>
<g>
</g>
<g>
</g>
<g>
</g>
<g>
</g>
<g>
</g>
<g>
</g>
<g>
</g>
<g>
</g>
<g>
</g>
<g>
</g>
<g>
</g>
<g>
</g>
<g>
</g>
<g>
</g>
</svg>
