<?xml version="1.0" encoding="iso-8859-1"?>
<!-- Generator: Adobe Illustrator 16.0.0, SVG Export Plug-In . SVG Version: 6.00 Build 0)  -->
<!DOCTYPE svg PUBLIC "-//W3C//DTD SVG 1.1//EN" "http://www.w3.org/Graphics/SVG/1.1/DTD/svg11.dtd">
<svg version="1.1" id="Layer_1" xmlns="http://www.w3.org/2000/svg" xmlns:xlink="http://www.w3.org/1999/xlink" x="0px" y="0px"
	 width="32px" height="31.651px" viewBox="0 0 32 31.651" style="enable-background:new 0 0 32 31.651;" xml:space="preserve">
<g>
	<circle cx="13.643" cy="10.354" r="3.23"/>
	<ellipse cx="28.575" cy="3.529" rx="3.425" ry="3.529"/>
	<path d="M30.827,8.573c-1.238-1.007-3.389-0.445-4.458-0.146c-0.917,0.352-2.434,0.705-4.254,0.86
		c-0.075-1.094-0.134-1.945-0.147-2.143l0.005-0.002l-0.22-1.398L21.36,5.807l-0.248-1.581l-0.23,0.036l0.169,1.076l-0.097,0.016
		l-0.169-1.077l-0.158,0.025l0.168,1.077l-0.097,0.016l-0.169-1.078l-0.162,0.026l0.169,1.076l-0.097,0.016L20.27,4.357
		l-0.158,0.024l0.169,1.077l-0.097,0.016l-0.169-1.077l-0.176,0.027l0.168,1.077l-0.097,0.016l-0.169-1.078l-0.157,0.025
		l0.168,1.078l-0.097,0.015L19.487,4.48l-0.162,0.024l0.168,1.078l-0.097,0.016L19.228,4.52L19.07,4.546l0.168,1.077l-0.097,0.015
		l-0.169-1.077L18.781,4.59l0.169,1.078l-0.097,0.016l-0.169-1.078L18.528,4.63l0.168,1.078L18.6,5.723L18.43,4.646l-0.162,0.026
		l0.168,1.077L18.34,5.763l-0.168-1.076l-0.158,0.024l0.168,1.077l-0.097,0.017l-0.169-1.078L17.74,4.755l0.168,1.076l-0.097,0.016
		L17.642,4.77l-0.201,0.032l0.249,1.581l-0.288,0.045l0.22,1.399h0.003c0.152,0.606,1.886,7.539,2.003,8.286
		c0.123,0.781,3.071,0.173,2.971-0.467c-0.051-0.325-0.216-2.548-0.364-4.646c1.852-0.163,4.099-0.311,4.088-0.061
		c-0.028,0.729-0.348,8.058-0.064,8.302l-0.585,5.428l0.518,5.339h-1.511v1.569h5.136V31.24v-1.231V19.923
		c0.604-0.118,1.065-0.438,1.144-1.099C31.211,16.746,32.208,9.693,30.827,8.573z M20.274,9.371L19.95,9.358
		c0.039-0.036,0.082-0.063,0.13-0.07c0.077-0.013,0.155,0.021,0.23,0.081C20.298,9.369,20.286,9.371,20.274,9.371z M17.918,7.151
		l3.565-0.56l0.038,0.241l-3.565,0.56L17.918,7.151z"/>
	<path d="M3.818,26.195c0.332,0.056,0.67,0.108,1.011,0.158c0.036,0.005,0.071,0.01,0.107,0.015c1.583,0.231,3.242,0.4,4.757,0.453
		c0.091,0.005,0.178,0.006,0.268,0.009c0.192,0.005,0.38,0.008,0.566,0.01c0.053,0,0.109,0.002,0.162,0.002
		c0.067,0,0.129-0.002,0.195-0.003c0.105,0,0.21-0.002,0.312-0.004c0.128-0.004,0.254-0.008,0.378-0.014
		c0.101-0.004,0.201-0.008,0.298-0.014c0.12-0.007,0.235-0.016,0.35-0.025c0.094-0.008,0.188-0.016,0.28-0.025
		c0.11-0.012,0.216-0.025,0.32-0.038c0.087-0.013,0.174-0.023,0.255-0.037c0.102-0.016,0.197-0.035,0.294-0.055
		c0.075-0.016,0.152-0.029,0.223-0.046c0.095-0.022,0.181-0.049,0.269-0.074c0.061-0.019,0.125-0.034,0.184-0.055
		c0.09-0.03,0.17-0.066,0.25-0.102c0.042-0.019,0.091-0.036,0.131-0.056c0.114-0.058,0.216-0.12,0.303-0.188
		c0.045-0.034,0.089-0.079,0.13-0.13c0.018-0.021,0.032-0.046,0.049-0.069c0.024-0.033,0.049-0.064,0.072-0.104
		c0.018-0.03,0.035-0.067,0.053-0.102c0.02-0.037,0.04-0.072,0.059-0.113c0.018-0.038,0.034-0.083,0.05-0.125
		c0.017-0.044,0.035-0.083,0.051-0.129c0.016-0.044,0.031-0.094,0.046-0.143s0.031-0.095,0.046-0.146
		c0.015-0.049,0.027-0.103,0.041-0.156c0.015-0.054,0.03-0.108,0.044-0.167c0.012-0.052,0.023-0.107,0.036-0.161
		c0.014-0.063,0.027-0.126,0.041-0.191c0.01-0.053,0.02-0.109,0.029-0.165c0.013-0.072,0.027-0.143,0.039-0.217
		c0.009-0.053,0.016-0.106,0.024-0.161c0.012-0.08,0.024-0.161,0.036-0.243c0.006-0.053,0.013-0.106,0.02-0.157
		c0.011-0.091,0.022-0.18,0.033-0.272c0.005-0.048,0.01-0.097,0.015-0.146c0.011-0.1,0.021-0.2,0.031-0.304
		c0.003-0.042,0.007-0.086,0.011-0.129c0.01-0.109,0.019-0.22,0.028-0.332c0.002-0.041,0.005-0.081,0.008-0.122
		c0.009-0.118,0.016-0.236,0.024-0.357c0.002-0.031,0.003-0.063,0.005-0.096c0.007-0.131,0.014-0.261,0.021-0.393
		c0.001-0.024,0.002-0.052,0.003-0.076c0.005-0.139,0.012-0.278,0.016-0.418c0.001-0.02,0.001-0.04,0.003-0.06
		c0.003-0.145,0.007-0.291,0.011-0.437c0-0.005,0-0.01,0-0.014l0,0c0.038-1.725-0.022-3.455-0.12-4.621c0-0.001,0-0.002,0-0.002
		c-0.001-0.011-0.002-0.021-0.003-0.033c-0.009-0.111-0.02-0.217-0.029-0.318c-0.005-0.043-0.009-0.082-0.014-0.122
		c-0.007-0.067-0.014-0.132-0.021-0.191c-0.006-0.039-0.011-0.076-0.015-0.112c-0.008-0.059-0.016-0.111-0.024-0.162
		c-0.004-0.029-0.009-0.059-0.014-0.085c-0.012-0.072-0.024-0.138-0.038-0.191c-0.119-0.084-0.253-0.15-0.396-0.206
		c-0.007-0.003-0.013-0.008-0.02-0.01c-0.144-0.055-0.298-0.097-0.458-0.13c-0.004-0.001-0.007-0.002-0.01-0.002
		c-0.001,0-0.002,0-0.003,0c-1.112-0.226-2.542,0.019-3.16,0.019c-0.283,0.152-0.557,1.452-0.99,2.89
		c-0.056,0.185-0.114,0.37-0.175,0.556c-0.001,0.005-0.003,0.01-0.004,0.014c-0.128,0.388-0.268,0.774-0.424,1.144
		c0,0,0,0-0.001,0.001c-0.077,0.183-0.158,0.36-0.245,0.531c-0.002,0.006-0.005,0.012-0.008,0.017
		c-0.086,0.171-0.177,0.334-0.272,0.488c0,0.002-0.002,0.005-0.003,0.007c-0.291,0.471-0.625,0.855-1.016,1.089c0,0,0,0,0.001,0
		c-0.306,0.184-0.645,0.277-1.025,0.243C3.785,20.602-0.398,25.48,3.818,26.195z"/>
	<path d="M16.369,27.487l0.009,0.002l2.051-9.264l-2.069-0.458l-0.153,0.693c0.049,3.197-0.185,7.15-1.227,7.965
		c-0.697,0.544-2.142,0.82-4.291,0.82c-1.123,0-2.434-0.08-3.809-0.226v0.526h3.491l-0.442,2.49h-3.15l-1.077,1.614h12.113
		l-1.076-1.614h-3.352l-0.442-2.49h3.423V27.487z"/>
	<path d="M7.354,20.682c0.041,0.004,0.08,0.006,0.12,0.006c1.037,0,1.761-1.331,2.282-2.764c-0.78,0.9-1.659,1.593-2.5,1.538
		C6.244,19.478,6.069,20.309,7.354,20.682z"/>
	<path d="M3.751,26.593c-0.607-0.103-1.041-0.285-1.352-0.502c-0.585,0.923-1.11,1.782-1.438,2.326H0v1.457h4.7v-1.457H4.623
		l1.065-1.535C5.044,26.798,4.396,26.701,3.751,26.593z"/>
</g>
<g>
</g>
<g>
</g>
<g>
</g>
<g>
</g>
<g>
</g>
<g>
</g>
<g>
</g>
<g>
</g>
<g>
</g>
<g>
</g>
<g>
</g>
<g>
</g>
<g>
</g>
<g>
</g>
<g>
</g>
</svg>
