<?xml version="1.0" encoding="iso-8859-1"?>
<!-- Generator: Adobe Illustrator 16.0.0, SVG Export Plug-In . SVG Version: 6.00 Build 0)  -->
<!DOCTYPE svg PUBLIC "-//W3C//DTD SVG 1.1//EN" "http://www.w3.org/Graphics/SVG/1.1/DTD/svg11.dtd">
<svg version="1.1" id="Layer_1" xmlns="http://www.w3.org/2000/svg" xmlns:xlink="http://www.w3.org/1999/xlink" x="0px" y="0px"
	 width="30.133px" height="31.574px" viewBox="0 0 30.133 31.574" style="enable-background:new 0 0 30.133 31.574;"
	 xml:space="preserve">
<g>
	<rect y="30.139" width="8.991" height="1.436"/>
	<path d="M8.665,6.307V5.515H7.264V4.481H5.195V0L4.76,0.257c0,0-0.401,0.137-0.561,0.331C4.006,0.493,3.711,0.803,3.565,0.962
		C3.454,0.866,3.047,1.16,2.903,1.353C2.778,1.239,2.417,1.501,2.298,1.711C2.161,1.478,1.691,2.068,1.691,2.068v3.446H0.327
		l0.047,0.792H0v23.359h8.991V6.307H8.665z M2.248,28.257H1.11V7.949h1.138V28.257z"/>
</g>
<path d="M20.963,22.903v8.671h9.17v-8.671H20.963z M23.254,31.159h-1.157v-7.771h1.157V31.159z"/>
<rect x="11.168" y="30.269" width="8.183" height="1.306"/>
<path d="M21.456,13.741v7.738h8.185v-7.738H21.456z M23.501,21.109h-1.033v-6.936h1.033V21.109z"/>
<path d="M18.561,6.829h-0.449V6.258H16.75V3.914l-2.574-0.002v2.346h-1.547v0.571h-0.485v1.749h-0.976v21.26h8.183V8.578h-0.79
	V6.829z M15.484,4.482c0.333,0,0.603,0.271,0.603,0.604c0,0.332-0.27,0.602-0.603,0.602s-0.603-0.27-0.603-0.602
	C14.882,4.753,15.151,4.482,15.484,4.482z M13.214,28.556h-1.036V10.071h1.036V28.556z"/>
<g>
</g>
<g>
</g>
<g>
</g>
<g>
</g>
<g>
</g>
<g>
</g>
<g>
</g>
<g>
</g>
<g>
</g>
<g>
</g>
<g>
</g>
<g>
</g>
<g>
</g>
<g>
</g>
<g>
</g>
</svg>
