<?xml version="1.0" encoding="utf-8"?>
<!-- Generator: Adobe Illustrator 16.0.4, SVG Export Plug-In . SVG Version: 6.00 Build 0)  -->
<!DOCTYPE svg PUBLIC "-//W3C//DTD SVG 1.1//EN" "http://www.w3.org/Graphics/SVG/1.1/DTD/svg11.dtd">
<svg version="1.1" id="Layer_1" xmlns="http://www.w3.org/2000/svg" xmlns:xlink="http://www.w3.org/1999/xlink" x="0px" y="0px"
	 width="24.632px" height="21.285px" viewBox="0 0 24.632 21.285" enable-background="new 0 0 24.632 21.285" xml:space="preserve">
<path d="M8.409,7.384L8.69,7.059l1.968,1.705l-0.281,0.325L8.409,7.384z M11.477,10.096c0.188,0,0.34-0.152,0.34-0.34
	c0-0.188-0.152-0.34-0.34-0.34c-0.188,0-0.34,0.152-0.34,0.34C11.137,9.944,11.289,10.096,11.477,10.096z M12.433,10.924
	c0.188,0,0.34-0.152,0.34-0.34s-0.152-0.34-0.34-0.34c-0.188,0-0.34,0.152-0.34,0.34S12.245,10.924,12.433,10.924z M24.389,20.937
	c-0.363,0.419-0.996,0.464-1.414,0.102l-7.035-6.093c-0.841-0.026-3.126-0.116-3.379-0.335c-0.271-0.234-1.798-1.559-2.186-1.895
	c-0.017-0.012-0.038-0.016-0.055-0.031c-0.265-0.23-0.294-0.631-0.064-0.896c0.216-0.25,0.581-0.281,0.844-0.094l0.004-0.005
	c0,0,0.009,0.009,0.024,0.021c0.007,0.008,0.016,0.008,0.023,0.015c0.007,0.006,0.01,0.015,0.017,0.021
	c0.321,0.278,1.824,1.58,1.953,1.691c0.088,0.076,0.717,0.1,1.196,0.105L4.412,4.964L5.01,4.273C4.704,4.007,4.377,3.73,4.045,3.47
	c-0.2-0.157-0.403-0.318-0.585-0.477C3.065,2.649,2.838,2.3,2.604,1.89C2.387,1.832,2.178,1.747,1.945,1.613
	C1.271,1.224,0.652,0.781,0,0.216L0.188,0c0.637,0.552,1.241,0.985,1.9,1.365c0.124,0.071,0.241,0.127,0.356,0.172
	C2.312,1.046,2.515,0.458,2.949,0.174c0.265-0.173,0.596-0.201,0.864-0.073c0.236,0.114,0.386,0.337,0.411,0.61
	c0.031,0.341,0.011,0.805-0.263,1.081C3.799,1.954,3.578,2.024,3.303,2C3.188,1.99,3.082,1.979,2.979,1.964
	c0.183,0.3,0.374,0.556,0.669,0.812c0.003,0.003,0.005,0.005,0.008,0.007c0.184,0.16,0.372,0.309,0.566,0.461
	c0.337,0.265,0.666,0.544,0.976,0.813l0.526-0.608l9.874,8.552c0.125-0.015,0.252-0.028,0.372-0.033
	c0.201-0.01,0.389-0.018,0.578-0.061c0.059-0.015,0.131-0.039,0.209-0.062c0.238-0.076,0.507-0.161,0.699-0.1
	c0.422,0.137,0.412,0.619,0.408,0.939V12.8c0.004,0.316-0.156,0.533-0.31,0.742c-0.022,0.031-0.043,0.062-0.065,0.095l6.797,5.886
	C24.705,19.886,24.751,20.518,24.389,20.937z M2.792,1.641c0.163,0.035,0.336,0.056,0.536,0.074c0.189,0.017,0.33-0.024,0.43-0.125
	c0.153-0.154,0.218-0.457,0.181-0.852C3.927,0.607,3.873,0.5,3.786,0.424C3.757,0.399,3.724,0.378,3.688,0.36
	C3.513,0.276,3.285,0.297,3.106,0.414C2.723,0.665,2.573,1.249,2.791,1.639C2.791,1.64,2.792,1.64,2.792,1.641z M13.358,10.747
	l-4.79-4.148l-0.633,0.73l4.79,4.148L13.358,10.747z M17.324,13.376c0.137-0.188,0.256-0.351,0.254-0.57v-0.124
	c0.004-0.323-0.006-0.597-0.211-0.662c-0.104-0.034-0.357,0.046-0.523,0.099c-0.086,0.027-0.166,0.053-0.231,0.068
	c-0.215,0.048-0.425,0.059-0.629,0.066c-0.028,0.002-0.055,0.006-0.083,0.008l1.371,1.189C17.289,13.425,17.305,13.4,17.324,13.376z
	"/>
</svg>
