<?xml version="1.0" encoding="iso-8859-1"?>
<!-- Generator: Adobe Illustrator 16.0.0, SVG Export Plug-In . SVG Version: 6.00 Build 0)  -->
<!DOCTYPE svg PUBLIC "-//W3C//DTD SVG 1.1//EN" "http://www.w3.org/Graphics/SVG/1.1/DTD/svg11.dtd">
<svg version="1.1" id="Layer_1" xmlns="http://www.w3.org/2000/svg" xmlns:xlink="http://www.w3.org/1999/xlink" x="0px" y="0px"
	 width="31.57px" height="24.977px" viewBox="0 0 31.57 24.977" style="enable-background:new 0 0 31.57 24.977;"
	 xml:space="preserve">
<g>
	<path d="M10.143,5.741c-0.036,0.103-0.035,0.356-0.008,0.604c0,0.036-0.01,0.069-0.01,0.106c0,0.165,0.007,0.329,0.022,0.491
		c0.252,2.664,2.462,4.673,5.141,4.673c2.848,0,5.164-2.316,5.164-5.164c0-0.143-0.031-0.278-0.042-0.417
		c0.021-0.166,0.04-0.344,0.054-0.55c0.184-0.326,0.1-2.031-0.483-2.064c0.034-0.94-0.349-0.949-0.482-1.198
		c-0.133-0.25-0.242-0.949-0.5-0.982c0.125,0.507,0.075,0.565,0,0.5c-0.075-0.067-0.683-1.249-1.065-1.266
		c0.383,0.5,0.599,0.958,0.533,0.916c-0.066-0.042-2.09-1.332-3.096-1.381c-1.007-0.05-2.264,0.782-2.264,0.782
		s-0.059-0.416,0.316-0.782c-0.275-0.083-0.665,0.676-0.733,0.799c-0.032,0.058-0.558-0.031-1.057,0.2
		c-0.557,0.258-1.101,0.854-1.29,1.232c-0.357,0.716-0.274,1.657-0.267,1.797c0.008,0.141-0.225,0.45-0.183,0.775
		C9.935,5.133,10.218,5.524,10.143,5.741z M11.108,7.114c0.14-0.406,0.393-0.573,0.383-0.832c-0.017-0.466-0.312-0.378-0.316-0.849
		c-0.002-0.256,0.046-0.539,0.122-0.803c0.167-0.365,0.388-0.695,0.644-0.998c0.685-0.209,2.746,0.466,3.196,0.303
		c0.217-0.267,2.105-0.424,3.063-0.225c0.394,0.082,0.902,0.653,1.123,1.598c0.159,0.677,0.223,1.478,0.248,2.107
		c-0.442,1.96-2.191,3.432-4.283,3.432c-2.06,0-3.782-1.4-4.257-3.34C11.049,7.361,11.071,7.224,11.108,7.114z"/>
	<circle cx="3.82" cy="14.885" r="0.252"/>
	<path d="M28.659,12.789v-1.55h-2.17v1.517c-1.132,0.355-1.94,1.274-1.94,2.355c0,0.095,0.029,0.182,0.042,0.274l-0.393,0.509
		l-3.482-2.698l0.001-0.021l-0.046-0.014l-0.05-0.039l-0.015,0.02l-2.139-0.616c0,1.488-1.206,2.693-2.694,2.693
		c-1.487,0-2.693-1.206-2.693-2.693l-2.942,0.646l-0.003-0.004l-3.576,2.772L5.202,14.19l-0.646,0.59
		C4.81,12.085,5.502,6.514,5.08,6.443C5.05,6.438,5.018,6.467,4.984,6.526c-0.562,0.753-1.742,8.066-2.111,9.285
		c-0.348,1.151-1,2.965-1.35,3.357c-0.738-0.057-1.408,0.515-1.511,1.309c-0.106,0.818,0.429,1.564,1.193,1.663
		c0.764,0.099,1.472-0.486,1.578-1.304c0.071-0.552-0.15-1.071-0.537-1.381c-0.064-0.495,0.968-2.685,1.277-3.328l0.216,0.278
		c0.164,1.003,0.452,2.968,0.254,3.313c-0.002,0.004-0.003,0.006-0.004,0.009c-0.504,0.175-0.901,0.646-0.979,1.24
		c-0.105,0.819,0.431,1.564,1.194,1.663c0.764,0.1,1.472-0.486,1.578-1.304c0.094-0.725-0.318-1.394-0.946-1.604
		c-0.182-0.166-0.29-1.253-0.339-2.338l0.074,0.095l0.136,0.174l1.405,1.813L8.1,17.93l-0.003-0.004l2.214-1.715l0.422,8.766h9.29
		l0.511-8.744l2.126,1.647l-0.004,0.004l1.986,1.538l1.247-1.609v0.06h3.281v-0.67c0.797-0.451,1.323-1.219,1.323-2.091
		C30.494,14.064,29.736,13.167,28.659,12.789z M2.491,20.798c-0.085,0.657-0.645,1.127-1.246,1.049
		c-0.603-0.078-1.024-0.675-0.938-1.332c0.085-0.657,0.643-1.127,1.246-1.05C2.156,19.545,2.577,20.143,2.491,20.798z M5.493,21.29
		c-0.085,0.656-0.645,1.127-1.248,1.049c-0.603-0.078-1.023-0.676-0.938-1.332c0.084-0.656,0.644-1.127,1.247-1.049
		C5.156,20.036,5.577,20.633,5.493,21.29z M3.871,14.488c0.219,0.028,0.374,0.229,0.346,0.448c-0.029,0.219-0.229,0.374-0.449,0.346
		c-0.218-0.029-0.373-0.23-0.345-0.449C3.452,14.614,3.652,14.459,3.871,14.488z"/>
	<path d="M30.185,9.175V8.479l1.005-0.512l-0.309-0.785l-4.039,1.44l-0.001-0.003l-1.027,0.553h-0.89v0.283h0.976l0.925,0.542v0.749
		h-0.167v0.397h1.809v-0.397h-0.154c-0.01-0.201-0.028-0.721,0.021-0.82c1.032-0.459,3.078,2.249,3.078,2.249l0.159-0.15
		L30.185,9.175z M26.824,9.668l-0.64-0.375l0.64-0.345V9.668z"/>
</g>
<g>
</g>
<g>
</g>
<g>
</g>
<g>
</g>
<g>
</g>
<g>
</g>
<g>
</g>
<g>
</g>
<g>
</g>
<g>
</g>
<g>
</g>
<g>
</g>
<g>
</g>
<g>
</g>
<g>
</g>
</svg>
