<?xml version="1.0" encoding="iso-8859-1"?>
<!-- Generator: Adobe Illustrator 16.0.0, SVG Export Plug-In . SVG Version: 6.00 Build 0)  -->
<!DOCTYPE svg PUBLIC "-//W3C//DTD SVG 1.1//EN" "http://www.w3.org/Graphics/SVG/1.1/DTD/svg11.dtd">
<svg version="1.1" id="Layer_1" xmlns="http://www.w3.org/2000/svg" xmlns:xlink="http://www.w3.org/1999/xlink" x="0px" y="0px"
	 width="32px" height="31.652px" viewBox="0 0 32 31.652" style="enable-background:new 0 0 32 31.652;" xml:space="preserve">
<g>
	<circle cx="13.644" cy="10.354" r="3.23"/>
	<ellipse cx="28.576" cy="3.53" rx="3.425" ry="3.53"/>
	<path d="M30.827,8.573c-1.237-1.006-3.389-0.444-4.458-0.145c-1.21,0.465-3.468,0.933-6.094,0.942l-1.101-0.042
		c-0.941-3.018-2.073-6.58-2.231-6.881c-0.274-0.519-0.754-0.461-0.754-0.461l0.086,0.238l-0.292,0.126L18.1,8.845l0.213-0.076
		l0.771,2.447c-0.002,0.016-0.002,0.032-0.004,0.05l0.019-0.001l0.581,1.846l-1.871-4.165l0.211-0.084l-2.733-6.259l-0.302,0.101
		l-0.095-0.236c0,0-0.397,0.277-0.256,0.847c0.14,0.569,4.601,10.383,4.752,10.663c0.065,0.121,0.201,0.139,0.333,0.121l0.302,0.838
		l0.552-0.197l-0.3-0.828c0.128-0.076,0.243-0.188,0.208-0.337c-0.021-0.091-0.309-1.032-0.711-2.332l0.068-0.002
		c0,0,6.504-0.724,6.487-0.299c-0.029,0.73-0.348,8.058-0.063,8.302l-0.586,5.429l0.518,5.339h-1.511v1.57h5.137v-0.339V30.01
		V19.923c0.604-0.118,1.064-0.437,1.144-1.099C31.211,16.748,32.208,9.695,30.827,8.573z"/>
	<path d="M3.818,26.196c0.331,0.055,0.669,0.108,1.01,0.159c0.036,0.005,0.071,0.01,0.107,0.015
		c1.582,0.232,3.244,0.399,4.758,0.453c0.09,0.004,0.178,0.005,0.268,0.008c0.191,0.005,0.38,0.008,0.566,0.01
		c0.053,0,0.11,0.002,0.162,0.002c0.067,0,0.129-0.002,0.195-0.003c0.106-0.001,0.21-0.002,0.313-0.004
		c0.128-0.004,0.254-0.008,0.378-0.013c0.1-0.004,0.2-0.009,0.297-0.015c0.12-0.008,0.235-0.017,0.351-0.025
		c0.094-0.008,0.188-0.016,0.279-0.025c0.111-0.011,0.216-0.025,0.322-0.039c0.086-0.012,0.172-0.022,0.255-0.036
		c0.102-0.016,0.197-0.036,0.293-0.055c0.075-0.016,0.152-0.029,0.223-0.046c0.096-0.022,0.182-0.049,0.27-0.074
		c0.062-0.019,0.126-0.034,0.183-0.055c0.091-0.031,0.17-0.066,0.251-0.102c0.043-0.02,0.091-0.036,0.13-0.056
		c0.114-0.058,0.217-0.12,0.304-0.188c0.045-0.034,0.089-0.078,0.13-0.129c0.017-0.02,0.033-0.046,0.049-0.069
		c0.024-0.032,0.049-0.065,0.072-0.104c0.018-0.031,0.036-0.068,0.053-0.103c0.019-0.036,0.039-0.071,0.058-0.112
		c0.018-0.039,0.034-0.083,0.051-0.126c0.017-0.042,0.034-0.082,0.05-0.127c0.017-0.046,0.031-0.096,0.046-0.144
		c0.016-0.049,0.032-0.094,0.047-0.146c0.014-0.049,0.027-0.103,0.042-0.155c0.014-0.056,0.029-0.108,0.043-0.168
		c0.012-0.052,0.024-0.107,0.035-0.161c0.014-0.063,0.028-0.126,0.041-0.192c0.011-0.052,0.02-0.109,0.029-0.164
		c0.013-0.072,0.026-0.143,0.039-0.217c0.009-0.053,0.016-0.107,0.024-0.162c0.013-0.08,0.024-0.16,0.036-0.243
		c0.007-0.052,0.014-0.104,0.02-0.157c0.011-0.09,0.022-0.179,0.033-0.271c0.005-0.048,0.01-0.098,0.015-0.145
		c0.01-0.101,0.021-0.201,0.03-0.305c0.004-0.043,0.007-0.085,0.011-0.129c0.009-0.109,0.019-0.219,0.027-0.332
		c0.003-0.039,0.006-0.081,0.008-0.123c0.009-0.117,0.017-0.236,0.024-0.356c0.001-0.032,0.004-0.064,0.005-0.096
		c0.007-0.13,0.014-0.261,0.021-0.392c0.001-0.026,0.002-0.053,0.003-0.077c0.006-0.14,0.012-0.278,0.017-0.418
		c0-0.02,0.001-0.039,0.002-0.059c0.004-0.146,0.009-0.291,0.011-0.438c0-0.005,0.001-0.01,0.001-0.014l0,0
		c0.038-1.725-0.023-3.455-0.12-4.621c0-0.001,0-0.001,0-0.001c-0.001-0.012-0.001-0.021-0.003-0.034
		c-0.009-0.111-0.02-0.218-0.029-0.318c-0.004-0.043-0.009-0.082-0.014-0.122c-0.006-0.067-0.014-0.131-0.021-0.192
		c-0.005-0.038-0.01-0.075-0.015-0.111c-0.008-0.059-0.016-0.112-0.024-0.163c-0.004-0.028-0.008-0.058-0.013-0.083
		c-0.013-0.072-0.026-0.139-0.038-0.192c-0.119-0.084-0.254-0.15-0.397-0.207c-0.006-0.002-0.013-0.007-0.02-0.009
		c-0.143-0.055-0.298-0.097-0.458-0.13c-0.004,0-0.007-0.002-0.01-0.002c-0.001,0-0.002,0-0.003,0
		c-1.111-0.226-2.542,0.02-3.16,0.019c-0.283,0.151-0.556,1.452-0.99,2.891c-0.055,0.184-0.114,0.369-0.174,0.555
		c-0.002,0.004-0.004,0.009-0.005,0.014c-0.128,0.388-0.268,0.774-0.425,1.145l0,0c-0.078,0.183-0.16,0.36-0.246,0.532
		c-0.003,0.005-0.005,0.01-0.008,0.016c-0.086,0.171-0.176,0.334-0.271,0.488c-0.001,0.002-0.002,0.004-0.003,0.007
		c-0.291,0.47-0.626,0.854-1.016,1.089c0,0,0,0,0.001,0c-0.307,0.184-0.645,0.277-1.024,0.243
		C3.785,20.603-0.399,25.48,3.818,26.196z"/>
	<path d="M16.369,27.488l0.01,0.002l2.051-9.263l-2.07-0.459l-0.153,0.693c0.05,3.197-0.184,7.151-1.227,7.965
		c-0.697,0.545-2.141,0.819-4.291,0.819c-1.123,0-2.435-0.08-3.809-0.226v0.527h3.491l-0.443,2.49H6.779l-1.077,1.614h12.112
		l-1.076-1.614h-3.351l-0.443-2.49h3.424V27.488z"/>
	<path d="M7.354,20.682c0.041,0.004,0.081,0.006,0.12,0.006c1.037,0,1.761-1.33,2.282-2.763c-0.78,0.901-1.659,1.593-2.5,1.538
		C6.243,19.479,6.069,20.309,7.354,20.682z"/>
	<path d="M3.751,26.594c-0.607-0.104-1.041-0.285-1.352-0.502c-0.585,0.924-1.11,1.783-1.438,2.325H0v1.458h4.7v-1.458H4.623
		l1.066-1.535C5.045,26.799,4.396,26.702,3.751,26.594z"/>
</g>
<g>
</g>
<g>
</g>
<g>
</g>
<g>
</g>
<g>
</g>
<g>
</g>
<g>
</g>
<g>
</g>
<g>
</g>
<g>
</g>
<g>
</g>
<g>
</g>
<g>
</g>
<g>
</g>
<g>
</g>
</svg>
