<?xml version="1.0" encoding="iso-8859-1"?>
<!-- Generator: Adobe Illustrator 16.0.0, SVG Export Plug-In . SVG Version: 6.00 Build 0)  -->
<!DOCTYPE svg PUBLIC "-//W3C//DTD SVG 1.1//EN" "http://www.w3.org/Graphics/SVG/1.1/DTD/svg11.dtd">
<svg version="1.1" id="Layer_1" xmlns="http://www.w3.org/2000/svg" xmlns:xlink="http://www.w3.org/1999/xlink" x="0px" y="0px"
	 width="31.855px" height="32px" viewBox="0 0 31.855 32" style="enable-background:new 0 0 31.855 32;" xml:space="preserve">
<g>
	<path d="M13.357,24.501c-0.044-0.049-0.093-0.09-0.146-0.125c-0.052-0.032-0.105-0.06-0.159-0.082
		c-0.052-0.021-0.103-0.038-0.15-0.05c-0.047-0.013-0.086-0.023-0.115-0.03c-0.151-0.038-0.274-0.07-0.368-0.095
		c-0.094-0.028-0.167-0.053-0.22-0.075c-0.054-0.025-0.089-0.05-0.107-0.08c-0.018-0.03-0.026-0.067-0.026-0.115
		c0-0.05,0.011-0.093,0.034-0.127c0.022-0.035,0.051-0.063,0.086-0.085c0.035-0.023,0.074-0.04,0.117-0.048
		c0.043-0.01,0.086-0.015,0.128-0.015c0.064,0,0.124,0.006,0.18,0.018c0.056,0.011,0.106,0.029,0.148,0.057s0.078,0.065,0.104,0.113
		c0.025,0.047,0.04,0.107,0.045,0.178h0.515c0-0.14-0.026-0.258-0.08-0.355c-0.053-0.099-0.125-0.18-0.215-0.242
		c-0.09-0.064-0.193-0.11-0.31-0.138s-0.238-0.043-0.364-0.043c-0.109,0-0.216,0.016-0.325,0.045
		c-0.108,0.029-0.205,0.074-0.291,0.136c-0.085,0.06-0.155,0.137-0.208,0.227c-0.054,0.093-0.08,0.2-0.08,0.324
		c0,0.113,0.021,0.209,0.063,0.283c0.042,0.078,0.096,0.143,0.164,0.194c0.068,0.051,0.145,0.094,0.231,0.126
		c0.085,0.034,0.174,0.062,0.264,0.084c0.087,0.024,0.175,0.046,0.26,0.066c0.086,0.019,0.162,0.042,0.231,0.069
		c0.067,0.03,0.123,0.064,0.164,0.105c0.042,0.04,0.063,0.093,0.063,0.157c0,0.063-0.016,0.112-0.047,0.151
		s-0.071,0.071-0.119,0.094s-0.098,0.037-0.152,0.045c-0.054,0.008-0.104,0.013-0.151,0.013c-0.072,0-0.141-0.009-0.205-0.025
		c-0.065-0.018-0.121-0.044-0.17-0.078c-0.049-0.035-0.087-0.082-0.116-0.137c-0.03-0.058-0.044-0.126-0.044-0.207H11.47
		c-0.002,0.149,0.025,0.277,0.083,0.386s0.134,0.197,0.229,0.268c0.095,0.07,0.205,0.121,0.33,0.156
		c0.125,0.032,0.255,0.05,0.387,0.05c0.165,0,0.31-0.02,0.435-0.06c0.126-0.039,0.231-0.093,0.315-0.163
		c0.085-0.067,0.149-0.149,0.191-0.244c0.043-0.096,0.065-0.198,0.065-0.308c0-0.091-0.014-0.17-0.042-0.239
		C13.437,24.611,13.4,24.551,13.357,24.501z"/>
	<polygon points="15.329,24.146 14.351,24.146 14.351,23.219 13.819,23.219 13.819,25.636 14.351,25.636 14.351,24.594 
		15.329,24.594 15.329,25.636 15.86,25.636 15.86,23.219 15.329,23.219 	"/>
	<path d="M18.284,23.531c-0.101-0.115-0.225-0.206-0.373-0.272c-0.146-0.065-0.313-0.098-0.5-0.098
		c-0.188,0-0.355,0.032-0.501,0.098c-0.147,0.066-0.271,0.157-0.373,0.272s-0.18,0.25-0.234,0.405
		c-0.054,0.156-0.081,0.322-0.081,0.501c0,0.174,0.027,0.338,0.081,0.491c0.054,0.152,0.133,0.287,0.234,0.399
		c0.101,0.113,0.225,0.201,0.373,0.268c0.146,0.065,0.313,0.098,0.501,0.098c0.187,0,0.354-0.032,0.5-0.098
		c0.147-0.066,0.271-0.154,0.373-0.268c0.103-0.112,0.18-0.247,0.234-0.399c0.055-0.153,0.081-0.317,0.081-0.491
		c0-0.179-0.026-0.345-0.081-0.501C18.463,23.781,18.386,23.646,18.284,23.531z M18.032,24.733c-0.023,0.097-0.063,0.183-0.114,0.26
		c-0.052,0.077-0.12,0.138-0.204,0.185c-0.083,0.046-0.185,0.068-0.304,0.068c-0.12,0-0.221-0.022-0.305-0.068
		c-0.084-0.047-0.151-0.107-0.204-0.185c-0.051-0.077-0.088-0.163-0.112-0.26c-0.024-0.095-0.036-0.194-0.036-0.296
		c0-0.106,0.012-0.209,0.036-0.308s0.062-0.188,0.112-0.267c0.053-0.077,0.12-0.14,0.204-0.186c0.083-0.047,0.185-0.069,0.305-0.069
		c0.119,0,0.221,0.022,0.304,0.069c0.084,0.046,0.151,0.108,0.204,0.186c0.051,0.078,0.09,0.168,0.114,0.267
		c0.024,0.099,0.035,0.201,0.035,0.308C18.067,24.539,18.056,24.639,18.032,24.733z"/>
	<path d="M20.696,23.459c-0.066-0.072-0.152-0.13-0.259-0.174c-0.106-0.044-0.235-0.066-0.386-0.066h-1.09v2.417h0.531v-0.867h0.559
		c0.151,0,0.28-0.021,0.386-0.065c0.106-0.045,0.192-0.102,0.259-0.175c0.066-0.072,0.115-0.154,0.145-0.247
		c0.031-0.093,0.046-0.188,0.046-0.287c0-0.097-0.015-0.193-0.046-0.285C20.811,23.613,20.762,23.531,20.696,23.459z M20.333,24.182
		c-0.026,0.047-0.06,0.082-0.103,0.109c-0.044,0.025-0.094,0.043-0.15,0.053c-0.057,0.008-0.115,0.013-0.175,0.013h-0.414v-0.726
		h0.414c0.06,0,0.119,0.006,0.175,0.016c0.056,0.008,0.106,0.024,0.15,0.053c0.042,0.024,0.076,0.063,0.103,0.109
		c0.026,0.048,0.039,0.109,0.039,0.186C20.372,24.071,20.359,24.134,20.333,24.182z"/>
	<path d="M31.855,13.365l-1.688-2.922l-0.29-1.871l-0.009-0.058l-1.646-1.44l-1.899-3.29l-3.186-1.159l-1.383-1.21L21.71,1.376
		l-2.124-0.044L15.928,0l-3.267,1.189l-1.79-0.037L9.308,2.409L5.531,3.784L3.737,6.892L2.47,7.911L2.424,7.949L2.058,9.801
		L0,13.365l0.638,3.617l-0.305,1.545l-0.011,0.058l0.881,1.601l0.719,4.076l2.831,2.374L5.52,28.03l0.027,0.053l1.725,0.667
		l3.125,2.623h3.641l1.565,0.605L15.655,32l1.84-0.627h3.964l2.708-2.273l1.751-0.597l1.073-1.772l2.943-2.469l0.595-3.375
		l0.974-1.608l0.03-0.05l-0.333-2.146L31.855,13.365z M2.716,8.124l8.265-6.649l10.607,0.219l7.984,6.985l0.239,1.538H2.302l0,0.002
		L2.716,8.124z M26.215,16.64c0.118,0.138,0.285,0.208,0.505,0.208c0.158,0,0.294-0.048,0.407-0.143
		c0.113-0.093,0.183-0.192,0.209-0.298h0.686c-0.11,0.402-0.277,0.695-0.505,0.872c-0.228,0.181-0.502,0.271-0.825,0.271
		c-0.224,0-0.425-0.043-0.604-0.133c-0.18-0.087-0.333-0.21-0.457-0.367c-0.125-0.157-0.221-0.345-0.289-0.565
		c-0.067-0.217-0.101-0.459-0.101-0.722c0-0.253,0.034-0.49,0.104-0.708c0.07-0.22,0.169-0.409,0.296-0.569
		c0.128-0.16,0.281-0.285,0.46-0.378c0.177-0.092,0.374-0.137,0.59-0.137c0.242,0,0.452,0.055,0.632,0.167s0.328,0.263,0.442,0.45
		s0.199,0.402,0.25,0.645c0.051,0.24,0.07,0.492,0.055,0.755h-2.05C26.034,16.285,26.098,16.502,26.215,16.64z M24.764,12.768v4.689
		h-0.78v-4.689H24.764z M21.781,17.247l-1-3.185h0.835l0.642,2.325h0.011l0.622-2.325h0.807l-1.186,3.822
		c-0.085,0.272-0.203,0.467-0.353,0.587s-0.358,0.181-0.626,0.181c-0.082,0-0.16-0.003-0.239-0.008
		c-0.079-0.008-0.159-0.015-0.24-0.025v-0.767c0.073,0.007,0.148,0.017,0.226,0.024c0.076,0.01,0.154,0.013,0.23,0.008
		c0.066-0.008,0.122-0.035,0.168-0.075c0.045-0.042,0.079-0.093,0.102-0.155c0.021-0.06,0.032-0.127,0.032-0.197
		C21.813,17.382,21.802,17.313,21.781,17.247z M20.231,16.683c0.043,0.052,0.131,0.08,0.264,0.08c0.087,0,0.168-0.011,0.241-0.028
		v0.73c-0.066,0.013-0.139,0.022-0.22,0.025c-0.08,0.005-0.159,0.007-0.236,0.007c-0.121,0-0.235-0.01-0.343-0.03
		c-0.108-0.02-0.203-0.057-0.285-0.117c-0.083-0.06-0.147-0.143-0.195-0.247c-0.048-0.105-0.071-0.243-0.071-0.413v-2.004h-0.474
		v-0.623h0.474v-1.018h0.78v1.018h0.571v0.623h-0.571v1.682C20.165,16.525,20.186,16.63,20.231,16.683z M17.879,16.313
		c-0.04-0.05-0.099-0.095-0.174-0.135c-0.075-0.04-0.167-0.075-0.277-0.107c-0.11-0.035-0.234-0.068-0.374-0.103
		c-0.114-0.03-0.224-0.067-0.333-0.11c-0.107-0.04-0.204-0.095-0.287-0.162c-0.085-0.067-0.153-0.155-0.204-0.258
		s-0.077-0.228-0.077-0.377c0-0.216,0.036-0.393,0.107-0.535s0.166-0.253,0.282-0.335c0.118-0.08,0.25-0.138,0.396-0.17
		c0.146-0.032,0.296-0.05,0.451-0.05c0.154,0,0.302,0.018,0.447,0.052c0.145,0.035,0.274,0.096,0.387,0.178
		c0.114,0.083,0.208,0.195,0.283,0.333c0.075,0.137,0.12,0.312,0.135,0.521h-0.741c-0.012-0.18-0.069-0.302-0.171-0.364
		c-0.103-0.065-0.224-0.095-0.362-0.095c-0.044,0-0.091,0.002-0.143,0.01c-0.051,0.005-0.099,0.02-0.14,0.042
		c-0.042,0.021-0.079,0.053-0.107,0.095c-0.03,0.041-0.044,0.098-0.044,0.168c0,0.082,0.025,0.15,0.077,0.202
		c0.051,0.053,0.119,0.096,0.201,0.128c0.083,0.035,0.176,0.063,0.282,0.09c0.106,0.025,0.215,0.055,0.325,0.085
		c0.112,0.03,0.224,0.067,0.333,0.112c0.107,0.043,0.204,0.101,0.287,0.173c0.085,0.072,0.152,0.162,0.204,0.27
		s0.078,0.24,0.078,0.397c0,0.223-0.038,0.41-0.112,0.563c-0.076,0.15-0.174,0.272-0.295,0.365c-0.12,0.09-0.259,0.157-0.415,0.195
		c-0.155,0.039-0.313,0.06-0.475,0.06c-0.165,0-0.326-0.021-0.483-0.06c-0.158-0.038-0.297-0.105-0.42-0.2
		c-0.124-0.093-0.224-0.218-0.303-0.37s-0.123-0.343-0.128-0.565h0.741c0,0.101,0.018,0.188,0.053,0.261
		c0.035,0.072,0.08,0.13,0.135,0.177c0.055,0.045,0.118,0.08,0.189,0.101c0.071,0.022,0.146,0.032,0.223,0.032
		c0.055,0,0.113-0.008,0.173-0.022s0.115-0.04,0.165-0.072c0.049-0.033,0.09-0.075,0.124-0.13c0.033-0.056,0.049-0.125,0.049-0.208
		C17.938,16.422,17.918,16.362,17.879,16.313z M13.312,14.692c0.036-0.104,0.086-0.202,0.148-0.292
		c0.062-0.09,0.134-0.165,0.214-0.23c0.08-0.063,0.167-0.112,0.261-0.147c0.094-0.034,0.188-0.052,0.282-0.052
		c0.059,0,0.116,0.01,0.171,0.032v0.867c-0.038-0.008-0.081-0.018-0.132-0.022c-0.051-0.008-0.102-0.01-0.149-0.01
		c-0.143,0-0.264,0.027-0.362,0.085s-0.179,0.135-0.239,0.232c-0.06,0.1-0.104,0.215-0.129,0.35
		c-0.026,0.133-0.039,0.275-0.039,0.423v1.529h-0.781v-3.395h0.743v0.63H13.312z M11.164,13.538v-0.771h0.78v0.771H11.164z
		 M11.943,14.063v3.395h-0.78v-3.395H11.943z M9.715,14.815c-0.027-0.061-0.063-0.105-0.11-0.138
		c-0.045-0.035-0.099-0.055-0.159-0.067c-0.062-0.01-0.126-0.015-0.195-0.015c-0.15,0-0.27,0.037-0.36,0.117
		c-0.09,0.077-0.142,0.21-0.157,0.395h-0.78c0.011-0.22,0.056-0.402,0.137-0.545c0.08-0.145,0.184-0.262,0.308-0.35
		c0.125-0.088,0.264-0.15,0.417-0.188c0.154-0.035,0.311-0.055,0.474-0.055c0.143,0,0.288,0.012,0.434,0.034
		c0.146,0.025,0.28,0.073,0.401,0.143c0.121,0.07,0.22,0.168,0.296,0.295c0.078,0.128,0.116,0.293,0.116,0.493v1.767
		c0,0.152,0.006,0.3,0.021,0.44c0.015,0.14,0.04,0.244,0.078,0.314H9.845c-0.015-0.053-0.027-0.104-0.036-0.16
		C9.8,17.242,9.793,17.188,9.79,17.13c-0.125,0.152-0.271,0.263-0.44,0.325c-0.169,0.063-0.341,0.095-0.516,0.095
		c-0.136,0-0.263-0.021-0.38-0.063c-0.118-0.043-0.22-0.105-0.308-0.188c-0.087-0.083-0.156-0.188-0.206-0.315
		c-0.05-0.127-0.074-0.277-0.074-0.452c0-0.192,0.027-0.353,0.083-0.478c0.055-0.125,0.127-0.223,0.22-0.297
		c0.091-0.075,0.195-0.13,0.31-0.168c0.115-0.037,0.233-0.067,0.355-0.09c0.12-0.02,0.236-0.04,0.346-0.053
		c0.11-0.012,0.208-0.032,0.293-0.058c0.086-0.027,0.155-0.064,0.207-0.114c0.051-0.053,0.076-0.125,0.076-0.221
		C9.756,14.953,9.742,14.873,9.715,14.815z M4.861,15.436v2.021H3.997v-4.689h0.864v1.8h1.587v-1.8h0.864v4.689H6.448v-2.021H4.861z
		 M25.706,28.238L15.663,31.66l-9.891-3.834L1.61,20.261h28.923l0.665-1.099L25.706,28.238z"/>
	<polygon points="19.886,3.694 20.067,3.277 15.82,5.238 16.35,5.585 	"/>
	<path d="M10.911,8.227c0.23,0.239,0.592,0.317,0.938,0.227c0.151-0.032,0.305-0.092,0.416-0.198
		c0.183-0.138,0.317-0.321,0.389-0.527c0.042-0.133,0.055-0.264,0.038-0.392L12.68,7.3l2.685-1.104l-0.459-0.409l-2.381,1.145
		l-0.007-0.02c-0.013-0.017-0.026-0.033-0.04-0.048c-0.301-0.312-0.83-0.355-1.251-0.101c-0.236,0.143-0.409,0.353-0.491,0.598
		C10.65,7.611,10.672,7.867,10.8,8.08C10.832,8.131,10.87,8.18,10.911,8.227z M10.999,7.449c0.063-0.181,0.192-0.34,0.37-0.448
		c0.313-0.186,0.695-0.165,0.906,0.056c0.029,0.029,0.054,0.063,0.074,0.096c0.086,0.142,0.1,0.315,0.042,0.486
		c-0.063,0.183-0.193,0.342-0.372,0.447c-0.314,0.188-0.694,0.165-0.906-0.054c-0.029-0.028-0.051-0.062-0.074-0.094
		C10.956,7.796,10.941,7.623,10.999,7.449z"/>
	<path d="M15.915,6.439l0.454-0.216l1.79,0.688c-0.05,0.106-0.074,0.229-0.078,0.36c-0.004,0.257,0.094,0.515,0.266,0.727
		c0.318,0.377,0.828,0.511,1.212,0.317c0.056-0.026,0.107-0.062,0.155-0.102c0.105-0.086,0.185-0.198,0.235-0.326
		c0.241-0.277,0.693-0.158,0.796-0.17c0.103-0.01,0.192-0.218,0.136-0.251c-0.052-0.031-0.761,0.006-0.938-0.296
		c-0.044-0.12-0.11-0.235-0.196-0.336c-0.316-0.381-0.827-0.515-1.213-0.319c-0.009,0.004-0.02,0.01-0.03,0.018l-2.286-0.86
		l-3.89-2.449l0.106,0.38L15.915,6.439z M18.557,6.83c0.031-0.025,0.066-0.047,0.102-0.066c0.273-0.137,0.644-0.032,0.874,0.246
		c0.134,0.162,0.206,0.354,0.202,0.545c-0.003,0.184-0.072,0.344-0.198,0.449c-0.03,0.024-0.063,0.047-0.1,0.064
		c-0.271,0.138-0.641,0.033-0.874-0.25c-0.134-0.157-0.207-0.351-0.203-0.543C18.361,7.093,18.432,6.936,18.557,6.83z M15.894,5.834
		c0.074-0.035,0.161-0.006,0.196,0.065c0.038,0.069,0.007,0.157-0.064,0.196c-0.074,0.033-0.163,0.006-0.196-0.065
		C15.798,5.959,15.823,5.871,15.894,5.834z"/>
	<path d="M9.474,15.928c-0.058,0.012-0.117,0.024-0.181,0.032c-0.065,0.01-0.126,0.021-0.185,0.032
		c-0.061,0.016-0.12,0.033-0.175,0.053c-0.055,0.022-0.104,0.053-0.146,0.09C8.744,16.173,8.71,16.22,8.685,16.28
		c-0.026,0.058-0.039,0.13-0.039,0.212c0,0.088,0.012,0.16,0.039,0.213c0.025,0.055,0.06,0.1,0.104,0.132
		c0.045,0.033,0.096,0.056,0.155,0.07c0.058,0.013,0.119,0.018,0.181,0.018c0.154,0,0.272-0.03,0.356-0.09
		c0.085-0.063,0.147-0.135,0.188-0.22c0.04-0.088,0.065-0.173,0.073-0.261c0.01-0.087,0.014-0.157,0.014-0.21v-0.35
		c-0.033,0.037-0.074,0.063-0.124,0.082C9.583,15.897,9.53,15.915,9.474,15.928z"/>
	<path d="M26.671,14.673c-0.125,0-0.229,0.024-0.311,0.075c-0.083,0.052-0.147,0.114-0.198,0.188
		c-0.05,0.074-0.083,0.154-0.104,0.237c-0.02,0.082-0.031,0.157-0.035,0.222h1.27c-0.037-0.234-0.103-0.414-0.196-0.537
		C27.003,14.735,26.861,14.673,26.671,14.673z"/>
	<rect x="5.141" y="24.074" width="5.476" height="0.292"/>
	<rect x="21.531" y="24.074" width="5.475" height="0.292"/>
</g>
<g>
</g>
<g>
</g>
<g>
</g>
<g>
</g>
<g>
</g>
<g>
</g>
<g>
</g>
<g>
</g>
<g>
</g>
<g>
</g>
<g>
</g>
<g>
</g>
<g>
</g>
<g>
</g>
<g>
</g>
</svg>
