<?xml version="1.0" encoding="iso-8859-1"?>
<!-- Generator: Adobe Illustrator 16.0.0, SVG Export Plug-In . SVG Version: 6.00 Build 0)  -->
<!DOCTYPE svg PUBLIC "-//W3C//DTD SVG 1.1//EN" "http://www.w3.org/Graphics/SVG/1.1/DTD/svg11.dtd">
<svg version="1.1" id="Layer_1" xmlns="http://www.w3.org/2000/svg" xmlns:xlink="http://www.w3.org/1999/xlink" x="0px" y="0px"
	 width="28.746px" height="30.681px" viewBox="0 0 28.746 30.681" style="enable-background:new 0 0 28.746 30.681;"
	 xml:space="preserve">
<g>
	<path d="M20.485,28.98c0.086-0.315,0.107-0.649,0.041-0.982c-0.18-0.897-0.9-1.56-1.753-1.655
		c-0.006-0.002-0.007-0.007-0.015-0.008c-0.945-0.137-3.574-1.76-4.007-2.18c-0.026-0.026,4.949-6.539,4.949-6.539l-5.985,5.148
		l-6.723-4.815c0,0,5.959,6.084,6.063,6.391c-0.533,1.289-2.442,2-3.755,2.068c-0.005,0.001-0.004,0.007-0.008,0.009
		c-1.002,0.048-1.807,0.98-1.807,2.128c0,1.178,0.846,2.136,1.885,2.136c0.639,0,1.235-0.442,1.771-0.892
		c0.136-0.549,0.113-0.791,0.113-1.245c0-0.297-0.054-0.579-0.151-0.836c-0.159-0.637,2.669-2.713,2.958-2.904
		c1.448,0.889,3.257,1.405,2.808,2.574c0.002,0,0.007,0,0.009,0.001c-0.219,0.422-0.296,0.907-0.199,1.388
		c0.194,0.97,1.018,1.674,1.959,1.674c0.124,0,0.248-0.012,0.369-0.037c0.438-0.087,0.816-0.33,1.099-0.679
		c0.19,0.043,0.452,0.132,0.636,0.316c0.66,0.709,1.289,0.193,1.434,0C22.313,29.858,20.806,29.702,20.485,28.98z M9.369,30.036
		c-0.684,0-1.24-0.669-1.24-1.492c0-0.823,0.556-1.492,1.24-1.492c0.226,0,0.436,0.079,0.619,0.207
		c0.038,0.029,0.075,0.059,0.113,0.087c0.307,0.272,0.509,0.706,0.509,1.199C10.61,29.367,10.053,30.036,9.369,30.036z
		 M13.723,24.069c-0.226,0-0.409-0.183-0.409-0.409s0.184-0.409,0.409-0.409s0.408,0.183,0.408,0.409S13.948,24.069,13.723,24.069z
		 M19.708,29.19c-0.192,0.307-0.486,0.514-0.827,0.582c-0.08,0.016-0.161,0.024-0.242,0.024c-0.635,0-1.193-0.486-1.327-1.156
		c-0.075-0.375-0.009-0.753,0.187-1.066c0.192-0.307,0.485-0.514,0.827-0.582c0.08-0.016,0.162-0.024,0.243-0.024
		c0.635,0,1.193,0.486,1.327,1.156C19.969,28.499,19.902,28.877,19.708,29.19z"/>
	<path d="M21.455,11.3c-0.604-3.066-5.861-4.881-7.082-2.583c-1.22-2.299-6.477-0.484-7.082,2.583
		C6.501,14.504,2.322,15.387,0,13.715c0,3.622,3.901,3.669,6.315,3.901c5.718-0.25,7.525-2.887,8.057-4.091
		c0.532,1.205,2.339,3.841,8.057,4.091c2.415-0.232,6.316-0.279,6.316-3.901C26.423,15.387,22.244,14.504,21.455,11.3z"/>
	<path d="M14.118,6.997v-4.52h1.021v4.52h7.728L23.929,0h-8.79v1.548h-1.021V0H5.185l1.219,6.997H14.118z M16.625,1.486h5.576
		l-0.61,4.025h-4.965V1.486z M12.632,1.486v4.025H7.653L6.952,1.486H12.632z"/>
</g>
<g>
</g>
<g>
</g>
<g>
</g>
<g>
</g>
<g>
</g>
<g>
</g>
<g>
</g>
<g>
</g>
<g>
</g>
<g>
</g>
<g>
</g>
<g>
</g>
<g>
</g>
<g>
</g>
<g>
</g>
</svg>
