<?xml version="1.0" encoding="iso-8859-1"?>
<!-- Generator: Adobe Illustrator 16.0.0, SVG Export Plug-In . SVG Version: 6.00 Build 0)  -->
<!DOCTYPE svg PUBLIC "-//W3C//DTD SVG 1.1//EN" "http://www.w3.org/Graphics/SVG/1.1/DTD/svg11.dtd">
<svg version="1.1" id="Layer_1" xmlns="http://www.w3.org/2000/svg" xmlns:xlink="http://www.w3.org/1999/xlink" x="0px" y="0px"
	 width="25.685px" height="31.033px" viewBox="0 0 25.685 31.033" style="enable-background:new 0 0 25.685 31.033;"
	 xml:space="preserve">
<path d="M20.337,11.756c-2.142,2.396-1.84,3.437-6.148,4.502s-8.761,4.381-9.391,5.01c-0.629,0.629-0.181,5.918-0.181,5.918
	s-1.004-1.223-1.162-1.961c0.399,2.916,0.472,4.587,1.307,5.809c-2.675-1.368-3.908-8.362-4.538-11.763
	c-0.629-3.399,0.218-5.772,0.653-10.165c0.436-4.393,5.41-8.313,7.661-8.459c0.982-0.063,2.911-0.8,4.719-0.617
	c2.335,0.236,4.502,1.416,4.502,1.416s5.954,0.327,7.37,10.492c2.287,14.993-3.231,16.809-3.231,16.809s1.525-2.105,1.379-2.868
	c-1.144,0.89-1.743,0.399-1.743,0.399S25.275,20.614,20.337,11.756z"/>
<g>
</g>
<g>
</g>
<g>
</g>
<g>
</g>
<g>
</g>
<g>
</g>
<g>
</g>
<g>
</g>
<g>
</g>
<g>
</g>
<g>
</g>
<g>
</g>
<g>
</g>
<g>
</g>
<g>
</g>
</svg>
