<?xml version="1.0" encoding="iso-8859-1"?>
<!-- Generator: Adobe Illustrator 16.0.0, SVG Export Plug-In . SVG Version: 6.00 Build 0)  -->
<!DOCTYPE svg PUBLIC "-//W3C//DTD SVG 1.1//EN" "http://www.w3.org/Graphics/SVG/1.1/DTD/svg11.dtd">
<svg version="1.1" id="Layer_1" xmlns="http://www.w3.org/2000/svg" xmlns:xlink="http://www.w3.org/1999/xlink" x="0px" y="0px"
	 width="30.826px" height="32px" viewBox="0 0 30.826 32" style="enable-background:new 0 0 30.826 32;" xml:space="preserve">
<g>
	<circle cx="15.566" cy="6.232" r="0.113"/>
	<path d="M17.663,6.854c-0.027,0.014-0.055,0.031-0.079,0.051c-0.098,0.082-0.153,0.205-0.155,0.347
		C17.427,7.4,17.483,7.55,17.586,7.674c0.181,0.219,0.468,0.3,0.679,0.193c0.028-0.014,0.053-0.031,0.078-0.051
		c0.098-0.082,0.153-0.206,0.155-0.348C18.5,7.32,18.444,7.17,18.342,7.045C18.16,6.827,17.875,6.746,17.663,6.854z"/>
	<path d="M11.798,7.839c0.165,0.171,0.461,0.188,0.704,0.042c0.139-0.083,0.242-0.206,0.289-0.347
		c0.045-0.135,0.034-0.27-0.032-0.38c-0.015-0.025-0.035-0.051-0.056-0.073c-0.165-0.171-0.461-0.188-0.705-0.043
		c-0.139,0.083-0.241,0.207-0.289,0.349c-0.044,0.134-0.033,0.269,0.032,0.378C11.757,7.791,11.776,7.816,11.798,7.839z"/>
	<path d="M15.467,0.01L15.413,0L0,2.769v26.463l15.359,2.759L15.413,32l15.413-2.769V2.769L15.467,0.01z M30.218,28.723
		l-14.805,2.66l-14.805-2.66V3.277l14.805-2.66l14.805,2.66V28.723z"/>
	<path d="M25.596,13.537c-0.084-0.092-0.213-0.139-0.385-0.139c-0.113,0-0.207,0.02-0.281,0.057
		c-0.075,0.039-0.134,0.086-0.179,0.142c-0.044,0.058-0.076,0.116-0.094,0.18c-0.018,0.063-0.029,0.119-0.032,0.169h1.148
		C25.739,13.766,25.68,13.63,25.596,13.537z"/>
	<path d="M9.036,15.036c0.04,0.024,0.086,0.042,0.139,0.052c0.053,0.011,0.108,0.016,0.165,0.016c0.139,0,0.247-0.023,0.323-0.07
		c0.076-0.046,0.133-0.102,0.169-0.166c0.036-0.064,0.059-0.13,0.067-0.196c0.008-0.065,0.012-0.119,0.012-0.158v-0.264
		c-0.03,0.026-0.067,0.047-0.112,0.062c-0.044,0.016-0.093,0.027-0.144,0.037s-0.106,0.019-0.164,0.025
		c-0.058,0.006-0.113,0.015-0.167,0.024c-0.056,0.011-0.109,0.023-0.159,0.04c-0.049,0.017-0.093,0.039-0.131,0.066
		c-0.039,0.028-0.069,0.065-0.092,0.109c-0.023,0.045-0.035,0.1-0.035,0.162c0,0.066,0.012,0.12,0.035,0.161
		C8.964,14.979,8.996,15.012,9.036,15.036z"/>
	<path d="M2.077,4.336v23.252l13.336,2.432l13.336-2.432V4.336L15.413,1.904L2.077,4.336z M11.505,7.317
		c0.064-0.188,0.2-0.354,0.382-0.464c0.329-0.197,0.738-0.164,0.971,0.078c0.012,0.012,0.021,0.024,0.032,0.037l0.005,0.014
		l1.85-0.89l0.358,0.319L13.016,7.27l0.011,0.029c0.011,0.098,0.003,0.2-0.032,0.304c-0.054,0.16-0.16,0.303-0.301,0.409
		c-0.087,0.084-0.207,0.129-0.323,0.155c-0.27,0.069-0.551,0.008-0.729-0.179c-0.033-0.035-0.062-0.071-0.087-0.113
		C11.458,7.711,11.44,7.512,11.505,7.317z M17.258,14.639c-0.037-0.039-0.089-0.072-0.157-0.102
		c-0.068-0.03-0.152-0.058-0.251-0.082c-0.099-0.025-0.212-0.051-0.338-0.077c-0.103-0.023-0.203-0.051-0.301-0.082
		c-0.098-0.032-0.185-0.073-0.261-0.124c-0.076-0.052-0.137-0.117-0.184-0.194c-0.047-0.078-0.07-0.173-0.07-0.286
		c0-0.162,0.033-0.298,0.097-0.405s0.15-0.191,0.256-0.253s0.225-0.104,0.358-0.13c0.133-0.024,0.269-0.036,0.407-0.036
		c0.14,0,0.274,0.013,0.406,0.039c0.13,0.027,0.248,0.07,0.35,0.134s0.188,0.147,0.256,0.252c0.068,0.104,0.109,0.236,0.123,0.396
		h-0.671c-0.01-0.137-0.062-0.229-0.154-0.277c-0.093-0.047-0.203-0.071-0.329-0.071c-0.04,0-0.083,0.003-0.129,0.008
		s-0.088,0.015-0.126,0.032c-0.039,0.016-0.07,0.04-0.097,0.072c-0.026,0.03-0.04,0.073-0.04,0.126c0,0.063,0.023,0.114,0.07,0.154
		c0.046,0.04,0.107,0.072,0.181,0.097c0.075,0.025,0.16,0.048,0.256,0.067c0.096,0.02,0.194,0.042,0.294,0.064
		c0.102,0.023,0.202,0.052,0.3,0.085c0.098,0.033,0.185,0.077,0.261,0.131c0.076,0.055,0.137,0.123,0.184,0.205
		c0.046,0.08,0.069,0.181,0.069,0.3c0,0.169-0.035,0.312-0.102,0.425c-0.068,0.114-0.157,0.207-0.266,0.275
		c-0.109,0.07-0.234,0.12-0.375,0.15c-0.141,0.029-0.285,0.044-0.43,0.044c-0.149,0-0.295-0.015-0.438-0.044
		c-0.142-0.03-0.27-0.081-0.38-0.152s-0.202-0.164-0.273-0.28s-0.11-0.259-0.117-0.428h0.671c0,0.076,0.016,0.142,0.048,0.196
		c0.031,0.055,0.072,0.1,0.122,0.135c0.05,0.034,0.107,0.061,0.171,0.076c0.065,0.018,0.132,0.025,0.201,0.025
		c0.05,0,0.102-0.006,0.157-0.018s0.104-0.029,0.149-0.055c0.045-0.025,0.082-0.059,0.112-0.1c0.03-0.041,0.045-0.094,0.045-0.156
		C17.312,14.723,17.294,14.677,17.258,14.639z M15.707,17.424c0.042,0.012,0.07,0.028,0.086,0.05s0.024,0.043,0.024,0.067
		c0,0.016-0.002,0.031-0.007,0.049s-0.011,0.033-0.02,0.047c-0.009,0.016-0.021,0.027-0.036,0.037
		c-0.016,0.01-0.032,0.014-0.051,0.014c-0.001,0-0.004,0-0.008,0c-0.003,0-0.008,0-0.012-0.001
		c-0.054-0.004-0.113-0.009-0.176-0.014s-0.128-0.01-0.196-0.016c-0.068-0.005-0.139-0.008-0.212-0.011
		c-0.073-0.002-0.147-0.003-0.222-0.003c-0.022,0-0.049,0.001-0.08,0.003s-0.061,0.004-0.09,0.008
		c-0.033,0.002-0.067,0.006-0.103,0.009c0,0.008,0,0.017-0.002,0.025c-0.001,0.009-0.003,0.024-0.006,0.045
		s-0.007,0.048-0.014,0.081c-0.007,0.033-0.012,0.074-0.017,0.122c-0.005,0.048-0.013,0.107-0.022,0.179
		c-0.01,0.073-0.019,0.163-0.027,0.272h0.678c0.02,0,0.035,0.004,0.046,0.011c0.01,0.006,0.017,0.016,0.021,0.026
		c0.015-0.009,0.023-0.022,0.039-0.029c0.073-0.033,0.154-0.05,0.245-0.05c0.078,0,0.151,0.012,0.219,0.036s0.131,0.057,0.191,0.097
		c0.06,0.041,0.115,0.092,0.166,0.153c0.019,0.022,0.036,0.044,0.054,0.065c0.002-0.007,0.002-0.013,0.004-0.02
		c0.015-0.063,0.027-0.115,0.038-0.157s0.021-0.076,0.032-0.103c0.006-0.018,0.013-0.033,0.02-0.043
		c0.006-0.011,0.014-0.02,0.022-0.025c0.009-0.006,0.02-0.01,0.032-0.012c0.012-0.002,0.028-0.004,0.047-0.004
		c0.021,0,0.038,0.002,0.049,0.004s0.021,0.007,0.027,0.014c0.005,0.009,0.009,0.02,0.01,0.035c0.001,0.014,0.002,0.034,0.002,0.059
		c0,0.031-0.002,0.074-0.006,0.13c-0.004,0.056-0.005,0.104-0.003,0.146h0.014c0.016-0.033,0.037-0.075,0.061-0.129
		c0.024-0.053,0.05-0.098,0.077-0.132c0.027-0.035,0.058-0.065,0.092-0.089c0.035-0.024,0.074-0.037,0.12-0.037
		c0.015,0,0.03,0.003,0.045,0.009c0.015,0.005,0.028,0.013,0.039,0.022c0.011,0.01,0.02,0.021,0.027,0.036
		c0.006,0.015,0.009,0.03,0.009,0.049c0,0.014-0.001,0.033-0.006,0.058c-0.004,0.025-0.011,0.058-0.02,0.099
		c-0.009,0.039-0.016,0.072-0.02,0.099c-0.004,0.025-0.007,0.047-0.007,0.063c0,0.03,0.003,0.054,0.009,0.074
		c0.006,0.02,0.013,0.035,0.022,0.047c0.009,0.012,0.02,0.021,0.032,0.025c0.012,0.005,0.024,0.007,0.037,0.007
		c0.037,0,0.075-0.008,0.114-0.023c0.039-0.017,0.075-0.035,0.108-0.056c0.039-0.024,0.076-0.051,0.113-0.081l-0.019,0.287
		c-0.021,0.014-0.045,0.029-0.072,0.047c-0.027,0.017-0.056,0.033-0.086,0.049c-0.031,0.015-0.063,0.026-0.096,0.037
		c-0.033,0.011-0.067,0.016-0.101,0.016c-0.062,0-0.111-0.013-0.148-0.038c-0.038-0.024-0.068-0.057-0.09-0.097
		c-0.022-0.041-0.039-0.087-0.049-0.137c-0.01-0.051-0.019-0.102-0.025-0.153h-0.02l-0.22,0.612
		c-0.012,0.032-0.022,0.059-0.033,0.08c-0.01,0.02-0.021,0.037-0.031,0.05c-0.011,0.014-0.022,0.022-0.035,0.028
		c-0.012,0.005-0.025,0.008-0.04,0.008c-0.033,0-0.061-0.008-0.081-0.021c-0.021-0.015-0.036-0.034-0.047-0.058
		c-0.011-0.024-0.019-0.052-0.022-0.083c-0.003-0.029-0.005-0.062-0.005-0.095c0-0.036,0.002-0.077,0.006-0.126
		c0.004-0.048,0.01-0.098,0.017-0.151c0.007-0.046,0.014-0.095,0.021-0.142c-0.034-0.032-0.07-0.067-0.108-0.105
		c-0.042-0.041-0.084-0.076-0.125-0.105s-0.076-0.053-0.105-0.073l-0.01,0.015c0.024,0.047,0.042,0.097,0.054,0.149
		s0.018,0.112,0.018,0.179c0,0.048-0.005,0.097-0.016,0.146c-0.011,0.049-0.026,0.096-0.046,0.142
		c-0.021,0.046-0.044,0.089-0.074,0.129s-0.063,0.075-0.099,0.104c-0.038,0.029-0.078,0.053-0.123,0.07
		c-0.044,0.017-0.091,0.025-0.141,0.025c-0.072,0-0.133-0.017-0.185-0.047c-0.051-0.032-0.093-0.073-0.126-0.124
		c-0.033-0.051-0.056-0.107-0.071-0.172c-0.015-0.063-0.023-0.128-0.023-0.193c0-0.108,0.014-0.201,0.041-0.279
		c0.016-0.048,0.045-0.083,0.069-0.122c-0.017,0-0.029,0.001-0.048,0.001c-0.046,0.003-0.096,0.004-0.151,0.006
		c-0.055,0.001-0.108,0.004-0.159,0.005c-0.051,0.002-0.097,0.004-0.138,0.005s-0.07,0.002-0.088,0.002
		c-0.019,0.098-0.036,0.192-0.054,0.285c-0.017,0.092-0.04,0.178-0.067,0.258c-0.029,0.079-0.062,0.152-0.101,0.218
		c-0.039,0.064-0.084,0.121-0.137,0.168s-0.114,0.083-0.185,0.108c-0.069,0.026-0.149,0.039-0.239,0.039
		c-0.018,0-0.041-0.001-0.067-0.004c-0.026-0.003-0.054-0.007-0.082-0.013c-0.029-0.006-0.058-0.014-0.085-0.022
		c-0.028-0.01-0.053-0.021-0.075-0.034c-0.022-0.015-0.041-0.031-0.054-0.049c-0.014-0.019-0.021-0.039-0.021-0.063
		c0-0.013,0.002-0.028,0.008-0.049c0.005-0.02,0.014-0.039,0.024-0.058c0.011-0.02,0.025-0.036,0.042-0.05s0.037-0.021,0.061-0.021
		c0.027,0,0.056,0.005,0.086,0.014c0.029,0.009,0.061,0.019,0.092,0.029c0.032,0.012,0.064,0.021,0.098,0.031
		c0.033,0.008,0.067,0.013,0.101,0.013c0.027,0,0.054-0.011,0.08-0.032c0.025-0.021,0.05-0.052,0.073-0.09
		c0.022-0.038,0.044-0.082,0.065-0.133c0.021-0.052,0.04-0.107,0.058-0.166c0.018-0.06,0.035-0.122,0.049-0.186
		c0.015-0.065,0.03-0.13,0.044-0.194h-0.153c-0.014,0-0.032-0.002-0.052-0.005c-0.021-0.003-0.041-0.008-0.06-0.016
		s-0.035-0.018-0.048-0.03c-0.014-0.012-0.021-0.027-0.021-0.046c0-0.014,0.004-0.025,0.012-0.037
		c0.007-0.012,0.02-0.021,0.037-0.025c0.046-0.009,0.086-0.018,0.121-0.024c0.034-0.007,0.065-0.013,0.092-0.018
		c0.027-0.005,0.051-0.01,0.071-0.014c0.021-0.003,0.04-0.007,0.057-0.009c0.02-0.097,0.036-0.178,0.047-0.242
		c0.011-0.065,0.021-0.124,0.03-0.176c0.008-0.053,0.016-0.103,0.023-0.148c0.008-0.047,0.016-0.096,0.026-0.148
		c-0.072,0.02-0.134,0.045-0.187,0.073c-0.053,0.028-0.097,0.06-0.131,0.092c-0.035,0.033-0.061,0.066-0.077,0.102
		c-0.016,0.036-0.024,0.07-0.024,0.104c0,0,0,0.007-0.001,0.017c-0.001,0.01-0.005,0.021-0.014,0.032s-0.021,0.021-0.04,0.03
		c-0.018,0.01-0.045,0.014-0.08,0.014c-0.047,0-0.083-0.002-0.11-0.008c-0.026-0.005-0.045-0.012-0.058-0.021
		c-0.012-0.01-0.02-0.021-0.023-0.032c-0.003-0.011-0.004-0.022-0.004-0.034c0-0.123,0.03-0.229,0.092-0.315
		c0.061-0.088,0.147-0.158,0.257-0.215c0.11-0.056,0.244-0.097,0.398-0.123c0.155-0.026,0.325-0.039,0.512-0.039
		c0.124,0,0.254,0.006,0.391,0.018S15.561,17.412,15.707,17.424z M13.126,13.413c0.033-0.08,0.078-0.153,0.134-0.221
		c0.056-0.068,0.121-0.126,0.194-0.175c0.073-0.048,0.151-0.084,0.236-0.111c0.084-0.026,0.17-0.039,0.256-0.039
		c0.053,0,0.104,0.008,0.154,0.024v0.656c-0.033-0.007-0.073-0.013-0.119-0.018c-0.047-0.005-0.091-0.008-0.134-0.008
		c-0.129,0-0.239,0.022-0.328,0.065c-0.09,0.042-0.162,0.102-0.216,0.176s-0.094,0.162-0.117,0.264
		c-0.023,0.101-0.035,0.208-0.035,0.32v1.158h-0.706v-2.569h0.671v0.477H13.126z M11.183,11.957h0.706v0.581h-0.706V11.957z
		 M11.183,12.937h0.706v2.569h-0.706V12.937z M8.275,14.444c0.049-0.094,0.116-0.169,0.199-0.226
		c0.083-0.057,0.176-0.099,0.281-0.127c0.104-0.028,0.21-0.051,0.32-0.067c0.109-0.017,0.214-0.03,0.313-0.039
		c0.1-0.011,0.188-0.025,0.266-0.045c0.078-0.021,0.14-0.049,0.186-0.087c0.046-0.038,0.07-0.094,0.07-0.166
		c0-0.077-0.012-0.138-0.037-0.182c-0.025-0.045-0.058-0.08-0.1-0.104c-0.042-0.025-0.09-0.042-0.144-0.05
		c-0.055-0.009-0.114-0.013-0.177-0.013c-0.136,0-0.244,0.03-0.325,0.089c-0.081,0.06-0.129,0.16-0.142,0.299H8.28
		c0.01-0.166,0.051-0.303,0.124-0.413c0.073-0.108,0.166-0.196,0.278-0.263s0.239-0.114,0.378-0.142
		c0.139-0.028,0.281-0.042,0.427-0.042c0.129,0,0.26,0.009,0.393,0.027c0.132,0.018,0.253,0.053,0.363,0.106
		c0.109,0.053,0.198,0.127,0.268,0.224c0.07,0.096,0.104,0.221,0.104,0.372v1.338c0,0.115,0.007,0.228,0.02,0.333
		c0.013,0.106,0.036,0.186,0.069,0.238H9.99c-0.013-0.039-0.024-0.08-0.032-0.121c-0.008-0.042-0.014-0.084-0.017-0.127
		c-0.113,0.116-0.245,0.197-0.398,0.246c-0.152,0.047-0.308,0.071-0.467,0.071c-0.123,0-0.237-0.016-0.343-0.047
		c-0.106-0.032-0.199-0.079-0.279-0.142s-0.142-0.143-0.186-0.238C8.223,15.053,8.2,14.938,8.2,14.806
		C8.2,14.659,8.225,14.539,8.275,14.444z M5.481,13.975v1.531h-0.78v-3.549h0.78v1.362h1.437v-1.362h0.781v3.549H6.917v-1.531H5.481
		z M21.861,20.859c-0.003,0.016-0.007,0.031-0.011,0.048c-0.018,0.057-0.037,0.12-0.057,0.188c-0.021,0.069-0.042,0.137-0.064,0.204
		c-0.021,0.067-0.043,0.132-0.063,0.193c-0.021,0.061-0.04,0.113-0.056,0.156c-0.02,0.057-0.048,0.1-0.086,0.127
		c-0.037,0.028-0.075,0.042-0.113,0.042s-0.071-0.015-0.1-0.044c-0.029-0.029-0.043-0.072-0.043-0.131
		c0-0.021,0.001-0.049,0.002-0.082c0.002-0.035,0.004-0.071,0.006-0.113c0.002-0.04,0.005-0.084,0.009-0.129
		c0.003-0.047,0.007-0.092,0.01-0.135c0.009-0.104,0.018-0.215,0.029-0.334c0-0.035,0.009-0.067,0.027-0.095
		c0.018-0.028,0.041-0.052,0.069-0.071s0.061-0.035,0.097-0.045c0.036-0.012,0.071-0.017,0.107-0.017
		c0.031,0,0.061,0.004,0.09,0.012c0.028,0.007,0.054,0.02,0.076,0.034c0.023,0.016,0.041,0.036,0.054,0.061
		c0.013,0.025,0.02,0.055,0.02,0.088C21.864,20.83,21.863,20.846,21.861,20.859z M24.013,13.688c0.063-0.166,0.152-0.31,0.269-0.431
		c0.116-0.121,0.254-0.217,0.415-0.286c0.161-0.069,0.339-0.104,0.535-0.104c0.219,0,0.409,0.042,0.571,0.126
		c0.163,0.085,0.296,0.198,0.401,0.34c0.104,0.144,0.179,0.306,0.226,0.488c0.046,0.182,0.063,0.373,0.049,0.571h-1.854
		c0.01,0.226,0.068,0.391,0.174,0.495c0.106,0.104,0.258,0.156,0.458,0.156c0.142,0,0.265-0.035,0.368-0.107
		c0.103-0.071,0.166-0.146,0.189-0.226h0.622c-0.1,0.305-0.252,0.525-0.457,0.661c-0.206,0.136-0.454,0.203-0.746,0.203
		c-0.202,0-0.384-0.032-0.547-0.099c-0.162-0.066-0.3-0.159-0.413-0.278c-0.112-0.12-0.2-0.262-0.261-0.429
		c-0.062-0.164-0.092-0.348-0.092-0.546C23.918,14.031,23.95,13.853,24.013,13.688z M22.78,11.957h0.706v3.549H22.78V11.957z
		 M22.685,22.852c0.024-0.031,0.054-0.07,0.087-0.115c0.033-0.043,0.073-0.098,0.121-0.162c0.047-0.064,0.109-0.145,0.185-0.24
		c0.016-0.022,0.033-0.043,0.052-0.063s0.04-0.038,0.063-0.055c0.023-0.017,0.048-0.029,0.077-0.04
		c0.028-0.01,0.059-0.015,0.094-0.015c0.057,0,0.101,0.006,0.132,0.019c0.031,0.013,0.053,0.028,0.067,0.046
		c0.014,0.019,0.022,0.037,0.025,0.057c0.002,0.021,0.004,0.037,0.004,0.052c0,0.029-0.012,0.061-0.034,0.096
		c-0.022,0.034-0.047,0.068-0.075,0.101s-0.053,0.062-0.078,0.089s-0.038,0.047-0.042,0.061c0,0.037,0.002,0.07,0.007,0.101
		c0.006,0.031,0.013,0.062,0.022,0.091c0.009,0.029,0.018,0.061,0.028,0.094c0.009,0.033,0.019,0.071,0.028,0.113
		c0.008,0.045,0.009,0.104,0.003,0.18c-0.007,0.075-0.01,0.15-0.01,0.229c0.042-0.029,0.088-0.055,0.138-0.079
		c0.049-0.023,0.1-0.047,0.154-0.073c0.053-0.025,0.108-0.053,0.164-0.083c0.057-0.031,0.114-0.067,0.171-0.11l0.001,0.402
		c-0.074,0.056-0.159,0.106-0.255,0.155c-0.097,0.048-0.199,0.091-0.306,0.127s-0.214,0.065-0.323,0.087
		c-0.109,0.021-0.211,0.031-0.309,0.031c-0.07,0-0.136-0.006-0.196-0.019s-0.114-0.032-0.16-0.059
		c-0.045-0.026-0.083-0.063-0.111-0.104c-0.028-0.043-0.046-0.096-0.052-0.157c-0.017,0.004-0.033,0.006-0.049,0.007
		c-0.016,0.002-0.031,0.002-0.047,0.002c-0.019,0-0.037,0-0.053-0.002c-0.017-0.001-0.031-0.006-0.043-0.013
		c-0.012-0.009-0.021-0.021-0.028-0.038s-0.011-0.043-0.011-0.074c0-0.029,0.007-0.057,0.021-0.08
		c0.014-0.025,0.031-0.047,0.05-0.066s0.038-0.035,0.057-0.05s0.033-0.026,0.042-0.034c0.066-0.059,0.121-0.105,0.162-0.145
		s0.083-0.083,0.125-0.134C22.628,22.927,22.66,22.885,22.685,22.852z M20.638,12.937l0.581,1.759h0.01l0.562-1.759h0.731
		l-1.074,2.893c-0.076,0.205-0.182,0.354-0.317,0.445c-0.136,0.091-0.325,0.137-0.567,0.137c-0.073,0-0.145-0.003-0.216-0.008
		c-0.071-0.005-0.144-0.011-0.216-0.018v-0.582c0.066,0.008,0.135,0.014,0.204,0.021s0.139,0.008,0.208,0.005
		c0.06-0.007,0.11-0.025,0.152-0.058c0.042-0.031,0.072-0.069,0.092-0.116s0.03-0.097,0.03-0.149c0-0.057-0.01-0.109-0.03-0.159
		l-0.905-2.41H20.638z M19.994,22.227c0.025,0.039,0.038,0.092,0.038,0.157c0,0.018-0.002,0.042-0.005,0.071
		c-0.003,0.031-0.008,0.064-0.014,0.1c-0.005,0.037-0.011,0.074-0.017,0.113c-0.006,0.038-0.012,0.082-0.017,0.132
		c-0.006,0.049-0.01,0.085-0.014,0.11c-0.003,0.023-0.005,0.04-0.005,0.049h0.036c0.007-0.014,0.019-0.035,0.034-0.063
		c0.016-0.029,0.033-0.071,0.054-0.126c0.02-0.055,0.042-0.103,0.064-0.145c0.024-0.043,0.045-0.083,0.065-0.121
		c0.02-0.039,0.039-0.073,0.055-0.103c0.017-0.03,0.029-0.052,0.038-0.065c0.038-0.064,0.081-0.108,0.13-0.133
		c0.048-0.023,0.103-0.035,0.162-0.035c0.059,0,0.106,0.025,0.141,0.075s0.053,0.118,0.053,0.206c0,0.014-0.003,0.035-0.008,0.066
		c-0.006,0.03-0.012,0.067-0.021,0.11c-0.008,0.042-0.018,0.098-0.028,0.165c-0.01,0.068-0.019,0.129-0.027,0.182
		c-0.008,0.054-0.016,0.106-0.02,0.159c-0.006,0.052-0.009,0.1-0.009,0.144c0,0.074,0.009,0.135,0.027,0.182
		c0.019,0.048,0.048,0.071,0.087,0.071c0.014,0,0.034-0.005,0.061-0.016c0.039-0.015,0.064-0.026,0.075-0.037
		c0.052-0.041,0.08-0.061,0.082-0.06c0.003,0.002,0.043-0.022,0.119-0.07c0.095-0.061,0.208-0.135,0.34-0.223l-0.002,0.398
		l-0.089,0.067c-0.007,0.007-0.063,0.037-0.167,0.093c-0.151,0.081-0.245,0.13-0.283,0.146c-0.092,0.041-0.15,0.064-0.173,0.071
		c-0.059,0.019-0.122,0.028-0.187,0.028c-0.065,0-0.12-0.048-0.165-0.142c-0.044-0.095-0.066-0.232-0.066-0.414
		c0-0.071,0.005-0.148,0.014-0.23c0.01-0.083,0.021-0.172,0.036-0.267h-0.028l-0.467,0.926c-0.025,0.051-0.051,0.084-0.08,0.1
		c-0.03,0.019-0.064,0.027-0.103,0.027c-0.049,0-0.088-0.011-0.118-0.031c-0.03-0.021-0.053-0.049-0.068-0.084
		c-0.017-0.034-0.027-0.075-0.032-0.119c-0.002-0.017-0.001-0.034-0.003-0.051c-0.048,0.033-0.098,0.067-0.153,0.1
		c-0.059,0.036-0.121,0.067-0.186,0.095c-0.064,0.027-0.131,0.049-0.201,0.065c-0.069,0.017-0.139,0.025-0.211,0.025
		c-0.11,0-0.208-0.021-0.291-0.062c-0.083-0.041-0.152-0.097-0.208-0.166c-0.012-0.015-0.016-0.036-0.027-0.052
		c-0.017,0.015-0.034,0.027-0.051,0.042c-0.052,0.042-0.107,0.081-0.164,0.117c-0.058,0.035-0.121,0.064-0.19,0.086
		c-0.069,0.022-0.146,0.034-0.233,0.034c-0.043,0-0.079-0.014-0.108-0.041c-0.029-0.027-0.053-0.065-0.07-0.115
		c-0.018-0.048-0.031-0.105-0.039-0.172s-0.011-0.139-0.011-0.217c0-0.075,0.003-0.155,0.007-0.24
		c0.006-0.084,0.013-0.17,0.023-0.256H17.35l-0.361,0.915c-0.031,0.05-0.065,0.083-0.104,0.101
		c-0.038,0.017-0.082,0.025-0.132,0.025c-0.038,0-0.068-0.01-0.091-0.03s-0.04-0.046-0.053-0.078
		c-0.012-0.032-0.021-0.066-0.025-0.104c-0.004-0.038-0.006-0.074-0.006-0.11c0-0.016,0.001-0.038,0.003-0.066
		s0.006-0.062,0.011-0.099s0.01-0.076,0.016-0.117c0.006-0.041,0.012-0.082,0.018-0.123c0.013-0.095,0.029-0.197,0.048-0.307h-0.027
		c-0.014,0.018-0.031,0.045-0.049,0.08c-0.019,0.036-0.044,0.089-0.077,0.158c-0.033,0.068-0.076,0.159-0.127,0.27
		c-0.052,0.11-0.119,0.246-0.201,0.406c-0.024,0.047-0.052,0.079-0.083,0.096c-0.032,0.017-0.066,0.025-0.104,0.025
		c-0.049,0-0.088-0.01-0.118-0.03s-0.053-0.047-0.068-0.081c-0.017-0.034-0.027-0.073-0.032-0.116
		c-0.001-0.007-0.001-0.015-0.001-0.022c-0.033,0.021-0.063,0.044-0.098,0.064c-0.059,0.036-0.121,0.067-0.186,0.095
		c-0.064,0.027-0.132,0.049-0.201,0.065s-0.14,0.025-0.211,0.025c-0.11,0-0.208-0.021-0.291-0.062
		c-0.083-0.041-0.152-0.097-0.208-0.166c-0.003-0.004-0.003-0.009-0.006-0.013c-0.027,0.016-0.054,0.035-0.081,0.049
		c-0.046,0.023-0.094,0.047-0.144,0.07c-0.05,0.023-0.1,0.044-0.149,0.062c-0.051,0.018-0.099,0.032-0.147,0.044
		c-0.048,0.01-0.092,0.016-0.134,0.016c-0.063,0-0.124-0.027-0.178-0.083c-0.055-0.056-0.104-0.13-0.144-0.224
		c-0.006-0.014-0.008-0.033-0.015-0.048c-0.08,0.046-0.161,0.093-0.227,0.13c-0.089,0.05-0.168,0.092-0.238,0.125
		c-0.069,0.033-0.131,0.058-0.185,0.074s-0.104,0.025-0.147,0.025c-0.089,0-0.168-0.027-0.237-0.082
		c-0.068-0.055-0.126-0.133-0.171-0.236c-0.004-0.009-0.005-0.023-0.01-0.033l-0.017,0.013c-0.007,0.007-0.063,0.037-0.167,0.093
		c-0.15,0.081-0.245,0.13-0.283,0.146c-0.092,0.041-0.15,0.064-0.172,0.071c-0.06,0.019-0.122,0.028-0.187,0.028
		c-0.065,0-0.12-0.048-0.165-0.142c-0.044-0.095-0.066-0.232-0.066-0.414c0-0.071,0.004-0.148,0.014-0.23
		c0.009-0.083,0.021-0.172,0.036-0.267h-0.029l-0.466,0.926c-0.025,0.051-0.052,0.084-0.08,0.1c-0.03,0.019-0.064,0.027-0.104,0.027
		c-0.049,0-0.088-0.011-0.118-0.031c-0.029-0.021-0.053-0.049-0.068-0.084c-0.017-0.034-0.027-0.075-0.032-0.119
		c-0.002-0.017-0.002-0.034-0.003-0.051c-0.048,0.033-0.099,0.067-0.153,0.1c-0.059,0.036-0.121,0.067-0.185,0.095
		c-0.065,0.027-0.132,0.049-0.201,0.065c-0.07,0.017-0.14,0.025-0.211,0.025c-0.11,0-0.208-0.021-0.291-0.062
		S9.278,23.77,9.222,23.7c-0.021-0.027-0.032-0.063-0.049-0.095c-0.029,0.037-0.063,0.076-0.104,0.117
		c-0.085,0.085-0.158,0.15-0.217,0.196c-0.011,0.007-0.019,0.013-0.025,0.016c-0.114,0.073-0.196,0.128-0.248,0.162
		c-0.032,0.021-0.054,0.06-0.066,0.116c-0.012,0.056-0.025,0.16-0.039,0.313c-0.006,0.045-0.01,0.079-0.013,0.104
		c-0.007,0.054-0.014,0.107-0.02,0.159c-0.006,0.053-0.019,0.111-0.036,0.177c-0.017,0.066-0.038,0.127-0.06,0.182
		c-0.022,0.056-0.052,0.111-0.088,0.166s-0.077,0.102-0.122,0.14c-0.045,0.038-0.099,0.069-0.162,0.093S7.842,25.58,7.768,25.58
		c-0.061,0-0.116-0.007-0.167-0.02c-0.051-0.015-0.098-0.035-0.141-0.063c-0.043-0.027-0.079-0.066-0.105-0.116
		c-0.026-0.05-0.043-0.108-0.049-0.175c-0.01-0.124,0.025-0.257,0.103-0.397c0.045-0.078,0.077-0.133,0.094-0.163
		c0.017-0.031,0.045-0.074,0.084-0.132c0.039-0.056,0.078-0.106,0.118-0.151c0.083-0.094,0.152-0.169,0.206-0.226
		c0.054-0.056,0.118-0.117,0.193-0.183l0.035-0.212c-0.133,0.126-0.262,0.189-0.388,0.189c-0.092,0-0.177-0.028-0.255-0.084
		c-0.078-0.056-0.137-0.125-0.176-0.209c-0.071-0.148-0.073-0.321-0.005-0.52C7.375,22.934,7.438,22.78,7.5,22.66
		c0.063-0.121,0.144-0.225,0.244-0.314c0.145-0.129,0.286-0.193,0.422-0.193c0.062,0,0.107,0.017,0.135,0.052
		c0.003,0.004,0.009,0.011,0.016,0.021c0.007,0.011,0.012,0.018,0.015,0.02c0.003,0.002,0.008,0.007,0.015,0.014
		c0.007,0.008,0.014,0.012,0.02,0.014s0.014,0.005,0.023,0.008c0.01,0.004,0.021,0.006,0.032,0.008
		c0.012,0.001,0.025,0.002,0.042,0.002l0.079-0.002c0.053,0,0.09,0.017,0.11,0.049c0.007,0.013,0.015,0.029,0.023,0.051
		c0.014,0.038,0.016,0.159,0.005,0.367c-0.003,0.064-0.019,0.144-0.045,0.238c-0.027,0.096-0.044,0.2-0.052,0.316
		c-0.008,0.117-0.021,0.268-0.04,0.453c0.035-0.02,0.071-0.045,0.11-0.074c0.121-0.091,0.257-0.262,0.405-0.486
		c0-0.01-0.004-0.02-0.004-0.03c0-0.065,0.013-0.144,0.038-0.233c0.024-0.092,0.05-0.172,0.077-0.242s0.06-0.137,0.1-0.201
		c0.041-0.063,0.087-0.12,0.141-0.169c0.054-0.049,0.114-0.087,0.181-0.116c0.066-0.028,0.141-0.043,0.222-0.043
		c0.066,0,0.128,0.011,0.185,0.032c0.058,0.021,0.107,0.052,0.149,0.09s0.076,0.085,0.099,0.14c0.024,0.055,0.036,0.115,0.036,0.184
		c0,0.072-0.024,0.152-0.072,0.242c-0.048,0.089-0.104,0.166-0.168,0.229c-0.064,0.063-0.141,0.12-0.229,0.17
		c-0.089,0.05-0.185,0.089-0.289,0.117c0.018,0.031,0.036,0.058,0.053,0.078c0.017,0.021,0.035,0.038,0.053,0.049
		c0.018,0.012,0.037,0.02,0.056,0.024s0.041,0.007,0.063,0.007c0.071,0,0.146-0.014,0.225-0.041
		c0.079-0.028,0.156-0.063,0.231-0.104c0.075-0.042,0.146-0.088,0.212-0.137c0.029-0.021,0.048-0.04,0.073-0.062
		c0.007-0.076,0.015-0.152,0.025-0.239c0.014-0.123,0.03-0.233,0.048-0.332c0.018-0.099,0.035-0.183,0.052-0.253
		c0.013-0.055,0.038-0.101,0.076-0.138c0.037-0.036,0.088-0.055,0.152-0.055s0.109,0.02,0.134,0.059s0.037,0.092,0.037,0.157
		c0,0.018-0.001,0.042-0.005,0.071c-0.003,0.031-0.008,0.064-0.014,0.1c-0.004,0.037-0.011,0.074-0.017,0.113
		c-0.006,0.038-0.012,0.082-0.017,0.132c-0.006,0.049-0.01,0.085-0.014,0.11c-0.003,0.023-0.005,0.04-0.005,0.049h0.036
		c0.007-0.014,0.019-0.035,0.034-0.063c0.015-0.029,0.033-0.071,0.053-0.126s0.042-0.103,0.064-0.145
		c0.024-0.043,0.045-0.083,0.065-0.121c0.021-0.039,0.039-0.073,0.055-0.103c0.017-0.03,0.029-0.052,0.038-0.065
		c0.038-0.064,0.081-0.108,0.13-0.133c0.049-0.023,0.103-0.035,0.162-0.035s0.106,0.025,0.141,0.075
		c0.035,0.05,0.053,0.118,0.053,0.206c0,0.014-0.003,0.035-0.008,0.066c-0.006,0.03-0.013,0.067-0.021,0.11
		c-0.008,0.042-0.018,0.098-0.028,0.165c-0.01,0.068-0.019,0.129-0.027,0.182c-0.008,0.054-0.015,0.106-0.02,0.159
		c-0.006,0.052-0.008,0.1-0.008,0.144c0,0.074,0.009,0.135,0.027,0.182c0.018,0.048,0.047,0.071,0.086,0.071
		c0.014,0,0.035-0.005,0.061-0.016c0.04-0.015,0.064-0.026,0.075-0.037c0.052-0.041,0.08-0.061,0.082-0.06
		c0.004,0.002,0.043-0.022,0.12-0.07c0.048-0.031,0.114-0.075,0.171-0.113c-0.023-0.145-0.034-0.308-0.034-0.489
		c0-0.071,0.003-0.147,0.009-0.228c0.006-0.081,0.014-0.161,0.024-0.24c-0.036-0.006-0.063-0.011-0.083-0.016
		c-0.02-0.005-0.04-0.009-0.063-0.014c-0.021-0.004-0.05-0.01-0.084-0.016c-0.034-0.004-0.083-0.012-0.148-0.02
		c-0.028-0.004-0.05-0.011-0.066-0.022c-0.016-0.011-0.027-0.024-0.034-0.04c-0.007-0.015-0.011-0.03-0.013-0.047
		c-0.001-0.017-0.002-0.031-0.002-0.043c0-0.019,0.012-0.033,0.035-0.043c0.023-0.01,0.053-0.017,0.09-0.022
		c0.036-0.005,0.076-0.007,0.12-0.008c0.043,0,0.085,0,0.125,0.001c0.04,0.001,0.075,0.002,0.107,0.002
		c0.031,0.002,0.053,0,0.065-0.002c0.032-0.16,0.072-0.314,0.122-0.464s0.104-0.283,0.165-0.4c0.061-0.116,0.127-0.21,0.2-0.28
		c0.072-0.07,0.148-0.105,0.228-0.105c0.051,0,0.097,0.014,0.139,0.043c0.042,0.028,0.079,0.066,0.108,0.113
		c0.03,0.048,0.053,0.104,0.068,0.166c0.016,0.064,0.024,0.13,0.024,0.199c0,0.057-0.008,0.117-0.025,0.18
		c-0.017,0.063-0.039,0.128-0.068,0.193c-0.028,0.065-0.062,0.133-0.101,0.2s-0.079,0.134-0.122,0.2
		c0.01-0.005,0.028-0.005,0.053-0.002c0.025,0.002,0.053,0.004,0.087,0.005c0.032,0.001,0.067,0.001,0.105,0.002
		s0.075,0.003,0.11,0.004s0.069,0.002,0.1,0.003c0.031,0.002,0.057,0.003,0.077,0.004c0.001,0,0.002,0.002,0.003,0.002
		c0.013-0.047,0.029-0.108,0.051-0.191c0.052-0.194,0.104-0.35,0.156-0.467c0.052-0.118,0.108-0.228,0.169-0.329
		c0.061-0.103,0.125-0.191,0.193-0.268c0.067-0.075,0.137-0.135,0.21-0.178c0.073-0.044,0.147-0.065,0.223-0.065
		c0.055,0,0.1,0.011,0.136,0.031c0.036,0.021,0.064,0.049,0.084,0.084c0.021,0.034,0.035,0.072,0.043,0.116s0.012,0.088,0.012,0.133
		c0,0.113-0.013,0.228-0.04,0.344c-0.027,0.116-0.063,0.233-0.107,0.352c-0.045,0.117-0.098,0.234-0.157,0.353
		s-0.121,0.236-0.185,0.353c-0.065,0.116-0.129,0.23-0.194,0.344s-0.125,0.223-0.18,0.33c-0.006,0.013-0.012,0.028-0.019,0.047
		c-0.006,0.021-0.013,0.04-0.019,0.063c-0.006,0.022-0.012,0.046-0.018,0.071s-0.011,0.05-0.014,0.073v0.025
		c0,0.031,0.003,0.062,0.01,0.091s0.015,0.056,0.024,0.079s0.02,0.042,0.03,0.056s0.021,0.021,0.031,0.021
		c0.022,0,0.049-0.005,0.079-0.015s0.062-0.022,0.095-0.038c0.033-0.017,0.068-0.035,0.103-0.056
		c0.036-0.021,0.069-0.043,0.102-0.064c0.006-0.004,0.013-0.01,0.019-0.014c-0.008-0.053-0.022-0.103-0.022-0.157
		c0-0.065,0.012-0.144,0.037-0.233c0.024-0.092,0.051-0.172,0.077-0.242c0.027-0.07,0.06-0.137,0.1-0.201
		c0.041-0.063,0.087-0.12,0.141-0.169s0.114-0.087,0.181-0.116c0.067-0.028,0.141-0.043,0.222-0.043
		c0.066,0,0.128,0.011,0.185,0.032c0.058,0.021,0.107,0.052,0.149,0.09c0.042,0.038,0.075,0.085,0.099,0.14
		c0.023,0.055,0.036,0.115,0.036,0.184c0,0.072-0.024,0.152-0.073,0.242c-0.048,0.089-0.104,0.166-0.168,0.229
		s-0.141,0.12-0.229,0.17c-0.089,0.05-0.185,0.089-0.289,0.117c0.018,0.031,0.036,0.058,0.053,0.078s0.035,0.038,0.053,0.049
		c0.018,0.012,0.037,0.02,0.057,0.024s0.041,0.007,0.063,0.007c0.071,0,0.146-0.014,0.225-0.041
		c0.079-0.028,0.156-0.063,0.231-0.104c0.075-0.042,0.145-0.088,0.212-0.137c0.007-0.006,0.011-0.01,0.018-0.016
		c0.002-0.018,0.003-0.032,0.005-0.05c0.01-0.073,0.023-0.158,0.042-0.253c0.019-0.096,0.035-0.179,0.049-0.249
		c0.013-0.071,0.027-0.136,0.042-0.194s0.027-0.106,0.039-0.144c0.012-0.038,0.023-0.069,0.034-0.092s0.022-0.041,0.036-0.053
		c0.014-0.013,0.03-0.021,0.049-0.026c0.019-0.003,0.043-0.006,0.073-0.006c0.045,0,0.08,0.002,0.106,0.005
		c0.025,0.003,0.045,0.011,0.057,0.021c0.013,0.012,0.021,0.028,0.023,0.05c0.002,0.021,0.003,0.051,0.003,0.088
		c0,0.021-0.001,0.043-0.002,0.07c-0.002,0.026-0.005,0.055-0.008,0.084c-0.002,0.03-0.006,0.061-0.011,0.092
		c-0.008,0.061-0.013,0.092-0.014,0.094c-0.017,0.081-0.034,0.172-0.052,0.273l0.02,0.021c0.002-0.003,0.018-0.034,0.048-0.095
		c0.028-0.06,0.061-0.119,0.094-0.178c0.034-0.059,0.07-0.12,0.11-0.185c0.039-0.063,0.076-0.121,0.112-0.169
		c0.035-0.05,0.071-0.091,0.109-0.123s0.085-0.049,0.138-0.049c0.05,0,0.093,0.016,0.128,0.044c0.036,0.03,0.053,0.071,0.053,0.125
		c0,0.048-0.003,0.092-0.009,0.133c-0.007,0.055-0.014,0.095-0.021,0.122c-0.008,0.032-0.018,0.07-0.028,0.115
		c-0.008,0.04-0.023,0.098-0.044,0.172c-0.003,0.012-0.007,0.029-0.011,0.052c-0.001,0.007-0.002,0.012-0.002,0.015l0.02,0.021
		c0.002-0.003,0.019-0.034,0.05-0.094c0.031-0.06,0.064-0.118,0.1-0.177c0.036-0.06,0.075-0.121,0.116-0.186
		c0.041-0.064,0.079-0.122,0.115-0.17c0.035-0.049,0.069-0.089,0.103-0.121c0.035-0.034,0.077-0.051,0.127-0.051
		c0.056,0,0.103,0.016,0.141,0.044c0.039,0.03,0.058,0.071,0.058,0.125c0,0.083-0.004,0.161-0.013,0.236
		c-0.008,0.073-0.021,0.155-0.037,0.246c-0.017,0.09-0.029,0.172-0.038,0.245c-0.008,0.074-0.012,0.152-0.012,0.234
		c0,0.065,0.008,0.117,0.025,0.158s0.037,0.062,0.061,0.062c0.025,0,0.051-0.006,0.078-0.017s0.055-0.024,0.084-0.041
		c0.028-0.017,0.056-0.036,0.083-0.059c0.022-0.018,0.042-0.036,0.063-0.055c-0.01-0.058-0.025-0.112-0.025-0.173
		c0-0.065,0.012-0.144,0.037-0.233c0.024-0.092,0.051-0.172,0.077-0.242c0.027-0.07,0.06-0.137,0.101-0.201
		c0.04-0.063,0.087-0.12,0.141-0.169s0.114-0.087,0.181-0.116c0.066-0.028,0.141-0.043,0.222-0.043c0.067,0,0.128,0.011,0.186,0.032
		c0.058,0.021,0.107,0.052,0.149,0.09s0.075,0.085,0.099,0.14s0.036,0.115,0.036,0.184c0,0.072-0.024,0.152-0.072,0.242
		c-0.048,0.089-0.104,0.166-0.169,0.229c-0.064,0.063-0.141,0.12-0.229,0.17c-0.089,0.05-0.185,0.089-0.289,0.117
		c0.018,0.031,0.036,0.058,0.053,0.078c0.018,0.021,0.035,0.038,0.053,0.049c0.018,0.012,0.037,0.02,0.057,0.024
		s0.041,0.007,0.063,0.007c0.071,0,0.146-0.014,0.225-0.041c0.079-0.028,0.156-0.063,0.231-0.104
		c0.075-0.042,0.146-0.088,0.212-0.137c0.029-0.021,0.048-0.04,0.073-0.062c0.007-0.076,0.015-0.152,0.025-0.239
		c0.014-0.123,0.03-0.233,0.048-0.332c0.018-0.099,0.035-0.183,0.052-0.253c0.013-0.055,0.038-0.101,0.076-0.138
		c0.037-0.036,0.087-0.055,0.152-0.055C19.925,22.168,19.969,22.188,19.994,22.227z M19.842,13.408h-0.517v1.272
		c0,0.12,0.02,0.199,0.06,0.239c0.04,0.039,0.119,0.059,0.238,0.059c0.08,0,0.153-0.006,0.219-0.02v0.552
		c-0.06,0.011-0.126,0.017-0.199,0.021c-0.073,0.003-0.144,0.005-0.213,0.005c-0.109,0-0.212-0.008-0.311-0.022
		s-0.184-0.045-0.259-0.09c-0.074-0.045-0.133-0.106-0.176-0.186c-0.043-0.08-0.065-0.185-0.065-0.314v-1.516h-0.427v-0.472h0.427
		v-0.771h0.706v0.771h0.517V13.408z M19.283,7.596c-0.08,0.008-0.431-0.083-0.619,0.131c-0.039,0.1-0.101,0.188-0.183,0.256
		c-0.036,0.029-0.076,0.057-0.119,0.077c-0.301,0.151-0.696,0.048-0.942-0.247c-0.136-0.163-0.21-0.364-0.208-0.564
		c0.002-0.101,0.022-0.195,0.061-0.279l-1.391-0.536l-0.354,0.169l-2.704-2.203l-0.081-0.296l3.021,1.904l1.775,0.667
		c0.008-0.004,0.017-0.01,0.024-0.014c0.3-0.151,0.697-0.047,0.942,0.248c0.066,0.079,0.118,0.168,0.152,0.261
		c0.137,0.236,0.69,0.207,0.731,0.231C19.434,7.427,19.363,7.588,19.283,7.596z M18.757,4.144l-0.142,0.325l-2.748,1.47
		l-0.411-0.271L18.757,4.144z"/>
	<path d="M12.78,22.007c0.036-0.06,0.073-0.124,0.112-0.194c0.039-0.069,0.073-0.139,0.104-0.206
		c0.031-0.067,0.057-0.13,0.077-0.188c0.02-0.059,0.03-0.107,0.03-0.145c0-0.014-0.001-0.027-0.003-0.043
		c-0.001-0.017-0.005-0.031-0.011-0.046c-0.006-0.014-0.015-0.025-0.028-0.035c-0.012-0.01-0.03-0.015-0.053-0.015
		c-0.031,0-0.063,0.027-0.094,0.082c-0.031,0.054-0.062,0.123-0.091,0.207c-0.03,0.085-0.057,0.178-0.083,0.279
		c-0.025,0.101-0.049,0.199-0.071,0.295c0.018,0.001,0.036,0.003,0.054,0.004C12.743,22.004,12.761,22.006,12.78,22.007z"/>
	<path d="M9.765,22.965c0.044-0.034,0.086-0.08,0.128-0.136c0.042-0.058,0.063-0.104,0.063-0.142c0-0.053-0.01-0.095-0.03-0.129
		c-0.02-0.033-0.043-0.051-0.072-0.051c-0.051,0-0.095,0.01-0.131,0.028s-0.066,0.043-0.091,0.072
		c-0.024,0.03-0.044,0.063-0.059,0.101C9.557,22.747,9.54,22.794,9.52,22.85s-0.031,0.102-0.033,0.138
		c-0.002,0.035-0.004,0.066-0.004,0.092c0.043,0,0.09-0.011,0.14-0.032C9.674,23.025,9.721,22.998,9.765,22.965z"/>
	<path d="M12.77,22.472c-0.035,0.046-0.067,0.087-0.097,0.124c-0.005,0.073-0.009,0.146-0.013,0.217
		c-0.001,0.031-0.002,0.063-0.003,0.096c-0.001,0.033-0.002,0.064-0.003,0.097c-0.001,0.032-0.002,0.063-0.002,0.093
		c-0.001,0.029-0.001,0.057-0.001,0.082c0,0.064,0.006,0.118,0.018,0.162s0.029,0.08,0.052,0.107
		c0.023,0.028,0.05,0.049,0.083,0.061c0.033,0.013,0.069,0.019,0.11,0.019c0.025,0,0.056-0.006,0.093-0.018s0.078-0.028,0.124-0.049
		c0.044-0.021,0.091-0.046,0.141-0.074s0.098-0.06,0.146-0.093c0.032-0.022,0.062-0.048,0.091-0.071
		c-0.015-0.103-0.028-0.206-0.028-0.315c0-0.117,0.017-0.273,0.052-0.467c0.007-0.042,0.013-0.077,0.019-0.109h-0.675
		C12.84,22.379,12.805,22.426,12.77,22.472z"/>
	<path d="M7.905,22.771c-0.113,0.197-0.175,0.331-0.185,0.4c-0.023,0.151-0.012,0.266,0.032,0.343
		c0.029,0.05,0.066,0.074,0.112,0.074c0.081,0,0.148-0.064,0.201-0.194c0.042-0.102,0.065-0.204,0.069-0.308l0.134-0.593
		C8.131,22.494,8.01,22.587,7.905,22.771z"/>
	<path d="M7.859,24.67c-0.081,0.131-0.145,0.264-0.192,0.399c-0.039,0.112-0.019,0.169,0.061,0.169c0.029,0,0.054-0.004,0.076-0.011
		c0.021-0.007,0.042-0.021,0.061-0.038c0.019-0.019,0.036-0.038,0.05-0.06s0.029-0.053,0.046-0.093
		c0.015-0.04,0.03-0.08,0.043-0.118c0.013-0.039,0.029-0.09,0.046-0.154c0.011-0.034,0.019-0.072,0.024-0.113
		c0.005-0.041,0.011-0.092,0.019-0.152c0.007-0.061,0.012-0.099,0.014-0.115C8.022,24.443,7.939,24.538,7.859,24.67z"/>
	<path d="M14.275,21.822c0.054-0.127,0.1-0.253,0.14-0.38c0.039-0.126,0.064-0.243,0.075-0.353c0-0.034,0-0.064-0.002-0.089
		c-0.001-0.025-0.007-0.037-0.016-0.037c-0.033,0-0.068,0.022-0.106,0.067c-0.037,0.046-0.075,0.106-0.113,0.184
		c-0.038,0.077-0.083,0.202-0.135,0.375c-0.052,0.174-0.079,0.262-0.079,0.262s-0.016,0.08-0.048,0.24
		c-0.032,0.161-0.051,0.303-0.057,0.424c0.054-0.096,0.11-0.203,0.17-0.322C14.165,22.073,14.222,21.949,14.275,21.822z"/>
	<path d="M15.136,22.965c0.044-0.034,0.086-0.08,0.128-0.136c0.042-0.058,0.062-0.104,0.062-0.142c0-0.053-0.01-0.095-0.029-0.129
		c-0.02-0.033-0.043-0.051-0.073-0.051c-0.051,0-0.095,0.01-0.131,0.028s-0.066,0.043-0.092,0.072
		c-0.024,0.03-0.043,0.063-0.059,0.101c-0.015,0.038-0.032,0.085-0.052,0.141s-0.031,0.102-0.033,0.138
		c-0.002,0.035-0.003,0.066-0.003,0.092c0.043,0,0.09-0.011,0.14-0.032C15.045,23.025,15.092,22.998,15.136,22.965z"/>
	<path d="M22.628,23.572c0.022,0.021,0.048,0.041,0.078,0.06c0.03,0.018,0.063,0.026,0.102,0.026c0.046,0,0.085-0.008,0.115-0.022
		c0.031-0.016,0.055-0.037,0.072-0.063c0.018-0.025,0.03-0.056,0.038-0.09c0.007-0.034,0.011-0.07,0.011-0.107
		c0-0.032-0.002-0.065-0.007-0.099c-0.004-0.033-0.003-0.075,0.002-0.125c0.005-0.05,0.003-0.089-0.003-0.115
		c-0.008-0.027-0.015-0.051-0.021-0.07l-0.493,0.52c0.014,0,0.03,0.009,0.047,0.027C22.585,23.531,22.605,23.551,22.628,23.572z"/>
	<path d="M15.275,19.24c0.014,0.023,0.032,0.041,0.055,0.055c0.022,0.014,0.05,0.02,0.082,0.02c0.028,0,0.054-0.014,0.081-0.042
		c0.027-0.027,0.049-0.063,0.069-0.106s0.036-0.095,0.047-0.156c0.012-0.061,0.018-0.115,0.018-0.162
		c0-0.038-0.003-0.073-0.009-0.105c-0.005-0.031-0.014-0.061-0.025-0.084s-0.026-0.043-0.044-0.057
		c-0.018-0.014-0.039-0.021-0.065-0.021c-0.034,0-0.065,0.015-0.095,0.043s-0.057,0.065-0.08,0.11
		c-0.023,0.044-0.041,0.094-0.054,0.147c-0.013,0.055-0.02,0.115-0.02,0.183c0,0.034,0.003,0.067,0.01,0.098
		C15.25,19.191,15.261,19.218,15.275,19.24z"/>
	<path d="M18.781,22.965c0.044-0.034,0.086-0.08,0.128-0.136c0.042-0.058,0.063-0.104,0.063-0.142c0-0.053-0.01-0.095-0.03-0.129
		c-0.02-0.033-0.043-0.051-0.072-0.051c-0.051,0-0.095,0.01-0.131,0.028s-0.066,0.043-0.091,0.072
		c-0.024,0.03-0.044,0.063-0.059,0.101c-0.015,0.038-0.032,0.085-0.051,0.141c-0.02,0.056-0.031,0.102-0.034,0.138
		c-0.002,0.035-0.003,0.066-0.003,0.092c0.043,0,0.09-0.011,0.14-0.032C18.691,23.025,18.738,22.998,18.781,22.965z"/>
</g>
<g>
</g>
<g>
</g>
<g>
</g>
<g>
</g>
<g>
</g>
<g>
</g>
<g>
</g>
<g>
</g>
<g>
</g>
<g>
</g>
<g>
</g>
<g>
</g>
<g>
</g>
<g>
</g>
<g>
</g>
</svg>
