<?xml version="1.0" encoding="iso-8859-1"?>
<!-- Generator: Adobe Illustrator 16.0.0, SVG Export Plug-In . SVG Version: 6.00 Build 0)  -->
<!DOCTYPE svg PUBLIC "-//W3C//DTD SVG 1.1//EN" "http://www.w3.org/Graphics/SVG/1.1/DTD/svg11.dtd">
<svg version="1.1" id="Layer_1" xmlns="http://www.w3.org/2000/svg" xmlns:xlink="http://www.w3.org/1999/xlink" x="0px" y="0px"
	 width="27.807px" height="31.99px" viewBox="0 0 27.807 31.99" style="enable-background:new 0 0 27.807 31.99;"
	 xml:space="preserve">
<path d="M23.23,28.855v-9.902h0.835v-1.706H23.23v-6.955h3.458v-4.78h-2.286c-0.116-1.085-1.024-1.933-2.138-1.933
	c-1.115,0-2.021,0.848-2.137,1.933h-2.795v1.067h-3.25c-0.155-2.332-1.598-4.882-4.321-6.002C6.042-0.955,1.364,0.758,0.266,3.425
	c-1.099,2.667,1.332,4.666,5.052,6.198c3.719,1.533,7.322,2.023,8.42-0.646c0.054-0.131,0.074-0.279,0.117-0.416h3.477v1.73h3.967
	v18.563l-4.577,1v2.135h11.085v-2.135L23.23,28.855z"/>
<g>
</g>
<g>
</g>
<g>
</g>
<g>
</g>
<g>
</g>
<g>
</g>
<g>
</g>
<g>
</g>
<g>
</g>
<g>
</g>
<g>
</g>
<g>
</g>
<g>
</g>
<g>
</g>
<g>
</g>
</svg>
