<?xml version="1.0" encoding="iso-8859-1"?>
<!-- Generator: Adobe Illustrator 16.0.0, SVG Export Plug-In . SVG Version: 6.00 Build 0)  -->
<!DOCTYPE svg PUBLIC "-//W3C//DTD SVG 1.1//EN" "http://www.w3.org/Graphics/SVG/1.1/DTD/svg11.dtd">
<svg version="1.1" id="Layer_1" xmlns="http://www.w3.org/2000/svg" xmlns:xlink="http://www.w3.org/1999/xlink" x="0px" y="0px"
	 width="30.379px" height="30.96px" viewBox="0 0 30.379 30.96" style="enable-background:new 0 0 30.379 30.96;"
	 xml:space="preserve">
<g>
	<path d="M6.163,15.901C6.145,14.57,5.227,12.87,5.227,12.87s2.095-3.771,2.76-5.472c2.317,0.862,4.338-3.5,4.338-3.5
		s1.774,2.958,1.676,6.112c-0.258,0.494-1.562,3.138-1.862,4.805l2.734,1.477c0.206-0.84,1.434-2.232,1.345-3.866
		c-0.098-1.824-1.701-4.387-1.701-4.387s0.024-8.232-5.595-8.036C3.304,0.202,1.579,9.32,1.53,10.405
		c-0.049,1.084,0.147,2.711,0.147,2.711s-0.493,0.099-0.443,0.542c0.048,0.444,0.468,0.888,0.493,1.233
		c0.024,0.345-1.036,0.271-0.986,0.74c0.049,0.468,0.74,0.64,0.641,0.985c-0.099,0.345-1.429,0.715-1.38,1.873
		s2.046,2.243,2.168,3.549c0.124,1.306-1.75,2.12-1.922,3.5c-0.172,1.38,2.292,2.219,2.317,3.476
		c0.025,1.257-1.626,1.947-1.626,1.947s4.313-0.074,2.76-4.979c-0.271-0.493,2.465-3.18,1.528-5.718c0.937-0.69,0-2.268,0-2.268
		S6.182,17.232,6.163,15.901z"/>
	<path d="M28.9,25.438c0.079-0.271,0.093-0.572-0.146-0.732C28.25,24.37,10.579,14.221,9.531,13.854
		c-1.048-0.366-1.64,0.333-1.64,0.333l0.428,0.22l-0.245,0.551l11.294,6.264l0.197-0.382l7.484,4.254l-7.955-3.358l0.183-0.387
		l-2.533-1.101c-0.001-0.078,0.004-0.155-0.003-0.233l-3.813-1.988c0.122,0.251,0.246,0.494,0.367,0.722l-5.862-2.548l-0.288,0.528
		L6.71,16.524c0,0-0.194,0.896,0.735,1.503c0.331,0.218,2.948,1.36,6.197,2.746c-0.297,0.45-0.636,1.093-0.677,1.759
		c-0.074,1.208,0.937,4.412,3.353,5.028c-0.813,1.355,0.345,1.874,0.345,1.874s2.169,0.271,1.282-2.218
		c-0.32-0.222,0.592-0.099,0.592-1.627c0-1.528-2.415-2.859-2.415-2.859s0.161-0.31,0.32-0.768
		c5.292,2.237,11.002,4.608,11.314,4.713c0.245,0.083,0.457-0.065,0.618-0.261l1.498,0.771l0.508-0.985L28.9,25.438z"/>
</g>
<g>
</g>
<g>
</g>
<g>
</g>
<g>
</g>
<g>
</g>
<g>
</g>
<g>
</g>
<g>
</g>
<g>
</g>
<g>
</g>
<g>
</g>
<g>
</g>
<g>
</g>
<g>
</g>
<g>
</g>
</svg>
