<?xml version="1.0" encoding="iso-8859-1"?>
<!-- Generator: Adobe Illustrator 16.0.0, SVG Export Plug-In . SVG Version: 6.00 Build 0)  -->
<!DOCTYPE svg PUBLIC "-//W3C//DTD SVG 1.1//EN" "http://www.w3.org/Graphics/SVG/1.1/DTD/svg11.dtd">
<svg version="1.1" id="Layer_1" xmlns="http://www.w3.org/2000/svg" xmlns:xlink="http://www.w3.org/1999/xlink" x="0px" y="0px"
	 width="31.985px" height="32px" viewBox="0 0 31.985 32" style="enable-background:new 0 0 31.985 32;" xml:space="preserve">
<g>
	<g>
		<g>
			<path d="M5.811,8.476C6.026,8.188,6.139,8.048,6.37,7.781c0.339,0.262,0.509,0.393,0.849,0.654
				c0.389-0.448,0.598-0.656,1.032-1.041C7.951,7.094,7.8,6.942,7.5,6.642c0.259-0.229,0.392-0.338,0.663-0.546
				C8.884,6.93,9.245,7.346,9.966,8.18c-0.21,0.161-0.313,0.246-0.513,0.423C9.116,8.265,8.948,8.094,8.61,7.756
				C8.196,8.123,7.998,8.322,7.626,8.75c0.382,0.294,0.573,0.442,0.954,0.736C8.402,9.692,8.316,9.797,8.15,10.02
				C7.215,9.402,6.746,9.093,5.811,8.476z"/>
			<path d="M9.519,6.803C9.447,6.696,9.415,6.59,9.423,6.482C9.432,6.376,9.47,6.268,9.537,6.164c0.066-0.102,0.153-0.2,0.262-0.291
				c0.111-0.091,0.232-0.172,0.362-0.242c0.117-0.063,0.237-0.117,0.364-0.166c0.128-0.048,0.251-0.076,0.371-0.086
				c0.118-0.011,0.227,0.005,0.321,0.043s0.168,0.113,0.219,0.218c0.178,0.368,0.268,0.555,0.446,0.924
				c0.039,0.08,0.081,0.151,0.126,0.22c0.046,0.069,0.089,0.117,0.132,0.144c-0.22,0.092-0.328,0.142-0.542,0.246
				c-0.025-0.022-0.046-0.047-0.068-0.071c-0.021-0.025-0.062-0.08-0.062-0.08c-0.014,0.002-0.11,0.228-0.203,0.319
				s-0.195,0.171-0.31,0.238c-0.088,0.052-0.175,0.089-0.265,0.116s-0.177,0.042-0.262,0.041c-0.086-0.002-0.168-0.018-0.246-0.055
				s-0.147-0.097-0.211-0.178c-0.07-0.089-0.109-0.173-0.116-0.256C9.848,7.164,9.863,7.083,9.901,7.006
				c0.039-0.078,0.093-0.154,0.164-0.224c0.07-0.07,0.145-0.137,0.227-0.199c0.083-0.063,0.161-0.118,0.239-0.171
				c0.077-0.052,0.146-0.104,0.203-0.15c0.057-0.047,0.098-0.092,0.122-0.138c0.025-0.045,0.024-0.093-0.003-0.142
				c-0.029-0.051-0.063-0.086-0.102-0.105s-0.082-0.028-0.126-0.026c-0.044,0.002-0.093,0.014-0.145,0.034
				c-0.052,0.02-0.104,0.043-0.158,0.072c-0.118,0.064-0.199,0.139-0.242,0.217c-0.043,0.077-0.04,0.167,0.011,0.262
				C9.857,6.575,9.743,6.648,9.519,6.803z M11.064,6.359c-0.015,0.029-0.038,0.059-0.069,0.087
				c-0.031,0.028-0.066,0.059-0.103,0.087c-0.039,0.029-0.077,0.057-0.121,0.086c-0.044,0.03-0.086,0.06-0.124,0.09
				c-0.041,0.032-0.077,0.063-0.109,0.096s-0.058,0.071-0.076,0.106c-0.017,0.034-0.025,0.071-0.023,0.11s0.016,0.08,0.043,0.12
				c0.029,0.042,0.062,0.072,0.098,0.088c0.035,0.017,0.073,0.022,0.114,0.021c0.04-0.002,0.081-0.013,0.125-0.029
				c0.043-0.017,0.088-0.037,0.131-0.062c0.105-0.059,0.176-0.115,0.217-0.177s0.064-0.121,0.068-0.178s-0.003-0.11-0.021-0.157
				s-0.037-0.086-0.052-0.112C11.124,6.465,11.104,6.43,11.064,6.359z"/>
			<path d="M12.321,4.458c-0.279,0.085-0.417,0.132-0.691,0.233c-0.069-0.164-0.104-0.245-0.173-0.409
				c0.285-0.105,0.429-0.153,0.719-0.241C12.234,4.209,12.263,4.291,12.321,4.458z M11.748,4.973
				c0.267-0.099,0.401-0.144,0.673-0.227c0.258,0.74,0.386,1.108,0.643,1.847C12.84,6.661,12.728,6.7,12.508,6.781
				C12.204,6.059,12.053,5.697,11.748,4.973z"/>
			<path d="M12.958,4.596c0.262-0.066,0.393-0.098,0.658-0.15c0.032,0.142,0.049,0.213,0.081,0.354
				c0.004-0.001,0.007-0.001,0.011-0.002c0.018-0.064,0.05-0.128,0.093-0.188c0.043-0.06,0.097-0.114,0.161-0.162
				c0.065-0.049,0.139-0.09,0.218-0.122c0.081-0.033,0.166-0.054,0.251-0.064c0.054-0.007,0.105-0.01,0.156-0.003
				c0.027,0.197,0.04,0.297,0.067,0.494c-0.032-0.002-0.069-0.001-0.114,0.001s-0.089,0.005-0.131,0.011
				c-0.124,0.018-0.223,0.049-0.302,0.096c-0.078,0.046-0.138,0.104-0.177,0.168c-0.039,0.063-0.06,0.137-0.064,0.215
				C13.862,5.32,13.868,5.4,13.887,5.483c0.077,0.343,0.115,0.516,0.191,0.858c-0.23,0.045-0.342,0.07-0.569,0.129
				C13.29,5.721,13.179,5.347,12.958,4.596z"/>
			<path d="M16.718,5.533c-0.004,0.058,0.007,0.107,0.031,0.15c0.024,0.042,0.058,0.08,0.098,0.109s0.089,0.051,0.143,0.067
				c0.054,0.018,0.109,0.03,0.168,0.036c0.043,0.004,0.088,0.005,0.134,0.001c0.047-0.004,0.092-0.015,0.133-0.027
				c0.041-0.014,0.078-0.035,0.108-0.063s0.049-0.063,0.056-0.11c0.006-0.039-0.005-0.076-0.033-0.108
				c-0.027-0.033-0.069-0.063-0.127-0.094c-0.057-0.029-0.128-0.059-0.215-0.086c-0.086-0.027-0.187-0.058-0.298-0.086
				c-0.09-0.023-0.179-0.049-0.267-0.077c-0.087-0.028-0.166-0.063-0.234-0.104s-0.124-0.088-0.167-0.148
				c-0.042-0.06-0.064-0.134-0.063-0.219c0.001-0.123,0.035-0.224,0.099-0.304s0.15-0.144,0.258-0.187s0.229-0.07,0.364-0.08
				c0.133-0.011,0.271-0.008,0.41,0.006s0.274,0.038,0.401,0.074c0.128,0.037,0.239,0.09,0.33,0.152
				c0.092,0.063,0.166,0.138,0.215,0.227s0.065,0.196,0.052,0.316c-0.251-0.048-0.377-0.067-0.63-0.102
				c0.007-0.104-0.032-0.181-0.117-0.228c-0.084-0.048-0.188-0.074-0.311-0.086c-0.039-0.004-0.082-0.008-0.127-0.008
				s-0.087,0.006-0.124,0.016c-0.038,0.01-0.07,0.027-0.098,0.049s-0.044,0.05-0.047,0.091c-0.003,0.047,0.016,0.089,0.058,0.122
				s0.096,0.063,0.164,0.087s0.147,0.048,0.234,0.072c0.089,0.024,0.178,0.051,0.267,0.079c0.093,0.03,0.182,0.064,0.268,0.103
				c0.084,0.038,0.157,0.086,0.218,0.138c0.061,0.053,0.105,0.11,0.134,0.179s0.033,0.147,0.013,0.236
				c-0.028,0.125-0.083,0.225-0.158,0.298s-0.162,0.129-0.262,0.166c-0.1,0.036-0.209,0.06-0.328,0.066
				c-0.12,0.007-0.237,0.005-0.356-0.007c-0.122-0.012-0.24-0.033-0.355-0.063c-0.117-0.03-0.218-0.073-0.309-0.131
				c-0.09-0.057-0.164-0.129-0.223-0.217s-0.095-0.197-0.101-0.325C16.361,5.517,16.48,5.52,16.718,5.533z"/>
			<path d="M19.778,4.755c0.199,0.062,0.298,0.094,0.494,0.163c-0.054,0.134-0.082,0.203-0.136,0.337
				c-0.19-0.067-0.286-0.1-0.479-0.159c-0.128,0.366-0.192,0.551-0.321,0.916c-0.03,0.085-0.034,0.145-0.011,0.184
				c0.022,0.039,0.082,0.073,0.18,0.106c0.065,0.021,0.127,0.04,0.186,0.05c-0.063,0.156-0.095,0.234-0.159,0.391
				c-0.05-0.01-0.104-0.024-0.161-0.041c-0.058-0.018-0.115-0.032-0.169-0.05c-0.086-0.027-0.167-0.06-0.24-0.093
				c-0.075-0.033-0.137-0.074-0.187-0.123c-0.05-0.048-0.084-0.106-0.103-0.174c-0.019-0.066-0.015-0.146,0.012-0.241
				c0.125-0.443,0.187-0.666,0.312-1.109c-0.162-0.04-0.243-0.056-0.405-0.09c0.033-0.14,0.05-0.211,0.083-0.351
				c0.168,0.035,0.252,0.055,0.419,0.096c0.063-0.226,0.095-0.34,0.157-0.565c0.29,0.071,0.434,0.111,0.719,0.199
				C19.893,4.422,19.855,4.533,19.778,4.755z"/>
			<path d="M20.633,7.481c-0.135,0.107-0.268,0.169-0.397,0.185s-0.275-0.015-0.447-0.088c-0.051-0.021-0.103-0.047-0.151-0.07
				c-0.05-0.024-0.098-0.047-0.149-0.071c0.071-0.163,0.107-0.244,0.179-0.407c0.049,0.024,0.096,0.048,0.147,0.073
				c0.049,0.026,0.102,0.05,0.153,0.067c0.045,0.016,0.093,0.02,0.134,0.011c0.041-0.009,0.078-0.024,0.108-0.05
				s0.056-0.054,0.074-0.09c0.02-0.038,0.031-0.081,0.033-0.122c0.057-0.783,0.055-1.183-0.01-1.988
				c0.286,0.103,0.428,0.159,0.708,0.28c-0.021,0.577-0.046,0.864-0.124,1.427c0.003,0.002,0.006,0,0.009,0.002
				c0.443-0.383,0.674-0.567,1.161-0.916c0.259,0.144,0.389,0.221,0.64,0.382C21.81,6.595,21.394,6.875,20.633,7.481z"/>
			<path d="M23.378,5.646c0.255,0.172,0.381,0.263,0.626,0.451c-0.72,0.834-1.08,1.252-1.802,2.085
				c-0.189-0.146-0.286-0.216-0.483-0.349C22.385,6.959,22.716,6.521,23.378,5.646z"/>
			<path d="M23.574,8.215c-0.121,0.127-0.178,0.253-0.169,0.375c0.008,0.122,0.074,0.244,0.197,0.375
				c0.088,0.093,0.183,0.158,0.289,0.194c0.105,0.035,0.191,0.042,0.256,0.021c0.15,0.177,0.221,0.269,0.363,0.456
				c-0.257,0.06-0.483,0.047-0.685-0.031c-0.202-0.078-0.387-0.206-0.56-0.389c-0.12-0.126-0.209-0.254-0.272-0.387
				c-0.063-0.132-0.101-0.263-0.109-0.394s0.012-0.26,0.059-0.39c0.046-0.129,0.121-0.252,0.227-0.365
				c0.103-0.109,0.221-0.193,0.357-0.246c0.135-0.053,0.28-0.076,0.436-0.064c0.155,0.012,0.313,0.056,0.475,0.135
				c0.16,0.078,0.313,0.192,0.455,0.343c0.159,0.167,0.267,0.343,0.325,0.513c0.058,0.171,0.076,0.332,0.052,0.482
				s-0.085,0.28-0.176,0.397c-0.092,0.117-0.207,0.216-0.346,0.292C24.316,8.957,24.08,8.693,23.574,8.215z M24.6,8.79
				c0.091-0.109,0.138-0.22,0.139-0.329c0-0.108-0.058-0.231-0.178-0.358c-0.08-0.084-0.158-0.142-0.233-0.176
				c-0.076-0.033-0.146-0.051-0.21-0.052c-0.065-0.001-0.122,0.011-0.17,0.032c-0.049,0.022-0.089,0.044-0.121,0.067
				C24.15,8.28,24.305,8.445,24.6,8.79z"/>
		</g>
	</g>
	<g>
		<path d="M17.278,7.04c-0.444-0.067-0.898-0.103-1.351-0.103c-4.416,0-8.242,3.296-8.902,7.666
			c-0.74,4.911,2.653,9.51,7.564,10.253c0.445,0.067,0.9,0.102,1.35,0.102c4.416,0,8.243-3.296,8.901-7.666
			c0.359-2.378-0.231-4.754-1.662-6.691C21.75,8.663,19.653,7.398,17.278,7.04z M24.179,17.192c-0.609,4.045-4.152,7.097-8.24,7.097
			c-0.42,0-0.84-0.032-1.25-0.094c-2.199-0.332-4.14-1.503-5.464-3.299c-1.324-1.795-1.871-3.993-1.539-6.193
			c0.61-4.045,4.153-7.097,8.241-7.097c0.412,0,0.833,0.031,1.25,0.093c2.199,0.332,4.139,1.503,5.464,3.299
			C23.965,12.794,24.512,14.993,24.179,17.192z"/>
		<path d="M31.529,16.427c0.163-0.245,0.304-0.456,0.356-0.601c0.226-0.545,0.071-1.047-0.459-1.487
			c-0.063-0.054-0.123-0.094-0.187-0.141c0.152-0.326,0.299-0.621,0.333-0.792c0.157-0.635-0.214-1.02-0.622-1.266
			c-0.094-0.06-0.187-0.104-0.279-0.152c0.025-0.114,0.049-0.228,0.076-0.341c0.029-0.105,0.058-0.206,0.085-0.303
			c0.083-0.289,0.155-0.539,0.161-0.708c-0.008-0.845-0.622-1.15-1.154-1.324c0.045-0.359,0.094-0.68,0.076-0.854
			c-0.131-0.805-0.778-0.97-1.337-1.051c-0.017-0.191-0.029-0.384-0.036-0.556c-0.016-0.361-0.027-0.646-0.097-0.804
			c-0.247-0.799-0.917-0.892-1.4-0.892c-0.036,0-0.069,0.004-0.104,0.004c-0.071-0.361-0.127-0.676-0.22-0.824
			c-0.36-0.744-1.035-0.676-1.594-0.567c-0.086-0.189-0.167-0.382-0.238-0.552c-0.122-0.299-0.228-0.557-0.33-0.699
			c-0.232-0.335-0.556-0.505-0.964-0.505c-0.16,0-0.333,0.025-0.529,0.077c-0.08,0.021-0.147,0.053-0.223,0.08
			c-0.186-0.312-0.344-0.585-0.47-0.715c-0.448-0.474-0.981-0.354-1.401-0.17c-0.108,0.047-0.204,0.104-0.302,0.16
			c-0.139-0.148-0.272-0.302-0.389-0.438c-0.226-0.264-0.404-0.473-0.555-0.566c-0.484-0.316-0.999-0.295-1.549,0.078
			c-0.066,0.051-0.119,0.101-0.18,0.151c-0.277-0.238-0.513-0.449-0.675-0.519c-0.582-0.266-1.042-0.029-1.381,0.282
			c-0.085,0.086-0.157,0.174-0.229,0.26c-0.167-0.09-0.333-0.184-0.488-0.275c-0.313-0.186-0.561-0.333-0.733-0.363
			c-0.585-0.164-1.082,0.038-1.44,0.58c-0.046,0.066-0.08,0.127-0.12,0.191c-0.338-0.136-0.633-0.261-0.807-0.265
			c-0.641-0.079-1.005,0.278-1.211,0.722c-0.053,0.104-0.092,0.207-0.134,0.31c-0.206-0.032-0.411-0.069-0.604-0.106
			C9.877,1.43,9.62,1.381,9.443,1.381H9.408C8.559,1.406,8.316,2.155,8.236,2.401C8.21,2.479,8.2,2.55,8.182,2.626
			C7.822,2.612,7.51,2.596,7.333,2.63C6.691,2.745,6.501,3.261,6.427,3.712C6.408,3.826,6.403,3.938,6.396,4.048
			C6.207,4.08,6.016,4.107,5.834,4.13C5.473,4.174,5.186,4.209,5.031,4.292c-0.785,0.329-0.817,1.014-0.76,1.571
			c-0.348,0.097-0.651,0.18-0.79,0.281C2.78,6.572,2.896,7.233,3.049,7.78C2.976,7.818,2.904,7.86,2.831,7.897L2.723,7.954
			C2.628,8.006,2.536,8.055,2.446,8.101C2.185,8.238,1.958,8.356,1.842,8.46C1.168,8.999,1.448,9.742,1.541,9.988
			c0.029,0.074,0.062,0.138,0.094,0.207c-0.287,0.211-0.546,0.393-0.657,0.524c-0.447,0.484-0.281,1.005-0.054,1.411
			c0.058,0.1,0.119,0.186,0.179,0.274c-0.155,0.177-0.315,0.345-0.459,0.494c-0.205,0.215-0.383,0.398-0.483,0.55
			c-0.386,0.747,0.002,1.308,0.385,1.713c-0.201,0.286-0.383,0.536-0.46,0.698c-0.261,0.767,0.223,1.22,0.671,1.559
			c-0.077,0.175-0.16,0.35-0.24,0.513c-0.163,0.331-0.291,0.593-0.305,0.769c-0.155,0.842,0.407,1.242,0.909,1.499
			c-0.108,0.342-0.206,0.64-0.194,0.81c-0.026,0.82,0.586,1.084,1.126,1.255c-0.008,0.091-0.013,0.183-0.022,0.273l-0.011,0.097
			C2.01,22.738,2,22.841,1.991,22.938c-0.028,0.297-0.053,0.553-0.031,0.709c0.083,0.854,0.857,1.03,1.115,1.089
			c0.082,0.017,0.156,0.023,0.234,0.035c0.021,0.354,0.031,0.669,0.081,0.835c0.161,0.639,0.688,0.781,1.151,0.816
			c0.111,0.006,0.213,0.002,0.317,0.001c0.056,0.209,0.104,0.42,0.146,0.608c0.071,0.329,0.128,0.59,0.21,0.749
			c0.278,0.514,0.769,0.731,1.401,0.667c0.089-0.013,0.167-0.033,0.25-0.051c0.128,0.332,0.235,0.623,0.337,0.766
			c0.385,0.512,0.904,0.523,1.351,0.406c0.108-0.032,0.206-0.073,0.307-0.111c0.069,0.106,0.14,0.216,0.196,0.313
			c0.239,0.387,0.435,0.694,0.583,0.838c0.233,0.229,0.499,0.354,0.8,0.374c0.231-0.003,0.476-0.068,0.745-0.202
			c0.075-0.036,0.137-0.077,0.207-0.117c0.234,0.275,0.442,0.51,0.583,0.61c0.26,0.188,0.518,0.247,0.754,0.228
			c0.24-0.038,0.459-0.152,0.656-0.29c0.089-0.062,0.166-0.126,0.245-0.192c0.172,0.13,0.339,0.264,0.487,0.385
			c0.249,0.204,0.463,0.379,0.619,0.455C14.912,31.952,15.091,32,15.269,32c0.427,0,0.767-0.272,0.985-0.479
			c0.064-0.062,0.113-0.123,0.17-0.187c0.306,0.181,0.573,0.345,0.743,0.397c0.622,0.219,1.03-0.158,1.313-0.519
			c0.065-0.087,0.118-0.173,0.173-0.259c0.207,0.067,0.409,0.142,0.588,0.211c0.312,0.117,0.559,0.21,0.737,0.23
			c0.583,0.043,1.022-0.226,1.325-0.81c0.039-0.082,0.064-0.159,0.095-0.24c0.352,0.075,0.658,0.146,0.835,0.14
			c0.639-0.045,0.931-0.475,1.079-0.91c0.033-0.111,0.052-0.217,0.074-0.324c0.118,0.002,0.236,0.004,0.356,0.011
			c0.169,0.004,0.331,0.007,0.476,0.007c0.264,0,0.432-0.012,0.541-0.035c0.585-0.115,0.919-0.52,0.992-1.197
			c0.011-0.084,0.012-0.159,0.016-0.24c0.362-0.047,0.675-0.092,0.838-0.156c0.616-0.22,0.741-0.731,0.72-1.211
			c-0.003-0.107-0.016-0.206-0.026-0.308c0.112-0.042,0.226-0.089,0.334-0.124c0.104-0.033,0.204-0.064,0.301-0.093
			c0.299-0.091,0.535-0.163,0.681-0.249c0.709-0.475,0.623-1.164,0.476-1.706c0.325-0.157,0.616-0.288,0.751-0.396
			c0.6-0.548,0.389-1.177,0.154-1.688c0.15-0.117,0.304-0.23,0.451-0.336c0.293-0.21,0.524-0.375,0.618-0.52
			c0.543-0.664,0.234-1.287-0.087-1.753c0.264-0.257,0.498-0.477,0.57-0.636c0.417-0.705,0.002-1.229-0.394-1.636
			c0.065-0.099,0.128-0.195,0.199-0.296C31.414,16.598,31.473,16.51,31.529,16.427z M1.19,19.957
			c-0.454-0.237-0.857-0.553-0.734-1.226c0.011-0.141,0.143-0.408,0.282-0.69c0.074-0.149,0.148-0.311,0.22-0.472
			c0.096,0.07,0.186,0.137,0.255,0.199c0.049,0.401,0.104,0.802,0.186,1.192C1.384,19.284,1.289,19.631,1.19,19.957z M1.223,14.037
			c-0.136,0.313-0.338,0.626-0.536,0.915c-0.334-0.363-0.611-0.803-0.313-1.377c0.081-0.121,0.25-0.299,0.448-0.504
			c0.13-0.137,0.277-0.292,0.419-0.451c0.062,0.092,0.125,0.182,0.167,0.26C1.328,13.261,1.273,13.648,1.223,14.037z M28.213,6.135
			c0.056,0.129,0.069,0.42,0.082,0.728c0.007,0.157,0.02,0.335,0.035,0.51c-0.12-0.016-0.233-0.031-0.326-0.055
			c-0.221-0.308-0.445-0.613-0.688-0.904c-0.157-0.295-0.25-0.66-0.324-1.008C27.478,5.394,28.006,5.465,28.213,6.135z
			 M23.129,2.331c0.593-0.158,0.961-0.054,1.227,0.329c0.086,0.122,0.187,0.367,0.303,0.65c0.064,0.157,0.141,0.334,0.219,0.509
			c-0.118,0.023-0.23,0.044-0.323,0.051c-0.31-0.223-0.627-0.428-0.953-0.625c-0.234-0.247-0.442-0.56-0.628-0.859
			C23.027,2.368,23.075,2.345,23.129,2.331z M18.32,0.722c0.458-0.311,0.867-0.337,1.272-0.072c0.121,0.075,0.305,0.291,0.5,0.519
			c0.106,0.125,0.229,0.264,0.354,0.398c-0.093,0.055-0.187,0.11-0.267,0.147c-0.382-0.114-0.77-0.217-1.164-0.3
			c-0.288-0.146-0.57-0.364-0.828-0.581C18.231,0.797,18.272,0.757,18.32,0.722z M13.254,0.776c0.231-0.35,0.52-0.527,0.854-0.527
			c0.1,0,0.205,0.016,0.326,0.048c0.14,0.025,0.394,0.177,0.662,0.335c0.134,0.08,0.291,0.167,0.447,0.252
			C15.472,0.97,15.4,1.058,15.334,1.12c-0.392,0.016-0.784,0.038-1.168,0.085c-0.328-0.038-0.674-0.161-1-0.288
			C13.196,0.87,13.221,0.823,13.254,0.776z M8.472,2.479c0.186-0.574,0.477-0.836,0.972-0.85c0.153,0,0.4,0.046,0.684,0.102
			c0.167,0.032,0.358,0.065,0.55,0.096c-0.042,0.105-0.082,0.211-0.127,0.288C10.192,2.256,9.844,2.411,9.5,2.577
			C9.164,2.639,8.787,2.643,8.434,2.634C8.449,2.581,8.454,2.53,8.472,2.479z M5.137,4.516C5.262,4.45,5.555,4.414,5.865,4.375
			C6.021,4.356,6.199,4.329,6.375,4.3C6.37,4.412,6.366,4.525,6.353,4.615C6.05,4.871,5.757,5.132,5.478,5.411
			C5.195,5.579,4.847,5.695,4.515,5.794C4.465,5.287,4.512,4.778,5.137,4.516z M1.838,10.044c-0.022-0.05-0.045-0.093-0.066-0.145
			C1.559,9.332,1.628,8.949,2,8.65c0.1-0.088,0.313-0.2,0.561-0.331c0.09-0.046,0.184-0.096,0.278-0.146l0.105-0.055
			C3.001,8.09,3.061,8.055,3.118,8.023c0.035,0.117,0.066,0.229,0.08,0.323c-0.196,0.329-0.38,0.664-0.551,1.009
			C2.43,9.616,2.122,9.837,1.838,10.044z M3.128,24.494c-0.592-0.136-0.877-0.403-0.922-0.875c-0.019-0.133,0.005-0.376,0.032-0.657
			c0.01-0.099,0.02-0.201,0.028-0.305l0.01-0.095c0.007-0.071,0.01-0.15,0.017-0.224c0.119,0.036,0.232,0.07,0.32,0.11
			c0.168,0.345,0.351,0.681,0.544,1.011c0.103,0.325,0.12,0.706,0.138,1.06C3.238,24.511,3.185,24.506,3.128,24.494z M6.584,28.202
			c-0.065,0.007-0.129,0.011-0.195,0.011c-0.444,0-0.758-0.18-0.956-0.547c-0.066-0.128-0.122-0.388-0.188-0.687
			c-0.038-0.172-0.084-0.364-0.132-0.555c0.116-0.003,0.23-0.007,0.324,0.002c0.275,0.272,0.565,0.53,0.857,0.78
			c0.194,0.279,0.347,0.627,0.479,0.957C6.71,28.177,6.649,28.192,6.584,28.202z M11.074,30.558
			c-0.235,0.117-0.444,0.176-0.628,0.178c-0.231-0.016-0.444-0.118-0.634-0.305c-0.128-0.123-0.323-0.432-0.543-0.787
			c-0.048-0.083-0.114-0.18-0.172-0.272c0.115-0.045,0.227-0.09,0.321-0.112c0.347,0.17,0.699,0.33,1.06,0.474
			c0.277,0.19,0.523,0.465,0.749,0.739C11.175,30.501,11.128,30.532,11.074,30.558z M16.083,31.342
			c-0.187,0.176-0.475,0.41-0.814,0.41c-0.136,0-0.277-0.037-0.422-0.114c-0.132-0.064-0.337-0.232-0.575-0.427
			c-0.134-0.109-0.289-0.23-0.443-0.349c0.093-0.077,0.183-0.152,0.262-0.203c0.382,0.047,0.77,0.074,1.161,0.092
			c0.322,0.107,0.648,0.284,0.951,0.458C16.163,31.254,16.127,31.3,16.083,31.342z M21.081,30.477
			c-0.236,0.455-0.556,0.677-0.979,0.677c-0.033,0-0.067-0.002-0.099-0.004c-0.143-0.017-0.389-0.109-0.672-0.217
			c-0.164-0.063-0.35-0.128-0.535-0.19c0.061-0.099,0.12-0.196,0.177-0.271c0.389-0.081,0.771-0.184,1.148-0.296
			c0.332-0.006,0.693,0.055,1.032,0.123C21.127,30.358,21.108,30.419,21.081,30.477z M25.506,28.007
			c-0.061,0.568-0.321,0.891-0.797,0.983c-0.122,0.028-0.338,0.031-0.49,0.031c-0.145,0-0.304-0.003-0.468-0.007
			c-0.101-0.006-0.204-0.008-0.307-0.009c0.024-0.119,0.046-0.237,0.079-0.328c0.321-0.191,0.638-0.392,0.943-0.606
			c0.314-0.138,0.688-0.201,1.051-0.24C25.514,27.89,25.514,27.946,25.506,28.007z M28.485,25.445
			c-0.115,0.066-0.35,0.139-0.622,0.222c-0.098,0.029-0.2,0.061-0.306,0.094c-0.091,0.03-0.185,0.069-0.278,0.104
			c-0.015-0.122-0.028-0.241-0.025-0.338c0.242-0.284,0.466-0.582,0.687-0.887c0.135-0.111,0.279-0.219,0.445-0.31
			c0.154-0.099,0.317-0.184,0.48-0.266C28.992,24.548,29.036,25.075,28.485,25.445z M15.937,29.147
			c-7.284,0-13.211-5.926-13.211-13.209c0-7.286,5.927-13.212,13.211-13.212s13.21,5.926,13.21,13.212
			C29.147,23.222,23.221,29.147,15.937,29.147z M29.813,9.564c0.47,0.159,0.926,0.412,0.933,1.069
			c-0.005,0.133-0.076,0.38-0.152,0.644c-0.028,0.097-0.057,0.199-0.091,0.327c-0.021,0.083-0.039,0.174-0.058,0.262
			c-0.104-0.053-0.206-0.104-0.282-0.155c-0.109-0.366-0.239-0.722-0.374-1.074C29.756,10.29,29.784,9.917,29.813,9.564z
			 M30.867,20.863c-0.077,0.116-0.313,0.284-0.563,0.463c-0.128,0.093-0.272,0.202-0.412,0.312c-0.053-0.111-0.103-0.217-0.134-0.31
			c0.141-0.359,0.276-0.722,0.389-1.093c0.161-0.286,0.41-0.557,0.654-0.802C31.089,19.858,31.3,20.331,30.867,20.863z M31.15,16.55
			c-0.06,0.084-0.113,0.17-0.171,0.254c-0.086-0.087-0.167-0.169-0.226-0.244c0.009-0.207,0.032-0.412,0.032-0.621
			c0-0.188-0.021-0.368-0.028-0.554c0.066-0.322,0.22-0.648,0.375-0.957c0.045,0.033,0.09,0.063,0.134,0.101
			c0.45,0.375,0.574,0.758,0.388,1.208c-0.044,0.122-0.178,0.321-0.332,0.552C31.265,16.374,31.207,16.463,31.15,16.55z"/>
		<circle cx="27.038" cy="15.774" r="1.014"/>
		<circle cx="4.979" cy="16" r="1.013"/>
		<path d="M19.287,15.362c-0.286-1.453-2.776-2.313-3.354-1.224c-0.578-1.089-3.067-0.229-3.353,1.224
			c-0.375,1.518-2.354,1.936-3.453,1.144c0,1.715,1.848,1.737,2.99,1.848c2.708-0.119,3.564-1.367,3.816-1.938
			c0.252,0.571,1.108,1.819,3.816,1.938c1.143-0.11,2.99-0.133,2.99-1.848C21.64,17.298,19.661,16.88,19.287,15.362z"/>
		<path d="M18.354,25.488c-0.454-0.135-1.506,1.174-1.682,1.174c-0.031,0-0.336,0-0.367,0c-0.176,0-1.228-1.309-1.682-1.174
			c-0.454,0.133-0.627,2.806-0.086,2.806s1.44-0.645,1.582-0.697c0.052-0.02,0.688-0.02,0.74,0c0.14,0.053,1.04,0.697,1.581,0.697
			S18.807,25.621,18.354,25.488z"/>
	</g>
</g>
<g>
</g>
<g>
</g>
<g>
</g>
<g>
</g>
<g>
</g>
<g>
</g>
<g>
</g>
<g>
</g>
<g>
</g>
<g>
</g>
<g>
</g>
<g>
</g>
<g>
</g>
<g>
</g>
<g>
</g>
</svg>
