<?xml version="1.0" encoding="iso-8859-1"?>
<!-- Generator: Adobe Illustrator 16.0.0, SVG Export Plug-In . SVG Version: 6.00 Build 0)  -->
<!DOCTYPE svg PUBLIC "-//W3C//DTD SVG 1.1//EN" "http://www.w3.org/Graphics/SVG/1.1/DTD/svg11.dtd">
<svg version="1.1" id="Layer_1" xmlns="http://www.w3.org/2000/svg" xmlns:xlink="http://www.w3.org/1999/xlink" x="0px" y="0px"
	 width="31.985px" height="32px" viewBox="0 0 31.985 32" style="enable-background:new 0 0 31.985 32;" xml:space="preserve">
<g>
	<path d="M31.529,16.427c0.163-0.245,0.304-0.456,0.356-0.601c0.226-0.545,0.071-1.047-0.458-1.487
		c-0.063-0.054-0.123-0.094-0.187-0.141c0.152-0.326,0.299-0.621,0.333-0.792c0.157-0.635-0.214-1.02-0.621-1.266
		c-0.094-0.06-0.187-0.104-0.28-0.152c0.025-0.114,0.049-0.228,0.076-0.341c0.029-0.105,0.058-0.206,0.085-0.303
		c0.083-0.289,0.155-0.539,0.162-0.708c-0.009-0.845-0.623-1.15-1.155-1.324c0.045-0.359,0.094-0.68,0.076-0.854
		c-0.131-0.805-0.778-0.97-1.337-1.051c-0.017-0.191-0.029-0.384-0.036-0.556c-0.015-0.361-0.027-0.646-0.097-0.804
		c-0.247-0.799-0.917-0.892-1.4-0.892c-0.036,0-0.068,0.004-0.104,0.004c-0.07-0.361-0.126-0.676-0.22-0.824
		c-0.36-0.744-1.034-0.676-1.594-0.567c-0.086-0.189-0.167-0.382-0.238-0.552c-0.122-0.299-0.227-0.557-0.33-0.699
		c-0.232-0.335-0.556-0.505-0.964-0.505c-0.16,0-0.333,0.025-0.529,0.077c-0.08,0.021-0.147,0.053-0.223,0.08
		c-0.186-0.312-0.344-0.585-0.47-0.715c-0.448-0.474-0.981-0.354-1.401-0.17c-0.108,0.047-0.204,0.104-0.302,0.16
		c-0.138-0.148-0.272-0.302-0.389-0.438c-0.226-0.264-0.404-0.473-0.555-0.566c-0.483-0.316-0.999-0.295-1.549,0.078
		c-0.066,0.051-0.119,0.101-0.18,0.151c-0.277-0.238-0.513-0.449-0.675-0.52c-0.582-0.265-1.042-0.028-1.381,0.283
		c-0.085,0.086-0.157,0.174-0.229,0.26c-0.167-0.09-0.333-0.184-0.488-0.275c-0.313-0.186-0.561-0.333-0.733-0.363
		c-0.585-0.164-1.082,0.038-1.44,0.58c-0.046,0.065-0.08,0.127-0.12,0.191c-0.338-0.137-0.633-0.261-0.807-0.265
		c-0.641-0.079-1.005,0.278-1.211,0.722c-0.053,0.104-0.092,0.207-0.134,0.31c-0.206-0.032-0.411-0.069-0.604-0.106
		C9.877,1.43,9.62,1.381,9.443,1.381H9.408C8.559,1.406,8.316,2.155,8.235,2.401C8.21,2.479,8.2,2.55,8.182,2.626
		C7.822,2.612,7.51,2.596,7.333,2.63C6.691,2.745,6.501,3.261,6.427,3.711c-0.02,0.115-0.024,0.227-0.031,0.337
		C6.207,4.08,6.016,4.107,5.834,4.13C5.473,4.174,5.186,4.209,5.031,4.292c-0.785,0.329-0.817,1.014-0.76,1.571
		C3.923,5.96,3.62,6.043,3.482,6.145C2.78,6.572,2.896,7.233,3.049,7.78C2.976,7.818,2.904,7.86,2.831,7.897L2.723,7.954
		C2.628,8.006,2.536,8.055,2.446,8.101C2.185,8.238,1.958,8.356,1.842,8.46C1.168,8.999,1.448,9.742,1.541,9.988
		c0.029,0.074,0.062,0.138,0.094,0.207c-0.286,0.211-0.545,0.393-0.657,0.524c-0.447,0.484-0.281,1.005-0.054,1.411
		c0.058,0.1,0.119,0.186,0.179,0.274c-0.155,0.177-0.315,0.345-0.459,0.494c-0.205,0.215-0.383,0.398-0.483,0.55
		c-0.386,0.747,0.002,1.308,0.385,1.713c-0.202,0.286-0.383,0.536-0.46,0.698c-0.261,0.767,0.223,1.22,0.671,1.559
		c-0.077,0.175-0.16,0.35-0.24,0.513c-0.163,0.331-0.291,0.593-0.305,0.769c-0.155,0.842,0.407,1.242,0.909,1.499
		c-0.108,0.342-0.206,0.64-0.194,0.81c-0.026,0.82,0.586,1.084,1.126,1.255c-0.008,0.091-0.013,0.183-0.022,0.273l-0.011,0.097
		C2.01,22.738,2,22.841,1.991,22.938c-0.028,0.297-0.053,0.553-0.031,0.709c0.083,0.854,0.857,1.03,1.115,1.089
		c0.082,0.017,0.156,0.023,0.234,0.035c0.021,0.354,0.031,0.669,0.081,0.835c0.161,0.639,0.688,0.781,1.151,0.816
		c0.111,0.006,0.213,0.002,0.317,0.001c0.056,0.209,0.104,0.42,0.146,0.608c0.071,0.329,0.128,0.59,0.21,0.749
		c0.278,0.515,0.768,0.731,1.401,0.667c0.089-0.013,0.167-0.033,0.25-0.051c0.128,0.332,0.235,0.623,0.337,0.766
		c0.385,0.512,0.904,0.523,1.351,0.407c0.108-0.033,0.206-0.074,0.307-0.112c0.069,0.106,0.14,0.216,0.196,0.313
		c0.239,0.387,0.435,0.694,0.583,0.838c0.233,0.229,0.499,0.354,0.8,0.375c0.231-0.004,0.476-0.069,0.745-0.203
		c0.075-0.036,0.137-0.077,0.207-0.117c0.234,0.275,0.442,0.51,0.583,0.61c0.26,0.188,0.518,0.247,0.754,0.229
		c0.24-0.039,0.459-0.153,0.656-0.291c0.089-0.062,0.166-0.126,0.245-0.192c0.172,0.13,0.339,0.264,0.487,0.385
		c0.249,0.204,0.463,0.379,0.619,0.455C14.912,31.952,15.091,32,15.27,32c0.427,0,0.766-0.272,0.985-0.479
		c0.064-0.062,0.113-0.123,0.17-0.187c0.306,0.181,0.573,0.345,0.743,0.397c0.622,0.219,1.03-0.158,1.313-0.519
		c0.065-0.087,0.118-0.173,0.173-0.259c0.207,0.067,0.409,0.143,0.589,0.211c0.312,0.117,0.558,0.21,0.736,0.231
		c0.583,0.042,1.022-0.227,1.325-0.811c0.039-0.082,0.064-0.159,0.095-0.24c0.352,0.075,0.658,0.146,0.835,0.14
		c0.639-0.045,0.931-0.475,1.079-0.909c0.033-0.111,0.052-0.217,0.074-0.324c0.118,0.001,0.236,0.004,0.356,0.011
		c0.169,0.004,0.331,0.006,0.476,0.006c0.264,0,0.432-0.012,0.541-0.035c0.585-0.115,0.919-0.519,0.992-1.197
		c0.011-0.084,0.012-0.159,0.016-0.24c0.362-0.047,0.675-0.092,0.838-0.155c0.616-0.221,0.742-0.732,0.72-1.212
		c-0.003-0.107-0.016-0.206-0.026-0.308c0.112-0.042,0.225-0.088,0.333-0.124c0.104-0.033,0.204-0.064,0.301-0.093
		c0.299-0.091,0.535-0.163,0.681-0.249c0.709-0.475,0.623-1.164,0.476-1.706c0.325-0.157,0.617-0.288,0.751-0.396
		c0.6-0.548,0.389-1.176,0.154-1.688c0.15-0.117,0.304-0.23,0.451-0.336c0.293-0.209,0.524-0.375,0.618-0.52
		c0.543-0.664,0.234-1.287-0.087-1.753c0.264-0.257,0.498-0.477,0.57-0.635c0.417-0.706,0.002-1.23-0.394-1.637
		c0.065-0.099,0.128-0.195,0.199-0.295C31.414,16.598,31.473,16.51,31.529,16.427z M1.19,19.957
		c-0.454-0.237-0.857-0.553-0.734-1.226c0.011-0.141,0.143-0.408,0.282-0.69c0.074-0.149,0.148-0.311,0.22-0.472
		c0.096,0.07,0.186,0.137,0.255,0.199c0.049,0.401,0.104,0.802,0.186,1.192C1.384,19.284,1.289,19.631,1.19,19.957z M1.223,14.037
		c-0.136,0.313-0.338,0.626-0.536,0.915c-0.334-0.363-0.612-0.803-0.313-1.377c0.08-0.121,0.25-0.299,0.448-0.504
		c0.131-0.137,0.277-0.292,0.419-0.451c0.062,0.092,0.125,0.182,0.167,0.26C1.328,13.261,1.273,13.648,1.223,14.037z M28.213,6.135
		c0.056,0.129,0.069,0.42,0.082,0.728c0.007,0.157,0.021,0.335,0.035,0.51c-0.12-0.016-0.233-0.031-0.326-0.055
		c-0.221-0.308-0.445-0.613-0.688-0.904c-0.157-0.295-0.25-0.66-0.324-1.008C27.478,5.394,28.006,5.465,28.213,6.135z M23.129,2.331
		c0.593-0.158,0.961-0.054,1.227,0.329c0.086,0.122,0.187,0.367,0.303,0.65c0.064,0.157,0.141,0.334,0.22,0.508
		c-0.118,0.024-0.23,0.045-0.323,0.052c-0.31-0.223-0.627-0.428-0.954-0.625c-0.234-0.247-0.442-0.56-0.628-0.859
		C23.027,2.368,23.075,2.345,23.129,2.331z M18.32,0.722c0.458-0.311,0.867-0.337,1.272-0.072c0.121,0.075,0.305,0.291,0.5,0.519
		c0.106,0.125,0.229,0.264,0.354,0.398c-0.093,0.055-0.187,0.11-0.267,0.147c-0.382-0.114-0.77-0.217-1.164-0.3
		c-0.288-0.146-0.57-0.364-0.828-0.581C18.231,0.796,18.272,0.757,18.32,0.722z M13.254,0.776c0.231-0.35,0.52-0.527,0.854-0.527
		c0.1,0,0.205,0.016,0.326,0.048c0.14,0.025,0.394,0.177,0.662,0.335c0.134,0.08,0.291,0.166,0.447,0.252
		C15.472,0.97,15.4,1.058,15.334,1.12c-0.392,0.015-0.784,0.038-1.168,0.085c-0.328-0.038-0.674-0.161-1-0.289
		C13.196,0.87,13.221,0.823,13.254,0.776z M8.472,2.479c0.186-0.574,0.477-0.836,0.972-0.85c0.153,0,0.4,0.046,0.684,0.102
		c0.167,0.032,0.358,0.065,0.55,0.096c-0.042,0.105-0.082,0.211-0.127,0.288C10.192,2.256,9.844,2.411,9.5,2.577
		C9.164,2.639,8.787,2.643,8.434,2.634C8.448,2.581,8.454,2.529,8.472,2.479z M5.137,4.516C5.262,4.45,5.555,4.414,5.865,4.375
		c0.157-0.02,0.334-0.046,0.51-0.075C6.37,4.412,6.366,4.525,6.353,4.615C6.05,4.871,5.757,5.132,5.478,5.411
		C5.195,5.579,4.847,5.695,4.515,5.794C4.465,5.287,4.512,4.778,5.137,4.516z M1.838,10.044c-0.022-0.05-0.046-0.093-0.066-0.145
		C1.559,9.332,1.628,8.949,2,8.65c0.1-0.088,0.313-0.2,0.561-0.331c0.09-0.046,0.184-0.096,0.278-0.146l0.105-0.055
		C3.001,8.09,3.061,8.055,3.118,8.023c0.035,0.117,0.066,0.229,0.08,0.323c-0.196,0.329-0.38,0.664-0.551,1.009
		C2.43,9.616,2.122,9.837,1.838,10.044z M3.128,24.494c-0.592-0.136-0.877-0.403-0.922-0.875c-0.019-0.133,0.005-0.376,0.032-0.657
		c0.01-0.099,0.02-0.201,0.028-0.305l0.009-0.095c0.008-0.071,0.011-0.15,0.018-0.224c0.119,0.036,0.232,0.07,0.32,0.11
		c0.168,0.345,0.351,0.682,0.544,1.011c0.103,0.326,0.12,0.706,0.137,1.06C3.238,24.511,3.185,24.506,3.128,24.494z M6.584,28.202
		c-0.065,0.007-0.129,0.011-0.195,0.011c-0.444,0-0.758-0.18-0.956-0.547c-0.066-0.128-0.122-0.388-0.188-0.687
		c-0.038-0.172-0.084-0.364-0.132-0.555c0.116-0.003,0.23-0.007,0.324,0.002c0.275,0.272,0.565,0.53,0.857,0.78
		c0.194,0.279,0.347,0.627,0.479,0.957C6.71,28.177,6.649,28.192,6.584,28.202z M11.074,30.558
		c-0.235,0.117-0.444,0.176-0.628,0.178c-0.231-0.016-0.444-0.118-0.634-0.304C9.684,30.308,9.489,30,9.269,29.644
		c-0.048-0.083-0.114-0.18-0.172-0.271c0.115-0.046,0.227-0.091,0.32-0.113c0.348,0.17,0.7,0.33,1.06,0.474
		c0.277,0.19,0.523,0.465,0.749,0.739C11.175,30.501,11.128,30.532,11.074,30.558z M16.083,31.342
		c-0.187,0.177-0.475,0.41-0.813,0.41c-0.137,0-0.278-0.037-0.422-0.114c-0.132-0.064-0.337-0.232-0.575-0.427
		c-0.134-0.109-0.289-0.229-0.443-0.348c0.093-0.078,0.183-0.153,0.262-0.204c0.382,0.047,0.77,0.074,1.161,0.092
		c0.322,0.107,0.648,0.284,0.951,0.458C16.163,31.254,16.128,31.3,16.083,31.342z M21.081,30.477
		c-0.236,0.455-0.556,0.677-0.979,0.677c-0.033,0-0.068-0.002-0.099-0.004c-0.143-0.017-0.389-0.109-0.672-0.217
		c-0.164-0.063-0.35-0.128-0.535-0.19c0.061-0.099,0.12-0.196,0.177-0.271c0.389-0.081,0.77-0.184,1.147-0.296
		c0.332-0.006,0.693,0.056,1.032,0.123C21.127,30.358,21.108,30.419,21.081,30.477z M15.937,29.148c-3.751,0-7.133-1.579-9.54-4.098
		h0.901c1.802,1.714,4.122,2.917,6.762,3.316c0.623,0.094,1.256,0.142,1.881,0.142c3.283,0,6.323-1.315,8.595-3.458h0.941
		C23.07,27.569,19.688,29.148,15.937,29.148z M8.834,20.665v-1.393h0.669v3.631H8.834v-1.567H7.605v1.567H6.937v-3.631h0.668v1.393
		H8.834z M11.364,20.856c-0.021-0.046-0.049-0.082-0.085-0.106c-0.035-0.026-0.077-0.043-0.123-0.052
		c-0.047-0.009-0.098-0.013-0.151-0.013c-0.116,0-0.209,0.03-0.279,0.091c-0.07,0.062-0.11,0.164-0.122,0.307h-0.604
		c0.008-0.17,0.043-0.311,0.106-0.422c0.062-0.112,0.142-0.203,0.238-0.271c0.097-0.067,0.204-0.116,0.323-0.146
		c0.119-0.027,0.241-0.042,0.367-0.042c0.11,0,0.223,0.009,0.336,0.027s0.217,0.055,0.311,0.109c0.094,0.055,0.17,0.13,0.229,0.229
		c0.06,0.098,0.09,0.225,0.09,0.381v1.368c0,0.118,0.005,0.232,0.017,0.341s0.031,0.189,0.06,0.244h-0.613
		c-0.011-0.041-0.021-0.082-0.028-0.125s-0.012-0.085-0.015-0.13c-0.097,0.119-0.21,0.203-0.34,0.252
		c-0.131,0.049-0.265,0.074-0.4,0.074c-0.105,0-0.203-0.017-0.294-0.048c-0.091-0.033-0.17-0.082-0.238-0.146
		c-0.068-0.065-0.121-0.146-0.16-0.244c-0.039-0.099-0.057-0.216-0.057-0.352c0-0.148,0.021-0.271,0.064-0.368
		c0.042-0.097,0.099-0.174,0.17-0.231c0.071-0.058,0.151-0.101,0.24-0.13s0.181-0.051,0.275-0.068
		c0.093-0.017,0.183-0.031,0.268-0.041c0.085-0.011,0.161-0.025,0.228-0.045c0.066-0.021,0.12-0.051,0.16-0.09
		c0.04-0.039,0.059-0.096,0.059-0.17C11.396,20.964,11.386,20.901,11.364,20.856z M24.174,25.051
		c-2.205,1.994-5.108,3.21-8.233,3.21c-0.614,0-1.234-0.047-1.845-0.14c-2.497-0.376-4.704-1.484-6.442-3.07H24.174z M13.09,20.273
		v2.63h-0.604v-2.63H13.09z M12.486,19.867v-0.595h0.604v0.595H12.486z M14.149,20.763c0.028-0.082,0.067-0.157,0.115-0.227
		c0.047-0.07,0.104-0.129,0.166-0.179c0.062-0.049,0.13-0.087,0.202-0.114c0.073-0.026,0.146-0.04,0.219-0.04
		c0.045,0,0.09,0.008,0.133,0.025v0.671c-0.029-0.007-0.063-0.014-0.103-0.018c-0.04-0.005-0.079-0.008-0.115-0.008
		c-0.11,0-0.204,0.021-0.281,0.066c-0.076,0.044-0.138,0.104-0.185,0.18c-0.047,0.077-0.081,0.167-0.1,0.271
		c-0.02,0.104-0.03,0.213-0.03,0.328v1.185h-0.605v-2.63h0.575v0.489H14.149z M17.686,22.016c-0.031-0.039-0.076-0.073-0.134-0.104
		c-0.058-0.03-0.13-0.059-0.215-0.083c-0.085-0.026-0.181-0.053-0.29-0.079c-0.088-0.023-0.173-0.052-0.257-0.085
		c-0.083-0.032-0.158-0.074-0.223-0.127c-0.065-0.052-0.118-0.118-0.158-0.198c-0.04-0.079-0.06-0.177-0.06-0.292
		c0-0.167,0.028-0.304,0.083-0.414s0.128-0.196,0.219-0.26c0.091-0.063,0.193-0.107,0.307-0.132c0.113-0.025,0.229-0.038,0.35-0.038
		c0.119,0,0.234,0.014,0.346,0.04c0.112,0.027,0.212,0.073,0.3,0.138c0.088,0.064,0.16,0.15,0.218,0.257s0.093,0.242,0.105,0.404
		h-0.574c-0.009-0.14-0.053-0.233-0.132-0.282c-0.08-0.05-0.173-0.074-0.281-0.074c-0.034,0-0.071,0.002-0.11,0.008
		c-0.04,0.005-0.077,0.016-0.108,0.033c-0.033,0.017-0.061,0.042-0.083,0.073c-0.023,0.032-0.034,0.076-0.034,0.13
		c0,0.065,0.02,0.117,0.059,0.158c0.04,0.04,0.092,0.073,0.156,0.099s0.137,0.048,0.219,0.068s0.167,0.043,0.251,0.066
		c0.087,0.023,0.173,0.053,0.258,0.087c0.083,0.033,0.158,0.078,0.222,0.134c0.066,0.057,0.118,0.126,0.158,0.209
		c0.04,0.084,0.06,0.187,0.06,0.309c0,0.172-0.029,0.317-0.087,0.434c-0.059,0.117-0.135,0.212-0.229,0.283
		c-0.093,0.07-0.2,0.122-0.321,0.152c-0.12,0.03-0.243,0.046-0.368,0.046c-0.128,0-0.252-0.016-0.375-0.046s-0.23-0.083-0.325-0.155
		c-0.096-0.072-0.173-0.169-0.234-0.287c-0.061-0.118-0.095-0.265-0.1-0.438h0.574c0,0.078,0.013,0.145,0.041,0.201
		c0.027,0.056,0.062,0.102,0.104,0.138c0.042,0.034,0.091,0.062,0.146,0.078c0.055,0.018,0.113,0.025,0.172,0.025
		c0.042,0,0.088-0.006,0.134-0.018c0.047-0.012,0.089-0.031,0.128-0.057c0.038-0.025,0.07-0.059,0.096-0.102
		c0.025-0.042,0.038-0.096,0.038-0.159C17.732,22.102,17.717,22.055,17.686,22.016z M19.898,20.273v0.483h-0.442v1.303
		c0,0.121,0.016,0.203,0.051,0.243c0.034,0.041,0.102,0.062,0.204,0.062c0.068,0,0.13-0.007,0.187-0.021v0.564
		c-0.051,0.011-0.107,0.017-0.17,0.021c-0.062,0.004-0.123,0.005-0.183,0.005c-0.094,0-0.182-0.007-0.266-0.022
		c-0.083-0.016-0.157-0.046-0.221-0.092s-0.114-0.109-0.151-0.191c-0.037-0.081-0.055-0.188-0.055-0.32v-1.551h-0.367v-0.483h0.367
		v-0.788h0.604v0.788H19.898z M20.707,22.74l-0.774-2.467h0.646l0.497,1.8h0.009l0.481-1.8h0.625l-0.918,2.961
		c-0.066,0.21-0.157,0.361-0.273,0.454c-0.116,0.094-0.278,0.14-0.485,0.14c-0.063,0-0.124-0.002-0.185-0.007
		c-0.061-0.006-0.123-0.012-0.186-0.019v-0.595c0.057,0.007,0.115,0.014,0.175,0.021c0.059,0.007,0.119,0.009,0.178,0.006
		c0.051-0.007,0.095-0.027,0.131-0.06c0.035-0.031,0.061-0.071,0.078-0.119c0.017-0.047,0.025-0.099,0.025-0.152
		C20.732,22.845,20.724,22.791,20.707,22.74z M22.413,22.903v-3.631h0.604v3.631H22.413z M25.506,28.007
		c-0.061,0.568-0.321,0.891-0.797,0.983c-0.122,0.028-0.338,0.031-0.49,0.031c-0.144,0-0.304-0.003-0.467-0.007
		c-0.101-0.006-0.205-0.008-0.307-0.009c0.024-0.119,0.046-0.237,0.079-0.328c0.321-0.191,0.638-0.391,0.943-0.605
		c0.314-0.139,0.688-0.202,1.051-0.241C25.514,27.89,25.514,27.946,25.506,28.007z M24.141,22.271
		c0.091,0.106,0.221,0.159,0.391,0.159c0.122,0,0.228-0.036,0.315-0.109c0.087-0.072,0.141-0.149,0.162-0.231h0.531
		c-0.085,0.313-0.215,0.538-0.391,0.677c-0.176,0.14-0.389,0.209-0.639,0.209c-0.173,0-0.329-0.034-0.467-0.103
		c-0.139-0.067-0.257-0.162-0.353-0.284c-0.097-0.122-0.171-0.269-0.224-0.438c-0.052-0.17-0.079-0.356-0.079-0.56
		c0-0.196,0.026-0.379,0.081-0.549c0.054-0.169,0.13-0.316,0.229-0.44c0.1-0.124,0.217-0.221,0.356-0.292
		c0.137-0.072,0.29-0.106,0.457-0.106c0.188,0,0.351,0.042,0.49,0.13c0.14,0.086,0.254,0.202,0.343,0.348s0.154,0.313,0.193,0.499
		c0.04,0.186,0.054,0.381,0.043,0.584h-1.587C24,21.994,24.05,22.163,24.141,22.271z M3.751,17.7
		c-0.168-1.163-0.175-2.369,0.009-3.589C4.661,8.139,9.891,3.635,15.924,3.635c0.614,0,1.235,0.048,1.846,0.139
		c3.247,0.489,6.111,2.219,8.065,4.868c1.938,2.626,2.743,5.84,2.279,9.059H3.751z M28.485,25.445
		c-0.115,0.066-0.35,0.139-0.622,0.222c-0.098,0.029-0.2,0.061-0.306,0.094c-0.091,0.03-0.185,0.07-0.278,0.104
		c-0.015-0.122-0.028-0.241-0.025-0.338c0.242-0.284,0.467-0.582,0.688-0.887c0.134-0.111,0.278-0.218,0.445-0.31
		c0.154-0.099,0.317-0.184,0.48-0.266C28.992,24.548,29.036,25.075,28.485,25.445z M29.016,17.7h-0.651
		c0.46-3.271-0.36-6.536-2.33-9.206c-1.994-2.702-4.915-4.466-8.228-4.965c-0.623-0.095-1.256-0.143-1.882-0.143
		c-6.156,0-11.491,4.595-12.411,10.688c-0.186,1.233-0.179,2.45-0.012,3.626H2.858c-0.078-0.578-0.132-1.163-0.132-1.762
		c0-7.286,5.927-13.212,13.211-13.212s13.21,5.926,13.21,13.212C29.147,16.537,29.093,17.122,29.016,17.7z M29.814,9.564
		c0.469,0.158,0.926,0.412,0.933,1.069c-0.005,0.133-0.076,0.38-0.152,0.644c-0.028,0.097-0.057,0.199-0.091,0.327
		c-0.021,0.083-0.039,0.174-0.058,0.262c-0.104-0.053-0.206-0.104-0.282-0.155c-0.109-0.366-0.239-0.722-0.374-1.074
		C29.756,10.29,29.784,9.917,29.814,9.564z M30.867,20.863c-0.077,0.116-0.313,0.284-0.563,0.463
		c-0.129,0.093-0.272,0.202-0.413,0.312c-0.053-0.111-0.103-0.217-0.134-0.31c0.141-0.359,0.277-0.722,0.389-1.093
		c0.161-0.286,0.41-0.557,0.654-0.802C31.089,19.858,31.3,20.331,30.867,20.863z M31.15,16.55c-0.06,0.084-0.113,0.17-0.171,0.254
		c-0.086-0.087-0.167-0.169-0.226-0.244c0.009-0.207,0.032-0.412,0.032-0.621c0-0.188-0.021-0.368-0.028-0.554
		c0.066-0.322,0.22-0.648,0.375-0.957c0.045,0.033,0.09,0.063,0.135,0.101c0.45,0.375,0.574,0.758,0.388,1.209
		c-0.044,0.121-0.178,0.32-0.332,0.551C31.266,16.374,31.207,16.463,31.15,16.55z"/>
	<path d="M24.494,20.747c-0.097,0-0.177,0.02-0.241,0.058c-0.064,0.04-0.114,0.088-0.153,0.146s-0.065,0.119-0.081,0.183
		c-0.016,0.065-0.024,0.122-0.027,0.174h0.983c-0.029-0.184-0.08-0.322-0.152-0.417C24.751,20.794,24.641,20.747,24.494,20.747z"/>
	<path d="M11.178,21.719c-0.045,0.01-0.091,0.019-0.141,0.024c-0.05,0.008-0.098,0.016-0.143,0.025
		c-0.047,0.011-0.093,0.024-0.135,0.041c-0.043,0.018-0.081,0.039-0.113,0.068c-0.033,0.029-0.059,0.066-0.079,0.112
		c-0.021,0.046-0.03,0.101-0.03,0.166c0,0.067,0.009,0.122,0.03,0.164c0.02,0.043,0.046,0.076,0.081,0.102
		c0.035,0.026,0.074,0.044,0.12,0.055c0.044,0.01,0.092,0.015,0.141,0.015c0.119,0,0.211-0.023,0.276-0.071
		c0.065-0.047,0.114-0.104,0.145-0.17c0.031-0.067,0.05-0.134,0.057-0.201c0.008-0.068,0.011-0.122,0.011-0.163v-0.27
		c-0.025,0.027-0.057,0.048-0.096,0.063C11.263,21.695,11.221,21.708,11.178,21.719z"/>
	<path d="M22.893,10.072c-0.577-1.759-2.367-2.253-2.676-2.294c-0.309-0.041-0.116-0.492-0.333-0.738
		c-0.442-0.618-1.77-0.563-3.247-1.123c-0.811-0.307-1.53-0.768-1.687-0.607c0.546,0.154,1.018,0.659,1.018,0.659
		s-1.183-0.629-1.371-0.256c0.539,0.069,1.166,0.317,0.909,0.338c-2.716,0.575-3.888,1.635-3.888,1.635S10.382,8.015,10.99,8.89
		c-0.298-0.052-1.204,0.729-1.266,1.285s0.36,3.262,0.36,3.262s0.247,2.51,0.752,2.859c0.308-0.031,0.205-3.199,0.205-3.199
		s0.247-0.104,0.392,0.195c0.113-0.226-0.145-0.648-0.145-0.648s0.133,0,0.432,0.371c0.042-0.309-0.258-0.844-0.258-0.844
		l0.094-0.565l0.461,0.37l-0.164-0.884c0,0,0.998,0.287,1.964-0.073s2.623-0.504,3.386-0.153c0.76,0.349,1.706,0.832,2.077,3.167
		c0.638-0.401-0.441-2.479-0.441-2.479s0.513,0.011,0.884,0.999c0.34-0.854-1.059-1.749-1.059-1.749s1.914,0.494,1.81,0.915
		c-0.041,0.289-0.093,4.836,0.206,4.794c0.298-0.041,0.442-1.193,0.566-1.893c0.076-0.431,0.508-1.42,0.924-2.171
		c0.262-0.469,0.59-0.727,0.597-1.059c0.022-0.864-1.018-2.048-1.018-2.048S22.223,9.311,22.893,10.072z"/>
</g>
<g>
</g>
<g>
</g>
<g>
</g>
<g>
</g>
<g>
</g>
<g>
</g>
<g>
</g>
<g>
</g>
<g>
</g>
<g>
</g>
<g>
</g>
<g>
</g>
<g>
</g>
<g>
</g>
<g>
</g>
</svg>
