<?xml version="1.0" encoding="iso-8859-1"?>
<!-- Generator: Adobe Illustrator 16.0.0, SVG Export Plug-In . SVG Version: 6.00 Build 0)  -->
<!DOCTYPE svg PUBLIC "-//W3C//DTD SVG 1.1//EN" "http://www.w3.org/Graphics/SVG/1.1/DTD/svg11.dtd">
<svg version="1.1" id="Layer_1" xmlns="http://www.w3.org/2000/svg" xmlns:xlink="http://www.w3.org/1999/xlink" x="0px" y="0px"
	 width="20.935px" height="31.875px" viewBox="0 0 20.935 31.875" style="enable-background:new 0 0 20.935 31.875;"
	 xml:space="preserve">
<g>
	<path d="M20.935,23.643c0-3.223-2.411-5.963-5.786-7.022v-4.523h-6.47v4.622c-3.211,1.126-5.47,3.801-5.47,6.924
		c0,2.601,1.567,4.89,3.945,6.235v1.997h9.784v-1.97C19.343,28.564,20.935,26.263,20.935,23.643z"/>
	<path d="M9.652,8.179c0.148,0.296,0.092,1.848,0.064,2.446H9.257v1.184h5.392v-1.184h-0.5V8.39l2.757-1.615h2.911V5.934h-2.656
		l-3.062-1.65l-0.005,0.009L2.051,0l-0.92,2.341l2.998,1.525v2.078L0,14.438l0.473,0.447C0.473,14.886,6.575,6.812,9.652,8.179z
		 M14.149,7.415V5.268l1.91,1.028L14.149,7.415z"/>
</g>
<g>
</g>
<g>
</g>
<g>
</g>
<g>
</g>
<g>
</g>
<g>
</g>
<g>
</g>
<g>
</g>
<g>
</g>
<g>
</g>
<g>
</g>
<g>
</g>
<g>
</g>
<g>
</g>
<g>
</g>
</svg>
