<?xml version="1.0" encoding="utf-8"?>
<!-- Generator: Adobe Illustrator 16.0.4, SVG Export Plug-In . SVG Version: 6.00 Build 0)  -->
<!DOCTYPE svg PUBLIC "-//W3C//DTD SVG 1.1//EN" "http://www.w3.org/Graphics/SVG/1.1/DTD/svg11.dtd">
<svg version="1.1" id="Layer_1" xmlns="http://www.w3.org/2000/svg" xmlns:xlink="http://www.w3.org/1999/xlink" x="0px" y="0px"
	 width="121.517px" height="192.752px" viewBox="0 0 121.517 192.752" enable-background="new 0 0 121.517 192.752"
	 xml:space="preserve">
<g>
	<path d="M33.43,78.248H3.112v17.706c0,0,8.85,3.769,8.85,9.98c0,4.949-1.695,18.892-1.695,27.872c0,6.972,1.131,57.82,8.008,56.312
		c6.875,1.508,8-49.341,8-56.312c0-8.98-1.695-22.923-1.695-27.872c0-6.212,8.851-9.98,8.851-9.98l0,0V78.248z"/>
	<rect y="73.825" width="36.159" height="3.114"/>
	<rect y="69.495" width="36.159" height="3.108"/>
	<rect y="64.697" width="36.159" height="3.109"/>
	<rect y="60.362" width="36.159" height="3.114"/>
	<rect y="55.272" width="36.159" height="3.108"/>
	<rect y="50.948" width="36.159" height="3.108"/>
	<rect y="46.138" width="36.159" height="3.115"/>
	<rect y="41.809" width="36.159" height="3.108"/>
	<rect x="0.193" y="37.38" width="36.158" height="3.114"/>
	<rect x="0.193" y="33.05" width="36.158" height="3.109"/>
	<rect x="0.193" y="27.966" width="36.158" height="3.115"/>
	<rect x="0.193" y="23.636" width="36.158" height="3.103"/>
	<rect x="0.193" y="18.833" width="36.158" height="3.103"/>
	<rect x="0.193" y="14.503" width="36.158" height="3.109"/>
	<rect y="9.7" width="36.159" height="3.114"/>
	<path d="M33.43,2.729c0,0-3.956-2.729-15.348-2.729C6.69,0,3.112,2.729,3.112,2.729v6.03H33.43V2.729z"/>
</g>
<g>
	<path d="M67.739,95.954c0,0,13.884,3.769,13.884,9.98c0,4.949-2.658,18.892-2.658,27.872c0,6.972,1.776,57.82,12.552,56.312
		c10.786,1.508,12.557-49.341,12.557-56.312c0-8.98-2.658-22.923-2.658-27.872c0-6.212,13.884-9.98,13.884-9.98V78.248h-47.56
		V95.954z"/>
	<rect x="61.673" y="73.135" width="56.71" height="2.553"/>
	<rect x="61.966" y="68.297" width="56.709" height="2.554"/>
	<rect x="62.115" y="63.692" width="56.713" height="2.554"/>
	<rect x="62.267" y="58.854" width="56.712" height="2.56"/>
	<rect x="62.416" y="53.852" width="56.716" height="2.554"/>
	<rect x="62.565" y="49.019" width="56.713" height="2.554"/>
	<rect x="62.416" y="43.831" width="56.716" height="2.554"/>
	<rect x="62.713" y="39.062" width="56.71" height="2.554"/>
	<rect x="62.713" y="34.219" width="56.71" height="2.56"/>
	<rect x="62.713" y="29.03" width="56.71" height="2.553"/>
	<rect x="62.713" y="23.566" width="56.71" height="2.554"/>
	<rect x="62.713" y="18.511" width="56.71" height="2.554"/>
	<rect x="63.164" y="13.439" width="56.716" height="2.548"/>
	<path d="M114.1,4.534c0,0-6.199-2.729-24.068-2.729c-17.875,0-23.479,2.729-23.479,2.729v6.037h47.553V4.534H114.1z"/>
</g>
</svg>
