<?xml version="1.0" encoding="iso-8859-1"?>
<!-- Generator: Adobe Illustrator 16.0.0, SVG Export Plug-In . SVG Version: 6.00 Build 0)  -->
<!DOCTYPE svg PUBLIC "-//W3C//DTD SVG 1.1//EN" "http://www.w3.org/Graphics/SVG/1.1/DTD/svg11.dtd">
<svg version="1.1" id="Layer_1" xmlns="http://www.w3.org/2000/svg" xmlns:xlink="http://www.w3.org/1999/xlink" x="0px" y="0px"
	 width="31.953px" height="32px" viewBox="0 0 31.953 32" style="enable-background:new 0 0 31.953 32;" xml:space="preserve">
<g>
	<path d="M14.479,10c1.872-0.081,2.463-0.945,2.637-1.339c0.176,0.394,0.767,1.258,2.638,1.339c0.791-0.076,2.069-0.091,2.069-1.277
		c-0.762,0.548-2.129,0.259-2.388-0.791c-0.197-1.004-1.918-1.598-2.319-0.844c-0.399-0.754-2.12-0.16-2.318,0.844
		c-0.259,1.05-1.626,1.339-2.387,0.791C12.411,9.909,13.689,9.924,14.479,10z"/>
	<path d="M10.616,12.024c0,0-0.744,1.429-1.289,2.494c0.12,0.242,0.228,0.459,0.312,0.633l1.123-3.256L10.616,12.024z"/>
	<path d="M8.761,15.647c-0.459,0.89-1.427,1.263-1.497,1.289c-0.325,0.074-0.604,0.34-0.715,0.7
		c-0.076,0.247-0.062,0.509,0.039,0.733c0.104,0.232,0.287,0.399,0.516,0.468c0.074,0.023,0.15,0.034,0.228,0.035
		c0.402,0.003,0.775-0.293,0.905-0.721c0-0.002,0.001-0.004,0.001-0.004c0.001,0.002,0.002,0.005,0.002,0.005l0.889-2.587
		l0.001-0.001l-0.267-0.134C8.805,15.55,8.768,15.628,8.761,15.647z M7.964,18.068c-0.094,0.308-0.353,0.522-0.63,0.52
		c-0.05,0-0.099-0.008-0.146-0.022c-0.15-0.046-0.27-0.156-0.339-0.312c-0.073-0.162-0.082-0.353-0.027-0.535
		c0.096-0.307,0.354-0.521,0.631-0.52c0.05,0,0.099,0.008,0.146,0.023c0.149,0.045,0.269,0.156,0.339,0.312
		C8.012,17.695,8.021,17.886,7.964,18.068z"/>
	<path d="M9.386,15.559l0.808,2.559c0.004,0.017,0.007,0.033,0.012,0.051c0.12,0.437,0.488,0.743,0.895,0.747
		c0.073,0,0.147-0.009,0.219-0.028c0.23-0.064,0.417-0.225,0.528-0.454c0.107-0.222,0.129-0.482,0.06-0.734
		c-0.103-0.371-0.385-0.647-0.718-0.724c-0.104-0.044-1.013-0.442-1.437-1.324c-0.048-0.149-1.821-3.658-1.821-3.658L7.79,11.871
		l1.135,3.454L9.386,15.559z M10.521,17.559c0.074-0.152,0.198-0.261,0.348-0.303c0.045-0.012,0.092-0.019,0.14-0.019
		c0.28,0.003,0.536,0.224,0.623,0.536c0.05,0.187,0.036,0.375-0.041,0.535c-0.074,0.153-0.198,0.261-0.347,0.303
		c-0.047,0.012-0.094,0.018-0.142,0.018c-0.279-0.003-0.536-0.222-0.622-0.536C10.43,17.909,10.445,17.719,10.521,17.559z
		 M9.191,14.979c0.083,0.001,0.15,0.069,0.149,0.153c0,0.083-0.069,0.149-0.151,0.149c-0.083,0-0.151-0.068-0.15-0.151
		C9.039,15.045,9.107,14.979,9.191,14.979z"/>
	<path d="M30.976,16.647c0.009-0.209,0.032-0.414,0.032-0.626c0-0.188-0.021-0.371-0.029-0.558c0.075-0.362,0.256-0.732,0.431-1.074
		c0.173-0.382,0.351-0.724,0.39-0.919c0.159-0.641-0.215-1.026-0.625-1.276c-0.292-0.181-0.6-0.299-0.793-0.433
		c-0.109-0.368-0.24-0.726-0.376-1.082c-0.039-0.384-0.002-0.803,0.031-1.187c0.05-0.423,0.116-0.809,0.095-1.008
		c-0.183-1.125-1.371-1.01-1.927-1.15c-0.223-0.311-0.449-0.617-0.693-0.91c-0.368-0.691-0.399-1.771-0.599-2.094
		c-0.502-1.037-1.618-0.506-2.181-0.469c-0.312-0.225-0.632-0.432-0.96-0.631c-0.548-0.577-0.966-1.52-1.239-1.803
		c-0.452-0.478-0.99-0.355-1.413-0.17c-0.31,0.134-0.577,0.332-0.798,0.431c-0.385-0.114-0.775-0.219-1.173-0.303
		c-0.692-0.351-1.363-1.124-1.706-1.271c-0.586-0.269-1.05-0.029-1.391,0.284c-0.247,0.249-0.436,0.526-0.611,0.69
		c-0.396,0.016-0.79,0.039-1.177,0.085c-0.777-0.089-1.683-0.638-2.058-0.647c-0.646-0.08-1.013,0.282-1.221,0.728
		c-0.157,0.31-0.247,0.632-0.364,0.837C10.258,2.235,9.907,2.392,9.56,2.56C8.778,2.702,7.763,2.537,7.378,2.612
		C6.73,2.729,6.54,3.247,6.464,3.702C6.407,4.038,6.427,4.375,6.389,4.613c-0.303,0.257-0.6,0.521-0.881,0.802
		c-0.666,0.396-1.712,0.52-2.01,0.739C2.514,6.752,3.123,7.811,3.211,8.373C3.013,8.704,2.828,9.042,2.655,9.389
		c-0.238,0.288-0.589,0.529-0.896,0.755c-0.336,0.254-0.657,0.469-0.785,0.62c-0.451,0.488-0.283,1.013-0.055,1.422
		c0.174,0.3,0.378,0.547,0.487,0.755c-0.08,0.384-0.135,0.775-0.185,1.166c-0.316,0.727-0.979,1.479-1.147,1.837
		c-0.365,1.069,0.709,1.537,1.137,1.925c0.049,0.402,0.105,0.806,0.187,1.2c-0.037,0.77-0.503,1.696-0.479,2.063
		c-0.037,1.15,1.18,1.219,1.702,1.451c0.169,0.348,0.352,0.686,0.548,1.018c0.113,0.358,0.124,0.783,0.144,1.166
		c0.029,0.42,0.034,0.807,0.091,0.996c0.162,0.643,0.692,0.789,1.16,0.823c0.347,0.02,0.667-0.017,0.903,0.005
		c0.275,0.274,0.568,0.533,0.863,0.785c0.448,0.648,0.69,1.658,0.915,1.972c0.389,0.515,0.911,0.526,1.361,0.41
		c0.338-0.102,0.64-0.257,0.871-0.314c0.35,0.171,0.705,0.333,1.068,0.479c0.306,0.209,0.58,0.521,0.823,0.824
		c0.277,0.325,0.523,0.611,0.685,0.728c0.262,0.19,0.521,0.249,0.759,0.229c0.242-0.038,0.463-0.154,0.661-0.292
		c0.284-0.195,0.515-0.432,0.713-0.557c0.385,0.049,0.775,0.075,1.17,0.094c0.752,0.25,1.559,0.87,1.93,0.986
		c0.626,0.221,1.039-0.159,1.323-0.521c0.205-0.271,0.349-0.559,0.496-0.747c0.392-0.082,0.776-0.186,1.156-0.298
		c0.784-0.014,1.748,0.326,2.13,0.312c0.643-0.045,0.938-0.478,1.087-0.918c0.1-0.337,0.134-0.677,0.212-0.903
		c0.324-0.194,0.643-0.394,0.951-0.61c0.35-0.154,0.772-0.221,1.173-0.259c0.423-0.057,0.798-0.104,0.983-0.176
		c0.62-0.223,0.746-0.738,0.726-1.222c-0.008-0.347-0.081-0.674-0.074-0.908c0.244-0.287,0.471-0.588,0.693-0.894
		c0.135-0.114,0.281-0.221,0.448-0.311c0.182-0.117,0.379-0.222,0.57-0.316c0.382-0.189,0.743-0.344,0.897-0.47
		c0.841-0.768,0.102-1.697-0.086-2.24c0.142-0.363,0.279-0.727,0.392-1.103c0.382-0.678,1.259-1.286,1.413-1.627
		C32.361,17.737,31.328,17.099,30.976,16.647z M16.046,29.332c-7.339,0-13.311-5.971-13.311-13.311
		c0-7.341,5.972-13.312,13.311-13.312c7.34,0,13.311,5.971,13.311,13.312C29.357,23.361,23.386,29.332,16.046,29.332z"/>
	<path d="M16.137,3.43c-6.933,0-12.572,5.639-12.572,12.571c0,6.932,5.639,12.57,12.572,12.57c6.931,0,12.57-5.639,12.57-12.57
		C28.707,9.068,23.068,3.43,16.137,3.43z M16.137,27.767c-6.488,0-11.767-5.278-11.767-11.766c0-6.488,5.279-11.768,11.767-11.768
		s11.766,5.279,11.766,11.768C27.902,22.488,22.625,27.767,16.137,27.767z"/>
	<polygon points="23.939,9.1 23.456,8.615 16.656,15.416 9.614,8.374 9.13,8.857 16.172,15.899 9.373,22.699 9.856,23.183 
		16.656,16.384 23.214,22.941 23.698,22.457 17.14,15.899 	"/>
	<path d="M24.486,11.366c0,0,0.961-0.01,1.105-0.012c0.145,0,0.248-0.068,0.224-0.285c-0.185,0.002-1.484-0.013-1.619-0.012
		c-0.134,0.002-0.286,0.039-0.285,0.174c0,0.002,0.001,0.015,0.001,0.031l0.001,0.205l0.083,8.629c0,0.142,0.001,0.225,0.001,0.235
		c0.002,0.133,0.153,0.167,0.288,0.167c0.134-0.001,1.434-0.04,1.618-0.042c0.021-0.218-0.084-0.283-0.229-0.282
		c-0.144,0.002-1.105,0.012-1.105,0.012l-0.142-0.095l0-0.071l1.401-0.015l-0.002-0.183l-1.401,0.014l-0.002-0.157l1.402-0.014
		l-0.002-0.183l-1.401,0.014l-0.001-0.153l1.4-0.015l-0.001-0.181l-1.401,0.013l-0.001-0.127l1.402-0.015l-0.003-0.183l-1.4,0.013
		l-0.001-0.152l1.4-0.013l-0.001-0.182l-1.402,0.013l0-0.128l1.4-0.015l-0.002-0.183l-1.4,0.014l-0.001-0.152l1.401-0.014
		l-0.003-0.182l-1.399,0.014l-0.002-0.159l1.4-0.014l-0.002-0.182l-1.4,0.014l-0.001-0.153l1.4-0.014l-0.001-0.183l-1.401,0.014
		l-0.001-0.161l1.401-0.014L25.8,16.837l-1.4,0.014l-0.003-0.154l1.401-0.013l-0.002-0.183l-1.4,0.014l-0.001-0.129l1.4-0.014
		l-0.002-0.183l-1.399,0.014l-0.002-0.152l1.401-0.014l-0.001-0.182l-1.401,0.014l-0.002-0.159l1.4-0.014l0-0.183l-1.402,0.015
		l-0.001-0.152l1.4-0.015l-0.001-0.183l-1.4,0.014l-0.002-0.149l1.401-0.014l-0.002-0.183l-1.4,0.014l-0.002-0.152l1.401-0.014
		l-0.002-0.184l-1.401,0.014l-0.001-0.157l1.401-0.014l-0.002-0.182l-1.401,0.013l-0.001-0.153l1.401-0.013l-0.002-0.183l-1.4,0.014
		l-0.002-0.161l1.4-0.014l-0.001-0.184l-1.401,0.014l-0.001-0.152l1.401-0.014l-0.002-0.181l-1.401,0.012l-0.002-0.128l1.402-0.013
		l-0.001-0.183l-1.401,0.013l-0.001-0.152l1.399-0.015l0-0.181l-1.401,0.013l-0.002-0.158l1.4-0.015l-0.001-0.182l-1.4,0.013
		l-0.002-0.151l1.401-0.015l-0.001-0.182l-1.401,0.014l-0.002-0.159l1.401-0.015l-0.001-0.182l-1.402,0.014v-0.044L24.486,11.366z"
		/>
	<path d="M20.879,22.303c-0.946,1.017-2.595,1.93-4.82,2.739c-0.329-0.172-0.599-0.303-0.691-0.377
		c-0.224-0.18-0.867-0.556-0.867-0.556s0.135-0.174,0.078-0.2c-0.057-0.027-2.437-1.17-2.437-1.17s-0.561,0.456-0.176,0.647
		c0.234,0.116,2.166,1.075,3.65,1.813c-0.024,0.008-0.049,0.017-0.073,0.024c-0.198,0.06-0.058,0.32,0.326,0.447
		c0.153,0.023,0.356,0.003,0.59-0.053c0.536,0.267,0.897,0.445,0.897,0.445s0.169,0.014,0.132-0.111
		c-0.171-0.158-0.387-0.312-0.616-0.455c1.615-0.547,4.143-2.147,4.311-2.339C21.393,22.921,20.949,22.048,20.879,22.303z
		 M16.048,25.462c-0.055,0-0.1-0.044-0.1-0.099s0.044-0.1,0.099-0.101c0.055,0,0.1,0.046,0.101,0.1
		C16.147,25.417,16.104,25.462,16.048,25.462z M20.833,22.959c-0.055,0-0.099-0.045-0.099-0.1c0-0.054,0.043-0.099,0.099-0.099
		c0.054-0.002,0.099,0.044,0.099,0.098C20.933,22.914,20.888,22.958,20.833,22.959z"/>
</g>
<g>
</g>
<g>
</g>
<g>
</g>
<g>
</g>
<g>
</g>
<g>
</g>
<g>
</g>
<g>
</g>
<g>
</g>
<g>
</g>
<g>
</g>
<g>
</g>
<g>
</g>
<g>
</g>
<g>
</g>
</svg>
