<?xml version="1.0" encoding="iso-8859-1"?>
<!-- Generator: Adobe Illustrator 16.0.0, SVG Export Plug-In . SVG Version: 6.00 Build 0)  -->
<!DOCTYPE svg PUBLIC "-//W3C//DTD SVG 1.1//EN" "http://www.w3.org/Graphics/SVG/1.1/DTD/svg11.dtd">
<svg version="1.1" id="Layer_1" xmlns="http://www.w3.org/2000/svg" xmlns:xlink="http://www.w3.org/1999/xlink" x="0px" y="0px"
	 width="30.013px" height="31.137px" viewBox="0 0 30.013 31.137" style="enable-background:new 0 0 30.013 31.137;"
	 xml:space="preserve">
<path d="M24.575,3.698c-0.442-0.166-7.022-2.61-12.551-3.412c-0.059-0.009-0.115-0.014-0.173-0.022
	c-0.307-0.06-0.667-0.1-1.063-0.126C6.092-0.33,2.816,0.537,2.239,0.549c-3.337,0-2.603,10.626-0.034,10.709
	c0.063,0.002,0.119,0.004,0.179,0.006c0.1,0.004,0.381,0.016,0.792,0.031c1.697,0.083,2.039,0.242,2.682,1.013
	c0.75,0.901,2.094,2.781,2.094,5.283c0,2.501,0,8.006,0,8.757c0,0.446,0.271,0.694,0.79,0.825c0.011,0.005,0.012,0.009,0.025,0.014
	c1.215,0.471,0.677,3.949,0.677,3.949h1.076c0,0-0.426-3.611,0.826-3.875c1.247-0.082,2.515-0.31,2.504-0.835
	c-0.015-0.699-0.15-5.555,0-8.808c0.051-1.115-0.143-2.182-0.392-3.113h0.54v-1.401h-0.969c-0.323-0.953-0.561-1.59-0.336-1.722
	c0.017-0.004,0.038-0.009,0.05-0.013c0.009-0.004,0.018-0.015,0.027-0.021c3.197-0.653,11.003-2.775,11.762-2.983v0.029l5.478,1.907
	l0.003-8.503L24.575,3.698z"/>
<g>
</g>
<g>
</g>
<g>
</g>
<g>
</g>
<g>
</g>
<g>
</g>
<g>
</g>
<g>
</g>
<g>
</g>
<g>
</g>
<g>
</g>
<g>
</g>
<g>
</g>
<g>
</g>
<g>
</g>
</svg>
