<?xml version="1.0" encoding="iso-8859-1"?>
<!-- Generator: Adobe Illustrator 16.0.0, SVG Export Plug-In . SVG Version: 6.00 Build 0)  -->
<!DOCTYPE svg PUBLIC "-//W3C//DTD SVG 1.1//EN" "http://www.w3.org/Graphics/SVG/1.1/DTD/svg11.dtd">
<svg version="1.1" id="Layer_1" xmlns="http://www.w3.org/2000/svg" xmlns:xlink="http://www.w3.org/1999/xlink" x="0px" y="0px"
	 width="31.952px" height="32px" viewBox="0 0 31.952 32" style="enable-background:new 0 0 31.952 32;" xml:space="preserve">
<g>
	<path d="M30.976,16.647c0.009-0.209,0.032-0.414,0.032-0.626c0-0.188-0.021-0.371-0.028-0.558c0.075-0.362,0.256-0.732,0.43-1.074
		c0.173-0.382,0.352-0.725,0.391-0.918c0.158-0.642-0.215-1.028-0.625-1.277c-0.292-0.182-0.6-0.3-0.793-0.432
		c-0.109-0.368-0.24-0.727-0.376-1.083c-0.039-0.383-0.001-0.803,0.031-1.186c0.05-0.424,0.116-0.81,0.095-1.008
		c-0.183-1.126-1.371-1.011-1.927-1.151c-0.222-0.31-0.449-0.617-0.693-0.909c-0.368-0.692-0.399-1.771-0.599-2.094
		c-0.502-1.038-1.618-0.507-2.182-0.471c-0.311-0.223-0.632-0.431-0.96-0.629c-0.548-0.577-0.966-1.521-1.239-1.803
		c-0.452-0.478-0.99-0.356-1.413-0.171c-0.31,0.134-0.577,0.332-0.798,0.431c-0.385-0.115-0.775-0.218-1.173-0.303
		c-0.692-0.35-1.363-1.124-1.706-1.271c-0.586-0.268-1.05-0.029-1.391,0.285c-0.247,0.248-0.437,0.525-0.612,0.689
		c-0.396,0.016-0.79,0.039-1.178,0.085c-0.776-0.088-1.682-0.637-2.058-0.646c-0.646-0.081-1.013,0.281-1.221,0.727
		c-0.156,0.311-0.247,0.633-0.364,0.838C10.258,2.235,9.907,2.392,9.56,2.56C8.778,2.703,7.763,2.537,7.378,2.613
		C6.73,2.729,6.54,3.247,6.464,3.702C6.407,4.038,6.427,4.375,6.389,4.613C6.085,4.87,5.79,5.134,5.507,5.414
		c-0.666,0.397-1.712,0.52-2.01,0.74C2.514,6.752,3.123,7.811,3.211,8.373C3.013,8.704,2.828,9.042,2.655,9.389
		c-0.238,0.288-0.588,0.529-0.896,0.755c-0.336,0.254-0.657,0.469-0.786,0.621c-0.451,0.487-0.283,1.012-0.054,1.421
		c0.173,0.299,0.378,0.547,0.487,0.755c-0.08,0.384-0.135,0.775-0.186,1.167c-0.316,0.726-0.979,1.479-1.146,1.836
		c-0.366,1.069,0.709,1.536,1.137,1.924c0.05,0.404,0.105,0.807,0.188,1.201c-0.038,0.77-0.503,1.696-0.479,2.063
		c-0.037,1.15,1.179,1.219,1.701,1.451c0.17,0.348,0.352,0.687,0.548,1.018c0.113,0.357,0.125,0.783,0.144,1.166
		c0.028,0.42,0.034,0.806,0.091,0.996c0.162,0.644,0.693,0.789,1.16,0.823c0.347,0.02,0.667-0.018,0.903,0.005
		c0.276,0.274,0.568,0.533,0.864,0.785c0.448,0.648,0.69,1.658,0.914,1.972c0.389,0.515,0.911,0.525,1.362,0.41
		c0.338-0.102,0.639-0.257,0.871-0.315c0.349,0.172,0.704,0.334,1.068,0.479c0.306,0.21,0.58,0.521,0.824,0.826
		c0.276,0.324,0.523,0.61,0.685,0.727c0.262,0.189,0.521,0.25,0.759,0.229c0.242-0.038,0.463-0.154,0.661-0.291
		c0.284-0.196,0.515-0.433,0.713-0.558c0.385,0.048,0.776,0.074,1.17,0.093c0.752,0.251,1.559,0.871,1.93,0.987
		c0.626,0.221,1.039-0.159,1.323-0.521c0.206-0.271,0.35-0.56,0.495-0.747c0.393-0.082,0.776-0.187,1.156-0.298
		c0.784-0.015,1.748,0.326,2.13,0.312c0.643-0.045,0.938-0.478,1.087-0.917c0.101-0.339,0.134-0.678,0.212-0.904
		c0.324-0.193,0.643-0.394,0.951-0.61c0.351-0.154,0.772-0.221,1.173-0.259c0.423-0.057,0.798-0.104,0.983-0.176
		c0.62-0.223,0.746-0.738,0.726-1.222c-0.008-0.347-0.08-0.673-0.073-0.908c0.244-0.287,0.47-0.588,0.693-0.894
		c0.135-0.114,0.281-0.221,0.448-0.312c0.182-0.117,0.378-0.221,0.57-0.315c0.382-0.189,0.743-0.344,0.897-0.47
		c0.841-0.768,0.102-1.696-0.086-2.24c0.142-0.362,0.278-0.728,0.392-1.103c0.382-0.678,1.259-1.286,1.413-1.627
		C32.361,17.737,31.328,17.099,30.976,16.647z M16.047,29.332c-7.339,0-13.312-5.972-13.312-13.311
		c0-7.34,5.972-13.312,13.312-13.312s13.311,5.972,13.311,13.312C29.357,23.36,23.386,29.332,16.047,29.332z"/>
	<path d="M16.085,4.252C9.526,4.252,4.19,9.588,4.19,16.146s5.336,11.895,11.895,11.895s11.895-5.336,11.895-11.895
		S22.644,4.252,16.085,4.252z M16.085,27.586c-6.308,0-11.439-5.132-11.439-11.439S9.777,4.707,16.085,4.707
		s11.439,5.132,11.439,11.439S22.393,27.586,16.085,27.586z"/>
	<rect x="11.83" y="23.478" width="4.31" height="0.688"/>
	<path d="M11.83,23.251h4.31V12.057h-4.31V23.251z M12.362,12.843h0.545v9.732h-0.545V12.843z"/>
	<path d="M11.83,11.775h4.31V7.701h-4.31V11.775z M12.362,7.928h0.545v3.652h-0.545V7.928z"/>
	<rect x="17.286" y="23.491" width="4.309" height="0.686"/>
	<path d="M21.178,11.147h-0.237v-0.299h-0.717V9.614L18.87,9.613v1.235h-0.815v0.299h-0.256v0.922h-0.513v11.194h4.309V12.069
		h-0.416V11.147z M18.363,22.588h-0.546v-9.732h0.546V22.588z M19.559,10.547c-0.176,0-0.317-0.142-0.317-0.315
		c0-0.177,0.142-0.318,0.317-0.318c0.175,0,0.317,0.142,0.317,0.318C19.876,10.405,19.734,10.547,19.559,10.547z"/>
	<circle cx="19.559" cy="10.23" r="0.13"/>
</g>
<g>
</g>
<g>
</g>
<g>
</g>
<g>
</g>
<g>
</g>
<g>
</g>
<g>
</g>
<g>
</g>
<g>
</g>
<g>
</g>
<g>
</g>
<g>
</g>
<g>
</g>
<g>
</g>
<g>
</g>
</svg>
