<?xml version="1.0" encoding="iso-8859-1"?>
<!-- Generator: Adobe Illustrator 16.0.0, SVG Export Plug-In . SVG Version: 6.00 Build 0)  -->
<!DOCTYPE svg PUBLIC "-//W3C//DTD SVG 1.1//EN" "http://www.w3.org/Graphics/SVG/1.1/DTD/svg11.dtd">
<svg version="1.1" id="Layer_1" xmlns="http://www.w3.org/2000/svg" xmlns:xlink="http://www.w3.org/1999/xlink" x="0px" y="0px"
	 width="31.295px" height="31.295px" viewBox="0 0 31.295 31.295" style="enable-background:new 0 0 31.295 31.295;"
	 xml:space="preserve">
<g>
	<g>
		<path d="M3.247,12.335c0.091-0.44,0.145-0.655,0.265-1.072c0.363,0.108,0.542,0.164,0.905,0.272
			c0.204-0.71,0.329-1.047,0.615-1.682C4.688,9.69,4.518,9.609,4.174,9.447c0.167-0.372,0.258-0.552,0.449-0.9
			C5.483,9.04,5.913,9.288,6.771,9.781c-0.154,0.281-0.227,0.427-0.362,0.727c-0.385-0.183-0.578-0.274-0.964-0.457
			c-0.275,0.61-0.395,0.935-0.591,1.616c0.408,0.122,0.612,0.182,1.02,0.304c-0.097,0.336-0.139,0.508-0.212,0.863
			C4.696,12.635,4.212,12.534,3.247,12.335z"/>
		<path d="M5.764,6.832c0.243-0.306,0.369-0.451,0.632-0.731c1.158,0.219,1.713,0.394,2.735,0.841
			c-0.238,0.194-0.355,0.298-0.58,0.514C8.324,7.366,8.208,7.324,7.974,7.246C7.595,7.63,7.415,7.836,7.083,8.279
			c0.105,0.228,0.162,0.342,0.276,0.563C7.177,9.099,7.091,9.229,6.927,9.505C6.363,8.514,6.126,7.973,5.764,6.832z M6.897,7.857
			c0.245-0.312,0.373-0.461,0.64-0.743C7.143,7,6.941,6.947,6.532,6.863C6.529,6.866,6.528,6.868,6.525,6.871
			C6.661,7.273,6.735,7.473,6.897,7.857z"/>
		<path d="M7.835,4.795c0.292-0.224,0.44-0.327,0.746-0.526c0.553,0.826,0.829,1.24,1.38,2.065C9.715,6.495,9.595,6.58,9.36,6.76
			C8.751,5.976,8.446,5.58,7.835,4.795z"/>
		<path d="M9.264,3.854c0.775-0.438,1.182-0.622,2.017-0.915c0.173-0.061,0.339-0.092,0.489-0.101
			c0.151-0.009,0.286,0.004,0.403,0.035c0.117,0.032,0.213,0.081,0.287,0.147c0.074,0.067,0.122,0.146,0.145,0.234
			c0.038,0.141,0.023,0.275-0.038,0.399c-0.062,0.126-0.182,0.245-0.363,0.357c0.001,0.003,0.001,0.002,0.002,0.005
			c0.101-0.013,0.191-0.006,0.262,0.013c0.072,0.02,0.136,0.046,0.19,0.087c0.053,0.04,0.098,0.091,0.131,0.146
			c0.033,0.053,0.06,0.108,0.083,0.167c0.014,0.037,0.029,0.081,0.046,0.131c0.018,0.051,0.037,0.104,0.058,0.153
			c0.021,0.049,0.047,0.099,0.076,0.143c0.029,0.045,0.064,0.081,0.106,0.106c-0.283,0.068-0.422,0.107-0.7,0.195
			c-0.033-0.03-0.062-0.07-0.087-0.112c-0.025-0.04-0.051-0.083-0.075-0.131c-0.024-0.047-0.048-0.094-0.07-0.144
			c-0.021-0.051-0.046-0.099-0.071-0.141c-0.067-0.113-0.15-0.187-0.253-0.215C11.8,4.389,11.652,4.408,11.467,4.48
			c-0.296,0.115-0.443,0.179-0.731,0.314c0.17,0.348,0.255,0.522,0.425,0.87C10.896,5.789,10.766,5.856,10.511,6
			C10.013,5.143,9.764,4.712,9.264,3.854z M10.564,4.447c0.327-0.154,0.494-0.226,0.831-0.354c0.172-0.065,0.293-0.138,0.366-0.221
			c0.074-0.083,0.093-0.185,0.052-0.303c-0.039-0.114-0.116-0.182-0.23-0.2c-0.113-0.019-0.263,0.005-0.446,0.074
			c-0.357,0.136-0.534,0.213-0.88,0.376C10.379,4.071,10.441,4.196,10.564,4.447z"/>
		<path d="M15.387,3.844c0.002,0.081,0.026,0.153,0.069,0.209c0.044,0.058,0.1,0.104,0.17,0.139s0.149,0.063,0.24,0.082
			s0.188,0.027,0.29,0.031c0.067,0.003,0.141,0.004,0.217,0.001c0.076-0.003,0.147-0.013,0.216-0.03s0.129-0.047,0.179-0.084
			c0.05-0.035,0.078-0.084,0.084-0.146c0.007-0.066-0.018-0.122-0.075-0.169c-0.057-0.048-0.137-0.091-0.234-0.126
			c-0.098-0.036-0.211-0.067-0.338-0.093c-0.128-0.025-0.261-0.051-0.392-0.076c-0.134-0.025-0.269-0.05-0.4-0.08
			c-0.131-0.03-0.25-0.069-0.357-0.117c-0.106-0.047-0.196-0.105-0.267-0.179c-0.071-0.075-0.112-0.169-0.122-0.284
			c-0.011-0.126,0.023-0.238,0.103-0.338c0.08-0.1,0.188-0.186,0.328-0.254c0.142-0.069,0.306-0.12,0.487-0.15
			c0.183-0.031,0.37-0.044,0.553-0.038c0.216,0.007,0.421,0.034,0.615,0.079c0.194,0.043,0.363,0.106,0.505,0.188
			s0.249,0.18,0.32,0.292c0.071,0.111,0.094,0.238,0.071,0.378c-0.325-0.051-0.488-0.07-0.815-0.1c0-0.072-0.018-0.137-0.056-0.188
			c-0.038-0.051-0.092-0.094-0.158-0.125c-0.067-0.032-0.148-0.06-0.239-0.075C16.29,2.574,16.19,2.563,16.086,2.56
			c-0.07-0.002-0.143,0.006-0.212,0.015c-0.069,0.009-0.135,0.023-0.191,0.046c-0.057,0.022-0.104,0.05-0.141,0.088
			c-0.036,0.036-0.054,0.079-0.053,0.131c0.001,0.048,0.018,0.088,0.045,0.116c0.028,0.029,0.086,0.056,0.17,0.08
			c0.083,0.023,0.201,0.052,0.345,0.081c0.146,0.03,0.337,0.069,0.569,0.126c0.045,0.01,0.104,0.025,0.176,0.046
			c0.07,0.02,0.149,0.042,0.227,0.072c0.078,0.03,0.158,0.068,0.233,0.112c0.075,0.044,0.145,0.099,0.203,0.158
			c0.058,0.059,0.101,0.126,0.129,0.202c0.029,0.077,0.034,0.16,0.018,0.251c-0.02,0.111-0.069,0.208-0.145,0.294
			c-0.075,0.085-0.179,0.155-0.305,0.21c-0.125,0.054-0.277,0.092-0.45,0.115c-0.174,0.024-0.371,0.031-0.595,0.022
			C15.93,4.719,15.755,4.7,15.584,4.668c-0.17-0.032-0.325-0.079-0.459-0.144c-0.135-0.065-0.25-0.147-0.341-0.25
			c-0.091-0.104-0.143-0.232-0.153-0.383C14.933,3.864,15.084,3.852,15.387,3.844z"/>
		<path d="M19.181,3.123c-0.456-0.127-0.688-0.18-1.153-0.265c0.034-0.179,0.052-0.27,0.086-0.448
			c1.32,0.24,1.973,0.441,3.193,1.014c-0.08,0.164-0.121,0.249-0.201,0.413c-0.431-0.202-0.651-0.293-1.098-0.452
			c-0.282,0.756-0.424,1.134-0.707,1.891c-0.274-0.098-0.412-0.141-0.692-0.219C18.838,4.283,18.953,3.896,19.181,3.123z"/>
		<path d="M21.836,5.437c-0.125-0.796-0.226-1.201-0.507-2.003c0.369,0.174,0.55,0.269,0.905,0.473
			c0.134,0.529,0.186,0.797,0.256,1.321c0.519-0.12,0.786-0.168,1.337-0.226c0.319,0.259,0.474,0.397,0.772,0.686
			c-0.877,0.003-1.301,0.049-2.107,0.214c-0.23,0.305-0.346,0.458-0.576,0.763c-0.237-0.176-0.358-0.259-0.606-0.415
			C21.521,5.925,21.626,5.761,21.836,5.437z"/>
		<path d="M24.854,5.938c0.261,0.268,0.387,0.407,0.629,0.699c-0.619,0.522-0.927,0.783-1.545,1.307
			c0.452,0.544,0.659,0.84,1.024,1.482c-0.158,0.094-0.236,0.141-0.394,0.234c-0.507-0.893-0.813-1.29-1.489-1.983
			C23.788,6.981,24.144,6.633,24.854,5.938z"/>
		<path d="M26.964,8.891c0.621,1.217,0.867,1.894,1.183,3.387c-0.178,0.037-0.266,0.056-0.444,0.094
			c-0.214-1.016-0.363-1.49-0.729-2.374c-0.195,0.085-0.293,0.126-0.488,0.211c0.321,0.776,0.454,1.19,0.654,2.073
			c-0.164,0.038-0.246,0.06-0.41,0.098c-0.193-0.852-0.323-1.253-0.632-2.001c-0.222,0.097-0.331,0.146-0.553,0.243
			c0.326,0.788,0.458,1.212,0.646,2.121c-0.179,0.037-0.268,0.055-0.447,0.092c-0.254-1.227-0.456-1.781-0.963-2.777
			C25.654,9.59,26.091,9.356,26.964,8.891z"/>
	</g>
</g>
<g>
	<path d="M19.456,14.921c-0.325-1.648-3.152-2.624-3.809-1.389c-0.655-1.235-3.483-0.26-3.807,1.389
		c-0.425,1.725-2.673,2.198-3.922,1.3c0,1.947,2.099,1.974,3.397,2.099c3.075-0.136,4.046-1.553,4.332-2.201
		c0.287,0.648,1.259,2.065,4.333,2.201c1.299-0.125,3.397-0.151,3.397-2.099C22.127,17.119,19.881,16.646,19.456,14.921z"/>
	<circle cx="15.647" cy="27.227" r="0.922"/>
	<circle cx="3.975" cy="15.647" r="0.922"/>
	<circle cx="27.465" cy="15.647" r="0.922"/>
	<path d="M15.648,0C7.019,0,0,7.02,0,15.647s7.019,15.647,15.648,15.647c8.627,0,15.647-7.02,15.647-15.647S24.275,0,15.648,0z
		 M15.648,30.293c-8.076,0-14.646-6.569-14.646-14.646c0-8.075,6.571-14.646,14.646-14.646s14.645,6.57,14.645,14.646
		C30.293,23.724,23.724,30.293,15.648,30.293z"/>
	<path d="M15.648,6.271c-5.169,0-9.376,4.207-9.376,9.376s4.207,9.375,9.376,9.375c5.169,0,9.375-4.206,9.375-9.375
		S20.817,6.271,15.648,6.271z M15.648,24.423c-4.839,0-8.776-3.937-8.776-8.775s3.937-8.775,8.776-8.775
		c4.839,0,8.775,3.937,8.775,8.775S20.487,24.423,15.648,24.423z"/>
</g>
<g>
</g>
<g>
</g>
<g>
</g>
<g>
</g>
<g>
</g>
<g>
</g>
<g>
</g>
<g>
</g>
<g>
</g>
<g>
</g>
<g>
</g>
<g>
</g>
<g>
</g>
<g>
</g>
<g>
</g>
</svg>
