<?xml version="1.0" encoding="iso-8859-1"?>
<!-- Generator: Adobe Illustrator 16.0.0, SVG Export Plug-In . SVG Version: 6.00 Build 0)  -->
<!DOCTYPE svg PUBLIC "-//W3C//DTD SVG 1.1//EN" "http://www.w3.org/Graphics/SVG/1.1/DTD/svg11.dtd">
<svg version="1.1" id="Layer_1" xmlns="http://www.w3.org/2000/svg" xmlns:xlink="http://www.w3.org/1999/xlink" x="0px" y="0px"
	 width="31.009px" height="29.339px" viewBox="0 0 31.009 29.339" style="enable-background:new 0 0 31.009 29.339;"
	 xml:space="preserve">
<path d="M1.304,24.51c1.029-1.606,6.247-6.712,8.078-7.523c0.951-0.301,4.341-3.274,3.842-4.472
	c-0.175-0.452,1.452,0.435,1.452,0.435l0.366-0.341c-0.797-0.588-4.159-2.661-8.596,0.373c-0.256,0.007-0.646-0.229-0.609-0.388
	c3.147-3.3,10.047-2.736,10.047-2.736s0.256-0.485,0.511-0.477c0.236,0.009,1.291,0.506,1.455,0.584l1.012-0.941l-0.875-0.938
	l0.329-0.308l0.875,0.939l0.247-0.23l-0.875-0.939l0.331-0.308l0.875,0.939l0.346-0.322L19.22,6.896l0.33-0.308l0.893,0.958
	l0.248-0.23l-0.893-0.959l0.329-0.307l0.894,0.959l0.313-0.292L20.44,5.759l0.33-0.307l0.893,0.958l0.247-0.23l-0.893-0.959
	l0.33-0.308l0.893,0.959l0.281-0.261l-0.894-0.958l0.33-0.306l0.893,0.958l0.248-0.23l-0.893-0.959l0.33-0.307l0.893,0.958
	l0.297-0.277l-0.894-0.958l0.33-0.307l0.893,0.958l0.248-0.231l-0.894-0.958l0.331-0.308l0.893,0.959l0.296-0.276l-0.893-0.958
	l0.33-0.308l0.893,0.959l0.247-0.23l-0.893-0.959l0.33-0.307l0.893,0.959l0.38-0.353l-0.893-0.959l0.329-0.308l0.894,0.959
	l0.247-0.23l-0.894-0.959l0.331-0.307l0.893,0.959l0.511-0.477l0.415,0.445l1.316-1.227l0.008,0.008
	c0.314-0.188,0.839-0.03,1.232,0.393c0.393,0.421,0.514,0.957,0.303,1.257l0.009,0.008l-1.317,1.226l0.369,0.396l-0.51,0.476
	l0.892,0.958l-0.33,0.307l-0.893-0.958l-0.248,0.23l0.893,0.959l-0.33,0.306L28.55,4.679l-0.38,0.354l0.892,0.958l-0.329,0.307
	L27.84,5.338l-0.248,0.231l0.893,0.958l-0.33,0.308l-0.892-0.958l-0.296,0.276l0.892,0.958l-0.329,0.308L26.637,6.46l-0.249,0.23
	l0.893,0.958l-0.33,0.307L26.06,6.997l-0.297,0.277l0.892,0.958l-0.33,0.307l-0.893-0.958l-0.248,0.23l0.893,0.958l-0.33,0.307
	l-0.892-0.959l-0.28,0.261l0.893,0.958l-0.33,0.307l-0.893-0.958l-0.247,0.23l0.893,0.958l-0.33,0.308l-0.893-0.958l-0.313,0.292
	l0.893,0.958l-0.33,0.307l-0.893-0.958l-0.247,0.231l0.893,0.958l-0.33,0.308l-0.893-0.958l-0.346,0.321l0.912,0.979l-0.33,0.308
	l-0.912-0.978l-0.248,0.23l0.912,0.979l-0.329,0.306l-0.912-0.979l-2.714,2.528l0.196,0.278l-1.452,1.353
	c0,0,0.769,1.684,0.33,1.478c-1.16-0.583-4.365,2.588-4.733,3.515c-0.939,1.769-6.403,6.612-8.078,7.524
	c-1.658,0.904-2.367,1.919-3.93,0.21C-0.779,26.735,0.283,26.1,1.304,24.51z"/>
<g>
</g>
<g>
</g>
<g>
</g>
<g>
</g>
<g>
</g>
<g>
</g>
<g>
</g>
<g>
</g>
<g>
</g>
<g>
</g>
<g>
</g>
<g>
</g>
<g>
</g>
<g>
</g>
<g>
</g>
</svg>
