<?xml version="1.0" encoding="iso-8859-1"?>
<!-- Generator: Adobe Illustrator 16.0.0, SVG Export Plug-In . SVG Version: 6.00 Build 0)  -->
<!DOCTYPE svg PUBLIC "-//W3C//DTD SVG 1.1//EN" "http://www.w3.org/Graphics/SVG/1.1/DTD/svg11.dtd">
<svg version="1.1" id="Layer_1" xmlns="http://www.w3.org/2000/svg" xmlns:xlink="http://www.w3.org/1999/xlink" x="0px" y="0px"
	 width="32px" height="31.992px" viewBox="0 0 32 31.992" style="enable-background:new 0 0 32 31.992;" xml:space="preserve">
<g>
	<ellipse cx="28.575" cy="3.529" rx="3.425" ry="3.529"/>
	<path d="M30.827,8.573c-1.238-1.007-3.39-0.445-4.458-0.146c-1.011,0.389-2.75,0.783-4.826,0.91V6.459h-0.096V6.225h-0.414V5.92
		h-0.611V4.596l-0.129,0.076c0,0-0.119,0.04-0.166,0.098c-0.058-0.027-0.144,0.064-0.187,0.11c-0.034-0.027-0.154,0.059-0.195,0.115
		c-0.037-0.033-0.144,0.044-0.179,0.105c-0.041-0.068-0.179,0.106-0.179,0.106v1.018h-0.403l0.014,0.234h-0.11v6.9h2.655v-2.243
		c1.86-0.291,4.801-0.675,4.781-0.176c-0.029,0.729-0.349,8.058-0.064,8.301c0,0,0,0,0,0l-0.586,5.43l0.518,5.339h-1.511v1.57h5.137
		v-0.34v-1.23V19.924c0.604-0.119,1.065-0.438,1.145-1.1C31.211,16.748,32.207,9.695,30.827,8.573z M19.215,12.942V6.943h0.336
		v2.428c-0.016-0.001-0.032,0-0.047-0.001l0.047,0.172v3.4H19.215z"/>
	<polygon points="16.369,27.887 16.369,27.828 16.379,27.83 18.43,18.565 16.36,18.106 14.665,25.768 6.88,25.768 6.88,27.887 
		10.372,27.887 9.929,30.377 6.78,30.377 5.703,31.992 17.816,31.992 16.74,30.377 13.388,30.377 12.945,27.887 	"/>
	<path d="M13.644,13.923c1.784,0,3.23-1.446,3.23-3.23c0-0.076-0.006-0.149-0.011-0.224c0.055,0.006,0.108,0.017,0.165,0.017
		c0.766,0,1.391-0.617,1.391-1.375c0-0.629-0.439-1.172-1.046-1.325c0.047-0.139,0.071-0.281,0.071-0.425
		c0-0.723-0.567-1.317-1.305-1.368c-0.161-0.596-0.708-1.019-1.341-1.019c-0.466,0-0.898,0.234-1.155,0.618
		c-0.142-0.047-0.289-0.07-0.439-0.07c-0.767,0-1.391,0.616-1.391,1.375c0,0.354,0.138,0.677,0.366,0.921
		c-1.046,0.535-1.764,1.62-1.764,2.875C10.414,12.477,11.86,13.923,13.644,13.923z M12.081,6.896c0-0.609,0.503-1.105,1.122-1.105
		c0.154,0,0.302,0.03,0.443,0.09l0.112,0.049l0.059-0.106c0.198-0.357,0.573-0.58,0.98-0.58c0.54,0,1.003,0.381,1.101,0.904
		l0.043,0.107h0.112c0.618,0,1.121,0.496,1.121,1.105c0,0.16-0.037,0.317-0.11,0.469l-0.082,0.168l0.187,0.023
		c0.559,0.07,0.98,0.538,0.98,1.09c0,0.609-0.503,1.105-1.121,1.105c-0.067,0-0.131-0.011-0.196-0.022
		c-0.241-1.547-1.574-2.73-3.188-2.73c-0.427,0-0.834,0.084-1.208,0.235C12.218,7.496,12.081,7.213,12.081,6.896z"/>
	<path d="M7.26,24.959h1.808h2.86h1.924c0,0,1.689-8.263,1.876-9.175c0.187-0.911,0.109-1.352-0.497-1.356
		c-0.605-0.005-3.028,0-3.028,0v0.001l-0.006-0.002c0,0-2.619,5.524-4.942,5.375c-1.263,0.02-1.227,1.311,1.332,1.394
		c0.589,0.021,1.18-0.299,1.74-0.797l-0.439,1.59c-1.639-0.004-3.745,0.006-4.219,0.071c-0.661,0.093-3.67,4.981-4.708,6.696H0
		v1.459h4.7v-1.459H4.623L7.26,24.959z"/>
	<rect x="18.887" y="13.498" width="2.655" height="0.425"/>
</g>
<g>
</g>
<g>
</g>
<g>
</g>
<g>
</g>
<g>
</g>
<g>
</g>
<g>
</g>
<g>
</g>
<g>
</g>
<g>
</g>
<g>
</g>
<g>
</g>
<g>
</g>
<g>
</g>
<g>
</g>
</svg>
