<?xml version="1.0" encoding="iso-8859-1"?>
<!-- Generator: Adobe Illustrator 16.0.0, SVG Export Plug-In . SVG Version: 6.00 Build 0)  -->
<!DOCTYPE svg PUBLIC "-//W3C//DTD SVG 1.1//EN" "http://www.w3.org/Graphics/SVG/1.1/DTD/svg11.dtd">
<svg version="1.1" id="Layer_1" xmlns="http://www.w3.org/2000/svg" xmlns:xlink="http://www.w3.org/1999/xlink" x="0px" y="0px"
	 width="19.394px" height="31.129px" viewBox="0 0 19.394 31.129" style="enable-background:new 0 0 19.394 31.129;"
	 xml:space="preserve">
<path d="M5.635,2.531C4.446,2.904,1.432,6.475,1.247,8.035c-0.186,1.563,1.339,4.612,1.339,4.612s-3.272-2.12-2.454-5.058
	C0.95,4.651,2.029,1.157,6.007,0.152s5.685,3.294,5.685,3.294s5.806,2.358,4.355,4.776c-0.403-1.472-0.521-1.191-0.521-1.191
	s0.67,2.863-0.074,3.72c0.349-1.337-1.339-3.861-1.153-2.827c1.004,1.525,1.115,6.211,1.115,6.211s0.831-0.211,0.856,0.669
	c-0.372-0.26-1.079,0-1.079,0s2.343,0.856,2.008,1.599c-0.482-0.371-1.858-0.408-1.858-0.408s0.892,3.457,1.524,4.313
	c0.632,0.856,1.674,2.604,2.528,3.421c-0.445,0.261-6.88-4.648-6.88-4.648s2.976,4.202,4.983,4.648
	c-1.19,0.372-4.016-1.041-4.016-1.041s2.863,3.124,5.392,3.31c-2.603,2.12-8.069-3.979-8.069-3.979s4.096,7.081,2.789,7.884
	c-0.595-0.855-1.524-1.823-1.524-1.823s1.562,2.678,0.483,3.05c-0.224-1.376-1.487-2.381-1.487-2.381s-0.336,1.042,0.371,2.232
	c-1.673,0.297-2.714-4.352-2.714-4.352L7.569,16.068c0,0,2.826-7.883,2.417-9.817C9.578,4.316,6.825,2.16,5.635,2.531z"/>
<g>
</g>
<g>
</g>
<g>
</g>
<g>
</g>
<g>
</g>
<g>
</g>
<g>
</g>
<g>
</g>
<g>
</g>
<g>
</g>
<g>
</g>
<g>
</g>
<g>
</g>
<g>
</g>
<g>
</g>
</svg>
