<?xml version="1.0" encoding="iso-8859-1"?>
<!-- Generator: Adobe Illustrator 16.0.0, SVG Export Plug-In . SVG Version: 6.00 Build 0)  -->
<!DOCTYPE svg PUBLIC "-//W3C//DTD SVG 1.1//EN" "http://www.w3.org/Graphics/SVG/1.1/DTD/svg11.dtd">
<svg version="1.1" id="Layer_1" xmlns="http://www.w3.org/2000/svg" xmlns:xlink="http://www.w3.org/1999/xlink" x="0px" y="0px"
	 width="32px" height="32px" viewBox="0 0 32 32" style="enable-background:new 0 0 32 32;" xml:space="preserve">
<g>
	<path d="M16,0C7.177,0,0,7.178,0,16s7.177,16,16,16s16-7.178,16-16S24.823,0,16,0z M16,31.367C7.526,31.367,0.632,24.474,0.632,16
		S7.526,0.633,16,0.633S31.368,7.526,31.368,16S24.474,31.367,16,31.367z"/>
	<path d="M20.475,22.636c-0.043-0.025-0.093-0.043-0.148-0.052c-0.055-0.009-0.113-0.014-0.173-0.014h-0.409v0.717h0.409
		c0.06,0,0.118-0.005,0.173-0.014c0.056-0.009,0.105-0.026,0.148-0.052c0.042-0.026,0.075-0.063,0.101-0.109
		s0.039-0.107,0.039-0.184c0-0.077-0.013-0.138-0.039-0.185S20.517,22.662,20.475,22.636z"/>
	<path d="M27.545,17.178c-0.092-0.12-0.232-0.183-0.42-0.183c-0.124,0-0.226,0.025-0.308,0.074
		c-0.082,0.052-0.146,0.114-0.195,0.186c-0.049,0.074-0.083,0.153-0.104,0.234c-0.02,0.082-0.031,0.156-0.035,0.22h1.255
		C27.702,17.478,27.638,17.299,27.545,17.178z"/>
	<path d="M18.19,22.8c-0.052-0.076-0.119-0.138-0.202-0.185c-0.082-0.045-0.183-0.068-0.3-0.068c-0.119,0-0.219,0.023-0.302,0.068
		c-0.083,0.047-0.149,0.108-0.201,0.185c-0.05,0.077-0.087,0.165-0.111,0.263c-0.023,0.099-0.036,0.199-0.036,0.304
		c0,0.101,0.013,0.198,0.036,0.294c0.023,0.094,0.061,0.18,0.111,0.255c0.052,0.075,0.119,0.138,0.201,0.182
		c0.083,0.047,0.183,0.069,0.302,0.069c0.117,0,0.218-0.022,0.3-0.069c0.083-0.044,0.149-0.106,0.202-0.182
		c0.05-0.075,0.089-0.161,0.112-0.255c0.023-0.096,0.035-0.193,0.035-0.294c0-0.104-0.011-0.205-0.035-0.304
		C18.279,22.965,18.24,22.877,18.19,22.8z"/>
	<path d="M10.131,18.235c-0.057,0.013-0.116,0.024-0.179,0.032c-0.064,0.01-0.125,0.02-0.183,0.032
		c-0.061,0.015-0.118,0.032-0.173,0.052c-0.054,0.022-0.103,0.052-0.145,0.089s-0.075,0.084-0.1,0.144
		c-0.026,0.057-0.038,0.128-0.038,0.21c0,0.086,0.012,0.158,0.038,0.21c0.025,0.054,0.06,0.099,0.103,0.131
		c0.044,0.032,0.095,0.054,0.153,0.069c0.057,0.012,0.117,0.017,0.179,0.017c0.152,0,0.269-0.029,0.352-0.089
		c0.084-0.062,0.146-0.133,0.185-0.217c0.04-0.087,0.064-0.171,0.073-0.257c0.01-0.087,0.014-0.156,0.014-0.208v-0.346
		c-0.032,0.037-0.073,0.062-0.122,0.081C10.24,18.206,10.187,18.223,10.131,18.235z"/>
	<path d="M16,1.847C8.184,1.847,1.846,8.184,1.846,16S8.184,30.153,16,30.153c7.818,0,14.154-6.337,14.154-14.153
		S23.818,1.847,16,1.847z M7.995,19.747H7.141v-1.998H5.573v1.998H4.719v-4.634h0.854v1.778h1.568v-1.778h0.854V19.747z
		 M10.498,19.747c-0.015-0.052-0.027-0.104-0.036-0.158c-0.008-0.054-0.015-0.108-0.019-0.165c-0.124,0.15-0.268,0.259-0.435,0.32
		c-0.167,0.063-0.337,0.095-0.51,0.095c-0.134,0-0.259-0.021-0.375-0.063c-0.116-0.042-0.217-0.104-0.304-0.185
		c-0.086-0.082-0.154-0.186-0.204-0.312s-0.073-0.274-0.073-0.447c0-0.19,0.027-0.349,0.082-0.472
		c0.054-0.123,0.126-0.22,0.217-0.294c0.09-0.074,0.192-0.128,0.306-0.165s0.231-0.067,0.351-0.089
		c0.119-0.021,0.233-0.04,0.342-0.052c0.109-0.013,0.205-0.032,0.29-0.058c0.085-0.026,0.153-0.063,0.204-0.113
		c0.05-0.052,0.075-0.124,0.075-0.218c0-0.101-0.014-0.18-0.041-0.236c-0.027-0.06-0.063-0.104-0.109-0.137
		c-0.044-0.034-0.098-0.054-0.157-0.066c-0.061-0.01-0.125-0.015-0.193-0.015c-0.148,0-0.267,0.037-0.355,0.116
		c-0.089,0.076-0.141,0.207-0.156,0.391H8.629c0.011-0.218,0.056-0.398,0.136-0.539c0.079-0.144,0.182-0.26,0.304-0.346
		c0.124-0.087,0.261-0.148,0.413-0.186c0.152-0.034,0.308-0.054,0.468-0.054c0.141,0,0.284,0.012,0.428,0.034
		c0.145,0.024,0.277,0.071,0.396,0.141c0.12,0.069,0.217,0.166,0.293,0.292c0.077,0.126,0.115,0.289,0.115,0.486v1.746
		c0,0.151,0.006,0.297,0.021,0.435c0.015,0.139,0.04,0.242,0.077,0.312H10.498z M12.571,16.393v3.354h-0.771v-3.354H12.571z
		 M11.801,15.874v-0.761h0.771v0.761H11.801z M13.763,24.146c-0.042,0.094-0.105,0.174-0.189,0.242
		c-0.083,0.067-0.187,0.121-0.311,0.16c-0.124,0.04-0.267,0.06-0.43,0.06c-0.131,0-0.259-0.018-0.383-0.051
		s-0.232-0.085-0.326-0.154s-0.169-0.157-0.226-0.265c-0.057-0.105-0.084-0.233-0.082-0.38h0.509c0,0.079,0.014,0.147,0.043,0.204
		c0.028,0.055,0.066,0.1,0.115,0.134c0.048,0.035,0.104,0.062,0.168,0.078c0.063,0.016,0.131,0.024,0.203,0.024
		c0.047,0,0.096-0.004,0.149-0.011c0.054-0.008,0.104-0.023,0.15-0.046s0.086-0.053,0.118-0.093
		c0.031-0.038,0.047-0.087,0.047-0.147c0-0.064-0.021-0.116-0.062-0.157c-0.041-0.041-0.095-0.074-0.162-0.103
		c-0.068-0.027-0.144-0.052-0.229-0.069c-0.084-0.02-0.17-0.042-0.257-0.066c-0.089-0.022-0.177-0.05-0.261-0.082
		c-0.085-0.032-0.161-0.074-0.229-0.126c-0.066-0.051-0.12-0.113-0.162-0.189c-0.041-0.076-0.062-0.17-0.062-0.282
		c0-0.121,0.026-0.229,0.079-0.318c0.052-0.09,0.121-0.166,0.205-0.226c0.085-0.061,0.18-0.105,0.288-0.134
		c0.107-0.028,0.213-0.043,0.321-0.043c0.125,0,0.245,0.013,0.359,0.042c0.115,0.027,0.217,0.071,0.306,0.135
		c0.089,0.063,0.161,0.142,0.213,0.239c0.053,0.098,0.079,0.214,0.079,0.352h-0.509c-0.005-0.07-0.02-0.13-0.044-0.177
		c-0.026-0.047-0.061-0.082-0.103-0.109S13,22.541,12.944,22.531c-0.055-0.013-0.115-0.018-0.178-0.018
		c-0.042,0-0.084,0.005-0.127,0.014c-0.042,0.009-0.081,0.024-0.115,0.047c-0.034,0.022-0.063,0.051-0.085,0.085
		c-0.022,0.035-0.033,0.077-0.033,0.126c0,0.047,0.008,0.084,0.026,0.113c0.019,0.029,0.053,0.055,0.106,0.078
		c0.052,0.023,0.125,0.049,0.217,0.074c0.093,0.026,0.214,0.059,0.363,0.096c0.028,0.007,0.067,0.016,0.114,0.028
		c0.047,0.012,0.096,0.028,0.148,0.05c0.053,0.021,0.105,0.049,0.157,0.082c0.053,0.033,0.102,0.074,0.145,0.123
		c0.043,0.05,0.079,0.109,0.105,0.176c0.027,0.069,0.041,0.146,0.041,0.237C13.828,23.951,13.807,24.053,13.763,24.146z
		 M13.989,17.818c-0.026,0.131-0.038,0.271-0.038,0.417v1.512h-0.772v-3.354h0.733v0.623h0.011c0.036-0.104,0.085-0.2,0.147-0.289
		c0.061-0.089,0.132-0.163,0.211-0.228c0.079-0.062,0.166-0.111,0.258-0.146c0.093-0.035,0.186-0.052,0.279-0.052
		c0.058,0,0.115,0.01,0.169,0.032v0.856c-0.037-0.007-0.08-0.017-0.131-0.022c-0.05-0.007-0.1-0.01-0.147-0.01
		c-0.141,0-0.26,0.027-0.358,0.084s-0.177,0.134-0.236,0.23C14.057,17.571,14.014,17.685,13.989,17.818z M16.156,24.552h-0.525
		v-1.03h-0.967v1.03h-0.525v-2.389h0.525v0.916h0.967v-0.916h0.525V24.552z M18.781,23.853c-0.053,0.15-0.129,0.282-0.231,0.394
		c-0.1,0.112-0.222,0.199-0.368,0.265c-0.145,0.065-0.31,0.098-0.494,0.098c-0.186,0-0.351-0.032-0.496-0.098
		c-0.146-0.065-0.268-0.152-0.368-0.265c-0.1-0.111-0.178-0.243-0.231-0.394c-0.053-0.153-0.081-0.313-0.081-0.486
		c0-0.176,0.027-0.341,0.081-0.494c0.053-0.153,0.131-0.288,0.231-0.401c0.1-0.114,0.222-0.204,0.368-0.269
		c0.145-0.063,0.31-0.096,0.496-0.096c0.184,0,0.349,0.032,0.494,0.096c0.146,0.064,0.268,0.154,0.368,0.269
		c0.102,0.113,0.178,0.248,0.231,0.401c0.054,0.153,0.081,0.318,0.081,0.494C18.862,23.539,18.835,23.699,18.781,23.853z
		 M18.865,19.587c-0.119,0.089-0.255,0.155-0.41,0.192c-0.153,0.039-0.31,0.06-0.469,0.06c-0.163,0-0.322-0.021-0.478-0.06
		c-0.155-0.037-0.294-0.104-0.415-0.197c-0.123-0.092-0.221-0.215-0.299-0.366c-0.078-0.15-0.121-0.338-0.127-0.558h0.732
		c0,0.099,0.017,0.185,0.052,0.257c0.035,0.071,0.079,0.128,0.133,0.175c0.054,0.045,0.116,0.079,0.187,0.099
		c0.07,0.022,0.145,0.032,0.22,0.032c0.055,0,0.112-0.007,0.172-0.021c0.059-0.016,0.114-0.04,0.163-0.072
		c0.048-0.032,0.089-0.074,0.122-0.128c0.032-0.055,0.048-0.124,0.048-0.205c0-0.069-0.02-0.129-0.06-0.178
		c-0.04-0.05-0.097-0.095-0.171-0.134s-0.166-0.074-0.274-0.106c-0.108-0.034-0.231-0.066-0.369-0.101
		c-0.112-0.03-0.221-0.067-0.329-0.109c-0.106-0.039-0.201-0.094-0.284-0.16c-0.084-0.066-0.151-0.153-0.202-0.255
		c-0.05-0.101-0.077-0.225-0.077-0.373c0-0.212,0.036-0.388,0.106-0.528s0.164-0.249,0.279-0.331
		c0.116-0.079,0.247-0.136,0.391-0.168s0.293-0.049,0.446-0.049c0.152,0,0.299,0.017,0.442,0.052
		c0.143,0.034,0.271,0.094,0.383,0.175c0.112,0.082,0.205,0.193,0.279,0.329c0.074,0.136,0.119,0.309,0.133,0.516h-0.732
		c-0.011-0.178-0.068-0.299-0.169-0.36c-0.101-0.064-0.221-0.094-0.358-0.094c-0.043,0-0.09,0.003-0.141,0.01
		c-0.051,0.005-0.098,0.02-0.139,0.042c-0.042,0.02-0.078,0.052-0.106,0.094c-0.03,0.04-0.043,0.097-0.043,0.166
		c0,0.081,0.025,0.147,0.076,0.199c0.05,0.053,0.117,0.095,0.199,0.127c0.082,0.034,0.174,0.062,0.279,0.089
		c0.105,0.024,0.212,0.054,0.321,0.084c0.111,0.029,0.221,0.066,0.329,0.11c0.106,0.042,0.201,0.1,0.284,0.171
		c0.084,0.071,0.15,0.16,0.201,0.267s0.077,0.237,0.077,0.393c0,0.22-0.037,0.405-0.111,0.556
		C19.082,19.374,18.985,19.495,18.865,19.587z M21.077,23.213c-0.029,0.091-0.078,0.173-0.143,0.244
		c-0.065,0.072-0.151,0.129-0.256,0.173c-0.105,0.042-0.232,0.064-0.381,0.064h-0.552v0.857H19.22v-2.389h1.077
		c0.149,0,0.276,0.022,0.381,0.063c0.105,0.045,0.19,0.102,0.256,0.174c0.065,0.071,0.114,0.152,0.143,0.245
		c0.031,0.093,0.046,0.187,0.046,0.283C21.123,23.027,21.108,23.121,21.077,23.213z M21.26,17.008h-0.564v1.662
		c0,0.156,0.021,0.26,0.065,0.312c0.043,0.052,0.129,0.079,0.26,0.079c0.086,0,0.167-0.01,0.239-0.027v0.722
		c-0.065,0.012-0.137,0.021-0.218,0.024c-0.079,0.005-0.157,0.008-0.233,0.008c-0.12,0-0.232-0.011-0.339-0.03
		c-0.106-0.02-0.2-0.057-0.282-0.116c-0.082-0.059-0.146-0.141-0.192-0.244c-0.047-0.104-0.071-0.24-0.071-0.408v-1.98h-0.468
		v-0.615h0.468v-1.005h0.771v1.005h0.564V17.008z M23.015,20.17c-0.084,0.269-0.2,0.462-0.348,0.58
		c-0.148,0.118-0.354,0.178-0.619,0.178c-0.08,0-0.158-0.002-0.236-0.008c-0.078-0.007-0.157-0.015-0.237-0.024v-0.758
		c0.073,0.007,0.147,0.017,0.223,0.024c0.076,0.01,0.152,0.013,0.228,0.008c0.065-0.008,0.121-0.035,0.167-0.074
		c0.044-0.042,0.078-0.092,0.1-0.153c0.021-0.06,0.032-0.126,0.032-0.195c0-0.074-0.011-0.144-0.032-0.207l-0.988-3.147h0.825
		l0.635,2.297h0.011l0.614-2.297h0.798L23.015,20.17z M21.179,12.583c-3.313-0.145-4.36-1.673-4.668-2.369
		c-0.309,0.696-1.354,2.225-4.67,2.369c-1.396-0.136-3.657-0.161-3.657-2.259c1.344,0.967,3.767,0.455,4.226-1.399
		c0.35-1.776,3.393-2.829,4.101-1.495c0.706-1.334,3.75-0.281,4.104,1.495c0.455,1.854,2.877,2.366,4.221,1.399
		C24.835,12.422,22.577,12.447,21.179,12.583z M25.241,19.747H24.47v-4.634h0.771V19.747z M27.961,19.572
		c-0.225,0.178-0.497,0.267-0.815,0.267c-0.221,0-0.42-0.042-0.597-0.131c-0.178-0.087-0.329-0.208-0.451-0.363
		c-0.124-0.156-0.219-0.341-0.286-0.559c-0.066-0.215-0.1-0.454-0.1-0.714c0-0.249,0.034-0.484,0.103-0.699
		c0.069-0.217,0.167-0.404,0.293-0.563c0.127-0.158,0.278-0.282,0.455-0.373c0.175-0.092,0.369-0.136,0.583-0.136
		c0.239,0,0.447,0.054,0.625,0.165c0.178,0.111,0.324,0.26,0.438,0.444c0.114,0.186,0.196,0.398,0.247,0.638
		c0.05,0.237,0.069,0.486,0.054,0.746h-2.025c0.011,0.294,0.074,0.509,0.19,0.645c0.116,0.136,0.282,0.205,0.499,0.205
		c0.156,0,0.291-0.047,0.403-0.141c0.111-0.092,0.18-0.19,0.206-0.294h0.678C28.352,19.107,28.186,19.396,27.961,19.572z"/>
</g>
<g>
</g>
<g>
</g>
<g>
</g>
<g>
</g>
<g>
</g>
<g>
</g>
<g>
</g>
<g>
</g>
<g>
</g>
<g>
</g>
<g>
</g>
<g>
</g>
<g>
</g>
<g>
</g>
<g>
</g>
</svg>
