<?xml version="1.0" encoding="iso-8859-1"?>
<!-- Generator: Adobe Illustrator 16.0.0, SVG Export Plug-In . SVG Version: 6.00 Build 0)  -->
<!DOCTYPE svg PUBLIC "-//W3C//DTD SVG 1.1//EN" "http://www.w3.org/Graphics/SVG/1.1/DTD/svg11.dtd">
<svg version="1.1" id="Layer_1" xmlns="http://www.w3.org/2000/svg" xmlns:xlink="http://www.w3.org/1999/xlink" x="0px" y="0px"
	 width="26.781px" height="31.677px" viewBox="0 0 26.781 31.677" style="enable-background:new 0 0 26.781 31.677;"
	 xml:space="preserve">
<path d="M13.493,0.768c-0.94-0.399-1.959-0.646-3.023-0.729L10.31,0c0,0-0.008,0.016-0.016,0.03C10.098,0.018,9.904,0,9.705,0
	C4.344,0,0,4.345,0,9.704c0,2.575,1.009,4.908,2.645,6.646c0,0.003-0.001,0.009-0.001,0.012c0.984,1.291,1.244,3.048,1.272,4.833
	s-1.843,7.084-0.633,8.755c1.21,1.67,6.538,1.713,7.026,1.728s0.921-1.527,0-1.843c-0.316-0.144-0.403-2.275,0-3.226
	c0.403-0.95,2.464-7.697,2.464-7.697l14.007-4.34V3.973L13.493,0.768z M8.97,13.074c-2.123,0-3.844-1.721-3.844-3.845
	S6.847,5.385,8.97,5.385c2.124,0,3.845,1.721,3.845,3.844S11.093,13.074,8.97,13.074z"/>
<g>
</g>
<g>
</g>
<g>
</g>
<g>
</g>
<g>
</g>
<g>
</g>
<g>
</g>
<g>
</g>
<g>
</g>
<g>
</g>
<g>
</g>
<g>
</g>
<g>
</g>
<g>
</g>
<g>
</g>
</svg>
