<?xml version="1.0" encoding="iso-8859-1"?>
<!-- Generator: Adobe Illustrator 16.0.0, SVG Export Plug-In . SVG Version: 6.00 Build 0)  -->
<!DOCTYPE svg PUBLIC "-//W3C//DTD SVG 1.1//EN" "http://www.w3.org/Graphics/SVG/1.1/DTD/svg11.dtd">
<svg version="1.1" id="Layer_1" xmlns="http://www.w3.org/2000/svg" xmlns:xlink="http://www.w3.org/1999/xlink" x="0px" y="0px"
	 width="32px" height="32px" viewBox="0 0 32 32" style="enable-background:new 0 0 32 32;" xml:space="preserve">
<g>
	<path d="M16,0C7.177,0,0,7.178,0,16s7.177,16,16,16s16-7.178,16-16S24.823,0,16,0z M16,31.368C7.526,31.368,0.632,24.474,0.632,16
		S7.526,0.632,16,0.632S31.368,7.526,31.368,16S24.474,31.368,16,31.368z"/>
	<path d="M11.325,10.038c-0.31-0.32-0.871-0.354-1.329-0.08c-0.261,0.157-0.452,0.392-0.543,0.656
		c-0.083,0.254-0.062,0.506,0.061,0.715c0.031,0.051,0.065,0.097,0.107,0.14c0.311,0.319,0.869,0.353,1.328,0.079
		c0.261-0.157,0.455-0.39,0.543-0.654c0.085-0.254,0.064-0.508-0.061-0.715C11.403,10.129,11.366,10.08,11.325,10.038z"/>
	<path d="M18.216,21.271c-0.052-0.077-0.119-0.139-0.202-0.185c-0.082-0.046-0.183-0.067-0.3-0.067
		c-0.119,0-0.219,0.021-0.301,0.067c-0.083,0.046-0.149,0.107-0.202,0.185c-0.05,0.076-0.087,0.165-0.111,0.263
		s-0.036,0.199-0.036,0.304c0,0.101,0.013,0.199,0.036,0.293c0.023,0.095,0.061,0.181,0.111,0.257
		c0.052,0.075,0.119,0.136,0.202,0.182c0.083,0.046,0.183,0.067,0.301,0.067c0.117,0,0.218-0.021,0.3-0.067
		c0.083-0.046,0.149-0.106,0.202-0.182c0.05-0.076,0.089-0.162,0.112-0.257c0.023-0.094,0.035-0.192,0.035-0.293
		c0-0.104-0.011-0.206-0.035-0.304S18.266,21.348,18.216,21.271z"/>
	<path d="M10.157,16.708c-0.057,0.012-0.116,0.023-0.179,0.031c-0.064,0.009-0.125,0.021-0.183,0.032
		c-0.06,0.014-0.118,0.031-0.173,0.052c-0.054,0.022-0.103,0.051-0.145,0.088s-0.075,0.084-0.1,0.144
		c-0.026,0.058-0.039,0.128-0.039,0.211c0,0.087,0.012,0.157,0.039,0.21c0.024,0.055,0.059,0.098,0.102,0.13
		c0.045,0.033,0.095,0.056,0.153,0.069c0.057,0.012,0.117,0.019,0.179,0.019c0.152,0,0.269-0.03,0.352-0.091
		c0.084-0.061,0.146-0.133,0.185-0.217c0.04-0.085,0.064-0.171,0.073-0.257c0.01-0.087,0.014-0.155,0.014-0.208v-0.344
		c-0.032,0.035-0.073,0.062-0.122,0.081C10.266,16.678,10.212,16.694,10.157,16.708z"/>
	<path d="M16.821,8.631c0.104-0.058,0.147-0.186,0.093-0.288c-0.053-0.105-0.181-0.147-0.287-0.096
		c-0.105,0.055-0.143,0.184-0.094,0.287C16.584,8.638,16.714,8.68,16.821,8.631z"/>
	<path d="M20.5,21.108c-0.043-0.027-0.093-0.045-0.148-0.052c-0.056-0.011-0.114-0.016-0.173-0.016h-0.409v0.717h0.409
		c0.06,0,0.118-0.005,0.173-0.013c0.055-0.01,0.104-0.027,0.148-0.052c0.042-0.027,0.075-0.062,0.101-0.108
		c0.026-0.047,0.039-0.108,0.039-0.186c0-0.075-0.012-0.136-0.039-0.183C20.576,21.17,20.542,21.133,20.5,21.108z"/>
	<path d="M16,1.847C8.184,1.847,1.846,8.184,1.846,16S8.184,30.153,16,30.153c7.818,0,14.154-6.337,14.154-14.153
		S23.818,1.847,16,1.847z M22.74,4.502l-0.266,0.611l-5.179,2.771l-0.775-0.51L22.74,4.502z M17.101,8.013l3.348,1.26
		c0.015-0.01,0.032-0.02,0.045-0.025c0.564-0.287,1.314-0.091,1.776,0.468c0.126,0.147,0.223,0.315,0.288,0.49
		c0.259,0.444,1.298,0.391,1.377,0.435c0.081,0.05-0.05,0.354-0.201,0.368c-0.149,0.017-0.813-0.157-1.166,0.25
		c-0.074,0.188-0.191,0.351-0.344,0.478c-0.069,0.06-0.145,0.108-0.226,0.148c-0.567,0.284-1.312,0.089-1.777-0.465
		c-0.254-0.311-0.396-0.689-0.392-1.064c0.006-0.192,0.043-0.37,0.115-0.528l-2.622-1.008l-0.666,0.316l-5.1-4.153l-0.153-0.558
		L17.101,8.013z M8.021,18.22H7.167v-2H5.599v2H4.745v-4.635h0.854v1.779h1.568v-1.779h0.854V18.22z M10.524,18.22
		c-0.015-0.053-0.027-0.105-0.036-0.16c-0.008-0.054-0.015-0.108-0.019-0.165c-0.123,0.151-0.268,0.26-0.435,0.321
		c-0.167,0.063-0.337,0.095-0.51,0.095c-0.135,0-0.26-0.021-0.375-0.062c-0.116-0.042-0.218-0.104-0.304-0.186
		s-0.154-0.187-0.204-0.311c-0.049-0.127-0.073-0.275-0.073-0.449c0-0.189,0.027-0.347,0.082-0.47
		c0.054-0.124,0.126-0.222,0.217-0.296c0.09-0.074,0.192-0.128,0.306-0.165s0.231-0.065,0.351-0.088
		c0.118-0.021,0.233-0.039,0.342-0.052c0.109-0.014,0.205-0.032,0.291-0.059c0.085-0.025,0.153-0.063,0.204-0.113
		c0.051-0.051,0.075-0.122,0.075-0.217c0-0.101-0.014-0.18-0.041-0.237c-0.027-0.059-0.063-0.104-0.109-0.136
		c-0.044-0.033-0.098-0.055-0.157-0.065c-0.061-0.012-0.125-0.017-0.193-0.017c-0.148,0-0.267,0.038-0.355,0.116
		s-0.141,0.209-0.156,0.391H8.655c0.011-0.217,0.056-0.396,0.136-0.539c0.079-0.143,0.182-0.258,0.304-0.345
		c0.124-0.086,0.261-0.147,0.413-0.185c0.152-0.036,0.308-0.055,0.468-0.055c0.141,0,0.284,0.011,0.428,0.034
		c0.145,0.025,0.277,0.071,0.396,0.141c0.12,0.07,0.218,0.166,0.293,0.292c0.077,0.126,0.115,0.288,0.115,0.487v1.746
		c0,0.15,0.006,0.296,0.021,0.435c0.015,0.138,0.04,0.242,0.077,0.312H10.524z M10.702,12.085c-0.508,0.132-1.038,0.016-1.375-0.335
		c-0.061-0.066-0.116-0.136-0.163-0.212c-0.187-0.312-0.219-0.688-0.095-1.053c0.12-0.358,0.375-0.669,0.72-0.874
		c0.616-0.374,1.389-0.312,1.832,0.145c0.021,0.023,0.038,0.046,0.058,0.07l0.01,0.027l3.489-1.678l0.673,0.602l-3.934,1.618
		l0.02,0.053c0.023,0.188,0.006,0.379-0.058,0.573c-0.102,0.302-0.302,0.57-0.568,0.773C11.149,11.95,10.923,12.037,10.702,12.085z
		 M12.598,13.585v0.76h-0.771v-0.76H12.598z M11.827,14.864h0.771v3.355h-0.771V14.864z M13.789,22.617
		c-0.042,0.094-0.105,0.176-0.189,0.242c-0.083,0.069-0.186,0.122-0.311,0.161c-0.124,0.039-0.267,0.059-0.43,0.059
		c-0.131,0-0.259-0.018-0.383-0.049c-0.124-0.035-0.232-0.086-0.326-0.154c-0.094-0.069-0.169-0.157-0.226-0.265
		s-0.084-0.233-0.082-0.382h0.509c0,0.08,0.014,0.148,0.043,0.205c0.028,0.055,0.066,0.1,0.115,0.135
		c0.048,0.034,0.104,0.061,0.168,0.078c0.063,0.016,0.131,0.024,0.203,0.024c0.047,0,0.096-0.005,0.149-0.013
		c0.054-0.008,0.104-0.022,0.15-0.044c0.047-0.022,0.086-0.055,0.118-0.093c0.031-0.038,0.047-0.088,0.047-0.149
		c0-0.064-0.021-0.116-0.062-0.156c-0.041-0.04-0.095-0.073-0.162-0.104c-0.068-0.027-0.143-0.051-0.229-0.069
		c-0.084-0.02-0.17-0.04-0.257-0.065c-0.089-0.022-0.177-0.049-0.261-0.082c-0.085-0.032-0.16-0.074-0.229-0.125
		c-0.066-0.051-0.12-0.115-0.162-0.191c-0.041-0.074-0.062-0.168-0.062-0.28c0-0.123,0.026-0.229,0.079-0.32
		c0.052-0.089,0.121-0.165,0.205-0.225c0.085-0.061,0.181-0.105,0.288-0.134c0.107-0.029,0.213-0.044,0.321-0.044
		c0.125,0,0.245,0.015,0.359,0.042c0.115,0.027,0.217,0.073,0.307,0.136c0.089,0.062,0.16,0.143,0.212,0.239
		c0.053,0.097,0.079,0.214,0.079,0.353h-0.509c-0.005-0.07-0.02-0.13-0.044-0.177c-0.026-0.047-0.061-0.084-0.103-0.111
		s-0.091-0.046-0.147-0.057c-0.055-0.011-0.115-0.018-0.178-0.018c-0.042,0-0.084,0.005-0.127,0.015
		c-0.042,0.008-0.081,0.025-0.115,0.047c-0.034,0.022-0.063,0.05-0.085,0.084c-0.022,0.035-0.033,0.077-0.033,0.127
		c0,0.047,0.008,0.084,0.026,0.113c0.019,0.029,0.053,0.055,0.106,0.079c0.052,0.022,0.125,0.047,0.217,0.074
		c0.093,0.024,0.214,0.057,0.363,0.094c0.028,0.007,0.067,0.017,0.114,0.029s0.096,0.028,0.148,0.05
		c0.053,0.021,0.105,0.049,0.157,0.081c0.053,0.035,0.101,0.075,0.145,0.124c0.043,0.049,0.079,0.108,0.104,0.176
		c0.027,0.068,0.041,0.147,0.041,0.236C13.854,22.422,13.833,22.523,13.789,22.617z M14.015,16.289
		c-0.026,0.132-0.038,0.271-0.038,0.419v1.512h-0.772v-3.355h0.733v0.623h0.011c0.036-0.104,0.085-0.2,0.147-0.289
		c0.061-0.089,0.132-0.164,0.211-0.227c0.079-0.063,0.166-0.111,0.258-0.146c0.093-0.034,0.186-0.052,0.279-0.052
		c0.058,0,0.115,0.01,0.169,0.032v0.857c-0.037-0.009-0.081-0.018-0.131-0.023c-0.05-0.007-0.1-0.01-0.147-0.01
		c-0.141,0-0.26,0.028-0.358,0.085c-0.098,0.056-0.177,0.132-0.236,0.229C14.083,16.042,14.04,16.157,14.015,16.289z M16.182,23.022
		h-0.525v-1.03h-0.967v1.03h-0.525v-2.389h0.525v0.916h0.967v-0.916h0.525V23.022z M18.807,22.323
		c-0.053,0.15-0.129,0.284-0.231,0.396c-0.1,0.111-0.222,0.198-0.368,0.265c-0.145,0.063-0.31,0.096-0.494,0.096
		c-0.186,0-0.351-0.032-0.496-0.096c-0.146-0.066-0.268-0.153-0.368-0.265s-0.178-0.245-0.231-0.396
		c-0.053-0.151-0.081-0.313-0.081-0.485c0-0.177,0.027-0.341,0.081-0.495c0.053-0.153,0.131-0.286,0.231-0.4
		c0.1-0.113,0.222-0.203,0.368-0.27c0.145-0.063,0.31-0.096,0.496-0.096c0.184,0,0.35,0.032,0.494,0.096
		c0.146,0.066,0.268,0.156,0.368,0.27c0.102,0.114,0.178,0.247,0.231,0.4c0.055,0.154,0.081,0.318,0.081,0.495
		C18.888,22.01,18.862,22.172,18.807,22.323z M18.891,18.058c-0.119,0.09-0.255,0.155-0.41,0.193c-0.153,0.04-0.31,0.06-0.47,0.06
		c-0.163,0-0.322-0.02-0.478-0.06c-0.156-0.038-0.294-0.104-0.415-0.197c-0.123-0.093-0.221-0.215-0.299-0.367
		c-0.078-0.15-0.121-0.337-0.127-0.558h0.732c0,0.1,0.017,0.186,0.052,0.257s0.079,0.13,0.133,0.176
		c0.055,0.044,0.116,0.078,0.187,0.1c0.07,0.022,0.145,0.032,0.22,0.032c0.055,0,0.113-0.008,0.172-0.022s0.114-0.039,0.163-0.071
		c0.048-0.032,0.089-0.075,0.122-0.13c0.032-0.055,0.048-0.122,0.048-0.204c0-0.069-0.02-0.13-0.059-0.179
		c-0.04-0.05-0.098-0.094-0.172-0.134c-0.074-0.038-0.166-0.074-0.274-0.106c-0.108-0.033-0.231-0.066-0.369-0.101
		c-0.112-0.03-0.221-0.065-0.329-0.107c-0.106-0.041-0.201-0.096-0.284-0.162c-0.084-0.066-0.151-0.151-0.202-0.253
		c-0.05-0.102-0.077-0.227-0.077-0.373c0-0.213,0.036-0.388,0.106-0.528c0.07-0.142,0.164-0.251,0.279-0.331
		c0.116-0.08,0.247-0.138,0.392-0.17c0.144-0.031,0.292-0.048,0.446-0.048c0.152,0,0.299,0.018,0.442,0.052
		c0.144,0.035,0.271,0.093,0.383,0.176c0.112,0.081,0.205,0.191,0.279,0.327s0.119,0.309,0.133,0.517h-0.732
		c-0.011-0.178-0.068-0.298-0.169-0.361c-0.102-0.063-0.221-0.094-0.358-0.094c-0.043,0-0.09,0.003-0.141,0.01
		c-0.051,0.007-0.098,0.021-0.139,0.042c-0.042,0.021-0.078,0.054-0.106,0.095c-0.03,0.04-0.043,0.096-0.043,0.165
		c0,0.083,0.025,0.149,0.076,0.201c0.05,0.052,0.117,0.094,0.199,0.126c0.082,0.033,0.174,0.062,0.279,0.088
		c0.105,0.025,0.212,0.055,0.321,0.085c0.111,0.03,0.221,0.066,0.329,0.11c0.106,0.043,0.201,0.1,0.284,0.172
		c0.084,0.071,0.15,0.16,0.201,0.267c0.051,0.105,0.077,0.237,0.077,0.393c0,0.22-0.037,0.405-0.111,0.555
		C19.107,17.847,19.011,17.966,18.891,18.058z M21.103,21.684c-0.029,0.092-0.078,0.173-0.143,0.245
		c-0.065,0.071-0.151,0.128-0.256,0.172s-0.232,0.064-0.381,0.064h-0.552v0.857h-0.525v-2.389h1.077
		c0.149,0,0.276,0.022,0.381,0.065s0.19,0.101,0.256,0.172s0.114,0.153,0.143,0.247c0.031,0.091,0.046,0.187,0.046,0.281
		C21.149,21.498,21.134,21.593,21.103,21.684z M21.286,15.479h-0.564v1.663c0,0.155,0.021,0.259,0.065,0.312
		c0.043,0.052,0.129,0.077,0.261,0.077c0.086,0,0.167-0.009,0.238-0.025v0.72c-0.065,0.014-0.137,0.022-0.217,0.025
		c-0.079,0.006-0.157,0.008-0.234,0.008c-0.12,0-0.232-0.01-0.339-0.029c-0.106-0.02-0.2-0.059-0.282-0.117s-0.146-0.14-0.192-0.244
		c-0.047-0.104-0.071-0.239-0.071-0.408v-1.98h-0.468v-0.615h0.468v-1.006h0.771v1.006h0.564V15.479z M23.041,18.642
		c-0.084,0.269-0.2,0.462-0.348,0.58c-0.148,0.119-0.354,0.179-0.619,0.179c-0.08,0-0.158-0.003-0.236-0.009
		c-0.078-0.008-0.157-0.015-0.237-0.023v-0.76c0.073,0.009,0.147,0.018,0.224,0.025c0.075,0.009,0.152,0.012,0.227,0.008
		c0.065-0.009,0.121-0.034,0.167-0.075c0.044-0.041,0.078-0.092,0.1-0.152c0.021-0.06,0.032-0.126,0.032-0.194
		c0-0.074-0.011-0.144-0.032-0.208l-0.988-3.147h0.825l0.635,2.297h0.011l0.614-2.297h0.798L23.041,18.642z M25.267,18.22h-0.771
		v-4.635h0.771V18.22z M27.987,18.044c-0.225,0.178-0.497,0.267-0.815,0.267c-0.221,0-0.42-0.043-0.597-0.131
		c-0.178-0.086-0.329-0.207-0.451-0.363c-0.124-0.155-0.219-0.342-0.285-0.558c-0.067-0.217-0.1-0.455-0.1-0.714
		c0-0.251,0.033-0.484,0.103-0.7c0.069-0.217,0.167-0.404,0.292-0.563c0.127-0.158,0.278-0.281,0.455-0.373
		c0.175-0.091,0.369-0.136,0.583-0.136c0.239,0,0.447,0.055,0.625,0.166c0.178,0.109,0.323,0.258,0.437,0.444
		c0.114,0.186,0.196,0.397,0.247,0.636c0.051,0.237,0.069,0.487,0.054,0.746H26.51c0.011,0.294,0.074,0.509,0.19,0.646
		c0.116,0.137,0.282,0.204,0.499,0.204c0.156,0,0.291-0.046,0.403-0.14c0.111-0.093,0.18-0.191,0.206-0.295h0.678
		C28.377,17.579,28.212,17.867,27.987,18.044z"/>
	<path d="M21.814,11.521c0.055-0.025,0.103-0.061,0.146-0.096c0.185-0.155,0.289-0.39,0.292-0.657
		c0.007-0.279-0.099-0.563-0.295-0.798c-0.338-0.409-0.878-0.563-1.279-0.359c-0.053,0.024-0.104,0.058-0.149,0.094
		c-0.182,0.155-0.287,0.388-0.289,0.654c-0.005,0.28,0.1,0.564,0.296,0.796C20.876,11.569,21.418,11.723,21.814,11.521z"/>
	<path d="M27.571,15.649c-0.092-0.121-0.232-0.182-0.42-0.182c-0.124,0-0.226,0.024-0.308,0.074
		c-0.082,0.051-0.146,0.112-0.195,0.186s-0.083,0.151-0.104,0.232c-0.02,0.083-0.031,0.156-0.035,0.222h1.255
		C27.728,15.948,27.664,15.771,27.571,15.649z"/>
</g>
<g>
</g>
<g>
</g>
<g>
</g>
<g>
</g>
<g>
</g>
<g>
</g>
<g>
</g>
<g>
</g>
<g>
</g>
<g>
</g>
<g>
</g>
<g>
</g>
<g>
</g>
<g>
</g>
<g>
</g>
</svg>
