<?xml version="1.0" encoding="iso-8859-1"?>
<!-- Generator: Adobe Illustrator 16.0.0, SVG Export Plug-In . SVG Version: 6.00 Build 0)  -->
<!DOCTYPE svg PUBLIC "-//W3C//DTD SVG 1.1//EN" "http://www.w3.org/Graphics/SVG/1.1/DTD/svg11.dtd">
<svg version="1.1" id="Layer_1" xmlns="http://www.w3.org/2000/svg" xmlns:xlink="http://www.w3.org/1999/xlink" x="0px" y="0px"
	 width="33.093px" height="31.439px" viewBox="0 0 33.093 31.439" style="enable-background:new 0 0 33.093 31.439;"
	 xml:space="preserve">
<g>
	<path d="M8.561,7.226c-0.045,0.129-0.044,0.448-0.01,0.76c0,0.045-0.013,0.087-0.013,0.133c0,0.208,0.009,0.414,0.028,0.618
		c0.317,3.353,3.099,5.882,6.471,5.882c3.585,0,6.5-2.916,6.5-6.5c0-0.18-0.039-0.349-0.053-0.525
		c0.026-0.209,0.05-0.433,0.068-0.693c0.231-0.41,0.125-2.557-0.607-2.598c0.042-1.184-0.44-1.194-0.608-1.508
		c-0.167-0.315-0.304-1.195-0.628-1.236c0.156,0.638,0.094,0.712,0,0.628c-0.095-0.084-0.86-1.572-1.342-1.593
		c0.482,0.629,0.754,1.205,0.671,1.153c-0.084-0.052-2.63-1.676-3.897-1.738c-1.268-0.063-2.85,0.984-2.85,0.984
		s-0.074-0.524,0.398-0.984c-0.346-0.105-0.837,0.852-0.922,1.005c-0.041,0.072-0.703-0.04-1.331,0.251
		C9.735,1.59,9.051,2.339,8.813,2.815c-0.45,0.901-0.345,2.085-0.335,2.262c0.01,0.177-0.283,0.566-0.23,0.975
		C8.299,6.461,8.656,6.953,8.561,7.226z M9.777,8.954c0.175-0.511,0.494-0.722,0.481-1.047C10.238,7.32,9.866,7.431,9.861,6.839
		c-0.002-0.322,0.058-0.678,0.153-1.011c0.21-0.458,0.489-0.875,0.811-1.256c0.862-0.263,3.456,0.587,4.023,0.381
		c0.272-0.335,2.65-0.534,3.855-0.283c0.496,0.104,1.136,0.822,1.414,2.011c0.2,0.852,0.281,1.86,0.312,2.652
		c-0.557,2.468-2.757,4.32-5.392,4.32c-2.593,0-4.76-1.762-5.358-4.205C9.702,9.266,9.729,9.092,9.777,8.954z"/>
	<path d="M32.538,12.167l0.01-2.238l-0.327-0.002l-0.007,1.525l-0.138,0l0.007-1.524l-0.224-0.001l-0.006,1.524h-0.138l0.008-1.524
		l-0.229-0.002l-0.007,1.525l-0.137,0l0.006-1.524l-0.223-0.001l-0.007,1.524l-0.138-0.001l0.007-1.525l-0.249,0l-0.007,1.524
		l-0.137-0.001l0.006-1.523l-0.223-0.001l-0.007,1.524l-0.137-0.001l0.006-1.523l-0.229-0.001l-0.007,1.524l-0.138,0l0.007-1.524
		l-0.223-0.001l-0.007,1.524l-0.138,0l0.007-1.524L29.25,9.913l-0.007,1.525l-0.136-0.001l0.006-1.523L28.89,9.912l-0.008,1.524
		l-0.136,0l0.006-1.525L28.523,9.91l-0.007,1.525l-0.138-0.001l0.008-1.524l-0.224,0l-0.008,1.523h-0.138l0.008-1.525l-0.25,0
		l-0.007,1.524l-0.138-0.001l0.008-1.524l-0.286-0.001l-0.011,2.238l-0.406-0.002l-0.01,1.979h0.006
		c0.031,0.363,0.196,2.304,0.377,4.516l-1.057,1.371l-4.383-3.396l0.001-0.027l-0.058-0.017l-0.063-0.048l-0.019,0.025l-2.692-0.776
		c0,1.873-1.518,3.391-3.391,3.391c-1.872,0-3.39-1.518-3.39-3.391l-3.703,0.814l-0.004-0.005l-4.501,3.49l-1.708-2.205L0,20.001
		l1.551,2.001l0.171,0.22l1.769,2.283l2.5-1.936l-0.004-0.005l2.787-2.159l0.532,11.034h11.694l0.643-11.007l2.676,2.073
		l-0.004,0.005l2.5,1.936l0.868-1.121c0.1,1.336,0.169,2.375,0.168,2.678c-0.006,1.106,4.2,0.923,4.204,0.019
		c0.004-0.864,0.944-10.994,1.025-11.874h0.006l0.009-1.98L32.538,12.167z M29.982,19.287c-0.348-0.001-0.627-0.584-0.625-1.304
		c0.003-0.719,0.289-1.3,0.637-1.298c0.347,0.001,0.627,0.585,0.624,1.304C30.615,18.708,30.33,19.289,29.982,19.287z M32.53,13.618
		l-5.045-0.023l0.001-0.339l5.046,0.023L32.53,13.618z"/>
	<ellipse cx="29.988" cy="17.933" rx="0.302" ry="0.624"/>
</g>
<g>
</g>
<g>
</g>
<g>
</g>
<g>
</g>
<g>
</g>
<g>
</g>
<g>
</g>
<g>
</g>
<g>
</g>
<g>
</g>
<g>
</g>
<g>
</g>
<g>
</g>
<g>
</g>
<g>
</g>
</svg>
