<?xml version="1.0" encoding="iso-8859-1"?>
<!-- Generator: Adobe Illustrator 16.0.0, SVG Export Plug-In . SVG Version: 6.00 Build 0)  -->
<!DOCTYPE svg PUBLIC "-//W3C//DTD SVG 1.1//EN" "http://www.w3.org/Graphics/SVG/1.1/DTD/svg11.dtd">
<svg version="1.1" id="Layer_1" xmlns="http://www.w3.org/2000/svg" xmlns:xlink="http://www.w3.org/1999/xlink" x="0px" y="0px"
	 width="31.366px" height="27.419px" viewBox="0 0 31.366 27.419" style="enable-background:new 0 0 31.366 27.419;"
	 xml:space="preserve">
<g>
	<path d="M10.894,6.226c-0.039,0.111-0.038,0.386-0.009,0.655c0,0.039-0.011,0.075-0.011,0.115c0,0.179,0.008,0.357,0.024,0.532
		c0.273,2.889,2.67,5.067,5.575,5.067c3.088,0,5.6-2.512,5.6-5.6c0-0.155-0.033-0.301-0.046-0.453
		c0.023-0.18,0.043-0.373,0.059-0.597c0.199-0.353,0.108-2.203-0.523-2.238c0.036-1.021-0.379-1.029-0.523-1.3
		c-0.144-0.271-0.262-1.03-0.542-1.065c0.135,0.549,0.081,0.613,0,0.542c-0.082-0.073-0.74-1.354-1.156-1.373
		c0.416,0.542,0.65,1.038,0.578,0.993s-2.266-1.444-3.357-1.498c-1.092-0.055-2.455,0.848-2.455,0.848s-0.064-0.451,0.342-0.848
		c-0.297-0.09-0.721,0.734-0.794,0.866c-0.035,0.063-0.605-0.034-1.146,0.216c-0.604,0.281-1.194,0.926-1.399,1.337
		c-0.387,0.776-0.297,1.796-0.289,1.948c0.008,0.153-0.243,0.488-0.198,0.84C10.668,5.567,10.975,5.991,10.894,6.226z M11.941,7.714
		c0.151-0.44,0.425-0.622,0.415-0.902c-0.018-0.505-0.338-0.41-0.342-0.92c-0.002-0.278,0.049-0.584,0.132-0.871
		c0.181-0.395,0.421-0.753,0.698-1.082c0.743-0.227,2.978,0.505,3.466,0.328c0.235-0.289,2.283-0.46,3.321-0.244
		c0.427,0.089,0.979,0.708,1.218,1.733c0.172,0.734,0.242,1.602,0.269,2.285c-0.48,2.126-2.376,3.722-4.645,3.722
		c-2.234,0-4.102-1.518-4.616-3.622C11.876,7.983,11.9,7.833,11.941,7.714z"/>
	<path d="M29.475,20.104c0-0.574,0-6.853,0-6.853h-0.788c0,0,0,1.842,0,3.622l-1.331-1.22l-1.222,1.583l-3.776-2.926l0.002-0.023
		l-0.05-0.015l-0.054-0.042l-0.016,0.022l-2.32-0.668c0,1.613-1.308,2.92-2.92,2.92s-2.92-1.307-2.92-2.92l-3.19,0.701l-0.004-0.004
		l-3.878,3.006l-1.471-1.899L5.46,15.457l0.375-4.454h0.003v-0.041l0.001-0.012H5.838V9.934H0.001v1.017H0l0.001,0.012v0.041h0.003
		l0.87,10.344h4.091l0.17-2.028l1.389,1.792l2.153-1.667l-0.003-0.004l2.401-1.86l0.458,9.506h10.075l0.554-9.482l2.305,1.786
		l-0.003,0.004l2.154,1.668l1.523-1.966l0.147-0.189l0.399-0.518c0,0.869,0,1.552,0,1.716c0,0.551-2.137,2.386-2.137,2.622
		c0,0.237,0,1.778,0,1.778h4.815c0,0,0-1.519,0-1.778S29.475,20.678,29.475,20.104z M1.26,20.928l-0.804-9.558h4.927l-0.379,4.503
		l-1.486,1.357l1.238,1.597l-0.177,2.1H1.26z"/>
	<path d="M26.932,27.419h0.173c0-0.077-0.001-0.153-0.002-0.23c0.004-0.536,0.009-1.072,0.024-1.474s0.03-0.67,0.03-0.67
		s0.016,0.269,0.031,0.67s0.02,0.938,0.023,1.474c0,0.078-0.002,0.154-0.002,0.23h0.11c0-0.077-0.001-0.153-0.002-0.23
		c0.004-0.536,0.009-1.072,0.024-1.474s0.031-0.67,0.031-0.67s0.016,0.269,0.03,0.67c0.015,0.402,0.02,0.938,0.024,1.474
		c-0.001,0.078-0.001,0.154-0.002,0.23h0.121c0-0.077-0.001-0.153-0.002-0.23c0.004-0.536,0.009-1.072,0.024-1.474
		c0.015-0.402,0.03-0.67,0.03-0.67s0.016,0.269,0.03,0.67c0.015,0.402,0.02,0.938,0.024,1.474c0,0.078-0.002,0.154-0.002,0.23h0.093
		c-0.001-0.077-0.001-0.153-0.002-0.23c0.004-0.536,0.009-1.072,0.023-1.474c0.015-0.402,0.031-0.67,0.031-0.67
		s0.016,0.269,0.03,0.67s0.02,0.938,0.023,1.474c0,0.078-0.001,0.154-0.001,0.23h0.07c0-0.077-0.001-0.153-0.002-0.23
		c0.004-0.536,0.009-1.072,0.024-1.474c0.015-0.402,0.03-0.67,0.03-0.67s0.017,0.268,0.03,0.67c0.015,0.402,0.02,0.938,0.024,1.474
		c0,0.078-0.001,0.154-0.002,0.23h0.098c0-0.077-0.001-0.153-0.001-0.23c0.004-0.536,0.009-1.072,0.024-1.474
		c0.014-0.402,0.03-0.67,0.03-0.67s0.016,0.269,0.03,0.67c0.015,0.402,0.02,0.938,0.024,1.474c0,0.078-0.002,0.154-0.002,0.23h0.087
		c0-0.077-0.001-0.153-0.002-0.23c0.004-0.536,0.009-1.072,0.024-1.474c0.014-0.402,0.03-0.67,0.03-0.67s0.016,0.269,0.03,0.67
		s0.02,0.938,0.024,1.474c0,0.078-0.001,0.154-0.002,0.23h0.11c-0.001-0.077-0.002-0.153-0.002-0.23
		c0.004-0.536,0.009-1.072,0.023-1.474c0.015-0.402,0.031-0.67,0.031-0.67s0.016,0.269,0.03,0.67s0.02,0.938,0.023,1.474
		c0,0.078,0,0.154-0.001,0.23h0.11c-0.001-0.077-0.002-0.153-0.002-0.23c0.004-0.536,0.009-1.072,0.023-1.474
		c0.015-0.402,0.031-0.67,0.031-0.67s0.016,0.269,0.03,0.67s0.02,0.938,0.024,1.474c0,0.078-0.001,0.154-0.002,0.23h0.098
		c-0.001-0.077-0.001-0.153-0.002-0.23c0.003-0.536,0.009-1.072,0.024-1.474s0.03-0.67,0.03-0.67s0.016,0.269,0.03,0.67
		c0.015,0.402,0.02,0.938,0.024,1.474c-0.001,0.078-0.001,0.154-0.002,0.23h0.104c0-0.077-0.001-0.153-0.001-0.23
		c0.003-0.536,0.008-1.072,0.023-1.474s0.031-0.67,0.031-0.67s0.016,0.269,0.03,0.67s0.02,0.938,0.023,1.474
		c0,0.078-0.001,0.154-0.001,0.23h0.104c-0.001-0.077-0.002-0.153-0.002-0.23c0.003-0.536,0.009-1.072,0.023-1.474
		s0.03-0.67,0.03-0.67s0.016,0.269,0.031,0.67c0.014,0.402,0.02,0.938,0.023,1.474c0,0.078-0.001,0.154-0.002,0.23h0.076
		c-0.001-0.077-0.001-0.153-0.002-0.23c0.004-0.536,0.009-1.072,0.024-1.474s0.03-0.67,0.03-0.67s0.017,0.269,0.03,0.67
		c0.015,0.402,0.02,0.938,0.023,1.474c0,0.078-0.001,0.154-0.001,0.23h0.059c0-0.077-0.001-0.153-0.002-0.23
		c0.004-0.536,0.009-1.072,0.024-1.474s0.031-0.67,0.031-0.67s0.016,0.269,0.03,0.67c0.015,0.402,0.02,0.938,0.024,1.474
		c0,0.078-0.001,0.154-0.001,0.23h0.092c-0.001-0.077-0.001-0.153-0.001-0.23c0.003-0.536,0.009-1.072,0.023-1.474
		c0.015-0.402,0.031-0.67,0.031-0.67s0.016,0.269,0.031,0.67c0.014,0.402,0.02,0.938,0.023,1.474c0,0.078-0.001,0.154-0.002,0.23
		h0.07c0-0.077-0.001-0.153-0.002-0.23c0.004-0.536,0.008-1.072,0.023-1.474c0.015-0.402,0.031-0.67,0.031-0.67
		s0.016,0.269,0.03,0.67c0.015,0.402,0.02,0.938,0.023,1.474c0,0.078-0.001,0.154-0.001,0.23h0.081c0-0.077-0.001-0.153-0.001-0.23
		c0.003-0.536,0.008-1.072,0.023-1.474c0.015-0.402,0.03-0.67,0.03-0.67s0.016,0.269,0.031,0.67c0.015,0.402,0.02,0.938,0.023,1.474
		c-0.001,0.078-0.002,0.154-0.002,0.23h0.07c-0.001-0.077-0.001-0.153-0.002-0.23c0.004-0.536,0.009-1.072,0.023-1.474
		c0.015-0.402,0.031-0.67,0.031-0.67s0.016,0.269,0.03,0.67s0.02,0.938,0.023,1.474c-0.001,0.078-0.001,0.154-0.002,0.23h0.064
		c0-0.077-0.001-0.153-0.001-0.23c0.003-0.536,0.009-1.072,0.023-1.474c0.015-0.402,0.031-0.67,0.031-0.67s0.015,0.269,0.03,0.67
		c0.014,0.402,0.02,0.938,0.023,1.474c0,0.078-0.001,0.154-0.001,0.23h0.179v-2.703h-3.95V27.419z"/>
	<rect x="1.067" y="21.633" width="3.706" height="1.589"/>
</g>
<g>
</g>
<g>
</g>
<g>
</g>
<g>
</g>
<g>
</g>
<g>
</g>
<g>
</g>
<g>
</g>
<g>
</g>
<g>
</g>
<g>
</g>
<g>
</g>
<g>
</g>
<g>
</g>
<g>
</g>
</svg>
