<?xml version="1.0" encoding="utf-8"?>
<!-- Generator: Adobe Illustrator 16.0.4, SVG Export Plug-In . SVG Version: 6.00 Build 0)  -->
<!DOCTYPE svg PUBLIC "-//W3C//DTD SVG 1.1//EN" "http://www.w3.org/Graphics/SVG/1.1/DTD/svg11.dtd">
<svg version="1.1" id="Layer_1" xmlns="http://www.w3.org/2000/svg" xmlns:xlink="http://www.w3.org/1999/xlink" x="0px" y="0px"
	 width="26.5px" height="21.324px" viewBox="0 0 26.5 21.324" enable-background="new 0 0 26.5 21.324" xml:space="preserve">
<path d="M25.875,12.517c-0.834-0.035-10.021-0.084-10.208-5.084c1.176,0,2.106,0,2.375,0c0.938,0,0.646-2.5,0-2.5
	c-0.308,0-2.538,0-4.792,0s-4.484,0-4.791,0c-0.646,0-0.938,2.5,0,2.5c0.269,0,1.199,0,2.375,0c-0.188,5-9.374,5.049-10.208,5.084
	s-0.834,3.958,0,3.874c0.397-0.04,6.097-0.175,11.958-0.166c0.222,0,0.444,0.001,0.667,0.002c0.222-0.001,0.444-0.002,0.667-0.002
	c5.861-0.009,11.561,0.126,11.958,0.166C26.709,16.475,26.709,12.552,25.875,12.517z"/>
</svg>
