<?xml version="1.0" encoding="iso-8859-1"?>
<!-- Generator: Adobe Illustrator 16.0.0, SVG Export Plug-In . SVG Version: 6.00 Build 0)  -->
<!DOCTYPE svg PUBLIC "-//W3C//DTD SVG 1.1//EN" "http://www.w3.org/Graphics/SVG/1.1/DTD/svg11.dtd">
<svg version="1.1" id="Layer_1" xmlns="http://www.w3.org/2000/svg" xmlns:xlink="http://www.w3.org/1999/xlink" x="0px" y="0px"
	 width="29.179px" height="31.419px" viewBox="0 0 29.179 31.419" style="enable-background:new 0 0 29.179 31.419;"
	 xml:space="preserve">
<path d="M22.595,10.907c-0.46-1.478-5.736-0.037-7.099,0.192c-1.362,0.229-8.313-1.595-8.288-0.192s0.077,3.468,0,3.69
	c-0.077,0.224,0.345,3.409,0.345,3.409s3.875,3.185,1.305,4.911c0.576-0.115,1.688,1.15,0,2.378c0.768,0.27,0.576,2.495-0.844,3.263
	c-0.269,0.345,1.612,1.765,0.346,2.686c-1.267,0.921-2.149-2.094-2.149-2.094s-1.574-0.477-1.074-1.782
	c-0.691,0.499-5.18-1.957-2.341-4.681c-0.076,0.499-3.799-1.228-0.997-4.183c-0.691,0-4.87-3.596,2.532-7.138
	c-1.189-0.536-1.535-8.863,0.806-9.784c2.34-0.921,2.378,2.302,2.378,2.302s0.768-3.645,6.946-3.568
	c4.681-1.727,8.134,4.183,8.134,4.183s-0.652-4.489,2.379-2.954c3.031,1.535,0.844,10.169-1.42,9.977
	c-0.192,0.038,9.938,4.682,3.454,8.441c1.765,2.188-1.804,3.876-1.804,3.876s2.302,2.686-1.113,4.873
	c-0.23,0.346,0.307,2.187-1.497,2.033c-1.803-0.152-0.345-2.763-0.345-2.763s-3.99-2.647,0.115-5.602
	c-0.767-0.039-3.031-1.305,0-6.331c0.201-0.988,0.538-2.61,0.538-2.802S23.056,12.385,22.595,10.907z"/>
<g>
</g>
<g>
</g>
<g>
</g>
<g>
</g>
<g>
</g>
<g>
</g>
<g>
</g>
<g>
</g>
<g>
</g>
<g>
</g>
<g>
</g>
<g>
</g>
<g>
</g>
<g>
</g>
<g>
</g>
</svg>
