<?xml version="1.0" encoding="iso-8859-1"?>
<!-- Generator: Adobe Illustrator 16.0.0, SVG Export Plug-In . SVG Version: 6.00 Build 0)  -->
<!DOCTYPE svg PUBLIC "-//W3C//DTD SVG 1.1//EN" "http://www.w3.org/Graphics/SVG/1.1/DTD/svg11.dtd">
<svg version="1.1" id="Layer_1" xmlns="http://www.w3.org/2000/svg" xmlns:xlink="http://www.w3.org/1999/xlink" x="0px" y="0px"
	 width="31.394px" height="28.659px" viewBox="0 0 31.394 28.659" style="enable-background:new 0 0 31.394 28.659;"
	 xml:space="preserve">
<g>
	<ellipse cx="28.285" cy="3.203" rx="3.108" ry="3.203"/>
	<path d="M30.329,7.78c-1.124-0.913-3.076-0.403-4.046-0.131c-0.756,0.29-2.934,0.674-4.218,0.885
		c-0.042-0.151-0.108-0.295-0.206-0.422c-0.271-0.354-0.715-0.536-1.152-0.478c-0.365-0.426-1.016-0.55-1.511-0.296
		c-0.427-0.389-1.125-0.427-1.599-0.067c-0.265,0.202-0.436,0.496-0.479,0.826c-0.03,0.227,0.006,0.449,0.094,0.653
		c-0.461,0.218-0.872,0.556-1.178,1.008c-0.822,1.222-0.601,2.838,0.456,3.802h-0.22l-0.088,0.24
		c-0.084,0.229-0.1,0.444-0.069,0.648c-0.546-0.367-1.053-0.707-1.053-0.707l-0.105,0.08l-0.056-0.08c0,0-4.774,2.828-6.446,1.537
		c-0.959-0.626-1.587,0.363,0.295,1.726c0.423,0.305,1.009,0.37,1.663,0.29l-2.311,1.891c-1.56,0.002-3.155,0.017-3.507,0.065
		C3.866,19.354,0,25.863,0,25.863l3.271,0.003l2.768-3.983h5.367v-0.031c0.349-0.33,5.128-4.864,5.674-5.382
		c0.185-0.174,0.318-0.327,0.408-0.466c0.045,0.023,0.089,0.047,0.133,0.067v1.228l-5.401,5.316H5.693v1.924h3.168l-0.401,2.26
		H5.602l-0.977,1.466h10.992l-0.977-1.466H11.6l-0.402-2.26h3.107v-1.277l3.315-3.264v8.267v0.366h0.366h4.58h0.367v-0.366V13.963
		v-0.362l-0.363-0.004c-0.018,0-0.928-0.01-2.149-0.019c0.176-0.158,0.337-0.337,0.475-0.541c0.166-0.246,0.289-0.509,0.372-0.779
		c0.168,0.083,0.354,0.127,0.549,0.127c0.276,0,0.539-0.088,0.759-0.256c0.265-0.203,0.435-0.497,0.479-0.827
		c0.045-0.331-0.043-0.659-0.245-0.923c-0.027-0.035-0.057-0.068-0.089-0.102c0.01-0.042,0.009-0.084,0.014-0.126
		c1.479-0.216,3.519-0.468,3.509-0.222c-0.026,0.661-0.316,7.313-0.059,7.533l-0.531,4.927l0.47,4.845h-1.371v1.425h4.661v-0.308
		v-1.117v-9.153c0.549-0.108,0.967-0.397,1.039-0.997C30.678,15.199,31.582,8.799,30.329,7.78z M22.292,10.548
		c0.054,0.043,0.095,0.084,0.128,0.128c0.123,0.16,0.177,0.36,0.149,0.562c-0.026,0.2-0.13,0.38-0.291,0.503
		c-0.134,0.102-0.294,0.156-0.462,0.156c-0.163,0-0.315-0.054-0.442-0.146c0.126-1.058-0.326-2.146-1.271-2.782
		c-0.744-0.502-1.636-0.615-2.438-0.389c-0.06-0.129-0.083-0.272-0.063-0.417c0.027-0.2,0.131-0.379,0.292-0.502
		c0.324-0.248,0.818-0.181,1.065,0.143l0.148,0.193l0.194-0.148c0.325-0.248,0.816-0.182,1.065,0.144l0.203-0.135l-0.176,0.181
		l0.098,0.151l0.173-0.048c0.294-0.084,0.619,0.025,0.806,0.269c0.048,0.063,0.08,0.132,0.106,0.204
		c-0.301,0.047-0.492,0.076-0.492,0.076l0.144,1.695c0,0,0.41-0.068,0.995-0.157c-0.005,0.016-0.005,0.031-0.011,0.047l-0.059,0.165
		L22.292,10.548z"/>
	<circle cx="19.076" cy="5.125" r="0.611"/>
	<circle cx="21.397" cy="6.406" r="0.611"/>
	<circle cx="20.786" cy="4.426" r="0.463"/>
	<circle cx="19.688" cy="3.203" r="0.269"/>
	<circle cx="21.666" cy="2.389" r="0.269"/>
</g>
<g>
</g>
<g>
</g>
<g>
</g>
<g>
</g>
<g>
</g>
<g>
</g>
<g>
</g>
<g>
</g>
<g>
</g>
<g>
</g>
<g>
</g>
<g>
</g>
<g>
</g>
<g>
</g>
<g>
</g>
</svg>
