<?xml version="1.0" encoding="iso-8859-1"?>
<!-- Generator: Adobe Illustrator 16.0.0, SVG Export Plug-In . SVG Version: 6.00 Build 0)  -->
<!DOCTYPE svg PUBLIC "-//W3C//DTD SVG 1.1//EN" "http://www.w3.org/Graphics/SVG/1.1/DTD/svg11.dtd">
<svg version="1.1" id="Layer_1" xmlns="http://www.w3.org/2000/svg" xmlns:xlink="http://www.w3.org/1999/xlink" x="0px" y="0px"
	 width="32px" height="25.73px" viewBox="0 0 32 25.73" style="enable-background:new 0 0 32 25.73;" xml:space="preserve">
<g>
	<path d="M24.993,20.94H32l-2.681-2.49l2.49-2.59h-3.815c-0.059-0.135-0.134-0.263-0.212-0.377c0.212-0.207,0.4-0.383,0.458-0.511
		c0.335-0.567,0.001-0.989-0.316-1.315c0.053-0.08,0.104-0.158,0.16-0.238c0.047-0.072,0.095-0.144,0.14-0.211
		c0.131-0.196,0.244-0.366,0.286-0.482c0.182-0.438,0.057-0.842-0.369-1.195c-0.051-0.044-0.099-0.076-0.15-0.114
		c0.123-0.262,0.241-0.499,0.268-0.636c0.126-0.511-0.172-0.82-0.5-1.019c-0.075-0.048-0.15-0.084-0.225-0.122
		c0.02-0.092,0.04-0.183,0.062-0.274c0.023-0.084,0.046-0.165,0.068-0.243c0.067-0.232,0.125-0.434,0.13-0.569
		c-0.007-0.68-0.5-0.925-0.928-1.064c0.037-0.29,0.075-0.547,0.061-0.687c-0.105-0.647-0.625-0.779-1.075-0.845
		c-0.013-0.154-0.023-0.31-0.029-0.447C25.81,5.22,25.8,4.991,25.744,4.863c-0.198-0.642-0.738-0.717-1.126-0.717
		c-0.029,0-0.055,0.003-0.084,0.003c-0.057-0.29-0.102-0.543-0.177-0.662c-0.29-0.599-0.832-0.544-1.281-0.457
		c-0.069-0.152-0.135-0.307-0.192-0.443c-0.098-0.24-0.183-0.447-0.265-0.563c-0.187-0.27-0.447-0.405-0.775-0.405
		c-0.128,0-0.268,0.021-0.426,0.063c-0.064,0.017-0.118,0.042-0.179,0.063c-0.149-0.25-0.277-0.47-0.378-0.574
		c-0.36-0.381-0.789-0.285-1.127-0.137c-0.087,0.037-0.164,0.084-0.243,0.128C19.38,1.043,19.273,0.92,19.179,0.81
		c-0.181-0.211-0.325-0.38-0.446-0.455c-0.389-0.254-0.803-0.237-1.246,0.063c-0.054,0.04-0.096,0.081-0.145,0.121
		C17.12,0.348,16.93,0.178,16.8,0.122c-0.468-0.213-0.838-0.023-1.11,0.227c-0.068,0.07-0.126,0.141-0.185,0.21
		c-0.134-0.072-0.268-0.147-0.392-0.222c-0.252-0.149-0.451-0.268-0.59-0.293c-0.471-0.131-0.87,0.031-1.158,0.467
		c-0.038,0.053-0.064,0.103-0.097,0.154c-0.271-0.109-0.509-0.21-0.649-0.213c-0.515-0.064-0.809,0.224-0.974,0.58
		c-0.043,0.084-0.074,0.167-0.107,0.249c-0.166-0.025-0.331-0.056-0.486-0.085c-0.239-0.047-0.446-0.086-0.587-0.086h-0.029
		c-0.683,0.02-0.878,0.622-0.942,0.82C9.474,1.993,9.465,2.05,9.45,2.11c-0.289-0.01-0.54-0.023-0.682,0.004
		c-0.517,0.093-0.669,0.507-0.729,0.87C8.024,3.077,8.02,3.166,8.014,3.255C7.863,3.28,7.708,3.302,7.563,3.32
		C7.272,3.356,7.042,3.384,6.917,3.451C6.286,3.716,6.26,4.266,6.306,4.715C6.026,4.792,5.783,4.858,5.671,4.94
		C5.107,5.284,5.201,5.815,5.323,6.256C5.264,6.286,5.207,6.32,5.147,6.351L5.061,6.396C4.985,6.438,4.91,6.477,4.839,6.514
		c-0.21,0.11-0.393,0.206-0.486,0.289C3.811,7.236,4.036,7.834,4.11,8.031c0.023,0.06,0.05,0.11,0.075,0.167
		C3.956,8.367,3.747,8.514,3.657,8.62C3.298,9.009,3.432,9.427,3.614,9.754c0.047,0.08,0.096,0.149,0.144,0.222
		c-0.125,0.141-0.254,0.276-0.37,0.396C3.223,10.545,3.08,10.692,3,10.813c-0.311,0.602,0.001,1.052,0.31,1.378
		c-0.162,0.23-0.308,0.431-0.37,0.562c-0.21,0.616,0.179,0.98,0.539,1.253c-0.061,0.142-0.128,0.282-0.193,0.413
		c-0.131,0.266-0.234,0.476-0.245,0.617c-0.067,0.367,0.037,0.627,0.208,0.824H0.19l2.49,2.59L0,20.94h5.784
		c0.193,0.215,0.476,0.286,0.738,0.306c0.09,0.005,0.171,0.002,0.255,0.001c0.045,0.168,0.083,0.338,0.117,0.489
		c0.058,0.265,0.104,0.474,0.169,0.603c0.223,0.413,0.618,0.588,1.127,0.536c0.071-0.011,0.134-0.026,0.201-0.041
		c0.103,0.268,0.189,0.501,0.271,0.616c0.31,0.41,0.727,0.42,1.086,0.326c0.087-0.026,0.166-0.059,0.247-0.09
		c0.055,0.086,0.113,0.174,0.158,0.251c0.192,0.312,0.349,0.56,0.468,0.675c0.188,0.184,0.401,0.284,0.644,0.301
		c0.186-0.002,0.382-0.056,0.599-0.163c0.061-0.029,0.11-0.062,0.167-0.094c0.188,0.221,0.355,0.409,0.469,0.49
		c0.209,0.151,0.416,0.199,0.606,0.184c0.193-0.031,0.37-0.123,0.528-0.233c0.071-0.05,0.133-0.102,0.197-0.155
		c0.138,0.104,0.272,0.212,0.391,0.31c0.2,0.164,0.373,0.305,0.498,0.366c0.143,0.075,0.287,0.113,0.43,0.113
		c0.343,0,0.616-0.219,0.792-0.385c0.052-0.05,0.091-0.1,0.137-0.15c0.246,0.146,0.46,0.277,0.598,0.32
		c0.5,0.176,0.828-0.128,1.055-0.417c0.053-0.07,0.095-0.14,0.139-0.209c0.166,0.055,0.329,0.114,0.473,0.17
		c0.25,0.094,0.449,0.168,0.592,0.186c0.469,0.034,0.822-0.182,1.065-0.651c0.031-0.066,0.051-0.128,0.076-0.192
		c0.283,0.06,0.529,0.116,0.671,0.111c0.514-0.035,0.749-0.381,0.868-0.731c0.027-0.089,0.042-0.174,0.06-0.261
		c0.095,0.001,0.19,0.004,0.286,0.009c0.136,0.003,0.267,0.006,0.383,0.006c0.212,0,0.347-0.01,0.435-0.029
		c0.471-0.093,0.739-0.417,0.797-0.962c0.008-0.068,0.009-0.128,0.012-0.193c0.292-0.038,0.543-0.074,0.674-0.125
		c0.495-0.178,0.596-0.589,0.579-0.975c-0.002-0.086-0.012-0.166-0.021-0.248C24.88,20.982,24.937,20.962,24.993,20.94z
		 M27.604,12.37c0.053-0.259,0.176-0.521,0.301-0.77c0.037,0.027,0.073,0.051,0.108,0.081c0.362,0.302,0.461,0.609,0.312,0.972
		c-0.036,0.099-0.143,0.259-0.267,0.443c-0.046,0.069-0.093,0.141-0.138,0.211c-0.048,0.067-0.091,0.137-0.138,0.204
		c-0.069-0.069-0.134-0.136-0.182-0.196c0.007-0.167,0.026-0.332,0.026-0.5C27.626,12.665,27.609,12.52,27.604,12.37z
		 M27.638,15.626c0.052,0.076,0.1,0.154,0.14,0.234H27.42C27.491,15.78,27.563,15.701,27.638,15.626z M26.845,7.69
		c0.377,0.128,0.745,0.332,0.75,0.859c-0.004,0.107-0.062,0.307-0.122,0.518c-0.022,0.078-0.046,0.16-0.073,0.264
		c-0.016,0.066-0.031,0.14-0.047,0.21c-0.083-0.042-0.166-0.083-0.226-0.125c-0.088-0.294-0.192-0.58-0.3-0.863
		C26.798,8.274,26.82,7.974,26.845,7.69z M25.558,4.933c0.045,0.104,0.055,0.338,0.065,0.585c0.005,0.126,0.016,0.27,0.028,0.41
		c-0.097-0.013-0.188-0.025-0.262-0.044c-0.177-0.248-0.358-0.494-0.553-0.727c-0.126-0.238-0.202-0.531-0.261-0.812
		C24.966,4.337,25.391,4.394,25.558,4.933z M21.47,1.874c0.477-0.127,0.773-0.043,0.987,0.265c0.069,0.099,0.15,0.295,0.244,0.523
		c0.052,0.126,0.113,0.269,0.177,0.408c-0.095,0.02-0.186,0.036-0.26,0.041c-0.249-0.179-0.504-0.344-0.767-0.503
		c-0.188-0.198-0.355-0.449-0.505-0.69C21.387,1.904,21.426,1.886,21.47,1.874z M17.602,0.58c0.368-0.25,0.697-0.271,1.023-0.058
		c0.097,0.061,0.245,0.233,0.402,0.416c0.085,0.101,0.184,0.212,0.285,0.321c-0.075,0.044-0.15,0.089-0.215,0.118
		c-0.308-0.092-0.619-0.174-0.936-0.241C17.93,1.02,17.703,0.844,17.496,0.67C17.531,0.64,17.564,0.608,17.602,0.58z M13.529,0.624
		C13.715,0.343,13.947,0.2,14.216,0.2c0.08,0,0.165,0.012,0.262,0.038c0.113,0.021,0.317,0.142,0.532,0.27
		c0.108,0.064,0.234,0.134,0.36,0.202c-0.059,0.069-0.116,0.141-0.169,0.19c-0.315,0.013-0.63,0.03-0.939,0.068
		c-0.264-0.03-0.542-0.13-0.804-0.232C13.482,0.699,13.502,0.662,13.529,0.624z M9.684,1.993c0.149-0.462,0.384-0.673,0.781-0.684
		c0.123,0,0.321,0.037,0.55,0.082c0.134,0.025,0.288,0.053,0.442,0.076c-0.034,0.085-0.066,0.17-0.102,0.232
		c-0.288,0.113-0.568,0.238-0.845,0.372c-0.27,0.05-0.572,0.053-0.856,0.045C9.665,2.075,9.669,2.034,9.684,1.993z M7.002,3.631
		c0.101-0.053,0.336-0.082,0.585-0.113c0.126-0.016,0.269-0.037,0.41-0.061C7.993,3.548,7.99,3.639,7.979,3.711
		c-0.243,0.205-0.479,0.415-0.704,0.64C7.049,4.485,6.769,4.579,6.501,4.659C6.462,4.251,6.5,3.842,7.002,3.631z M15.687,2.192
		c5.857,0,10.622,4.765,10.622,10.623c0,0.598-0.062,1.18-0.157,1.75H5.221c-0.096-0.57-0.157-1.152-0.157-1.75
		C5.063,6.957,9.829,2.192,15.687,2.192z M22.369,18.56c0.073,0.086,0.177,0.129,0.314,0.129c0.098,0,0.183-0.029,0.253-0.088
		c0.07-0.059,0.114-0.121,0.13-0.187h0.427c-0.068,0.252-0.172,0.433-0.314,0.544c-0.142,0.112-0.313,0.168-0.513,0.168
		c-0.14,0-0.265-0.027-0.376-0.082c-0.112-0.055-0.207-0.131-0.284-0.229c-0.078-0.099-0.138-0.216-0.18-0.352
		c-0.042-0.137-0.063-0.287-0.063-0.45c0-0.158,0.021-0.305,0.064-0.441c0.043-0.136,0.105-0.254,0.185-0.354
		c0.08-0.1,0.175-0.178,0.286-0.235s0.233-0.086,0.368-0.086c0.151,0,0.281,0.034,0.394,0.104c0.112,0.069,0.204,0.163,0.275,0.28
		c0.072,0.117,0.124,0.25,0.156,0.4c0.032,0.149,0.043,0.307,0.034,0.471h-1.276C22.256,18.338,22.295,18.474,22.369,18.56z
		 M21.465,16.149v2.92h-0.485v-2.92H21.465z M19.607,18.938l-0.623-1.984h0.52l0.4,1.448h0.007l0.387-1.448h0.502l-0.738,2.381
		c-0.053,0.169-0.126,0.291-0.22,0.365c-0.093,0.075-0.223,0.112-0.39,0.112c-0.051,0-0.1-0.001-0.149-0.005
		c-0.049-0.005-0.099-0.01-0.149-0.016v-0.479c0.046,0.006,0.093,0.012,0.141,0.017c0.047,0.006,0.096,0.007,0.143,0.005
		c0.042-0.006,0.076-0.021,0.105-0.047c0.028-0.026,0.049-0.059,0.063-0.097s0.021-0.079,0.021-0.122
		C19.628,19.022,19.621,18.979,19.607,18.938z M18.643,18.587c0.027,0.032,0.082,0.049,0.164,0.049c0.055,0,0.105-0.006,0.15-0.017
		v0.454c-0.041,0.008-0.086,0.014-0.137,0.016c-0.05,0.004-0.099,0.005-0.147,0.005c-0.075,0-0.146-0.006-0.214-0.019
		c-0.067-0.013-0.126-0.037-0.177-0.074c-0.051-0.036-0.092-0.088-0.122-0.153c-0.029-0.065-0.044-0.15-0.044-0.257v-1.248h-0.295
		v-0.389h0.295v-0.633h0.486v0.633h0.355v0.389h-0.355v1.048C18.602,18.488,18.615,18.554,18.643,18.587z M17.178,18.355
		c-0.025-0.031-0.062-0.06-0.108-0.084c-0.046-0.024-0.104-0.047-0.172-0.067c-0.069-0.021-0.146-0.042-0.233-0.063
		c-0.071-0.019-0.139-0.041-0.207-0.067c-0.067-0.026-0.127-0.061-0.179-0.103c-0.053-0.042-0.095-0.096-0.127-0.159
		c-0.032-0.064-0.048-0.143-0.048-0.235c0-0.134,0.022-0.244,0.067-0.333s0.104-0.158,0.176-0.209
		c0.073-0.05,0.156-0.086,0.247-0.106c0.091-0.02,0.185-0.03,0.281-0.03c0.096,0,0.188,0.012,0.278,0.033s0.17,0.059,0.241,0.11
		s0.129,0.12,0.176,0.206c0.047,0.086,0.075,0.194,0.084,0.325h-0.461c-0.007-0.112-0.043-0.188-0.107-0.228
		c-0.063-0.039-0.139-0.059-0.226-0.059c-0.027,0-0.057,0.002-0.089,0.006c-0.032,0.004-0.062,0.013-0.087,0.026
		c-0.026,0.014-0.049,0.034-0.067,0.06c-0.019,0.025-0.027,0.061-0.027,0.104c0,0.052,0.016,0.094,0.047,0.127
		c0.032,0.032,0.074,0.059,0.125,0.079c0.051,0.021,0.11,0.039,0.176,0.055c0.066,0.017,0.134,0.035,0.202,0.055
		c0.07,0.018,0.14,0.041,0.207,0.068c0.067,0.027,0.127,0.063,0.179,0.108c0.053,0.045,0.095,0.102,0.127,0.168
		c0.032,0.067,0.048,0.149,0.048,0.248c0,0.138-0.023,0.255-0.07,0.349c-0.047,0.095-0.108,0.17-0.184,0.228
		c-0.075,0.057-0.161,0.099-0.258,0.122c-0.097,0.025-0.195,0.037-0.296,0.037c-0.103,0-0.203-0.012-0.301-0.037
		c-0.098-0.023-0.185-0.066-0.261-0.124c-0.077-0.059-0.139-0.136-0.188-0.231c-0.049-0.095-0.076-0.213-0.08-0.352h0.461
		c0,0.063,0.011,0.117,0.033,0.162s0.05,0.081,0.084,0.11c0.034,0.028,0.073,0.05,0.118,0.063c0.044,0.015,0.091,0.021,0.139,0.021
		c0.034,0,0.071-0.005,0.108-0.014c0.038-0.01,0.072-0.025,0.103-0.045c0.031-0.021,0.056-0.048,0.077-0.082
		c0.021-0.034,0.03-0.077,0.03-0.129C17.215,18.425,17.203,18.387,17.178,18.355z M14.335,17.348
		c0.022-0.065,0.053-0.126,0.092-0.183c0.038-0.056,0.083-0.104,0.133-0.143c0.05-0.04,0.104-0.07,0.163-0.092
		c0.058-0.021,0.117-0.033,0.176-0.033c0.037,0,0.072,0.007,0.106,0.021v0.54c-0.023-0.006-0.05-0.011-0.083-0.015
		c-0.032-0.004-0.063-0.007-0.092-0.007c-0.089,0-0.165,0.019-0.226,0.055c-0.061,0.034-0.111,0.083-0.148,0.145
		c-0.037,0.062-0.064,0.134-0.08,0.217c-0.017,0.083-0.024,0.171-0.024,0.264v0.953h-0.487v-2.115h0.462v0.394H14.335z
		 M12.997,16.628v-0.479h0.485v0.479H12.997z M13.482,16.954v2.115h-0.485v-2.115H13.482z M12.095,17.423
		c-0.017-0.036-0.04-0.065-0.068-0.086c-0.028-0.021-0.062-0.033-0.099-0.041c-0.038-0.007-0.079-0.01-0.121-0.01
		c-0.094,0-0.168,0.024-0.224,0.073c-0.056,0.049-0.089,0.132-0.098,0.246h-0.486c0.007-0.137,0.035-0.25,0.086-0.34
		c0.05-0.09,0.114-0.162,0.191-0.217c0.078-0.055,0.164-0.094,0.26-0.117c0.096-0.022,0.194-0.034,0.295-0.034
		c0.089,0,0.179,0.008,0.27,0.022s0.174,0.044,0.25,0.088c0.075,0.044,0.137,0.104,0.184,0.185c0.048,0.079,0.072,0.181,0.072,0.307
		v1.1c0,0.096,0.004,0.188,0.014,0.274c0.009,0.087,0.025,0.152,0.048,0.196h-0.492c-0.01-0.033-0.017-0.066-0.023-0.101
		c-0.005-0.034-0.009-0.069-0.012-0.104c-0.078,0.096-0.168,0.163-0.274,0.202c-0.105,0.04-0.212,0.06-0.321,0.06
		c-0.084,0-0.163-0.013-0.236-0.038c-0.073-0.026-0.137-0.065-0.191-0.117c-0.055-0.052-0.097-0.117-0.128-0.196
		s-0.046-0.173-0.046-0.282c0-0.12,0.017-0.219,0.051-0.296c0.034-0.078,0.08-0.14,0.137-0.187s0.122-0.081,0.193-0.104
		c0.071-0.023,0.146-0.041,0.221-0.055c0.075-0.014,0.147-0.025,0.216-0.033c0.068-0.009,0.129-0.02,0.183-0.036
		s0.097-0.041,0.128-0.071c0.032-0.032,0.047-0.078,0.047-0.138C12.121,17.51,12.112,17.46,12.095,17.423z M9.073,17.809v1.261
		H8.535v-2.92h0.538v1.12h0.988v-1.12h0.538v2.92h-0.538v-1.261H9.073z M4.48,6.956c0.08-0.071,0.252-0.161,0.451-0.267
		c0.072-0.037,0.148-0.077,0.224-0.118l0.084-0.043c0.045-0.023,0.094-0.052,0.14-0.077c0.028,0.095,0.053,0.185,0.064,0.261
		C5.285,6.976,5.138,7.245,5,7.522C4.825,7.732,4.578,7.91,4.349,8.076C4.331,8.036,4.313,8.002,4.296,7.96
		C4.125,7.504,4.18,7.195,4.48,6.956z M3.424,12.022c-0.269-0.292-0.492-0.645-0.252-1.107c0.064-0.098,0.202-0.239,0.36-0.404
		c0.105-0.109,0.223-0.235,0.337-0.363c0.05,0.073,0.1,0.146,0.134,0.209c-0.064,0.307-0.107,0.618-0.148,0.931
		C3.745,11.538,3.583,11.79,3.424,12.022z M3.239,15.062c0.008-0.113,0.114-0.328,0.227-0.555c0.059-0.12,0.119-0.25,0.176-0.379
		c0.077,0.056,0.149,0.109,0.206,0.16c0.04,0.322,0.084,0.645,0.149,0.958c-0.009,0.199-0.06,0.409-0.117,0.614h-0.34
		C3.317,15.686,3.167,15.448,3.239,15.062z M8.166,22.677c-0.052,0.006-0.104,0.009-0.157,0.009c-0.357,0-0.609-0.145-0.769-0.439
		c-0.053-0.104-0.098-0.312-0.151-0.553c-0.031-0.138-0.068-0.292-0.107-0.445c0.093-0.003,0.186-0.006,0.261,0.001
		c0.221,0.22,0.455,0.427,0.689,0.627c0.156,0.226,0.279,0.505,0.385,0.771C8.267,22.656,8.218,22.669,8.166,22.677z M11.776,24.571
		c-0.189,0.094-0.357,0.141-0.505,0.143c-0.186-0.013-0.357-0.095-0.51-0.244c-0.104-0.1-0.26-0.348-0.437-0.634
		c-0.039-0.067-0.092-0.145-0.138-0.219c0.092-0.036,0.182-0.072,0.257-0.091c0.279,0.137,0.563,0.266,0.852,0.381
		c0.223,0.153,0.421,0.374,0.603,0.595C11.857,24.525,11.82,24.55,11.776,24.571z M15.804,25.202
		c-0.15,0.141-0.382,0.329-0.654,0.329c-0.11,0-0.223-0.03-0.339-0.092c-0.106-0.052-0.271-0.187-0.462-0.343
		c-0.108-0.088-0.232-0.186-0.356-0.28c0.075-0.063,0.147-0.123,0.211-0.163c0.307,0.037,0.619,0.059,0.933,0.072
		c0.259,0.087,0.521,0.229,0.765,0.369C15.868,25.131,15.84,25.167,15.804,25.202z M19.822,24.506
		c-0.19,0.366-0.447,0.544-0.788,0.544c-0.026,0-0.054-0.002-0.079-0.003c-0.115-0.014-0.313-0.088-0.541-0.175
		c-0.131-0.05-0.281-0.103-0.43-0.152c0.049-0.08,0.097-0.158,0.143-0.218c0.313-0.065,0.619-0.147,0.923-0.238
		c0.267-0.005,0.557,0.045,0.83,0.099C19.86,24.411,19.844,24.459,19.822,24.506z M15.687,23.438c-2.599,0-4.98-0.941-6.829-2.497
		h13.656C20.667,22.496,18.286,23.438,15.687,23.438z M23.381,22.521c-0.049,0.456-0.258,0.716-0.641,0.79
		c-0.098,0.022-0.271,0.025-0.394,0.025c-0.116,0-0.245-0.003-0.376-0.006c-0.081-0.005-0.164-0.006-0.247-0.007
		c0.02-0.096,0.037-0.19,0.063-0.264c0.258-0.154,0.513-0.314,0.759-0.487c0.252-0.111,0.553-0.162,0.845-0.194
		C23.387,22.426,23.387,22.471,23.381,22.521z"/>
	<path d="M11.945,18.116c-0.036,0.008-0.073,0.015-0.113,0.021c-0.041,0.005-0.079,0.013-0.115,0.021
		c-0.038,0.008-0.075,0.02-0.109,0.032c-0.034,0.015-0.064,0.032-0.091,0.056s-0.047,0.053-0.063,0.09
		c-0.017,0.037-0.024,0.081-0.024,0.133c0,0.055,0.008,0.1,0.024,0.133c0.016,0.034,0.037,0.062,0.064,0.082
		c0.028,0.021,0.06,0.034,0.097,0.043c0.036,0.008,0.074,0.012,0.113,0.012c0.096,0,0.169-0.019,0.222-0.057
		c0.053-0.038,0.092-0.084,0.117-0.137c0.025-0.054,0.041-0.107,0.046-0.162c0.006-0.055,0.008-0.098,0.008-0.131v-0.217
		c-0.02,0.022-0.046,0.039-0.077,0.051C12.014,18.098,11.98,18.107,11.945,18.116z"/>
	<path d="M22.652,17.335c-0.078,0-0.142,0.016-0.193,0.047c-0.052,0.032-0.092,0.07-0.123,0.117
		c-0.031,0.046-0.052,0.096-0.065,0.146c-0.013,0.053-0.02,0.098-0.022,0.14h0.791c-0.023-0.147-0.064-0.26-0.123-0.336
		C22.859,17.373,22.771,17.335,22.652,17.335z"/>
	<path d="M14.413,14.104c0.011,0.002,0.024,0.002,0.036,0.004c0.663,0.065,1.262-0.509,1.335-1.276
		c0.062-0.662-0.277-1.252-0.802-1.442l0.915-1.59c-0.163-0.202-0.308-0.376-0.41-0.494c-0.055,0.252-0.101,0.448-0.134,0.547
		c-0.122,0.363-0.588,1.107-0.829,1.476c-0.583,0.05-1.08,0.582-1.145,1.276C13.308,13.362,13.762,14.021,14.413,14.104z
		 M14.68,11.673l0.023,0.003c0.458,0.058,0.786,0.563,0.733,1.122c-0.055,0.577-0.483,1.009-0.954,0.965l-0.024-0.001
		c-0.458-0.061-0.785-0.565-0.734-1.124C13.781,12.061,14.209,11.63,14.68,11.673z"/>
	<path d="M17.36,11.453c-0.498,0.201-0.831,0.766-0.785,1.406c0.049,0.68,0.51,1.226,1.095,1.298c0.069,0.01,0.14,0.013,0.211,0.008
		c0.663-0.048,1.159-0.712,1.103-1.479c-0.05-0.68-0.507-1.227-1.093-1.301c-0.008-0.001-0.017-0.002-0.023-0.002
		c-0.253-0.301-0.763-0.979-1.111-1.933c-0.204-0.341-1.249-6.215-1.249-6.215l-0.195,0.063l0.252,5.714
		C15.564,9.012,16.987,10.636,17.36,11.453z M17.846,11.729c0.42,0.054,0.753,0.467,0.792,0.98c0.042,0.576-0.308,1.075-0.783,1.108
		c-0.047,0.003-0.095,0.003-0.141-0.005c-0.419-0.052-0.753-0.465-0.79-0.979c-0.044-0.579,0.307-1.074,0.78-1.109
		C17.75,11.722,17.799,11.723,17.846,11.729z M16.055,8.574c0.115,0.016,0.197,0.122,0.184,0.238
		c-0.015,0.116-0.121,0.197-0.237,0.184c-0.117-0.016-0.199-0.123-0.185-0.239C15.833,8.642,15.938,8.56,16.055,8.574z"/>
	<path d="M16.76,3.199l-0.203-0.025l-0.408,2.535c0.137,0.738,0.288,1.511,0.418,2.15L16.76,3.199z"/>
	<path d="M11.836,9.522c0.038-0.178,0.071-0.316,0.093-0.386c0.086-0.255,0.414-0.777,0.583-1.036
		c0.409-0.035,0.758-0.409,0.805-0.897c0.05-0.531-0.269-0.995-0.727-1.054c-0.008-0.001-0.016-0.001-0.025-0.003
		c-0.466-0.046-0.886,0.358-0.938,0.897c-0.042,0.465,0.195,0.88,0.563,1.013l-0.643,1.118C11.662,9.316,11.764,9.438,11.836,9.522z
		 M11.871,7.067c0.038-0.405,0.339-0.709,0.67-0.678h0.017c0.322,0.043,0.552,0.398,0.516,0.791
		c-0.04,0.405-0.341,0.708-0.672,0.678l-0.016-0.002C12.064,7.815,11.833,7.461,11.871,7.067z"/>
	<path d="M10.146,8.061c0.005,0.001,0.012,0.002,0.017,0.002c0.178,0.212,0.536,0.688,0.78,1.356
		c0.143,0.241,0.878,4.368,0.878,4.368l0.137-0.044l-0.177-4.015c0,0-1-1.142-1.262-1.716c0.35-0.142,0.583-0.538,0.553-0.988
		c-0.035-0.478-0.359-0.861-0.77-0.912c-0.049-0.007-0.099-0.01-0.148-0.006c-0.465,0.034-0.814,0.501-0.775,1.04
		C9.414,7.624,9.735,8.009,10.146,8.061z M11.473,9.739c0.083,0.011,0.14,0.086,0.13,0.168c-0.011,0.081-0.086,0.139-0.167,0.129
		c-0.081-0.012-0.14-0.087-0.129-0.168S11.393,9.729,11.473,9.739z M10.171,6.351c0.034-0.002,0.067-0.002,0.099,0.003
		c0.295,0.036,0.53,0.327,0.556,0.688c0.03,0.406-0.216,0.755-0.549,0.779c-0.033,0.003-0.067,0.002-0.1-0.003
		C9.882,7.78,9.648,7.49,9.621,7.13C9.592,6.725,9.838,6.374,10.171,6.351z"/>
	<path d="M10.94,13.813l0.143,0.019l0.287-1.782c-0.097-0.519-0.203-1.062-0.294-1.511L10.94,13.813z"/>
	<path d="M21.066,9.501c0.038-0.178,0.071-0.316,0.093-0.386c0.086-0.255,0.414-0.777,0.583-1.036
		c0.409-0.035,0.758-0.41,0.805-0.897c0.05-0.531-0.27-0.995-0.727-1.054c-0.008-0.002-0.016-0.002-0.025-0.003
		c-0.466-0.046-0.886,0.357-0.938,0.897c-0.042,0.465,0.195,0.88,0.563,1.013l-0.643,1.118C20.892,9.295,20.994,9.416,21.066,9.501z
		 M21.101,7.045c0.038-0.404,0.339-0.708,0.67-0.678l0.017,0.001c0.322,0.043,0.552,0.397,0.516,0.791
		c-0.04,0.405-0.341,0.708-0.671,0.678l-0.016-0.003C21.294,7.794,21.063,7.439,21.101,7.045z"/>
	<path d="M19.376,8.039c0.005,0.001,0.012,0.001,0.016,0.001c0.179,0.212,0.537,0.688,0.781,1.357
		c0.143,0.24,0.878,4.368,0.878,4.368l0.137-0.044l-0.177-4.015c0,0-1-1.142-1.262-1.716c0.35-0.143,0.583-0.538,0.552-0.988
		c-0.035-0.479-0.358-0.861-0.77-0.912c-0.049-0.008-0.099-0.01-0.148-0.006c-0.465,0.033-0.814,0.5-0.775,1.04
		C18.644,7.603,18.965,7.987,19.376,8.039z M20.703,9.718c0.083,0.011,0.14,0.086,0.13,0.168c-0.011,0.081-0.085,0.139-0.167,0.128
		c-0.081-0.011-0.139-0.086-0.129-0.167C20.548,9.765,20.623,9.708,20.703,9.718z M19.401,6.329
		c0.034-0.003,0.067-0.003,0.099,0.003c0.295,0.036,0.53,0.326,0.556,0.688c0.03,0.407-0.215,0.756-0.548,0.78
		c-0.033,0.003-0.067,0.001-0.1-0.004c-0.296-0.037-0.529-0.327-0.557-0.688C18.822,6.703,19.068,6.353,19.401,6.329z"/>
	<path d="M20.17,13.79l0.143,0.02l0.286-1.782c-0.096-0.519-0.202-1.062-0.294-1.511L20.17,13.79z"/>
</g>
<g>
</g>
<g>
</g>
<g>
</g>
<g>
</g>
<g>
</g>
<g>
</g>
<g>
</g>
<g>
</g>
<g>
</g>
<g>
</g>
<g>
</g>
<g>
</g>
<g>
</g>
<g>
</g>
<g>
</g>
</svg>
