<?xml version="1.0" encoding="iso-8859-1"?>
<!-- Generator: Adobe Illustrator 16.0.0, SVG Export Plug-In . SVG Version: 6.00 Build 0)  -->
<!DOCTYPE svg PUBLIC "-//W3C//DTD SVG 1.1//EN" "http://www.w3.org/Graphics/SVG/1.1/DTD/svg11.dtd">
<svg version="1.1" id="Layer_1" xmlns="http://www.w3.org/2000/svg" xmlns:xlink="http://www.w3.org/1999/xlink" x="0px" y="0px"
	 width="30.75px" height="30.967px" viewBox="0 0 30.75 30.967" style="enable-background:new 0 0 30.75 30.967;"
	 xml:space="preserve">
<path d="M30.369,10.061l0.31-0.309l-0.37-0.37l0.13-0.13c0.368-0.368,0.395-0.937,0.06-1.271L30.38,7.86l0.37-0.37l-0.309-0.309
	l-0.37,0.37l-0.412-0.412l0.37-0.37L29.72,6.46l-0.37,0.37L28.94,6.421l0.37-0.371l-0.31-0.309l-0.37,0.37l-0.396-0.396l0.37-0.37
	l-0.309-0.31l-0.37,0.37l-0.41-0.409l0.37-0.37l-0.309-0.309l-0.37,0.37l-0.412-0.412l0.37-0.37l-0.309-0.31l-0.37,0.37l-0.41-0.409
	l0.37-0.37l-0.309-0.31l-0.37,0.37l-0.402-0.402l0.37-0.37l-0.31-0.31l-0.37,0.37l-0.409-0.409l0.37-0.37l-0.31-0.309l-0.37,0.37
	l-0.411-0.412l0.37-0.37l-0.31-0.31l-0.37,0.37l-0.409-0.409l0.37-0.37l-0.31-0.31l-0.37,0.37l-0.124-0.124
	c-0.334-0.335-0.904-0.308-1.271,0.06L21.446,0.37L21.076,0l-0.309,0.31l0.37,0.37l-0.409,0.409l-0.37-0.37l-0.31,0.31l0.37,0.37
	L20.006,1.81l-0.37-0.37l-0.31,0.309l0.37,0.37l-0.41,0.409l-0.37-0.37l-0.31,0.31l0.37,0.37L18.626,3.19l-0.37-0.37l-0.309,0.31
	l0.37,0.37l-0.41,0.41l-0.37-0.37l-0.31,0.31l0.37,0.37l-0.411,0.411l-0.37-0.37l-0.31,0.31l0.37,0.37l-0.409,0.409l-0.37-0.37
	l-0.31,0.31l0.37,0.37l-0.396,0.396l-0.37-0.37l-0.309,0.31l0.37,0.37l-0.409,0.409l-0.37-0.37l-0.31,0.31l0.37,0.369l-0.412,0.412
	l-0.37-0.37l-0.31,0.31l0.37,0.37l-0.409,0.409l-0.37-0.37l-0.31,0.31l0.37,0.37l-0.402,0.402l-0.37-0.37l-0.31,0.31l0.37,0.37
	l-0.409,0.409l-0.37-0.37l-0.31,0.31l0.37,0.37l-0.411,0.412l-0.37-0.37l-0.31,0.31l0.37,0.37l-0.409,0.409l-0.37-0.37l-0.309,0.309
	l0.37,0.37l-0.056,0.057c-0.368,0.368-0.395,0.938-0.06,1.272l-0.188-0.188L9.75,12.9l0.31,0.31l0.37-0.37l0.409,0.41l-0.37,0.37
	l0.31,0.31l0.37-0.37l0.412,0.412l-0.37,0.37l0.31,0.31l0.37-0.37l0.409,0.41l-0.37,0.37l0.31,0.31l0.37-0.37l0.397,0.397
	c-0.475,0.333-1.091,1.485-1.58,1.975c-0.648,0.649-8.271,8.271-8.801,8.802c-0.531,0.531-1.593,0.53-2.433,1.813
	c-0.84,1.283,1.637,3.495,2.875,2.875c1.239-0.619,1.003-2.064,1.681-2.742c0.678-0.679,8.212-8.212,8.713-8.713
	c0.379-0.379,1.631-1.061,1.986-1.568l0.296,0.297l-0.37,0.369l0.309,0.31l0.37-0.37l0.409,0.41l-0.37,0.369l0.309,0.31l0.37-0.37
	l0.412,0.412l-0.37,0.37l0.31,0.31l0.37-0.37l0.409,0.41l-0.37,0.37l0.31,0.31l0.37-0.37l-0.157-0.157
	c0.335,0.335,0.904,0.308,1.272-0.06l-0.018,0.018l0.37,0.37l0.31-0.309l-0.37-0.371l0.409-0.409l0.37,0.37l0.31-0.31l-0.37-0.37
	l0.412-0.412l0.37,0.37l0.31-0.31l-0.37-0.37l0.409-0.409l0.37,0.37l0.31-0.31l-0.37-0.37l0.401-0.402l0.37,0.37l0.31-0.31
	l-0.37-0.37l0.409-0.409l0.37,0.37l0.309-0.31l-0.37-0.37l0.411-0.412l0.37,0.37l0.31-0.31l-0.37-0.37l0.409-0.409l0.37,0.37
	l0.31-0.309l-0.37-0.37l0.396-0.396l0.37,0.37l0.31-0.309l-0.37-0.37l0.41-0.41l0.37,0.37l0.309-0.31l-0.37-0.37l0.412-0.412
	l0.37,0.37l0.31-0.31l-0.37-0.37l0.409-0.409l0.37,0.37l0.31-0.31l-0.37-0.37l0.352-0.353l0.37,0.37l0.31-0.309l-0.37-0.37
	l0.409-0.41l0.37,0.37l0.309-0.31l-0.37-0.37l0.411-0.412l0.37,0.37l0.31-0.309l-0.37-0.37l0.409-0.41L30.369,10.061z M22.185,1.113
	c0.102,0.101,0.102,0.266,0,0.367s-0.266,0.102-0.367,0c-0.102-0.102-0.102-0.266,0-0.367C21.919,1.012,22.083,1.012,22.185,1.113z
	 M21.345,1.94c0.101,0.101,0.102,0.265,0,0.367s-0.266,0.102-0.367,0c-0.102-0.101-0.102-0.266,0-0.367
	C21.08,1.838,21.244,1.838,21.345,1.94z M19.247,4.051c-0.102-0.102-0.102-0.266,0-0.367s0.265-0.102,0.367,0
	c0.102,0.101,0.102,0.266,0,0.367C19.512,4.152,19.348,4.152,19.247,4.051z M18.657,5.008c-0.102,0.102-0.266,0.101-0.367,0
	c-0.102-0.102-0.102-0.266,0-0.367c0.102-0.101,0.266-0.102,0.367,0C18.758,4.742,18.758,4.907,18.657,5.008z M17.817,5.467
	c0.101,0.102,0.102,0.266,0,0.367s-0.266,0.102-0.367,0c-0.102-0.101-0.102-0.266,0-0.367S17.716,5.366,17.817,5.467z M16.821,6.844
	c-0.102,0.102-0.266,0.101-0.367,0c-0.102-0.102-0.102-0.265,0-0.367c0.102-0.101,0.266-0.102,0.367,0
	C16.922,6.579,16.922,6.743,16.821,6.844z M15.981,7.303c0.102,0.101,0.102,0.266,0,0.367c-0.101,0.102-0.266,0.102-0.367,0
	c-0.102-0.101-0.102-0.266,0-0.367C15.716,7.202,15.88,7.202,15.981,7.303z M11.201,12.071c-0.102-0.102-0.101-0.267,0-0.368
	s0.266-0.101,0.367,0s0.101,0.266,0,0.368C11.467,12.172,11.302,12.172,11.201,12.071z M12.001,11.271
	c-0.101-0.102-0.101-0.266,0-0.367c0.102-0.102,0.266-0.102,0.367,0c0.102,0.101,0.102,0.265,0,0.367
	C12.267,11.372,12.103,11.372,12.001,11.271z M12.841,10.444c-0.102-0.101-0.102-0.265,0-0.367c0.101-0.101,0.266-0.101,0.367,0
	c0.102,0.102,0.102,0.266,0,0.367C13.106,10.545,12.942,10.545,12.841,10.444z M13.85,9.448c-0.102-0.102-0.101-0.266,0-0.368
	s0.266-0.102,0.367,0c0.101,0.101,0.101,0.266,0,0.367C14.116,9.549,13.951,9.549,13.85,9.448z M14.69,8.621
	c-0.102-0.102-0.102-0.266,0-0.367c0.101-0.101,0.266-0.102,0.367,0c0.101,0.102,0.101,0.266,0,0.367
	C14.956,8.722,14.791,8.722,14.69,8.621z M20.086,3.225c-0.102-0.102-0.102-0.266,0-0.367c0.102-0.102,0.266-0.102,0.368,0
	c0.101,0.102,0.101,0.266,0,0.368C20.352,3.327,20.188,3.326,20.086,3.225z M23.188,2.116c0.102,0.102,0.101,0.266,0,0.368
	c-0.101,0.101-0.266,0.102-0.367,0c-0.101-0.102-0.101-0.266,0-0.367C22.922,2.015,23.086,2.015,23.188,2.116z M22.349,2.943
	c0.101,0.101,0.101,0.266,0,0.367c-0.102,0.102-0.266,0.102-0.368,0c-0.101-0.102-0.101-0.266,0-0.367S22.247,2.841,22.349,2.943z
	 M20.25,5.054c-0.101-0.101-0.101-0.266,0-0.367c0.101-0.101,0.266-0.101,0.367,0c0.102,0.102,0.102,0.266,0,0.367
	C20.516,5.156,20.352,5.156,20.25,5.054z M19.66,6.011c-0.101,0.102-0.266,0.102-0.367,0c-0.101-0.101-0.101-0.265,0-0.367
	c0.101-0.102,0.266-0.102,0.367,0C19.761,5.746,19.761,5.91,19.66,6.011z M18.82,6.471c0.102,0.102,0.102,0.266,0,0.367
	c-0.101,0.101-0.266,0.102-0.367,0c-0.101-0.102-0.101-0.266,0-0.367S18.719,6.37,18.82,6.471z M17.824,7.847
	c-0.102,0.102-0.266,0.102-0.368,0c-0.101-0.101-0.102-0.265,0-0.367c0.101-0.101,0.266-0.101,0.367,0S17.925,7.746,17.824,7.847z
	 M16.985,8.306c0.101,0.102,0.101,0.267,0,0.368c-0.102,0.101-0.266,0.101-0.367,0c-0.102-0.101-0.102-0.266,0-0.367
	C16.719,8.206,16.883,8.205,16.985,8.306z M12.204,13.074c-0.101-0.101-0.101-0.266,0-0.367c0.101-0.102,0.266-0.102,0.367,0
	c0.102,0.101,0.102,0.266,0,0.367C12.47,13.175,12.306,13.175,12.204,13.074z M13.004,12.274c-0.102-0.102-0.102-0.266,0-0.368
	c0.102-0.101,0.266-0.101,0.367,0c0.102,0.102,0.102,0.266,0,0.368C13.271,12.375,13.106,12.375,13.004,12.274z M13.844,11.447
	c-0.101-0.101-0.101-0.266,0-0.368c0.101-0.101,0.265-0.101,0.367,0.001c0.101,0.101,0.101,0.266,0,0.367
	C14.109,11.548,13.945,11.549,13.844,11.447z M14.854,10.451c-0.102-0.102-0.101-0.266,0-0.368c0.101-0.101,0.266-0.102,0.367,0
	c0.102,0.102,0.102,0.266,0,0.368C15.12,10.552,14.955,10.552,14.854,10.451z M15.693,9.625c-0.102-0.102-0.101-0.266,0-0.367
	c0.102-0.102,0.266-0.102,0.368,0c0.101,0.101,0.101,0.266,0,0.367C15.959,9.726,15.794,9.726,15.693,9.625z M21.089,4.228
	c-0.102-0.102-0.102-0.266,0-0.367c0.101-0.101,0.266-0.102,0.367,0c0.102,0.102,0.101,0.266,0,0.367
	C21.355,4.329,21.19,4.329,21.089,4.228z M24.139,3.067c0.101,0.101,0.101,0.266,0,0.367c-0.101,0.102-0.266,0.102-0.367,0
	c-0.102-0.102-0.102-0.266,0-0.367C23.873,2.966,24.037,2.966,24.139,3.067z M23.299,3.894c0.102,0.102,0.102,0.266,0,0.367
	c-0.101,0.102-0.266,0.102-0.367,0c-0.101-0.101-0.101-0.266,0-0.367C23.033,3.792,23.198,3.792,23.299,3.894z M21.201,6.005
	c-0.102-0.102-0.102-0.266,0-0.367c0.102-0.101,0.266-0.101,0.367,0c0.102,0.101,0.102,0.265,0,0.367S21.302,6.106,21.201,6.005z
	 M20.611,6.962c-0.102,0.102-0.266,0.101-0.367,0c-0.102-0.102-0.102-0.266,0-0.367c0.101-0.101,0.266-0.102,0.367,0
	S20.712,6.861,20.611,6.962z M19.771,7.421c0.102,0.102,0.102,0.266,0,0.367c-0.102,0.102-0.266,0.102-0.368,0
	c-0.101-0.101-0.101-0.266,0-0.367C19.506,7.32,19.67,7.32,19.771,7.421z M18.774,8.798c-0.102,0.102-0.266,0.101-0.367,0
	c-0.102-0.102-0.102-0.266,0-0.367c0.101-0.102,0.266-0.102,0.367,0C18.876,8.533,18.876,8.697,18.774,8.798z M17.935,9.257
	c0.102,0.101,0.102,0.266,0,0.367c-0.101,0.102-0.266,0.102-0.368,0c-0.101-0.102-0.101-0.266,0-0.367
	C17.669,9.156,17.834,9.156,17.935,9.257z M13.155,14.024c-0.102-0.102-0.102-0.266,0-0.367c0.101-0.101,0.266-0.101,0.367,0
	c0.101,0.101,0.101,0.266,0,0.367C13.421,14.126,13.256,14.126,13.155,14.024z M13.955,13.225c-0.102-0.102-0.102-0.266,0-0.368
	c0.102-0.101,0.266-0.101,0.368,0c0.101,0.102,0.101,0.267,0,0.368C14.221,13.326,14.057,13.326,13.955,13.225z M14.794,12.398
	c-0.102-0.101-0.102-0.266,0-0.367c0.101-0.102,0.265-0.102,0.367,0s0.102,0.266,0,0.367C15.061,12.5,14.896,12.5,14.794,12.398z
	 M15.804,11.402c-0.102-0.102-0.101-0.267,0-0.368c0.101-0.102,0.266-0.102,0.367,0c0.101,0.101,0.101,0.266,0,0.367
	C16.07,11.503,15.906,11.503,15.804,11.402z M16.644,10.575c-0.101-0.102-0.101-0.266,0-0.368c0.102-0.101,0.266-0.101,0.367,0
	c0.102,0.102,0.102,0.266,0,0.368C16.91,10.676,16.745,10.677,16.644,10.575z M22.04,5.178c-0.102-0.101-0.102-0.265,0-0.366
	c0.102-0.102,0.266-0.102,0.367-0.001c0.102,0.102,0.102,0.266,0,0.368S22.142,5.28,22.04,5.178z M25.142,4.07
	c0.102,0.102,0.102,0.266,0,0.368c-0.102,0.101-0.266,0.101-0.367,0c-0.102-0.102-0.102-0.266,0-0.368
	C24.875,3.969,25.04,3.969,25.142,4.07z M24.302,4.897c0.101,0.101,0.102,0.266,0,0.367c-0.102,0.101-0.266,0.101-0.367,0
	c-0.101-0.102-0.101-0.266,0-0.367C24.037,4.795,24.201,4.795,24.302,4.897z M22.204,7.008c-0.102-0.101-0.102-0.266,0-0.367
	c0.101-0.102,0.266-0.101,0.367,0c0.101,0.101,0.102,0.266,0,0.367C22.47,7.11,22.306,7.11,22.204,7.008z M21.614,7.965
	c-0.102,0.102-0.266,0.102-0.368,0s-0.102-0.266,0-0.367s0.266-0.102,0.368,0C21.715,7.7,21.715,7.864,21.614,7.965z M20.774,8.425
	c0.102,0.102,0.102,0.265,0,0.367c-0.101,0.102-0.266,0.102-0.367,0c-0.102-0.101-0.102-0.265,0-0.367
	C20.509,8.323,20.673,8.323,20.774,8.425z M19.778,9.801c-0.102,0.102-0.266,0.102-0.367,0c-0.101-0.101-0.102-0.266,0-0.367
	c0.101-0.102,0.266-0.102,0.367,0C19.879,9.536,19.879,9.7,19.778,9.801z M18.938,10.26c0.102,0.102,0.102,0.266,0,0.368
	c-0.102,0.101-0.266,0.101-0.367,0c-0.101-0.102-0.101-0.266,0-0.368C18.673,10.159,18.837,10.159,18.938,10.26z M14.158,15.028
	c-0.101-0.102-0.102-0.266,0-0.368c0.102-0.101,0.266-0.101,0.367,0c0.102,0.102,0.102,0.266,0,0.368
	C14.424,15.129,14.26,15.129,14.158,15.028z M14.958,14.228c-0.102-0.101-0.102-0.266,0-0.367c0.102-0.101,0.266-0.101,0.368,0
	c0.101,0.101,0.101,0.266,0,0.367C15.224,14.329,15.06,14.329,14.958,14.228z M15.798,13.401c-0.102-0.102-0.102-0.266,0-0.368
	c0.101-0.101,0.266-0.101,0.367,0.001c0.101,0.101,0.101,0.265,0,0.366C16.063,13.502,15.899,13.502,15.798,13.401z M16.808,12.405
	c-0.102-0.102-0.102-0.267,0-0.368c0.102-0.101,0.266-0.101,0.368,0c0.101,0.102,0.101,0.266,0,0.368
	C17.074,12.506,16.909,12.506,16.808,12.405z M17.647,11.578c-0.102-0.101-0.101-0.266,0-0.367c0.102-0.102,0.266-0.102,0.367,0
	c0.101,0.101,0.101,0.266,0,0.367S17.749,11.679,17.647,11.578z M23.043,6.182c-0.102-0.102-0.102-0.266,0-0.368
	c0.102-0.101,0.266-0.102,0.368,0c0.101,0.102,0.101,0.266,0,0.368C23.309,6.283,23.145,6.283,23.043,6.182z M26.053,4.982
	c0.102,0.102,0.101,0.266,0,0.367c-0.101,0.102-0.266,0.102-0.367,0c-0.101-0.101-0.101-0.266,0-0.367
	C25.787,4.881,25.952,4.881,26.053,4.982z M25.214,5.808c0.101,0.102,0.101,0.266,0,0.368c-0.102,0.101-0.266,0.101-0.367,0
	c-0.102-0.102-0.102-0.266,0-0.368C24.948,5.707,25.112,5.707,25.214,5.808z M23.115,7.919c-0.101-0.101-0.101-0.266,0-0.367
	c0.101-0.102,0.266-0.102,0.367,0c0.102,0.101,0.102,0.266,0,0.367C23.381,8.021,23.217,8.021,23.115,7.919z M22.525,8.877
	c-0.101,0.101-0.266,0.101-0.367,0c-0.101-0.102-0.102-0.266,0-0.367c0.101-0.102,0.266-0.102,0.367-0.001
	C22.626,8.611,22.626,8.775,22.525,8.877z M21.686,9.336c0.101,0.101,0.102,0.265,0,0.367c-0.101,0.102-0.266,0.102-0.367,0
	c-0.102-0.101-0.102-0.266,0-0.367C21.42,9.234,21.584,9.235,21.686,9.336z M20.689,10.713c-0.102,0.102-0.266,0.101-0.368,0
	c-0.101-0.101-0.102-0.266,0-0.367c0.101-0.102,0.266-0.102,0.367,0S20.791,10.612,20.689,10.713z M19.85,11.172
	c0.102,0.102,0.101,0.266,0,0.367c-0.102,0.102-0.266,0.102-0.367,0.001c-0.102-0.102-0.102-0.266,0-0.368
	C19.584,11.071,19.749,11.071,19.85,11.172z M15.07,15.939c-0.102-0.102-0.102-0.266,0-0.368c0.102-0.101,0.266-0.101,0.367,0
	c0.102,0.102,0.101,0.266,0,0.367C15.335,16.04,15.171,16.041,15.07,15.939z M15.87,15.139c-0.101-0.101-0.101-0.266,0-0.367
	c0.102-0.102,0.266-0.102,0.368,0c0.102,0.101,0.101,0.266,0,0.367C16.136,15.24,15.971,15.241,15.87,15.139z M16.709,14.313
	c-0.102-0.102-0.102-0.266,0-0.368c0.101-0.101,0.266-0.101,0.367,0c0.101,0.102,0.101,0.266,0,0.367
	C16.975,14.414,16.811,14.414,16.709,14.313z M17.719,13.316c-0.102-0.101-0.101-0.266,0-0.367c0.101-0.101,0.266-0.101,0.367,0
	c0.102,0.102,0.102,0.266,0,0.367C17.985,13.417,17.82,13.418,17.719,13.316z M18.558,12.49c-0.101-0.102-0.102-0.266,0-0.367
	c0.102-0.102,0.266-0.102,0.368,0c0.101,0.101,0.101,0.266,0,0.367C18.824,12.591,18.66,12.591,18.558,12.49z M23.955,7.094
	c-0.101-0.102-0.102-0.266,0-0.368s0.266-0.101,0.368,0c0.101,0.102,0.101,0.266,0,0.368C24.221,7.195,24.056,7.195,23.955,7.094z
	 M27.056,5.985c0.102,0.102,0.102,0.266,0,0.368c-0.101,0.101-0.266,0.101-0.367-0.001c-0.102-0.101-0.102-0.265,0-0.367
	S26.955,5.884,27.056,5.985z M26.217,6.812c0.102,0.101,0.102,0.265,0,0.367c-0.101,0.101-0.266,0.101-0.367,0
	c-0.102-0.102-0.102-0.266,0-0.367C25.951,6.71,26.115,6.71,26.217,6.812z M24.119,8.923c-0.102-0.102-0.102-0.266,0-0.368
	c0.102-0.101,0.266-0.101,0.367,0c0.102,0.102,0.102,0.266,0,0.367C24.385,9.024,24.22,9.024,24.119,8.923z M23.528,9.88
	c-0.101,0.102-0.266,0.102-0.367,0c-0.101-0.101-0.101-0.266,0-0.367c0.102-0.102,0.266-0.102,0.367,0
	C23.63,9.614,23.63,9.779,23.528,9.88z M22.689,10.339c0.102,0.102,0.102,0.266,0,0.368c-0.102,0.101-0.266,0.101-0.367,0
	c-0.102-0.102-0.101-0.266,0-0.368C22.423,10.238,22.587,10.238,22.689,10.339z M21.693,11.716c-0.102,0.102-0.266,0.101-0.368,0
	c-0.102-0.102-0.102-0.266,0-0.368c0.102-0.101,0.266-0.101,0.367,0C21.794,11.451,21.794,11.615,21.693,11.716z M20.853,12.175
	c0.102,0.101,0.102,0.266,0,0.367c-0.101,0.102-0.266,0.102-0.367,0s-0.101-0.266,0-0.367
	C20.587,12.074,20.752,12.074,20.853,12.175z M16.073,16.942c-0.102-0.102-0.102-0.266,0-0.367c0.102-0.102,0.266-0.102,0.368,0
	c0.101,0.101,0.101,0.266,0,0.367C16.339,17.044,16.174,17.044,16.073,16.942z M16.873,16.143c-0.102-0.102-0.102-0.266,0-0.368
	c0.101-0.101,0.266-0.101,0.367,0c0.101,0.102,0.101,0.266,0,0.368C17.139,16.244,16.975,16.244,16.873,16.143z M17.712,15.316
	c-0.102-0.101-0.102-0.266,0-0.367c0.101-0.102,0.265-0.102,0.367,0c0.102,0.101,0.102,0.266,0,0.367
	C17.978,15.417,17.813,15.417,17.712,15.316z M18.722,14.319c-0.101-0.101-0.101-0.266,0-0.368c0.102-0.101,0.266-0.101,0.367,0
	c0.102,0.102,0.102,0.267,0,0.368C18.988,14.42,18.823,14.421,18.722,14.319z M19.562,13.493c-0.102-0.101-0.102-0.266,0-0.367
	c0.102-0.102,0.266-0.102,0.367,0c0.102,0.101,0.102,0.266,0,0.367C19.828,13.594,19.663,13.594,19.562,13.493z M24.958,8.097
	c-0.102-0.102-0.102-0.266,0-0.367c0.102-0.102,0.266-0.102,0.367,0c0.102,0.101,0.102,0.266,0,0.367
	C25.224,8.198,25.06,8.198,24.958,8.097z M27.987,6.917c0.102,0.101,0.102,0.266,0,0.367c-0.102,0.102-0.266,0.102-0.367,0
	c-0.102-0.102-0.102-0.267,0-0.368C27.721,6.814,27.886,6.814,27.987,6.917z M27.148,7.742c0.102,0.102,0.101,0.266,0,0.368
	c-0.102,0.101-0.266,0.102-0.367,0s-0.101-0.266,0-0.367C26.882,7.641,27.046,7.641,27.148,7.742z M25.05,9.854
	c-0.102-0.102-0.102-0.266,0-0.368s0.266-0.101,0.368,0c0.101,0.101,0.101,0.266,0,0.367C25.315,9.956,25.151,9.955,25.05,9.854z
	 M24.459,10.811c-0.102,0.102-0.266,0.101-0.367,0c-0.102-0.102-0.102-0.266,0-0.368c0.101-0.101,0.266-0.101,0.368,0
	C24.561,10.545,24.561,10.709,24.459,10.811z M23.62,11.271c0.102,0.101,0.102,0.265,0,0.367c-0.101,0.102-0.265,0.102-0.367,0
	c-0.102-0.101-0.101-0.266,0-0.367C23.355,11.168,23.519,11.168,23.62,11.271z M22.624,12.647c-0.102,0.102-0.266,0.102-0.367,0
	c-0.102-0.101-0.102-0.266,0-0.367s0.266-0.102,0.368,0C22.725,12.381,22.725,12.546,22.624,12.647z M21.784,13.106
	c0.102,0.102,0.101,0.266,0,0.367c-0.102,0.102-0.266,0.102-0.367,0c-0.102-0.102-0.101-0.266,0-0.368
	C21.519,13.005,21.683,13.005,21.784,13.106z M17.004,17.874c-0.102-0.102-0.101-0.266,0-0.368c0.102-0.101,0.266-0.101,0.368,0
	c0.101,0.102,0.101,0.266,0,0.367C17.27,17.975,17.105,17.975,17.004,17.874z M17.804,17.073c-0.102-0.101-0.102-0.266,0-0.367
	c0.101-0.102,0.266-0.102,0.367,0c0.102,0.101,0.101,0.266,0,0.367C18.07,17.175,17.905,17.175,17.804,17.073z M18.644,16.247
	c-0.102-0.102-0.102-0.266,0-0.368c0.101-0.101,0.265-0.101,0.367,0s0.101,0.266,0,0.367C18.909,16.348,18.745,16.349,18.644,16.247
	z M19.653,15.251c-0.102-0.102-0.101-0.267,0-0.368c0.102-0.101,0.267-0.101,0.368,0c0.101,0.101,0.101,0.266,0,0.368
	C19.919,15.352,19.754,15.352,19.653,15.251z M20.493,14.424c-0.101-0.101-0.102-0.266,0-0.368c0.101-0.101,0.266-0.101,0.367,0.001
	c0.101,0.101,0.101,0.266,0,0.367C20.758,14.525,20.594,14.525,20.493,14.424z M25.889,9.028c-0.102-0.102-0.102-0.266,0-0.368
	c0.102-0.101,0.266-0.101,0.368,0c0.101,0.102,0.101,0.266,0,0.368C26.155,9.129,25.99,9.129,25.889,9.028z M28.991,7.919
	c0.101,0.102,0.101,0.266,0,0.368c-0.101,0.101-0.266,0.101-0.367,0c-0.101-0.102-0.101-0.266,0-0.368
	C28.725,7.818,28.889,7.818,28.991,7.919z M28.151,8.746c0.101,0.101,0.101,0.266,0,0.367c-0.102,0.102-0.266,0.102-0.368,0
	c-0.101-0.101-0.101-0.266,0-0.367C27.885,8.644,28.05,8.644,28.151,8.746z M26.053,10.857c-0.101-0.102-0.102-0.266,0-0.367
	c0.102-0.101,0.266-0.101,0.367,0c0.102,0.102,0.102,0.266,0,0.367C26.319,10.958,26.154,10.958,26.053,10.857z M25.463,11.814
	c-0.102,0.102-0.266,0.102-0.367,0c-0.102-0.101-0.102-0.266,0-0.367c0.101-0.101,0.266-0.101,0.367,0
	C25.564,11.548,25.564,11.713,25.463,11.814z M24.623,12.274c0.102,0.101,0.102,0.266,0,0.367c-0.101,0.101-0.266,0.101-0.367,0
	c-0.102-0.101-0.102-0.266,0-0.367C24.358,12.172,24.522,12.172,24.623,12.274z M23.627,13.65c-0.102,0.102-0.266,0.101-0.368,0
	c-0.101-0.102-0.102-0.266,0-0.367s0.266-0.102,0.368,0C23.728,13.385,23.728,13.549,23.627,13.65z M22.788,14.109
	c0.101,0.101,0.101,0.266,0,0.367c-0.102,0.102-0.266,0.102-0.367,0c-0.102-0.101-0.102-0.266,0-0.367
	C22.521,14.008,22.686,14.008,22.788,14.109z M18.007,18.876c-0.102-0.101-0.102-0.266,0-0.367c0.102-0.102,0.266-0.102,0.367,0
	c0.102,0.101,0.101,0.266,0,0.367C18.273,18.978,18.109,18.978,18.007,18.876z M18.807,18.077c-0.101-0.102-0.101-0.266,0-0.368
	c0.102-0.101,0.266-0.101,0.367,0c0.102,0.102,0.102,0.266,0,0.368C19.073,18.178,18.909,18.178,18.807,18.077z M19.646,17.25
	c-0.101-0.101-0.101-0.266,0-0.367c0.101-0.101,0.266-0.101,0.367,0c0.102,0.101,0.102,0.266,0,0.367
	C19.913,17.352,19.748,17.352,19.646,17.25z M20.656,16.254c-0.102-0.101-0.101-0.267,0-0.368c0.102-0.102,0.266-0.102,0.367,0
	c0.102,0.101,0.102,0.266,0,0.367C20.922,16.354,20.757,16.355,20.656,16.254z M21.496,15.427c-0.101-0.102-0.101-0.266,0-0.367
	c0.102-0.102,0.266-0.101,0.367,0c0.102,0.102,0.102,0.266,0,0.367C21.762,15.528,21.597,15.529,21.496,15.427z M26.892,10.031
	c-0.101-0.101-0.102-0.266,0-0.367c0.102-0.102,0.266-0.102,0.367,0c0.102,0.101,0.102,0.266,0,0.367
	C27.158,10.132,26.994,10.132,26.892,10.031z M29.846,8.774c0.101,0.102,0.101,0.266,0,0.368c-0.101,0.101-0.266,0.101-0.367,0
	c-0.102-0.102-0.102-0.266,0-0.368C29.58,8.673,29.744,8.673,29.846,8.774z M29.006,9.601c0.101,0.101,0.102,0.266,0,0.367
	c-0.102,0.102-0.266,0.102-0.368,0c-0.101-0.101-0.101-0.266,0-0.367C28.74,9.499,28.905,9.499,29.006,9.601z M26.908,11.712
	c-0.102-0.102-0.102-0.266,0-0.368c0.102-0.101,0.266-0.101,0.368,0c0.101,0.101,0.101,0.265,0,0.367
	C27.174,11.813,27.009,11.813,26.908,11.712z M26.318,12.669c-0.102,0.102-0.266,0.102-0.367,0s-0.102-0.266,0-0.367
	s0.266-0.101,0.367,0S26.419,12.568,26.318,12.669z M25.479,13.129c0.101,0.101,0.102,0.265,0,0.367
	c-0.102,0.101-0.266,0.101-0.367,0c-0.102-0.102-0.102-0.266,0-0.367C25.213,13.027,25.377,13.027,25.479,13.129z M24.482,14.505
	c-0.102,0.102-0.266,0.101-0.367,0c-0.102-0.102-0.102-0.266,0-0.368c0.101-0.101,0.266-0.101,0.367,0
	C24.583,14.24,24.583,14.404,24.482,14.505z M23.643,14.964c0.102,0.102,0.102,0.266,0,0.367c-0.102,0.102-0.266,0.102-0.367,0
	c-0.102-0.101-0.102-0.266,0-0.367C23.376,14.863,23.541,14.863,23.643,14.964z M18.862,19.731c-0.102-0.101-0.101-0.266,0-0.367
	c0.102-0.102,0.266-0.102,0.367,0s0.102,0.266,0,0.367C19.128,19.833,18.964,19.833,18.862,19.731z M19.663,18.932
	c-0.102-0.102-0.102-0.266,0-0.367c0.101-0.102,0.266-0.102,0.367,0c0.101,0.102,0.101,0.266,0,0.367
	C19.928,19.033,19.764,19.033,19.663,18.932z M20.501,18.105c-0.102-0.102-0.101-0.266,0-0.368c0.101-0.101,0.266-0.102,0.367,0
	c0.102,0.101,0.102,0.266,0,0.367C20.768,18.207,20.603,18.207,20.501,18.105z M21.511,17.109c-0.102-0.101-0.101-0.267,0-0.368
	c0.102-0.102,0.266-0.102,0.368,0c0.101,0.101,0.101,0.266,0,0.367C21.777,17.209,21.612,17.21,21.511,17.109z M22.351,16.283
	c-0.102-0.102-0.102-0.267,0-0.368c0.101-0.101,0.266-0.101,0.367,0c0.101,0.101,0.101,0.266,0,0.368
	C22.617,16.384,22.453,16.384,22.351,16.283z M27.748,10.886c-0.102-0.101-0.102-0.266,0-0.367s0.266-0.102,0.368,0
	c0.101,0.102,0.101,0.266,0,0.367C28.013,10.988,27.849,10.987,27.748,10.886z"/>
<g>
</g>
<g>
</g>
<g>
</g>
<g>
</g>
<g>
</g>
<g>
</g>
<g>
</g>
<g>
</g>
<g>
</g>
<g>
</g>
<g>
</g>
<g>
</g>
<g>
</g>
<g>
</g>
<g>
</g>
</svg>
