<?xml version="1.0" encoding="iso-8859-1"?>
<!-- Generator: Adobe Illustrator 16.0.0, SVG Export Plug-In . SVG Version: 6.00 Build 0)  -->
<!DOCTYPE svg PUBLIC "-//W3C//DTD SVG 1.1//EN" "http://www.w3.org/Graphics/SVG/1.1/DTD/svg11.dtd">
<svg version="1.1" id="Layer_1" xmlns="http://www.w3.org/2000/svg" xmlns:xlink="http://www.w3.org/1999/xlink" x="0px" y="0px"
	 width="31.457px" height="31.115px" viewBox="0 0 31.457 31.115" style="enable-background:new 0 0 31.457 31.115;"
	 xml:space="preserve">
<g>
	<circle cx="13.411" cy="10.178" r="3.176"/>
	<ellipse cx="28.09" cy="3.47" rx="3.367" ry="3.47"/>
	<path d="M30.305,8.428c-1.218-0.989-3.332-0.438-4.383-0.143c-0.969,0.373-2.628,0.742-4.604,0.874
		c-0.773-1.018-2.222-1.601-2.222-1.601s-0.004-0.185-0.083-0.221c-0.072-0.033-0.464-0.042-0.525-0.043l-0.164-0.436l0.405-0.151
		l-0.053-0.143l-0.404,0.151L18.232,6.61l0.405-0.151l-0.053-0.143l-0.405,0.151l-0.056-0.149l0.414-0.154l-0.053-0.143L18.07,6.176
		l-0.041-0.106l0.414-0.154L18.39,5.772l-0.414,0.155l-0.05-0.136l0.414-0.155l-0.052-0.142l-0.415,0.154l-0.039-0.106l0.414-0.154
		l-0.053-0.143L17.782,5.4l-0.046-0.12l0.414-0.155l-0.055-0.141l-0.412,0.153l-0.041-0.105l0.414-0.155l-0.053-0.143l-0.414,0.154
		l-0.048-0.128l0.414-0.154l-0.053-0.143l-0.414,0.155l-0.04-0.107l0.413-0.154l-0.053-0.143l-0.414,0.154l-0.046-0.128l0.413-0.153
		l-0.053-0.143L17.294,4.1l-0.04-0.106l0.414-0.154l-0.053-0.143l-0.414,0.154L17.14,3.688l0.414-0.154L17.5,3.391l-0.414,0.154
		l-0.039-0.107l0.414-0.154l-0.053-0.143l-0.414,0.155l-0.083-0.221l-0.193,0.071l-0.211-0.567L16.504,2.58
		c-0.066-0.104-0.248-0.136-0.429-0.066c-0.182,0.068-0.299,0.211-0.281,0.333L15.79,2.848l0.212,0.567l-0.17,0.064l0.081,0.22
		L15.5,3.854l0.053,0.143l0.414-0.154l0.039,0.106l-0.412,0.154l0.053,0.142l0.412-0.153l0.062,0.163l-0.414,0.154L15.76,4.55
		l0.414-0.153l0.039,0.106l-0.414,0.154L15.854,4.8l0.413-0.154l0.047,0.128l-0.412,0.154l0.053,0.142l0.413-0.153l0.041,0.106
		l-0.414,0.154l0.053,0.142l0.414-0.154l0.047,0.129l-0.414,0.154l0.053,0.142l0.414-0.153L16.6,5.541l-0.412,0.155l0.053,0.142
		l0.414-0.154l0.043,0.121l-0.413,0.154l0.053,0.142l0.414-0.154l0.04,0.107l-0.413,0.154l0.053,0.143l0.412-0.155l0.05,0.136
		l-0.414,0.154l0.053,0.143l0.414-0.155l0.041,0.107l-0.414,0.154l0.053,0.143l0.412-0.154l0.058,0.148l-0.422,0.156l0.053,0.144
		l0.422-0.156l0.04,0.106L16.77,7.277l0.052,0.143l0.422-0.157l0.438,1.171l-0.102,0.054l0.235,0.626c0,0-0.485,0.393-0.323,0.396
		c0.438-0.002,0.926,1.437,0.896,1.771c0.017,0.675,0.934,2.957,1.302,3.483c0.363,0.523,0.423,0.937,1.152,0.656
		c0.734-0.266,0.509-0.618,0.44-1.25c-0.059-0.556-0.672-2.383-1.114-3.193c1.634-0.169,5.724-0.558,5.71-0.223
		c-0.028,0.718-0.343,7.921-0.063,8.16l-0.576,5.337l0.509,5.248h-1.484v1.543h5.05V30.71V29.5v-9.915
		c0.593-0.117,1.046-0.43,1.124-1.08C30.681,16.463,31.661,9.53,30.305,8.428z M20.922,9.185c-0.324,0.017-0.654,0.026-0.991,0.027
		l-0.526-0.021c-0.017-0.194,0.003-0.354,0.092-0.431c0.121-0.11-0.503-0.089-0.503-0.089l-0.059-0.156
		C19.201,8.469,20.115,8.384,20.922,9.185z"/>
	<path d="M3.753,25.751c0.326,0.055,0.659,0.106,0.994,0.156c0.035,0.005,0.07,0.01,0.105,0.015
		c1.555,0.228,3.188,0.393,4.677,0.445c0.088,0.004,0.174,0.005,0.263,0.007c0.188,0.006,0.375,0.009,0.556,0.011
		c0.053,0,0.108,0.002,0.16,0.002c0.065,0,0.127-0.002,0.191-0.003c0.105-0.001,0.207-0.002,0.308-0.004
		c0.126-0.004,0.25-0.008,0.372-0.013c0.098-0.004,0.197-0.008,0.292-0.014c0.118-0.008,0.231-0.017,0.344-0.025
		c0.092-0.008,0.184-0.016,0.274-0.024c0.109-0.011,0.212-0.025,0.316-0.038c0.085-0.013,0.17-0.023,0.251-0.036
		c0.1-0.016,0.193-0.035,0.288-0.054c0.074-0.016,0.149-0.029,0.22-0.046c0.094-0.021,0.177-0.047,0.264-0.072
		c0.06-0.019,0.125-0.034,0.18-0.054c0.09-0.03,0.168-0.065,0.246-0.1c0.042-0.02,0.089-0.035,0.129-0.055
		c0.112-0.057,0.212-0.118,0.298-0.185c0.044-0.034,0.088-0.077,0.128-0.128c0.017-0.02,0.032-0.045,0.047-0.067
		c0.024-0.033,0.049-0.064,0.071-0.103c0.019-0.03,0.035-0.066,0.052-0.101c0.02-0.036,0.039-0.07,0.058-0.11
		c0.017-0.038,0.033-0.082,0.05-0.123c0.015-0.043,0.033-0.082,0.05-0.126c0.015-0.044,0.029-0.093,0.044-0.141
		c0.016-0.048,0.031-0.093,0.046-0.145c0.014-0.048,0.026-0.101,0.041-0.153c0.014-0.054,0.028-0.106,0.042-0.164
		c0.013-0.051,0.024-0.105,0.035-0.159c0.014-0.063,0.027-0.123,0.041-0.188c0.01-0.051,0.02-0.107,0.028-0.161
		c0.014-0.07,0.026-0.14,0.038-0.213c0.01-0.052,0.017-0.105,0.025-0.159c0.011-0.078,0.023-0.158,0.035-0.239
		c0.007-0.052,0.013-0.104,0.02-0.154c0.011-0.089,0.021-0.177,0.032-0.268c0.006-0.047,0.01-0.095,0.016-0.143
		c0.01-0.099,0.02-0.197,0.029-0.298c0.004-0.043,0.007-0.085,0.011-0.128c0.008-0.107,0.018-0.216,0.026-0.326
		c0.003-0.04,0.006-0.08,0.008-0.12c0.008-0.116,0.017-0.233,0.024-0.352c0.001-0.031,0.003-0.063,0.004-0.094
		c0.007-0.128,0.014-0.256,0.021-0.386c0-0.024,0.001-0.051,0.003-0.076c0.006-0.137,0.011-0.272,0.016-0.409
		c0.001-0.02,0.001-0.039,0.002-0.059c0.004-0.143,0.009-0.286,0.011-0.43c0-0.005,0-0.01,0-0.014l0,0
		c0.038-1.695-0.022-3.396-0.117-4.543v-0.001c-0.001-0.011-0.001-0.021-0.003-0.032c-0.01-0.11-0.02-0.215-0.029-0.314
		c-0.004-0.041-0.008-0.08-0.014-0.119c-0.005-0.066-0.012-0.129-0.021-0.188c-0.004-0.038-0.01-0.075-0.014-0.11
		c-0.008-0.058-0.016-0.11-0.024-0.16c-0.004-0.028-0.008-0.057-0.013-0.082c-0.013-0.071-0.025-0.137-0.038-0.188
		c-0.116-0.083-0.249-0.148-0.39-0.204c-0.007-0.002-0.013-0.006-0.02-0.008c-0.141-0.055-0.293-0.096-0.45-0.129
		c-0.004,0-0.007-0.002-0.01-0.002c-0.001,0-0.003,0-0.004,0c-1.092-0.221-2.498,0.02-3.105,0.019
		c-0.278,0.149-0.547,1.428-0.973,2.841c-0.055,0.182-0.112,0.363-0.172,0.547c-0.001,0.004-0.003,0.009-0.004,0.013
		c-0.126,0.381-0.263,0.762-0.418,1.125c0,0,0,0,0,0.001c-0.076,0.18-0.157,0.354-0.24,0.521c-0.003,0.006-0.006,0.011-0.009,0.016
		c-0.083,0.169-0.173,0.329-0.267,0.481C9.2,19.413,9.2,19.415,9.199,19.417c-0.287,0.462-0.615,0.841-1,1.07
		c0.001,0,0.001,0,0.001,0c-0.3,0.181-0.633,0.272-1.006,0.239C3.721,20.252-0.392,25.048,3.753,25.751z"/>
	<path d="M16.091,27.021l0.008,0.002l2.016-9.106l-2.034-0.451l-0.151,0.682c0.049,3.144-0.181,7.03-1.205,7.83
		c-0.685,0.535-2.104,0.807-4.218,0.807c-1.103,0-2.394-0.079-3.744-0.222v0.518h3.432l-0.436,2.447H6.664l-1.058,1.588h11.908
		l-1.058-1.588h-3.294l-0.436-2.447h3.367V27.021z"/>
	<path d="M7.229,20.331c0.041,0.003,0.08,0.005,0.118,0.005c1.019,0,1.731-1.308,2.244-2.716c-0.768,0.886-1.632,1.565-2.458,1.513
		C6.138,19.147,5.966,19.964,7.229,20.331z"/>
	<path d="M3.687,26.143c-0.597-0.102-1.023-0.281-1.328-0.494c-0.576,0.908-1.092,1.753-1.414,2.286H0v1.433h4.62v-1.433H4.544
		l1.047-1.509C4.959,26.344,4.321,26.249,3.687,26.143z"/>
</g>
<g>
</g>
<g>
</g>
<g>
</g>
<g>
</g>
<g>
</g>
<g>
</g>
<g>
</g>
<g>
</g>
<g>
</g>
<g>
</g>
<g>
</g>
<g>
</g>
<g>
</g>
<g>
</g>
<g>
</g>
</svg>
