<?xml version="1.0" encoding="iso-8859-1"?>
<!-- Generator: Adobe Illustrator 16.0.0, SVG Export Plug-In . SVG Version: 6.00 Build 0)  -->
<!DOCTYPE svg PUBLIC "-//W3C//DTD SVG 1.1//EN" "http://www.w3.org/Graphics/SVG/1.1/DTD/svg11.dtd">
<svg version="1.1" id="Layer_1" xmlns="http://www.w3.org/2000/svg" xmlns:xlink="http://www.w3.org/1999/xlink" x="0px" y="0px"
	 width="26.712px" height="31.534px" viewBox="0 0 26.712 31.534" style="enable-background:new 0 0 26.712 31.534;"
	 xml:space="preserve">
<g>
	<ellipse cx="23.292" cy="3.524" rx="3.42" ry="3.524"/>
	<path d="M25.542,8.562c-1.236-1.005-3.766-0.071-4.348-0.13c-0.581-0.058-4.68-3.306-4.68-3.306l-0.267,0.256
		c-0.052-0.83-0.133-2.184-0.393-3.037c-0.351-1.148-0.486-1.23-0.796-1.205c-0.31,0.028-1.294,0.326-1.294,0.326l0.023,0.124
		c0,0,0.788-0.081,1.107-0.114c0.024-0.003,0.051,0.016,0.077,0.051l-1.117,0.25l0.021,0.11l1.188-0.173
		c0.011,0.023,0.021,0.051,0.03,0.078l-1.16,0.259l0.022,0.11l1.197-0.176c0.008,0.027,0.016,0.057,0.023,0.086L14.01,2.332
		l0.021,0.11l1.198-0.172c0.008,0.035,0.016,0.068,0.023,0.104l-1.202,0.27l0.021,0.109l1.223-0.193
		c0.007,0.039,0.016,0.078,0.022,0.116L14.11,2.946l0.02,0.11l1.224-0.187c0.007,0.035,0.014,0.071,0.021,0.106l-1.207,0.271
		l0.021,0.109l1.219-0.195c0.006,0.035,0.012,0.07,0.017,0.105l-1.2,0.27l0.021,0.11l1.211-0.182
		c0.007,0.044,0.014,0.09,0.021,0.134l-1.188,0.266l0.02,0.109l1.195-0.171c0.004,0.039,0.01,0.077,0.013,0.113l-1.168,0.262
		l0.021,0.11l1.171-0.173c0.004,0.034,0.008,0.068,0.01,0.102l-1.191,0.268l0.021,0.109l1.189-0.159
		c0.002,0.036,0.005,0.071,0.005,0.104l-1.194,0.267l0.022,0.109l1.173-0.172c-0.005,0.062-0.015,0.098-0.029,0.104
		c-0.164,0.054-1.119,0.276-1.119,0.276s0.004,0.048,0.012,0.104c0.264,0.041,0.959,0.126,1.063,0.572
		c0.016,0.07,0.027,0.164,0.035,0.272l-0.468,0.448c0,0,0.181,0.133,0.475,0.352c-0.017,0.768-0.074,1.668-0.022,1.973
		c0.081,0.482,1.217,0.297,1.322-0.341c0.027-0.147-0.015-0.413-0.082-0.714c1.745,1.334,4.211,3.306,4.191,3.776
		c-0.028,0.729-0.253,7.407,0.031,7.65l0,0l-0.585,5.421l0.518,5.331h-1.509v1.567h5.129v-0.339v-1.229V19.895
		c0.604-0.118,1.063-0.437,1.143-1.097C25.924,16.724,26.919,9.682,25.542,8.562z M16.15,8.71c-0.113,0.022-0.222-0.051-0.243-0.164
		c-0.022-0.113,0.052-0.222,0.164-0.244c0.113-0.021,0.222,0.053,0.243,0.166C16.336,8.579,16.261,8.688,16.15,8.71z"/>
	<circle cx="10.561" cy="3.827" r="2.688"/>
	<path d="M13.25,18.974l0.009,0.002l2.049-9.25l-2.066-0.458l-0.165,0.745c0.107,2.702-0.053,6.506-1.151,7.259
		c-0.645,0.442-1.975,0.666-3.955,0.666c-1.221,0-2.682-0.09-4.194-0.25v1.346h3.516L6.78,29.583H3.673l-1.075,1.612h12.096
		l-1.075-1.612h-3.307L9.8,19.033h3.449V18.974z"/>
	<path d="M1.383,16.964c0.08,0.017,0.159,0.032,0.247,0.046c0.543,0.081,1.105,0.155,1.673,0.221c0.005,0,0.01,0.001,0.015,0.002
		v-0.001c0.508,0.059,1.019,0.111,1.527,0.154c0.013,0.001,0.025,0.002,0.038,0.004c0.32,0.027,0.638,0.05,0.953,0.07
		c0.05,0.003,0.101,0.006,0.15,0.01c0.327,0.02,0.651,0.035,0.967,0.047c0.031,0.001,0.062,0.001,0.093,0.002
		c0.271,0.008,0.535,0.013,0.795,0.014c0.042,0,0.086,0.002,0.128,0.002c0.061,0,0.118-0.001,0.178-0.002
		c0.098-0.001,0.195-0.002,0.29-0.004c0.118-0.002,0.234-0.006,0.349-0.01c0.092-0.004,0.184-0.007,0.273-0.012
		c0.11-0.006,0.217-0.014,0.324-0.021c0.086-0.006,0.173-0.012,0.256-0.02c0.104-0.01,0.201-0.021,0.299-0.032
		c0.078-0.009,0.158-0.018,0.232-0.028c0.095-0.014,0.183-0.029,0.271-0.045c0.069-0.012,0.141-0.023,0.207-0.037
		c0.086-0.018,0.164-0.039,0.244-0.061c0.058-0.014,0.119-0.027,0.173-0.044c0.082-0.024,0.154-0.054,0.227-0.081
		c0.041-0.017,0.087-0.03,0.124-0.047c0.105-0.046,0.199-0.097,0.28-0.151c0.043-0.03,0.085-0.067,0.125-0.111
		c0.014-0.015,0.025-0.032,0.039-0.049c0.025-0.032,0.052-0.063,0.076-0.1c0.015-0.022,0.028-0.049,0.042-0.072
		c0.021-0.036,0.043-0.073,0.063-0.114c0.015-0.028,0.027-0.059,0.041-0.089c0.02-0.042,0.038-0.085,0.056-0.131
		c0.014-0.033,0.025-0.067,0.038-0.102c0.018-0.049,0.034-0.099,0.051-0.151c0.011-0.035,0.022-0.072,0.033-0.11
		c0.017-0.056,0.031-0.113,0.047-0.173c0.01-0.037,0.019-0.074,0.028-0.113c0.016-0.065,0.03-0.133,0.044-0.2
		c0.008-0.037,0.016-0.073,0.023-0.111c0.015-0.077,0.028-0.156,0.043-0.237c0.005-0.031,0.011-0.063,0.016-0.095
		c0.017-0.099,0.031-0.199,0.045-0.302c0.002-0.017,0.005-0.032,0.007-0.049c0.084-0.626,0.135-1.324,0.161-2.036
		c0-0.004,0-0.008,0-0.011c0.006-0.139,0.01-0.279,0.013-0.418c0-0.005,0-0.01,0-0.014c0.004-0.141,0.006-0.281,0.008-0.42
		c0-0.002,0-0.003,0-0.003l0,0c0.012-1.078-0.027-2.125-0.091-2.93c0-0.001,0-0.001,0-0.001c0-0.003,0-0.005,0-0.008
		c-0.008-0.09-0.015-0.177-0.022-0.261c-0.001-0.011-0.002-0.022-0.003-0.033c-0.009-0.086-0.017-0.169-0.025-0.247
		c0-0.006-0.001-0.013-0.002-0.018c-0.037-0.334-0.078-0.596-0.121-0.754c-0.98-0.604-2.994-0.266-3.734-0.268
		c-0.62,0.293-1.19,5.866-3.838,5.656C1.673,12.485-2.081,16.253,1.383,16.964L1.383,16.964z"/>
	<path d="M1.571,17.408c-0.161-0.023-0.307-0.056-0.443-0.089c-0.402,0.562-0.674,0.956-0.674,0.956c0,0.41,0.476,0.522,1.075,0.522
		c0.521,0,0.956-0.252,1.062-0.587l0.451-0.606C2.552,17.546,2.06,17.481,1.571,17.408z"/>
</g>
<g>
</g>
<g>
</g>
<g>
</g>
<g>
</g>
<g>
</g>
<g>
</g>
<g>
</g>
<g>
</g>
<g>
</g>
<g>
</g>
<g>
</g>
<g>
</g>
<g>
</g>
<g>
</g>
<g>
</g>
</svg>
