<?xml version="1.0" encoding="iso-8859-1"?>
<!-- Generator: Adobe Illustrator 16.0.0, SVG Export Plug-In . SVG Version: 6.00 Build 0)  -->
<!DOCTYPE svg PUBLIC "-//W3C//DTD SVG 1.1//EN" "http://www.w3.org/Graphics/SVG/1.1/DTD/svg11.dtd">
<svg version="1.1" id="Layer_1" xmlns="http://www.w3.org/2000/svg" xmlns:xlink="http://www.w3.org/1999/xlink" x="0px" y="0px"
	 width="32px" height="25.73px" viewBox="0 0 32 25.73" style="enable-background:new 0 0 32 25.73;" xml:space="preserve">
<g>
	<path d="M32,20.94l-2.681-2.49l2.49-2.59h-3.815c-0.059-0.136-0.134-0.263-0.212-0.377c0.212-0.206,0.4-0.384,0.458-0.511
		c0.335-0.567,0.001-0.989-0.316-1.316c0.053-0.079,0.104-0.156,0.16-0.237c0.047-0.073,0.095-0.144,0.14-0.21
		c0.13-0.197,0.244-0.367,0.286-0.484c0.182-0.438,0.057-0.841-0.369-1.194c-0.051-0.044-0.099-0.076-0.15-0.114
		c0.122-0.262,0.241-0.498,0.268-0.637c0.126-0.51-0.172-0.82-0.5-1.018c-0.075-0.047-0.15-0.084-0.225-0.122
		c0.02-0.092,0.04-0.183,0.062-0.274c0.023-0.084,0.046-0.165,0.068-0.243c0.067-0.232,0.125-0.434,0.13-0.569
		c-0.007-0.68-0.5-0.926-0.928-1.064c0.037-0.29,0.075-0.547,0.061-0.687c-0.105-0.647-0.625-0.78-1.075-0.845
		c-0.014-0.154-0.023-0.31-0.029-0.447C25.81,5.22,25.8,4.991,25.744,4.863c-0.198-0.642-0.738-0.717-1.126-0.717
		c-0.029,0-0.055,0.003-0.084,0.003c-0.057-0.29-0.102-0.543-0.177-0.663c-0.29-0.598-0.832-0.543-1.282-0.455
		c-0.069-0.153-0.134-0.307-0.191-0.444c-0.098-0.24-0.183-0.447-0.265-0.563c-0.187-0.269-0.447-0.405-0.775-0.405
		c-0.128,0-0.268,0.021-0.426,0.063c-0.064,0.017-0.118,0.042-0.179,0.063c-0.149-0.251-0.277-0.47-0.378-0.574
		c-0.36-0.382-0.789-0.285-1.127-0.137c-0.087,0.037-0.164,0.084-0.243,0.128C19.38,1.043,19.273,0.92,19.179,0.81
		c-0.181-0.212-0.325-0.38-0.446-0.455C18.344,0.1,17.93,0.117,17.487,0.418c-0.053,0.04-0.096,0.08-0.145,0.121
		C17.12,0.348,16.93,0.178,16.8,0.122c-0.467-0.214-0.838-0.023-1.11,0.228c-0.068,0.068-0.126,0.14-0.185,0.209
		c-0.134-0.072-0.268-0.148-0.392-0.222c-0.252-0.149-0.451-0.268-0.59-0.293c-0.471-0.132-0.87,0.031-1.158,0.467
		c-0.038,0.054-0.064,0.103-0.097,0.154c-0.271-0.109-0.509-0.21-0.649-0.213c-0.515-0.064-0.809,0.224-0.974,0.58
		c-0.043,0.084-0.074,0.167-0.107,0.249c-0.166-0.025-0.331-0.056-0.486-0.086c-0.239-0.046-0.446-0.085-0.587-0.085h-0.029
		c-0.683,0.021-0.878,0.622-0.942,0.82c-0.02,0.062-0.029,0.12-0.043,0.181C9.162,2.1,8.91,2.087,8.769,2.114
		c-0.517,0.093-0.669,0.507-0.729,0.87C8.024,3.076,8.02,3.166,8.014,3.255C7.863,3.28,7.708,3.303,7.563,3.32
		C7.272,3.355,7.042,3.384,6.917,3.451C6.286,3.716,6.26,4.266,6.306,4.715C6.026,4.793,5.783,4.858,5.671,4.94
		C5.107,5.284,5.201,5.815,5.323,6.256C5.264,6.287,5.207,6.32,5.147,6.351L5.061,6.396C4.985,6.438,4.91,6.477,4.839,6.514
		c-0.21,0.11-0.393,0.205-0.487,0.289C3.811,7.236,4.036,7.834,4.11,8.031c0.023,0.06,0.05,0.11,0.076,0.166
		c-0.23,0.17-0.439,0.316-0.529,0.422c-0.359,0.39-0.226,0.809-0.043,1.135c0.047,0.08,0.096,0.149,0.144,0.221
		c-0.125,0.143-0.254,0.277-0.37,0.397C3.223,10.545,3.08,10.692,3,10.814c-0.311,0.601,0.001,1.051,0.31,1.377
		c-0.162,0.23-0.308,0.431-0.37,0.562c-0.21,0.616,0.179,0.98,0.539,1.253c-0.062,0.141-0.128,0.282-0.193,0.412
		c-0.131,0.267-0.234,0.477-0.245,0.618c-0.068,0.367,0.037,0.628,0.208,0.824H0.19l2.49,2.59L0,20.94h5.784
		c0.193,0.215,0.476,0.286,0.738,0.306c0.09,0.005,0.171,0.002,0.255,0.001c0.045,0.168,0.083,0.338,0.117,0.489
		c0.058,0.265,0.104,0.474,0.169,0.603c0.223,0.413,0.618,0.588,1.127,0.536c0.071-0.01,0.134-0.026,0.201-0.041
		c0.103,0.268,0.189,0.501,0.271,0.616c0.31,0.411,0.727,0.42,1.086,0.327c0.087-0.027,0.166-0.06,0.247-0.091
		c0.055,0.086,0.113,0.174,0.158,0.251c0.192,0.312,0.349,0.559,0.468,0.674c0.188,0.184,0.401,0.285,0.644,0.302
		c0.186-0.003,0.382-0.056,0.598-0.163c0.061-0.029,0.111-0.063,0.167-0.094c0.188,0.221,0.355,0.409,0.469,0.49
		c0.209,0.15,0.417,0.199,0.606,0.184c0.193-0.031,0.37-0.123,0.528-0.233c0.071-0.05,0.133-0.103,0.197-0.155
		c0.138,0.104,0.272,0.212,0.391,0.31c0.2,0.164,0.373,0.305,0.498,0.366c0.143,0.075,0.287,0.113,0.43,0.113
		c0.343,0,0.616-0.219,0.792-0.385c0.052-0.05,0.091-0.1,0.137-0.15c0.246,0.146,0.46,0.277,0.598,0.32
		c0.5,0.176,0.828-0.128,1.055-0.418c0.053-0.069,0.095-0.139,0.139-0.208c0.166,0.055,0.329,0.114,0.473,0.17
		c0.25,0.094,0.449,0.169,0.592,0.186c0.469,0.034,0.822-0.182,1.065-0.651c0.031-0.066,0.051-0.128,0.076-0.193
		c0.282,0.061,0.529,0.117,0.671,0.112c0.514-0.035,0.749-0.381,0.868-0.731c0.026-0.09,0.042-0.174,0.06-0.261
		c0.095,0.001,0.19,0.003,0.287,0.009c0.136,0.003,0.266,0.006,0.383,0.006c0.212,0,0.347-0.01,0.435-0.029
		c0.471-0.093,0.739-0.417,0.798-0.963c0.009-0.067,0.009-0.127,0.013-0.192c0.291-0.038,0.543-0.074,0.674-0.126
		c0.495-0.177,0.596-0.588,0.579-0.974c-0.002-0.087-0.012-0.166-0.021-0.247c0.057-0.021,0.114-0.043,0.17-0.063H32z M27.604,12.37
		c0.053-0.259,0.176-0.521,0.301-0.77c0.037,0.027,0.073,0.051,0.108,0.081c0.362,0.302,0.461,0.609,0.312,0.972
		c-0.036,0.099-0.143,0.259-0.267,0.444c-0.046,0.068-0.093,0.14-0.138,0.21c-0.048,0.067-0.091,0.137-0.138,0.204
		c-0.069-0.07-0.134-0.136-0.182-0.196c0.007-0.167,0.026-0.332,0.026-0.5C27.626,12.664,27.609,12.52,27.604,12.37z M27.638,15.626
		c0.052,0.076,0.1,0.154,0.14,0.234h-0.358C27.491,15.78,27.563,15.701,27.638,15.626z M26.845,7.69
		c0.377,0.128,0.745,0.331,0.75,0.86c-0.004,0.106-0.062,0.306-0.122,0.517c-0.022,0.078-0.046,0.161-0.073,0.264
		c-0.016,0.066-0.031,0.14-0.047,0.21c-0.083-0.042-0.166-0.083-0.226-0.125c-0.088-0.294-0.192-0.58-0.301-0.863
		C26.798,8.274,26.82,7.974,26.845,7.69z M3.879,15.86h-0.34c-0.222-0.175-0.372-0.411-0.3-0.798
		c0.009-0.114,0.114-0.329,0.227-0.557c0.059-0.119,0.119-0.249,0.177-0.379c0.077,0.057,0.149,0.11,0.205,0.161
		c0.04,0.321,0.084,0.644,0.149,0.958C3.987,15.445,3.937,15.655,3.879,15.86z M3.855,11.287c-0.11,0.251-0.271,0.504-0.431,0.735
		c-0.269-0.292-0.492-0.646-0.252-1.107c0.064-0.097,0.202-0.239,0.36-0.404c0.105-0.11,0.223-0.235,0.337-0.362
		c0.05,0.072,0.1,0.145,0.134,0.208C3.939,10.663,3.896,10.975,3.855,11.287z M25.558,4.933c0.045,0.104,0.055,0.338,0.065,0.585
		c0.005,0.126,0.016,0.27,0.028,0.41c-0.097-0.014-0.188-0.025-0.262-0.044c-0.177-0.248-0.358-0.493-0.553-0.728
		c-0.126-0.237-0.202-0.53-0.261-0.811C24.966,4.336,25.391,4.395,25.558,4.933z M21.47,1.874c0.477-0.127,0.773-0.043,0.987,0.265
		c0.069,0.099,0.15,0.295,0.244,0.523c0.052,0.126,0.113,0.269,0.176,0.408c-0.095,0.02-0.185,0.036-0.26,0.041
		c-0.249-0.179-0.504-0.344-0.767-0.502c-0.188-0.199-0.355-0.45-0.505-0.691C21.387,1.904,21.426,1.885,21.47,1.874z M17.602,0.58
		c0.368-0.25,0.697-0.271,1.023-0.059c0.097,0.061,0.245,0.234,0.401,0.418c0.086,0.1,0.185,0.211,0.285,0.32
		c-0.075,0.043-0.15,0.089-0.215,0.118c-0.308-0.092-0.619-0.175-0.936-0.241C17.93,1.02,17.703,0.844,17.496,0.67
		C17.531,0.641,17.564,0.608,17.602,0.58z M13.529,0.624c0.186-0.281,0.418-0.425,0.687-0.425c0.08,0,0.165,0.013,0.262,0.039
		c0.113,0.021,0.317,0.142,0.532,0.27c0.108,0.064,0.234,0.134,0.36,0.202c-0.059,0.069-0.116,0.141-0.169,0.19
		c-0.315,0.012-0.63,0.031-0.939,0.068c-0.264-0.03-0.542-0.129-0.804-0.232C13.482,0.699,13.502,0.662,13.529,0.624z M9.684,1.992
		c0.149-0.461,0.384-0.672,0.781-0.683c0.123,0,0.321,0.037,0.55,0.081c0.134,0.026,0.288,0.054,0.442,0.077
		c-0.034,0.085-0.066,0.17-0.102,0.232c-0.288,0.113-0.568,0.238-0.845,0.372c-0.27,0.05-0.573,0.053-0.856,0.045
		C9.665,2.075,9.669,2.034,9.684,1.992z M7.002,3.631c0.101-0.053,0.336-0.082,0.585-0.113c0.126-0.016,0.269-0.037,0.41-0.061
		C7.993,3.547,7.99,3.639,7.979,3.711c-0.243,0.205-0.479,0.416-0.704,0.64C7.049,4.486,6.769,4.579,6.501,4.658
		C6.462,4.251,6.5,3.842,7.002,3.631z M4.349,8.076C4.332,8.036,4.313,8.002,4.296,7.96C4.125,7.504,4.18,7.195,4.48,6.956
		c0.08-0.071,0.252-0.161,0.451-0.267c0.072-0.037,0.148-0.077,0.224-0.118l0.084-0.044c0.045-0.023,0.094-0.051,0.14-0.076
		c0.028,0.095,0.053,0.184,0.064,0.26C5.285,6.977,5.138,7.245,5,7.522C4.826,7.732,4.578,7.91,4.349,8.076z M8.166,22.678
		c-0.052,0.005-0.104,0.008-0.157,0.008c-0.357,0-0.609-0.145-0.769-0.439c-0.053-0.104-0.098-0.313-0.151-0.553
		c-0.031-0.138-0.068-0.292-0.107-0.445c0.093-0.003,0.185-0.006,0.261,0.001c0.221,0.22,0.455,0.427,0.689,0.628
		c0.156,0.225,0.279,0.504,0.385,0.77C8.267,22.656,8.218,22.67,8.166,22.678z M8.535,19.068v-2.919h0.538v1.12h0.988v-1.12h0.538
		v2.919h-0.538v-1.26H9.073v1.26H8.535z M11.776,24.571c-0.189,0.095-0.357,0.141-0.505,0.143c-0.186-0.013-0.357-0.095-0.51-0.244
		c-0.104-0.1-0.26-0.348-0.437-0.634c-0.039-0.066-0.092-0.145-0.139-0.219c0.093-0.036,0.182-0.072,0.258-0.091
		c0.279,0.137,0.563,0.266,0.852,0.381c0.223,0.153,0.421,0.374,0.603,0.595C11.857,24.525,11.82,24.551,11.776,24.571z
		 M15.804,25.201c-0.15,0.143-0.382,0.33-0.654,0.33c-0.11,0-0.223-0.03-0.339-0.092c-0.106-0.052-0.271-0.187-0.462-0.343
		c-0.108-0.088-0.232-0.186-0.356-0.28c0.075-0.063,0.147-0.123,0.211-0.163c0.307,0.037,0.618,0.059,0.933,0.073
		c0.259,0.086,0.521,0.229,0.765,0.368C15.868,25.131,15.84,25.167,15.804,25.201z M19.822,24.506
		c-0.19,0.366-0.447,0.544-0.788,0.544c-0.026,0-0.054-0.001-0.079-0.003c-0.115-0.014-0.313-0.088-0.541-0.175
		c-0.131-0.05-0.281-0.103-0.43-0.153c0.049-0.079,0.096-0.157,0.143-0.217c0.313-0.065,0.619-0.147,0.923-0.238
		c0.267-0.004,0.557,0.045,0.83,0.1C19.86,24.411,19.844,24.459,19.822,24.506z M15.687,23.438c-2.599,0-4.98-0.941-6.829-2.497
		h13.656C20.667,22.496,18.286,23.438,15.687,23.438z M12.095,17.423c-0.017-0.036-0.04-0.065-0.068-0.085
		c-0.028-0.021-0.062-0.035-0.099-0.042c-0.038-0.007-0.079-0.01-0.121-0.01c-0.094,0-0.168,0.024-0.224,0.073
		c-0.056,0.049-0.089,0.131-0.098,0.246h-0.486c0.007-0.137,0.035-0.25,0.086-0.34c0.05-0.09,0.114-0.162,0.191-0.217
		c0.078-0.055,0.164-0.094,0.26-0.117c0.096-0.022,0.194-0.034,0.295-0.034c0.089,0,0.179,0.007,0.27,0.022
		c0.091,0.016,0.174,0.044,0.25,0.088c0.075,0.044,0.137,0.104,0.184,0.184c0.048,0.08,0.072,0.182,0.072,0.307v1.101
		c0,0.095,0.004,0.187,0.014,0.274c0.009,0.087,0.025,0.152,0.048,0.195h-0.492c-0.01-0.032-0.018-0.065-0.023-0.1
		s-0.009-0.068-0.012-0.104c-0.078,0.096-0.168,0.163-0.274,0.202c-0.105,0.04-0.212,0.061-0.321,0.061
		c-0.084,0-0.163-0.014-0.236-0.039c-0.073-0.027-0.137-0.065-0.191-0.117c-0.055-0.052-0.098-0.117-0.128-0.196
		c-0.031-0.079-0.046-0.173-0.046-0.282c0-0.12,0.017-0.219,0.051-0.297c0.034-0.077,0.079-0.139,0.137-0.186
		c0.057-0.047,0.122-0.081,0.193-0.104c0.071-0.023,0.146-0.041,0.221-0.055c0.075-0.014,0.147-0.025,0.216-0.033
		c0.068-0.009,0.129-0.021,0.183-0.036c0.054-0.017,0.097-0.041,0.128-0.072s0.047-0.076,0.047-0.137
		C12.121,17.51,12.112,17.46,12.095,17.423z M13.482,16.955v2.113h-0.485v-2.113H13.482z M12.997,16.628v-0.479h0.485v0.479H12.997z
		 M14.334,17.348c0.023-0.065,0.054-0.126,0.093-0.182c0.038-0.057,0.083-0.104,0.133-0.144s0.104-0.07,0.163-0.092
		c0.058-0.022,0.117-0.033,0.176-0.033c0.037,0,0.072,0.007,0.106,0.021v0.54c-0.023-0.005-0.05-0.011-0.083-0.015
		c-0.032-0.004-0.063-0.006-0.092-0.006c-0.089,0-0.165,0.018-0.226,0.053c-0.062,0.035-0.111,0.084-0.149,0.146
		c-0.037,0.062-0.064,0.134-0.08,0.217c-0.017,0.083-0.024,0.171-0.024,0.264v0.952h-0.487v-2.113h0.462v0.393H14.334z
		 M17.178,18.355c-0.025-0.031-0.062-0.06-0.108-0.084c-0.046-0.024-0.104-0.047-0.173-0.067c-0.068-0.021-0.146-0.042-0.232-0.063
		c-0.071-0.019-0.139-0.041-0.207-0.068c-0.067-0.025-0.127-0.06-0.179-0.102c-0.053-0.042-0.095-0.096-0.127-0.159
		c-0.032-0.063-0.048-0.143-0.048-0.235c0-0.134,0.022-0.244,0.067-0.333s0.104-0.158,0.176-0.208
		c0.073-0.051,0.156-0.087,0.247-0.107c0.091-0.02,0.185-0.03,0.281-0.03c0.096,0,0.188,0.011,0.278,0.033
		c0.09,0.021,0.17,0.058,0.241,0.11c0.071,0.051,0.129,0.121,0.176,0.206c0.047,0.086,0.075,0.194,0.084,0.325h-0.462
		c-0.007-0.111-0.042-0.188-0.106-0.227c-0.063-0.04-0.139-0.06-0.226-0.06c-0.027,0-0.057,0.001-0.089,0.006
		c-0.032,0.004-0.062,0.013-0.087,0.026c-0.026,0.014-0.049,0.034-0.067,0.06c-0.019,0.025-0.027,0.061-0.027,0.104
		c0,0.052,0.016,0.094,0.047,0.127c0.032,0.032,0.074,0.059,0.125,0.079s0.11,0.039,0.176,0.056
		c0.066,0.016,0.134,0.033,0.202,0.053c0.07,0.02,0.14,0.043,0.207,0.069c0.067,0.027,0.127,0.063,0.179,0.108
		c0.053,0.045,0.095,0.102,0.127,0.168c0.032,0.067,0.048,0.149,0.048,0.248c0,0.139-0.023,0.255-0.07,0.35
		c-0.047,0.094-0.108,0.169-0.184,0.227c-0.075,0.057-0.161,0.098-0.258,0.122c-0.097,0.025-0.195,0.038-0.296,0.038
		c-0.103,0-0.203-0.013-0.301-0.038c-0.098-0.024-0.185-0.065-0.261-0.124c-0.077-0.059-0.139-0.136-0.188-0.231
		c-0.049-0.095-0.076-0.212-0.08-0.352h0.461c0,0.063,0.011,0.116,0.033,0.162c0.022,0.045,0.05,0.081,0.084,0.11
		c0.034,0.027,0.073,0.05,0.118,0.063c0.044,0.015,0.091,0.021,0.138,0.021c0.035,0,0.071-0.005,0.108-0.014
		c0.037-0.01,0.072-0.025,0.103-0.046c0.031-0.02,0.056-0.047,0.077-0.081c0.021-0.034,0.03-0.077,0.03-0.129
		C17.215,18.425,17.203,18.387,17.178,18.355z M18.957,16.955v0.388h-0.355v1.048c0,0.098,0.013,0.163,0.041,0.195
		c0.027,0.033,0.082,0.05,0.164,0.05c0.055,0,0.105-0.006,0.15-0.017v0.453c-0.041,0.009-0.086,0.015-0.137,0.017
		c-0.05,0.003-0.099,0.005-0.147,0.005c-0.075,0-0.146-0.006-0.214-0.019c-0.067-0.013-0.126-0.036-0.177-0.074
		c-0.052-0.036-0.092-0.088-0.122-0.153s-0.044-0.15-0.044-0.258v-1.247h-0.295v-0.388h0.295v-0.634h0.486v0.634H18.957z
		 M19.607,18.938l-0.623-1.983h0.52l0.4,1.447h0.007l0.387-1.447h0.502l-0.738,2.38c-0.053,0.169-0.126,0.291-0.22,0.366
		c-0.093,0.074-0.223,0.111-0.39,0.111c-0.051,0-0.1-0.001-0.149-0.005c-0.049-0.005-0.099-0.01-0.149-0.015v-0.479
		c0.046,0.005,0.093,0.011,0.141,0.016c0.047,0.006,0.096,0.008,0.143,0.005c0.042-0.005,0.076-0.021,0.105-0.048
		c0.028-0.025,0.049-0.057,0.063-0.096c0.013-0.038,0.021-0.079,0.021-0.123C19.628,19.022,19.621,18.979,19.607,18.938z
		 M20.979,19.068v-2.919h0.486v2.919H20.979z M23.381,22.52c-0.049,0.457-0.258,0.717-0.641,0.791
		c-0.098,0.022-0.271,0.025-0.394,0.025c-0.116,0-0.245-0.003-0.376-0.006c-0.081-0.005-0.164-0.006-0.247-0.007
		c0.019-0.096,0.037-0.19,0.063-0.264c0.258-0.154,0.513-0.314,0.759-0.487c0.253-0.111,0.553-0.162,0.845-0.193
		C23.387,22.426,23.387,22.471,23.381,22.52z M22.369,18.56c0.073,0.086,0.177,0.129,0.314,0.129c0.098,0,0.183-0.029,0.253-0.088
		c0.07-0.059,0.114-0.121,0.13-0.187h0.427c-0.068,0.252-0.173,0.433-0.314,0.544c-0.142,0.112-0.313,0.169-0.513,0.169
		c-0.14,0-0.265-0.027-0.376-0.083c-0.112-0.055-0.207-0.131-0.284-0.229c-0.078-0.099-0.138-0.216-0.18-0.353
		c-0.042-0.136-0.063-0.286-0.063-0.449c0-0.158,0.021-0.305,0.064-0.441c0.043-0.136,0.105-0.254,0.185-0.354
		c0.08-0.1,0.175-0.178,0.286-0.235c0.111-0.058,0.233-0.086,0.368-0.086c0.151,0,0.282,0.034,0.394,0.104
		c0.112,0.069,0.204,0.163,0.275,0.28c0.072,0.116,0.124,0.251,0.156,0.4s0.043,0.307,0.034,0.471h-1.276
		C22.256,18.338,22.295,18.474,22.369,18.56z M5.221,14.565c-0.096-0.57-0.157-1.152-0.157-1.75c0-5.858,4.766-10.624,10.623-10.624
		c5.857,0,10.622,4.766,10.622,10.624c0,0.598-0.062,1.18-0.157,1.75H5.221z"/>
	<path d="M11.945,18.116c-0.036,0.008-0.073,0.015-0.113,0.021c-0.041,0.006-0.079,0.013-0.115,0.02
		c-0.038,0.009-0.075,0.02-0.109,0.033s-0.064,0.032-0.091,0.056c-0.026,0.022-0.048,0.053-0.063,0.09
		c-0.017,0.036-0.024,0.081-0.024,0.133c0,0.055,0.008,0.099,0.024,0.133c0.015,0.034,0.037,0.062,0.064,0.081
		c0.028,0.021,0.06,0.035,0.096,0.044c0.036,0.008,0.074,0.012,0.113,0.012c0.096,0,0.169-0.019,0.222-0.057
		c0.053-0.038,0.092-0.084,0.117-0.137c0.025-0.054,0.041-0.107,0.046-0.162c0.006-0.055,0.008-0.099,0.008-0.131v-0.217
		c-0.02,0.022-0.046,0.038-0.077,0.051S11.98,18.107,11.945,18.116z"/>
	<path d="M22.653,17.335c-0.078,0-0.143,0.016-0.194,0.047c-0.051,0.032-0.092,0.071-0.123,0.116
		c-0.031,0.047-0.052,0.096-0.065,0.147c-0.012,0.052-0.02,0.099-0.022,0.14h0.791c-0.023-0.147-0.064-0.26-0.123-0.336
		C22.859,17.373,22.771,17.335,22.653,17.335z"/>
	<path d="M14.804,4.588c0,0.006-0.001,0.032-0.001,0.075c0,0.033,0,0.074-0.001,0.128l-0.099,8.344
		c-0.001,0.123-0.002,0.194-0.002,0.203c-0.001,0.115,0.128,0.148,0.244,0.149s1.231-0.009,1.39-0.007
		c0.021-0.187-0.067-0.245-0.191-0.246c-0.123-0.002-0.95-0.012-0.95-0.012s0-0.028,0.001-0.08l0.001-0.105l1.083,0.013l0.002-0.155
		l-1.083-0.014l0.001-0.132l1.083,0.014l0.002-0.157L15.2,12.592l0.001-0.109l1.083,0.013l0.001-0.157l-1.083-0.013l0.002-0.131
		l1.083,0.013l0.002-0.156l-1.083-0.014l0.002-0.135l1.083,0.012l0.002-0.156l-1.083-0.013l0.001-0.131l1.083,0.013l0.002-0.156
		l-1.083-0.014l0.001-0.111l1.083,0.014l0.002-0.157l-1.083-0.012l0.001-0.132l1.083,0.014l0.001-0.157l-1.083-0.013l0.001-0.11
		l1.083,0.013l0.002-0.156l-1.083-0.014l0.001-0.132l1.083,0.014l0.002-0.157l-1.083-0.012l0.002-0.137l1.083,0.014l0.002-0.158
		l-1.083-0.012l0.002-0.131l1.083,0.013l0.002-0.157l-1.083-0.013l0.001-0.139l1.083,0.013l0.002-0.156l-1.083-0.013l0.002-0.132
		l1.083,0.014l0.002-0.156l-1.083-0.015l0.001-0.11l1.083,0.013l0.002-0.156l-1.083-0.012l0.001-0.133l1.083,0.014l0.001-0.156
		l-1.083-0.014l0.001-0.136l1.083,0.013l0.002-0.157L15.25,8.336l0.001-0.132l1.083,0.013l0.001-0.156l-1.083-0.014l0.001-0.128
		l1.083,0.013l0.001-0.157l-1.083-0.013l0.001-0.131l1.083,0.013l0.002-0.156l-1.083-0.013l0.001-0.136l1.083,0.013l0.002-0.157
		l-1.083-0.013l0.001-0.131l1.083,0.013l0.001-0.157l-1.083-0.013l0.002-0.139l1.083,0.015l0.002-0.158l-1.083-0.013l0.002-0.132
		l1.083,0.014l0.002-0.157L15.274,6.31l0.001-0.11l1.083,0.014l0.002-0.156l-1.083-0.013l0.001-0.132l1.083,0.013l0.002-0.156
		l-1.083-0.013l0.002-0.137l1.083,0.013l0.002-0.156l-1.083-0.013l0.001-0.131l1.083,0.012l0.001-0.156l-1.083-0.012l0.001-0.139
		l1.083,0.013l0.002-0.156l-1.083-0.013l0.001-0.084c0-0.053,0.001-0.082,0.001-0.082s0.826,0.009,0.95,0.011
		c0.124,0.001,0.214-0.055,0.197-0.241c-0.158-0.002-1.274-0.038-1.389-0.039C14.935,4.443,14.805,4.474,14.804,4.588z"/>
	<path d="M12.675,5.521c0,0.003,0,0.013,0,0.027l-0.002,0.175l-0.088,7.412c-0.001,0.123-0.002,0.194-0.002,0.203
		c-0.001,0.115,0.128,0.148,0.244,0.149s1.232-0.009,1.391-0.007c0.021-0.187-0.068-0.245-0.191-0.246
		c-0.124-0.002-0.95-0.011-0.95-0.011l-0.12-0.084l0-0.062l1.204,0.015l0.002-0.157l-1.204-0.015l0.001-0.136l1.204,0.015
		l0.002-0.156l-1.204-0.015l0.001-0.131l1.204,0.014l0.001-0.157l-1.203-0.014l0.002-0.11l1.203,0.015l0.002-0.157l-1.203-0.014
		l0.001-0.132l1.204,0.014l0.002-0.156l-1.204-0.014l0.001-0.11l1.204,0.014l0.002-0.156l-1.204-0.014l0.001-0.131l1.204,0.014
		l0.001-0.157l-1.204-0.014l0.002-0.137l1.203,0.015l0.002-0.157l-1.204-0.014l0.001-0.132l1.204,0.016l0.002-0.158l-1.204-0.014
		l0.002-0.139l1.204,0.015l0.001-0.157l-1.203-0.015l0.001-0.131l1.204,0.015l0.001-0.157l-1.204-0.015l0.001-0.11l1.203,0.015
		l0.002-0.156L12.996,9.8l0.002-0.132l1.203,0.016l0.002-0.157L13,9.512L13,9.376l1.204,0.014l0.001-0.156L13.002,9.22l0.001-0.132
		l1.204,0.015l0.002-0.156l-1.204-0.015l0.001-0.129l1.204,0.015l0.001-0.157l-1.204-0.014l0.001-0.131l1.203,0.014l0.002-0.157
		l-1.203-0.014l0.001-0.136l1.204,0.014l0.002-0.157l-1.204-0.014l0.001-0.131l1.204,0.015l0.002-0.157l-1.204-0.015l0.002-0.139
		l1.204,0.015l0.002-0.157l-1.204-0.014l0.002-0.131l1.203,0.015l0.002-0.157l-1.204-0.015l0.001-0.11l1.203,0.014l0.002-0.156
		L13.03,6.927l0.001-0.131l1.204,0.015l0.001-0.156L13.033,6.64l0.001-0.136l1.204,0.014l0.002-0.156l-1.204-0.015l0.001-0.131
		l1.204,0.014l0.001-0.157L13.04,6.06l0.002-0.138l1.203,0.015l0.002-0.157l-1.204-0.014V5.727l0.122-0.079
		c0,0,0.826,0.009,0.95,0.011c0.124,0.001,0.214-0.055,0.197-0.242c-0.158-0.001-1.274-0.037-1.39-0.039
		C12.807,5.376,12.677,5.406,12.675,5.521z"/>
	<path d="M16.823,3.952c-0.001,0.109-0.07,9.324-0.072,9.509c-0.002,0.184,0.473,0.134,0.474,0.004
		c0.001-0.062,0.017-2.132,0.033-4.313l0.956,0.008l0.001-0.129l-0.956-0.007c0-0.036,0-0.071,0-0.107l0.956,0.008l0.001-0.129
		L17.26,8.789c0-0.029,0.001-0.06,0.001-0.09l0.956,0.007l0.001-0.127l-0.956-0.008c0-0.036,0-0.071,0.001-0.106l0.956,0.007
		l0.001-0.128l-0.956-0.007c0-0.029,0-0.059,0-0.089l0.956,0.008l0.001-0.128l-0.956-0.007c0-0.036,0-0.072,0-0.107l0.957,0.008
		l0.001-0.129l-0.957-0.006c0-0.031,0.001-0.061,0.001-0.092l0.956,0.008l0.001-0.128l-0.956-0.008c0-0.036,0-0.071,0-0.106
		l0.957,0.007l0-0.127l-0.956-0.008c0-0.037,0-0.073,0-0.11l0.956,0.007l0-0.128l-0.956-0.007c0-0.035,0-0.071,0-0.106l0.956,0.007
		l0.001-0.128l-0.956-0.008c0-0.029,0-0.06,0-0.09l0.956,0.008l0.001-0.127l-0.956-0.008c0-0.036,0-0.072,0-0.107l0.956,0.008
		l0.001-0.129l-0.956-0.006c0-0.03,0-0.061,0-0.091l0.956,0.007l0.001-0.128l-0.956-0.007c0-0.036,0-0.072,0-0.106l0.956,0.007
		l0.001-0.128l-0.956-0.007c0-0.037,0.001-0.074,0.001-0.11l0.956,0.006l0.001-0.128l-0.956-0.006c0-0.036,0-0.072,0-0.107
		l0.956,0.006l0.001-0.126l-0.956-0.008c0-0.038,0-0.075,0.001-0.112l0.956,0.006l0-0.128L17.287,5.34c0-0.035,0-0.071,0-0.107
		l0.956,0.008l0.001-0.128l-0.956-0.007c0-0.03,0-0.061,0-0.09l0.957,0.007l0.001-0.127L17.29,4.889
		c0-0.038,0.001-0.073,0.001-0.107l0.956,0.007l0.001-0.128l-0.956-0.008c0-0.039,0-0.074,0.001-0.11l0.956,0.007l0.001-0.127
		l-0.956-0.008c0-0.038,0-0.074,0.001-0.107l0.956,0.008l0.001-0.127L17.295,4.18c0.001-0.07,0.001-0.107,0.001-0.107
		s0.796,0.006,0.916,0.007s0.206-0.054,0.189-0.234c-0.153-0.001-1.229-0.031-1.34-0.032C16.949,3.813,16.824,3.842,16.823,3.952z"
		/>
</g>
<g>
</g>
<g>
</g>
<g>
</g>
<g>
</g>
<g>
</g>
<g>
</g>
<g>
</g>
<g>
</g>
<g>
</g>
<g>
</g>
<g>
</g>
<g>
</g>
<g>
</g>
<g>
</g>
<g>
</g>
</svg>
