<?xml version="1.0" encoding="iso-8859-1"?>
<!-- Generator: Adobe Illustrator 16.0.0, SVG Export Plug-In . SVG Version: 6.00 Build 0)  -->
<!DOCTYPE svg PUBLIC "-//W3C//DTD SVG 1.1//EN" "http://www.w3.org/Graphics/SVG/1.1/DTD/svg11.dtd">
<svg version="1.1" id="Layer_1" xmlns="http://www.w3.org/2000/svg" xmlns:xlink="http://www.w3.org/1999/xlink" x="0px" y="0px"
	 width="31.952px" height="32px" viewBox="0 0 31.952 32" style="enable-background:new 0 0 31.952 32;" xml:space="preserve">
<g>
	<path d="M30.976,16.646c0.009-0.208,0.032-0.413,0.032-0.626c0-0.188-0.021-0.371-0.028-0.558c0.075-0.362,0.256-0.731,0.43-1.074
		c0.173-0.382,0.352-0.724,0.391-0.918c0.158-0.641-0.215-1.026-0.625-1.276c-0.293-0.181-0.601-0.299-0.793-0.433
		c-0.109-0.367-0.24-0.727-0.376-1.082c-0.039-0.383-0.002-0.803,0.031-1.187c0.05-0.423,0.116-0.809,0.095-1.008
		c-0.183-1.125-1.37-1.01-1.927-1.15c-0.223-0.31-0.45-0.617-0.694-0.91c-0.367-0.691-0.399-1.771-0.598-2.093
		c-0.502-1.039-1.618-0.507-2.182-0.471c-0.311-0.224-0.632-0.432-0.96-0.629c-0.548-0.577-0.966-1.521-1.239-1.804
		c-0.452-0.477-0.99-0.354-1.413-0.17c-0.309,0.134-0.577,0.332-0.797,0.431c-0.386-0.115-0.776-0.218-1.173-0.303
		c-0.692-0.35-1.363-1.125-1.706-1.271c-0.586-0.267-1.05-0.029-1.391,0.286c-0.247,0.248-0.437,0.525-0.612,0.689
		c-0.396,0.016-0.79,0.039-1.177,0.085c-0.776-0.088-1.683-0.637-2.058-0.646c-0.646-0.081-1.013,0.28-1.221,0.727
		c-0.157,0.311-0.248,0.632-0.364,0.838C10.258,2.235,9.907,2.392,9.56,2.56C8.778,2.703,7.763,2.538,7.378,2.613
		C6.73,2.729,6.54,3.247,6.464,3.703c-0.058,0.334-0.037,0.672-0.075,0.91c-0.303,0.257-0.6,0.521-0.881,0.801
		c-0.667,0.397-1.712,0.52-2.01,0.74C2.514,6.752,3.122,7.81,3.211,8.373C3.013,8.704,2.828,9.041,2.655,9.389
		c-0.238,0.288-0.589,0.529-0.896,0.755c-0.336,0.254-0.657,0.469-0.785,0.621c-0.451,0.486-0.283,1.012-0.054,1.421
		c0.173,0.299,0.377,0.547,0.487,0.755c-0.08,0.383-0.135,0.774-0.186,1.167c-0.315,0.726-0.978,1.478-1.146,1.835
		c-0.366,1.07,0.709,1.537,1.136,1.926c0.05,0.402,0.105,0.806,0.188,1.2c-0.038,0.77-0.503,1.696-0.479,2.063
		c-0.037,1.151,1.179,1.22,1.701,1.451c0.17,0.349,0.352,0.687,0.547,1.019c0.113,0.357,0.125,0.782,0.145,1.166
		c0.028,0.42,0.034,0.807,0.09,0.996c0.162,0.643,0.693,0.788,1.16,0.822c0.347,0.02,0.667-0.017,0.904,0.005
		c0.276,0.275,0.568,0.533,0.864,0.786c0.448,0.648,0.689,1.657,0.914,1.971c0.389,0.515,0.91,0.526,1.361,0.41
		c0.338-0.101,0.639-0.256,0.871-0.313c0.35,0.171,0.705,0.332,1.068,0.478c0.306,0.21,0.58,0.521,0.824,0.825
		c0.276,0.325,0.523,0.611,0.685,0.727c0.262,0.19,0.521,0.25,0.759,0.23c0.242-0.038,0.464-0.155,0.661-0.292
		c0.284-0.195,0.515-0.433,0.713-0.558c0.386,0.048,0.776,0.074,1.17,0.094c0.752,0.251,1.559,0.871,1.93,0.987
		c0.626,0.221,1.039-0.159,1.324-0.521c0.205-0.271,0.349-0.561,0.495-0.747c0.393-0.082,0.776-0.187,1.157-0.299
		c0.783-0.015,1.747,0.326,2.129,0.313c0.643-0.045,0.938-0.478,1.087-0.918c0.101-0.339,0.134-0.677,0.212-0.903
		c0.324-0.194,0.644-0.394,0.951-0.611c0.35-0.154,0.771-0.221,1.173-0.259c0.422-0.056,0.797-0.103,0.983-0.175
		c0.62-0.223,0.746-0.738,0.725-1.223c-0.008-0.346-0.08-0.673-0.073-0.907c0.244-0.287,0.471-0.588,0.692-0.894
		c0.136-0.114,0.281-0.221,0.449-0.313c0.182-0.117,0.378-0.22,0.57-0.314c0.383-0.189,0.743-0.345,0.897-0.47
		c0.841-0.768,0.103-1.697-0.086-2.24c0.142-0.363,0.278-0.728,0.393-1.103c0.381-0.678,1.258-1.286,1.413-1.627
		C32.361,17.737,31.328,17.099,30.976,16.646z M16.046,29.331c-7.339,0-13.311-5.971-13.311-13.311
		c0-7.339,5.972-13.311,13.311-13.311s13.311,5.972,13.311,13.311C29.357,23.36,23.386,29.331,16.046,29.331z"/>
	<path d="M16.137,3.43c-6.933,0-12.572,5.639-12.572,12.571c0,6.931,5.639,12.57,12.572,12.57c6.931,0,12.57-5.64,12.57-12.57
		C28.707,9.068,23.067,3.43,16.137,3.43z M16.137,27.767c-6.488,0-11.767-5.278-11.767-11.766c0-6.488,5.279-11.768,11.767-11.768
		c6.487,0,11.765,5.279,11.765,11.768C27.902,22.488,22.624,27.767,16.137,27.767z"/>
	<polygon points="14.82,23.778 18.859,23.778 19.474,9.586 14.205,9.586 	"/>
	<rect x="15.743" y="6.277" width="2.077" height="2.962"/>
	<polygon points="9.057,23.711 12.354,23.711 12.856,12.124 8.555,12.124 	"/>
	<rect x="9.811" y="9.423" width="1.695" height="2.418"/>
	<polygon points="21.06,23.825 24.356,23.825 24.858,12.238 20.557,12.238 	"/>
	<rect x="21.813" y="9.539" width="1.696" height="2.418"/>
</g>
<g>
</g>
<g>
</g>
<g>
</g>
<g>
</g>
<g>
</g>
<g>
</g>
<g>
</g>
<g>
</g>
<g>
</g>
<g>
</g>
<g>
</g>
<g>
</g>
<g>
</g>
<g>
</g>
<g>
</g>
</svg>
