<?xml version="1.0" encoding="iso-8859-1"?>
<!-- Generator: Adobe Illustrator 16.0.0, SVG Export Plug-In . SVG Version: 6.00 Build 0)  -->
<!DOCTYPE svg PUBLIC "-//W3C//DTD SVG 1.1//EN" "http://www.w3.org/Graphics/SVG/1.1/DTD/svg11.dtd">
<svg version="1.1" id="Layer_1" xmlns="http://www.w3.org/2000/svg" xmlns:xlink="http://www.w3.org/1999/xlink" x="0px" y="0px"
	 width="31.884px" height="28.253px" viewBox="0 0 31.884 28.253" style="enable-background:new 0 0 31.884 28.253;"
	 xml:space="preserve">
<g>
	<path d="M26.384,5.143H5.468V23.11h20.916V5.143z M26.159,22.886H5.693V5.368h20.466V22.886z"/>
	<path d="M31.259,18.757c-0.333-0.027-0.771,0.234-0.659,0.556c0.431-0.313,0.559,0.328,0.026,0.337
		c-0.196,0.003-0.369-0.147-0.454-0.407c-0.076-0.234-0.012-0.861-0.167-1.247c-0.124-0.309-0.315-0.642-0.555-0.566
		c-0.153,0.048-0.17,0.315-0.33,0.232c0.09-0.074,0.172-0.15,0.18-0.252c-0.088-0.18-0.274-0.376-0.377-0.556v-0.379
		c0.032-0.032,0.075-0.062,0.134-0.088c0.156-0.072,0.458,0.033,0.634-0.032c0.286-0.104,0.54-0.43,0.602-0.669
		c0.15-0.575-0.55-1.16-0.919-0.598c0.03,0.064,0.193-0.112,0.177,0.03c-0.098,0.277-0.438,0.314-0.628,0.207v-0.758
		c0.004-0.039,0.005-0.078,0-0.119v-0.32v-2.204c0.044-0.103,0.094-0.173,0.151-0.202c0.237-0.118,0.645-0.165,0.803,0.071
		c0.417,0.623-0.69,0.911-0.505,0.203c-0.42,0.262-0.111,0.962,0.232,1.145c0.493,0.261,1.409-0.228,1.621-0.728
		c0.217-0.51-0.126-1.15-0.548-1.41c-0.427-0.262-0.985-0.194-1.367-0.564c-0.121-0.117-0.226-0.316-0.09-0.422
		c0.239-0.188,0.91,0.224,1.22,0.262c0.645,0.079,1.329-0.436,1.426-0.935c0.088-0.452-0.139-1.062-0.606-1.1
		C30.926,8.216,30.488,8.478,30.6,8.8c0.431-0.313,0.559,0.328,0.026,0.338c-0.196,0.003-0.369-0.147-0.454-0.407
		c-0.076-0.234-0.012-0.862-0.167-1.247c-0.124-0.31-0.315-0.643-0.555-0.566c-0.153,0.048-0.17,0.314-0.33,0.232
		c0.09-0.074,0.172-0.15,0.18-0.252c-0.088-0.181-0.274-0.376-0.377-0.556V5.962c0.032-0.031,0.075-0.062,0.134-0.088
		c0.156-0.073,0.458,0.033,0.634-0.032c0.286-0.104,0.54-0.43,0.602-0.67c0.15-0.574-0.55-1.16-0.919-0.598
		c0.03,0.064,0.193-0.112,0.177,0.029c-0.098,0.277-0.438,0.315-0.628,0.207V4.052c0.004-0.039,0.005-0.078,0-0.119v-0.32h-0.204
		h-0.272V3.131h-0.176V2.961h-2.584c-0.12-0.044-0.203-0.095-0.236-0.152c-0.139-0.238-0.194-0.645,0.083-0.803
		c0.73-0.416,1.068,0.69,0.237,0.506c0.308,0.419,1.13,0.11,1.343-0.233c0.307-0.492-0.266-1.409-0.853-1.62
		c-0.598-0.217-1.349,0.126-1.653,0.548C24.3,1.634,24.38,2.192,23.946,2.574c-0.137,0.122-0.37,0.226-0.495,0.09
		c-0.219-0.238,0.263-0.91,0.308-1.22c0.093-0.645-0.511-1.328-1.096-1.426c-0.53-0.088-1.245,0.139-1.29,0.607
		c-0.033,0.333,0.274,0.77,0.652,0.659c-0.367-0.432,0.385-0.56,0.396-0.026c0.004,0.196-0.172,0.369-0.477,0.454
		c-0.274,0.076-1.011,0.012-1.463,0.167c-0.362,0.124-0.753,0.315-0.664,0.554c0.057,0.153,0.369,0.171,0.272,0.33
		c-0.087-0.09-0.176-0.172-0.296-0.18c-0.212,0.088-0.442,0.275-0.652,0.378h-0.444c-0.037-0.033-0.072-0.076-0.104-0.134
		c-0.085-0.156,0.038-0.458-0.038-0.635c-0.123-0.286-0.504-0.54-0.785-0.602c-0.674-0.15-1.36,0.551-0.702,0.919
		c0.076-0.029-0.131-0.193,0.035-0.177c0.325,0.099,0.369,0.438,0.243,0.629h-0.89c-0.045-0.005-0.091-0.006-0.139,0h-0.375h-2.584
		c-0.121-0.044-0.203-0.095-0.237-0.152c-0.139-0.238-0.193-0.645,0.083-0.803c0.73-0.416,1.068,0.69,0.237,0.506
		c0.308,0.419,1.129,0.11,1.343-0.233c0.306-0.492-0.267-1.409-0.853-1.62c-0.598-0.217-1.349,0.126-1.653,0.548
		c-0.307,0.426-0.227,0.985-0.661,1.367c-0.137,0.122-0.37,0.226-0.495,0.09c-0.219-0.238,0.263-0.91,0.308-1.22
		c0.093-0.645-0.511-1.328-1.096-1.426c-0.53-0.088-1.246,0.139-1.291,0.607c-0.033,0.333,0.274,0.77,0.652,0.659
		c-0.366-0.432,0.385-0.56,0.396-0.026c0.004,0.196-0.172,0.369-0.477,0.454C9.34,1.788,8.604,1.725,8.152,1.879
		C7.79,2.003,7.398,2.195,7.488,2.434c0.057,0.153,0.369,0.171,0.272,0.33c-0.087-0.09-0.176-0.172-0.296-0.18
		C7.252,2.672,7.022,2.858,6.812,2.961H6.368C6.331,2.929,6.296,2.886,6.264,2.827C6.179,2.671,6.303,2.369,6.226,2.192
		C6.104,1.907,5.722,1.653,5.441,1.59C4.767,1.44,4.081,2.141,4.739,2.51c0.076-0.029-0.13-0.193,0.035-0.177
		C5.1,2.431,5.143,2.771,5.017,2.961H4.128c-0.045-0.005-0.091-0.006-0.14,0H3.613v0.169H3.437v0.482H3.25H2.961v2.204
		C2.917,5.92,2.866,5.99,2.81,6.019C2.572,6.137,2.164,6.184,2.006,5.947C1.59,5.325,2.696,5.037,2.512,5.745
		c0.42-0.263,0.11-0.963-0.233-1.145c-0.493-0.261-1.409,0.228-1.62,0.728c-0.217,0.509,0.126,1.15,0.548,1.41
		c0.427,0.262,0.985,0.194,1.367,0.563C2.696,7.418,2.8,7.616,2.664,7.723C2.426,7.91,1.754,7.499,1.444,7.46
		C0.799,7.381,0.116,7.897,0.019,8.396c-0.088,0.452,0.139,1.062,0.607,1.101c0.333,0.027,0.77-0.234,0.659-0.556
		c-0.431,0.313-0.56-0.328-0.026-0.337c0.197-0.003,0.369,0.146,0.455,0.406c0.076,0.234,0.012,0.862,0.167,1.247
		c0.124,0.31,0.315,0.643,0.555,0.566c0.153-0.048,0.171-0.314,0.329-0.231c-0.09,0.074-0.171,0.15-0.179,0.252
		c0.088,0.181,0.274,0.376,0.377,0.556v0.378c-0.033,0.032-0.076,0.062-0.134,0.089c-0.156,0.072-0.458-0.033-0.634,0.032
		c-0.286,0.104-0.54,0.43-0.602,0.67c-0.15,0.575,0.55,1.16,0.919,0.598c-0.029-0.064-0.192,0.112-0.177-0.03
		c0.099-0.277,0.438-0.314,0.629-0.207v0.758c-0.005,0.039-0.006,0.078,0,0.119v0.32v2.204c-0.044,0.103-0.095,0.173-0.151,0.201
		c-0.238,0.119-0.646,0.165-0.803-0.071c-0.416-0.623,0.69-0.911,0.506-0.203c0.42-0.263,0.11-0.963-0.233-1.145
		c-0.493-0.261-1.409,0.228-1.62,0.728c-0.217,0.51,0.126,1.15,0.548,1.41c0.427,0.262,0.985,0.194,1.367,0.563
		c0.122,0.117,0.226,0.316,0.089,0.422c-0.238,0.187-0.91-0.224-1.22-0.262c-0.645-0.08-1.328,0.436-1.425,0.935
		c-0.088,0.452,0.139,1.062,0.607,1.101c0.333,0.027,0.77-0.234,0.659-0.556c-0.431,0.313-0.56-0.328-0.026-0.337
		c0.197-0.004,0.369,0.146,0.455,0.407c0.076,0.233,0.012,0.861,0.167,1.247c0.124,0.31,0.315,0.643,0.555,0.567
		c0.153-0.049,0.171-0.315,0.329-0.232c-0.09,0.074-0.171,0.15-0.179,0.252c0.088,0.181,0.274,0.376,0.377,0.556v0.378
		c-0.033,0.032-0.076,0.062-0.134,0.089c-0.156,0.073-0.458-0.033-0.634,0.032c-0.286,0.104-0.54,0.43-0.602,0.669
		c-0.15,0.575,0.55,1.16,0.919,0.598c-0.029-0.064-0.192,0.112-0.177-0.03c0.099-0.277,0.438-0.314,0.629-0.207v0.759
		c-0.005,0.039-0.006,0.078,0,0.119v0.32h0.203h0.272v0.482h0.177v0.17h2.585c0.12,0.044,0.203,0.094,0.236,0.151
		c0.139,0.238,0.193,0.646-0.083,0.803c-0.73,0.417-1.068-0.69-0.238-0.506c-0.308-0.42-1.129-0.11-1.342,0.233
		c-0.306,0.493,0.267,1.409,0.853,1.62c0.598,0.217,1.349-0.126,1.653-0.548c0.306-0.427,0.227-0.985,0.661-1.367
		c0.137-0.122,0.37-0.226,0.495-0.089c0.22,0.238-0.263,0.91-0.307,1.219c-0.093,0.645,0.511,1.329,1.096,1.426
		c0.53,0.088,1.246-0.138,1.291-0.606c0.032-0.333-0.274-0.771-0.652-0.659c0.367,0.431-0.385,0.559-0.396,0.026
		c-0.004-0.197,0.172-0.369,0.477-0.455c0.274-0.076,1.01-0.012,1.462-0.167c0.363-0.124,0.753-0.315,0.664-0.555
		c-0.057-0.153-0.369-0.17-0.271-0.329c0.087,0.09,0.176,0.171,0.296,0.179c0.211-0.088,0.441-0.274,0.651-0.377h0.444
		c0.037,0.032,0.072,0.075,0.104,0.134c0.085,0.156-0.039,0.458,0.038,0.634c0.123,0.286,0.504,0.54,0.785,0.602
		c0.674,0.15,1.36-0.55,0.702-0.919c-0.076,0.029,0.131,0.192-0.035,0.177c-0.325-0.099-0.369-0.438-0.243-0.628h0.89
		c0.045,0.005,0.091,0.006,0.139,0h0.376h2.585c0.119,0.044,0.202,0.094,0.235,0.151c0.139,0.238,0.193,0.646-0.083,0.803
		c-0.73,0.417-1.068-0.69-0.237-0.506c-0.308-0.42-1.129-0.11-1.342,0.233c-0.307,0.493,0.266,1.409,0.853,1.62
		c0.598,0.217,1.349-0.126,1.653-0.548c0.307-0.427,0.228-0.985,0.661-1.367c0.137-0.122,0.37-0.226,0.495-0.089
		c0.22,0.238-0.263,0.91-0.308,1.219c-0.093,0.645,0.511,1.329,1.096,1.426c0.53,0.088,1.246-0.138,1.291-0.606
		c0.032-0.333-0.274-0.771-0.652-0.659c0.366,0.431-0.385,0.559-0.396,0.026c-0.004-0.197,0.172-0.369,0.476-0.455
		c0.274-0.076,1.011-0.012,1.463-0.167c0.363-0.124,0.753-0.315,0.664-0.555c-0.057-0.153-0.369-0.17-0.272-0.329
		c0.087,0.09,0.176,0.171,0.296,0.179c0.212-0.088,0.441-0.274,0.652-0.377h0.444c0.037,0.032,0.072,0.075,0.104,0.134
		c0.085,0.156-0.038,0.458,0.038,0.634c0.123,0.286,0.504,0.54,0.785,0.602c0.675,0.15,1.361-0.55,0.702-0.919
		c-0.075,0.029,0.131,0.192-0.035,0.177c-0.325-0.099-0.369-0.438-0.243-0.628h0.89c0.045,0.005,0.091,0.006,0.139,0h0.375v-0.17
		h0.176V24.64h0.188h0.289v-2.205c0.044-0.102,0.094-0.173,0.151-0.201c0.237-0.119,0.645-0.165,0.803,0.071
		c0.417,0.623-0.69,0.91-0.505,0.203c-0.42,0.263-0.111,0.962,0.232,1.145c0.493,0.261,1.409-0.228,1.621-0.728
		c0.217-0.509-0.126-1.15-0.548-1.41c-0.427-0.261-0.985-0.193-1.367-0.563c-0.121-0.117-0.226-0.315-0.09-0.422
		c0.239-0.187,0.91,0.225,1.22,0.263c0.645,0.08,1.329-0.436,1.426-0.935C31.953,19.406,31.727,18.796,31.259,18.757z
		 M26.948,23.623H4.937V4.631h22.011V23.623z"/>
	<path d="M16.324,21.729c-3.126-1.659-3.275-6.147,1.893-7.359c0.511,0.021,2.616-0.68,2.509-2.616
		c-0.191-0.617,1.404,0.34,0.83,3.084c3.189-4.488-1.148-6.21-1.915-6.083c0.021-0.404-0.382-2.254-3.913-2.233
		c-3.53,0.021-7.104,2.808-6.486,7.89C9.752,16.306,12.432,20.645,16.324,21.729z"/>
</g>
<g>
</g>
<g>
</g>
<g>
</g>
<g>
</g>
<g>
</g>
<g>
</g>
<g>
</g>
<g>
</g>
<g>
</g>
<g>
</g>
<g>
</g>
<g>
</g>
<g>
</g>
<g>
</g>
<g>
</g>
</svg>
