<?xml version="1.0" encoding="iso-8859-1"?>
<!-- Generator: Adobe Illustrator 16.0.0, SVG Export Plug-In . SVG Version: 6.00 Build 0)  -->
<!DOCTYPE svg PUBLIC "-//W3C//DTD SVG 1.1//EN" "http://www.w3.org/Graphics/SVG/1.1/DTD/svg11.dtd">
<svg version="1.1" id="Layer_1" xmlns="http://www.w3.org/2000/svg" xmlns:xlink="http://www.w3.org/1999/xlink" x="0px" y="0px"
	 width="32.276px" height="32.291px" viewBox="0 0 32.276 32.291" style="enable-background:new 0 0 32.276 32.291;"
	 xml:space="preserve">
<g>
	<path d="M17.969,3.562c-0.629-0.096-1.268-0.144-1.899-0.144c-6.212,0-11.596,4.636-12.523,10.784
		c-1.042,6.909,3.731,13.379,10.642,14.423c0.629,0.095,1.268,0.143,1.898,0.143c6.212,0,11.596-4.636,12.523-10.784
		c0.504-3.342-0.326-6.685-2.338-9.412C24.26,5.845,21.312,4.065,17.969,3.562z M28.361,17.946
		c-0.909,6.026-6.187,10.571-12.275,10.571c-0.619,0-1.245-0.047-1.861-0.141C7.451,27.354,2.771,21.013,3.794,14.239
		C4.703,8.213,9.98,3.668,16.069,3.668c0.619,0,1.246,0.048,1.862,0.14c3.276,0.494,6.167,2.239,8.139,4.912
		C28.042,11.394,28.856,14.67,28.361,17.946z"/>
	<path d="M31.815,16.576c0.164-0.247,0.307-0.46,0.359-0.606c0.228-0.55,0.071-1.056-0.463-1.5
		c-0.063-0.055-0.124-0.095-0.188-0.143c0.153-0.329,0.302-0.626,0.336-0.799c0.158-0.641-0.216-1.029-0.627-1.277
		c-0.095-0.06-0.188-0.105-0.282-0.153c0.025-0.115,0.05-0.229,0.077-0.345c0.029-0.105,0.059-0.207,0.086-0.305
		c0.084-0.292,0.156-0.544,0.163-0.715c-0.009-0.853-0.628-1.161-1.165-1.336c0.046-0.363,0.095-0.687,0.076-0.861
		c-0.132-0.813-0.785-0.979-1.35-1.061c-0.017-0.193-0.029-0.388-0.036-0.561c-0.016-0.364-0.027-0.651-0.098-0.812
		c-0.249-0.806-0.926-0.899-1.413-0.899c-0.036,0-0.069,0.004-0.105,0.004c-0.071-0.364-0.128-0.682-0.222-0.832
		c-0.363-0.751-1.044-0.682-1.608-0.572c-0.087-0.191-0.169-0.385-0.24-0.557c-0.123-0.302-0.229-0.562-0.333-0.706
		c-0.234-0.338-0.562-0.509-0.973-0.509c-0.161,0-0.336,0.025-0.534,0.078c-0.081,0.021-0.148,0.053-0.225,0.08
		c-0.188-0.314-0.348-0.59-0.475-0.721c-0.452-0.479-0.99-0.357-1.414-0.172c-0.109,0.047-0.206,0.105-0.305,0.161
		c-0.14-0.149-0.274-0.304-0.393-0.442c-0.228-0.266-0.408-0.477-0.56-0.571c-0.488-0.319-1.008-0.298-1.563,0.079
		c-0.067,0.051-0.12,0.102-0.182,0.152c-0.279-0.24-0.518-0.453-0.681-0.523c-0.587-0.268-1.052-0.029-1.394,0.285
		C16,0.525,15.928,0.614,15.854,0.701c-0.169-0.091-0.336-0.186-0.492-0.278c-0.316-0.188-0.566-0.336-0.74-0.367
		c-0.591-0.165-1.092,0.039-1.453,0.586c-0.047,0.066-0.08,0.128-0.121,0.193c-0.341-0.138-0.639-0.264-0.814-0.268
		c-0.646-0.08-1.015,0.281-1.223,0.729c-0.054,0.105-0.093,0.209-0.135,0.313c-0.208-0.032-0.415-0.07-0.609-0.107
		c-0.3-0.059-0.56-0.107-0.737-0.107H9.493C8.637,1.419,8.392,2.175,8.311,2.423c-0.025,0.078-0.036,0.15-0.055,0.227
		C7.894,2.636,7.578,2.619,7.4,2.653C6.752,2.771,6.561,3.29,6.485,3.745c-0.02,0.116-0.024,0.229-0.031,0.34
		c-0.19,0.032-0.384,0.06-0.566,0.082c-0.365,0.045-0.654,0.08-0.811,0.164C4.285,4.663,4.253,5.354,4.311,5.917
		C3.959,6.015,3.653,6.098,3.514,6.2c-0.708,0.432-0.591,1.099-0.437,1.65C3.003,7.89,2.931,7.932,2.856,7.97L2.748,8.026
		C2.652,8.079,2.559,8.128,2.469,8.175c-0.264,0.139-0.492,0.258-0.61,0.362c-0.68,0.544-0.397,1.294-0.304,1.542
		c0.029,0.075,0.063,0.139,0.095,0.209c-0.289,0.213-0.551,0.396-0.663,0.529c-0.451,0.488-0.283,1.014-0.055,1.424
		c0.059,0.101,0.12,0.188,0.181,0.277c-0.156,0.178-0.318,0.348-0.464,0.498c-0.207,0.217-0.387,0.402-0.487,0.555
		c-0.39,0.754,0.002,1.319,0.389,1.729c-0.203,0.289-0.387,0.541-0.464,0.705c-0.264,0.773,0.225,1.23,0.677,1.572
		c-0.077,0.177-0.161,0.354-0.242,0.518c-0.164,0.334-0.294,0.598-0.308,0.775c-0.156,0.85,0.411,1.254,0.917,1.513
		c-0.109,0.345-0.208,0.646-0.196,0.817c-0.026,0.827,0.592,1.094,1.137,1.266c-0.008,0.092-0.013,0.185-0.022,0.276L2.037,22.84
		c-0.009,0.105-0.019,0.209-0.028,0.308c-0.028,0.299-0.054,0.558-0.031,0.715c0.084,0.861,0.865,1.04,1.125,1.099
		c0.083,0.018,0.157,0.024,0.236,0.036c0.021,0.356,0.031,0.675,0.081,0.842c0.162,0.645,0.694,0.789,1.162,0.824
		c0.112,0.006,0.215,0.002,0.32,0.001c0.057,0.211,0.104,0.424,0.146,0.614c0.072,0.332,0.13,0.595,0.212,0.756
		c0.28,0.519,0.775,0.738,1.414,0.673c0.09-0.013,0.168-0.033,0.253-0.052c0.129,0.336,0.237,0.629,0.34,0.773
		c0.389,0.516,0.912,0.527,1.363,0.41c0.109-0.033,0.208-0.074,0.31-0.113c0.069,0.107,0.142,0.218,0.198,0.315
		c0.241,0.391,0.438,0.701,0.588,0.846c0.235,0.23,0.503,0.357,0.808,0.378c0.233-0.003,0.479-0.069,0.751-0.204
		c0.076-0.037,0.139-0.078,0.209-0.118c0.236,0.277,0.446,0.514,0.589,0.615c0.263,0.189,0.522,0.25,0.761,0.23
		c0.242-0.039,0.464-0.154,0.662-0.293c0.09-0.063,0.167-0.128,0.247-0.194c0.174,0.131,0.342,0.266,0.491,0.388
		c0.251,0.206,0.468,0.383,0.625,0.46c0.179,0.095,0.359,0.143,0.539,0.143c0.431,0,0.773-0.275,0.994-0.483
		c0.064-0.063,0.114-0.125,0.172-0.188c0.309,0.183,0.578,0.348,0.75,0.401c0.627,0.221,1.039-0.16,1.324-0.523
		c0.066-0.088,0.119-0.175,0.175-0.262c0.208,0.068,0.412,0.144,0.594,0.213c0.314,0.118,0.563,0.212,0.743,0.233
		c0.589,0.043,1.031-0.229,1.337-0.817c0.039-0.083,0.064-0.161,0.096-0.242c0.354,0.075,0.664,0.146,0.843,0.141
		c0.645-0.045,0.939-0.479,1.089-0.918c0.033-0.112,0.053-0.219,0.075-0.327c0.119,0.001,0.238,0.004,0.359,0.011
		c0.171,0.004,0.334,0.007,0.48,0.007c0.267,0,0.436-0.012,0.546-0.036c0.591-0.116,0.928-0.523,1.001-1.208
		c0.011-0.085,0.012-0.16,0.016-0.242c0.365-0.048,0.682-0.093,0.846-0.157c0.621-0.223,0.748-0.738,0.727-1.223
		c-0.003-0.108-0.016-0.208-0.026-0.311c0.113-0.042,0.228-0.089,0.337-0.125c0.104-0.033,0.206-0.064,0.304-0.094
		c0.302-0.092,0.54-0.164,0.688-0.251c0.716-0.479,0.629-1.175,0.48-1.722c0.328-0.158,0.622-0.291,0.758-0.4
		c0.605-0.553,0.393-1.187,0.155-1.703c0.151-0.118,0.307-0.233,0.455-0.34c0.296-0.211,0.529-0.378,0.624-0.523
		c0.548-0.671,0.236-1.299-0.088-1.77c0.267-0.259,0.502-0.48,0.575-0.641c0.421-0.712,0.002-1.241-0.397-1.651
		c0.066-0.1,0.13-0.197,0.201-0.298C31.699,16.749,31.759,16.66,31.815,16.576z M1.201,20.139c-0.458-0.239-0.865-0.558-0.74-1.236
		c0.011-0.143,0.144-0.412,0.284-0.697c0.074-0.15,0.149-0.313,0.222-0.476c0.097,0.07,0.188,0.138,0.258,0.201
		c0.05,0.404,0.105,0.809,0.188,1.203C1.396,19.46,1.301,19.81,1.201,20.139z M1.234,14.165c-0.138,0.315-0.341,0.632-0.541,0.923
		c-0.337-0.366-0.617-0.81-0.316-1.39c0.081-0.122,0.253-0.301,0.452-0.508c0.132-0.138,0.279-0.295,0.423-0.455
		c0.063,0.092,0.126,0.183,0.168,0.262C1.34,13.382,1.285,13.772,1.234,14.165z M28.47,6.19c0.057,0.13,0.069,0.424,0.082,0.734
		c0.007,0.158,0.021,0.338,0.035,0.515c-0.121-0.017-0.235-0.032-0.329-0.056c-0.223-0.311-0.449-0.619-0.694-0.912
		c-0.158-0.298-0.253-0.666-0.327-1.018C27.728,5.442,28.261,5.515,28.47,6.19z M23.34,2.353c0.599-0.16,0.97-0.055,1.238,0.332
		c0.087,0.123,0.188,0.37,0.306,0.656c0.065,0.158,0.143,0.337,0.222,0.513c-0.119,0.024-0.232,0.045-0.326,0.052
		c-0.313-0.225-0.633-0.432-0.962-0.631c-0.236-0.249-0.446-0.564-0.634-0.867C23.236,2.39,23.285,2.366,23.34,2.353z M18.486,0.729
		c0.462-0.313,0.875-0.34,1.284-0.073c0.122,0.076,0.308,0.294,0.504,0.523c0.107,0.126,0.231,0.266,0.357,0.402
		c-0.094,0.055-0.188,0.111-0.27,0.148c-0.386-0.115-0.776-0.219-1.175-0.303c-0.29-0.146-0.575-0.367-0.835-0.586
		C18.397,0.804,18.438,0.764,18.486,0.729z M13.375,0.783c0.233-0.353,0.524-0.532,0.862-0.532c0.101,0,0.207,0.016,0.329,0.049
		c0.142,0.025,0.397,0.178,0.668,0.338c0.136,0.081,0.294,0.168,0.451,0.254c-0.073,0.087-0.146,0.176-0.212,0.238
		c-0.396,0.016-0.791,0.039-1.179,0.086c-0.331-0.038-0.681-0.162-1.009-0.291C13.316,0.878,13.341,0.831,13.375,0.783z
		 M8.549,2.501c0.188-0.579,0.481-0.844,0.98-0.857c0.154,0,0.403,0.047,0.69,0.103c0.169,0.032,0.361,0.066,0.555,0.097
		c-0.042,0.106-0.083,0.213-0.128,0.291c-0.361,0.143-0.713,0.299-1.061,0.467C9.247,2.663,8.867,2.667,8.511,2.657
		C8.525,2.604,8.531,2.553,8.549,2.501z M5.184,4.557C5.31,4.49,5.605,4.454,5.918,4.415c0.158-0.02,0.338-0.047,0.515-0.076
		C6.428,4.452,6.424,4.566,6.41,4.657C6.105,4.915,5.81,5.179,5.527,5.46C5.242,5.63,4.891,5.747,4.556,5.847
		C4.506,5.335,4.553,4.821,5.184,4.557z M1.854,10.136c-0.022-0.051-0.046-0.094-0.066-0.146c-0.215-0.572-0.146-0.959,0.23-1.26
		c0.101-0.089,0.316-0.202,0.566-0.334c0.091-0.047,0.186-0.097,0.28-0.148l0.106-0.055c0.057-0.029,0.117-0.064,0.175-0.096
		c0.035,0.118,0.066,0.23,0.081,0.326C3.029,8.755,2.844,9.093,2.671,9.44C2.452,9.704,2.142,9.927,1.854,10.136z M3.156,24.717
		c-0.598-0.137-0.885-0.407-0.931-0.883C2.207,23.7,2.23,23.455,2.258,23.171c0.01-0.1,0.02-0.203,0.028-0.308l0.01-0.096
		c0.008-0.071,0.011-0.151,0.018-0.226c0.12,0.036,0.234,0.071,0.323,0.111c0.17,0.348,0.354,0.688,0.549,1.02
		c0.104,0.329,0.121,0.713,0.139,1.069C3.268,24.733,3.214,24.729,3.156,24.717z M6.645,28.459
		c-0.065,0.007-0.131,0.011-0.197,0.011c-0.448,0-0.765-0.182-0.965-0.552c-0.066-0.13-0.123-0.392-0.189-0.693
		c-0.038-0.173-0.085-0.367-0.134-0.56c0.117-0.003,0.232-0.007,0.327,0.002c0.277,0.275,0.57,0.535,0.865,0.787
		c0.196,0.282,0.351,0.633,0.483,0.966C6.771,28.433,6.71,28.449,6.645,28.459z M11.175,30.836
		c-0.237,0.118-0.448,0.177-0.634,0.179c-0.233-0.016-0.448-0.119-0.64-0.307c-0.13-0.125-0.326-0.436-0.548-0.795
		c-0.049-0.084-0.115-0.182-0.174-0.274c0.116-0.046,0.229-0.091,0.323-0.114c0.351,0.172,0.706,0.334,1.069,0.479
		c0.279,0.192,0.528,0.469,0.756,0.746C11.276,30.778,11.229,30.81,11.175,30.836z M16.229,31.627
		c-0.188,0.178-0.479,0.414-0.821,0.414c-0.138,0-0.28-0.038-0.426-0.115c-0.134-0.065-0.341-0.234-0.58-0.431
		c-0.136-0.11-0.291-0.232-0.447-0.352c0.094-0.078,0.185-0.154,0.265-0.205c0.386,0.047,0.776,0.074,1.171,0.092
		c0.325,0.108,0.654,0.287,0.96,0.463C16.31,31.538,16.274,31.584,16.229,31.627z M21.272,30.754
		c-0.238,0.459-0.562,0.683-0.988,0.683c-0.033,0-0.068-0.002-0.1-0.004c-0.145-0.017-0.393-0.11-0.679-0.219
		c-0.165-0.063-0.353-0.129-0.54-0.192c0.062-0.1,0.121-0.198,0.179-0.272c0.393-0.082,0.777-0.186,1.158-0.299
		c0.335-0.006,0.699,0.056,1.041,0.124C21.319,30.635,21.3,30.695,21.272,30.754z M25.738,28.262
		c-0.062,0.573-0.324,0.898-0.805,0.992c-0.123,0.028-0.341,0.031-0.494,0.031c-0.146,0-0.307-0.003-0.472-0.007
		c-0.102-0.006-0.206-0.008-0.31-0.009c0.024-0.12,0.047-0.239,0.079-0.331c0.324-0.193,0.644-0.395,0.952-0.611
		c0.317-0.14,0.694-0.203,1.061-0.243C25.746,28.144,25.746,28.2,25.738,28.262z M28.744,25.677
		c-0.116,0.067-0.354,0.14-0.628,0.224c-0.099,0.029-0.202,0.062-0.309,0.095c-0.092,0.03-0.187,0.07-0.28,0.104
		c-0.015-0.123-0.028-0.243-0.025-0.341c0.244-0.287,0.471-0.588,0.693-0.895c0.136-0.113,0.281-0.221,0.449-0.313
		c0.155-0.1,0.32-0.186,0.484-0.269C29.256,24.771,29.3,25.304,28.744,25.677z M16.082,29.413c-7.351,0-13.331-5.98-13.331-13.33
		c0-7.352,5.98-13.332,13.331-13.332s13.33,5.98,13.33,13.332C29.412,23.433,23.433,29.413,16.082,29.413z M30.085,9.651
		c0.474,0.16,0.935,0.416,0.941,1.079c-0.005,0.134-0.077,0.384-0.153,0.649c-0.028,0.098-0.058,0.201-0.092,0.33
		c-0.021,0.084-0.039,0.176-0.059,0.264c-0.104-0.053-0.208-0.104-0.284-0.156c-0.11-0.369-0.241-0.729-0.377-1.084
		C30.026,10.384,30.055,10.007,30.085,9.651z M31.147,21.053c-0.077,0.117-0.315,0.287-0.568,0.468
		c-0.13,0.093-0.274,0.203-0.416,0.313c-0.054-0.112-0.104-0.219-0.136-0.312c0.143-0.363,0.279-0.729,0.393-1.104
		c0.162-0.288,0.413-0.562,0.66-0.809C31.372,20.039,31.585,20.516,31.147,21.053z M31.434,16.7
		c-0.061,0.085-0.114,0.172-0.173,0.257c-0.087-0.088-0.168-0.171-0.228-0.247c0.009-0.209,0.032-0.416,0.032-0.627
		c0-0.189-0.021-0.371-0.028-0.559c0.066-0.325,0.222-0.654,0.378-0.966c0.046,0.034,0.091,0.063,0.136,0.102
		c0.454,0.379,0.579,0.765,0.392,1.22c-0.045,0.123-0.18,0.324-0.335,0.557C31.55,16.522,31.49,16.612,31.434,16.7z"/>
	<polygon points="8.72,14.8 7.479,14.8 7.479,13.394 6.805,13.394 6.805,17.058 7.479,17.058 7.479,15.477 8.72,15.477 8.72,17.058 
		9.395,17.058 9.395,13.394 8.72,13.394 	"/>
	<path d="M11.084,15.441c-0.067,0.021-0.144,0.035-0.229,0.046c-0.086,0.01-0.177,0.024-0.271,0.041
		c-0.095,0.018-0.188,0.04-0.277,0.069s-0.171,0.072-0.242,0.131c-0.072,0.059-0.129,0.136-0.172,0.233s-0.064,0.222-0.064,0.372
		c0,0.137,0.019,0.255,0.058,0.354c0.039,0.099,0.093,0.181,0.161,0.246c0.068,0.064,0.148,0.113,0.24,0.146
		c0.092,0.032,0.19,0.049,0.297,0.049c0.137,0,0.271-0.025,0.403-0.075c0.132-0.049,0.246-0.134,0.344-0.254
		c0.003,0.045,0.008,0.088,0.015,0.131s0.017,0.085,0.028,0.126h0.618c-0.029-0.055-0.049-0.137-0.061-0.246
		s-0.017-0.225-0.017-0.344v-1.381c0-0.157-0.03-0.285-0.091-0.385c-0.06-0.1-0.137-0.176-0.231-0.231
		c-0.095-0.055-0.199-0.091-0.313-0.11c-0.114-0.019-0.228-0.027-0.339-0.027c-0.127,0-0.25,0.015-0.37,0.043
		c-0.12,0.029-0.229,0.078-0.326,0.146c-0.097,0.068-0.178,0.159-0.24,0.272c-0.063,0.112-0.099,0.255-0.107,0.426h0.609
		c0.012-0.144,0.053-0.247,0.123-0.309s0.164-0.092,0.281-0.092c0.054,0,0.104,0.004,0.152,0.013
		c0.047,0.009,0.089,0.025,0.124,0.052c0.036,0.025,0.064,0.062,0.086,0.107s0.032,0.108,0.032,0.188c0,0.075-0.02,0.132-0.06,0.172
		C11.205,15.391,11.151,15.421,11.084,15.441z M11.305,16.031c0,0.041-0.003,0.096-0.011,0.164
		c-0.007,0.068-0.026,0.136-0.058,0.203c-0.031,0.066-0.08,0.124-0.146,0.172c-0.065,0.048-0.158,0.071-0.278,0.071
		c-0.049,0-0.097-0.005-0.142-0.015c-0.046-0.011-0.086-0.028-0.121-0.055c-0.034-0.025-0.062-0.06-0.081-0.103
		c-0.021-0.042-0.03-0.098-0.03-0.166c0-0.065,0.01-0.121,0.03-0.167c0.02-0.047,0.046-0.084,0.079-0.113s0.071-0.052,0.114-0.069
		c0.043-0.017,0.089-0.03,0.137-0.041c0.046-0.01,0.094-0.019,0.145-0.025c0.05-0.007,0.097-0.016,0.142-0.025
		c0.044-0.011,0.086-0.023,0.124-0.039c0.039-0.016,0.071-0.036,0.097-0.064V16.031z"/>
	<rect x="12.404" y="14.404" width="0.609" height="2.653"/>
	<rect x="12.404" y="13.394" width="0.609" height="0.601"/>
	<path d="M13.494,14.404v2.653h0.61v-1.195c0-0.116,0.01-0.227,0.03-0.331c0.02-0.104,0.054-0.195,0.101-0.272
		s0.109-0.138,0.187-0.182c0.077-0.045,0.172-0.067,0.283-0.067c0.037,0,0.076,0.003,0.116,0.008s0.074,0.012,0.104,0.019v-0.678
		c-0.043-0.018-0.088-0.025-0.134-0.025c-0.074,0-0.147,0.014-0.221,0.041s-0.142,0.065-0.204,0.115s-0.119,0.109-0.167,0.18
		c-0.049,0.07-0.088,0.146-0.116,0.229h-0.009v-0.493H13.494z"/>
	<path d="M17.563,16.567c-0.039,0.025-0.082,0.045-0.129,0.057s-0.093,0.018-0.136,0.018c-0.06,0-0.118-0.008-0.174-0.025
		c-0.056-0.017-0.104-0.044-0.147-0.079c-0.043-0.036-0.078-0.082-0.105-0.139s-0.041-0.124-0.041-0.203h-0.579
		c0.005,0.175,0.039,0.322,0.101,0.441c0.062,0.12,0.14,0.217,0.236,0.29c0.096,0.073,0.205,0.126,0.328,0.156
		c0.123,0.031,0.249,0.047,0.378,0.047c0.126,0,0.25-0.016,0.371-0.047c0.122-0.03,0.23-0.082,0.324-0.153
		c0.095-0.072,0.171-0.167,0.23-0.285c0.059-0.118,0.088-0.265,0.088-0.438c0-0.123-0.021-0.227-0.061-0.311
		s-0.093-0.154-0.159-0.211c-0.065-0.057-0.141-0.102-0.225-0.136c-0.085-0.034-0.172-0.063-0.26-0.087
		c-0.086-0.024-0.171-0.047-0.254-0.067s-0.156-0.043-0.221-0.069c-0.064-0.025-0.117-0.059-0.157-0.1s-0.06-0.094-0.06-0.159
		c0-0.055,0.011-0.099,0.034-0.131c0.022-0.032,0.051-0.058,0.084-0.074c0.032-0.018,0.069-0.028,0.109-0.033
		c0.04-0.006,0.077-0.008,0.111-0.008c0.108,0,0.203,0.024,0.283,0.074s0.125,0.145,0.134,0.285h0.579
		c-0.012-0.164-0.047-0.301-0.105-0.408s-0.132-0.194-0.221-0.259c-0.089-0.065-0.189-0.111-0.303-0.139s-0.229-0.041-0.35-0.041
		c-0.121,0-0.238,0.013-0.353,0.038s-0.218,0.07-0.31,0.134c-0.091,0.063-0.165,0.15-0.221,0.262s-0.084,0.25-0.084,0.418
		c0,0.116,0.021,0.215,0.061,0.295s0.093,0.147,0.159,0.2c0.065,0.053,0.141,0.096,0.225,0.128c0.085,0.033,0.171,0.062,0.26,0.085
		c0.109,0.027,0.206,0.054,0.292,0.08c0.086,0.025,0.158,0.054,0.217,0.084c0.059,0.031,0.104,0.066,0.136,0.105
		s0.047,0.087,0.047,0.142c0,0.064-0.013,0.118-0.038,0.161C17.634,16.508,17.602,16.542,17.563,16.567z"/>
	<path d="M18.828,13.609v0.795h-0.37v0.487h0.37v1.565c0,0.134,0.019,0.241,0.056,0.323s0.088,0.146,0.152,0.192
		c0.064,0.047,0.139,0.077,0.223,0.093c0.085,0.016,0.174,0.023,0.269,0.023c0.061,0,0.122-0.002,0.185-0.006
		c0.063-0.003,0.12-0.01,0.172-0.021v-0.569c-0.057,0.014-0.12,0.021-0.188,0.021c-0.104,0-0.172-0.021-0.206-0.062
		c-0.035-0.041-0.052-0.123-0.052-0.246v-1.314h0.446v-0.487h-0.446v-0.795H18.828z"/>
	<path d="M21.567,14.404l-0.485,1.816h-0.009l-0.502-1.816h-0.652l0.781,2.489c0.017,0.051,0.025,0.105,0.025,0.164
		c0,0.055-0.009,0.106-0.025,0.154c-0.018,0.048-0.044,0.088-0.079,0.12c-0.036,0.032-0.08,0.053-0.132,0.06
		c-0.06,0.003-0.12,0.001-0.18-0.006c-0.061-0.007-0.119-0.014-0.177-0.021v0.601c0.063,0.007,0.126,0.013,0.188,0.019
		c0.062,0.005,0.123,0.007,0.187,0.007c0.209,0,0.372-0.047,0.489-0.141s0.209-0.247,0.275-0.459l0.927-2.987H21.567z"/>
	<rect x="22.422" y="13.394" width="0.609" height="3.664"/>
	<path d="M23.718,14.735c-0.1,0.125-0.177,0.273-0.231,0.444s-0.081,0.355-0.081,0.554c0,0.205,0.026,0.394,0.079,0.564
		s0.128,0.318,0.226,0.441c0.097,0.123,0.216,0.219,0.356,0.287c0.14,0.069,0.297,0.104,0.472,0.104c0.252,0,0.467-0.07,0.645-0.211
		c0.178-0.14,0.309-0.367,0.395-0.683h-0.536c-0.021,0.082-0.075,0.16-0.163,0.233c-0.089,0.074-0.195,0.11-0.318,0.11
		c-0.172,0-0.303-0.054-0.395-0.161c-0.092-0.108-0.142-0.278-0.15-0.511h1.602c0.012-0.205-0.003-0.402-0.043-0.59
		c-0.04-0.188-0.105-0.356-0.195-0.503c-0.09-0.147-0.205-0.265-0.346-0.352c-0.141-0.088-0.305-0.131-0.494-0.131
		c-0.169,0-0.322,0.035-0.461,0.107C23.938,14.513,23.818,14.61,23.718,14.735z M24.278,14.94c0.064-0.039,0.146-0.059,0.243-0.059
		c0.148,0,0.26,0.048,0.332,0.144c0.073,0.096,0.124,0.236,0.153,0.421h-0.992c0.003-0.052,0.012-0.109,0.027-0.175
		c0.017-0.064,0.043-0.126,0.082-0.185C24.163,15.029,24.214,14.98,24.278,14.94z"/>
	<g>
		<polygon points="21.585,19.268 21.819,18.728 16.33,21.263 17.015,21.712 		"/>
		<path d="M15.146,21.971l-3.08,1.48l-0.009-0.024c-0.018-0.021-0.032-0.042-0.051-0.063c-0.391-0.402-1.072-0.458-1.616-0.128
			c-0.306,0.182-0.53,0.456-0.636,0.771c-0.109,0.323-0.081,0.654,0.084,0.929c0.041,0.067,0.09,0.13,0.144,0.188
			c0.298,0.31,0.766,0.411,1.214,0.295c0.194-0.042,0.395-0.119,0.537-0.257c0.235-0.179,0.412-0.416,0.501-0.682
			c0.057-0.171,0.072-0.341,0.052-0.506l-0.018-0.047l3.472-1.428L15.146,21.971z M11.893,24.368
			c-0.078,0.234-0.25,0.439-0.479,0.577c-0.404,0.243-0.897,0.213-1.172-0.069c-0.037-0.038-0.067-0.079-0.095-0.123
			c-0.108-0.184-0.127-0.407-0.054-0.631c0.081-0.234,0.25-0.44,0.479-0.579c0.404-0.242,0.899-0.213,1.173,0.07
			c0.036,0.038,0.069,0.08,0.094,0.124C11.949,23.92,11.968,24.145,11.893,24.368z"/>
		<path d="M22.874,24.145c-0.069-0.039-0.986,0.009-1.216-0.384c-0.057-0.154-0.143-0.303-0.253-0.433
			c-0.408-0.492-1.07-0.666-1.567-0.413c-0.013,0.006-0.027,0.014-0.041,0.022l-2.955-1.111l-5.027-3.168l0.135,0.492l4.5,3.666
			l0.588-0.28l2.314,0.891c-0.063,0.14-0.097,0.297-0.102,0.467c-0.003,0.33,0.121,0.665,0.346,0.938
			c0.41,0.489,1.067,0.661,1.568,0.41c0.071-0.034,0.139-0.079,0.199-0.131c0.136-0.112,0.238-0.256,0.304-0.422
			c0.313-0.358,0.897-0.205,1.029-0.22C22.829,24.457,22.945,24.188,22.874,24.145z M16.596,22.371
			c-0.095,0.043-0.209,0.007-0.254-0.085c-0.044-0.092-0.01-0.205,0.083-0.253c0.094-0.046,0.206-0.009,0.253,0.084
			C16.726,22.208,16.688,22.321,16.596,22.371z M21.131,24.838c-0.038,0.032-0.08,0.062-0.128,0.085
			c-0.351,0.178-0.829,0.042-1.13-0.323c-0.173-0.204-0.266-0.455-0.262-0.703c0.003-0.235,0.095-0.44,0.256-0.576
			c0.04-0.032,0.085-0.062,0.132-0.084c0.354-0.18,0.83-0.044,1.129,0.317c0.173,0.208,0.267,0.458,0.261,0.704
			C21.387,24.495,21.295,24.702,21.131,24.838z"/>
	</g>
	<polygon points="14.152,8.67 14.624,8.67 14.624,6.924 15.266,6.924 15.266,6.528 13.511,6.528 13.511,6.924 14.152,6.924 	"/>
	<polygon points="15.982,7.746 16.85,7.746 16.85,8.67 17.32,8.67 17.32,6.528 16.85,6.528 16.85,7.35 15.982,7.35 15.982,6.528 
		15.512,6.528 15.512,8.67 15.982,8.67 	"/>
	<polygon points="19.36,8.273 18.205,8.273 18.205,7.749 19.243,7.749 19.243,7.383 18.205,7.383 18.205,6.924 19.336,6.924 
		19.336,6.528 17.734,6.528 17.734,8.67 19.36,8.67 	"/>
	<polygon points="13.695,10.873 12.54,10.873 12.54,10.349 13.578,10.349 13.578,9.982 12.54,9.982 12.54,9.523 13.671,9.523 
		13.671,9.128 12.069,9.128 12.069,11.27 13.695,11.27 	"/>
	<polygon points="14.014,9.128 14.014,11.27 15.528,11.27 15.528,10.873 14.484,10.873 14.484,9.128 	"/>
	<rect x="15.792" y="9.128" width="0.471" height="2.142"/>
	<polygon points="17.623,11.27 17.623,9.523 18.265,9.523 18.265,9.128 16.51,9.128 16.51,9.523 17.151,9.523 17.151,11.27 	"/>
	<polygon points="20.112,9.523 20.112,9.128 18.511,9.128 18.511,11.27 20.137,11.27 20.137,10.873 18.981,10.873 18.981,10.349 
		20.02,10.349 20.02,9.982 18.981,9.982 18.981,9.523 	"/>
	<rect x="8.504" y="11.646" width="15.125" height="0.318"/>
</g>
<g>
</g>
<g>
</g>
<g>
</g>
<g>
</g>
<g>
</g>
<g>
</g>
<g>
</g>
<g>
</g>
<g>
</g>
<g>
</g>
<g>
</g>
<g>
</g>
<g>
</g>
<g>
</g>
<g>
</g>
</svg>
