<?xml version="1.0" encoding="utf-8"?>
<!-- Generator: Adobe Illustrator 16.0.4, SVG Export Plug-In . SVG Version: 6.00 Build 0)  -->
<!DOCTYPE svg PUBLIC "-//W3C//DTD SVG 1.1//EN" "http://www.w3.org/Graphics/SVG/1.1/DTD/svg11.dtd">
<svg version="1.1" id="Layer_1" xmlns="http://www.w3.org/2000/svg" xmlns:xlink="http://www.w3.org/1999/xlink" x="0px" y="0px"
	 width="23.863px" height="29.047px" viewBox="0 0 23.863 29.047" enable-background="new 0 0 23.863 29.047" xml:space="preserve">
<path d="M10.372,27.741h8.184v1.306h-8.184V27.741z M17.765,6.051h0.79v21.26h-8.184V6.05h0.977V4.301h0.484V3.73h1.547V1.385
	l2.574,0.002v0.461h0.209V3.16h-0.209v0.57h1.361v0.572h0.449h0.001V6.051z M12.417,7.544h-1.036v18.483h1.036V7.544z M0,9.053
	h7.716v19.994H0V9.053z M0.583,15.895h6.551v-6.26H0.583V15.895z M6.309,4.588H1.456V8.18h4.854V4.588z M23.737,0.295l-0.082-0.289
	l-7.16,2.032l0.082,0.289L23.737,0.295z M16.704,2.762l-0.082,0.289l7.16,2.032l0.082-0.289L16.704,2.762z M16.669,2.723
	l6.726-0.068l-0.003-0.301l-6.726,0.069L16.669,2.723z"/>
</svg>
