<?xml version="1.0" encoding="iso-8859-1"?>
<!-- Generator: Adobe Illustrator 16.0.0, SVG Export Plug-In . SVG Version: 6.00 Build 0)  -->
<!DOCTYPE svg PUBLIC "-//W3C//DTD SVG 1.1//EN" "http://www.w3.org/Graphics/SVG/1.1/DTD/svg11.dtd">
<svg version="1.1" id="Layer_1" xmlns="http://www.w3.org/2000/svg" xmlns:xlink="http://www.w3.org/1999/xlink" x="0px" y="0px"
	 width="31.38px" height="30.29px" viewBox="0 0 31.38 30.29" style="enable-background:new 0 0 31.38 30.29;" xml:space="preserve"
	>
<g>
	<path d="M10.178,6.47c-0.041,0.116-0.04,0.401-0.009,0.681c0,0.041-0.012,0.078-0.012,0.119c0,0.187,0.008,0.371,0.025,0.553
		c0.284,3.002,2.775,5.267,5.794,5.267c3.209,0,5.82-2.611,5.82-5.82c0-0.161-0.035-0.313-0.048-0.47
		c0.024-0.188,0.045-0.388,0.061-0.621c0.207-0.367,0.112-2.289-0.544-2.326c0.038-1.061-0.394-1.069-0.544-1.351
		c-0.149-0.282-0.272-1.07-0.563-1.107c0.14,0.571,0.084,0.638,0,0.563c-0.085-0.076-0.77-1.408-1.201-1.427
		c0.432,0.563,0.675,1.079,0.601,1.032c-0.075-0.047-2.355-1.501-3.49-1.557c-1.135-0.057-2.551,0.881-2.551,0.881
		s-0.066-0.469,0.356-0.881c-0.309-0.094-0.749,0.762-0.826,0.9c-0.037,0.065-0.629-0.035-1.191,0.225
		c-0.628,0.292-1.241,0.963-1.454,1.389c-0.403,0.807-0.309,1.867-0.301,2.025C10.112,4.706,9.85,5.054,9.897,5.42
		C9.943,5.786,10.263,6.226,10.178,6.47z M11.267,8.018c0.157-0.458,0.442-0.646,0.431-0.938c-0.019-0.525-0.352-0.427-0.355-0.957
		c-0.002-0.289,0.052-0.607,0.137-0.905c0.188-0.411,0.438-0.783,0.726-1.125c0.772-0.236,3.095,0.525,3.602,0.341
		c0.244-0.3,2.373-0.478,3.452-0.253c0.444,0.093,1.017,0.736,1.266,1.801c0.179,0.763,0.251,1.665,0.28,2.375
		c-0.499,2.21-2.469,3.868-4.828,3.868c-2.322,0-4.263-1.578-4.797-3.765C11.199,8.297,11.224,8.142,11.267,8.018z"/>
	<path d="M27.044,16.584l-1.026,1.33l-3.925-3.041l0.002-0.024l-0.052-0.015l-0.056-0.043l-0.017,0.022l-2.411-0.695
		c0,1.677-1.359,3.036-3.036,3.036c-1.676,0-3.035-1.358-3.035-3.036l-3.316,0.729l-0.004-0.004l-4.031,3.125l-1.165-1.503
		C5.032,10.811,5.058,5.082,4.958,4.5c-0.2-1.163-1.156-1.352-1.156-1.352l0.017,0.511L3.18,3.715l0.012,13.574l-0.581,0.53
		l-0.039-0.359l0.455-0.03L1.694,3.762l-0.64,0.005L1.02,3.257c0,0-0.932,0.282-1.017,1.458C-0.085,5.893,2.34,27.428,2.456,28.06
		c0.05,0.271,0.297,0.39,0.562,0.439l0.057,1.791l1.177-0.037l-0.056-1.767c0.293-0.067,0.58-0.209,0.605-0.515
		c0.019-0.231,0.07-3.202,0.119-6.955l0.717,0.925l2.238-1.733l-0.003-0.004l2.496-1.933l0.476,9.88h10.471l0.575-9.855l2.396,1.856
		l-0.004,0.004l2.238,1.734l1.559-2.011c-0.052,0.648-0.101,1.341-0.101,1.892c0,0.909,0.147,7.541,1.044,7.344
		c0.897,0.197,1.043-6.435,1.043-7.344c0-1.171-0.221-2.99-0.221-3.635c0-0.81,1.155-1.302,1.155-1.302v-2.31h-3.955V16.584z
		 M2.639,18.071l0.991,1.279l-0.07,7.237L2.639,18.071z"/>
	<rect x="26.639" y="13.947" width="4.716" height="0.405"/>
	<rect x="26.639" y="13.382" width="4.716" height="0.406"/>
	<rect x="26.639" y="12.756" width="4.716" height="0.405"/>
	<rect x="26.639" y="12.191" width="4.716" height="0.406"/>
	<rect x="26.639" y="11.528" width="4.716" height="0.405"/>
	<rect x="26.639" y="10.963" width="4.716" height="0.406"/>
	<rect x="26.639" y="10.336" width="4.716" height="0.405"/>
	<rect x="26.639" y="9.771" width="4.716" height="0.405"/>
	<rect x="26.665" y="9.194" width="4.715" height="0.405"/>
	<rect x="26.665" y="8.629" width="4.715" height="0.405"/>
	<rect x="26.665" y="7.965" width="4.715" height="0.406"/>
	<rect x="26.665" y="7.401" width="4.715" height="0.405"/>
	<rect x="26.665" y="6.774" width="4.715" height="0.405"/>
	<rect x="26.665" y="6.21" width="4.715" height="0.404"/>
	<rect x="26.639" y="5.583" width="4.716" height="0.405"/>
	<path d="M31,4.674c0,0-0.517-0.356-2.003-0.356s-1.952,0.356-1.952,0.356v0.787H31V4.674z"/>
</g>
<g>
</g>
<g>
</g>
<g>
</g>
<g>
</g>
<g>
</g>
<g>
</g>
<g>
</g>
<g>
</g>
<g>
</g>
<g>
</g>
<g>
</g>
<g>
</g>
<g>
</g>
<g>
</g>
<g>
</g>
</svg>
