<?xml version="1.0" encoding="iso-8859-1"?>
<!-- Generator: Adobe Illustrator 16.0.0, SVG Export Plug-In . SVG Version: 6.00 Build 0)  -->
<!DOCTYPE svg PUBLIC "-//W3C//DTD SVG 1.1//EN" "http://www.w3.org/Graphics/SVG/1.1/DTD/svg11.dtd">
<svg version="1.1" id="Layer_1" xmlns="http://www.w3.org/2000/svg" xmlns:xlink="http://www.w3.org/1999/xlink" x="0px" y="0px"
	 width="31.233px" height="31.233px" viewBox="0 0 31.233 31.233" style="enable-background:new 0 0 31.233 31.233;"
	 xml:space="preserve">
<g>
	<polygon points="14.367,9.955 14.354,9.955 13.715,11.755 14.986,11.755 	"/>
	<path d="M22.025,10.8c0.126-0.109,0.188-0.288,0.188-0.536c0-0.237-0.063-0.411-0.188-0.519s-0.311-0.161-0.554-0.161H20.29v1.381
		h1.182C21.715,10.965,21.899,10.91,22.025,10.8z"/>
	<path d="M15.617,0C7.006,0,0,7.006,0,15.617c0,8.61,7.006,15.616,15.617,15.616c8.61,0,15.616-7.006,15.616-15.616
		C31.233,7.006,24.228,0,15.617,0z M19.211,8.745h2.646c0.22,0,0.418,0.036,0.595,0.107c0.176,0.07,0.327,0.168,0.453,0.292
		c0.126,0.123,0.223,0.268,0.289,0.433s0.1,0.339,0.1,0.521c0,0.289-0.061,0.539-0.183,0.749c-0.121,0.211-0.319,0.371-0.594,0.481
		v0.014c0.133,0.037,0.242,0.093,0.329,0.168c0.087,0.076,0.158,0.166,0.214,0.271c0.055,0.105,0.095,0.219,0.12,0.341
		c0.024,0.121,0.042,0.243,0.051,0.367c0.005,0.078,0.01,0.17,0.014,0.274c0.005,0.105,0.013,0.212,0.024,0.32
		c0.012,0.107,0.03,0.212,0.055,0.313c0.025,0.101,0.063,0.186,0.113,0.254h-1.078c-0.032-0.078-0.057-0.164-0.072-0.258
		c-0.017-0.094-0.03-0.192-0.041-0.295c-0.012-0.104-0.021-0.209-0.027-0.316s-0.018-0.21-0.031-0.306
		c-0.037-0.257-0.114-0.444-0.233-0.563s-0.314-0.179-0.584-0.179H20.29v1.917h-1.079V8.745z M15.608,3.197
		c0.897,0,1.625,0.728,1.625,1.625s-0.728,1.625-1.625,1.625s-1.625-0.728-1.625-1.625S14.711,3.197,15.608,3.197z M18.264,8.745
		v4.906h-1.079V8.745H18.264z M13.817,8.745h1.106l1.835,4.906h-1.12l-0.371-1.093h-1.835l-0.385,1.093h-1.092L13.817,8.745z
		 M7.387,8.745h1.079v1.883h1.985V8.745h1.079v4.906h-1.079v-2.116H8.466v2.116H7.387V8.745z M9.542,21.065
		c-0.087,0.192-0.217,0.358-0.389,0.498s-0.385,0.249-0.639,0.329s-0.549,0.121-0.883,0.121c-0.271,0-0.533-0.035-0.787-0.104
		s-0.478-0.174-0.67-0.316c-0.192-0.142-0.347-0.322-0.464-0.542c-0.116-0.221-0.173-0.481-0.168-0.783h1.044
		c0,0.164,0.03,0.305,0.09,0.419s0.139,0.207,0.236,0.278c0.099,0.07,0.214,0.123,0.344,0.157c0.131,0.035,0.27,0.052,0.416,0.052
		c0.096,0,0.199-0.008,0.31-0.023c0.109-0.017,0.213-0.047,0.309-0.093c0.097-0.046,0.177-0.109,0.24-0.189
		c0.064-0.08,0.097-0.182,0.097-0.306c0-0.133-0.042-0.24-0.127-0.323c-0.085-0.082-0.196-0.152-0.333-0.209
		C8.03,19.974,7.874,19.926,7.7,19.887s-0.351-0.083-0.529-0.134c-0.183-0.046-0.361-0.102-0.535-0.169
		c-0.175-0.065-0.33-0.151-0.468-0.257s-0.248-0.236-0.333-0.392c-0.085-0.156-0.127-0.349-0.127-0.577
		c0-0.252,0.054-0.471,0.161-0.656s0.248-0.341,0.423-0.464c0.174-0.124,0.371-0.216,0.591-0.275s0.439-0.089,0.659-0.089
		c0.257,0,0.503,0.028,0.739,0.086c0.235,0.057,0.445,0.149,0.628,0.278c0.184,0.128,0.329,0.292,0.437,0.491
		s0.162,0.44,0.162,0.725H8.463c-0.009-0.146-0.04-0.268-0.093-0.364c-0.053-0.096-0.122-0.172-0.21-0.227
		c-0.087-0.055-0.188-0.094-0.302-0.117c-0.114-0.022-0.236-0.034-0.364-0.034c-0.087,0-0.174,0.01-0.261,0.027
		c-0.087,0.019-0.166,0.051-0.237,0.097s-0.13,0.104-0.175,0.175c-0.046,0.071-0.069,0.157-0.069,0.258
		c0,0.097,0.019,0.174,0.055,0.233c0.037,0.06,0.109,0.113,0.217,0.162c0.107,0.048,0.257,0.099,0.446,0.15
		c0.19,0.053,0.438,0.118,0.746,0.196c0.06,0.014,0.137,0.033,0.233,0.059c0.096,0.025,0.198,0.06,0.306,0.103
		c0.107,0.044,0.216,0.1,0.323,0.169c0.107,0.068,0.206,0.153,0.295,0.254c0.09,0.101,0.162,0.221,0.217,0.36
		c0.055,0.141,0.082,0.302,0.082,0.484C9.672,20.664,9.629,20.873,9.542,21.065z M13.945,17.897h-1.47v3.999h-1.079v-3.999H9.926
		V16.99h4.02V17.897z M15.921,28.197c-0.897,0-1.625-0.728-1.625-1.625s0.728-1.625,1.625-1.625s1.625,0.728,1.625,1.625
		S16.818,28.197,15.921,28.197z M16.859,20.014v1.883H15.78v-1.91l-1.807-2.996h1.216l1.147,1.938l1.141-1.938h1.202L16.859,20.014z
		 M22.563,21.896h-3.471V16.99h1.079v3.999h2.392V21.896z M23.166,21.896V16.99h3.67v0.907h-2.591v1.052h2.377v0.838h-2.377v1.202
		h2.646v0.907H23.166z"/>
</g>
<g>
</g>
<g>
</g>
<g>
</g>
<g>
</g>
<g>
</g>
<g>
</g>
<g>
</g>
<g>
</g>
<g>
</g>
<g>
</g>
<g>
</g>
<g>
</g>
<g>
</g>
<g>
</g>
<g>
</g>
</svg>
