<?xml version="1.0" encoding="iso-8859-1"?>
<!-- Generator: Adobe Illustrator 16.0.0, SVG Export Plug-In . SVG Version: 6.00 Build 0)  -->
<!DOCTYPE svg PUBLIC "-//W3C//DTD SVG 1.1//EN" "http://www.w3.org/Graphics/SVG/1.1/DTD/svg11.dtd">
<svg version="1.1" id="Layer_1" xmlns="http://www.w3.org/2000/svg" xmlns:xlink="http://www.w3.org/1999/xlink" x="0px" y="0px"
	 width="31.952px" height="32px" viewBox="0 0 31.952 32" style="enable-background:new 0 0 31.952 32;" xml:space="preserve">
<g>
	<path d="M13.865,11.525c1.872-0.081,2.463-0.945,2.638-1.341c0.176,0.396,0.767,1.26,2.638,1.341
		c0.79-0.076,2.068-0.091,2.068-1.278c-0.762,0.549-2.129,0.259-2.388-0.79c-0.197-1.004-1.918-1.599-2.318-0.845
		c-0.399-0.754-2.12-0.159-2.318,0.845c-0.259,1.049-1.626,1.339-2.387,0.79C11.797,11.435,13.075,11.449,13.865,11.525z"/>
	<path d="M30.976,16.647c0.009-0.208,0.032-0.414,0.032-0.626c0-0.188-0.021-0.371-0.028-0.558c0.075-0.362,0.256-0.732,0.431-1.074
		c0.172-0.382,0.351-0.724,0.39-0.918c0.158-0.641-0.215-1.027-0.625-1.276c-0.292-0.182-0.601-0.3-0.793-0.433
		c-0.11-0.367-0.24-0.727-0.376-1.082c-0.039-0.383-0.002-0.803,0.032-1.187c0.049-0.424,0.115-0.809,0.095-1.008
		c-0.183-1.126-1.37-1.011-1.927-1.15c-0.222-0.311-0.449-0.617-0.694-0.909c-0.367-0.692-0.399-1.772-0.598-2.094
		c-0.502-1.039-1.618-0.507-2.182-0.471c-0.311-0.224-0.632-0.432-0.96-0.629c-0.548-0.577-0.966-1.521-1.239-1.804
		c-0.452-0.478-0.99-0.355-1.413-0.171c-0.309,0.135-0.577,0.333-0.798,0.431c-0.385-0.114-0.775-0.218-1.173-0.303
		c-0.692-0.349-1.363-1.124-1.706-1.271c-0.586-0.268-1.05-0.029-1.391,0.285c-0.248,0.249-0.437,0.525-0.612,0.69
		c-0.396,0.016-0.79,0.039-1.177,0.085c-0.776-0.088-1.683-0.637-2.058-0.646c-0.646-0.082-1.013,0.28-1.221,0.727
		c-0.157,0.311-0.248,0.632-0.364,0.838C10.258,2.235,9.907,2.392,9.56,2.56C8.778,2.704,7.763,2.538,7.378,2.614
		C6.73,2.73,6.54,3.248,6.464,3.702C6.406,4.038,6.427,4.376,6.389,4.613c-0.303,0.258-0.6,0.521-0.881,0.802
		c-0.667,0.397-1.712,0.52-2.01,0.74C2.514,6.753,3.122,7.811,3.211,8.374C3.012,8.705,2.828,9.042,2.655,9.39
		c-0.239,0.287-0.589,0.529-0.896,0.754c-0.336,0.255-0.658,0.47-0.785,0.621c-0.451,0.487-0.283,1.013-0.054,1.422
		c0.173,0.299,0.377,0.547,0.487,0.754c-0.081,0.384-0.135,0.775-0.186,1.168c-0.315,0.726-0.979,1.478-1.146,1.835
		c-0.366,1.07,0.708,1.537,1.136,1.925c0.05,0.403,0.105,0.807,0.188,1.201c-0.038,0.77-0.503,1.696-0.479,2.063
		c-0.036,1.15,1.179,1.22,1.701,1.451c0.17,0.348,0.352,0.687,0.548,1.019c0.113,0.357,0.125,0.782,0.145,1.166
		c0.028,0.42,0.034,0.806,0.09,0.996c0.162,0.643,0.693,0.788,1.16,0.822c0.347,0.021,0.667-0.018,0.903,0.005
		c0.276,0.275,0.569,0.533,0.864,0.786c0.448,0.647,0.689,1.657,0.914,1.972c0.389,0.514,0.911,0.525,1.362,0.409
		c0.338-0.101,0.639-0.257,0.871-0.314c0.349,0.172,0.705,0.333,1.068,0.478c0.306,0.211,0.58,0.521,0.824,0.826
		c0.276,0.325,0.523,0.61,0.685,0.727c0.262,0.19,0.521,0.25,0.759,0.23c0.242-0.038,0.464-0.154,0.661-0.292
		c0.284-0.195,0.515-0.433,0.713-0.558c0.385,0.048,0.776,0.074,1.17,0.093c0.752,0.252,1.559,0.871,1.93,0.987
		c0.626,0.222,1.039-0.158,1.323-0.521c0.205-0.271,0.35-0.561,0.495-0.748c0.393-0.081,0.776-0.187,1.157-0.298
		c0.783-0.015,1.747,0.326,2.13,0.313c0.643-0.046,0.937-0.478,1.086-0.918c0.101-0.338,0.134-0.677,0.212-0.903
		c0.324-0.194,0.643-0.395,0.951-0.61c0.35-0.155,0.772-0.222,1.173-0.26c0.422-0.056,0.797-0.103,0.982-0.175
		c0.62-0.223,0.746-0.738,0.726-1.223c-0.008-0.347-0.08-0.673-0.073-0.907c0.244-0.288,0.471-0.588,0.693-0.895
		c0.135-0.113,0.281-0.22,0.448-0.311c0.182-0.118,0.379-0.221,0.57-0.316c0.383-0.188,0.743-0.344,0.897-0.47
		c0.841-0.767,0.102-1.696-0.086-2.239c0.142-0.363,0.278-0.728,0.393-1.104c0.381-0.677,1.258-1.285,1.413-1.626
		C32.361,17.738,31.327,17.1,30.976,16.647z M16.046,29.333c-7.34,0-13.312-5.973-13.312-13.312S8.707,2.711,16.046,2.711
		c7.339,0,13.311,5.972,13.311,13.311S23.386,29.333,16.046,29.333z"/>
	<path d="M16.136,3.43c-6.932,0-12.571,5.64-12.571,12.571s5.639,12.57,12.571,12.57c6.931,0,12.571-5.639,12.571-12.57
		S23.067,3.43,16.136,3.43z M16.136,27.768c-6.487,0-11.767-5.278-11.767-11.767c0-6.487,5.279-11.766,11.767-11.766
		s11.766,5.278,11.766,11.766C27.902,22.489,22.624,27.768,16.136,27.768z"/>
	<g>
		<polygon points="23.631,13.7 23.951,12.966 16.502,16.405 17.43,17.016 		"/>
		<path d="M14.896,17.364l-4.174,2.009l-0.013-0.032c-0.024-0.028-0.046-0.057-0.072-0.084c-0.526-0.547-1.45-0.62-2.192-0.175
			c-0.411,0.247-0.716,0.62-0.861,1.046c-0.148,0.44-0.106,0.89,0.115,1.26c0.056,0.094,0.122,0.178,0.194,0.256
			c0.404,0.419,1.039,0.559,1.646,0.402c0.262-0.06,0.535-0.161,0.729-0.352c0.319-0.239,0.558-0.562,0.679-0.923
			c0.078-0.232,0.097-0.463,0.071-0.687l-0.025-0.063l4.711-1.937L14.896,17.364z M10.486,20.618
			c-0.106,0.316-0.338,0.596-0.651,0.783c-0.549,0.328-1.218,0.289-1.589-0.096c-0.05-0.051-0.093-0.107-0.129-0.167
			c-0.147-0.248-0.172-0.553-0.072-0.855c0.107-0.319,0.338-0.597,0.651-0.785c0.55-0.328,1.219-0.288,1.591,0.097
			c0.048,0.051,0.092,0.108,0.127,0.167C10.563,20.009,10.587,20.313,10.486,20.618z"/>
		<path d="M25.38,20.316c-0.092-0.056-1.341,0.01-1.649-0.522c-0.079-0.209-0.195-0.411-0.345-0.589
			c-0.554-0.666-1.448-0.901-2.126-0.559c-0.018,0.009-0.036,0.021-0.055,0.03l-4.006-1.508l-6.82-4.296l0.184,0.667l6.104,4.973
			l0.797-0.38l3.14,1.207c-0.086,0.19-0.133,0.405-0.136,0.633c-0.005,0.451,0.162,0.904,0.468,1.273
			c0.555,0.664,1.448,0.898,2.127,0.559c0.096-0.048,0.185-0.108,0.268-0.177c0.186-0.153,0.324-0.35,0.412-0.574
			c0.425-0.484,1.217-0.279,1.397-0.297C25.32,20.738,25.479,20.374,25.38,20.316z M16.864,17.907
			c-0.127,0.062-0.28,0.012-0.343-0.114c-0.062-0.125-0.013-0.278,0.113-0.341c0.126-0.064,0.279-0.014,0.344,0.111
			C17.041,17.689,16.989,17.843,16.864,17.907z M23.017,21.254c-0.055,0.045-0.112,0.084-0.175,0.116
			c-0.478,0.24-1.124,0.057-1.533-0.437c-0.234-0.28-0.358-0.619-0.355-0.956c0.003-0.319,0.128-0.597,0.35-0.781
			c0.054-0.045,0.115-0.084,0.177-0.114c0.478-0.243,1.123-0.06,1.533,0.433c0.232,0.281,0.359,0.621,0.354,0.955
			C23.363,20.79,23.238,21.069,23.017,21.254z"/>
	</g>
</g>
<g>
</g>
<g>
</g>
<g>
</g>
<g>
</g>
<g>
</g>
<g>
</g>
<g>
</g>
<g>
</g>
<g>
</g>
<g>
</g>
<g>
</g>
<g>
</g>
<g>
</g>
<g>
</g>
<g>
</g>
</svg>
