<?xml version="1.0" encoding="iso-8859-1"?>
<!-- Generator: Adobe Illustrator 16.0.0, SVG Export Plug-In . SVG Version: 6.00 Build 0)  -->
<!DOCTYPE svg PUBLIC "-//W3C//DTD SVG 1.1//EN" "http://www.w3.org/Graphics/SVG/1.1/DTD/svg11.dtd">
<svg version="1.1" id="Layer_1" xmlns="http://www.w3.org/2000/svg" xmlns:xlink="http://www.w3.org/1999/xlink" x="0px" y="0px"
	 width="31.985px" height="32px" viewBox="0 0 31.985 32" style="enable-background:new 0 0 31.985 32;" xml:space="preserve">
<g>
	<polygon points="18.676,25.298 18.793,25.027 16.05,26.294 16.392,26.519 	"/>
	<path d="M15.458,26.647l-1.539,0.74l-0.005-0.013c-0.009-0.011-0.017-0.021-0.025-0.031c-0.195-0.201-0.536-0.228-0.808-0.063
		c-0.153,0.091-0.264,0.229-0.317,0.385c-0.055,0.162-0.041,0.327,0.042,0.465c0.021,0.034,0.046,0.064,0.072,0.094
		c0.149,0.155,0.383,0.206,0.607,0.148c0.098-0.021,0.197-0.061,0.269-0.129c0.117-0.089,0.206-0.208,0.25-0.341
		c0.029-0.085,0.037-0.17,0.026-0.253l-0.009-0.022l1.735-0.715L15.458,26.647z M13.832,27.846c-0.039,0.118-0.125,0.22-0.239,0.288
		c-0.203,0.122-0.449,0.106-0.585-0.034c-0.019-0.019-0.034-0.039-0.048-0.062c-0.054-0.092-0.063-0.203-0.027-0.315
		c0.041-0.117,0.125-0.22,0.24-0.29c0.201-0.12,0.449-0.105,0.585,0.036c0.018,0.019,0.035,0.04,0.047,0.063
		C13.861,27.622,13.87,27.734,13.832,27.846z"/>
	<path d="M18.587,27.325c-0.205-0.245-0.535-0.331-0.784-0.205c-0.006,0.002-0.013,0.006-0.02,0.011l-1.477-0.556l-2.512-1.583
		l0.068,0.246l2.248,1.832l0.294-0.141l1.157,0.445c-0.032,0.069-0.048,0.149-0.05,0.233c-0.002,0.165,0.06,0.333,0.172,0.469
		c0.205,0.245,0.533,0.33,0.784,0.206c0.036-0.018,0.07-0.04,0.1-0.066c0.068-0.056,0.119-0.128,0.152-0.211
		c0.156-0.179,0.448-0.103,0.514-0.109c0.066-0.007,0.125-0.14,0.089-0.162c-0.035-0.02-0.493,0.005-0.608-0.192
		C18.685,27.465,18.641,27.391,18.587,27.325z M16.183,26.848c-0.047,0.021-0.104,0.004-0.126-0.043
		c-0.022-0.045-0.005-0.102,0.042-0.125s0.103-0.005,0.126,0.041C16.248,26.767,16.229,26.823,16.183,26.848z M18.449,28.081
		c-0.019,0.016-0.041,0.03-0.064,0.042c-0.175,0.089-0.414,0.021-0.565-0.161c-0.086-0.102-0.133-0.228-0.131-0.352
		c0.002-0.118,0.048-0.22,0.128-0.288c0.021-0.016,0.042-0.03,0.066-0.042c0.177-0.09,0.415-0.022,0.564,0.158
		c0.087,0.104,0.134,0.229,0.131,0.353C18.577,27.909,18.531,28.013,18.449,28.081z"/>
	<path d="M17.278,7.04c-0.444-0.067-0.898-0.103-1.351-0.103c-4.416,0-8.242,3.296-8.902,7.666
		c-0.74,4.911,2.653,9.511,7.564,10.253c0.445,0.067,0.9,0.102,1.35,0.102c4.416,0,8.243-3.296,8.901-7.666
		c0.359-2.378-0.231-4.754-1.662-6.691C21.75,8.663,19.653,7.398,17.278,7.04z M24.18,17.192c-0.61,4.045-4.153,7.097-8.241,7.097
		c-0.42,0-0.84-0.032-1.25-0.094c-2.199-0.332-4.14-1.503-5.464-3.299c-1.324-1.795-1.871-3.993-1.539-6.193
		c0.61-4.045,4.153-7.097,8.241-7.097c0.412,0,0.833,0.031,1.25,0.093c2.199,0.332,4.139,1.503,5.464,3.299
		C23.966,12.794,24.512,14.993,24.18,17.192z"/>
	<path d="M31.529,16.427c0.163-0.245,0.304-0.456,0.356-0.601c0.226-0.545,0.071-1.047-0.458-1.487
		c-0.063-0.054-0.123-0.094-0.187-0.141c0.152-0.326,0.299-0.62,0.333-0.792c0.157-0.635-0.214-1.02-0.622-1.266
		c-0.094-0.06-0.187-0.104-0.279-0.152c0.025-0.114,0.049-0.228,0.076-0.341c0.029-0.105,0.058-0.205,0.085-0.303
		c0.083-0.289,0.155-0.539,0.162-0.708c-0.009-0.845-0.623-1.15-1.155-1.324c0.045-0.359,0.094-0.68,0.076-0.854
		c-0.131-0.805-0.778-0.97-1.337-1.051c-0.017-0.191-0.029-0.384-0.036-0.556c-0.015-0.361-0.027-0.646-0.097-0.804
		c-0.247-0.799-0.917-0.892-1.4-0.892c-0.036,0-0.069,0.004-0.104,0.004c-0.071-0.361-0.126-0.676-0.22-0.824
		c-0.36-0.744-1.035-0.676-1.594-0.567c-0.086-0.189-0.167-0.382-0.238-0.552c-0.122-0.299-0.227-0.557-0.33-0.699
		c-0.232-0.335-0.557-0.505-0.964-0.505c-0.16,0-0.333,0.025-0.529,0.077c-0.08,0.021-0.147,0.053-0.223,0.08
		c-0.186-0.312-0.344-0.585-0.47-0.715c-0.448-0.474-0.981-0.354-1.401-0.17c-0.108,0.047-0.204,0.104-0.302,0.16
		c-0.139-0.148-0.272-0.302-0.389-0.438c-0.226-0.264-0.404-0.473-0.554-0.566c-0.484-0.316-0.999-0.295-1.55,0.078
		c-0.066,0.051-0.119,0.101-0.18,0.151c-0.277-0.238-0.513-0.449-0.675-0.519c-0.582-0.266-1.042-0.029-1.381,0.282
		c-0.085,0.086-0.157,0.174-0.229,0.26c-0.167-0.09-0.333-0.184-0.488-0.275c-0.313-0.186-0.561-0.333-0.733-0.363
		c-0.585-0.164-1.082,0.038-1.44,0.58c-0.046,0.066-0.08,0.127-0.12,0.191c-0.338-0.137-0.633-0.261-0.807-0.265
		c-0.641-0.079-1.005,0.278-1.211,0.722c-0.053,0.104-0.092,0.207-0.134,0.31c-0.206-0.032-0.411-0.069-0.604-0.106
		C9.877,1.43,9.62,1.381,9.443,1.381H9.408C8.559,1.406,8.316,2.155,8.235,2.401C8.21,2.479,8.2,2.55,8.181,2.626
		C7.822,2.612,7.51,2.596,7.333,2.63C6.691,2.745,6.501,3.261,6.427,3.711C6.408,3.826,6.403,3.938,6.396,4.048
		C6.207,4.08,6.016,4.107,5.834,4.13C5.473,4.174,5.186,4.209,5.031,4.292c-0.785,0.329-0.817,1.014-0.76,1.571
		C3.923,5.96,3.62,6.043,3.482,6.145C2.78,6.572,2.896,7.233,3.049,7.78C2.976,7.818,2.904,7.86,2.831,7.897L2.723,7.954
		C2.628,8.006,2.536,8.055,2.446,8.101C2.185,8.238,1.958,8.356,1.841,8.46C1.168,8.999,1.448,9.742,1.541,9.988
		c0.029,0.074,0.062,0.138,0.094,0.207c-0.286,0.211-0.545,0.393-0.657,0.524c-0.447,0.484-0.281,1.005-0.054,1.411
		c0.058,0.1,0.119,0.186,0.179,0.274c-0.155,0.177-0.315,0.345-0.459,0.494c-0.205,0.215-0.383,0.398-0.483,0.55
		c-0.386,0.747,0.002,1.308,0.385,1.713c-0.202,0.286-0.383,0.536-0.46,0.698c-0.261,0.767,0.223,1.22,0.671,1.559
		c-0.077,0.175-0.16,0.35-0.24,0.513c-0.163,0.331-0.291,0.593-0.305,0.769c-0.155,0.842,0.407,1.242,0.909,1.499
		c-0.108,0.342-0.206,0.64-0.194,0.81c-0.026,0.82,0.586,1.084,1.126,1.255c-0.008,0.091-0.013,0.183-0.022,0.273l-0.011,0.097
		C2.01,22.738,2,22.841,1.991,22.938c-0.028,0.297-0.053,0.553-0.031,0.709c0.083,0.854,0.857,1.03,1.115,1.089
		c0.082,0.017,0.156,0.024,0.234,0.035c0.021,0.354,0.031,0.669,0.081,0.835c0.161,0.639,0.688,0.781,1.151,0.816
		c0.111,0.006,0.213,0.002,0.317,0.001c0.056,0.209,0.104,0.42,0.146,0.608c0.071,0.329,0.128,0.59,0.21,0.749
		c0.278,0.515,0.768,0.731,1.401,0.667c0.089-0.013,0.167-0.033,0.25-0.051c0.128,0.332,0.235,0.623,0.337,0.766
		c0.385,0.512,0.904,0.523,1.351,0.407c0.108-0.033,0.206-0.074,0.307-0.112c0.069,0.106,0.14,0.216,0.196,0.313
		c0.239,0.387,0.435,0.694,0.583,0.838c0.233,0.229,0.499,0.354,0.8,0.375c0.231-0.004,0.476-0.069,0.745-0.203
		c0.075-0.036,0.137-0.077,0.207-0.117c0.234,0.275,0.442,0.51,0.583,0.61c0.26,0.188,0.518,0.247,0.754,0.229
		c0.24-0.039,0.459-0.153,0.656-0.291c0.089-0.062,0.165-0.126,0.245-0.192c0.172,0.13,0.339,0.264,0.487,0.385
		c0.249,0.204,0.463,0.379,0.619,0.455C14.912,31.952,15.091,32,15.269,32c0.427,0,0.767-0.272,0.985-0.479
		c0.064-0.062,0.113-0.123,0.17-0.187c0.306,0.181,0.573,0.345,0.743,0.397c0.622,0.219,1.03-0.158,1.313-0.519
		c0.065-0.087,0.118-0.173,0.173-0.259c0.207,0.067,0.409,0.143,0.588,0.211c0.312,0.117,0.559,0.21,0.737,0.231
		c0.583,0.042,1.022-0.227,1.325-0.811c0.039-0.082,0.064-0.159,0.095-0.239c0.352,0.074,0.658,0.145,0.835,0.139
		c0.639-0.045,0.931-0.475,1.079-0.909c0.033-0.111,0.052-0.217,0.074-0.324c0.118,0.001,0.236,0.004,0.356,0.011
		c0.169,0.004,0.331,0.006,0.476,0.006c0.264,0,0.432-0.011,0.541-0.035c0.585-0.115,0.919-0.519,0.992-1.197
		c0.011-0.084,0.012-0.159,0.016-0.24c0.362-0.047,0.675-0.092,0.838-0.155c0.616-0.221,0.742-0.731,0.72-1.212
		c-0.003-0.107-0.016-0.206-0.026-0.308c0.112-0.042,0.226-0.088,0.334-0.124c0.104-0.033,0.204-0.064,0.301-0.093
		c0.299-0.091,0.535-0.163,0.681-0.249c0.709-0.475,0.623-1.164,0.476-1.706c0.325-0.157,0.617-0.288,0.751-0.396
		c0.6-0.548,0.389-1.176,0.154-1.688c0.15-0.117,0.304-0.23,0.451-0.336c0.293-0.209,0.524-0.375,0.618-0.52
		c0.543-0.664,0.234-1.287-0.087-1.753c0.264-0.257,0.498-0.477,0.57-0.635c0.417-0.706,0.002-1.23-0.394-1.637
		c0.065-0.099,0.128-0.195,0.199-0.295C31.414,16.599,31.473,16.51,31.529,16.427z M1.19,19.957
		c-0.454-0.237-0.857-0.553-0.734-1.225c0.011-0.142,0.143-0.409,0.282-0.691c0.074-0.149,0.148-0.311,0.22-0.472
		c0.096,0.07,0.186,0.137,0.255,0.199c0.049,0.401,0.104,0.802,0.186,1.193C1.384,19.284,1.289,19.631,1.19,19.957z M1.223,14.037
		c-0.136,0.313-0.338,0.626-0.536,0.915c-0.334-0.363-0.612-0.803-0.313-1.377c0.08-0.121,0.25-0.299,0.448-0.504
		c0.13-0.137,0.276-0.292,0.419-0.451c0.062,0.092,0.125,0.182,0.167,0.26C1.328,13.261,1.273,13.648,1.223,14.037z M28.213,6.135
		c0.056,0.129,0.069,0.42,0.082,0.728c0.007,0.157,0.021,0.335,0.035,0.51c-0.12-0.016-0.233-0.031-0.326-0.055
		c-0.221-0.308-0.445-0.613-0.688-0.904c-0.157-0.295-0.25-0.66-0.324-1.008C27.478,5.394,28.006,5.465,28.213,6.135z M23.129,2.331
		c0.593-0.158,0.961-0.054,1.227,0.329c0.086,0.122,0.187,0.367,0.303,0.65c0.064,0.157,0.141,0.334,0.22,0.508
		c-0.118,0.024-0.23,0.045-0.323,0.052c-0.31-0.223-0.627-0.428-0.954-0.625c-0.234-0.247-0.442-0.56-0.628-0.859
		C23.027,2.368,23.075,2.345,23.129,2.331z M18.32,0.722c0.458-0.311,0.867-0.337,1.272-0.072c0.121,0.075,0.305,0.291,0.5,0.519
		c0.106,0.125,0.229,0.264,0.354,0.398c-0.093,0.055-0.187,0.11-0.267,0.147c-0.382-0.114-0.77-0.217-1.164-0.3
		c-0.288-0.146-0.57-0.364-0.828-0.581C18.231,0.796,18.272,0.757,18.32,0.722z M13.254,0.776c0.231-0.35,0.52-0.527,0.854-0.527
		c0.1,0,0.205,0.016,0.326,0.048c0.14,0.025,0.394,0.177,0.662,0.335c0.134,0.08,0.291,0.166,0.447,0.252
		C15.472,0.97,15.4,1.058,15.334,1.12c-0.392,0.015-0.784,0.038-1.168,0.085c-0.328-0.038-0.674-0.161-1-0.288
		C13.196,0.87,13.221,0.823,13.254,0.776z M8.472,2.479c0.186-0.574,0.477-0.836,0.972-0.85c0.153,0,0.4,0.046,0.684,0.102
		c0.167,0.032,0.358,0.065,0.55,0.096c-0.042,0.105-0.082,0.211-0.127,0.288C10.192,2.256,9.844,2.411,9.5,2.577
		C9.164,2.639,8.787,2.643,8.434,2.634C8.448,2.581,8.454,2.529,8.472,2.479z M5.137,4.516C5.262,4.45,5.555,4.414,5.865,4.375
		c0.157-0.02,0.334-0.046,0.51-0.075C6.37,4.412,6.366,4.525,6.352,4.615C6.05,4.871,5.757,5.132,5.478,5.411
		C5.195,5.579,4.847,5.695,4.515,5.794C4.465,5.287,4.512,4.778,5.137,4.516z M1.838,10.044c-0.022-0.05-0.046-0.093-0.066-0.145
		C1.559,9.332,1.627,8.949,2,8.65c0.1-0.088,0.313-0.2,0.561-0.331c0.09-0.046,0.184-0.096,0.278-0.146l0.105-0.055
		C3.001,8.09,3.061,8.055,3.118,8.023c0.035,0.117,0.066,0.229,0.08,0.323c-0.196,0.329-0.38,0.664-0.551,1.009
		C2.43,9.616,2.122,9.837,1.838,10.044z M3.128,24.494c-0.592-0.136-0.877-0.403-0.922-0.875c-0.019-0.133,0.005-0.375,0.032-0.657
		c0.01-0.099,0.02-0.201,0.028-0.305l0.009-0.095c0.008-0.07,0.011-0.15,0.018-0.224c0.119,0.036,0.232,0.07,0.32,0.11
		c0.168,0.345,0.351,0.682,0.544,1.011c0.103,0.326,0.12,0.706,0.137,1.06C3.238,24.511,3.185,24.506,3.128,24.494z M6.584,28.202
		c-0.065,0.007-0.129,0.011-0.195,0.011c-0.444,0-0.758-0.18-0.956-0.547c-0.066-0.128-0.122-0.388-0.188-0.687
		c-0.038-0.172-0.084-0.364-0.132-0.555c0.116-0.003,0.23-0.007,0.324,0.002c0.274,0.272,0.565,0.53,0.857,0.78
		c0.194,0.279,0.347,0.627,0.479,0.957C6.71,28.177,6.649,28.192,6.584,28.202z M11.074,30.558
		c-0.235,0.117-0.444,0.176-0.628,0.178c-0.231-0.016-0.444-0.118-0.634-0.304C9.683,30.308,9.489,30,9.269,29.644
		c-0.048-0.083-0.114-0.18-0.172-0.271c0.115-0.046,0.227-0.091,0.32-0.113c0.348,0.17,0.7,0.33,1.06,0.474
		c0.277,0.19,0.523,0.465,0.749,0.739C11.175,30.501,11.128,30.532,11.074,30.558z M16.083,31.342
		c-0.187,0.177-0.475,0.41-0.814,0.41c-0.136,0-0.277-0.037-0.422-0.114c-0.132-0.064-0.337-0.231-0.575-0.427
		c-0.134-0.109-0.289-0.229-0.443-0.348c0.093-0.078,0.183-0.153,0.262-0.204c0.382,0.047,0.77,0.074,1.161,0.092
		c0.322,0.107,0.648,0.284,0.951,0.458C16.163,31.254,16.127,31.3,16.083,31.342z M21.081,30.477
		c-0.236,0.455-0.556,0.677-0.979,0.677c-0.033,0-0.067-0.002-0.099-0.004c-0.143-0.017-0.389-0.109-0.672-0.217
		c-0.164-0.063-0.35-0.128-0.535-0.19c0.061-0.099,0.12-0.196,0.177-0.271c0.389-0.081,0.77-0.184,1.147-0.296
		c0.332-0.006,0.693,0.056,1.032,0.123C21.127,30.358,21.108,30.419,21.081,30.477z M25.506,28.007
		c-0.061,0.568-0.321,0.891-0.797,0.983c-0.122,0.028-0.338,0.031-0.49,0.031c-0.145,0-0.304-0.003-0.467-0.007
		c-0.101-0.006-0.205-0.008-0.307-0.009c0.024-0.119,0.046-0.237,0.079-0.328c0.321-0.191,0.638-0.391,0.943-0.605
		c0.314-0.139,0.688-0.202,1.051-0.241C25.514,27.89,25.514,27.946,25.506,28.007z M28.485,25.445
		c-0.115,0.067-0.35,0.139-0.622,0.222c-0.098,0.029-0.2,0.061-0.306,0.094c-0.091,0.03-0.185,0.07-0.278,0.104
		c-0.015-0.122-0.028-0.241-0.025-0.338c0.242-0.284,0.467-0.582,0.687-0.886c0.135-0.112,0.279-0.219,0.445-0.31
		c0.154-0.1,0.317-0.185,0.48-0.267C28.992,24.548,29.036,25.075,28.485,25.445z M15.937,29.148c-7.284,0-13.211-5.927-13.211-13.21
		c0-7.286,5.927-13.212,13.211-13.212s13.21,5.926,13.21,13.212C29.147,23.222,23.221,29.148,15.937,29.148z M29.814,9.564
		c0.469,0.159,0.926,0.412,0.933,1.069c-0.005,0.133-0.076,0.38-0.152,0.644c-0.028,0.097-0.057,0.199-0.091,0.327
		c-0.021,0.083-0.039,0.174-0.058,0.262c-0.104-0.053-0.206-0.104-0.282-0.155c-0.109-0.366-0.239-0.722-0.374-1.074
		C29.756,10.29,29.784,9.917,29.814,9.564z M30.867,20.863c-0.077,0.116-0.313,0.284-0.563,0.463
		c-0.129,0.093-0.272,0.202-0.413,0.312c-0.053-0.111-0.103-0.217-0.134-0.31c0.141-0.359,0.277-0.722,0.389-1.093
		c0.161-0.286,0.41-0.557,0.654-0.802C31.089,19.858,31.3,20.331,30.867,20.863z M31.15,16.55c-0.06,0.084-0.113,0.17-0.171,0.254
		c-0.086-0.087-0.167-0.169-0.226-0.244c0.009-0.207,0.032-0.412,0.032-0.621c0-0.188-0.021-0.368-0.028-0.554
		c0.066-0.322,0.22-0.648,0.375-0.957c0.045,0.033,0.09,0.063,0.135,0.101c0.45,0.375,0.574,0.758,0.388,1.209
		c-0.044,0.121-0.178,0.32-0.332,0.551C31.266,16.374,31.207,16.463,31.15,16.55z"/>
	<circle cx="27.038" cy="15.774" r="1.014"/>
	<circle cx="4.979" cy="16" r="1.013"/>
	<path d="M19.332,10.949c-3.247-2.224-6.825-0.153-7.391,0.897c-1.16,1.631-1.174,4.835-1.285,5.829
		c0.242-0.683,0.27-0.918,0.457-0.759c0.187,0.159-0.437,2.646-0.25,2.984c0.09-0.449,0.387-0.484,0.387-0.484
		s-0.124,0.746,0.083,0.802c0-0.622,0.262-0.816,0.262-0.816s1.229,2.667,1.623,2.64c-0.365-0.448-0.228-0.761-0.228-0.761
		s0.372,0.691,0.814,0.498c-1.437-1.389-1.325-4.862-1.325-4.862l0.455,0.304l-0.428-0.843c0,0,0.58-2.225,0.58-1.92
		c0,0.303,0.132,2.217,0.429,2.037c0-0.573,0.746-1.789,0.746-1.789s-0.028,1.348-0.304,1.947c0.344-0.116,1.657-3.135,1.657-3.135
		s0.118,1.691-0.303,2.361c0.559-0.117,1.12-2.708,1.12-2.708s0.172,0.954,0.026,1.354c0.297-0.256,0.43-0.98,0.43-0.98
		s0.247,0.379-0.069,1.05c0.304-0.2,0.738-1.589,1.034-1.645c0.617,0.291,0.009,2.881-0.517,3.446
		c0.795-0.123,1.057-2.568,1.216-2.479c0.228,0.27,0.123,2.383-0.602,2.707c0.414,0.297,1.132-1.035,1.132-1.035
		s-0.207,0.738-0.537,1.076c0.334,0.031,0.772-0.814,0.772-0.814s-0.069,0.704-0.442,1.051c0.394-0.014,0.581-0.277,0.581-0.277
		s-0.109,0.4-0.387,0.774c0.263-0.021,0.442-0.346,0.442-0.346s-0.201,1.174-0.677,1.506c0.456-0.132,0.456-0.132,0.469,0.042
		c0.014,0.173-0.027,0.482-0.538,0.482c0.166,0.277,0.635,0.152,0.635,0.152s-0.767,0.531-1.077,0.622
		c0.235,0.256,0.503-0.118,0.676-0.151c-0.207,0.772-0.663,1.478-1.23,1.615c0.408,0.166,0.325,0.241,0.968-0.152
		c0.179-0.165,0.221,0.312,0.014,0.664c0.344-0.131,0.969-1.506,0.969-1.506s0.22,0.607,0.523,0.443
		c-0.325-0.499,0.042-1.978,0.042-1.978s0.345-0.221,0.8,0.844c-0.028-1.354-0.491-1.9-0.47-2.17
		C20.637,17.199,22.578,13.172,19.332,10.949z"/>
</g>
<g>
</g>
<g>
</g>
<g>
</g>
<g>
</g>
<g>
</g>
<g>
</g>
<g>
</g>
<g>
</g>
<g>
</g>
<g>
</g>
<g>
</g>
<g>
</g>
<g>
</g>
<g>
</g>
<g>
</g>
</svg>
