<?xml version="1.0" encoding="iso-8859-1"?>
<!-- Generator: Adobe Illustrator 16.0.0, SVG Export Plug-In . SVG Version: 6.00 Build 0)  -->
<!DOCTYPE svg PUBLIC "-//W3C//DTD SVG 1.1//EN" "http://www.w3.org/Graphics/SVG/1.1/DTD/svg11.dtd">
<svg version="1.1" id="Layer_1" xmlns="http://www.w3.org/2000/svg" xmlns:xlink="http://www.w3.org/1999/xlink" x="0px" y="0px"
	 width="31.987px" height="28.001px" viewBox="0 0 31.987 28.001" style="enable-background:new 0 0 31.987 28.001;"
	 xml:space="preserve">
<g>
	<path d="M11.583,6.118c-0.039,0.109-0.038,0.379-0.009,0.644c0,0.039-0.011,0.074-0.011,0.113c0,0.176,0.008,0.351,0.024,0.523
		c0.269,2.839,2.624,4.98,5.479,4.98c3.035,0,5.503-2.469,5.503-5.503c0-0.152-0.033-0.296-0.045-0.445
		c0.022-0.177,0.042-0.366,0.057-0.586c0.196-0.347,0.106-2.165-0.514-2.2c0.036-1.002-0.373-1.011-0.515-1.277
		C21.412,2.1,21.295,1.354,21.021,1.32c0.132,0.54,0.08,0.603,0,0.532c-0.08-0.072-0.728-1.331-1.136-1.349
		c0.408,0.533,0.638,1.021,0.568,0.976c-0.071-0.044-2.227-1.419-3.3-1.472c-1.073-0.054-2.412,0.833-2.412,0.833
		s-0.063-0.443,0.336-0.833c-0.292-0.089-0.708,0.721-0.781,0.851c-0.035,0.061-0.595-0.034-1.126,0.213
		c-0.594,0.275-1.174,0.91-1.375,1.313c-0.381,0.763-0.292,1.765-0.284,1.915c0.008,0.15-0.239,0.479-0.195,0.826
		C11.361,5.47,11.663,5.887,11.583,6.118z M12.612,7.581c0.148-0.433,0.418-0.611,0.407-0.887c-0.018-0.497-0.333-0.403-0.336-0.904
		c-0.002-0.273,0.049-0.574,0.129-0.856c0.178-0.388,0.414-0.74,0.687-1.063c0.729-0.223,2.926,0.497,3.406,0.323
		c0.231-0.284,2.244-0.452,3.264-0.24c0.419,0.088,0.961,0.696,1.197,1.703c0.169,0.721,0.238,1.574,0.264,2.246
		c-0.471,2.089-2.334,3.658-4.564,3.658c-2.195,0-4.03-1.492-4.536-3.56C12.548,7.845,12.572,7.698,12.612,7.581z"/>
	<path d="M25.948,16.464l-3.099-2.4l0.002-0.023l-0.049-0.015l-0.053-0.041l-0.016,0.021l-2.279-0.657
		c0,1.585-1.285,2.87-2.871,2.87c-1.584,0-2.87-1.285-2.87-2.87l-3.135,0.688l-0.004-0.004l-3.811,2.954l-0.85-1.097
		c0.034-0.024,0.068-0.047,0.105-0.06c0.166-0.06-0.143-0.223-0.419-0.345l-0.283-0.365l-0.072,0.065l0.037-1.057l-0.204-0.036
		l0.08-2.259l0.814,0.029l0.01-0.274l-0.814-0.029l0.008-0.205l0.813,0.028L7,11.11l-0.813-0.029l0.01-0.288l0.798,0.028
		l0.009-0.274L6.206,10.52l0.007-0.207l0.797,0.029l0.01-0.274l-0.798-0.028l0.009-0.261L7.03,9.807l0.01-0.275L6.242,9.503
		l0.007-0.206l0.797,0.029l0.01-0.274L6.259,9.023L6.267,8.79l0.797,0.029l0.01-0.275L6.277,8.516l0.007-0.206l0.797,0.028
		l0.01-0.274L6.294,8.035l0.008-0.247L7.1,7.817l0.01-0.274L6.312,7.515L6.32,7.308l0.797,0.029l0.009-0.274L6.33,7.033l0.009-0.247
		l0.797,0.029l0.009-0.275L6.348,6.512l0.007-0.206l0.797,0.028l0.01-0.274L6.366,6.033l0.011-0.316l0.797,0.028l0.01-0.274
		L6.386,5.442l0.008-0.206l0.797,0.028L7.201,4.99L6.403,4.962l0.015-0.425l-0.33-0.012l0.04-1.096l-0.007,0
		c-0.039-0.22-0.322-0.399-0.672-0.411c-0.352-0.013-0.646,0.146-0.7,0.361H4.742L4.704,4.476L4.333,4.463L4.317,4.888L3.52,4.859
		L3.51,5.134l0.798,0.028L4.301,5.368L3.502,5.339L3.493,5.614l0.798,0.028L4.279,5.958L3.481,5.93l-0.01,0.274l0.798,0.029
		L4.262,6.438L3.464,6.41l-0.01,0.274l0.798,0.028L4.244,6.96L3.446,6.931l-0.01,0.275l0.798,0.028L4.227,7.44L3.429,7.412
		L3.419,7.687l0.798,0.027L4.208,7.961L3.41,7.933L3.401,8.208l0.798,0.028L4.191,8.442L3.394,8.414l-0.01,0.274l0.798,0.028
		L4.172,8.95L3.375,8.921L3.366,9.195l0.797,0.029L4.156,9.43L3.358,9.401L3.349,9.676l0.798,0.028L4.137,9.965L3.339,9.937
		L3.33,10.211l0.798,0.028L4.12,10.445l-0.798-0.028l-0.009,0.274l0.797,0.028L4.1,11.008l-0.782-0.028l-0.009,0.275l0.781,0.028
		l-0.007,0.206L3.302,11.46l-0.01,0.274l0.782,0.028l-0.03,0.841c-0.104,0.037-0.773,0.277-0.878,0.375
		c-0.113,0.106-0.014,0.426-0.014,0.426s-3.216,2.729-3.15,5.507c0.052,0.083,0.322,0.018,0.429-0.095
		c0.605-3.219,2.946-3.774,3.543-3.864l-0.011,0.305c0,0-1.083,0.319-0.813,0.438c0.731,0.301,0.552,3.042,0.271,3.583
		C2.981,20.416,2.933,24.864,3.182,26c0.245,1.124,0.062,1.855,1.472,1.893c1.41,0.063,1.277-0.68,1.602-1.784
		c0.296-1.004,0.541-4.697,0.326-6.275l0.708,0.913l2.116-1.639l-0.003-0.004l2.36-1.828l0.45,9.342h9.9l0.544-9.318l2.266,1.755
		l-0.004,0.004l2.117,1.639l0.292-0.376c-0.045,0.409-0.08,0.813-0.08,1.155c0,0.808,0.206,6.697,1.455,6.522
		c1.249,0.175,1.454-5.714,1.454-6.522c0-1.039-0.307-2.654-0.307-3.228c0-0.719,1.607-1.156,1.607-1.156v-2.051h-5.508V16.464z"/>
	<rect x="25.246" y="14.449" width="6.568" height="0.295"/>
	<rect x="25.28" y="13.889" width="6.568" height="0.296"/>
	<rect x="25.297" y="13.356" width="6.569" height="0.295"/>
	<rect x="25.315" y="12.795" width="6.567" height="0.296"/>
	<rect x="25.332" y="12.216" width="6.568" height="0.297"/>
	<rect x="25.349" y="11.656" width="6.568" height="0.297"/>
	<rect x="25.332" y="11.055" width="6.568" height="0.297"/>
	<rect x="25.366" y="10.503" width="6.568" height="0.296"/>
	<rect x="25.366" y="9.943" width="6.568" height="0.296"/>
	<rect x="25.366" y="9.341" width="6.568" height="0.296"/>
	<rect x="25.366" y="8.708" width="6.568" height="0.297"/>
	<rect x="25.366" y="8.123" width="6.568" height="0.296"/>
	<rect x="25.418" y="7.535" width="6.569" height="0.296"/>
	<path d="M31.318,6.505c0,0-0.719-0.316-2.789-0.316s-2.719,0.316-2.719,0.316v0.698h5.508V6.505z"/>
</g>
<g>
</g>
<g>
</g>
<g>
</g>
<g>
</g>
<g>
</g>
<g>
</g>
<g>
</g>
<g>
</g>
<g>
</g>
<g>
</g>
<g>
</g>
<g>
</g>
<g>
</g>
<g>
</g>
<g>
</g>
</svg>
