<?xml version="1.0" encoding="iso-8859-1"?>
<!-- Generator: Adobe Illustrator 16.0.0, SVG Export Plug-In . SVG Version: 6.00 Build 0)  -->
<!DOCTYPE svg PUBLIC "-//W3C//DTD SVG 1.1//EN" "http://www.w3.org/Graphics/SVG/1.1/DTD/svg11.dtd">
<svg version="1.1" id="Layer_1" xmlns="http://www.w3.org/2000/svg" xmlns:xlink="http://www.w3.org/1999/xlink" x="0px" y="0px"
	 width="25.538px" height="31.177px" viewBox="0 0 25.538 31.177" style="enable-background:new 0 0 25.538 31.177;"
	 xml:space="preserve">
<g>
	<path d="M22.368,13.356c1.914-1.321,3.17-3.528,3.17-6.03C25.538,3.28,22.258,0,18.212,0c-0.782,0-1.534,0.125-2.241,0.353
		c-4.92,0-14.222,0-15.124,0c-1.233,0-1.021,6.692,0,6.692c0.534,0,5.466,0,10.053,0c-0.003,0.095-0.014,0.187-0.014,0.281
		c0,3.638,2.653,6.647,6.128,7.221v1.585h-0.845v1.585h0.845v0.951h-0.845v1.585h0.845v3.114c-0.522,0.548-0.845,1.285-0.845,2.099
		c0,1.692,1.388,3.064,3.1,3.064c0.473,0,0.92-0.108,1.321-0.296l1.969,2.942l0.819-0.549l-1.973-2.946
		c0.592-0.559,0.962-1.344,0.962-2.216c0-0.358-0.066-0.702-0.18-1.021h0.18V13.356z M18.212,4.649c0.549,0,1.059,0.166,1.483,0.449
		h-2.967C17.153,4.815,17.663,4.649,18.212,4.649z M16.417,5.345h3.591c0.187,0.17,0.35,0.365,0.483,0.581h-4.557
		C16.067,5.71,16.229,5.515,16.417,5.345z M15.799,6.173h4.825c0.094,0.196,0.167,0.405,0.212,0.625h-5.249
		C15.632,6.578,15.705,6.369,15.799,6.173z M18.212,10.003c-0.543,0-1.047-0.162-1.469-0.44h2.938
		C19.259,9.841,18.755,10.003,18.212,10.003z M19.998,9.316h-3.571c-0.179-0.16-0.336-0.344-0.466-0.546h4.504
		C20.333,8.973,20.176,9.156,19.998,9.316z M20.604,8.524H15.82c-0.09-0.181-0.161-0.372-0.209-0.573h5.201
		C20.765,8.152,20.694,8.344,20.604,8.524z M20.859,7.705h-5.295c-0.018-0.124-0.029-0.25-0.029-0.379
		c0-0.095,0.005-0.188,0.015-0.281h5.324c0.009,0.093,0.015,0.187,0.015,0.281C20.889,7.455,20.876,7.581,20.859,7.705z"/>
	<polygon points="9.477,19.725 8.913,19.725 8.913,13.667 8.385,13.667 8.385,19.725 7.962,19.725 7.962,13.667 7.434,13.667 
		7.434,19.725 6.87,19.725 6.87,13.667 6.341,13.667 6.341,19.725 5.813,19.725 5.813,13.667 5.285,13.667 5.285,19.725 
		4.721,19.725 4.721,13.667 4.193,13.667 4.193,19.725 3.524,19.725 3.524,13.667 2.996,13.667 2.996,19.725 2.432,19.725 
		2.432,13.667 1.904,13.667 1.904,19.725 1.904,19.937 1.904,23.063 2.749,27.051 9.16,27.051 10.005,23.063 10.005,19.937 
		10.005,19.725 10.005,13.667 9.477,13.667 	"/>
</g>
<g>
</g>
<g>
</g>
<g>
</g>
<g>
</g>
<g>
</g>
<g>
</g>
<g>
</g>
<g>
</g>
<g>
</g>
<g>
</g>
<g>
</g>
<g>
</g>
<g>
</g>
<g>
</g>
<g>
</g>
</svg>
