<?xml version="1.0" encoding="iso-8859-1"?>
<!-- Generator: Adobe Illustrator 16.0.0, SVG Export Plug-In . SVG Version: 6.00 Build 0)  -->
<!DOCTYPE svg PUBLIC "-//W3C//DTD SVG 1.1//EN" "http://www.w3.org/Graphics/SVG/1.1/DTD/svg11.dtd">
<svg version="1.1" id="Layer_1" xmlns="http://www.w3.org/2000/svg" xmlns:xlink="http://www.w3.org/1999/xlink" x="0px" y="0px"
	 width="31.181px" height="30.745px" viewBox="0 0 31.181 30.745" style="enable-background:new 0 0 31.181 30.745;"
	 xml:space="preserve">
<g>
	<path d="M23.672,21.611c-1.09,3.292-4.188,5.669-7.845,5.669c-3.658,0-6.756-2.378-7.846-5.669H0v9.134h31.181v-9.134H23.672z"/>
	<path d="M4.685,10.037c0-1.828,0.771-3.463,2.293-4.861c1.188-1.091,2.628-1.829,3.778-2.246c0.849-0.309,0.466,0.506,0.779,0.532
		v3.543h8.897V3.147c0,0-0.944-3.229-7.609-3.146C9.072,0.163,7.848,0.955,5.273,3.32C3.24,5.188,2.165,7.51,2.165,10.037v10.118
		h2.52V10.037z"/>
	<path d="M13.422,11.021c0.585,0,1.059-0.487,1.059-1.089s-1.059-2.021-1.059-2.021s-1.06,1.42-1.06,2.021
		S12.837,11.021,13.422,11.021z"/>
	<path d="M16.135,11.021c0.585,0,1.06-0.487,1.06-1.089s-1.06-2.021-1.06-2.021s-1.06,1.42-1.06,2.021S15.55,11.021,16.135,11.021z"
		/>
	<path d="M19.047,11.021c0.585,0,1.059-0.487,1.059-1.089s-1.059-2.021-1.059-2.021s-1.06,1.42-1.06,2.021
		S18.461,11.021,19.047,11.021z"/>
</g>
<g>
</g>
<g>
</g>
<g>
</g>
<g>
</g>
<g>
</g>
<g>
</g>
<g>
</g>
<g>
</g>
<g>
</g>
<g>
</g>
<g>
</g>
<g>
</g>
<g>
</g>
<g>
</g>
<g>
</g>
</svg>
