<?xml version="1.0" encoding="iso-8859-1"?>
<!-- Generator: Adobe Illustrator 16.0.0, SVG Export Plug-In . SVG Version: 6.00 Build 0)  -->
<!DOCTYPE svg PUBLIC "-//W3C//DTD SVG 1.1//EN" "http://www.w3.org/Graphics/SVG/1.1/DTD/svg11.dtd">
<svg version="1.1" id="Layer_1" xmlns="http://www.w3.org/2000/svg" xmlns:xlink="http://www.w3.org/1999/xlink" x="0px" y="0px"
	 width="19.345px" height="31.733px" viewBox="0 0 19.345 31.733" style="enable-background:new 0 0 19.345 31.733;"
	 xml:space="preserve">
<g>
	<path d="M10.136,6.182c1.736-0.346,3.877-0.072,5.584,0.285c-0.027-0.076-0.057-0.153-0.073-0.229
		c-0.407-1.911,0.059-6.517-4.76-6.224C8.478,0.16,3.296,2.675,2.375,4.938c-0.63,1.542-0.806,3.136-0.812,4.057
		C3.048,8.402,7.371,6.731,10.136,6.182z"/>
	<path d="M16.392,7.574c-1.715-0.418-4.201-0.856-6.074-0.484C7.366,7.677,2.39,9.66,1.531,10.006
		C1.208,10.174,0.417,10.359,0,11.076c0.548,0.832,1.37,1.184,2.336,1.23c-0.202,1.598-0.604,5.432,0.096,6.298
		c0.889,1.101,1.004,0.56,1.159,3.243c0.155,2.683,1.386,3.713,1.12,6.08c0.715-0.273,0-4.479,0-4.479s1.197,4.055,0.501,6.043
		c0.925-0.588,1.1-3.244,1.1-3.244s0.136,3.186-0.29,4.402c0.618,0.058,1.042-2.723,1.042-2.723s0.69,2.344,0,3.186
		c0.696,0.059,1.101-2.433,1.101-2.433s-0.097,3.28,0.869,3.04c-0.65-0.674,0-2.345,0-2.345s2.354,1.294,2.606,0.174
		c-1.733,0.221-2.182-1.39-2.78-2.027c-0.598-0.637-1.824-5.097-1.824-5.097s0.672,0.498,0.956,0.116
		c-1.891-1.563-2.24-5.462-2.143-7.007c0.053-1.716,2.292-4.045,4.333-5.822c1.013-0.454,1.875-0.799,2.443-0.838
		c1.206-0.083,2.61,1.039,3.84,1.975c-0.27,0.689-1.217,1.563-1.118,2.601c0.136,1.428-1.834,4.401-2.375,5.675
		c-0.54,1.275-2.008,2.395-2.548,2.607c-0.54,0.211-0.232,3.378,0.405,4.863c0.638,1.486,2.065,4.151,3.417,4.402
		c-2.239-2.14-2.78-6.313-2.78-6.313s2.354,6.68,4.633,6.659c-2.312-1.862-1.506-3.475-1.506-3.475s0.617,1.757,1.795,1.042
		c-1.795-1.042-1.738-4.633-1.738-4.633s0.791,3.379,1.738,3.012c-1.487-2.118-0.753-3.648-0.753-3.648s0.27,0.85,0.753,0.637
		c-0.714-1.1-0.641-3.215-0.463-3.938s1.1-4.459,1.1-4.633c0-0.16,0.753-0.902,0.356-4.192c0.174,0.116,0.338,0.212,0.498,0.297
		c0.155,0.676,0.183,1.554-0.158,2.39c0.593-0.223,0.709-1.275,0.693-2.18c0.366,0.083,0.667,0,0.871-0.369
		C19.729,10.455,17.597,9.035,16.392,7.574z"/>
</g>
<g>
</g>
<g>
</g>
<g>
</g>
<g>
</g>
<g>
</g>
<g>
</g>
<g>
</g>
<g>
</g>
<g>
</g>
<g>
</g>
<g>
</g>
<g>
</g>
<g>
</g>
<g>
</g>
<g>
</g>
</svg>
