<?xml version="1.0" encoding="iso-8859-1"?>
<!-- Generator: Adobe Illustrator 16.0.0, SVG Export Plug-In . SVG Version: 6.00 Build 0)  -->
<!DOCTYPE svg PUBLIC "-//W3C//DTD SVG 1.1//EN" "http://www.w3.org/Graphics/SVG/1.1/DTD/svg11.dtd">
<svg version="1.1" id="Layer_1" xmlns="http://www.w3.org/2000/svg" xmlns:xlink="http://www.w3.org/1999/xlink" x="0px" y="0px"
	 width="20.499px" height="31.883px" viewBox="0 0 20.499 31.883" style="enable-background:new 0 0 20.499 31.883;"
	 xml:space="preserve">
<path d="M7.667,4.451V5.5c0,0-3.813,3.889-4.12,7.625c-0.072-1.12-0.904-2.024-1.409-1.734c-0.506,0.289-0.687,5.53,0.47,5.854
	c0.578,0,1.084,0,1.084,0l-0.108,1.951c0,0-4.445-2.674-3.434-9.722C0.367,7.74,1.958,1.38,7.957,2.103
	c4.123-4.521,8.562-0.938,10.877,3.107c1.054,1.842,1.27,3.945,1.519,5.133c0.794,3.794-1.889,18.088-2.594,18.63
	c0.081-1.058-0.334-3.27-0.334-3.27s-0.65,4.057-1.229,4.191c0.153-0.488,0.316-2.955,0.316-2.955s-2.773,4.98-4.11,4.943
	c1.048-0.851,3.65-6.071,3.65-6.071s-2.62,3.805-3.289,4.012c1.075-1.041,3.253-6.579,3.253-6.579s-1.698,2.803-2.566,2.855
	c1.111-1.328,3.037-9.594,1.41-15.396C13.232,4.902,7.667,4.451,7.667,4.451z"/>
<g>
</g>
<g>
</g>
<g>
</g>
<g>
</g>
<g>
</g>
<g>
</g>
<g>
</g>
<g>
</g>
<g>
</g>
<g>
</g>
<g>
</g>
<g>
</g>
<g>
</g>
<g>
</g>
<g>
</g>
</svg>
