<?xml version="1.0" encoding="iso-8859-1"?>
<!-- Generator: Adobe Illustrator 16.0.0, SVG Export Plug-In . SVG Version: 6.00 Build 0)  -->
<!DOCTYPE svg PUBLIC "-//W3C//DTD SVG 1.1//EN" "http://www.w3.org/Graphics/SVG/1.1/DTD/svg11.dtd">
<svg version="1.1" id="Layer_1" xmlns="http://www.w3.org/2000/svg" xmlns:xlink="http://www.w3.org/1999/xlink" x="0px" y="0px"
	 width="22.265px" height="31.965px" viewBox="0 0 22.265 31.965" style="enable-background:new 0 0 22.265 31.965;"
	 xml:space="preserve">
<path d="M22.208,16.251c0.391-0.707-1.366-1.999-1.366-1.999s0.425-0.41,1.051,0c0.064-0.601-1.103-0.983-1.924-1.177
	c0.142-0.022,0.3-0.067,0.475-0.155c-1.039-0.176-0.784-1.254-0.784-1.254s0.667,1.431,1.182,0.862
	c-0.868-0.36-0.398-1.92-0.398-1.92s0.746-0.829,1.059,0.039c0.352-0.588-0.661-1.098-0.661-1.098s0.837-0.233,1.051,0
	c0.158-0.666-1.605-1.488-1.605-1.488s1.058-0.117,0.979-0.432c-0.528-0.019-1.803-0.079-1.803-0.079s2.066-1.114,2.429-0.782
	c-0.077-0.901-2.898,0.195-2.898,0.195s0.823-1.332,1.057-1.313c-0.215-0.549-1.253,0.607-1.253,0.607s0.45-0.882,0.666-1.204
	c-0.076-0.063-0.42,0.203-0.788,0.525c0.092-0.087,0.185-0.175,0.278-0.262C18.29,5.26,18.21,5.055,18.21,5.055
	s1.49-2.342,0.744-2.754c-0.009,0.526-0.35,1.084-0.656,1.484c-0.007-0.113-0.083-0.231-0.284-0.348
	c-0.273,0.705-1.332,1.332-1.332,1.332s-0.099-1.665,0-2.195c-0.163-0.065-0.352,0.55-0.486,1.108
	c-0.163-0.553-1.592-0.167-1.592-0.167s0.491-0.606,0-1.411c-0.136,0.941-0.822,1.567-0.822,1.567s0.646-3.761-1.528-3.486
	c1.466,1.07,0.627,2.272,0.627,2.272s-0.862-2.391-1.449-1.843c0.245,0.232,0.414,0.634,0.562,0.896
	c-0.282-0.279-0.762-0.661-0.875-0.386c0.431,0.236,0.823,1.998,0.823,1.998s-0.62-1.503-1.193-1.41c0.429,0.412,0,1.215,0,1.215
	L9.433,3.085c0,0,0.04-0.764,0.274-0.823C9.453,1.79,8.806,2.849,8.649,2.889C8.493,2.928,8.943,0.46,9.708,0.186
	c-0.431-0.824-2.43,1.37-2.43,1.37S7.102,1.165,7.513,0.772C7.2,0.518,5.867,2.065,5.867,2.065s0.421-1.63,1.214-1.88
	C6.318-0.384,5.554,1.869,5.554,1.869S5.397,1.438,4.81,1.517C4.222,1.596,2.585,2.041,1.166,3.829
	C0.422,4.764,0.044,6.637,0.004,7.69c-0.089,2.333,1.306,3.099,1.981,3.332c-0.291,1.521,0.038,3.07,0.291,3.721
	c0.011,0.041,0.021,0.085,0.03,0.127c-0.232,0.047-0.594,0.047-0.884-0.362c-0.123,0.59,0.562,0.677,0.935,0.683
	c0.041,0.393-0.009,0.817-0.276,1.219c-0.562,0.842-1.188,1.228-1.391,1.792c-0.287,0.788,1.227,0.926,1.227,0.926l0.004,0.298
	c0,0-0.486,0.471-0.383,0.838c0.137,0.49,1.112,0.316,1.112,0.316s-0.936,0.345-0.891,0.801c0.044,0.456,0.435,0.653,0.435,0.653
	s-0.906,1.781,0.427,2.174c1.332,0.391,4.037-1.235,4.388,0.665c0.341,1.312,1.858,4.531,1.333,5.134
	c-0.526,0.603-1.333,1.528-1.333,1.528l13.833,0.431c0,0-4.272-5.525-4.703-6.152c-0.326-0.475-1.435-2.04-1.272-3.521l0.17,0.151
	l0.822-1.176c0,0,0.588,0.707,0.196,1.176c0.568-0.196,0.587-1.606,0.587-1.606s0.528,0.672,0.274,1.098
	c0.372-0.139,0.391-1.607,0.391-1.607s0.412,1.588,0.196,2.116c0.823-0.118,0.392-3.096,0.392-3.096s0.431,1.353,0.47,2.076
	c0.354-0.255,0.157-2.586,0.157-2.586s0.98,1.529,1.058,2.313c0.646-0.412-0.666-2.665-0.784-2.86
	c-0.117-0.196,1.215,0.451,1.607,0.979c0.314-0.765-1.528-1.528-1.528-1.528s1.605,0.333,1.965,0.77
	c0.298-0.661-1.573-1.515-1.573-1.515s1.802,0.354,2.037,0.863c0.333-0.766-2.116-2.156-2.116-2.156l1.652,0.706l-0.319-0.745
	c0,0,1.293,1.725,1.488,2.195c0.51-0.511-1.332-2.822-1.332-2.822S21.562,15.154,22.208,16.251z M16.172,3.792
	c-0.094,0.399-0.156,0.743-0.156,0.743h-1.88C14.135,4.535,15.839,3.569,16.172,3.792z"/>
<g>
</g>
<g>
</g>
<g>
</g>
<g>
</g>
<g>
</g>
<g>
</g>
<g>
</g>
<g>
</g>
<g>
</g>
<g>
</g>
<g>
</g>
<g>
</g>
<g>
</g>
<g>
</g>
<g>
</g>
</svg>
