<?xml version="1.0" encoding="iso-8859-1"?>
<!-- Generator: Adobe Illustrator 16.0.0, SVG Export Plug-In . SVG Version: 6.00 Build 0)  -->
<!DOCTYPE svg PUBLIC "-//W3C//DTD SVG 1.1//EN" "http://www.w3.org/Graphics/SVG/1.1/DTD/svg11.dtd">
<svg version="1.1" id="Layer_1" xmlns="http://www.w3.org/2000/svg" xmlns:xlink="http://www.w3.org/1999/xlink" x="0px" y="0px"
	 width="30.241px" height="31.35px" viewBox="0 0 30.241 31.35" style="enable-background:new 0 0 30.241 31.35;"
	 xml:space="preserve">
<g>
	<path d="M10.551,20.203c0.179-0.584,0.149-1.188-0.082-1.705c-0.223-0.493-0.607-0.847-1.081-0.992
		c-0.151-0.047-0.308-0.07-0.466-0.071c-0.882-0.007-1.708,0.673-2.008,1.654c-0.178,0.582-0.148,1.188,0.083,1.703
		c0.223,0.496,0.606,0.849,1.08,0.993c0.151,0.047,0.308,0.071,0.466,0.073C9.424,21.864,10.251,21.183,10.551,20.203z"/>
	<path d="M20.553,21.989c0.15,0.001,0.301-0.019,0.447-0.059c0.478-0.132,0.871-0.474,1.108-0.963
		c0.071-0.148,0.121-0.307,0.157-0.468c-0.891,0.073-2.516-0.224-3.745-0.491c0.015,0.09,0.025,0.181,0.05,0.27
		C18.847,21.279,19.661,21.981,20.553,21.989z"/>
	<path d="M26.831,12.028c0,0-0.827-9.415-7.447-11.264L15.89,10.902c-0.268-0.549-0.611-1.243-0.994-2.011
		c1.74-3.396,4.106-7.955,4.106-7.955l0.237-0.209c-0.123-0.031-0.244-0.067-0.371-0.094c-3.676-0.771-6.464-0.242-8.301,0.446
		c0.82,1.624,5.541,10.98,5.68,11.416c0.921,1.914,2.558,3.111,3.613,3.726c0.482-1.346,0.756-3.199,0.507-5.748
		c-0.177-1.037-0.622-6.96,0.444-7.996c2.843,2.34,2.547,6.93,2.547,7.137c0,0.132,2.399,2.873,2.34,3.287
		c0.144,0.777-1.066,0.978-1.481,1.511c0.829,1.422-1.303,1.955-1.303,1.955s2.073,0.918,0.178,1.954
		c0.541,1.127,0.631,1.454,0.144,1.792c-0.02,0.437-0.122,0.862-0.309,1.25c-0.352,0.729-0.95,1.242-1.685,1.444
		c-0.227,0.063-0.462,0.094-0.698,0.093c-1.295-0.011-2.468-0.99-2.852-2.38c-0.014-0.054-0.025-0.109-0.037-0.165l-0.187-0.589
		c-0.349-0.086-0.566-0.143-0.566-0.143s0.18-0.054,0.457-0.205l-2.279-7.214l-1.471-0.744L10.244,1.207
		C8.748,1.819,7.974,2.5,7.974,2.5S6.582-0.055,5.13,0.001C6.152,0.745,7.063,2.566,7.074,2.6c0.011,0.033-2.136-2.299-3.565-1.966
		C5.175,1.159,6.03,2.722,6.03,2.722S3.843,1.115,2.143,1.489c1.492,0.439,2.999,1.521,2.999,1.521S2.554,1.959,1.144,2.922
		c1.514-0.044,3.032,0.444,3.032,0.444s-3.25-0.089-3.72,1.088c1.388-0.496,3.32-0.311,3.32-0.311S0.126,4.831,0,6.164
		c1.073-0.829,3.01-1.155,3.01-1.155S0.289,6.697,0.1,7.941C1.281,6.52,3.221,5.542,3.221,5.542s-1.422,4.161-1.289,4.31
		c0.133,0.147,0.607,0.43,0.711,1.021c0.104,0.593-2.709,3.865-2.399,4.398c0.311,0.532,1.732,0.844,1.732,0.844
		s-0.562,1.273-0.355,1.599c0.207,0.326,0.488,0.312,0.488,0.312s-0.385,0.088-0.222,0.443c0.163,0.355,0.93,0.853,1.066,0.978
		c-1.069,2.996,0.078,3.186,4.46,3.049c-0.544-0.272-0.98-0.73-1.249-1.329c-0.322-0.719-0.366-1.551-0.123-2.343
		c0.351-1.145,1.242-1.992,2.277-2.23c0.223-0.084,3.305-1.271,4.769-4.105c0.022-0.062,0.141-0.311,0.332-0.69l0.848,0.429
		l-0.004,0.002l-2.833,8.244c0,0-0.001-0.007-0.006-0.02c-0.002,0.006-0.003,0.011-0.005,0.018c-0.289,0.946-0.949,1.69-1.755,2.054
		c1.839,0.063,3.372,0.077,3.372,0.077l2.288,0.111c0,0,0.979,5.12-2.065,7.019c4.109-0.244,4.198-6.131,4.198-6.131
		s0.089,4.665-1.488,6.53c2.599-0.777,2.465-5.686,2.465-5.686s1.644,6.13-4.375,6.863c9.995,0.688,10.083-7.353,10.083-7.353
		s0.755,0.911,2.11,0.755c-2.177-1.776-1.755-6.663-1.755-6.663s0.399,5.819,2.577,5.931c-0.273-0.328-0.48-0.819-0.638-1.4
		c3.612-0.606,1.926-6.218,1.926-6.218s1.488,0.532,1.466,2.776C31.651,17.536,26.831,12.028,26.831,12.028z M26.436,22.571
		c-0.698-2.585-0.404-6.967-0.404-6.967S29.248,18.909,26.436,22.571z"/>
	<circle cx="14.456" cy="10.837" r="0.48"/>
</g>
<g>
</g>
<g>
</g>
<g>
</g>
<g>
</g>
<g>
</g>
<g>
</g>
<g>
</g>
<g>
</g>
<g>
</g>
<g>
</g>
<g>
</g>
<g>
</g>
<g>
</g>
<g>
</g>
<g>
</g>
</svg>
