<?xml version="1.0" encoding="iso-8859-1"?>
<!-- Generator: Adobe Illustrator 16.0.0, SVG Export Plug-In . SVG Version: 6.00 Build 0)  -->
<!DOCTYPE svg PUBLIC "-//W3C//DTD SVG 1.1//EN" "http://www.w3.org/Graphics/SVG/1.1/DTD/svg11.dtd">
<svg version="1.1" id="Layer_1" xmlns="http://www.w3.org/2000/svg" xmlns:xlink="http://www.w3.org/1999/xlink" x="0px" y="0px"
	 width="31.08px" height="23.422px" viewBox="0 0 31.08 23.422" style="enable-background:new 0 0 31.08 23.422;"
	 xml:space="preserve">
<path d="M13.879,4.645c-1.554-1.586-6.131,0-6.131,0s2.001,11.166,2.3,12.772c0.299,1.607-1.713,6.101-3.917,5.195
	c1.149-1.097,0.938-4.429,0.938-4.429s-1.119,4.152-3.151,4.429c1-1.288,0.852-3.236,0.852-3.236S2.618,24.518,0,23.208
	c2.043-0.767,2.555-4.938,2.555-4.938s-1.575,2.672-1.874,2.384c0.852-1.149,1.618-4.513,1.618-4.513s-0.67,1.725-1.277,0.596
	c0.862-0.394,3.492-9.342,3.492-9.342s0.02,1.54-1.193,0.742c0.664-0.292,1.475-4.438,3.64-6.131
	c2.976-2.328,6.905-2.535,8.878-1.107c5.045,2.895,4.747,8.218,6.045,9.707c1.298,1.49,8.26,6.887,9.196,6.643
	c-0.01,1.043-2.64,0.596-2.64,0.596s1.064,1.117,1.874,1.277c-0.597,0.937-5.365-2.555-5.365-2.555s3.691,4.035,4.769,3.491
	c-1.33,2.288-5.705-3.237-5.449-3.151c0.255,0.086,2.33,4.705,4.087,4.258c-0.511,2.683-5.535-1.277-5.535-1.277
	s0.267,2.268,1.022,2.895c-1.331,0.299-1.533-2.043-1.533-2.043s-0.66,1.097,0.255,1.959c-1.585-0.032-1.873-2.3-1.873-2.3
	s-1.66,1.917,0.171,2.811c-2.726,0.191-2.83-2.832-3.832-6.302c-1.001-3.47,2.457-3.422,1.234-5.195
	c-0.575-0.834-1.365-1.268-2.235-2.617C15.051,7.576,14.701,5.484,13.879,4.645z"/>
<g>
</g>
<g>
</g>
<g>
</g>
<g>
</g>
<g>
</g>
<g>
</g>
<g>
</g>
<g>
</g>
<g>
</g>
<g>
</g>
<g>
</g>
<g>
</g>
<g>
</g>
<g>
</g>
<g>
</g>
</svg>
