<?xml version="1.0" encoding="iso-8859-1"?>
<!-- Generator: Adobe Illustrator 16.0.0, SVG Export Plug-In . SVG Version: 6.00 Build 0)  -->
<!DOCTYPE svg PUBLIC "-//W3C//DTD SVG 1.1//EN" "http://www.w3.org/Graphics/SVG/1.1/DTD/svg11.dtd">
<svg version="1.1" id="Layer_1" xmlns="http://www.w3.org/2000/svg" xmlns:xlink="http://www.w3.org/1999/xlink" x="0px" y="0px"
	 width="22.957px" height="31.431px" viewBox="0 0 22.957 31.431" style="enable-background:new 0 0 22.957 31.431;"
	 xml:space="preserve">
<g>
	<path d="M12.295,21.01c-0.588,0.21-0.593,0.88,0,1.051c0.593,0.17,2.479-0.127,4.958,1.429
		C16.791,21.431,12.883,20.799,12.295,21.01z"/>
	<path d="M11.032,21.01c-0.588-0.211-4.496,0.421-4.958,2.479c2.479-1.556,4.365-1.259,4.958-1.429
		C11.625,21.89,11.621,21.22,11.032,21.01z"/>
	<path d="M11.691,26.262c-1.639-0.061-3.291-0.868-3.346-0.461c-0.105,0.777,0.652,5.021,1.135,5.21
		c0.483,0.189,2.202-0.252,2.372,0.42c0.758-0.63,1.977-0.188,2.25-0.441c0.273-0.252,1.344-4.77,0.819-5.188
		C14.671,25.6,13.187,26.317,11.691,26.262z"/>
	<path d="M22.169,8.404c-1.513-1.177-2.626-4.539-2.815-5.127c-0.631-0.126-1.219,0.588-1.219,0.588s-0.398-0.63-0.504-1.135
		c-0.567,0.085-1.135,0.547-1.135,0.547s-0.504-1.177-0.42-1.849c-0.441,0.021-1.013,0.672-1.013,0.672s0.004-1.029-0.206-1.597
		c-1.071,0.063-1.597,0.546-1.597,0.546S12.883,0.566,12.925,0c-0.61,0.021-1.975,1.135-1.975,1.135s-0.378-0.231-0.252-0.589
		C10.11,0.566,9.563,1.135,9.563,1.135S9.165,0.798,9.312,0.252C8.492,0.272,6.958,2.269,6.958,2.269s-0.583-0.417-0.357-0.63
		C6.136,2.08,4.437,4.159,4.437,4.159S3.702,4.601,3.513,4.118c-0.567,0.42-1.008,2.185-1.008,2.185s-0.567-0.294-0.841-0.63
		c-0.273,0.398,0,2.814,0,2.814s-1.407,0.105-1.639-0.42C-0.08,8.551,0.067,20.799,2.126,21.346c-0.546-10,2.647-10,2.941-10.463
		c0.294-0.462-0.672-2.396,0-2.899s1.219-0.925,2.605-0.84c1.386,0.084,3.319,1.261,3.319,1.261l4.749-1.64
		c0,0,3.067,4.748,4.832,6.514c1.765,1.765,0.672,8.828,1.387,8.952S23.683,9.58,22.169,8.404z"/>
</g>
<g>
</g>
<g>
</g>
<g>
</g>
<g>
</g>
<g>
</g>
<g>
</g>
<g>
</g>
<g>
</g>
<g>
</g>
<g>
</g>
<g>
</g>
<g>
</g>
<g>
</g>
<g>
</g>
<g>
</g>
</svg>
