<?xml version="1.0" encoding="iso-8859-1"?>
<!-- Generator: Adobe Illustrator 16.0.0, SVG Export Plug-In . SVG Version: 6.00 Build 0)  -->
<!DOCTYPE svg PUBLIC "-//W3C//DTD SVG 1.1//EN" "http://www.w3.org/Graphics/SVG/1.1/DTD/svg11.dtd">
<svg version="1.1" id="Layer_1" xmlns="http://www.w3.org/2000/svg" xmlns:xlink="http://www.w3.org/1999/xlink" x="0px" y="0px"
	 width="24.116px" height="31.129px" viewBox="0 0 24.116 31.129" style="enable-background:new 0 0 24.116 31.129;"
	 xml:space="preserve">
<path d="M23.828,18.185c1.163-2.621-1.573-4.521-1.573-4.521s1.065-2.327,0.557-3.212s-1.147-1.359-1.081-2.162
	c0.065-0.804,2.949-2.786-0.59-6.128c-3.54-3.343-7.734-0.541-8.782-0.59C11.31,1.521,9.95-1.083,6.427,0.522
	c3.277,0.082,2.949,0.786,2.949,0.786S3.593,1.357,3.249,4.651c0.59-1.114,1.573-1.622,1.77-1.605c0.197,0.016,0.328,1.753,0,1.966
	C4.69,5.225,1.397,6.601,1.971,9.141c0.574,2.54,1.344,1.966,1.54,3.899c0.197,1.934-2.669,3.753-3.211,4.129
	c-0.542,0.376,2.146-0.792,2.589-0.982c-1.393,1.703-2.164,3.758-2.589,4.751c-0.425,0.993-0.523,4.025,0.558,4.895
	c-0.655-5.883,0.884-5.976,0.884-5.976s0.201,0.597,0.451,1.518C2.24,22.52,2.27,25.606,1.25,26.705
	c1.13,0.123,1.321-2.397,1.345-3.666c0.557,2.575,0.985,6.089-0.198,8.09c3.374-0.447,0.557-9.372,0.557-9.372
	s1.115,0.295,1.344,3.539c0.993-0.754-1.845-5.21-0.852-7.274c0.381-0.405,0.274,1.692,0.655,1.376
	c2.328-1.54,3.005-5.778,3.506-6.554c0.94-0.252,0.787,1.999,0.787,1.999s0.701-2.272,0.459-3.015
	c-0.242-0.743,2.557-4.436,5.046-4.261c2.489,0.176,2.797,1.508,3.572,1.934c0.774,0.426,0.819,3.244,0.819,3.244
	s0.786,1.344,1.704,1.639c-0.442,1.376-0.246,1.573,0.196,2.294s0.442,4.571,0.557,5.473c0.115,0.9-1.77,2.818-1.77,2.818
	s1.507-0.524,2.425-1.868c0.062-0.09,0.118-0.153,0.17-0.201c-0.004,0.726-0.062,2.19-0.399,4.265
	c0.547-0.656,0.83-2.376,0.958-3.448c0.134,0.9,0.161,2.22,0.319,2.728c0.295,0.939,0.688,1.49-0.393,3.768
	c2.359-0.704,0.524-5.537,0.721-6.717s0.59-2.262,0.557-3.933c-0.033-1.672-1.376-4.194-1.376-4.194S23.354,14.765,23.828,18.185z"
	/>
<g>
</g>
<g>
</g>
<g>
</g>
<g>
</g>
<g>
</g>
<g>
</g>
<g>
</g>
<g>
</g>
<g>
</g>
<g>
</g>
<g>
</g>
<g>
</g>
<g>
</g>
<g>
</g>
<g>
</g>
</svg>
