<?xml version="1.0" encoding="iso-8859-1"?>
<!-- Generator: Adobe Illustrator 16.0.0, SVG Export Plug-In . SVG Version: 6.00 Build 0)  -->
<!DOCTYPE svg PUBLIC "-//W3C//DTD SVG 1.1//EN" "http://www.w3.org/Graphics/SVG/1.1/DTD/svg11.dtd">
<svg version="1.1" id="Layer_1" xmlns="http://www.w3.org/2000/svg" xmlns:xlink="http://www.w3.org/1999/xlink" x="0px" y="0px"
	 width="16.536px" height="28.983px" viewBox="0 0 16.536 28.983" style="enable-background:new 0 0 16.536 28.983;"
	 xml:space="preserve">
<path d="M7.135,0.418c-5.519-1.554-5.493,6.27-5.493,6.27l0.804,4.448c0,0-3.322,12.566-2.224,16.316
	c0.294,0.59,0.491-0.306,0.491-0.306l0.313,1.432c0,0,0.135,0.321,1.983-0.081c2.679-1.822,0.288-16.04-0.044-17.143
	C2.634,10.251,2.849,8.67,2.849,8.67s2.303-0.455,2.719-1.165c0.416-0.71,0.395-1.53,0.496-3.201c0.295,3.885,1.742,3.67,1.742,3.67
	S8.408,7.05,8.997,7.425c0.134,0.723,0.442,0.469,0.442,0.469s3.001-0.24,3.162-0.67c0.165,3.188,0.188,0.752,0.174,2.438
	c-1.152,4.528-1.272,16.103-0.147,18.085c0.908,1.599,2.193,1.445,3.242,0.67c0.126-0.093,0.029-0.778,0.161-0.898
	c0.131-0.119,0.077,0.669,0.215,0.523c1.42-1.501-2.813-18.139-2.813-18.139S14.021-2.396,7.135,0.418z"/>
<g>
</g>
<g>
</g>
<g>
</g>
<g>
</g>
<g>
</g>
<g>
</g>
<g>
</g>
<g>
</g>
<g>
</g>
<g>
</g>
<g>
</g>
<g>
</g>
<g>
</g>
<g>
</g>
<g>
</g>
</svg>
