<?xml version="1.0" encoding="iso-8859-1"?>
<!-- Generator: Adobe Illustrator 16.0.0, SVG Export Plug-In . SVG Version: 6.00 Build 0)  -->
<!DOCTYPE svg PUBLIC "-//W3C//DTD SVG 1.1//EN" "http://www.w3.org/Graphics/SVG/1.1/DTD/svg11.dtd">
<svg version="1.1" id="Layer_1" xmlns="http://www.w3.org/2000/svg" xmlns:xlink="http://www.w3.org/1999/xlink" x="0px" y="0px"
	 width="27.338px" height="31.842px" viewBox="0 0 27.338 31.842" style="enable-background:new 0 0 27.338 31.842;"
	 xml:space="preserve">
<g>
	<path d="M22.005,14.901c0.447-0.673,5.333-8.034,5.333-8.034l-0.922-0.613c0,0-4.906,7.386-5.335,8.033s-4.362,1.133-4.545,1.411
		c-0.186,0.277-1.385,2.084-1.385,2.084l5.645,3.747c0,0,1.182-1.78,1.385-2.083C22.381,19.143,21.558,15.573,22.005,14.901z"/>
	<path d="M13.331,21.496l0.202,0.135c0.059-0.091,0.117-0.181,0.177-0.273c0.423-0.625,0.845-1.249,1.176-1.708
		c0.33-0.459,0.558-0.761,0.558-0.761s-0.19,0.326-0.487,0.809c-0.295,0.482-0.707,1.115-1.119,1.747
		c-0.061,0.089-0.12,0.178-0.182,0.269l0.129,0.085c0.06-0.091,0.117-0.181,0.177-0.272c0.421-0.625,0.847-1.249,1.175-1.708
		c0.33-0.46,0.558-0.762,0.558-0.762s-0.19,0.327-0.486,0.809c-0.296,0.483-0.705,1.115-1.118,1.746
		c-0.062,0.09-0.122,0.179-0.184,0.269l0.142,0.095c0.06-0.091,0.118-0.181,0.177-0.272c0.423-0.625,0.847-1.249,1.177-1.709
		c0.329-0.459,0.557-0.761,0.557-0.761s-0.19,0.327-0.485,0.809c-0.297,0.482-0.707,1.114-1.12,1.746
		c-0.062,0.09-0.121,0.179-0.181,0.269l0.108,0.072c0.059-0.091,0.118-0.181,0.177-0.271c0.421-0.625,0.845-1.25,1.174-1.709
		c0.331-0.461,0.558-0.762,0.558-0.762s-0.189,0.326-0.486,0.809c-0.294,0.483-0.705,1.115-1.119,1.747
		c-0.061,0.089-0.121,0.178-0.181,0.268l0.081,0.055c0.061-0.09,0.118-0.181,0.178-0.271c0.422-0.626,0.846-1.249,1.175-1.709
		c0.33-0.459,0.557-0.762,0.557-0.762s-0.189,0.326-0.484,0.809c-0.297,0.483-0.707,1.115-1.12,1.747
		c-0.062,0.089-0.121,0.178-0.182,0.268l0.115,0.077c0.059-0.091,0.118-0.181,0.177-0.272c0.422-0.625,0.845-1.249,1.175-1.708
		c0.329-0.46,0.557-0.762,0.557-0.762s-0.189,0.327-0.485,0.81s-0.706,1.115-1.119,1.746c-0.061,0.091-0.12,0.18-0.182,0.269
		l0.103,0.068c0.058-0.09,0.117-0.181,0.177-0.271c0.422-0.625,0.845-1.25,1.174-1.709c0.331-0.46,0.557-0.762,0.557-0.762
		s-0.188,0.327-0.485,0.808c-0.294,0.484-0.706,1.116-1.119,1.747c-0.061,0.09-0.12,0.178-0.181,0.268l0.129,0.086
		c0.058-0.091,0.118-0.181,0.176-0.272c0.422-0.625,0.847-1.25,1.175-1.709c0.331-0.46,0.559-0.761,0.559-0.761
		s-0.191,0.326-0.486,0.809c-0.297,0.482-0.706,1.115-1.12,1.746c-0.061,0.091-0.121,0.18-0.181,0.269l0.128,0.086
		c0.059-0.091,0.117-0.181,0.177-0.272c0.421-0.625,0.845-1.25,1.175-1.709c0.331-0.46,0.556-0.762,0.556-0.762
		s-0.188,0.326-0.484,0.808c-0.294,0.483-0.706,1.115-1.118,1.747c-0.063,0.09-0.121,0.18-0.184,0.269l0.117,0.077
		c0.058-0.091,0.116-0.181,0.176-0.272c0.421-0.625,0.845-1.249,1.176-1.709c0.329-0.459,0.557-0.761,0.557-0.761
		s-0.19,0.326-0.486,0.809c-0.296,0.481-0.707,1.114-1.119,1.746c-0.062,0.091-0.122,0.179-0.181,0.269l0.122,0.081
		c0.058-0.09,0.117-0.181,0.177-0.272c0.421-0.625,0.844-1.25,1.174-1.708c0.33-0.46,0.558-0.763,0.558-0.763
		s-0.189,0.327-0.486,0.81c-0.296,0.482-0.707,1.115-1.119,1.746c-0.061,0.09-0.122,0.179-0.182,0.269l0.122,0.082
		c0.058-0.092,0.117-0.181,0.178-0.272c0.422-0.625,0.843-1.249,1.174-1.709c0.33-0.459,0.557-0.762,0.557-0.762
		s-0.188,0.327-0.486,0.809c-0.294,0.483-0.706,1.115-1.118,1.747c-0.061,0.09-0.121,0.179-0.183,0.269l0.089,0.059
		c0.06-0.091,0.117-0.181,0.179-0.272c0.422-0.625,0.843-1.249,1.175-1.708c0.329-0.46,0.556-0.762,0.556-0.762
		s-0.189,0.327-0.485,0.81c-0.295,0.483-0.707,1.115-1.12,1.746c-0.06,0.09-0.12,0.18-0.181,0.269l0.068,0.046
		c0.06-0.091,0.119-0.181,0.178-0.271c0.422-0.626,0.844-1.25,1.174-1.71c0.331-0.46,0.558-0.761,0.558-0.761
		s-0.19,0.326-0.485,0.809c-0.296,0.482-0.707,1.115-1.12,1.746c-0.06,0.09-0.12,0.179-0.181,0.269l0.109,0.071
		c0.059-0.09,0.117-0.18,0.177-0.271c0.421-0.625,0.843-1.25,1.174-1.709c0.331-0.459,0.557-0.761,0.557-0.761
		s-0.189,0.327-0.485,0.809c-0.295,0.483-0.706,1.115-1.118,1.746c-0.062,0.091-0.122,0.179-0.182,0.27l0.082,0.055
		c0.058-0.091,0.118-0.181,0.177-0.272c0.421-0.625,0.846-1.249,1.175-1.708c0.329-0.461,0.557-0.762,0.557-0.762
		s-0.19,0.326-0.486,0.809c-0.296,0.482-0.705,1.115-1.118,1.746c-0.061,0.09-0.121,0.179-0.183,0.268l0.097,0.064
		c0.058-0.09,0.118-0.181,0.176-0.272c0.423-0.625,0.846-1.249,1.176-1.708c0.33-0.46,0.557-0.762,0.557-0.762
		s-0.19,0.326-0.486,0.808s-0.705,1.115-1.118,1.747c-0.062,0.09-0.121,0.179-0.183,0.269l0.082,0.055
		c0.06-0.09,0.118-0.181,0.178-0.271c0.422-0.625,0.845-1.249,1.175-1.709c0.331-0.46,0.558-0.762,0.558-0.762
		s-0.19,0.327-0.486,0.809c-0.296,0.483-0.707,1.115-1.12,1.746c-0.06,0.09-0.12,0.179-0.18,0.27l0.073,0.05
		c0.06-0.091,0.119-0.181,0.177-0.273c0.424-0.625,0.847-1.249,1.177-1.708s0.558-0.761,0.558-0.761s-0.19,0.326-0.487,0.809
		c-0.295,0.481-0.706,1.114-1.118,1.746c-0.062,0.09-0.122,0.179-0.181,0.269l0.209,0.139l2.104-3.169l-4.633-3.074L13.331,21.496z"
		/>
	<path d="M19.063,26.316c0-0.605-0.368-1.178-0.727-1.542l-0.443,0.636l-0.117-0.083l-4.295-2.862
		c-0.104,0.272-0.129,0.415-0.146,0.708c-0.076,1.242,0.963,4.538,3.447,5.171c-0.836,1.394,0.355,1.926,0.355,1.926
		s2.23,0.279,1.318-2.281C18.126,27.761,19.063,27.888,19.063,26.316z"/>
	<path d="M13.808,19.454l0.944-1.391l-0.279-0.254l0.832-1.105c0.249-0.869,1.465-2.28,1.376-3.924
		c-0.101-1.876-1.748-4.512-1.748-4.512s0.025-8.467-5.755-8.264C3.398,0.207,1.624,9.585,1.573,10.701
		c-0.051,1.115,0.152,2.788,0.152,2.788s-0.508,0.102-0.457,0.558c0.051,0.457,0.482,0.913,0.508,1.268s-1.065,0.279-1.015,0.761
		c0.051,0.481,0.761,0.659,0.659,1.014s-1.47,0.735-1.42,1.927c0.051,1.191,2.104,2.307,2.23,3.65c0.127,1.343-1.799,2.18-1.977,3.6
		c-0.178,1.419,2.357,2.281,2.383,3.574c0.025,1.292-1.673,2.002-1.673,2.002s4.437-0.076,2.839-5.121
		c-0.279-0.507,2.535-3.27,1.572-5.881c0.963-0.71,0-2.333,0-2.333s0.982-0.786,0.963-2.154c-0.02-1.369-0.963-3.118-0.963-3.118
		S7.53,9.357,8.214,7.608c2.384,0.887,4.463-3.6,4.463-3.6s1.824,3.042,1.723,6.287c-0.304,0.583-2.027,4.081-1.977,5.627
		C12.45,16.758,13.054,18.093,13.808,19.454z"/>
</g>
<g>
</g>
<g>
</g>
<g>
</g>
<g>
</g>
<g>
</g>
<g>
</g>
<g>
</g>
<g>
</g>
<g>
</g>
<g>
</g>
<g>
</g>
<g>
</g>
<g>
</g>
<g>
</g>
<g>
</g>
</svg>
