<?xml version="1.0" encoding="iso-8859-1"?>
<!-- Generator: Adobe Illustrator 16.0.0, SVG Export Plug-In . SVG Version: 6.00 Build 0)  -->
<!DOCTYPE svg PUBLIC "-//W3C//DTD SVG 1.1//EN" "http://www.w3.org/Graphics/SVG/1.1/DTD/svg11.dtd">
<svg version="1.1" id="Layer_1" xmlns="http://www.w3.org/2000/svg" xmlns:xlink="http://www.w3.org/1999/xlink" x="0px" y="0px"
	 width="16.599px" height="31.233px" viewBox="0 0 16.599 31.233" style="enable-background:new 0 0 16.599 31.233;"
	 xml:space="preserve">
<path d="M8.208,0.43C5.669-1.105,3.152,3.603,2.927,5.138S3.131,10.111,0,10.889c0.082,0.757,2.947-0.717,2.947-0.717l-0.757,1.29
	l0.757,0.164c0,0-0.716,1.248-1.331,1.412c-0.102,0.409,1.597-0.308,1.597-0.308S2.292,14,1.269,14.471
	c-0.021,0.716,1.433-0.594,1.781-0.349c0.348,0.246-1.76,3.623-1.76,3.623l1.064-0.839c0,0,0.266,1.044-0.307,1.597
	c-0.573,0.553,0.778-0.246,0.9,1.903c0.103,1.351,0.45,3.111-0.062,3.827c0.512,0.43,0.696-1.023,0.696-1.023
	s0.225,2.149-0.185,2.927c0.491-0.021,0.921-1.392,0.921-1.392s0.634,2.988-0.215,4.217c0.809-0.021,1.239-1.985,1.239-1.985
	s0.164,1.739,0.061,2.292c0.225,0,0.819-1.821,0.819-1.821s0.103,2.456-0.409,3.377c0.696,0.041,1.023-2.436,1.023-2.436
	s0.369,1.76,0.635,2.845c0.43-0.696-0.921-8.699-0.921-8.699l2.026,4.913c0,0-2.64-10.562-3.049-11.729
	c-0.41-1.166-0.41-8.698-0.41-8.698l0.451,3.848c0,0-0.082-4.503,1.453-7.307c1.125,2.21,5.383,5.997,5.526,7.307
	c0.144,1.31-1.269,2.211-2.19,3.479c-0.921,1.269,1.822,7.348,1.822,7.348s-0.287,2.538-0.062,3.173s1.781,2.088,1.31,4.748
	c1.064-0.082,0.532-5.588,0.532-5.588s1.862,6.509,2.64,5.199c-2.354-4.974-1.678-7.327-1.74-8.453s-1.044-4.4-1.044-4.4
	s0.389,0.982,0.839,0.695c-0.491-0.675-0.409-1.984-0.409-1.984s0.57,0.657,1.043,0.746c-0.139-0.768-0.286-1.749-0.696-3.183
	c0.144-0.184,0.88,0.369,1.474,0.532c-1.003-0.859-1.249-2.066-1.249-2.066s1.331,0.081,1.433-0.287
	c-0.839,0.021-0.839-0.471-0.839-0.471s0.757,0,1.085-0.368c-0.737-0.164-0.614-0.308-1.064-0.512
	c-0.45-0.205-0.962-3.438-1.146-4.441C14.102,4.032,11.318-1.576,8.208,0.43z"/>
<g>
</g>
<g>
</g>
<g>
</g>
<g>
</g>
<g>
</g>
<g>
</g>
<g>
</g>
<g>
</g>
<g>
</g>
<g>
</g>
<g>
</g>
<g>
</g>
<g>
</g>
<g>
</g>
<g>
</g>
</svg>
