<?xml version="1.0" encoding="iso-8859-1"?>
<!-- Generator: Adobe Illustrator 16.0.0, SVG Export Plug-In . SVG Version: 6.00 Build 0)  -->
<!DOCTYPE svg PUBLIC "-//W3C//DTD SVG 1.1//EN" "http://www.w3.org/Graphics/SVG/1.1/DTD/svg11.dtd">
<svg version="1.1" id="Layer_1" xmlns="http://www.w3.org/2000/svg" xmlns:xlink="http://www.w3.org/1999/xlink" x="0px" y="0px"
	 width="14.366px" height="31.624px" viewBox="0 0 14.366 31.624" style="enable-background:new 0 0 14.366 31.624;"
	 xml:space="preserve">
<path d="M9.103,2.683c0,0-2.821,5.192-3.326,6.477c-0.505,1.285,0.428,3.152,0.934,3.56c-0.039,0.798-0.642,0.817-0.642,0.817
	s0.253,2.547,0.915,3.014c-0.583,0.857-1.206-0.68-1.206-0.68s0.467,2.393,1.108,2.858c0.02,1.052-1.108,1.983-1.108,1.983
	s0.623,1.285,1.284,1.576c-0.389,1.227-1.809-0.584-1.809-0.584s1.304,2.549,1.925,2.51c0.001,1.361-1.225,0.641-1.225,0.641
	s1.226,1.928,2.275,2.218c-0.427,1.109-2.509-0.408-2.509-0.408s0.331,3.813,0.759,4.317c-0.661,0.078-0.7-0.467-0.7-0.467
	s0.311,1.05-0.525,1.109c0.137-0.72-1.148-2.549-1.225-4.026c-0.078-1.478-0.817-3.677-0.817-3.677s-1.557,0.603-2.334-0.35
	c0.895-0.213,1.4-1.051,1.4-1.051s-1.09,0.564-1.4-0.524c0.935,0.078,0.35-6.651,0.35-6.651S0.563,16.315,0,14.994
	c0.837-0.155,1.692-6.477,1.692-6.477s-0.584,0.991-1.05,0.524C1.227,8.693,1.75,6.009,1.75,6.009S1.225,6.514,0.817,5.892
	c0.526-0.115,0.409-4.084,4.26-5.543c3.851-1.459,7.76,1.984,8.635,4.26c0.875,2.275-0.31,6.225-0.31,6.225s0.194,2.528,0.964,2.795
	c-0.303,1.095-1.062,0.549-1.062,0.549s-0.291,2.257,0.467,2.918c-0.836,0.935-1.284-0.059-1.284-0.059s0.176,1.498,0.7,2.043
	c-0.833,0.67-0.875-0.467-0.875-0.467s0.04,2.178,0.233,2.742c-1.088,0.253-0.812-0.957-0.812-0.957s-1.911,0.47-1.463-1.728
	c0.448-2.196-0.292-3.987,0.35-7.177S9.103,2.683,9.103,2.683z"/>
<g>
</g>
<g>
</g>
<g>
</g>
<g>
</g>
<g>
</g>
<g>
</g>
<g>
</g>
<g>
</g>
<g>
</g>
<g>
</g>
<g>
</g>
<g>
</g>
<g>
</g>
<g>
</g>
<g>
</g>
</svg>
