<?xml version="1.0" encoding="iso-8859-1"?>
<!-- Generator: Adobe Illustrator 16.0.0, SVG Export Plug-In . SVG Version: 6.00 Build 0)  -->
<!DOCTYPE svg PUBLIC "-//W3C//DTD SVG 1.1//EN" "http://www.w3.org/Graphics/SVG/1.1/DTD/svg11.dtd">
<svg version="1.1" id="Layer_1" xmlns="http://www.w3.org/2000/svg" xmlns:xlink="http://www.w3.org/1999/xlink" x="0px" y="0px"
	 width="20.698px" height="31.116px" viewBox="0 0 20.698 31.116" style="enable-background:new 0 0 20.698 31.116;"
	 xml:space="preserve">
<g>
	<path d="M10.349,0C4.642,0,0,6.979,0,15.558s4.642,15.558,10.349,15.558c5.706,0,10.349-6.979,10.349-15.558S16.055,0,10.349,0z
		 M10.349,29.44c-4.782,0-8.673-6.228-8.673-13.882S5.567,1.676,10.349,1.676c4.782,0,8.672,6.228,8.672,13.882
		S15.131,29.44,10.349,29.44z"/>
	<path d="M16.373,21.426c0-0.97-1.533-1.815-1.533-1.815s0.547-1.017,0.375-1.908c-0.172-0.893-1.142-1.502-1.189-2.003
		c-0.047-0.5,0.939-1.471,0.876-2.627c-0.062-1.158-1.08-2.785-1.08-2.785s0.016-5.226-3.551-5.101
		c-3.567,0.125-4.663,5.914-4.693,6.602c-0.032,0.688,0.093,1.721,0.093,1.721s-0.313,0.063-0.281,0.344
		c0.031,0.282,0.297,0.563,0.313,0.782c0.016,0.219-0.657,0.172-0.625,0.47c0.031,0.296,0.469,0.406,0.406,0.625
		c-0.062,0.219-0.907,0.453-0.875,1.189c0.031,0.735,1.298,1.423,1.376,2.252s-1.111,1.346-1.22,2.222s1.455,1.408,1.47,2.206
		c0.016,0.798-1.032,1.236-1.032,1.236s2.738-0.047,1.752-3.161c-0.172-0.313,1.564-2.018,0.97-3.629c0.595-0.438,0-1.44,0-1.44
		s0.606-0.484,0.595-1.329s-0.595-1.924-0.595-1.924s1.33-2.394,1.752-3.473c1.471,0.547,2.753-2.221,2.753-2.221
		s1.126,1.877,1.064,3.88c-0.188,0.359-1.251,2.519-1.221,3.472c0.031,0.955,1.283,2.973,1.283,2.973s-0.672,0.735-0.719,1.501
		c-0.047,0.767,0.594,2.801,2.128,3.192c-0.516,0.86,0.219,1.188,0.219,1.188s1.376,0.172,0.813-1.408
		C15.793,22.318,16.373,22.396,16.373,21.426z"/>
</g>
<g>
</g>
<g>
</g>
<g>
</g>
<g>
</g>
<g>
</g>
<g>
</g>
<g>
</g>
<g>
</g>
<g>
</g>
<g>
</g>
<g>
</g>
<g>
</g>
<g>
</g>
<g>
</g>
<g>
</g>
</svg>
