<?xml version="1.0" encoding="iso-8859-1"?>
<!-- Generator: Adobe Illustrator 16.0.0, SVG Export Plug-In . SVG Version: 6.00 Build 0)  -->
<!DOCTYPE svg PUBLIC "-//W3C//DTD SVG 1.1//EN" "http://www.w3.org/Graphics/SVG/1.1/DTD/svg11.dtd">
<svg version="1.1" id="Layer_1" xmlns="http://www.w3.org/2000/svg" xmlns:xlink="http://www.w3.org/1999/xlink" x="0px" y="0px"
	 width="14.604px" height="31.512px" viewBox="0 0 14.604 31.512" style="enable-background:new 0 0 14.604 31.512;"
	 xml:space="preserve">
<path d="M9.505,5.486c0,0-0.191,2.131-1.066,2.105c0.619-0.449,0.11-1.053,0.11-1.053S7.202,9.107,5.706,8.795
	c1.34-0.602,1.585-1.887,1.585-1.887S2.835,9.26,2.288,9.313c-0.191,0.575,0.465,1.833,1.066,3.09s2.214,2.433,2.214,2.433
	s0.875,5.043,1.367,7.107c0.492,2.064,1.025,9.814,0.369,9.199s-2.132-8.119-3.567-9.227c-1.435-1.106-2.419-3.459-2.419-3.459
	v1.491c0,0-2.009-7.34-1.066-13.327c1.831-7.668,8.488-7.545,10.21-5.246c4.183,0.284,3.487,6.725,3.567,9.101
	c0.08,2.376,0.287,9.35,0.574,11.522c-0.943-0.287-0.861-2.255-0.861-2.255s-1.599,8.406-1.763,11.769
	c-1.681-0.574-1.804-9.268-1.804-9.268s-0.492-0.041-0.738,0.82c-0.738-0.943-0.082-8.365-0.082-8.365s2.748-1.599,2.666-3.978
	c0.205-3.649-2.501-5.413-2.501-5.413"/>
<g>
</g>
<g>
</g>
<g>
</g>
<g>
</g>
<g>
</g>
<g>
</g>
<g>
</g>
<g>
</g>
<g>
</g>
<g>
</g>
<g>
</g>
<g>
</g>
<g>
</g>
<g>
</g>
<g>
</g>
</svg>
