<?xml version="1.0" encoding="iso-8859-1"?>
<!-- Generator: Adobe Illustrator 16.0.0, SVG Export Plug-In . SVG Version: 6.00 Build 0)  -->
<!DOCTYPE svg PUBLIC "-//W3C//DTD SVG 1.1//EN" "http://www.w3.org/Graphics/SVG/1.1/DTD/svg11.dtd">
<svg version="1.1" id="Layer_1" xmlns="http://www.w3.org/2000/svg" xmlns:xlink="http://www.w3.org/1999/xlink" x="0px" y="0px"
	 width="19.992px" height="31.377px" viewBox="0 0 19.992 31.377" style="enable-background:new 0 0 19.992 31.377;"
	 xml:space="preserve">
<g>
	<path d="M18.826,29.335c0,0,1.527,0.13,1.086-1.163c-1.189,0.982-1.655-0.724-1.655-0.724s1.732,0.206,1.655-0.776
		c-0.698,0.517-1.396-0.466-1.396-0.466s1.112,0.285,1.06-0.802c-0.83,0.833-1.576-2.249-1.576-2.249s1.24-5.172,0.827-7.654
		c-0.271-1.629-1.208-3.694-1.821-4.928c0.918,0.088,1.566,0.031,1.614-0.297c0.171-1.207-2.173-1.811-2.173-1.811
		s0.002-0.016,0.002-0.021C14.8,8.177,12.25,7.772,10.703,7.567c-3.012-0.4-6.43-0.406-7.492-0.397
		C2.326,7.354,0.858,7.765,0.932,8.466c0.035,0.346,1.153,0.521,2.598,0.602c-0.448,2.811-1.4,9.265-0.754,9.588
		C2.965,17,4.12,16.638,4.12,16.638s-2.086,6.586-1.689,7.465c0.259-1.189,1.327-1.225,1.327-1.225s0.035,2.363-0.275,2.795
		s-3.052,0.292-3.311,2.758c1.414-1.001,2.068-0.414,2.068-0.414S0.707,29.758,0,29.396c0.518,1.379,2-0.448,2-0.448
		s-0.931,1.896-1.466,2.293c0.792,0.396,2.087-1.879,2.087-1.879s0.619,0.241-0.174,1.138c1.948-0.879,6.345-9.568,5.448-11.102
		c-0.863-1.479-3.827-1.528-3.437-10.293c2.598,0.076,5.678-0.068,5.678-0.068s2.741,1.396,2.845,3.826
		c0.051,4.035,0,8.689,4.396,11.017c0.827,0.466,0.155,6.181,0,6.724s0.568,1.017,1.758,0.638c-1.344-0.457-0.724-1.181-0.724-1.181
		s0.931,0.75,1.5,0.078C18.981,29.827,18.826,29.335,18.826,29.335z"/>
	<path d="M10.812,6.747c1.54,0.203,4.063,0.604,5.718,0.871c0.112-1.299,0.264-3.78-0.083-5.115C15.964,0.64,9.24-0.669,7.137,0.364
		C5.492,1.173,4.42,4.796,4.029,6.343C5.557,6.351,8.32,6.415,10.812,6.747z"/>
</g>
<g>
</g>
<g>
</g>
<g>
</g>
<g>
</g>
<g>
</g>
<g>
</g>
<g>
</g>
<g>
</g>
<g>
</g>
<g>
</g>
<g>
</g>
<g>
</g>
<g>
</g>
<g>
</g>
<g>
</g>
</svg>
