<?xml version="1.0" encoding="iso-8859-1"?>
<!-- Generator: Adobe Illustrator 16.0.0, SVG Export Plug-In . SVG Version: 6.00 Build 0)  -->
<!DOCTYPE svg PUBLIC "-//W3C//DTD SVG 1.1//EN" "http://www.w3.org/Graphics/SVG/1.1/DTD/svg11.dtd">
<svg version="1.1" id="Layer_1" xmlns="http://www.w3.org/2000/svg" xmlns:xlink="http://www.w3.org/1999/xlink" x="0px" y="0px"
	 width="27.94px" height="31.843px" viewBox="0 0 27.94 31.843" style="enable-background:new 0 0 27.94 31.843;"
	 xml:space="preserve">
<g>
	<path d="M14.384,9.51l2.041,1.97c-0.488-1.601-1.493-3.213-1.493-3.213s0.025-8.467-5.754-8.264
		C3.398,0.207,1.624,9.585,1.573,10.701c-0.051,1.115,0.152,2.788,0.152,2.788s-0.507,0.102-0.456,0.558
		c0.05,0.456,0.481,0.913,0.507,1.268s-1.065,0.278-1.014,0.761c0.051,0.481,0.761,0.658,0.659,1.014s-1.47,0.735-1.419,1.927
		s2.104,2.307,2.23,3.65c0.127,1.343-1.8,2.18-1.977,3.6c-0.177,1.419,2.357,2.281,2.383,3.574c0.025,1.292-1.673,2.003-1.673,2.003
		s4.436-0.076,2.839-5.121c-0.279-0.507,2.535-3.27,1.572-5.881c0.963-0.71,0-2.332,0-2.332s0.982-0.786,0.963-2.154
		c-0.019-1.369-0.963-3.119-0.963-3.119S7.53,9.357,8.214,7.608c2.383,0.887,4.462-3.6,4.462-3.6S14.212,6.577,14.384,9.51z"/>
	<path d="M19.064,26.315c0-1.57-2.484-2.939-2.484-2.939s0.887-1.648,0.608-3.093c-0.279-1.445-1.851-2.434-1.927-3.245
		c-0.014-0.146,0.039-0.326,0.115-0.52l-2.555-2.54c-0.246,0.742-0.416,1.445-0.399,1.944c0.051,1.547,2.079,4.816,2.079,4.816
		s-1.09,1.191-1.166,2.434c-0.076,1.242,0.963,4.537,3.448,5.172c-0.836,1.394,0.355,1.926,0.355,1.926s2.23,0.279,1.318-2.281
		C18.126,27.761,19.064,27.888,19.064,26.315z"/>
	<path d="M27.265,23.423c-0.536-0.892-3.303-3.756-4.288-4.228c-0.515-0.178-2.317-1.852-2.027-2.496
		c0.103-0.245-0.798,0.216-0.798,0.216l-0.195-0.193c0.444-0.308,2.309-1.387,4.681,0.335c0.14,0.009,0.355-0.115,0.338-0.202
		c-1.665-1.848-5.436-1.646-5.436-1.646s-0.132-0.267-0.271-0.267c-0.129,0.001-0.712,0.255-0.802,0.296l-0.537-0.529l0.491-0.499
		l-0.175-0.172l-0.491,0.498l-0.132-0.129l0.491-0.498l-0.175-0.174l-0.492,0.499l-0.184-0.182l0.502-0.508l-0.176-0.173
		l-0.502,0.508l-0.131-0.129l0.501-0.509l-0.175-0.172l-0.501,0.509l-0.167-0.163l0.502-0.51l-0.175-0.173l-0.501,0.509
		l-0.131-0.128l0.501-0.512l-0.175-0.172l-0.502,0.509l-0.148-0.146l0.502-0.508l-0.176-0.173l-0.502,0.508l-0.131-0.128
		l0.501-0.509l-0.175-0.173l-0.501,0.509l-0.158-0.155l0.502-0.508l-0.175-0.174l-0.501,0.51l-0.131-0.13l0.502-0.509l-0.176-0.173
		l-0.501,0.508l-0.157-0.154l0.502-0.509l-0.176-0.173l-0.501,0.509l-0.131-0.129l0.501-0.511l-0.175-0.172l-0.501,0.51
		l-0.201-0.198l0.501-0.509l-0.175-0.173l-0.501,0.509L13.72,10.56l0.502-0.511l-0.176-0.172l-0.502,0.509l-0.271-0.267
		l-0.233,0.235l-0.699-0.688L12.337,9.67c-0.169-0.107-0.457-0.029-0.678,0.195c-0.22,0.224-0.295,0.514-0.185,0.681l-0.004,0.005
		l0.699,0.688l-0.207,0.21l0.271,0.268l-0.501,0.509l0.175,0.173l0.501-0.509l0.132,0.129l-0.502,0.509l0.175,0.173l0.501-0.509
		l0.202,0.199l-0.5,0.508l0.174,0.172l0.501-0.508l0.132,0.129l-0.502,0.51l0.175,0.172l0.501-0.508l0.158,0.154l-0.501,0.509
		l0.175,0.173l0.501-0.508l0.132,0.129l-0.502,0.509l0.175,0.171l0.501-0.508l0.158,0.155l-0.501,0.509l0.175,0.173l0.501-0.509
		l0.132,0.13L14,14.461l0.175,0.172l0.501-0.509l0.149,0.146l-0.5,0.51l0.174,0.173L15,14.442l0.131,0.129l-0.5,0.51l0.174,0.173
		l0.502-0.509l0.166,0.164l-0.501,0.509l0.175,0.172l0.501-0.509l0.131,0.131l-0.501,0.507l0.175,0.174l0.501-0.51l0.184,0.182
		l-0.513,0.519l0.176,0.174l0.512-0.519l0.132,0.129l-0.513,0.519l0.174,0.173l0.513-0.52l1.441,1.42l-0.111,0.147l0.771,0.761
		c0,0-0.445,0.907-0.203,0.801c0.641-0.3,2.34,1.479,2.526,1.99c0.485,0.977,3.39,3.702,4.289,4.227
		c0.89,0.518,1.262,1.082,2.14,0.174C28.367,24.668,27.797,24.305,27.265,23.423z"/>
</g>
<g>
</g>
<g>
</g>
<g>
</g>
<g>
</g>
<g>
</g>
<g>
</g>
<g>
</g>
<g>
</g>
<g>
</g>
<g>
</g>
<g>
</g>
<g>
</g>
<g>
</g>
<g>
</g>
<g>
</g>
</svg>
