<?xml version="1.0" encoding="iso-8859-1"?>
<!-- Generator: Adobe Illustrator 16.0.0, SVG Export Plug-In . SVG Version: 6.00 Build 0)  -->
<!DOCTYPE svg PUBLIC "-//W3C//DTD SVG 1.1//EN" "http://www.w3.org/Graphics/SVG/1.1/DTD/svg11.dtd">
<svg version="1.1" id="Layer_1" xmlns="http://www.w3.org/2000/svg" xmlns:xlink="http://www.w3.org/1999/xlink" x="0px" y="0px"
	 width="16.809px" height="31.919px" viewBox="0 0 16.809 31.919" style="enable-background:new 0 0 16.809 31.919;"
	 xml:space="preserve">
<path d="M8.277,0.411c3.709-1.952,5.725,3.622,6.149,4.866c0.424,1.244,0.059,4.832,2.206,4.309c-0.229,0.42-1.21,0.488-1.21,0.488
	s0.176,0.678,1.171,0.781c-0.396,0.308-1.698,0.098-1.698,0.098s0.424,0.737,1.024,0.957c-0.366,0.278-1.317-0.507-1.317-0.507
	s0.849,1.986,1.332,2.308c-0.527,0.059-1.664-1-1.664-1s0.654,2.597,1.093,3.241c-0.337,0.073-1.054-0.585-1.054-0.585
	s0.449,1.347,0.996,1.874c-0.585,0.195-1.132-0.625-1.132-0.625s0.332,2.323,1.015,5.232c-0.527-0.292-0.683-0.8-0.683-0.8
	s0.352,6.969,2.304,8.551c-1.737,0.175-3.104-6.169-3.104-6.169s1.015,8.414-0.352,6.637c0.691-2.578-0.528-3.733-1.036-4.65
	s0.099-4.062-0.057-4.388c-1.015-0.429-2.811-5.759-2.108-6.579c0.679-0.494,3.982-2.421,1.289-4.725
	c-1.015-0.839-3.163-3.768-4.587-5.837c-0.645,0.098-2.499,8.07-2.226,8.765c1.522,8.063,3.339,11.754,3.563,12.496
	s0.292,2.731,0.448,3.317c-0.332-0.234-0.674-2.577-0.674-2.577s-0.244,1.357,0.02,2.128c-0.469-0.186-0.547-3.592-1.308-5.017
	c-0.167,0.234,0.625,8.224,0.888,8.921c-0.478-0.39-0.771-3.202-0.771-3.202s-0.722,2.421-1.21,2.616
	c0.155-0.371,0.771-2.646,0.468-3.065c-0.361,1.367-0.761,1.542-0.761,1.542s0.303-2.07-0.156-2.089
	c-0.605,1.24-1.269,1.914-1.269,1.914s0.956-3.719,0.429-4.432c-0.273,0.546-1.054,1.21-1.054,1.21s0.605-2.03,0.234-2.538
	c-0.245-0.361-0.429,0.088-0.605,0.391c0.312-1.63,0.097-9.917,0.097-9.917s-0.371,0.537-0.839,0.742
	c0.312-0.596,0.371-1.113,0.371-1.113s-0.752,0.722-1.406,0.605c0.986-0.595,1.66-1.669,1.854-1.874
	c-0.488,0.303-1.278,0.898-1.288,0.527c0.517-0.371,0.996-1.582,0.996-1.582s-0.605,0.439-0.645,0.137
	c0.352-0.176,0.878-1.191,0.878-1.191s-1.051,1.015-1.52,0.791c0.263-0.137,0.104-0.498,0.104-0.498S0.576,11.519,0,11.362
	c2.961-1.404,2.298-4.749,3.182-7.574C3.895,1.509,6.099-0.635,8.277,0.411z"/>
<g>
</g>
<g>
</g>
<g>
</g>
<g>
</g>
<g>
</g>
<g>
</g>
<g>
</g>
<g>
</g>
<g>
</g>
<g>
</g>
<g>
</g>
<g>
</g>
<g>
</g>
<g>
</g>
<g>
</g>
</svg>
