<?xml version="1.0" encoding="iso-8859-1"?>
<!-- Generator: Adobe Illustrator 16.0.0, SVG Export Plug-In . SVG Version: 6.00 Build 0)  -->
<!DOCTYPE svg PUBLIC "-//W3C//DTD SVG 1.1//EN" "http://www.w3.org/Graphics/SVG/1.1/DTD/svg11.dtd">
<svg version="1.1" id="Layer_1" xmlns="http://www.w3.org/2000/svg" xmlns:xlink="http://www.w3.org/1999/xlink" x="0px" y="0px"
	 width="31.985px" height="30.176px" viewBox="0 0 31.985 30.176" style="enable-background:new 0 0 31.985 30.176;"
	 xml:space="preserve">
<path d="M4.231,26.534c0,0-0.159,1.229,0.75,1.496c0.373-1.336,7.592-6.842,7.592-8.393c0-1.553-5.132-11.336-2.299-13.475
	s4.115-1.816,5.827-2.191c3.102-0.107,6.31,9.784,6.31,9.784s-2.139,3.636-1.979,6.844c0.589,5.507,8.021,7.217,9.143,7.431
	c-0.267-1.443,0.803-2.673,0.803-2.673s1.561,1.12,1.016,2.673c2.246-0.32-3.261-6.789-2.939-7.539
	c0.32-0.749,3.589,2.481,2.833,3.423c2.033-1.23-0.908-4.009-2.031-4.919s-3.7-3.605-3.957-5.881S24.657,0.962,18.08,0.007
	C8.029-0.253,8.135,6.827,7.172,8.126C6.21,9.424,0.65,12.579,1.665,17.821c1.552-3.583,3.263-4.66,3.958-4.443
	s0.32,0.912,0.32,0.912s-6.201,5.134-5.935,7.432c0.267,2.299,0.962,2.566,0.962,2.566s0.269-1.764,1.123-2.619
	c0.854-0.856,3.529-0.268,3.529-0.268s-5.415,3.852-5.542,5.855c-0.126,2.004,1.478,3.5,2.654,2.699
	c-1.632-1.143-2.085-2.514-1.658-2.834c0.428-0.32,0.696-0.854,1.284-0.588c0.587,0.268-0.535,1.068,0.962,2.459
	C3.537,27.497,4.231,26.534,4.231,26.534z"/>
<g>
</g>
<g>
</g>
<g>
</g>
<g>
</g>
<g>
</g>
<g>
</g>
<g>
</g>
<g>
</g>
<g>
</g>
<g>
</g>
<g>
</g>
<g>
</g>
<g>
</g>
<g>
</g>
<g>
</g>
</svg>
