<?xml version="1.0" encoding="iso-8859-1"?>
<!-- Generator: Adobe Illustrator 16.0.0, SVG Export Plug-In . SVG Version: 6.00 Build 0)  -->
<!DOCTYPE svg PUBLIC "-//W3C//DTD SVG 1.1//EN" "http://www.w3.org/Graphics/SVG/1.1/DTD/svg11.dtd">
<svg version="1.1" id="Layer_1" xmlns="http://www.w3.org/2000/svg" xmlns:xlink="http://www.w3.org/1999/xlink" x="0px" y="0px"
	 width="17.584px" height="29.651px" viewBox="0 0 17.584 29.651" style="enable-background:new 0 0 17.584 29.651;"
	 xml:space="preserve">
<path d="M0.807,29.651c4.501,0.04,3.161-3.859,2.813-4.743c2.92-2.571,2.063-4.261,1.206-5.184
	c-0.219-0.507,1.071-1.273,0.362-2.452C6.38,14.46,4.746,12.45,4.746,12.45s1.93-1.849,2.934-5.225c2.023,0.375,4.3-3.135,4.3-3.135
	s0.562,4.635,1.004,4.621c0.122-0.816,0.083-1.162,0.764-0.723c0.68,0.438,0,2.25,0,2.25l-1.166,1.648l-0.844,2.25
	c0,0-0.348,3.591,1.567,5.627c-3.228,2.438,2.21,6.952,2.21,6.952s-1.501,1.486,0.281,1.849c1.782,0.363,1.447-2.33,1.447-2.33
	s1.595-1.354-2.13-4.221c3.243-2.598-1.246-6.188-1.246-6.188s2.935-2.143,0.241-8.159c0.255-4.059-3.631-8.774-6.832-7.435
	c-3.202,1.34-6.979,7.851-5.626,12.619c-1.004,0.188-0.241,1.89-0.241,1.89s-1.781,0.174-0.281,1.728
	c-3.027,1.903,1.019,2.813,0.777,4.608c-0.241,1.796-1.635,2.465-1.461,3.912C0.62,26.437,3.299,26.798,0.807,29.651z"/>
<g>
</g>
<g>
</g>
<g>
</g>
<g>
</g>
<g>
</g>
<g>
</g>
<g>
</g>
<g>
</g>
<g>
</g>
<g>
</g>
<g>
</g>
<g>
</g>
<g>
</g>
<g>
</g>
<g>
</g>
</svg>
