<?xml version="1.0" encoding="iso-8859-1"?>
<!-- Generator: Adobe Illustrator 16.0.0, SVG Export Plug-In . SVG Version: 6.00 Build 0)  -->
<!DOCTYPE svg PUBLIC "-//W3C//DTD SVG 1.1//EN" "http://www.w3.org/Graphics/SVG/1.1/DTD/svg11.dtd">
<svg version="1.1" id="Layer_1" xmlns="http://www.w3.org/2000/svg" xmlns:xlink="http://www.w3.org/1999/xlink" x="0px" y="0px"
	 width="14.711px" height="30.746px" viewBox="0 0 14.711 30.746" style="enable-background:new 0 0 14.711 30.746;"
	 xml:space="preserve">
<path d="M8.663,0.577C8.341,0.443,8.026-0.574,5.3,0.457S1.656,2.855,2.125,5.239C2.594,7.624,0.854,11,1.054,13.17
	s0.844,6.296,0.737,8.011s-1.607,5.011-1.769,6.391c-0.161,1.379,0.603,3.175,0.603,3.175l0.174-3.027l0.322,2.09l0.436-1.365
	l0.355,1.298c0,0,0.308-3.416,0.308-3.256c0,0.161,0.335,4.02,0.335,4.02l0.362-2.532l0.375,1.916c0,0-0.188-3.966,0.884-6.726
	c0.556-1.996,1.125-6.886,0.509-8.842c-0.616-1.955-1.206-2.036-1.286-6.698c1.206,0.51,6.752-4.447,6.752-4.447l1.688,5.023
	c0,0-1.206,3.31-1.527,4.542c-0.321,1.231,0.054,7.904,0.362,9.686s-0.402,7.636-0.402,7.636l0.482-1.567l0.04,2.251l0.744-3.638
	l0.583,3.034l0.482-4.36l0.321,4.763l0.603-2.854l0.241,1.45l0.321-2.656l0.442,2.372c0,0-0.382-1.447,0-4.421
	c0.381-2.975,0.141-4.462-0.563-6.311c-0.703-1.849-0.623-8.901-1.085-10.328C12.42,6.371,11.737-1.205,8.663,0.577z"/>
<g>
</g>
<g>
</g>
<g>
</g>
<g>
</g>
<g>
</g>
<g>
</g>
<g>
</g>
<g>
</g>
<g>
</g>
<g>
</g>
<g>
</g>
<g>
</g>
<g>
</g>
<g>
</g>
<g>
</g>
</svg>
