<?xml version="1.0" encoding="iso-8859-1"?>
<!-- Generator: Adobe Illustrator 16.0.0, SVG Export Plug-In . SVG Version: 6.00 Build 0)  -->
<!DOCTYPE svg PUBLIC "-//W3C//DTD SVG 1.1//EN" "http://www.w3.org/Graphics/SVG/1.1/DTD/svg11.dtd">
<svg version="1.1" id="Layer_1" xmlns="http://www.w3.org/2000/svg" xmlns:xlink="http://www.w3.org/1999/xlink" x="0px" y="0px"
	 width="16.55px" height="31.155px" viewBox="0 0 16.55 31.155" style="enable-background:new 0 0 16.55 31.155;"
	 xml:space="preserve">
<path d="M10.961,15.734c0,0-1.882,1.156-0.76,1.288c4.755-1.188,5.119-5.052,5.119-5.052s0.825,0.528,0.66,2.525
	c0.66-0.347,0.958-4.275-0.297-9.097s-3.798-3.138-3.798-3.138S9.244-2.691,4.225,2.063C-2.677,9.824,0.956,14.778,0.956,14.91
	c0,0.131-0.496,0.791,1.089,2.905c-1.387,1.188,1.024,3.269,1.024,3.269S3.102,23,4.059,23.329
	c-0.891,1.024,0.694,2.675,0.694,2.675s0.165,2.18,0.792,1.882c0.066,3.006,1.453,3.27,1.453,3.27s0.594-1.815-0.661-3.83
	c0.363,0.165,0.396-1.123-0.462-1.75c0.363-0.066,0.991-1.288-0.264-2.08c0.496-0.298,1.09-1.454-0.264-2.246
	c0.562,0.099,1.057-1.255,0.099-2.542c1.915-1.354-0.693-3.171-0.693-3.171l-2.18-5.547c0,0,2.246-1.835,2.279-1.585
	C4.885,8.653,4.225,9.56,4.225,9.56l2.179-1.222c0,0-0.495,0.792-0.396,0.727c0.099-0.066,1.915-0.991,1.915-0.991L7.757,8.906
	l1.85-1.427L9.475,8.073c0,0,2.278-3.434,2.212-3.004c-0.429,3.17,2.246,5.117,2.345,5.679
	C14.382,14.296,10.961,15.734,10.961,15.734z"/>
<g>
</g>
<g>
</g>
<g>
</g>
<g>
</g>
<g>
</g>
<g>
</g>
<g>
</g>
<g>
</g>
<g>
</g>
<g>
</g>
<g>
</g>
<g>
</g>
<g>
</g>
<g>
</g>
<g>
</g>
</svg>
