<?xml version="1.0" encoding="iso-8859-1"?>
<!-- Generator: Adobe Illustrator 16.0.0, SVG Export Plug-In . SVG Version: 6.00 Build 0)  -->
<!DOCTYPE svg PUBLIC "-//W3C//DTD SVG 1.1//EN" "http://www.w3.org/Graphics/SVG/1.1/DTD/svg11.dtd">
<svg version="1.1" id="Layer_1" xmlns="http://www.w3.org/2000/svg" xmlns:xlink="http://www.w3.org/1999/xlink" x="0px" y="0px"
	 width="25.458px" height="31.233px" viewBox="0 0 25.458 31.233" style="enable-background:new 0 0 25.458 31.233;"
	 xml:space="preserve">
<path d="M17.694,4.856c-1.373-2.18-6.985,3.352-7.106,4.522s0.847,2.26,1.372,5.733c0.525,3.473-2.786,11.83-6.137,12.031
	c-0.283-0.08,3.392-4.118,3.392-4.118s-7.712,8.964-8.236,8.156c0.687-0.808,1.454-2.988,1.454-2.988s-1.858,1.534-1.938,0.242
	c0.848-0.242,6.137-7.591,6.137-7.591s-3.109,2.947-3.714,1.777c1.292-0.565,5.167-10.578,5.167-10.578S2.755,20.32,0.736,19.11
	c1.333-0.929,3.028-3.493,3.028-3.493S0.394,18.276,0,16.715c0.938-0.27,5.662-4.591,5.662-4.591s-4.804,2.705-5.248,1.373
	c1.373,0.041,2.341-1.051,2.341-1.051s-2.381,0.404-2.099-0.807c1.534,0.283,5.208-0.848,5.208-0.848s-2.423,0.082-1.979-1.17
	c1.131,0.484,4.077-2.424,4.926-3.555c0.849-1.129,1.857-6.944,7.833-5.954c4.521-0.182,6.459,5.874,6.459,5.874
	s1.373,1.01,2.342,0.242c0.242,2.463-3.311,0.969-3.311,0.969s-0.684,2.254-0.403,2.826c0.281,0.572,0.363,1.494,1.938,1.051
	c-0.283,1.654-2.18,1.211-2.18,1.211s0.646,6.338,2.826,7.832c-2.786,1.655-3.634-3.593-3.634-3.593s-1.535,4.239-3.149,5.289
	c-1.614,1.05-0.476,2.014-2.422,3.312c-1.946,1.297-4.038,4.4-6.541,4.359c1.333-0.605,3.634-4.037,3.634-4.037
	s-1.736,1.049-1.615-0.162c0.807-0.08,7.024-6.445,7.268-8.761S19.067,7.037,17.694,4.856z"/>
<g>
</g>
<g>
</g>
<g>
</g>
<g>
</g>
<g>
</g>
<g>
</g>
<g>
</g>
<g>
</g>
<g>
</g>
<g>
</g>
<g>
</g>
<g>
</g>
<g>
</g>
<g>
</g>
<g>
</g>
</svg>
