<?xml version="1.0" encoding="iso-8859-1"?>
<!-- Generator: Adobe Illustrator 16.0.0, SVG Export Plug-In . SVG Version: 6.00 Build 0)  -->
<!DOCTYPE svg PUBLIC "-//W3C//DTD SVG 1.1//EN" "http://www.w3.org/Graphics/SVG/1.1/DTD/svg11.dtd">
<svg version="1.1" id="Layer_1" xmlns="http://www.w3.org/2000/svg" xmlns:xlink="http://www.w3.org/1999/xlink" x="0px" y="0px"
	 width="15.808px" height="30.926px" viewBox="0 0 15.808 30.926" style="enable-background:new 0 0 15.808 30.926;"
	 xml:space="preserve">
<path d="M8.199,0.542C6.752-0.476,5.545,0.463,4.608,1.159C2.143,3.73,2.384,8.875,2.09,9.599S1.286,10.911,0,11.072
	c0.724,0.616,2.625-0.429,2.625-0.429s-0.428,0.951-1.018,0.991c-0.106,0.509,1.206,0,1.206,0s-0.428,1.34-1.34,1.34
	c0.001,0.75,1.635-0.375,1.635-0.375s-1.42,2.264-2.01,1.982c0.376,1.045,1.581-0.563,1.581-0.563s-0.518,2.979-1.62,3.175
	c0.724,0.696,1.54-0.79,1.54-0.79s-0.522,0.669-0.562,1.821s1.326,5.038,0.884,6.028c0.63-0.106,0.67-1.446,0.67-1.446
	s0.349,3.323-0.643,3.483c0.938,0.362,1.259-1.876,1.259-1.876s0.509,4.06-0.375,4.608c1.033,0.001,1.339-2.277,1.339-2.277
	s0.39,2.373-0.214,2.787c0.979,0.014,0.964-2.251,0.964-2.251s0.617,2.291-0.161,3.456c1.22,0.147,0.75-2.894,0.75-2.894
	s0.777,1.715,0.563,3.081c1.167-0.254-0.67-6.672-0.482-8.868c0.188-2.196-1.22-6.512-1.829-8.427
	c-0.609-1.915-0.362-3.51-0.436-4.682c-0.073-1.172,1.36-2.291,2.478-5.165c0.107,1.286,4.782,6.651,5.358,7.234
	c0.034,1.307-1.969,2.666-2.224,3.322s-0.244,1.744-0.027,2.277c0.216,0.533,1.742,4.287,1.742,4.287s-0.143,2.901-0.054,3.644
	c0.088,0.741-0.04,2.244,1.956,3.188c-1.199-1.306-0.161-4.233-0.161-4.233s-0.208,2.491,1.286,2.599
	c-1.208-1.369-0.248-3.951-0.241-5.6c0.007-1.647-1.152-4.126-1.152-4.126s0.502,0.831,0.991,0.67
	c-0.736-0.783-0.67-1.956-0.67-1.956s0.121,1.253,1.072,0.831c-0.895-0.262-0.804-3.322-0.804-3.322s0.147,1.835,1.434,1.574
	c-0.763-0.442-0.763-1.467-0.763-1.467s0.435,0.401,1.166-0.222c-1.327-0.181-1.755-1.279-1.755-1.279s0.489,0.757,1.394,0.295
	c-0.985-0.262-0.858-0.965-0.858-0.965s0.154,0.482,1.179,0c-1.407-0.301-1.366-1.446-1.366-1.446s0.468,1.387,1.5,0.401
	c-1.44-0.683-0.924-2.358-1.794-3.832C13.142,4.187,11.173-1.815,8.199,0.542z"/>
<g>
</g>
<g>
</g>
<g>
</g>
<g>
</g>
<g>
</g>
<g>
</g>
<g>
</g>
<g>
</g>
<g>
</g>
<g>
</g>
<g>
</g>
<g>
</g>
<g>
</g>
<g>
</g>
<g>
</g>
</svg>
