<?xml version="1.0" encoding="iso-8859-1"?>
<!-- Generator: Adobe Illustrator 16.0.0, SVG Export Plug-In . SVG Version: 6.00 Build 0)  -->
<!DOCTYPE svg PUBLIC "-//W3C//DTD SVG 1.1//EN" "http://www.w3.org/Graphics/SVG/1.1/DTD/svg11.dtd">
<svg version="1.1" id="Layer_1" xmlns="http://www.w3.org/2000/svg" xmlns:xlink="http://www.w3.org/1999/xlink" x="0px" y="0px"
	 width="26.604px" height="31.997px" viewBox="0 0 26.604 31.997" style="enable-background:new 0 0 26.604 31.997;"
	 xml:space="preserve">
<path d="M26.572,1.464c0.075,0.088,0.002,0.163-0.084,0.118c-0.641-0.336-1.227-0.601-1.751-0.721l1.515,1.059l-0.159,0.227
	l-1.941-1.357c-0.141,0.001-0.276,0.019-0.407,0.054l2.189,1.531L25.776,2.6l-2.339-1.636c-0.085,0.045-0.167,0.101-0.246,0.166
	l2.427,1.697l-0.159,0.227l-2.47-1.728c-0.045,0.053-0.09,0.112-0.134,0.173l2.478,1.734l-0.158,0.226l-2.481-1.735
	c-0.042,0.062-0.09,0.13-0.147,0.211l2.481,1.735l-0.159,0.227l-2.48-1.735c-0.05,0.071-0.103,0.147-0.159,0.227l2.481,1.735
	L24.552,4.35l-2.481-1.735c-0.051,0.074-0.104,0.148-0.159,0.227l2.48,1.735l-0.158,0.227l-2.481-1.735
	c-0.006,0.01-0.012,0.019-0.019,0.028c0,0-0.046,0.066-0.128,0.184l2.48,1.735l-0.158,0.227l-2.48-1.735
	c-0.048,0.069-0.1,0.143-0.159,0.227l2.481,1.735l-0.158,0.226l-2.481-1.735c-0.037,0.054-0.075,0.107-0.115,0.165l2.481,1.735
	l-0.159,0.226l-2.48-1.735c-0.048,0.068-0.097,0.139-0.148,0.211l2.481,1.735l-0.158,0.227l-2.481-1.735
	c-0.052,0.073-0.104,0.149-0.158,0.227l2.48,1.735l-0.158,0.227l-2.481-1.735c-0.052,0.074-0.104,0.149-0.159,0.227l2.481,1.735
	l-0.159,0.226l-2.48-1.735c-0.048,0.069-0.098,0.14-0.148,0.211L22.25,7.64l-0.158,0.227l-2.481-1.735
	c-0.052,0.075-0.105,0.15-0.158,0.226l2.48,1.736L21.775,8.32l-2.481-1.735c-0.043,0.062-0.087,0.125-0.131,0.188l2.48,1.735
	l-0.158,0.227l-2.481-1.735c-0.048,0.07-0.097,0.141-0.147,0.211l2.481,1.735L21.18,9.171l-2.48-1.735
	c-0.042,0.06-0.084,0.119-0.126,0.18l2.481,1.735l-0.159,0.227l-2.481-1.735c-0.049,0.07-0.098,0.141-0.147,0.211l2.481,1.735
	l-0.159,0.227l-2.48-1.735c-0.053,0.076-0.105,0.151-0.159,0.227l2.481,1.735l-0.158,0.227l-2.481-1.735
	c-0.053,0.076-0.105,0.151-0.158,0.227l2.481,1.735l-0.159,0.227l-2.48-1.735c-0.05,0.07-0.099,0.141-0.148,0.211l2.481,1.735
	l-0.159,0.227l-2.481-1.735C17.116,9.7,17.063,9.775,17.01,9.851l2.481,1.735l-0.158,0.227l-2.481-1.735
	c-0.038,0.054-0.077,0.11-0.115,0.165l2.481,1.735l-0.158,0.227l-2.481-1.735c-0.05,0.071-0.099,0.141-0.147,0.21l2.48,1.735
	l-0.158,0.226l-2.481-1.735c-0.054,0.077-0.106,0.152-0.159,0.227l2.48,1.735l-0.158,0.226l-2.481-1.735
	c-0.053,0.077-0.106,0.152-0.158,0.227l2.481,1.735l-0.158,0.227l-2.481-1.735c-0.05,0.072-0.1,0.142-0.148,0.211l2.481,1.735
	l-0.158,0.226l-2.481-1.735c-0.054,0.077-0.107,0.153-0.159,0.227l2.48,1.735l-0.158,0.227l-2.481-1.735
	c-0.045,0.065-0.088,0.127-0.131,0.188l2.48,1.735l-0.158,0.227l-2.481-1.735c-0.051,0.073-0.101,0.145-0.147,0.21l2.481,1.736
	L16.9,15.29l-2.48-1.735c-0.06,0.086-0.113,0.162-0.159,0.228l2.481,1.735l-0.158,0.227l-2.48-1.734
	c-0.057,0.08-0.104,0.157-0.146,0.235l2.468,1.725l-0.159,0.228l-2.421-1.693c-0.03,0.09-0.052,0.18-0.064,0.269l2.338,1.635
	l-0.159,0.226l-2.189-1.531c0.012,0.133,0.042,0.267,0.089,0.399l1.941,1.358l-0.158,0.227l-1.514-1.059
	c0.301,0.462,0.764,0.933,1.317,1.434c0.069,0.063-0.014,0.123-0.123,0.082c-0.812-0.3-2.987-1.099-4.162-0.101L0.348,31.997
	L0,31.753l12.99-18.574c0.26-0.373,1.012-1.448,1.946-2.783c0.091-0.13,0.185-0.264,0.278-0.397
	c2.269-3.245,5.383-7.697,5.383-7.697c0.5-0.715,0.889-1.271,1.072-1.532C22.521-0.449,25.141-0.221,26.572,1.464z"/>
<g>
</g>
<g>
</g>
<g>
</g>
<g>
</g>
<g>
</g>
<g>
</g>
<g>
</g>
<g>
</g>
<g>
</g>
<g>
</g>
<g>
</g>
<g>
</g>
<g>
</g>
<g>
</g>
<g>
</g>
</svg>
