<?xml version="1.0" encoding="iso-8859-1"?>
<!-- Generator: Adobe Illustrator 16.0.0, SVG Export Plug-In . SVG Version: 6.00 Build 0)  -->
<!DOCTYPE svg PUBLIC "-//W3C//DTD SVG 1.1//EN" "http://www.w3.org/Graphics/SVG/1.1/DTD/svg11.dtd">
<svg version="1.1" id="Layer_1" xmlns="http://www.w3.org/2000/svg" xmlns:xlink="http://www.w3.org/1999/xlink" x="0px" y="0px"
	 width="20.908px" height="30.5px" viewBox="0 0 20.908 30.5" style="enable-background:new 0 0 20.908 30.5;" xml:space="preserve"
	>
<g>
	<path d="M17.391,2.427c0,0,0.04-0.475,0.908-0.73c-0.849-0.396-1.56,0.533-1.56,0.533l-1.264-0.316c0,0-0.418-0.971,0.652-1.244
		c-0.75-0.453-1.52,0.83-1.52,0.83s-1.48-1.994-1.935-1.383c0.869,0.376,0.553,1.185,0.553,1.185S2.586-1.937,0,7.618
		c0.691-1.105,0.869-0.869,0.869-0.869s-0.915,5.942,0.375,9.771c0.284,0.307,0.513,0.553,0.513,0.553s-0.531-2.246-0.056-4.19
		c0.332-1.358,1.673-2.403,1.833-3.14C3.797,8.128,3.217,6.559,5.06,5.374c1.842-1.184,4.692,0.346,5.764,0.29
		c1.072-0.057,3.516-1.694,5.343-0.711c1.957,1.053,1.288,4.196,1.343,4.659c0.105,0.578,0.908,1.157,1.441,2.104
		c0.533,0.948-0.198,5.831-0.198,5.831s0.257,0.118,0.494-0.198c0.237-0.315,1.244-8.765,1.145-9.061s0.079-0.711,0.494-0.217
		C21.24,4.953,17.391,2.427,17.391,2.427z"/>
	<path d="M17.687,19.936c-0.217,0.948-1.54,3.89-1.994,4.205s-3.533-1.5-4.54-1.54c-1.007-0.039-3.79,1.026-4.402,0.77
		c-0.612-0.256-4.836-6.573-5.093-5.822c-0.257,0.75,1.449,3.292,1.5,3.849c0.051,0.558,0.018,1.272,0.573,1.974
		c0.555,0.702,1.638,2.054,2.329,2.941c0-0.71,0.276-0.671,0.276-0.671s2.211,2.961,2.803,2.547
		c-0.691-0.435-0.415-0.849-0.415-0.849s1.639,3.039,2.171,3.158c0.533,0.118,2.408-3.258,2.408-3.258s0.474,0.73,0,1.165
		c0.671,0.06,3.316-2.566,4.264-4.579c0.947-2.014,1.382-5.725,1.382-5.725S17.904,18.988,17.687,19.936z"/>
</g>
<g>
</g>
<g>
</g>
<g>
</g>
<g>
</g>
<g>
</g>
<g>
</g>
<g>
</g>
<g>
</g>
<g>
</g>
<g>
</g>
<g>
</g>
<g>
</g>
<g>
</g>
<g>
</g>
<g>
</g>
</svg>
