<?xml version="1.0" encoding="iso-8859-1"?>
<!-- Generator: Adobe Illustrator 16.0.0, SVG Export Plug-In . SVG Version: 6.00 Build 0)  -->
<!DOCTYPE svg PUBLIC "-//W3C//DTD SVG 1.1//EN" "http://www.w3.org/Graphics/SVG/1.1/DTD/svg11.dtd">
<svg version="1.1" id="Layer_1" xmlns="http://www.w3.org/2000/svg" xmlns:xlink="http://www.w3.org/1999/xlink" x="0px" y="0px"
	 width="31.013px" height="29.015px" viewBox="0 0 31.013 29.015" style="enable-background:new 0 0 31.013 29.015;"
	 xml:space="preserve">
<g>
	<path d="M30.935,14.953C27.242-1.024,13.748,1.729,13.748,1.729s-1.376-0.47,0.873-1.545c-4.096-1.04-6.646,2.686-6.646,2.686
		S7.102,2.903,7.102,1.326C6.061,1.46,7.035,4.212,7.035,4.212S4.148,4.279,3.476,3.81C3.141,4.884,5.799,4.667,6.565,4.951
		C-6.93,5.89,4.551,24.353,4.618,22.876C2.604,14.216,7.438,11.06,7.438,11.06s4.095,4.129,7.385,3.761
		c-3.491-1.343-2.809-2.015-2.809-2.015s5.595,0.47,10.999-2.081c2.283,0.1,4.163,5.019,4.7,11.145
		c2.535-1.829,1.88-6.916,1.88-6.916S31.405,16.431,30.935,14.953z"/>
	<path d="M21.293,26.25c-0.867-0.718-2.882-3.035-5.417-0.542c-2.459-2.24-4.407-0.011-5.255,0.693
		c-3.172,1.46-3.323-0.327-3.399-0.806c-2.391,4.305,5.237,3.323,6.345,3.323c1.053,0,2.432-0.63,2.567-0.693
		c0.51,0.208,1.447,0.541,2.213,0.541c1.107,0,8.736,0.983,6.344-3.322C24.616,25.923,24.465,27.711,21.293,26.25z"/>
</g>
<g>
</g>
<g>
</g>
<g>
</g>
<g>
</g>
<g>
</g>
<g>
</g>
<g>
</g>
<g>
</g>
<g>
</g>
<g>
</g>
<g>
</g>
<g>
</g>
<g>
</g>
<g>
</g>
<g>
</g>
</svg>
