<?xml version="1.0" encoding="iso-8859-1"?>
<!-- Generator: Adobe Illustrator 16.0.0, SVG Export Plug-In . SVG Version: 6.00 Build 0)  -->
<!DOCTYPE svg PUBLIC "-//W3C//DTD SVG 1.1//EN" "http://www.w3.org/Graphics/SVG/1.1/DTD/svg11.dtd">
<svg version="1.1" id="Layer_1" xmlns="http://www.w3.org/2000/svg" xmlns:xlink="http://www.w3.org/1999/xlink" x="0px" y="0px"
	 width="30.619px" height="30.567px" viewBox="0 0 30.619 30.567" style="enable-background:new 0 0 30.619 30.567;"
	 xml:space="preserve">
<path d="M17.64,0.07C6.814-0.71,2.339,5.224,0.934,9.23c-2.238,8.691-0.521,15.613,5.88,21.337
	c-0.728-1.717-0.324-3.979-0.416-4.684c-0.092-0.703,0.937-1.093,0.937-1.093s-1.093-1.873-0.833-1.873s0.859,0.701,1.483,0.662
	c-1.053-0.435-3.148-5.242-3.148-5.242l2.03,1.145l-0.886-2.699c0,0,7.898,5.353,11.034,5.457c-1.145-1.041-0.364-1.977-0.364-1.977
	l0.989,1.093l-0.677-2.395l2.498,3.175c0,0,0.363,0.04,0.26-1.093s3.435,2.29,3.435,2.29s-1.001-2.213-1.093-6.551
	c-0.025,1.957,5.037,5.094,4.945,7.019c-0.091,1.925-1.145,5.257-1.145,5.257s6.245-12.595,4.424-19.203
	C29.397,7.465,28.465,0.852,17.64,0.07z"/>
<g>
</g>
<g>
</g>
<g>
</g>
<g>
</g>
<g>
</g>
<g>
</g>
<g>
</g>
<g>
</g>
<g>
</g>
<g>
</g>
<g>
</g>
<g>
</g>
<g>
</g>
<g>
</g>
<g>
</g>
</svg>
