<?xml version="1.0" encoding="iso-8859-1"?>
<!-- Generator: Adobe Illustrator 16.0.0, SVG Export Plug-In . SVG Version: 6.00 Build 0)  -->
<!DOCTYPE svg PUBLIC "-//W3C//DTD SVG 1.1//EN" "http://www.w3.org/Graphics/SVG/1.1/DTD/svg11.dtd">
<svg version="1.1" id="Layer_1" xmlns="http://www.w3.org/2000/svg" xmlns:xlink="http://www.w3.org/1999/xlink" x="0px" y="0px"
	 width="24.042px" height="31.658px" viewBox="0 0 24.042 31.658" style="enable-background:new 0 0 24.042 31.658;"
	 xml:space="preserve">
<g>
	<path d="M11.797,27.449c-4.31-0.366-5.102-1.803-5.102-1.803s-0.586,2.521-0.264,3.606c4.544,4.104,9.567,2.091,11.033,0.304
		c0.47-0.909,0.02-3.91,0.02-3.91S16.106,27.816,11.797,27.449z"/>
	<path d="M20.885,3.189C17.279,0.55,9.539-1.912,4.409,2.163S0.04,15.679,0.04,15.679s1.085,4.222,1.642,4.31
		S1.125,15.18,2.063,14.74c0.938-0.439,1.437-3.576,0.792-4.251c-0.528-0.265-0.147-4.222,1.348-4.046
		c4.193,1.643,10.291,1.496,15.656,0.176c1.29-0.235,1.495,3.196,1.495,3.196s-1.729,2.315,0.821,4.28
		c0.762,0.732-0.293,5.805,0.234,5.57c0.528-0.235,1.613-4.134,1.613-4.134S24.491,5.828,20.885,3.189z"/>
</g>
<g>
</g>
<g>
</g>
<g>
</g>
<g>
</g>
<g>
</g>
<g>
</g>
<g>
</g>
<g>
</g>
<g>
</g>
<g>
</g>
<g>
</g>
<g>
</g>
<g>
</g>
<g>
</g>
<g>
</g>
</svg>
