<?xml version="1.0" encoding="iso-8859-1"?>
<!-- Generator: Adobe Illustrator 16.0.0, SVG Export Plug-In . SVG Version: 6.00 Build 0)  -->
<!DOCTYPE svg PUBLIC "-//W3C//DTD SVG 1.1//EN" "http://www.w3.org/Graphics/SVG/1.1/DTD/svg11.dtd">
<svg version="1.1" id="Layer_1" xmlns="http://www.w3.org/2000/svg" xmlns:xlink="http://www.w3.org/1999/xlink" x="0px" y="0px"
	 width="24.318px" height="31.542px" viewBox="0 0 24.318 31.542" style="enable-background:new 0 0 24.318 31.542;"
	 xml:space="preserve">
<path d="M21.843,11.934c0.106-0.605,0.59-0.893,0.727-1.044c0.136-0.151,0.457-1.792-1.316-4.403
	c-0.448-0.658-0.983-1.355-1.65-2.001l0.716-1.337c0,0-4.893-4.773-12.709-2.565c-3.282,1.79-8.055,4.772-7.578,11.992
	c0.477,7.22,5.549,10.084,5.549,10.084l0.746-0.687c0.382,0.52,0.59,0.913,0.412,1.171c-0.513,0.746-1.98,8.383-1.98,8.383
	l11.743,0.016c0,0-0.96-0.542-1.586-1.261c-0.43-0.492,0.13-1.465,0.752-3.15c0.084-0.229,0.592,0.096,0.919-0.675
	c0.327-0.769-0.322-1.155-0.245-1.387c0.068-0.204,0.119-0.179,0.161-0.341c0.087-0.469,0.299-0.75,0.588-0.917
	c4.377,0.132,5.517-0.085,4.435-3.117c0.14-0.129,0.923-0.636,1.089-1c0.167-0.361-0.227-0.453-0.227-0.453s0.287,0.015,0.499-0.317
	c0.211-0.333-0.363-1.635-0.363-1.635s1.453-0.317,1.77-0.862C24.612,15.883,21.737,12.538,21.843,11.934z"/>
<g>
</g>
<g>
</g>
<g>
</g>
<g>
</g>
<g>
</g>
<g>
</g>
<g>
</g>
<g>
</g>
<g>
</g>
<g>
</g>
<g>
</g>
<g>
</g>
<g>
</g>
<g>
</g>
<g>
</g>
</svg>
