<?xml version="1.0" encoding="iso-8859-1"?>
<!-- Generator: Adobe Illustrator 16.0.0, SVG Export Plug-In . SVG Version: 6.00 Build 0)  -->
<!DOCTYPE svg PUBLIC "-//W3C//DTD SVG 1.1//EN" "http://www.w3.org/Graphics/SVG/1.1/DTD/svg11.dtd">
<svg version="1.1" id="Layer_1" xmlns="http://www.w3.org/2000/svg" xmlns:xlink="http://www.w3.org/1999/xlink" x="0px" y="0px"
	 width="31.991px" height="25.492px" viewBox="0 0 31.991 25.492" style="enable-background:new 0 0 31.991 25.492;"
	 xml:space="preserve">
<path d="M3.263,25.242c-0.95-1.349-1.524-4.121-1.999-4.42c-0.474-0.3-0.725-2.947-0.5-3.596c0.225-0.649-0.624-1.823-0.749-2.797
	c-0.125-0.974,0.572-1.901,0.55-2.323C0.543,11.684,0.291,8.86,1.364,6.712C1.93,5.579,3.562,3.791,5.235,3.016
	c1.497-0.694,3.075-0.427,3.171-0.6C8.608,2.05,9.782-0.23,10.604,0.019C9.479,1.118,9.655,2.366,9.655,2.366
	s3.771-2.497,6.793-2.347c3.021,0.15,9.091,4.02,9.29,4.146c0.199,0.125-0.45-1.249-1.599-2.747c1.149,0.05,2.972,3.596,3.197,3.796
	s0.375,0.025,0-1.499c0.774,0.1,1.099,2.198,1.499,2.947c0.399,0.75,1.547,0.774,1.448,3.596c1.748,0.1,2,5.219,1.449,6.193
	c-0.226,3.347-0.787,4.748-1.348,6.044c-0.562,1.296-1.299,2.997-1.299,2.997c0,0,0.172-5.523-0.774-9.564
	c-0.664-2.833-2.188-4.548-3.372-4.795c-2.873-0.599-8.54-0.126-9.189,0.674c-1.454,0.53-8.573-1.901-10.041-0.749
	c-0.86,0.675-1.862,3.239-1.847,5.244c0.011,1.414,0.898,1.148,0.948,2.547c0.028,0.776-0.731,1.277-1.148,2.498
	C3.327,22.323,3.329,23.931,3.263,25.242z"/>
<g>
</g>
<g>
</g>
<g>
</g>
<g>
</g>
<g>
</g>
<g>
</g>
<g>
</g>
<g>
</g>
<g>
</g>
<g>
</g>
<g>
</g>
<g>
</g>
<g>
</g>
<g>
</g>
<g>
</g>
</svg>
