<?xml version="1.0" encoding="iso-8859-1"?>
<!-- Generator: Adobe Illustrator 16.0.0, SVG Export Plug-In . SVG Version: 6.00 Build 0)  -->
<!DOCTYPE svg PUBLIC "-//W3C//DTD SVG 1.1//EN" "http://www.w3.org/Graphics/SVG/1.1/DTD/svg11.dtd">
<svg version="1.1" id="Layer_1" xmlns="http://www.w3.org/2000/svg" xmlns:xlink="http://www.w3.org/1999/xlink" x="0px" y="0px"
	 width="25.64px" height="32.354px" viewBox="0 0 25.64 32.354" style="enable-background:new 0 0 25.64 32.354;"
	 xml:space="preserve">
<path d="M23.825,17.355c1.998-2.009,3.321-5.569-1.438-9.064c-1.313-0.438-4.25-11.375-15-7.438S3.2,9.416,3.2,9.416
	s-3.206,5.793-1.759,8.087C0.402,18.127-0.011,19.202,0,20.161c0.018,1.673,1.197,3.479,2.961,3.727
	c0.143,2.686,1.555,4.602,2.743,5.751c1.713,1.658,3.994,2.716,5.844,2.716c0.033,0,0.065,0,0.098-0.001
	c1.795-0.037,4.756-1.921,7.04-4.48c1.062-1.19,2.776-3.447,2.78-5.615c2.981-0.343,3.146-2.327,3.123-2.947
	C24.56,18.566,24.253,17.855,23.825,17.355z M21.05,21.542l-0.385,0.024l0.036,0.385c0.137,1.457-0.802,3.434-2.577,5.423
	c-2.122,2.379-4.915,4.197-6.495,4.229c-1.657,0.063-3.823-0.973-5.404-2.504C5.09,28.001,3.731,26.145,3.7,23.536l-0.004-0.363
	l-0.363-0.007c-1.525-0.029-2.566-1.581-2.582-3.013c-0.011-0.992,0.447-1.722,1.256-2.11c0.31,0.198,0.688,0.34,1.193,0.373
	c0.023,0.151,0.055-0.132,0.098-0.683c0.015-0.001,0.027-0.004,0.042-0.005l-0.015-0.363c0.196-2.712,0.585-9.46,1.312-8.199
	c0.813,2.5,14.188,2.125,15.563,0c0.438-0.688-0.375,8.188,0.313,9.625c0.242,0.506,1.534,0.081,2.761-0.935
	c0.299,0.365,0.543,0.909,0.565,1.482C23.887,20.621,22.871,21.424,21.05,21.542z"/>
<g>
</g>
<g>
</g>
<g>
</g>
<g>
</g>
<g>
</g>
<g>
</g>
<g>
</g>
<g>
</g>
<g>
</g>
<g>
</g>
<g>
</g>
<g>
</g>
<g>
</g>
<g>
</g>
<g>
</g>
</svg>
