<?xml version="1.0" encoding="iso-8859-1"?>
<!-- Generator: Adobe Illustrator 16.0.0, SVG Export Plug-In . SVG Version: 6.00 Build 0)  -->
<!DOCTYPE svg PUBLIC "-//W3C//DTD SVG 1.1//EN" "http://www.w3.org/Graphics/SVG/1.1/DTD/svg11.dtd">
<svg version="1.1" id="Layer_1" xmlns="http://www.w3.org/2000/svg" xmlns:xlink="http://www.w3.org/1999/xlink" x="0px" y="0px"
	 width="30.459px" height="31.698px" viewBox="0 0 30.459 31.698" style="enable-background:new 0 0 30.459 31.698;"
	 xml:space="preserve">
<path d="M27.471,11.778c0,0,2.529,0.958,2.988,1.149c-0.076-1.417-3.371-2.835-3.371-2.835s1.801-0.307,2.452,0.154
	c0-1.457-3.983-2.299-3.983-2.299s3.103-0.46,3.983,0c0-1.839-5.899-0.92-5.899-0.92s2.375-1.991,3.523-1.838
	c-0.88-1.379-4.902,0.612-4.902,0.612s1.379-2.337,2.605-2.375c-0.92-1.265-4.827,0.843-4.827,0.843s1.762-1.494,3.064-1.686
	c-1.32-0.92-4.902,1.072-4.902,1.072s0.459-1.723,1.914-2.451c-1.455-0.881-4.061,1.992-4.061,1.992s1.072-1.916,2.605-3.141
	c-2.299-0.652-5.822,4.443-5.822,4.443s-0.729-2.338,0.459-3.295c-2.375-0.422-2.528,2.758-2.528,2.758S8.701,3.007,8.318,2.049
	C7.054,3.696,9.697,4.96,9.697,4.96S6.747,4.653,6.48,3.274C4.985,4.692,6.557,7.948,6.557,7.948S4.296,7.871,4.488,6.799
	C3.415,7.22,3.951,9.327,3.951,9.327s-0.536,0.152-0.843-0.92c-0.612,1.801,0.536,2.912,0.536,2.912s-1.264-0.461-1.762-1.303
	c-0.574,1.34,1.226,3.371,1.226,3.371s-1.762-1.149-2.03-1.877c-0.574,1.455,1.494,3.869,1.494,3.869s-1.915-1.342-2.146-1.916
	c-0.766,1.227,2.146,3.984,2.146,3.984s-2.291-0.33-2.528-1.532C-0.301,17.142,1.5,18.367,1.5,18.367s-0.689,3.868-1.456,2.681
	c-0.038,2.184,2.911,1.992,2.911,1.992s-0.306,1.647-1.226,1.916c1.264,1.341,2.222-1.072,2.222-1.072s-0.269,2.872-1.302,3.379
	c1.188,0.852,2.068-1.234,2.068-1.234s0.612,2.225-0.46,2.451c0.92,0.575,1.303-0.689,1.303-0.689s0.345,1.57,0,2.068
	c1.034,0.346,1.148-1.455,1.148-1.455s2.107,2.223,2.223,3.295c1.325-1.061-0.058-3.854-1.507-6.438
	c-0.27-1.559-0.417-4.061,0.529-4.467c0.508-0.218,1.087,0.209,1.976,0.938c1.037,0.851,2.328,1.909,3.904,1.205
	c1.067-0.477,1.333-1.443,1.613-2.467c0.47-1.709,1.115-4.022,5.556-6.412c0.683,1.914,0.537,4.02-0.963,4.77
	c2.987,0.842,2.708-6.428,2.708-6.428s2.162,3.555,0.663,5.432c3.142-0.35,0.79-5.698,0.79-5.698s1.316,0.604,1.355,2.863
	c1.455-0.958,0.306-3.601,0.306-3.601s2.146,1.646,2.146,2.911C29.118,13.081,27.471,11.778,27.471,11.778z"/>
<g>
</g>
<g>
</g>
<g>
</g>
<g>
</g>
<g>
</g>
<g>
</g>
<g>
</g>
<g>
</g>
<g>
</g>
<g>
</g>
<g>
</g>
<g>
</g>
<g>
</g>
<g>
</g>
<g>
</g>
</svg>
