<?xml version="1.0" encoding="iso-8859-1"?>
<!-- Generator: Adobe Illustrator 16.0.0, SVG Export Plug-In . SVG Version: 6.00 Build 0)  -->
<!DOCTYPE svg PUBLIC "-//W3C//DTD SVG 1.1//EN" "http://www.w3.org/Graphics/SVG/1.1/DTD/svg11.dtd">
<svg version="1.1" id="Layer_1" xmlns="http://www.w3.org/2000/svg" xmlns:xlink="http://www.w3.org/1999/xlink" x="0px" y="0px"
	 width="30.997px" height="29.365px" viewBox="0 0 30.997 29.365" style="enable-background:new 0 0 30.997 29.365;"
	 xml:space="preserve">
<path d="M6.326,12.29c0,0,1.003,4.763,0,7.27c-1.003,2.507,2.883,9.15,0,9.777c-2.884,0.628-4.386-9.399-5.39-11.154
	c-1.003-1.757-1.004-7.271-0.878-9.653c0.126-2.381,5.141-7.646,6.895-7.897C5.67,1.226,6.2,3.14,6.2,3.14
	s11.658-3.261,14.039-3.136c2.381,0.127,9.526,5.017,10.53,7.021c1.003,2.006-1.629,2.884-1.629,2.884s2.256,8.396,0.752,9.651
	s-1.755-1.504-1.755-1.504s-0.767,3.158-2.145,1.403c-1.378-1.756-1.867-10.052-1.867-10.052s-1.628,1.88-2.882,2.883
	s-6.52-0.376-6.52-0.376s5.64,1.255,0.689,4.012C10.462,18.683,6.326,12.29,6.326,12.29z"/>
<g>
</g>
<g>
</g>
<g>
</g>
<g>
</g>
<g>
</g>
<g>
</g>
<g>
</g>
<g>
</g>
<g>
</g>
<g>
</g>
<g>
</g>
<g>
</g>
<g>
</g>
<g>
</g>
<g>
</g>
</svg>
