<?xml version="1.0" encoding="iso-8859-1"?>
<!-- Generator: Adobe Illustrator 16.0.0, SVG Export Plug-In . SVG Version: 6.00 Build 0)  -->
<!DOCTYPE svg PUBLIC "-//W3C//DTD SVG 1.1//EN" "http://www.w3.org/Graphics/SVG/1.1/DTD/svg11.dtd">
<svg version="1.1" id="Layer_1" xmlns="http://www.w3.org/2000/svg" xmlns:xlink="http://www.w3.org/1999/xlink" x="0px" y="0px"
	 width="27.468px" height="31.386px" viewBox="0 0 27.468 31.386" style="enable-background:new 0 0 27.468 31.386;"
	 xml:space="preserve">
<g>
	<path d="M20.99,23.118c-3.258,1.171-3.496-1.585-6.768-1.684c-2.831-0.087-5.012,2.33-7.236,1.933
		c-1.013-0.18-1.73-2.201-3.057-3.087c-1.154,0.218,0.593,7.36,2.526,7.298c4.21-0.063,0.874,3.711,7.858,3.806
		c6.988,0.093,2.527-3.743,7.237-4.211c2.214-0.312,3.119-6.425,2.121-7.174C22.198,20.654,21.833,22.815,20.99,23.118z
		 M10.355,25.083c0,0,1.246-1.563,3.229-1.563c1.983,0,3.602,1.563,3.602,1.563H10.355z"/>
	<path d="M23.61,6.962c0,0,0.96,3.234,1.064,6.426c0.099,3.006-0.659,5.975-0.599,6.081c1-1.81,3.059-0.966,3.37-6.487
		C27.759,7.461,24.515,8.583,23.61,6.962z"/>
	<path d="M2.793,13.138c0.104-3.19,1.064-6.426,1.064-6.426c-0.905,1.622-4.148,0.499-3.836,6.02c0.312,5.52,2.37,4.678,3.37,6.487
		C3.452,19.113,2.693,16.143,2.793,13.138z"/>
	<path d="M8.016,3.688c2.401-0.375,3.618,1.841,6.299,1.902c2.684,0.063,0.75-1.747,5.085-1.497c0.687,0.093,1.778-3.898-5.63-4.086
		C6.362-0.18,7.548,3.75,8.016,3.688z"/>
</g>
<g>
</g>
<g>
</g>
<g>
</g>
<g>
</g>
<g>
</g>
<g>
</g>
<g>
</g>
<g>
</g>
<g>
</g>
<g>
</g>
<g>
</g>
<g>
</g>
<g>
</g>
<g>
</g>
<g>
</g>
</svg>
