<?xml version="1.0" encoding="iso-8859-1"?>
<!-- Generator: Adobe Illustrator 16.0.0, SVG Export Plug-In . SVG Version: 6.00 Build 0)  -->
<!DOCTYPE svg PUBLIC "-//W3C//DTD SVG 1.1//EN" "http://www.w3.org/Graphics/SVG/1.1/DTD/svg11.dtd">
<svg version="1.1" id="Layer_1" xmlns="http://www.w3.org/2000/svg" xmlns:xlink="http://www.w3.org/1999/xlink" x="0px" y="0px"
	 width="31.857px" height="32px" viewBox="0 0 31.857 32" style="enable-background:new 0 0 31.857 32;" xml:space="preserve">
<g>
	<polygon points="7.064,15.365 5.58,15.365 5.58,13.683 4.773,13.683 4.773,18.067 5.58,18.067 5.58,16.175 7.064,16.175 
		7.064,18.067 7.872,18.067 7.872,13.683 7.064,13.683 	"/>
	<path d="M10.888,17.361v-1.652c0-0.189-0.036-0.342-0.108-0.461c-0.071-0.118-0.164-0.211-0.278-0.275
		c-0.112-0.066-0.237-0.11-0.375-0.133c-0.136-0.022-0.272-0.033-0.406-0.033c-0.15,0-0.298,0.018-0.441,0.051
		c-0.144,0.035-0.275,0.094-0.391,0.175c-0.116,0.083-0.212,0.191-0.288,0.326c-0.075,0.136-0.118,0.306-0.129,0.511h0.73
		c0.014-0.172,0.063-0.295,0.146-0.369c0.083-0.074,0.196-0.11,0.337-0.11c0.065,0,0.125,0.005,0.183,0.016
		c0.056,0.01,0.105,0.03,0.148,0.062c0.042,0.031,0.076,0.073,0.103,0.128c0.026,0.056,0.039,0.13,0.039,0.226
		c0,0.09-0.023,0.157-0.072,0.205c-0.047,0.047-0.112,0.082-0.192,0.107c-0.08,0.024-0.172,0.042-0.275,0.055s-0.21,0.03-0.324,0.05
		c-0.113,0.021-0.224,0.048-0.332,0.083s-0.205,0.087-0.29,0.157c-0.086,0.068-0.155,0.162-0.206,0.278s-0.076,0.266-0.076,0.445
		c0,0.164,0.022,0.307,0.069,0.424c0.046,0.12,0.11,0.217,0.192,0.295c0.083,0.077,0.179,0.136,0.288,0.175
		c0.11,0.039,0.229,0.059,0.355,0.059c0.165,0,0.325-0.03,0.483-0.089c0.158-0.06,0.294-0.161,0.41-0.305
		c0.003,0.054,0.01,0.105,0.019,0.157c0.009,0.05,0.02,0.101,0.034,0.15h0.74c-0.035-0.065-0.059-0.164-0.073-0.295
		C10.894,17.643,10.888,17.505,10.888,17.361z M10.158,16.84c0,0.048-0.005,0.113-0.012,0.195c-0.009,0.082-0.033,0.162-0.07,0.242
		c-0.037,0.08-0.096,0.15-0.175,0.206c-0.079,0.058-0.19,0.087-0.333,0.087c-0.059,0-0.115-0.007-0.17-0.018
		c-0.055-0.013-0.102-0.035-0.144-0.065c-0.041-0.031-0.074-0.072-0.098-0.122c-0.023-0.053-0.036-0.118-0.036-0.2
		c0-0.077,0.013-0.146,0.036-0.2c0.024-0.055,0.057-0.1,0.095-0.135c0.04-0.035,0.085-0.063,0.136-0.083s0.106-0.037,0.165-0.05
		c0.055-0.013,0.111-0.022,0.171-0.029c0.06-0.01,0.117-0.02,0.17-0.031c0.054-0.012,0.103-0.028,0.148-0.047
		c0.046-0.018,0.085-0.044,0.116-0.076V16.84z"/>
	<rect x="11.473" y="13.683" width="0.73" height="0.718"/>
	<rect x="11.473" y="14.893" width="0.73" height="3.175"/>
	<path d="M13.889,15.697c0.093-0.054,0.205-0.08,0.339-0.08c0.045,0,0.091,0.003,0.139,0.009c0.049,0.007,0.09,0.014,0.124,0.021
		v-0.81c-0.051-0.021-0.105-0.031-0.159-0.031c-0.09,0-0.178,0.016-0.265,0.049c-0.087,0.032-0.169,0.08-0.244,0.139
		c-0.076,0.059-0.143,0.131-0.201,0.215c-0.058,0.084-0.104,0.175-0.139,0.273h-0.01v-0.59h-0.694v3.175h0.73v-1.431
		c0-0.14,0.011-0.271,0.036-0.396c0.024-0.125,0.064-0.232,0.12-0.325S13.796,15.75,13.889,15.697z"/>
	<path d="M18.277,16.425c-0.079-0.067-0.169-0.122-0.27-0.162c-0.101-0.043-0.205-0.076-0.311-0.105
		c-0.103-0.028-0.204-0.055-0.303-0.08c-0.1-0.024-0.188-0.052-0.265-0.082c-0.077-0.031-0.14-0.071-0.188-0.12
		c-0.047-0.05-0.072-0.112-0.072-0.189c0-0.066,0.014-0.118,0.041-0.158c0.028-0.039,0.062-0.067,0.1-0.089
		c0.04-0.021,0.084-0.033,0.131-0.04c0.049-0.006,0.092-0.009,0.134-0.009c0.13,0,0.244,0.03,0.339,0.089
		c0.096,0.059,0.15,0.174,0.16,0.342h0.694c-0.014-0.197-0.056-0.36-0.126-0.489c-0.07-0.129-0.159-0.232-0.265-0.31
		c-0.105-0.079-0.227-0.134-0.361-0.166c-0.136-0.033-0.275-0.049-0.419-0.049c-0.145,0-0.285,0.015-0.422,0.046
		c-0.136,0.03-0.26,0.084-0.37,0.16c-0.109,0.075-0.198,0.18-0.264,0.313c-0.067,0.132-0.1,0.3-0.1,0.5
		c0,0.14,0.023,0.257,0.071,0.354c0.048,0.097,0.111,0.177,0.19,0.239c0.079,0.064,0.168,0.114,0.27,0.154
		c0.102,0.038,0.205,0.072,0.312,0.101c0.13,0.033,0.246,0.064,0.349,0.096c0.104,0.031,0.19,0.063,0.26,0.102
		c0.07,0.037,0.124,0.078,0.161,0.125c0.039,0.047,0.057,0.104,0.057,0.17c0,0.077-0.016,0.143-0.046,0.192
		c-0.031,0.053-0.07,0.093-0.116,0.124c-0.046,0.031-0.098,0.054-0.154,0.067s-0.111,0.021-0.163,0.021
		c-0.071,0-0.141-0.011-0.208-0.03c-0.067-0.021-0.126-0.053-0.177-0.095c-0.051-0.044-0.094-0.101-0.126-0.168
		c-0.032-0.067-0.049-0.147-0.049-0.242h-0.693c0.007,0.21,0.047,0.385,0.121,0.528s0.167,0.259,0.282,0.347
		c0.115,0.088,0.247,0.15,0.393,0.188c0.147,0.037,0.299,0.056,0.453,0.056c0.151,0,0.299-0.019,0.445-0.056
		c0.145-0.037,0.275-0.098,0.388-0.184c0.114-0.087,0.205-0.199,0.275-0.342c0.07-0.14,0.106-0.314,0.106-0.525
		c0-0.146-0.025-0.27-0.072-0.371C18.42,16.576,18.356,16.492,18.277,16.425z"/>
	<path d="M20.426,15.475v-0.582h-0.535V13.94h-0.73v0.952H18.72v0.582h0.441v1.874c0,0.16,0.022,0.289,0.067,0.386
		c0.044,0.101,0.105,0.176,0.183,0.231c0.076,0.056,0.166,0.092,0.266,0.111c0.101,0.018,0.208,0.027,0.321,0.027
		c0.072,0,0.146-0.002,0.221-0.007c0.075-0.003,0.144-0.013,0.206-0.024v-0.681c-0.069,0.015-0.145,0.023-0.226,0.023
		c-0.124,0-0.207-0.023-0.248-0.073c-0.041-0.049-0.061-0.147-0.061-0.296v-1.572H20.426z"/>
	<path d="M21.858,17.066h-0.01l-0.601-2.174h-0.781l0.936,2.979c0.02,0.062,0.03,0.126,0.03,0.196c0,0.065-0.01,0.128-0.03,0.185
		c-0.021,0.057-0.052,0.105-0.095,0.145c-0.044,0.038-0.096,0.063-0.158,0.07c-0.071,0.003-0.144,0.002-0.216-0.007
		c-0.071-0.008-0.141-0.015-0.21-0.024v0.719c0.075,0.008,0.15,0.016,0.224,0.021c0.074,0.007,0.147,0.009,0.224,0.009
		c0.25,0,0.445-0.056,0.585-0.169c0.141-0.112,0.25-0.296,0.329-0.549l1.11-3.574h-0.755L21.858,17.066z"/>
	<rect x="23.462" y="13.683" width="0.73" height="4.385"/>
	<path d="M27.233,15.985c-0.047-0.226-0.125-0.425-0.234-0.602c-0.107-0.177-0.245-0.316-0.414-0.421
		c-0.167-0.105-0.365-0.156-0.59-0.156c-0.203,0-0.386,0.043-0.553,0.129c-0.166,0.086-0.31,0.203-0.43,0.352
		c-0.12,0.15-0.213,0.328-0.278,0.533s-0.097,0.425-0.097,0.662c0,0.246,0.032,0.471,0.095,0.676
		c0.064,0.204,0.154,0.382,0.27,0.529s0.259,0.261,0.426,0.342c0.169,0.083,0.356,0.124,0.566,0.124c0.301,0,0.557-0.083,0.77-0.251
		c0.212-0.169,0.37-0.441,0.474-0.817h-0.643c-0.025,0.098-0.09,0.191-0.196,0.28c-0.106,0.087-0.232,0.131-0.38,0.131
		c-0.205,0-0.362-0.063-0.473-0.193c-0.11-0.129-0.17-0.333-0.18-0.61h1.917C27.298,16.446,27.282,16.21,27.233,15.985z
		 M25.368,16.139c0.003-0.062,0.015-0.131,0.034-0.209c0.019-0.077,0.051-0.15,0.097-0.221c0.046-0.069,0.108-0.128,0.185-0.175
		c0.078-0.047,0.174-0.071,0.29-0.071c0.179,0,0.311,0.057,0.399,0.172c0.087,0.115,0.147,0.283,0.182,0.504H25.368z"/>
	<path d="M13.099,22.1c-0.044-0.05-0.093-0.093-0.146-0.125c-0.052-0.035-0.105-0.063-0.159-0.084
		c-0.053-0.021-0.103-0.039-0.15-0.051c-0.047-0.013-0.086-0.021-0.115-0.027c-0.151-0.039-0.273-0.071-0.367-0.098
		c-0.094-0.025-0.167-0.051-0.22-0.075c-0.054-0.022-0.089-0.05-0.107-0.079c-0.018-0.028-0.026-0.067-0.026-0.115
		s0.011-0.091,0.034-0.126c0.023-0.035,0.051-0.064,0.086-0.087s0.074-0.038,0.116-0.048c0.044-0.009,0.086-0.013,0.129-0.013
		c0.063,0,0.124,0.005,0.18,0.017c0.057,0.011,0.106,0.031,0.149,0.058c0.042,0.027,0.078,0.063,0.104,0.111
		c0.025,0.047,0.04,0.107,0.045,0.18h0.515c0-0.14-0.026-0.259-0.08-0.357c-0.052-0.098-0.125-0.178-0.215-0.242
		c-0.09-0.063-0.194-0.107-0.31-0.137c-0.116-0.028-0.237-0.042-0.364-0.042c-0.108,0-0.216,0.015-0.325,0.043
		c-0.109,0.03-0.205,0.075-0.292,0.136c-0.085,0.063-0.155,0.137-0.207,0.229c-0.054,0.09-0.08,0.199-0.08,0.322
		c0,0.112,0.021,0.208,0.063,0.285c0.042,0.076,0.096,0.14,0.164,0.192c0.069,0.053,0.145,0.096,0.231,0.128
		c0.085,0.032,0.173,0.06,0.264,0.082c0.087,0.025,0.175,0.048,0.26,0.066c0.086,0.019,0.163,0.043,0.231,0.071
		c0.067,0.027,0.123,0.063,0.164,0.103c0.041,0.041,0.063,0.094,0.063,0.16c0,0.06-0.016,0.11-0.047,0.149
		c-0.031,0.04-0.071,0.07-0.119,0.093c-0.048,0.022-0.098,0.039-0.153,0.046c-0.054,0.009-0.104,0.012-0.151,0.012
		c-0.073,0-0.142-0.008-0.205-0.025c-0.065-0.016-0.122-0.042-0.17-0.077c-0.049-0.035-0.088-0.08-0.116-0.138
		c-0.03-0.056-0.044-0.125-0.044-0.206h-0.515c-0.002,0.148,0.025,0.277,0.083,0.386s0.134,0.198,0.229,0.268
		c0.095,0.07,0.205,0.123,0.33,0.155c0.125,0.035,0.255,0.052,0.388,0.052c0.165,0,0.31-0.021,0.435-0.059
		c0.126-0.041,0.231-0.096,0.315-0.163c0.085-0.07,0.148-0.151,0.191-0.245c0.043-0.095,0.065-0.197,0.065-0.309
		c0-0.091-0.014-0.17-0.042-0.238C13.179,22.208,13.143,22.149,13.099,22.1z"/>
	<polygon points="15.071,21.744 14.093,21.744 14.093,20.816 13.562,20.816 13.562,23.233 14.093,23.233 14.093,22.19 15.071,22.19 
		15.071,23.233 15.603,23.233 15.603,20.816 15.071,20.816 	"/>
	<path d="M18.026,21.127c-0.101-0.115-0.225-0.205-0.373-0.27c-0.146-0.065-0.313-0.099-0.5-0.099c-0.188,0-0.355,0.033-0.501,0.099
		c-0.147,0.064-0.271,0.154-0.373,0.27c-0.101,0.115-0.18,0.251-0.233,0.407c-0.054,0.155-0.082,0.323-0.082,0.5
		c0,0.175,0.028,0.338,0.082,0.491c0.054,0.154,0.132,0.287,0.233,0.399c0.102,0.113,0.225,0.202,0.373,0.267
		c0.146,0.066,0.314,0.1,0.501,0.1c0.186,0,0.354-0.033,0.5-0.1c0.148-0.064,0.271-0.153,0.373-0.267
		c0.103-0.112,0.18-0.245,0.234-0.399c0.055-0.153,0.081-0.316,0.081-0.491c0-0.177-0.026-0.345-0.081-0.5
		C18.206,21.378,18.128,21.242,18.026,21.127z M17.775,22.331c-0.024,0.096-0.063,0.183-0.114,0.259
		c-0.053,0.077-0.12,0.139-0.204,0.185c-0.083,0.046-0.185,0.07-0.304,0.07c-0.12,0-0.221-0.024-0.305-0.07
		s-0.151-0.107-0.204-0.185c-0.051-0.076-0.089-0.163-0.113-0.259c-0.023-0.097-0.036-0.194-0.036-0.297
		c0-0.104,0.013-0.208,0.036-0.308c0.024-0.1,0.062-0.188,0.113-0.266c0.052-0.078,0.12-0.141,0.204-0.187s0.185-0.069,0.305-0.069
		c0.119,0,0.221,0.023,0.304,0.069c0.083,0.046,0.151,0.108,0.204,0.187c0.051,0.078,0.09,0.166,0.114,0.266
		c0.023,0.1,0.035,0.203,0.035,0.308C17.81,22.137,17.798,22.234,17.775,22.331z"/>
	<path d="M20.438,21.057c-0.066-0.072-0.153-0.131-0.259-0.175c-0.106-0.044-0.235-0.065-0.386-0.065h-1.09v2.417h0.531v-0.866
		h0.559c0.151,0,0.28-0.022,0.386-0.066c0.106-0.044,0.192-0.103,0.259-0.174c0.066-0.072,0.115-0.155,0.145-0.247
		c0.031-0.093,0.046-0.189,0.046-0.288c0-0.098-0.015-0.192-0.046-0.287C20.553,21.212,20.504,21.13,20.438,21.057z M20.076,21.777
		c-0.026,0.047-0.06,0.085-0.102,0.109c-0.044,0.026-0.094,0.044-0.15,0.053c-0.056,0.01-0.115,0.014-0.175,0.014h-0.414v-0.724
		h0.414c0.06,0,0.119,0.005,0.175,0.013c0.057,0.01,0.106,0.027,0.15,0.053c0.042,0.025,0.076,0.063,0.102,0.109
		c0.026,0.048,0.039,0.11,0.039,0.188C20.115,21.668,20.102,21.729,20.076,21.777z"/>
	<path d="M31.857,13.365l-1.688-2.921l-0.29-1.872l-0.008-0.058l-1.646-1.44l-1.9-3.291L23.14,2.625l-1.384-1.213l-0.044-0.037
		l-2.124-0.044L15.929,0l-3.267,1.188l-1.79-0.036L9.308,2.41L5.531,3.783L3.737,6.892L2.47,7.912L2.423,7.947L2.057,9.802L0,13.365
		l0.637,3.617l-0.305,1.544l-0.011,0.058l0.881,1.602l0.719,4.076l2.831,2.376l0.768,1.396l0.027,0.05l1.725,0.67l3.125,2.621h3.641
		l1.565,0.606L15.656,32l1.84-0.626h3.965l2.708-2.273l1.751-0.597l1.072-1.772l2.944-2.47l0.595-3.376l0.974-1.607l0.03-0.05
		l-0.334-2.147L31.857,13.365z M25.708,28.239L15.664,31.66l-9.892-3.832l-5.113-9.297L2.716,8.124l8.266-6.65l10.608,0.219
		l7.984,6.985L31.2,19.162L25.708,28.239z"/>
	<path d="M18.92,12.116c0.895-0.087,2.342-0.104,2.342-1.447c-0.861,0.619-2.414,0.291-2.705-0.897
		c-0.226-1.137-2.176-1.811-2.628-0.957c-0.454-0.854-2.403-0.18-2.627,0.957c-0.293,1.188-1.846,1.517-2.707,0.897
		c0,1.344,1.449,1.36,2.342,1.447c2.125-0.094,2.795-1.072,2.992-1.52C16.126,11.044,16.797,12.022,18.92,12.116z"/>
</g>
<g>
</g>
<g>
</g>
<g>
</g>
<g>
</g>
<g>
</g>
<g>
</g>
<g>
</g>
<g>
</g>
<g>
</g>
<g>
</g>
<g>
</g>
<g>
</g>
<g>
</g>
<g>
</g>
<g>
</g>
</svg>
