<?xml version="1.0" encoding="iso-8859-1"?>
<!-- Generator: Adobe Illustrator 16.0.0, SVG Export Plug-In . SVG Version: 6.00 Build 0)  -->
<!DOCTYPE svg PUBLIC "-//W3C//DTD SVG 1.1//EN" "http://www.w3.org/Graphics/SVG/1.1/DTD/svg11.dtd">
<svg version="1.1" id="Layer_1" xmlns="http://www.w3.org/2000/svg" xmlns:xlink="http://www.w3.org/1999/xlink" x="0px" y="0px"
	 width="26.35px" height="31.106px" viewBox="0 0 26.35 31.106" style="enable-background:new 0 0 26.35 31.106;"
	 xml:space="preserve">
<g>
	<ellipse cx="22.976" cy="3.477" rx="3.374" ry="3.477"/>
	<path d="M25.194,8.445c-1.219-0.991-3.714-0.07-4.288-0.128s-4.616-3.261-4.616-3.261L16.027,5.31
		c-0.051-0.818-0.131-2.154-0.388-2.997c-0.346-1.132-0.479-1.214-0.785-1.188c-0.305,0.028-1.276,0.322-1.276,0.322l0.023,0.123
		c0,0,0.777-0.081,1.092-0.113c0.024-0.003,0.051,0.015,0.077,0.05l-1.103,0.247l0.021,0.108l1.173-0.171
		c0.01,0.024,0.021,0.05,0.029,0.077l-1.144,0.256l0.022,0.108l1.181-0.173c0.008,0.026,0.015,0.056,0.023,0.085L13.82,2.301
		l0.021,0.109l1.182-0.17c0.008,0.034,0.016,0.066,0.024,0.102l-1.186,0.267l0.02,0.106l1.206-0.189
		c0.006,0.038,0.015,0.076,0.022,0.114l-1.191,0.267l0.02,0.109l1.207-0.185c0.007,0.035,0.014,0.07,0.02,0.105l-1.19,0.267
		l0.021,0.107l1.201-0.193c0.006,0.036,0.012,0.07,0.016,0.105l-1.183,0.266l0.021,0.108l1.194-0.178
		c0.007,0.042,0.013,0.087,0.02,0.131l-1.172,0.263l0.02,0.107l1.179-0.168c0.004,0.037,0.009,0.075,0.013,0.11l-1.152,0.259
		l0.02,0.109l1.155-0.171c0.004,0.034,0.008,0.066,0.01,0.101L14.16,4.424l0.021,0.107l1.174-0.157
		c0.002,0.036,0.004,0.071,0.005,0.102l-1.179,0.264l0.022,0.108l1.157-0.17c-0.004,0.061-0.014,0.097-0.029,0.103
		c-0.162,0.053-1.104,0.272-1.104,0.272s0.005,0.047,0.012,0.102c0.26,0.041,0.947,0.125,1.048,0.565
		c0.016,0.069,0.026,0.161,0.035,0.269l-0.461,0.442c0,0,0.178,0.13,0.468,0.346c-0.017,0.758-0.074,1.646-0.022,1.947
		c0.081,0.476,1.201,0.293,1.305-0.337c0.026-0.145-0.015-0.407-0.082-0.705c1.722,1.317,4.153,3.262,4.135,3.726
		c-0.029,0.719-0.25,7.308,0.031,7.547l0,0l-0.577,5.348l0.51,5.258H19.14v1.547h5.06v-0.334V29.56v-9.935
		c0.595-0.117,1.049-0.431,1.127-1.083C25.572,16.497,26.554,9.55,25.194,8.445z M15.93,8.593c-0.111,0.021-0.219-0.052-0.239-0.163
		c-0.022-0.111,0.051-0.219,0.162-0.24c0.111-0.021,0.219,0.053,0.24,0.163C16.114,8.463,16.041,8.571,15.93,8.593z"/>
	<circle cx="10.418" cy="3.774" r="2.651"/>
	<path d="M13.069,18.717l0.01,0.002l2.02-9.125l-2.039-0.452l-0.163,0.735c0.105,2.665-0.052,6.417-1.135,7.16
		c-0.636,0.436-1.948,0.657-3.902,0.657c-1.204,0-2.645-0.089-4.138-0.247v1.328h3.469L6.688,29.182H3.624l-1.061,1.591h11.932
		l-1.061-1.591h-3.263L9.667,18.775h3.402V18.717z"/>
	<path d="M1.364,16.734c0.079,0.016,0.158,0.031,0.244,0.044c0.536,0.081,1.09,0.153,1.65,0.218c0.005,0,0.009,0.002,0.014,0.002
		l0,0c0.5,0.058,1.005,0.109,1.507,0.152c0.012,0.001,0.024,0.002,0.038,0.003c0.315,0.027,0.629,0.05,0.939,0.069
		c0.05,0.004,0.1,0.007,0.149,0.01c0.322,0.02,0.642,0.035,0.953,0.047c0.031,0.001,0.06,0.001,0.091,0.002
		c0.268,0.008,0.528,0.012,0.785,0.014c0.041,0,0.085,0.002,0.126,0.002c0.06,0,0.117-0.002,0.175-0.002
		c0.097-0.001,0.192-0.002,0.287-0.004c0.117-0.002,0.231-0.006,0.343-0.01c0.091-0.003,0.182-0.007,0.271-0.012
		c0.109-0.006,0.214-0.014,0.319-0.021c0.086-0.006,0.171-0.013,0.253-0.021c0.102-0.008,0.198-0.02,0.294-0.031
		c0.078-0.01,0.156-0.018,0.23-0.028c0.093-0.013,0.18-0.028,0.268-0.044c0.068-0.012,0.139-0.023,0.204-0.037
		c0.085-0.017,0.163-0.038,0.241-0.059c0.057-0.015,0.118-0.027,0.17-0.045c0.081-0.023,0.152-0.051,0.224-0.08
		c0.041-0.015,0.085-0.028,0.122-0.045c0.104-0.046,0.197-0.096,0.276-0.15c0.043-0.029,0.084-0.065,0.124-0.108
		c0.013-0.015,0.026-0.033,0.039-0.049c0.025-0.03,0.051-0.063,0.075-0.099c0.015-0.022,0.028-0.047,0.042-0.07
		c0.021-0.036,0.042-0.073,0.063-0.113c0.014-0.028,0.027-0.058,0.041-0.088c0.019-0.041,0.037-0.084,0.055-0.128
		c0.013-0.033,0.025-0.066,0.037-0.102c0.018-0.048,0.034-0.097,0.051-0.148c0.011-0.036,0.021-0.071,0.033-0.109
		c0.016-0.056,0.031-0.111,0.046-0.17c0.009-0.037,0.019-0.074,0.028-0.113c0.015-0.063,0.03-0.13,0.043-0.197
		c0.008-0.036,0.016-0.072,0.023-0.109c0.014-0.075,0.028-0.155,0.042-0.234c0.005-0.03,0.011-0.062,0.016-0.093
		c0.016-0.098,0.03-0.196,0.044-0.297c0.002-0.018,0.004-0.032,0.006-0.049c0.083-0.617,0.133-1.307,0.159-2.009
		c0-0.004,0-0.008,0-0.011c0.005-0.137,0.009-0.274,0.012-0.412c0-0.005,0-0.009,0-0.014c0.004-0.138,0.006-0.276,0.007-0.414
		c0-0.001,0-0.002,0-0.003l0,0c0.012-1.063-0.026-2.096-0.089-2.891l0,0c0-0.003,0-0.005,0-0.007
		c-0.007-0.089-0.015-0.176-0.022-0.259c0-0.01-0.001-0.021-0.002-0.032c-0.008-0.086-0.016-0.167-0.025-0.244
		c0-0.005-0.001-0.011-0.001-0.017c-0.037-0.33-0.078-0.588-0.12-0.744C11.295,6.779,9.31,7.114,8.579,7.112
		c-0.612,0.289-1.174,5.786-3.786,5.58C1.651,12.316-2.052,16.032,1.364,16.734C1.364,16.733,1.364,16.734,1.364,16.734z"/>
	<path d="M1.55,17.173c-0.16-0.023-0.302-0.056-0.438-0.089c-0.397,0.555-0.665,0.943-0.665,0.943c0,0.405,0.469,0.515,1.061,0.515
		c0.515,0,0.942-0.247,1.047-0.577L3,17.366C2.517,17.308,2.032,17.244,1.55,17.173z"/>
</g>
<g>
</g>
<g>
</g>
<g>
</g>
<g>
</g>
<g>
</g>
<g>
</g>
<g>
</g>
<g>
</g>
<g>
</g>
<g>
</g>
<g>
</g>
<g>
</g>
<g>
</g>
<g>
</g>
<g>
</g>
</svg>
