<?xml version="1.0" encoding="iso-8859-1"?>
<!-- Generator: Adobe Illustrator 16.0.0, SVG Export Plug-In . SVG Version: 6.00 Build 0)  -->
<!DOCTYPE svg PUBLIC "-//W3C//DTD SVG 1.1//EN" "http://www.w3.org/Graphics/SVG/1.1/DTD/svg11.dtd">
<svg version="1.1" id="Layer_1" xmlns="http://www.w3.org/2000/svg" xmlns:xlink="http://www.w3.org/1999/xlink" x="0px" y="0px"
	 width="23.182px" height="31.499px" viewBox="0 0 23.182 31.499" style="enable-background:new 0 0 23.182 31.499;"
	 xml:space="preserve">
<path d="M20.991,14.142c0.093-0.536,0.522-0.79,0.643-0.924c0.121-0.135,0.404-1.587-1.165-3.897
	c-0.466-0.687-1.042-1.418-1.787-2.067c1.347-0.589,5.344-2.664,1.964-5.378C16.631-1.347,8.075-0.026,5.804,2.886
	c-1.374,1.961-6.338,5.327-5.757,8.813s0.37,6.708,2.218,8.628c1.288,1.338,2.497,0.624,3.113,0.067
	c1.036,1.88,2.624,3.117,2.243,3.671c-0.454,0.66-1.753,7.42-1.753,7.42l10.395,0.014c0,0-0.85-0.479-1.404-1.116
	c-0.38-0.436,0.115-1.297,0.666-2.789c0.075-0.202,0.524,0.085,0.813-0.597c0.289-0.681-0.285-1.023-0.217-1.228
	c0.061-0.181,0.105-0.159,0.143-0.302c0.077-0.415,0.265-0.664,0.52-0.812c3.875,0.117,4.884-0.075,3.926-2.76
	c0.124-0.114,0.817-0.563,0.964-0.885c0.147-0.32-0.201-0.401-0.201-0.401s0.254,0.014,0.442-0.281
	c0.187-0.295-0.322-1.447-0.322-1.447s1.286-0.281,1.567-0.763C23.442,17.637,20.897,14.677,20.991,14.142z"/>
<g>
</g>
<g>
</g>
<g>
</g>
<g>
</g>
<g>
</g>
<g>
</g>
<g>
</g>
<g>
</g>
<g>
</g>
<g>
</g>
<g>
</g>
<g>
</g>
<g>
</g>
<g>
</g>
<g>
</g>
</svg>
