<?xml version="1.0" encoding="utf-8"?>
<!-- Generator: Adobe Illustrator 16.0.4, SVG Export Plug-In . SVG Version: 6.00 Build 0)  -->
<!DOCTYPE svg PUBLIC "-//W3C//DTD SVG 1.1//EN" "http://www.w3.org/Graphics/SVG/1.1/DTD/svg11.dtd">
<svg version="1.1" id="Layer_1" xmlns="http://www.w3.org/2000/svg" xmlns:xlink="http://www.w3.org/1999/xlink" x="0px" y="0px"
	 width="30.964px" height="31.75px" viewBox="0 0 30.964 31.75" enable-background="new 0 0 30.964 31.75" xml:space="preserve">
<path d="M30.946,19.335c-0.261,0.447-1.454,0.709-1.454,0.709s0.473,1.067,0.299,1.342c-0.174,0.273-0.41,0.262-0.41,0.262
	s0.322,0.074,0.186,0.372s-0.779,0.715-0.895,0.819c0.888,2.492-0.049,2.67-3.643,2.561c-0.236,0.139-0.41,0.369-0.482,0.754
	c-0.034,0.133-0.076,0.111-0.133,0.279c-0.063,0.189,0.471,0.508,0.201,1.139c-0.268,0.633-0.685,0.366-0.754,0.555
	c-0.512,1.385-0.971,2.184-0.617,2.588c0.514,0.591,1.303,1.035,1.303,1.035l-9.644-0.014c0,0,1.205-6.271,1.626-6.884
	c0.422-0.612-1.762-2.127-2.567-4.483c-1.861-5.011-1.725-10.922,4.368-12.455c6.094-1.532,8.662,1.117,10.117,3.26
	c1.456,2.144,1.193,3.491,1.081,3.616c-0.112,0.124-0.51,0.36-0.596,0.856C28.843,16.144,31.207,18.889,30.946,19.335z
	 M11.736,9.841l1.115,0.833l-0.122,0.164l-1.115-0.833l-0.075,0.101l1.116,0.833l-0.137,0.182l-1.115-0.833l-0.075,0.102
	l1.115,0.832l-0.122,0.164l-1.116-0.833l-0.075,0.1l1.115,0.833l-0.125,0.169l-1.115-0.835l-0.076,0.102l1.115,0.834l-0.122,0.163
	l-1.115-0.833l-0.076,0.1l1.116,0.833l-0.179,0.239l-1.637-1.224L9.726,11.44l-1.447-1.081l0.003-0.005
	C7.68,9.817,0.757,3.625,0.124,3.152c-0.661-0.495,1.49-3.68,2.3-3.076c0.773,0.578,8.538,5.365,9.218,5.783l0.003-0.005
	l1.448,1.082L12.87,7.235l1.637,1.223l-0.156,0.207l-1.114-0.832l-0.076,0.101l1.116,0.834L14.14,8.949l-1.115-0.833L12.95,8.217
	l1.118,0.831l-0.123,0.164L12.83,8.38l-0.075,0.1l1.114,0.833L13.745,9.48l-1.116-0.832l-0.075,0.1l1.114,0.833l-0.122,0.164
	l-1.115-0.832l-0.075,0.099l1.114,0.833l-0.147,0.198L12.208,9.21l-0.075,0.101l1.115,0.832l-0.123,0.164L12.01,9.474l-0.075,0.101
	l1.115,0.833l-0.125,0.168L11.81,9.742L11.736,9.841z M7.489,5.541C6.964,5.146,6.383,5.037,6.193,5.292
	C6.002,5.545,6.274,6.07,6.8,6.464c0.526,0.391,1.107,0.505,1.297,0.249C8.287,6.458,8.015,5.934,7.489,5.541z M11.975,6.738
	l-0.249-0.187l-2.757,3.69l0.249,0.187L11.975,6.738z M7.348,5.808C7.096,5.62,6.817,5.567,6.726,5.689
	C6.634,5.812,6.765,6.064,7.017,6.252C7.27,6.44,7.548,6.494,7.64,6.371C7.731,6.248,7.601,5.996,7.348,5.808z"/>
</svg>
