<?xml version="1.0" encoding="iso-8859-1"?>
<!-- Generator: Adobe Illustrator 16.0.0, SVG Export Plug-In . SVG Version: 6.00 Build 0)  -->
<!DOCTYPE svg PUBLIC "-//W3C//DTD SVG 1.1//EN" "http://www.w3.org/Graphics/SVG/1.1/DTD/svg11.dtd">
<svg version="1.1" id="Layer_1" xmlns="http://www.w3.org/2000/svg" xmlns:xlink="http://www.w3.org/1999/xlink" x="0px" y="0px"
	 width="22.934px" height="31.69px" viewBox="0 0 22.934 31.69" style="enable-background:new 0 0 22.934 31.69;"
	 xml:space="preserve">
<path d="M20.694,13.949c0.096-0.547,0.534-0.807,0.657-0.943c0.123-0.138,0.413-1.622-1.191-3.984c-0.512-0.753-1.151-1.563-2-2.262
	c1.038-0.908,3.072-2.875,2.938-4.22c-0.18-1.799-10.233-5.793-18.054,2.592s1.896,16.95,1.896,16.95l0.601-0.496
	c0.905,1.231,1.786,2.073,1.488,2.507c-0.464,0.675-1.792,7.583-1.792,7.583l10.625,0.015c0,0-0.869-0.49-1.436-1.141
	c-0.389-0.445,0.117-1.326,0.681-2.851c0.076-0.207,0.535,0.087,0.831-0.61c0.295-0.695-0.292-1.046-0.222-1.255
	c0.062-0.185,0.107-0.162,0.146-0.308c0.079-0.425,0.271-0.679,0.532-0.83c3.96,0.12,4.992-0.077,4.013-2.82
	c0.126-0.117,0.835-0.575,0.986-0.904c0.15-0.327-0.205-0.41-0.205-0.41s0.26,0.014,0.451-0.287
	c0.191-0.302-0.329-1.479-0.329-1.479s1.314-0.287,1.602-0.78C23.199,17.522,20.598,14.497,20.694,13.949z"/>
<g>
</g>
<g>
</g>
<g>
</g>
<g>
</g>
<g>
</g>
<g>
</g>
<g>
</g>
<g>
</g>
<g>
</g>
<g>
</g>
<g>
</g>
<g>
</g>
<g>
</g>
<g>
</g>
<g>
</g>
</svg>
