<?xml version="1.0" encoding="iso-8859-1"?>
<!-- Generator: Adobe Illustrator 16.0.0, SVG Export Plug-In . SVG Version: 6.00 Build 0)  -->
<!DOCTYPE svg PUBLIC "-//W3C//DTD SVG 1.1//EN" "http://www.w3.org/Graphics/SVG/1.1/DTD/svg11.dtd">
<svg version="1.1" id="Layer_1" xmlns="http://www.w3.org/2000/svg" xmlns:xlink="http://www.w3.org/1999/xlink" x="0px" y="0px"
	 width="27.977px" height="31.521px" viewBox="0 0 27.977 31.521" style="enable-background:new 0 0 27.977 31.521;"
	 xml:space="preserve">
<g>
	<path d="M25.704,13.512c0.097-0.556,0.542-0.819,0.667-0.958c0.125-0.14,0.419-1.646-1.209-4.044
		c-1.629-2.396-4.5-5.359-11.314-3.646c-6.814,1.714-6.966,8.325-4.886,13.93c0.9,2.635,3.342,4.329,2.871,5.014
		c-0.471,0.686-1.819,7.698-1.819,7.698l10.785,0.015c0,0-0.882-0.497-1.457-1.157c-0.395-0.452,0.119-1.347,0.69-2.895
		c0.078-0.21,0.544,0.089,0.844-0.619c0.3-0.706-0.295-1.062-0.225-1.273c0.063-0.188,0.109-0.165,0.148-0.313
		c0.08-0.431,0.275-0.689,0.54-0.843c4.02,0.121,5.067-0.078,4.074-2.863c0.128-0.118,0.848-0.584,1-0.918
		c0.153-0.332-0.208-0.416-0.208-0.416s0.264,0.014,0.458-0.292s-0.333-1.501-0.333-1.501s1.334-0.292,1.625-0.792
		C28.246,17.139,25.606,14.067,25.704,13.512z"/>
	<path d="M9.486,3.312c0.781-0.016,2.775-0.358,2.775-0.358s0.024,0.6,0.19,0.556c0.167-0.042,7.122-1.827,7.122-1.827
		s0.373-1.93-0.765-1.655c-0.689,0.167-6.391,1.547-10.774,2.605C8.07,2.573,8.105,2.513,8.141,2.453
		c0.31-0.472-0.438-0.769-1.458-0.36C6.318,2.312,5.934,2.708,5.544,3.233C3.961,3.616,2.895,3.874,2.895,3.874
		s-0.376,0.27-0.08,0.463c0.633,0.03,1.351-0.026,2.077-0.129C2.484,8.174,0.016,15.93,0,16.62c-0.02,0.865,2.43,1.905,2.132,1.252
		c0.19-3.773,2.032-8.559,5.253-14.138C8.37,3.515,9.163,3.317,9.486,3.312z M1.429,16.838c-0.113,0.097-0.284,0.082-0.38-0.031
		c-0.096-0.114-0.082-0.284,0.032-0.381c0.114-0.097,0.285-0.081,0.381,0.03C1.558,16.572,1.544,16.741,1.429,16.838z M7.022,3.255
		C6.908,3.35,6.737,3.335,6.64,3.22C6.545,3.107,6.559,2.936,6.672,2.84c0.114-0.096,0.285-0.081,0.381,0.032
		C7.149,2.986,7.136,3.157,7.022,3.255z"/>
</g>
<g>
</g>
<g>
</g>
<g>
</g>
<g>
</g>
<g>
</g>
<g>
</g>
<g>
</g>
<g>
</g>
<g>
</g>
<g>
</g>
<g>
</g>
<g>
</g>
<g>
</g>
<g>
</g>
<g>
</g>
</svg>
