<?xml version="1.0" encoding="utf-8"?>
<!-- Generator: Adobe Illustrator 16.0.4, SVG Export Plug-In . SVG Version: 6.00 Build 0)  -->
<!DOCTYPE svg PUBLIC "-//W3C//DTD SVG 1.1//EN" "http://www.w3.org/Graphics/SVG/1.1/DTD/svg11.dtd">
<svg version="1.1" id="Layer_1" xmlns="http://www.w3.org/2000/svg" xmlns:xlink="http://www.w3.org/1999/xlink" x="0px" y="0px"
	 width="13.178px" height="31.764px" viewBox="0 0 13.178 31.764" enable-background="new 0 0 13.178 31.764" xml:space="preserve">
<path d="M13.178,9.108C13.178,4.086,10.223,0,6.589,0C2.956,0,0,4.086,0,9.108c0,3.363,1.329,6.3,3.296,7.877
	c-0.008,0.163-0.055,0.337-0.167,0.515c1.114,0.04,1.763,1.724,1.604,2.519c0.598,0,0.478,0.743,0.478,0.743l0.199,0.015v7.647
	h0.357v1.294c-0.496,0.187-0.835,0.541-0.835,0.953c0,0.604,0.721,1.094,1.611,1.094c0.89,0,1.61-0.49,1.61-1.094
	c0-0.412-0.339-0.768-0.835-0.953v-1.294h0.438v-7.647l0.199-0.015c0,0-0.12-0.743,0.477-0.743c-0.159-0.795,0.49-2.479,1.604-2.519
	c-0.109-0.172-0.157-0.343-0.168-0.502C11.843,15.422,13.178,12.479,13.178,9.108z M6.589,16.943c-2.931,0-5.316-3.515-5.316-7.835
	c0-4.319,2.386-7.835,5.316-7.835c2.932,0,5.315,3.516,5.315,7.835C11.905,13.428,9.521,16.943,6.589,16.943z M8.982,3.757
	L9.27,3.892L4.197,14.775L3.908,14.64L8.982,3.757z M5.054,9.092L4.766,8.958L7.1,3.943l0.288,0.134L5.054,9.092z M7.891,9.198
	l0.288,0.135l-2.334,5.015l-0.288-0.134L7.891,9.198z"/>
</svg>
