<?xml version="1.0" encoding="utf-8"?>
<!-- Generator: Adobe Illustrator 16.0.4, SVG Export Plug-In . SVG Version: 6.00 Build 0)  -->
<!DOCTYPE svg PUBLIC "-//W3C//DTD SVG 1.1//EN" "http://www.w3.org/Graphics/SVG/1.1/DTD/svg11.dtd">
<svg version="1.1" id="Layer_1" xmlns="http://www.w3.org/2000/svg" xmlns:xlink="http://www.w3.org/1999/xlink" x="0px" y="0px"
	 width="22.168px" height="31.977px" viewBox="0 0 22.168 31.977" enable-background="new 0 0 22.168 31.977" xml:space="preserve">
<path d="M14.133,8.027l0.602,0.279L7.471,23.952L6.87,23.673L14.133,8.027z M12.038,8.572l-0.602-0.279l-3.341,7.21l0.602,0.279
	L12.038,8.572z M9.229,23.056l0.601,0.279l3.344-7.21l-0.602-0.278L9.229,23.056z M21.186,18.182
	c0.652,0.679,0.904,1.964,0.289,2.753c-0.121,0.157-0.272,0.295-0.466,0.399c-0.755,0.419-2.241,0.152-2.151-0.908
	c0.002-0.023,0.004-0.048,0.006-0.07c0.052-0.392,0.232-0.739,0.517-0.941c0.272-0.202,0.644-0.262,1.043-0.034
	c0.519,0.29,0.609,1.032,0.06,1.334c-0.033,0.02-0.068,0.036-0.107,0.052c-0.249,0.098-0.65,0.019-0.766-0.244
	c-0.028-0.07-0.039-0.152-0.021-0.248c0.086-0.506,0.836-0.199,0.438,0.135c0.173,0.157,0.322,0.042,0.386-0.146
	c0.06-0.191,0.034-0.454-0.13-0.581c-0.354-0.273-0.795-0.073-0.973,0.245c-0.093,0.174-0.133,0.344-0.105,0.505
	c0.036,0.217,0.172,0.414,0.395,0.555c0.402,0.257,0.823,0.124,1.145-0.214c0.027-0.03,0.055-0.061,0.081-0.089
	c0.407-0.482,0.421-0.97,0.221-1.41c-0.192-0.443-0.614-0.845-1.054-1.208c-0.262-0.213-0.534-0.413-0.784-0.607
	c-0.015,0.183-0.031,0.363-0.051,0.543c0.172-0.019,0.321,0.018,0.417,0.146l-0.006,0.041c-0.147,0.05-0.301,0.094-0.45,0.143
	c-0.034,0.261-0.072,0.52-0.116,0.774c0.055,0.059,0.085,0.137,0.073,0.219c-0.015,0.085-0.074,0.15-0.15,0.189
	c-0.118,0.596-0.266,1.174-0.44,1.728c0.113,0.112,0.234,0.222,0.361,0.333c0.489,0.423,1.03,0.83,1.299,1.267l0.037,0.063
	c0.234,0.413,0.346,0.947,0.28,1.464c-0.06,0.517-0.297,1.013-0.696,1.324c-0.16,0.125-0.354,0.218-0.564,0.271
	c-0.415,0.108-0.98-0.012-1.372-0.281c-0.392-0.271-0.634-0.677-0.453-1.17c0.008-0.024,0.017-0.047,0.022-0.067
	c0.146-0.363,0.412-0.646,0.732-0.771c0.318-0.125,0.689-0.095,1.021,0.226c0.434,0.408,0.322,1.164-0.286,1.317
	c-0.037,0.011-0.076,0.018-0.117,0.022c-0.272,0.028-0.633-0.154-0.673-0.438c-0.012-0.075,0-0.157,0.042-0.245
	c0.219-0.464,0.86,0.021,0.389,0.244c0.252,0.402,0.696-0.309,0.435-0.644c-0.274-0.353-0.752-0.268-1-0.006
	c-0.141,0.14-0.215,0.295-0.231,0.457c-0.024,0.217,0.052,0.438,0.229,0.637c0.319,0.361,0.754,0.343,1.164,0.097
	c0.035-0.021,0.068-0.045,0.102-0.065c0.523-0.37,0.664-0.85,0.578-1.331c-0.077-0.482-0.389-0.973-0.735-1.43
	c-0.231-0.302-0.479-0.59-0.698-0.86c-0.07,0.202-0.145,0.401-0.222,0.597c0.228,0.001,0.415,0.065,0.496,0.247l-0.015,0.039
	c-0.203,0.019-0.414,0.022-0.616,0.044c-0.085,0.2-0.173,0.396-0.265,0.587c0.123,0.077,0.185,0.221,0.131,0.345
	c-0.061,0.131-0.223,0.183-0.371,0.129c-0.074,0.143-0.152,0.282-0.231,0.42c0,0.029-0.004,0.061-0.019,0.09
	c-0.02,0.037-0.049,0.063-0.081,0.082c-0.151,0.251-0.31,0.492-0.474,0.723c0.358,0.741,1.064,1.527,1.229,2.242l0.014,0.072
	c0.095,0.475,0.013,1.033-0.247,1.521c-0.121,0.247-0.304,0.465-0.502,0.652c-0.214,0.178-0.441,0.326-0.707,0.396
	c-0.214,0.058-0.427,0.084-0.656,0.046c-0.449-0.066-0.902-0.406-1.14-0.824c-0.235-0.417-0.278-0.878,0.063-1.25l0.047-0.048
	c0.266-0.264,0.605-0.422,0.945-0.425c0.34,0.001,0.68,0.148,0.881,0.566c0.132,0.271,0.097,0.571-0.047,0.808
	c-0.153,0.228-0.414,0.388-0.734,0.338c-0.039-0.006-0.079-0.015-0.12-0.025c-0.263-0.075-0.521-0.395-0.442-0.668
	c0.02-0.073,0.065-0.14,0.135-0.208c0.371-0.351,0.791,0.336,0.266,0.376c0.068,0.474,0.775-0.035,0.648-0.449
	c-0.133-0.432-0.605-0.51-0.932-0.37c-0.18,0.074-0.299,0.194-0.38,0.327c-0.106,0.184-0.118,0.427-0.043,0.676
	c0.138,0.459,0.547,0.63,1.035,0.548c0.041-0.006,0.083-0.014,0.125-0.022c0.644-0.162,0.979-0.58,1.067-1.076
	c0.051-0.246,0.041-0.514-0.004-0.786c-0.041-0.27-0.121-0.548-0.22-0.821c-0.159-0.453-0.364-0.891-0.516-1.278
	c-0.183,0.237-0.37,0.464-0.565,0.677c0.344,0.053,0.655,0.178,0.682,0.454l-0.023,0.033c-0.305-0.071-0.616-0.184-0.921-0.208
	c-0.129,0.129-0.261,0.251-0.394,0.37c0.084-0.011,0.178,0.015,0.256,0.086c0.125,0.113,0.149,0.301,0.043,0.405
	c-0.105,0.105-0.286,0.091-0.405-0.033c-0.082-0.087-0.112-0.196-0.093-0.288c-0.131,0.107-0.264,0.213-0.398,0.311
	c0.041,0.012,0.081,0.032,0.112,0.068c0.08,0.088,0.08,0.217,0,0.289c-0.058,0.052-0.142,0.051-0.211,0.014
	c-0.027-0.014-0.052-0.034-0.073-0.06c-0.02-0.026-0.035-0.055-0.043-0.083c-0.008-0.027-0.005-0.053-0.003-0.077
	c-0.147,0.099-0.297,0.192-0.449,0.278c-0.034,0.33,0.007,0.716,0.052,1.13c0.068,0.631,0.157,1.32-0.018,1.821l-0.025,0.072
	c-0.175,0.469-0.59,0.917-1.135,1.193c-0.544,0.274-1.213,0.337-1.752,0.133c-0.218-0.092-0.414-0.219-0.574-0.386
	c-0.317-0.349-0.437-0.905-0.338-1.372c0.048-0.234,0.144-0.449,0.284-0.608c0.139-0.154,0.321-0.269,0.563-0.302
	c0.022-0.002,0.043-0.005,0.064-0.006c0.355-0.05,0.698,0.044,0.972,0.233c0.267,0.193,0.475,0.517,0.396,0.968
	c-0.054,0.29-0.265,0.539-0.541,0.632c-0.272,0.107-0.602,0.047-0.827-0.177c-0.028-0.03-0.055-0.062-0.08-0.098
	c-0.162-0.229-0.152-0.638,0.08-0.796c0.061-0.046,0.137-0.077,0.234-0.083c0.252-0.013,0.358,0.162,0.348,0.322
	c-0.009,0.162-0.155,0.291-0.374,0.137c-0.118,0.206,0.035,0.32,0.253,0.335c0.217,0.008,0.484-0.102,0.557-0.297
	c0.078-0.217,0.022-0.408-0.086-0.554c-0.109-0.149-0.273-0.263-0.442-0.301c-0.184-0.046-0.345-0.043-0.489,0.024
	c-0.193,0.071-0.357,0.243-0.461,0.491c-0.194,0.44,0.006,0.827,0.461,1.084c0.037,0.019,0.076,0.038,0.118,0.056
	c0.642,0.291,1.215,0.112,1.596-0.242c0.386-0.37,0.599-0.924,0.699-1.493c0.124-0.644,0.106-1.294,0.17-1.763
	c-0.362,0.181-0.735,0.326-1.119,0.43c0.091,0.066,0.181,0.137,0.271,0.215c0.281,0.24,0.529,0.518,0.412,0.791l-0.037,0.017
	c-0.279-0.281-0.519-0.604-0.821-0.797c-0.085-0.05-0.179-0.087-0.274-0.12c-0.332,0.062-0.669,0.097-1.013,0.097
	c-0.081,0-0.161-0.006-0.242-0.009c-0.028,0.022-0.058,0.043-0.086,0.069c-0.088,0.075-0.174,0.164-0.26,0.269
	c-0.174,0.214-0.348,0.455-0.533,0.719c-0.185,0.267-0.377,0.529-0.583,0.766c-0.207,0.237-0.429,0.443-0.663,0.565L8.65,30.708
	c-0.453,0.229-1.053,0.268-1.625,0.119c-0.559-0.159-1.078-0.506-1.325-0.988c-0.107-0.189-0.162-0.405-0.176-0.63
	c-0.031-0.44,0.218-0.966,0.569-1.285c0.354-0.319,0.799-0.459,1.234-0.196c0.02,0.011,0.039,0.022,0.058,0.033
	c0.159,0.103,0.288,0.231,0.393,0.367c0.102,0.145,0.176,0.299,0.215,0.461c0.072,0.328,0.006,0.703-0.353,0.987
	c-0.459,0.378-1.264,0.125-1.299-0.527c-0.002-0.04-0.003-0.08,0-0.122c0.018-0.271,0.276-0.588,0.563-0.572
	c0.075,0.004,0.153,0.03,0.231,0.089c0.205,0.15,0.171,0.352,0.059,0.468c-0.108,0.111-0.308,0.127-0.371-0.131
	c-0.217,0.082-0.181,0.271-0.025,0.415c0.158,0.138,0.415,0.236,0.604,0.129c0.395-0.227,0.361-0.699,0.162-0.991
	c-0.115-0.151-0.245-0.259-0.398-0.303c-0.208-0.057-0.436-0.037-0.669,0.097c-0.419,0.233-0.502,0.666-0.323,1.127
	c0.015,0.038,0.031,0.077,0.05,0.116c0.286,0.606,0.794,0.847,1.312,0.83c0.262-0.008,0.524-0.072,0.783-0.188
	c0.256-0.11,0.504-0.263,0.736-0.438c0.61-0.447,1.075-1.025,1.438-1.317c-0.416-0.045-0.824-0.137-1.22-0.272
	c0.018,0.1,0.034,0.204,0.046,0.31c0.041,0.36,0.034,0.738-0.237,0.856l-0.038-0.014c-0.017-0.389,0.035-0.8-0.067-1.143
	c-0.014-0.048-0.033-0.095-0.054-0.141c-0.313-0.129-0.619-0.285-0.915-0.467c0.021,0.063,0.013,0.141-0.034,0.203
	c-0.07,0.099-0.196,0.126-0.278,0.059c-0.059-0.047-0.079-0.127-0.058-0.202c0.008-0.029,0.022-0.057,0.043-0.083
	c0.022-0.026,0.047-0.046,0.074-0.06c0.027-0.016,0.056-0.021,0.084-0.022c-0.174-0.113-0.344-0.236-0.511-0.366
	c-0.839,0.13-1.916,0.733-2.734,0.714L4.52,27.626c-0.483-0.028-1.001-0.247-1.405-0.599c-0.203-0.174-0.369-0.385-0.499-0.61
	c-0.118-0.229-0.201-0.475-0.214-0.728c-0.009-0.206,0.019-0.414,0.094-0.618c0.313-0.822,1.628-1.544,2.232-0.688
	c0.014,0.021,0.027,0.04,0.04,0.06c0.217,0.324,0.295,0.703,0.223,1.036c-0.081,0.335-0.305,0.625-0.759,0.723
	c-0.291,0.062-0.575-0.035-0.768-0.222c-0.185-0.19-0.274-0.472-0.164-0.765c0.014-0.035,0.03-0.072,0.05-0.109
	c0.129-0.239,0.488-0.437,0.741-0.307c0.065,0.034,0.128,0.09,0.178,0.174c0.262,0.439-0.5,0.697-0.422,0.183
	c-0.471-0.022-0.138,0.75,0.29,0.722c0.449-0.03,0.638-0.47,0.569-0.825c-0.036-0.194-0.127-0.341-0.247-0.446
	c-0.162-0.145-0.393-0.206-0.657-0.17c-0.48,0.062-0.705,0.428-0.737,0.903c-0.002,0.04-0.005,0.081-0.004,0.122
	c0.015,0.639,0.33,1.035,0.785,1.238c0.45,0.207,1.035,0.226,1.608,0.173c0.558-0.047,1.106-0.166,1.555-0.219
	c-0.243-0.21-0.476-0.438-0.702-0.682c-0.139,0.322-0.333,0.592-0.611,0.552L5.67,26.491c0.138-0.26,0.306-0.51,0.409-0.776
	c-0.109-0.126-0.214-0.256-0.318-0.39c-0.021,0.026-0.045,0.051-0.076,0.072c-0.141,0.094-0.329,0.073-0.407-0.059
	c-0.079-0.13-0.025-0.306,0.122-0.394c0.021-0.012,0.043-0.016,0.064-0.024c-0.082-0.115-0.162-0.234-0.241-0.355
	c-0.051-0.015-0.095-0.045-0.122-0.093c-0.023-0.041-0.027-0.085-0.018-0.129c-0.16-0.258-0.311-0.526-0.455-0.805
	c-0.798-0.093-1.779,0.028-2.427-0.199l-0.068-0.025c-0.892-0.335-1.67-1.411-1.444-2.384c0.045-0.196,0.123-0.385,0.253-0.56
	c0.512-0.698,1.967-1.088,2.334-0.088c0.008,0.023,0.016,0.045,0.024,0.067c0.12,0.377,0.099,0.767-0.068,1.068
	c-0.163,0.299-0.473,0.513-0.93,0.476c-0.594-0.042-0.993-0.681-0.621-1.186c0.023-0.03,0.049-0.062,0.077-0.093
	c0.185-0.194,0.582-0.293,0.795-0.101c0.056,0.049,0.099,0.119,0.123,0.215c0.138,0.494-0.67,0.533-0.455,0.062
	c-0.45-0.142-0.33,0.675,0.078,0.769c0.44,0.096,0.747-0.271,0.778-0.636c0.012-0.196-0.03-0.365-0.118-0.501
	c-0.12-0.183-0.332-0.302-0.592-0.336c-0.476-0.062-0.795,0.235-0.946,0.678c-0.012,0.039-0.024,0.076-0.036,0.114
	c-0.164,0.608,0.031,1.06,0.399,1.376c0.372,0.318,0.911,0.509,1.475,0.641c0.398,0.096,0.805,0.164,1.169,0.241
	c-0.097-0.204-0.191-0.413-0.28-0.626c-0.178,0.147-0.37,0.222-0.548,0.13l-0.016-0.04c0.139-0.138,0.294-0.269,0.435-0.408
	c-0.082-0.208-0.159-0.421-0.232-0.637c-0.112-0.014-0.209-0.082-0.24-0.189c-0.031-0.1,0.012-0.202,0.092-0.272
	c-0.17-0.557-0.313-1.136-0.426-1.733c-0.721-0.249-1.598-0.376-2.128-0.715l-0.06-0.041c-0.787-0.529-1.299-1.727-0.872-2.618
	c0.089-0.179,0.21-0.344,0.372-0.487c0.315-0.28,0.862-0.446,1.337-0.402c0.474,0.045,0.884,0.285,0.958,0.818
	c0.003,0.024,0.006,0.048,0.008,0.071c0.082,0.779-0.438,1.55-1.313,1.287c-0.281-0.09-0.486-0.307-0.563-0.555
	c-0.07-0.248-0.012-0.527,0.217-0.732c0.03-0.025,0.061-0.05,0.096-0.073c0.225-0.148,0.634-0.16,0.798,0.073
	c0.045,0.061,0.074,0.139,0.078,0.237c0.022,0.513-0.771,0.373-0.458-0.037c-0.404-0.235-0.478,0.584-0.092,0.764
	C2,17.143,2.376,16.856,2.488,16.505c0.06-0.19,0.053-0.364-0.008-0.517c-0.076-0.205-0.252-0.367-0.502-0.456
	c-0.453-0.163-0.822,0.06-1.073,0.456c-0.02,0.036-0.039,0.07-0.058,0.104c-0.581,1.123,0.346,1.864,1.372,2.376
	c0.306,0.158,0.62,0.301,0.913,0.44c-0.03-0.183-0.057-0.368-0.081-0.554c-0.164,0.055-0.319,0.052-0.44-0.055l-0.003-0.044
	c0.132-0.08,0.27-0.153,0.406-0.232c-0.03-0.267-0.055-0.535-0.073-0.807c-0.05-0.046-0.085-0.106-0.088-0.177
	c-0.004-0.069,0.024-0.133,0.069-0.184C2.909,16.568,2.9,16.278,2.9,15.986c0-0.338,0.011-0.673,0.029-1.005
	c-0.646-0.389-1.455-0.693-1.899-1.129l-0.051-0.054c-0.653-0.679-0.906-1.964-0.29-2.753c0.121-0.157,0.273-0.295,0.466-0.399
	c0.755-0.419,2.241-0.151,2.151,0.908c-0.002,0.024-0.005,0.049-0.006,0.07c-0.052,0.393-0.232,0.739-0.516,0.941
	c-0.273,0.202-0.644,0.263-1.043,0.035c-0.52-0.29-0.609-1.032-0.06-1.334c0.034-0.02,0.069-0.035,0.108-0.052
	c0.249-0.097,0.651-0.019,0.764,0.245c0.03,0.069,0.04,0.151,0.021,0.247c-0.085,0.506-0.835,0.2-0.438-0.134
	c-0.172-0.157-0.321-0.044-0.385,0.146c-0.059,0.19-0.034,0.453,0.13,0.581c0.353,0.272,0.795,0.073,0.972-0.245
	c0.093-0.175,0.133-0.345,0.106-0.506c-0.036-0.217-0.172-0.413-0.394-0.555c-0.402-0.257-0.824-0.124-1.144,0.214
	c-0.028,0.03-0.055,0.061-0.081,0.089c-0.407,0.482-0.421,0.97-0.221,1.409c0.193,0.443,0.614,0.846,1.055,1.208
	c0.261,0.213,0.533,0.413,0.784,0.607c0.015-0.183,0.031-0.363,0.051-0.543c-0.171,0.019-0.32-0.019-0.416-0.146l0.005-0.042
	c0.149-0.05,0.301-0.094,0.451-0.143c0.033-0.26,0.072-0.52,0.116-0.773c-0.054-0.06-0.084-0.138-0.072-0.22
	c0.014-0.085,0.073-0.15,0.149-0.189c0.119-0.596,0.267-1.173,0.441-1.728c-0.113-0.112-0.235-0.223-0.361-0.333
	c-0.489-0.423-1.031-0.83-1.3-1.268L1.985,9.075C1.751,8.662,1.64,8.127,1.705,7.611C1.763,7.094,2.001,6.598,2.4,6.288
	c0.161-0.125,0.354-0.219,0.565-0.271C3.38,5.908,3.946,6.028,4.337,6.298C4.729,6.568,4.97,6.973,4.79,7.468
	C4.782,7.491,4.774,7.513,4.766,7.534C4.621,7.896,4.355,8.179,4.034,8.305C3.716,8.43,3.345,8.4,3.014,8.08
	C2.58,7.672,2.69,6.916,3.3,6.76C3.337,6.752,3.376,6.745,3.417,6.74C3.688,6.711,4.05,6.894,4.09,7.178
	c0.011,0.074,0,0.156-0.042,0.244C3.83,7.887,3.189,7.403,3.66,7.179C3.408,6.777,2.964,7.487,3.227,7.823
	c0.274,0.353,0.751,0.267,1,0.006c0.14-0.141,0.215-0.296,0.231-0.456c0.023-0.217-0.052-0.439-0.23-0.638
	c-0.32-0.36-0.754-0.342-1.164-0.097C3.03,6.661,2.996,6.683,2.963,6.704c-0.522,0.37-0.664,0.85-0.578,1.33
	c0.078,0.482,0.388,0.974,0.736,1.43C3.352,9.766,3.6,10.054,3.82,10.325c0.071-0.202,0.144-0.402,0.221-0.598
	c-0.227,0-0.415-0.063-0.496-0.246L3.56,9.442C3.764,9.424,3.973,9.42,4.176,9.398C4.261,9.199,4.35,9.003,4.441,8.811
	C4.318,8.733,4.256,8.591,4.31,8.466c0.06-0.131,0.222-0.183,0.37-0.129c0.076-0.142,0.153-0.281,0.232-0.419
	c0-0.03,0.004-0.062,0.019-0.091C4.95,7.791,4.979,7.763,5.012,7.746c0.151-0.252,0.31-0.492,0.473-0.723
	C5.126,6.282,4.42,5.495,4.255,4.781L4.241,4.708c-0.094-0.475-0.012-1.033,0.247-1.52C4.61,2.939,4.793,2.722,4.991,2.535
	C5.205,2.358,5.433,2.21,5.699,2.14c0.213-0.059,0.426-0.085,0.656-0.047C6.803,2.16,7.256,2.5,7.493,2.918
	c0.236,0.418,0.279,0.879-0.063,1.25L7.383,4.217C7.118,4.48,6.779,4.637,6.438,4.641c-0.34-0.001-0.679-0.148-0.88-0.566
	C5.426,3.804,5.461,3.503,5.604,3.267C5.758,3.04,6.019,2.879,6.339,2.929c0.039,0.006,0.079,0.014,0.12,0.025
	c0.263,0.076,0.52,0.395,0.443,0.668c-0.02,0.073-0.065,0.141-0.135,0.208C6.395,4.18,5.976,3.494,6.501,3.455
	C6.431,2.981,5.725,3.49,5.853,3.904c0.133,0.431,0.605,0.51,0.931,0.37c0.18-0.075,0.299-0.195,0.38-0.328
	C7.27,3.762,7.283,3.52,7.207,3.271C7.07,2.813,6.66,2.641,6.172,2.723C6.13,2.729,6.089,2.737,6.047,2.745
	C5.404,2.908,5.068,3.326,4.98,3.821C4.929,4.067,4.939,4.335,4.983,4.607c0.041,0.27,0.122,0.548,0.22,0.821
	c0.158,0.454,0.363,0.89,0.515,1.278C5.9,6.47,6.088,6.244,6.283,6.03C5.939,5.978,5.629,5.853,5.602,5.577l0.024-0.034
	c0.305,0.072,0.617,0.185,0.921,0.209C6.676,5.623,6.808,5.5,6.941,5.382c-0.084,0.01-0.178-0.016-0.256-0.087
	C6.559,5.181,6.534,4.993,6.64,4.888c0.106-0.105,0.287-0.091,0.406,0.032C7.128,5.007,7.158,5.117,7.139,5.21
	C7.27,5.102,7.402,4.997,7.537,4.899c-0.04-0.012-0.08-0.033-0.112-0.068c-0.08-0.088-0.079-0.218,0.001-0.289
	c0.057-0.051,0.142-0.05,0.21-0.014c0.028,0.015,0.053,0.035,0.073,0.061c0.022,0.026,0.036,0.056,0.044,0.084
	C7.761,4.7,7.758,4.725,7.756,4.75c0.148-0.1,0.298-0.193,0.45-0.281C8.24,4.14,8.198,3.754,8.153,3.34
	C8.085,2.71,7.996,2.02,8.171,1.519l0.027-0.072C8.372,0.978,8.787,0.53,9.332,0.254c0.544-0.275,1.213-0.337,1.752-0.133
	c0.218,0.092,0.413,0.219,0.573,0.386c0.317,0.35,0.438,0.905,0.338,1.373c-0.047,0.234-0.144,0.449-0.283,0.608
	c-0.14,0.154-0.321,0.269-0.563,0.302c-0.022,0.002-0.043,0.004-0.064,0.006c-0.356,0.048-0.699-0.044-0.972-0.234
	C9.846,2.368,9.638,2.045,9.717,1.593c0.052-0.291,0.263-0.539,0.541-0.631c0.273-0.107,0.601-0.047,0.827,0.177
	c0.028,0.029,0.055,0.062,0.079,0.097c0.163,0.229,0.152,0.638-0.079,0.796c-0.062,0.046-0.138,0.076-0.235,0.083
	c-0.252,0.012-0.358-0.163-0.348-0.322c0.009-0.161,0.156-0.29,0.374-0.136c0.118-0.207-0.035-0.321-0.253-0.336
	c-0.216-0.008-0.483,0.102-0.555,0.297c-0.079,0.217-0.023,0.408,0.085,0.554c0.109,0.148,0.273,0.263,0.442,0.3
	c0.184,0.047,0.346,0.043,0.49-0.023c0.192-0.071,0.356-0.244,0.46-0.491c0.195-0.441-0.005-0.827-0.46-1.084
	c-0.038-0.019-0.078-0.038-0.119-0.056C10.324,0.524,9.752,0.703,9.37,1.057C8.985,1.427,8.773,1.981,8.672,2.551
	c-0.124,0.644-0.107,1.293-0.17,1.763c0.362-0.182,0.736-0.326,1.119-0.431C9.531,3.818,9.44,3.748,9.35,3.67
	c-0.279-0.24-0.528-0.517-0.411-0.791l0.037-0.016C9.255,3.144,9.494,3.467,9.797,3.66c0.085,0.049,0.179,0.087,0.274,0.12
	c0.332-0.062,0.67-0.098,1.013-0.098c0.081,0,0.161,0.006,0.242,0.009c0.029-0.022,0.058-0.043,0.086-0.069
	c0.088-0.075,0.174-0.164,0.26-0.268c0.174-0.215,0.348-0.456,0.533-0.721c0.186-0.266,0.377-0.528,0.584-0.765
	c0.206-0.237,0.428-0.444,0.662-0.565l0.068-0.034c0.453-0.228,1.054-0.267,1.625-0.118c0.56,0.159,1.078,0.506,1.326,0.988
	c0.106,0.189,0.161,0.405,0.176,0.63c0.031,0.439-0.219,0.966-0.569,1.284c-0.354,0.32-0.8,0.46-1.234,0.197
	c-0.02-0.013-0.04-0.023-0.059-0.035c-0.158-0.102-0.287-0.23-0.392-0.367c-0.103-0.144-0.177-0.3-0.216-0.461
	C14.105,3.06,14.171,2.685,14.529,2.4c0.459-0.377,1.265-0.123,1.3,0.528c0.002,0.038,0.003,0.079,0,0.12
	c-0.019,0.272-0.276,0.589-0.563,0.573c-0.076-0.004-0.152-0.03-0.23-0.089c-0.205-0.15-0.172-0.353-0.059-0.468
	c0.108-0.111,0.308-0.127,0.371,0.132c0.217-0.083,0.18-0.273,0.024-0.416c-0.158-0.137-0.416-0.237-0.604-0.129
	c-0.395,0.227-0.36,0.699-0.162,0.991c0.115,0.151,0.244,0.259,0.398,0.303c0.208,0.058,0.436,0.037,0.669-0.097
	c0.419-0.232,0.502-0.666,0.323-1.126c-0.016-0.038-0.031-0.077-0.051-0.116C15.661,2,15.152,1.76,14.631,1.778
	c-0.262,0.009-0.523,0.073-0.783,0.188c-0.256,0.109-0.502,0.262-0.734,0.438c-0.609,0.446-1.075,1.022-1.438,1.316
	c0.416,0.044,0.824,0.137,1.22,0.271c-0.018-0.099-0.033-0.203-0.045-0.309c-0.043-0.361-0.033-0.739,0.236-0.856l0.038,0.013
	c0.017,0.39-0.035,0.8,0.065,1.144c0.015,0.046,0.033,0.094,0.055,0.14c0.312,0.129,0.619,0.284,0.915,0.466
	c-0.021-0.062-0.013-0.14,0.034-0.204c0.07-0.097,0.195-0.125,0.277-0.057c0.061,0.047,0.079,0.127,0.059,0.201
	c-0.008,0.029-0.022,0.058-0.043,0.084c-0.021,0.026-0.047,0.047-0.073,0.061c-0.026,0.015-0.056,0.019-0.084,0.021
	c0.174,0.114,0.344,0.237,0.511,0.367c0.84-0.131,1.916-0.733,2.735-0.715l0.073,0.004c0.483,0.029,1.002,0.248,1.406,0.6
	c0.202,0.174,0.368,0.384,0.498,0.61c0.118,0.229,0.2,0.475,0.213,0.728c0.01,0.205-0.019,0.413-0.094,0.617
	c-0.312,0.821-1.627,1.544-2.232,0.687c-0.014-0.02-0.026-0.038-0.039-0.058c-0.219-0.325-0.295-0.703-0.224-1.036
	c0.081-0.335,0.306-0.626,0.759-0.723c0.291-0.062,0.576,0.034,0.769,0.222c0.185,0.19,0.272,0.47,0.164,0.763
	c-0.013,0.037-0.03,0.073-0.05,0.11c-0.129,0.239-0.487,0.437-0.74,0.308C18.014,7.143,17.95,7.088,17.9,7.005
	c-0.262-0.44,0.5-0.697,0.422-0.184c0.471,0.021,0.138-0.75-0.29-0.722c-0.449,0.031-0.638,0.47-0.569,0.824
	c0.035,0.196,0.127,0.342,0.247,0.448c0.161,0.145,0.394,0.205,0.657,0.17c0.48-0.062,0.705-0.428,0.736-0.904
	c0.002-0.04,0.004-0.081,0.004-0.122c-0.016-0.639-0.33-1.036-0.785-1.238c-0.45-0.208-1.035-0.227-1.608-0.174
	c-0.56,0.048-1.106,0.167-1.555,0.219c0.243,0.21,0.476,0.437,0.702,0.682C16,5.682,16.193,5.413,16.473,5.452l0.025,0.032
	c-0.139,0.26-0.307,0.51-0.409,0.775c0.108,0.126,0.213,0.257,0.317,0.391c0.021-0.026,0.046-0.051,0.076-0.072
	c0.142-0.094,0.33-0.073,0.408,0.058c0.08,0.131,0.024,0.307-0.123,0.395c-0.021,0.012-0.043,0.016-0.063,0.024
	c0.082,0.116,0.162,0.234,0.241,0.356c0.051,0.012,0.095,0.044,0.121,0.092c0.023,0.04,0.027,0.085,0.019,0.128
	c0.16,0.26,0.312,0.528,0.455,0.807c0.797,0.093,1.778-0.028,2.427,0.197l0.068,0.026c0.892,0.334,1.67,1.411,1.443,2.384
	c-0.045,0.195-0.123,0.384-0.252,0.56c-0.513,0.697-1.967,1.087-2.334,0.087c-0.009-0.023-0.017-0.045-0.024-0.067
	c-0.12-0.376-0.099-0.767,0.067-1.068c0.164-0.3,0.475-0.513,0.932-0.476c0.594,0.043,0.992,0.68,0.621,1.187
	c-0.023,0.03-0.049,0.062-0.077,0.092c-0.187,0.195-0.583,0.293-0.796,0.102c-0.057-0.05-0.1-0.12-0.123-0.215
	c-0.139-0.494,0.669-0.533,0.453-0.062c0.451,0.142,0.332-0.676-0.076-0.769c-0.439-0.095-0.747,0.271-0.778,0.635
	c-0.012,0.197,0.03,0.366,0.118,0.501c0.12,0.184,0.332,0.303,0.592,0.336c0.477,0.062,0.795-0.234,0.946-0.677
	c0.012-0.039,0.024-0.078,0.036-0.115c0.164-0.607-0.031-1.058-0.399-1.375c-0.372-0.317-0.911-0.508-1.475-0.64
	c-0.397-0.096-0.806-0.164-1.169-0.241c0.097,0.204,0.191,0.413,0.279,0.626c0.179-0.147,0.371-0.223,0.549-0.13l0.015,0.039
	c-0.14,0.137-0.294,0.268-0.435,0.408c0.08,0.209,0.158,0.421,0.23,0.637c0.113,0.014,0.21,0.082,0.241,0.189
	c0.03,0.101-0.013,0.203-0.093,0.272c0.171,0.558,0.312,1.136,0.427,1.733c0.721,0.249,1.597,0.376,2.128,0.716l0.061,0.041
	c0.787,0.529,1.297,1.727,0.871,2.618c-0.089,0.179-0.211,0.344-0.371,0.487c-0.315,0.281-0.863,0.446-1.338,0.402
	c-0.474-0.044-0.884-0.285-0.957-0.817c-0.004-0.025-0.007-0.048-0.009-0.071c-0.082-0.779,0.438-1.55,1.313-1.287
	c0.281,0.09,0.486,0.306,0.562,0.555c0.07,0.248,0.014,0.528-0.217,0.732c-0.03,0.026-0.061,0.05-0.096,0.073
	c-0.225,0.148-0.635,0.16-0.797-0.073c-0.045-0.061-0.074-0.139-0.078-0.237c-0.022-0.513,0.771-0.373,0.457,0.037
	c0.404,0.236,0.479-0.583,0.093-0.764c-0.409-0.191-0.785,0.096-0.897,0.447c-0.06,0.19-0.053,0.364,0.008,0.517
	c0.076,0.205,0.252,0.367,0.502,0.456c0.453,0.163,0.824-0.061,1.074-0.456c0.02-0.036,0.038-0.07,0.057-0.104
	c0.58-1.121-0.346-1.863-1.371-2.376c-0.307-0.157-0.62-0.3-0.914-0.439c0.029,0.183,0.058,0.367,0.082,0.554
	c0.164-0.055,0.318-0.052,0.439,0.054l0.006,0.042c-0.133,0.079-0.271,0.153-0.406,0.232c0.029,0.266,0.054,0.535,0.072,0.806
	c0.049,0.048,0.084,0.107,0.088,0.179c0.004,0.069-0.024,0.133-0.068,0.184c0.014,0.288,0.021,0.578,0.021,0.87
	c0,0.339-0.012,0.673-0.029,1.006c0.646,0.387,1.455,0.692,1.898,1.129L21.186,18.182z M17.943,15.988
	c0-6.055-3.077-10.98-6.859-10.98c-3.783,0-6.86,4.926-6.86,10.98s3.077,10.979,6.86,10.979S17.943,22.043,17.943,15.988z
	 M19.621,19.062c0.189,0.028,0.37-0.106,0.396-0.303c0.022-0.195-0.115-0.371-0.306-0.393c-0.192-0.021-0.364,0.115-0.386,0.303
	C19.3,18.858,19.43,19.034,19.621,19.062z M21.309,17.241c0.094-0.015,0.137-0.067,0.221-0.098c0.029-0.092,0.039-0.258,0.019-0.352
	c-0.472,0.199-0.897,0.376-1.426,0.331l-0.045-0.002c0.288,0.237,0.728,0.202,1.04,0.41c0.216,0.146,0.4,0.409,0.503,0.687
	c0.056,0.154,0.08,0.312,0.073,0.453c0.318,0.028,0.43-0.158,0.408-0.406C22.061,17.849,21.658,17.291,21.309,17.241z
	 M18.906,23.198c0.068-0.186-0.022-0.389-0.204-0.454c-0.181-0.064-0.382,0.024-0.446,0.201c-0.066,0.175,0.016,0.375,0.194,0.45
	C18.626,23.469,18.834,23.382,18.906,23.198z M20.516,22.008c0.098,0.008,0.149-0.034,0.239-0.046
	c0.05-0.083,0.097-0.244,0.095-0.341c-0.498,0.093-0.959,0.17-1.461,0.007l-0.045-0.012c0.227,0.295,0.66,0.359,0.918,0.635
	c0.184,0.194,0.295,0.493,0.33,0.791c0.021,0.165,0.006,0.326-0.035,0.464c0.301,0.103,0.459-0.056,0.492-0.308
	C21.113,22.778,20.843,22.135,20.516,22.008z M16.613,27.155c0.127-0.154,0.105-0.375-0.045-0.494
	c-0.151-0.119-0.369-0.1-0.485,0.042c-0.117,0.143-0.106,0.354,0.037,0.484C16.259,27.317,16.488,27.308,16.613,27.155z
	 M18.961,26.204c-0.514-0.046-0.973-0.098-1.408-0.397l-0.039-0.025c0.135,0.35,0.528,0.534,0.691,0.875
	c0.113,0.239,0.139,0.571,0.066,0.871c-0.039,0.167-0.1,0.325-0.19,0.447c0.256,0.193,0.46,0.082,0.578-0.157
	c0.211-0.396,0.141-1.112-0.132-1.324c0.091,0.034,0.152,0.007,0.242,0.021C18.84,26.445,18.934,26.3,18.961,26.204z M12.88,29.763
	c0.19-0.062,0.287-0.267,0.22-0.444c-0.07-0.182-0.258-0.274-0.425-0.223c-0.168,0.046-0.269,0.236-0.225,0.424
	S12.688,29.816,12.88,29.763z M12.21,28.746c-0.041-0.167-0.171-0.283-0.292-0.259c-0.12,0.028-0.201,0.173-0.18,0.343
	c0.021,0.169,0.154,0.298,0.293,0.267C12.171,29.068,12.251,28.912,12.21,28.746z M11.246,28.894c0.1-0.004,0.173-0.104,0.165-0.222
	c-0.009-0.117-0.089-0.212-0.179-0.208c-0.065,0.003-0.12,0.057-0.147,0.129c-0.011,0.027-0.018,0.059-0.018,0.093
	c0,0.032,0.007,0.063,0.018,0.094C11.112,28.85,11.174,28.897,11.246,28.894z M14.367,29.048l-0.024-0.04
	c-0.038,0.375,0.231,0.722,0.207,1.103c-0.018,0.267-0.171,0.583-0.407,0.815c-0.127,0.136-0.281,0.239-0.436,0.303
	c0.113,0.295,0.377,0.307,0.625,0.142c0.104-0.065,0.206-0.157,0.297-0.261c0.087-0.109,0.163-0.231,0.221-0.354
	c0.116-0.242,0.148-0.495,0.076-0.654c0.067,0.069,0.139,0.071,0.215,0.123c0.101-0.035,0.264-0.125,0.332-0.208
	C15.016,29.765,14.619,29.51,14.367,29.048z M8.218,28.932c-0.093,0.168-0.026,0.38,0.152,0.473c0.184,0.08,0.391,0,0.463-0.178
	c0.072-0.18,0-0.381-0.162-0.452C8.515,28.693,8.312,28.763,8.218,28.932z M8.135,27.938c-0.097,0.145-0.073,0.32,0.052,0.396
	c0.123,0.078,0.292,0.015,0.375-0.139c0.081-0.148,0.057-0.322-0.054-0.392C8.397,27.737,8.229,27.799,8.135,27.938z M9.949,29.883
	l0.009-0.045c-0.278,0.248-0.313,0.693-0.59,0.956c-0.194,0.181-0.532,0.313-0.864,0.318C8.318,31.121,8.132,31.1,7.98,31.038
	c-0.118,0.298,0.064,0.478,0.362,0.529c0.241,0.053,0.557,0.005,0.812-0.096c0.254-0.096,0.457-0.271,0.509-0.434
	c0.004,0.098,0.057,0.147,0.082,0.237c0.101,0.048,0.292,0.079,0.404,0.063C9.954,30.857,9.829,30.395,9.949,29.883z M5.443,26.457
	c0.153-0.117,0.188-0.332,0.077-0.479c-0.104-0.153-0.318-0.191-0.479-0.084c-0.161,0.105-0.201,0.324-0.089,0.488
	C5.071,26.541,5.29,26.575,5.443,26.457z M6.065,27.592c-0.369,0.046-0.644,0.386-1.017,0.46c-0.264,0.054-0.59-0.013-0.866-0.154
	c-0.156-0.077-0.288-0.182-0.384-0.296c-0.248,0.197-0.2,0.425,0.008,0.6c0.333,0.302,1.058,0.424,1.328,0.207
	C5.08,28.49,5.093,28.556,5.06,28.641c0.053,0.087,0.179,0.215,0.267,0.267c0.155-0.497,0.31-0.931,0.705-1.284L6.065,27.592z
	 M2.936,22.276c0.063,0.187,0.26,0.287,0.442,0.224c0.182-0.062,0.281-0.26,0.222-0.438c-0.062-0.179-0.253-0.28-0.437-0.227
	C2.978,21.891,2.873,22.089,2.936,22.276z M2.435,24.736c0.327-0.395,0.625-0.743,1.118-0.938l0.042-0.018
	c-0.36-0.085-0.737,0.14-1.11,0.089c-0.263-0.035-0.548-0.194-0.757-0.406c-0.117-0.116-0.216-0.249-0.268-0.382
	c-0.301,0.112-0.318,0.332-0.186,0.549c0.21,0.369,0.837,0.698,1.166,0.591c-0.079,0.057-0.094,0.123-0.154,0.188
	C2.304,24.505,2.372,24.66,2.435,24.736z M2.05,17.789c0.017,0.197,0.184,0.34,0.377,0.32c0.19-0.021,0.334-0.188,0.318-0.377
	c-0.016-0.189-0.184-0.333-0.376-0.32C2.177,17.423,2.034,17.592,2.05,17.789z M0.908,19.691C0.9,19.786,0.928,19.95,0.97,20.037
	c0.415-0.294,0.792-0.558,1.319-0.625l0.045-0.007c-0.329-0.171-0.749-0.045-1.099-0.183c-0.246-0.098-0.485-0.315-0.637-0.566
	c-0.085-0.139-0.15-0.287-0.171-0.427c-0.32,0.04-0.383,0.245-0.309,0.482c0.116,0.399,0.643,0.859,0.988,0.836
	C1.015,19.583,0.985,19.643,0.908,19.691z M2.547,12.915c-0.19-0.029-0.37,0.106-0.396,0.301c-0.023,0.196,0.114,0.372,0.305,0.394
	c0.191,0.021,0.364-0.115,0.386-0.303C2.868,13.118,2.739,12.943,2.547,12.915z M0.861,14.736c-0.096,0.015-0.137,0.067-0.222,0.098
	c-0.028,0.091-0.039,0.257-0.018,0.351c0.472-0.198,0.898-0.376,1.425-0.331l0.046,0.002c-0.288-0.237-0.727-0.202-1.039-0.41
	c-0.216-0.146-0.401-0.409-0.504-0.688c-0.056-0.153-0.08-0.311-0.074-0.452c-0.318-0.028-0.429,0.157-0.407,0.405
	C0.107,14.128,0.511,14.686,0.861,14.736z M3.263,8.779C3.194,8.964,3.285,9.167,3.466,9.232c0.181,0.064,0.381-0.025,0.446-0.201
	C3.98,8.855,3.898,8.656,3.72,8.582C3.542,8.508,3.333,8.595,3.263,8.779z M1.653,9.969c-0.097-0.007-0.149,0.035-0.239,0.047
	c-0.051,0.083-0.097,0.243-0.094,0.341c0.498-0.092,0.959-0.169,1.461-0.007l0.044,0.012c-0.226-0.295-0.66-0.359-0.918-0.635
	c-0.183-0.193-0.296-0.493-0.33-0.79C1.556,8.77,1.571,8.609,1.612,8.471C1.311,8.368,1.153,8.527,1.12,8.779
	C1.054,9.198,1.325,9.841,1.653,9.969z M5.555,4.821C5.429,4.975,5.449,5.196,5.601,5.315c0.151,0.119,0.37,0.101,0.486-0.042
	C6.203,5.13,6.193,4.92,6.05,4.788C5.91,4.659,5.681,4.668,5.555,4.821z M3.208,5.772c0.513,0.047,0.971,0.099,1.407,0.398
	l0.039,0.024C4.519,5.846,4.125,5.662,3.961,5.32C3.848,5.081,3.824,4.749,3.896,4.45c0.038-0.167,0.099-0.326,0.19-0.447
	C3.831,3.809,3.626,3.92,3.509,4.16C3.298,4.555,3.368,5.271,3.642,5.483C3.551,5.45,3.489,5.477,3.399,5.463
	C3.329,5.532,3.236,5.678,3.208,5.772z M9.288,2.214C9.097,2.274,9.001,2.48,9.069,2.658C9.138,2.84,9.327,2.933,9.494,2.88
	c0.168-0.045,0.269-0.235,0.225-0.424C9.674,2.269,9.481,2.16,9.288,2.214z M9.958,3.231c0.041,0.166,0.171,0.283,0.292,0.259
	c0.12-0.028,0.201-0.173,0.179-0.343c-0.021-0.169-0.154-0.298-0.292-0.267C9.997,2.909,9.917,3.065,9.958,3.231z M10.923,3.083
	c-0.1,0.004-0.173,0.103-0.165,0.221c0.009,0.118,0.089,0.212,0.179,0.207c0.065-0.002,0.12-0.055,0.147-0.128
	c0.011-0.027,0.017-0.058,0.017-0.092s-0.006-0.064-0.017-0.094C11.056,3.127,10.995,3.08,10.923,3.083z M7.802,2.929l0.024,0.038
	c0.038-0.375-0.231-0.72-0.207-1.101C7.637,1.6,7.791,1.284,8.028,1.051c0.126-0.136,0.28-0.238,0.435-0.303
	C8.349,0.453,8.084,0.441,7.837,0.606C7.733,0.673,7.631,0.764,7.54,0.868c-0.087,0.11-0.163,0.231-0.22,0.354
	C7.203,1.464,7.171,1.716,7.243,1.876C7.176,1.806,7.105,1.804,7.028,1.753c-0.1,0.035-0.264,0.125-0.332,0.208
	C7.152,2.211,7.549,2.467,7.802,2.929z M13.95,3.045c0.093-0.168,0.026-0.381-0.152-0.473c-0.185-0.081-0.391-0.001-0.463,0.177
	c-0.071,0.18,0,0.382,0.161,0.452C13.654,3.283,13.857,3.214,13.95,3.045z M14.034,4.038c0.096-0.145,0.071-0.32-0.052-0.396
	c-0.123-0.078-0.293-0.015-0.375,0.139c-0.082,0.148-0.057,0.322,0.054,0.392C13.771,4.24,13.939,4.178,14.034,4.038z M12.219,2.094
	L12.21,2.138c0.278-0.248,0.313-0.693,0.59-0.956c0.195-0.18,0.532-0.312,0.865-0.318c0.187-0.008,0.372,0.013,0.524,0.074
	c0.117-0.297-0.064-0.478-0.362-0.529c-0.241-0.052-0.558-0.005-0.812,0.096c-0.254,0.096-0.457,0.271-0.51,0.433
	C12.503,0.84,12.449,0.79,12.425,0.7c-0.101-0.047-0.292-0.079-0.403-0.062C12.214,1.119,12.339,1.582,12.219,2.094z M16.725,5.52
	c-0.152,0.117-0.188,0.332-0.076,0.479c0.104,0.153,0.318,0.192,0.479,0.085c0.161-0.105,0.201-0.326,0.089-0.488
	C17.098,5.436,16.878,5.402,16.725,5.52z M16.104,4.385C16.473,4.34,16.748,4,17.121,3.925c0.264-0.053,0.59,0.014,0.865,0.155
	c0.156,0.077,0.289,0.181,0.386,0.296c0.248-0.197,0.2-0.424-0.009-0.599c-0.332-0.302-1.057-0.424-1.327-0.207
	c0.055-0.082,0.041-0.149,0.073-0.234c-0.053-0.086-0.18-0.214-0.269-0.266C16.688,3.566,16.532,4,16.137,4.353L16.104,4.385z
	 M19.232,9.7c-0.062-0.188-0.26-0.288-0.441-0.224c-0.182,0.063-0.282,0.261-0.223,0.438c0.062,0.178,0.252,0.28,0.438,0.226
	C19.191,10.085,19.296,9.887,19.232,9.7z M19.734,7.24c-0.327,0.395-0.625,0.744-1.118,0.938l-0.042,0.018
	c0.359,0.086,0.736-0.14,1.109-0.089c0.264,0.035,0.549,0.193,0.758,0.406c0.117,0.116,0.216,0.249,0.268,0.382
	c0.301-0.112,0.318-0.331,0.186-0.549c-0.209-0.369-0.836-0.698-1.166-0.591c0.078-0.056,0.094-0.123,0.154-0.188
	C19.865,7.472,19.797,7.316,19.734,7.24z M20.118,14.188c-0.017-0.197-0.185-0.34-0.376-0.32c-0.19,0.021-0.334,0.189-0.318,0.378
	s0.184,0.332,0.376,0.32C19.991,14.553,20.134,14.384,20.118,14.188z M21.262,12.286c0.008-0.096-0.021-0.26-0.062-0.347
	c-0.414,0.295-0.792,0.559-1.319,0.626l-0.045,0.007c0.329,0.172,0.749,0.045,1.099,0.183c0.246,0.098,0.484,0.315,0.637,0.566
	c0.084,0.139,0.15,0.287,0.171,0.427c0.319-0.039,0.383-0.244,0.309-0.481c-0.116-0.398-0.643-0.859-0.987-0.836
	C21.152,12.394,21.184,12.334,21.262,12.286z"/>
</svg>
