<?xml version="1.0" encoding="iso-8859-1"?>
<!-- Generator: Adobe Illustrator 16.0.0, SVG Export Plug-In . SVG Version: 6.00 Build 0)  -->
<!DOCTYPE svg PUBLIC "-//W3C//DTD SVG 1.1//EN" "http://www.w3.org/Graphics/SVG/1.1/DTD/svg11.dtd">
<svg version="1.1" id="Layer_1" xmlns="http://www.w3.org/2000/svg" xmlns:xlink="http://www.w3.org/1999/xlink" x="0px" y="0px"
	 width="28.745px" height="26.497px" viewBox="0 0 28.745 26.497" style="enable-background:new 0 0 28.745 26.497;"
	 xml:space="preserve">
<g>
	<path d="M21.454,3.62c-0.604-3.066-5.861-4.881-7.082-2.583c-1.22-2.299-6.477-0.484-7.081,2.583C6.501,6.824,2.321,7.706,0,6.034
		c0,3.622,3.901,3.669,6.315,3.901c5.718-0.25,7.525-2.887,8.057-4.091c0.533,1.205,2.34,3.841,8.058,4.091
		c2.415-0.232,6.315-0.279,6.315-3.901C26.423,7.706,22.244,6.824,21.454,3.62z"/>
	<path d="M14.292,7.148c-3.165,4.325-9.521,3.345-9.521,3.345s-0.301,5.924,1.565,7.473c-0.117,6.896,7.346,8.41,9.217,8.527
		c1.871,0.117,5.444-2.128,4.691-3.501c1.528-1.499,2.028-3.342,1.869-5.142c1.637-0.234,0.721-7.2,0.721-7.2
		S16.328,10.888,14.292,7.148z"/>
</g>
<g>
</g>
<g>
</g>
<g>
</g>
<g>
</g>
<g>
</g>
<g>
</g>
<g>
</g>
<g>
</g>
<g>
</g>
<g>
</g>
<g>
</g>
<g>
</g>
<g>
</g>
<g>
</g>
<g>
</g>
</svg>
