<?xml version="1.0" encoding="iso-8859-1"?>
<!-- Generator: Adobe Illustrator 16.0.0, SVG Export Plug-In . SVG Version: 6.00 Build 0)  -->
<!DOCTYPE svg PUBLIC "-//W3C//DTD SVG 1.1//EN" "http://www.w3.org/Graphics/SVG/1.1/DTD/svg11.dtd">
<svg version="1.1" id="Layer_1" xmlns="http://www.w3.org/2000/svg" xmlns:xlink="http://www.w3.org/1999/xlink" x="0px" y="0px"
	 width="32.858px" height="32.858px" viewBox="0 0 32.858 32.858" style="enable-background:new 0 0 32.858 32.858;"
	 xml:space="preserve">
<path d="M23.576,15.493c-0.547-2.778-5.31-4.422-6.416-2.34c-1.105-2.082-5.868-0.438-6.415,2.34
	c-0.716,2.903-4.502,3.702-6.605,2.188c0,3.281,3.535,3.324,5.722,3.535c5.18-0.228,6.817-2.615,7.299-3.707
	c0.483,1.092,2.12,3.479,7.3,3.707c2.188-0.211,5.722-0.254,5.722-3.535C28.077,19.195,24.292,18.396,23.576,15.493z"/>
<path d="M16.429,32.858C7.37,32.858,0,25.488,0,16.43C0,7.37,7.37,0,16.429,0s16.429,7.37,16.429,16.43
	C32.858,25.488,25.488,32.858,16.429,32.858z M16.429,1C7.921,1,1,7.922,1,16.43s6.921,15.429,15.429,15.429
	s15.429-6.921,15.429-15.429S24.937,1,16.429,1z"/>
<g>
</g>
<g>
</g>
<g>
</g>
<g>
</g>
<g>
</g>
<g>
</g>
<g>
</g>
<g>
</g>
<g>
</g>
<g>
</g>
<g>
</g>
<g>
</g>
<g>
</g>
<g>
</g>
<g>
</g>
</svg>
