<?xml version="1.0" encoding="iso-8859-1"?>
<!-- Generator: Adobe Illustrator 16.0.0, SVG Export Plug-In . SVG Version: 6.00 Build 0)  -->
<!DOCTYPE svg PUBLIC "-//W3C//DTD SVG 1.1//EN" "http://www.w3.org/Graphics/SVG/1.1/DTD/svg11.dtd">
<svg version="1.1" id="Layer_1" xmlns="http://www.w3.org/2000/svg" xmlns:xlink="http://www.w3.org/1999/xlink" x="0px" y="0px"
	 width="32px" height="32px" viewBox="0 0 32 32" style="enable-background:new 0 0 32 32;" xml:space="preserve">
<path d="M0,0v32h32V0H0z M23.674,20.786c-5.18-0.228-6.817-2.615-7.3-3.707c-0.481,1.092-2.119,3.479-7.299,3.707
	c-2.187-0.211-5.722-0.254-5.722-3.535c2.103,1.515,5.89,0.716,6.605-2.188c0.547-2.778,5.31-4.422,6.415-2.34
	c1.106-2.082,5.869-0.438,6.416,2.34c0.716,2.903,4.501,3.702,6.605,2.188C29.396,20.532,25.862,20.575,23.674,20.786z"/>
<g>
</g>
<g>
</g>
<g>
</g>
<g>
</g>
<g>
</g>
<g>
</g>
<g>
</g>
<g>
</g>
<g>
</g>
<g>
</g>
<g>
</g>
<g>
</g>
<g>
</g>
<g>
</g>
<g>
</g>
</svg>
