<?xml version="1.0" encoding="iso-8859-1"?>
<!-- Generator: Adobe Illustrator 16.0.0, SVG Export Plug-In . SVG Version: 6.00 Build 0)  -->
<!DOCTYPE svg PUBLIC "-//W3C//DTD SVG 1.1//EN" "http://www.w3.org/Graphics/SVG/1.1/DTD/svg11.dtd">
<svg version="1.1" id="Layer_1" xmlns="http://www.w3.org/2000/svg" xmlns:xlink="http://www.w3.org/1999/xlink" x="0px" y="0px"
	 width="31.953px" height="32px" viewBox="0 0 31.953 32" style="enable-background:new 0 0 31.953 32;" xml:space="preserve">
<g>
	<path d="M20.874,15.753c-0.404-2.051-3.921-3.266-4.738-1.728c-0.816-1.538-4.334-0.323-4.738,1.728
		c-0.529,2.146-3.325,2.736-4.879,1.617c0,2.423,2.611,2.455,4.226,2.61c3.826-0.168,5.034-1.932,5.391-2.738
		c0.357,0.807,1.565,2.57,5.391,2.738c1.616-0.155,4.226-0.188,4.226-2.61C24.198,18.489,21.403,17.898,20.874,15.753z"/>
	<circle cx="16.136" cy="8.596" r="1.211"/>
	<circle cx="16.137" cy="23.699" r="1.21"/>
	<path d="M30.976,16.647c0.009-0.209,0.032-0.415,0.032-0.626c0-0.188-0.021-0.371-0.028-0.558c0.074-0.362,0.256-0.732,0.43-1.074
		c0.172-0.382,0.352-0.724,0.391-0.918c0.158-0.642-0.215-1.027-0.625-1.277c-0.292-0.181-0.6-0.299-0.793-0.433
		c-0.11-0.368-0.24-0.726-0.376-1.082c-0.039-0.384-0.002-0.803,0.031-1.186c0.05-0.424,0.116-0.81,0.095-1.008
		c-0.183-1.126-1.37-1.011-1.927-1.151c-0.222-0.31-0.449-0.617-0.694-0.908c-0.367-0.693-0.399-1.772-0.598-2.094
		c-0.502-1.039-1.618-0.507-2.182-0.471c-0.311-0.224-0.632-0.432-0.96-0.63c-0.548-0.577-0.966-1.52-1.239-1.804
		c-0.452-0.477-0.99-0.354-1.413-0.17c-0.31,0.134-0.577,0.332-0.798,0.431c-0.385-0.114-0.775-0.218-1.173-0.303
		c-0.692-0.349-1.363-1.124-1.706-1.271c-0.586-0.268-1.05-0.029-1.391,0.285c-0.248,0.248-0.437,0.525-0.612,0.689
		c-0.396,0.017-0.79,0.039-1.177,0.086C13.486,1.089,12.58,0.54,12.204,0.53c-0.646-0.081-1.013,0.28-1.221,0.726
		c-0.157,0.311-0.248,0.633-0.364,0.839C10.258,2.235,9.907,2.392,9.561,2.56C8.779,2.703,7.763,2.537,7.379,2.612
		C6.73,2.73,6.541,3.248,6.464,3.702C6.407,4.038,6.427,4.375,6.389,4.613c-0.303,0.258-0.6,0.521-0.881,0.802
		c-0.667,0.396-1.712,0.52-2.01,0.739C2.514,6.752,3.123,7.811,3.211,8.373C3.013,8.704,2.828,9.042,2.655,9.389
		c-0.238,0.288-0.588,0.529-0.896,0.755c-0.336,0.254-0.657,0.469-0.785,0.621c-0.451,0.487-0.283,1.012-0.054,1.421
		c0.173,0.3,0.377,0.547,0.487,0.755c-0.08,0.384-0.135,0.775-0.186,1.168c-0.315,0.725-0.978,1.477-1.146,1.835
		c-0.365,1.07,0.709,1.537,1.137,1.924c0.05,0.404,0.105,0.808,0.188,1.201c-0.038,0.771-0.503,1.697-0.479,2.063
		c-0.036,1.151,1.179,1.22,1.701,1.452c0.17,0.348,0.353,0.686,0.548,1.019c0.113,0.356,0.125,0.782,0.145,1.165
		c0.028,0.42,0.034,0.807,0.09,0.996c0.162,0.644,0.693,0.789,1.16,0.822c0.347,0.02,0.667-0.017,0.904,0.006
		c0.276,0.275,0.568,0.532,0.863,0.785c0.448,0.648,0.69,1.658,0.914,1.972c0.389,0.514,0.911,0.525,1.362,0.41
		c0.338-0.102,0.639-0.257,0.871-0.315c0.35,0.172,0.705,0.334,1.068,0.479c0.306,0.21,0.58,0.521,0.824,0.826
		c0.276,0.324,0.523,0.61,0.685,0.726c0.262,0.19,0.521,0.251,0.759,0.231c0.242-0.038,0.463-0.155,0.661-0.292
		c0.284-0.195,0.515-0.433,0.713-0.558c0.385,0.048,0.776,0.074,1.17,0.093c0.752,0.251,1.559,0.871,1.93,0.987
		c0.626,0.221,1.039-0.159,1.323-0.521c0.205-0.271,0.35-0.56,0.495-0.747c0.393-0.082,0.776-0.187,1.157-0.299
		c0.783-0.014,1.747,0.327,2.129,0.313c0.643-0.045,0.938-0.478,1.086-0.918c0.101-0.337,0.135-0.676,0.213-0.903
		c0.324-0.193,0.643-0.394,0.951-0.611c0.351-0.153,0.772-0.22,1.173-0.258c0.422-0.057,0.798-0.104,0.983-0.176
		c0.62-0.223,0.746-0.738,0.726-1.222c-0.008-0.347-0.08-0.674-0.073-0.908c0.244-0.287,0.471-0.587,0.692-0.894
		c0.136-0.113,0.281-0.22,0.448-0.311c0.183-0.118,0.379-0.222,0.57-0.316c0.383-0.189,0.743-0.345,0.897-0.47
		c0.841-0.767,0.103-1.696-0.086-2.24c0.142-0.363,0.278-0.727,0.393-1.103c0.381-0.678,1.258-1.285,1.413-1.627
		C32.361,17.737,31.328,17.1,30.976,16.647z M16.047,29.331c-7.34,0-13.311-5.971-13.311-13.31S8.707,2.711,16.047,2.711
		c7.339,0,13.311,5.972,13.311,13.311S23.386,29.331,16.047,29.331z"/>
	<path d="M16.137,3.43c-6.932,0-12.571,5.639-12.571,12.571c0,6.932,5.639,12.57,12.571,12.57c6.931,0,12.57-5.639,12.57-12.57
		C28.707,9.068,23.068,3.43,16.137,3.43z M16.137,27.767c-6.487,0-11.766-5.278-11.766-11.766S9.649,4.235,16.137,4.235
		s11.766,5.278,11.766,11.766S22.624,27.767,16.137,27.767z"/>
</g>
<g>
</g>
<g>
</g>
<g>
</g>
<g>
</g>
<g>
</g>
<g>
</g>
<g>
</g>
<g>
</g>
<g>
</g>
<g>
</g>
<g>
</g>
<g>
</g>
<g>
</g>
<g>
</g>
<g>
</g>
</svg>
