<?xml version="1.0" encoding="iso-8859-1"?>
<!-- Generator: Adobe Illustrator 16.0.0, SVG Export Plug-In . SVG Version: 6.00 Build 0)  -->
<!DOCTYPE svg PUBLIC "-//W3C//DTD SVG 1.1//EN" "http://www.w3.org/Graphics/SVG/1.1/DTD/svg11.dtd">
<svg version="1.1" id="Layer_1" xmlns="http://www.w3.org/2000/svg" xmlns:xlink="http://www.w3.org/1999/xlink" x="0px" y="0px"
	 width="31.916px" height="30.795px" viewBox="0 0 31.916 30.795" style="enable-background:new 0 0 31.916 30.795;"
	 xml:space="preserve">
<path d="M0.259,25.372c-1.322,2.864,2.754,6.72,4.407,4.995s6.317-10.283,8.41-12.229c1.636-1.522,4.674,0.042,5.849,0.596
	c0.183-0.202,0.33-0.385,0.33-0.385s-3.24-3.517-3.754-4.178c-0.05-0.064,0.012-0.239,0.162-0.499l4.263,3.908l0.386-0.386
	l-4.088-4.346c0.093-0.125,0.197-0.26,0.305-0.399l4.364,3.895l0.386-0.386l-4.082-4.339c0.103-0.125,0.209-0.251,0.318-0.381
	l4.254,3.901l0.385-0.386l-4.003-4.256c0.119-0.136,0.243-0.276,0.367-0.416l4.353,3.956l0.386-0.386L19.19,9.328
	c0.144-0.159,0.294-0.321,0.442-0.482l4.388,4.039l0.386-0.386l-4.109-4.369c0.121-0.127,0.243-0.254,0.365-0.382l4.375,4.121
	l0.386-0.386l-4.13-4.391c0.124-0.127,0.248-0.25,0.371-0.375l4.427,4.099l0.385-0.385L22.34,6.036
	c0.139-0.137,0.277-0.271,0.414-0.405l4.4,4.12l0.385-0.386l-4.114-4.374c0.128-0.12,0.252-0.234,0.377-0.348l4.363,3.968
	l0.385-0.386l-4-4.253c0.113-0.098,0.223-0.191,0.331-0.282l4.351,3.982l0.386-0.386l-3.963-4.213
	c0.115-0.087,0.226-0.166,0.332-0.239l4.325,3.955l0.386-0.385l-3.823-4.065c0.204-0.07,0.357-0.071,0.451,0.007
	c1.198,1.008,4.15,3.489,4.15,3.489l0.44-0.44c0,0-3.159-3.893-4.333-4.848c-1.175-0.955-1.946-0.992-6.5,2.681
	C16.528,6.9,10.799,15.125,9.256,16.815C7.714,18.504,1.177,23.279,0.259,25.372z M2.475,26.669c0.396-0.396,1.037-0.396,1.433,0
	c0.395,0.396,0.395,1.037-0.001,1.433c-0.395,0.395-1.036,0.395-1.432,0S2.08,27.064,2.475,26.669z"/>
<g>
</g>
<g>
</g>
<g>
</g>
<g>
</g>
<g>
</g>
<g>
</g>
<g>
</g>
<g>
</g>
<g>
</g>
<g>
</g>
<g>
</g>
<g>
</g>
<g>
</g>
<g>
</g>
<g>
</g>
</svg>
