<?xml version="1.0" encoding="iso-8859-1"?>
<!-- Generator: Adobe Illustrator 16.0.0, SVG Export Plug-In . SVG Version: 6.00 Build 0)  -->
<!DOCTYPE svg PUBLIC "-//W3C//DTD SVG 1.1//EN" "http://www.w3.org/Graphics/SVG/1.1/DTD/svg11.dtd">
<svg version="1.1" id="Layer_1" xmlns="http://www.w3.org/2000/svg" xmlns:xlink="http://www.w3.org/1999/xlink" x="0px" y="0px"
	 width="30.25px" height="30.624px" viewBox="0 0 30.25 30.624" style="enable-background:new 0 0 30.25 30.624;"
	 xml:space="preserve">
<g>
	<path d="M23.001,7.311l-6.177-5.448c0.034-0.124,0.057-0.251,0.057-0.385C16.882,0.662,16.22,0,15.403,0
		c-0.816,0-1.478,0.662-1.478,1.478c0,0.201,0.041,0.393,0.114,0.568l-6.22,5.265H0v23.313h30.25V7.311H23.001z M14.499,2.64
		c0.25,0.195,0.562,0.316,0.904,0.316c0.406,0,0.774-0.164,1.041-0.429l5.423,4.784H8.979L14.499,2.64z M29.25,29.624H1V8.311h28.25
		V29.624z"/>
	<path d="M4.035,26.455c0.262,0.273,0.577,0.486,0.946,0.641c0.369,0.154,0.776,0.231,1.222,0.231c0.446,0,0.854-0.077,1.223-0.231
		s0.685-0.367,0.946-0.641c0.262-0.272,0.464-0.597,0.607-0.975c0.143-0.377,0.215-0.791,0.215-1.243
		c0-0.451-0.072-0.866-0.215-1.243c-0.144-0.377-0.346-0.702-0.607-0.975c-0.261-0.272-0.577-0.486-0.946-0.641
		s-0.776-0.231-1.223-0.231c-0.446,0-0.854,0.077-1.222,0.231c-0.369,0.154-0.685,0.368-0.946,0.641
		c-0.261,0.272-0.464,0.598-0.607,0.975c-0.144,0.377-0.215,0.792-0.215,1.243c0,0.452,0.071,0.866,0.215,1.243
		C3.571,25.858,3.774,26.182,4.035,26.455z M5.15,23.427c0.08-0.209,0.178-0.373,0.293-0.491s0.242-0.201,0.38-0.248
		s0.265-0.07,0.38-0.07c0.116,0,0.243,0.023,0.38,0.07c0.137,0.047,0.264,0.13,0.38,0.248s0.213,0.282,0.293,0.491
		c0.08,0.21,0.12,0.479,0.12,0.81s-0.04,0.601-0.12,0.81c-0.08,0.209-0.177,0.373-0.293,0.491c-0.116,0.119-0.243,0.201-0.38,0.248
		c-0.138,0.047-0.265,0.07-0.38,0.07c-0.115,0-0.242-0.023-0.38-0.07s-0.264-0.129-0.38-0.248c-0.116-0.118-0.213-0.282-0.293-0.491
		c-0.08-0.209-0.12-0.479-0.12-0.81S5.071,23.637,5.15,23.427z"/>
	<path d="M14.688,21.982c-0.17-0.198-0.394-0.363-0.669-0.496c-0.275-0.132-0.614-0.198-1.016-0.198h-3.04v5.898h1.817v-1.784h1.074
		c0.335,0,0.646-0.043,0.929-0.128c0.284-0.086,0.529-0.215,0.735-0.389c0.207-0.173,0.366-0.391,0.479-0.652
		s0.169-0.571,0.169-0.93c0-0.209-0.037-0.432-0.112-0.669C14.981,22.398,14.858,22.18,14.688,21.982z M13.362,23.72
		c-0.058,0.086-0.132,0.149-0.223,0.19s-0.194,0.066-0.31,0.074c-0.116,0.009-0.231,0.013-0.347,0.013H11.78v-1.198h0.81
		c0.11,0,0.218,0.004,0.322,0.013c0.104,0.008,0.197,0.031,0.277,0.07c0.08,0.038,0.143,0.097,0.19,0.173
		c0.047,0.078,0.07,0.183,0.07,0.314C13.449,23.518,13.42,23.635,13.362,23.72z"/>
	<polygon points="17.595,24.939 20.379,24.939 20.379,23.535 17.595,23.535 17.595,22.799 20.66,22.799 20.66,21.288 15.778,21.288 
		15.778,27.186 20.751,27.186 20.751,25.674 17.595,25.674 	"/>
	<polygon points="21.602,27.186 23.32,27.186 23.32,23.964 23.336,23.964 25.146,27.186 26.914,27.186 26.914,21.288 25.195,21.288 
		25.195,24.444 25.179,24.444 23.46,21.288 21.602,21.288 	"/>
	<path d="M22.037,17.397c0,0-2.658-1.38-4.636-2.393c-0.447,0.223-0.852,0.423-1.172,0.579l6.046,2.084L22.037,17.397z"/>
	<path d="M10.654,12.981c0.003,0,0.006,0,0.009,0.001c-0.008,0.002-0.011,0.003-0.011,0.003l4.804,1.651l0.001,0.003l0.25-0.494
		c-0.221-0.111-0.366-0.18-0.402-0.193c-1.652-0.853-2.344-2.65-2.393-2.779c-0.138-0.604-0.632-1.123-1.298-1.328
		c-0.462-0.141-0.948-0.115-1.366,0.072c-0.43,0.192-0.738,0.533-0.869,0.959c-0.042,0.137-0.063,0.278-0.064,0.422
		C9.308,12.045,9.859,12.737,10.654,12.981z M9.887,11.03c0.084-0.276,0.29-0.499,0.579-0.628c0.301-0.136,0.653-0.152,0.993-0.049
		c0.572,0.175,0.968,0.655,0.964,1.17c0,0.092-0.015,0.183-0.042,0.271c-0.084,0.276-0.291,0.499-0.579,0.63
		c-0.3,0.135-0.653,0.152-0.993,0.048c-0.571-0.175-0.968-0.657-0.965-1.17C9.846,11.21,9.859,11.119,9.887,11.03z"/>
	<path d="M10.133,19.684c0.413,0.2,0.896,0.238,1.363,0.11c0.69-0.191,1.205-0.715,1.346-1.333c0.081-0.193,0.821-1.881,2.458-2.67
		c0.278-0.089,6.795-3.382,6.795-3.382l0.223-0.261l-6.415,2.104l-0.433,0.857l-4.751,1.501c-0.032,0.007-0.064,0.014-0.096,0.021
		c-0.81,0.225-1.38,0.907-1.386,1.662c-0.001,0.138,0.017,0.274,0.053,0.406C9.409,19.13,9.708,19.479,10.133,19.684z
		 M16.269,14.467c0.155,0.001,0.279,0.128,0.277,0.282c-0.001,0.155-0.127,0.28-0.281,0.277c-0.155-0.001-0.279-0.128-0.278-0.282
		S16.114,14.466,16.269,14.467z M10.765,17.146c0.343-0.095,0.694-0.067,0.992,0.075c0.285,0.138,0.483,0.367,0.561,0.646
		c0.023,0.084,0.036,0.173,0.034,0.26c-0.003,0.519-0.414,0.994-0.997,1.155c-0.342,0.094-0.694,0.067-0.991-0.076
		c-0.285-0.137-0.485-0.366-0.561-0.646c-0.023-0.085-0.035-0.173-0.035-0.26C9.772,17.782,10.182,17.306,10.765,17.146z"/>
</g>
<g>
</g>
<g>
</g>
<g>
</g>
<g>
</g>
<g>
</g>
<g>
</g>
<g>
</g>
<g>
</g>
<g>
</g>
<g>
</g>
<g>
</g>
<g>
</g>
<g>
</g>
<g>
</g>
<g>
</g>
</svg>
