<?xml version="1.0" encoding="iso-8859-1"?>
<!-- Generator: Adobe Illustrator 16.0.0, SVG Export Plug-In . SVG Version: 6.00 Build 0)  -->
<!DOCTYPE svg PUBLIC "-//W3C//DTD SVG 1.1//EN" "http://www.w3.org/Graphics/SVG/1.1/DTD/svg11.dtd">
<svg version="1.1" id="Layer_1" xmlns="http://www.w3.org/2000/svg" xmlns:xlink="http://www.w3.org/1999/xlink" x="0px" y="0px"
	 width="31.338px" height="32.44px" viewBox="0 0 31.338 32.44" style="enable-background:new 0 0 31.338 32.44;"
	 xml:space="preserve">
<path d="M30.208,8.605l0.468,1.221l-0.349,0.138l-0.478-1.249c-0.076,0.024-0.152,0.048-0.232,0.073l0.66,1.619l-0.349,0.138
	l-0.668-1.64c-0.063,0.021-0.131,0.045-0.197,0.067l0.792,2.053l-0.349,0.138l-0.798-2.07c-0.089,0.031-0.18,0.062-0.272,0.095
	l0.816,2.061l-0.349,0.138L28.08,9.313c-0.092,0.033-0.183,0.065-0.277,0.099l0.832,2.101l-0.349,0.138L27.45,9.539
	c-0.083,0.03-0.165,0.06-0.248,0.09l0.844,2.132l-0.349,0.138L26.85,9.758c-0.091,0.033-0.184,0.067-0.276,0.102l0.857,2.164
	l-0.349,0.138l-0.859-2.172c-0.094,0.035-0.189,0.071-0.284,0.106l0.854,2.157l-0.349,0.138l-0.856-2.163
	c-0.091,0.034-0.183,0.069-0.275,0.104l0.865,2.184l-0.349,0.138l-0.866-2.189c-0.083,0.031-0.165,0.063-0.247,0.094l0.874,2.206
	l-0.349,0.138l-0.875-2.21c-0.091,0.035-0.183,0.07-0.274,0.104l0.883,2.23l-0.349,0.138L23.74,10.93
	c-0.067,0.026-0.134,0.051-0.2,0.077l0.897,2.267l-0.349,0.138l-0.898-2.27c-0.092,0.035-0.184,0.071-0.274,0.106l0.906,2.288
	l-0.349,0.138l-0.906-2.291c-0.083,0.032-0.166,0.064-0.246,0.096l0.913,2.305l-0.349,0.138l-0.913-2.307
	c-0.093,0.036-0.184,0.072-0.273,0.107l0.92,2.324l-0.349,0.138l-0.92-2.325c-0.097,0.038-0.189,0.075-0.282,0.111l0.913,2.305
	l-0.349,0.138l-0.912-2.305c-0.094,0.038-0.186,0.073-0.273,0.108l0.919,2.322l-0.349,0.138l-0.918-2.321
	c-0.085,0.034-0.169,0.067-0.246,0.098l0.924,2.334l-0.349,0.138l-0.923-2.333c-0.11,0.044-0.207,0.083-0.272,0.109l0.93,2.349
	l-0.349,0.138l-0.932-2.356l-0.627,0.222l0.155-0.546l-2.534-1.052l0.144-0.346l2.507,1.041c0.026-0.08,0.057-0.175,0.092-0.28
	l-2.503-1.039l0.144-0.347l2.476,1.027c0.026-0.08,0.053-0.163,0.082-0.251l-2.47-1.025l0.145-0.346l2.442,1.013
	c0.029-0.091,0.059-0.183,0.09-0.28l-2.436-1.012l0.144-0.347l2.408,1c0.03-0.094,0.061-0.19,0.092-0.288l-2.363-0.981l0.143-0.347
	l2.335,0.969c0.029-0.091,0.06-0.186,0.09-0.28l-2.329-0.967l0.143-0.346l2.3,0.954c0.026-0.083,0.053-0.167,0.08-0.252
	l-2.292-0.951l0.144-0.347l2.262,0.939c0.03-0.094,0.059-0.186,0.089-0.281l-2.254-0.936l0.144-0.346l2.223,0.922
	c0.021-0.068,0.043-0.136,0.064-0.205l-2.236-0.929l0.143-0.347l2.205,0.916c0.029-0.094,0.059-0.188,0.088-0.282l-2.196-0.912
	l0.143-0.346l2.164,0.898c0.026-0.084,0.052-0.168,0.078-0.253l-2.153-0.894l0.144-0.347l2.12,0.88
	c0.029-0.094,0.058-0.188,0.086-0.282l-2.11-0.876l0.143-0.347l2.076,0.862c0.03-0.098,0.059-0.195,0.088-0.292l-2.026-0.842
	l0.143-0.346l1.99,0.827c0.029-0.096,0.056-0.189,0.084-0.284l-1.978-0.821l0.144-0.347l1.941,0.806
	c0.025-0.086,0.049-0.17,0.074-0.254l-1.926-0.8l0.143-0.346l1.887,0.783c0.027-0.096,0.055-0.192,0.081-0.285l-1.872-0.778
	L19.62,1.94l1.83,0.759c0.017-0.063,0.035-0.126,0.051-0.187l-1.826-0.758l0.143-0.347l1.781,0.739
	c0.025-0.095,0.049-0.186,0.072-0.276L20.22,1.284l0.143-0.347l1.401,0.566c0.022-0.091,0.045-0.183,0.064-0.267l-1.042-0.43
	l0.144-0.346l0.981,0.405C22.015,0.363,22.048,0.045,21.979,0c-6.457,0.141-7.125,14.025-7.125,14.025l-0.042,0.249L8.247,16.6
	c-0.14-0.194-0.298-0.377-0.481-0.542c-1.666-1.497-4.5-1.069-6.317,0.954s-1.941,4.886-0.275,6.383
	c1.666,1.496,4.5,1.068,6.317-0.955c1.063-1.184,1.542-2.654,1.427-3.971l5.405-1.257l-1.028,6.16
	c-1.134,0.179-2.285,0.789-3.186,1.791c-1.817,2.023-1.94,4.887-0.274,6.384c1.666,1.497,4.5,1.068,6.317-0.955
	s1.941-4.886,0.275-6.383c-0.342-0.307-0.734-0.529-1.155-0.677l1.993-7.005l0.525-0.122c0,0,13.814-1.547,13.545-8
	C31.276,8.328,30.854,8.414,30.208,8.605z M6.521,21.569c-1.337,1.488-3.345,1.872-4.475,0.856s-0.963-3.053,0.374-4.541
	c1.336-1.487,3.344-1.871,4.475-0.855C8.024,18.044,7.857,20.081,6.521,21.569z M15.554,25.181c1.131,1.016,0.963,3.052-0.374,4.54
	c-1.337,1.488-3.344,1.872-4.475,0.856c-1.131-1.016-0.964-3.053,0.373-4.541C12.416,24.548,14.423,24.165,15.554,25.181z
	 M17.454,15.62c-0.339,0.377-0.919,0.408-1.295,0.069c-0.377-0.338-0.408-0.919-0.069-1.296c0.338-0.376,0.918-0.407,1.295-0.069
	C17.761,14.663,17.792,15.243,17.454,15.62z"/>
<g>
</g>
<g>
</g>
<g>
</g>
<g>
</g>
<g>
</g>
<g>
</g>
<g>
</g>
<g>
</g>
<g>
</g>
<g>
</g>
<g>
</g>
<g>
</g>
<g>
</g>
<g>
</g>
<g>
</g>
</svg>
