<?xml version="1.0" encoding="iso-8859-1"?>
<!-- Generator: Adobe Illustrator 16.0.0, SVG Export Plug-In . SVG Version: 6.00 Build 0)  -->
<!DOCTYPE svg PUBLIC "-//W3C//DTD SVG 1.1//EN" "http://www.w3.org/Graphics/SVG/1.1/DTD/svg11.dtd">
<svg version="1.1" id="Layer_1" xmlns="http://www.w3.org/2000/svg" xmlns:xlink="http://www.w3.org/1999/xlink" x="0px" y="0px"
	 width="29.332px" height="31.816px" viewBox="0 0 29.332 31.816" style="enable-background:new 0 0 29.332 31.816;"
	 xml:space="preserve">
<g>
	<path d="M21.483,28.848c0.416-1.449,0.073-3-0.874-3.951c-0.196-0.197-0.412-0.362-0.644-0.496
		c-0.272-0.466-1.664-2.986-2.103-6.51C17.515,16.824,18.351,0,18.351,0l-0.574,0.05l-2.92,15.879c0,0,3.07,5.704,3.442,8.074
		c-0.575,0.031-1.148,0.226-1.674,0.579c-0.806,0.54-1.408,1.387-1.695,2.386c-0.416,1.449-0.073,3,0.874,3.951
		c0.374,0.376,0.816,0.639,1.314,0.782C18.925,32.219,20.883,30.939,21.483,28.848z M15.956,15.698
		c-0.232-0.233-0.231-0.611,0.002-0.844c0.233-0.233,0.612-0.232,0.845,0.001s0.231,0.612-0.002,0.845
		C16.567,15.933,16.188,15.932,15.956,15.698z M17.389,30.756c-0.335-0.097-0.635-0.274-0.889-0.531
		c-0.699-0.702-0.945-1.875-0.625-2.988c0.223-0.775,0.683-1.429,1.296-1.839c0.587-0.394,1.246-0.514,1.853-0.339
		c0.335,0.096,0.635,0.274,0.89,0.53c0.699,0.702,0.944,1.875,0.625,2.988C20.087,30.147,18.675,31.125,17.389,30.756z"/>
	<path d="M29.332,7.794l-0.271-0.517l-8.079,3.928c0,0-1.098,0.515-2.546,1.182c-0.025,0.883-0.043,1.708-0.053,2.433L29.332,7.794z
		"/>
	<path d="M14.054,15.857l0.299-1.625c-1.223,0.538-2.251,0.969-2.681,1.097c-1.158,0.345-4.094,0.46-5.125,0.491
		c-0.022-0.024-0.041-0.05-0.064-0.073c-1.326-1.332-3.66-1.167-5.202,0.368c-1.542,1.536-1.718,3.868-0.392,5.2
		c1.326,1.333,3.66,1.167,5.201-0.368c1.131-1.125,1.525-2.68,1.131-3.955l7.095-0.636C14.154,16.042,14.054,15.857,14.054,15.857z
		 M5.398,20.25c-1.158,1.153-2.868,1.32-3.812,0.372s-0.77-2.658,0.389-3.81c1.158-1.153,2.868-1.32,3.812-0.371
		C6.731,17.389,6.557,19.098,5.398,20.25z"/>
</g>
<g>
</g>
<g>
</g>
<g>
</g>
<g>
</g>
<g>
</g>
<g>
</g>
<g>
</g>
<g>
</g>
<g>
</g>
<g>
</g>
<g>
</g>
<g>
</g>
<g>
</g>
<g>
</g>
<g>
</g>
</svg>
