<?xml version="1.0" encoding="utf-8"?>
<!-- Generator: Adobe Illustrator 16.0.4, SVG Export Plug-In . SVG Version: 6.00 Build 0)  -->
<!DOCTYPE svg PUBLIC "-//W3C//DTD SVG 1.1//EN" "http://www.w3.org/Graphics/SVG/1.1/DTD/svg11.dtd">
<svg version="1.1" id="Layer_1" xmlns="http://www.w3.org/2000/svg" xmlns:xlink="http://www.w3.org/1999/xlink" x="0px" y="0px"
	 width="26.32px" height="31.373px" viewBox="0 0 26.32 31.373" enable-background="new 0 0 26.32 31.373" xml:space="preserve">
<path d="M16.847,7.631l0.613,0.284L10.07,23.864l-0.613-0.283L16.847,7.631z M14.719,8.189l-0.613-0.284l-3.404,7.347l0.613,0.284
	L14.719,8.189z M12.23,23.099l0.614,0.283l3.386-7.357l-0.614-0.283L12.23,23.099z M24.478,21.837
	c0.243,0.395,0.315,0.934,0.022,1.296c-0.433,0.505-0.889,0.359-1.164,0.089c-0.273-0.274-0.374-0.66-0.048-0.744
	c-0.241,0.354,0.501,0.524,0.71,0.201c0.25-0.436-0.302-0.766-0.661-0.806c-0.326-0.038-0.505,0.071-0.649,0.22
	c-0.148,0.148-0.287,0.329-0.487,0.446c-0.077,0.043-0.171,0.075-0.271,0.092c0.287,0.086,0.607,0.05,0.874-0.098
	c0.008,0.278,0.103,0.522,0.247,0.762c-0.28,0.021-0.514,0.099-0.76,0.244c-0.017-0.283-0.185-0.569-0.408-0.751
	c0.037,0.082,0.062,0.166,0.072,0.243c0.043,0.342-0.16,0.614-0.09,0.93c0.025,0.119,0.085,0.244,0.208,0.38
	c0.19,0.21,0.582,0.413,0.844,0.273c0.076-0.04,0.141-0.107,0.185-0.211c0.151-0.354-0.403-0.85-0.575-0.461
	c-0.054-0.154,0.013-0.264,0.145-0.327c0.127-0.066,0.312-0.091,0.5-0.058c0.19,0.031,0.382,0.119,0.507,0.28
	c0.126,0.161,0.193,0.399,0.092,0.712c-0.048,0.167-0.146,0.311-0.271,0.426c-0.269,0.252-0.673,0.364-1.061,0.31
	c-0.38-0.05-0.717-0.242-0.875-0.548c0.091,0.318-0.35,0.397-0.491-0.002c-0.124-0.33,0.278-0.62,0.261-0.909
	c-0.11,0.184-0.121,0.144-0.305,0.11c0.003-0.029,0.013-0.055,0.018-0.084c-0.099,0.142-0.199,0.28-0.304,0.416
	c0.026,0.084,0.056,0.166,0.091,0.234c-0.074-0.021-0.157-0.035-0.243-0.042c-0.083,0.104-0.169,0.206-0.255,0.308
	c0.265,0.047,0.524,0.164,0.681,0.365c0.288,0.127,0.507,0.446,0.575,0.797c0.056,0.338-0.048,0.702-0.332,0.887
	c-0.428,0.287-0.758,0.037-0.895-0.233c-0.135-0.271-0.136-0.606,0.129-0.585c-0.255,0.216,0.259,0.532,0.492,0.34
	c0.306-0.253-0.031-0.646-0.298-0.773l-0.021-0.01l-0.012-0.019c-0.167-0.239-0.611-0.515-0.794-0.222
	c-0.137,0.222,0.202,0.731,0.388,0.457c0.041,0.259-0.271,0.306-0.548,0.146c-0.101-0.057-0.19-0.132-0.257-0.222
	c-0.053,0.048-0.104,0.097-0.157,0.144c0.091,0.071,0.163,0.163,0.214,0.262c0.144,0.272,0.104,0.597-0.152,0.551
	c0.271-0.188-0.226-0.538-0.443-0.398c-0.008,0.005-0.016,0.014-0.024,0.02c-0.239,0.193-0.009,0.599,0.224,0.777l0.019,0.014
	l0.009,0.021c0.107,0.251,0.49,0.611,0.74,0.348c0.008-0.009,0.016-0.017,0.025-0.025c0.191-0.236-0.113-0.762-0.328-0.503
	c-0.017-0.269,0.304-0.273,0.58-0.122c0.275,0.152,0.497,0.468,0.215,0.908c-0.039,0.06-0.087,0.111-0.139,0.154
	c-0.22,0.197-0.583,0.2-0.877,0.112c-0.302-0.093-0.558-0.303-0.662-0.567c-0.214-0.182-0.33-0.494-0.359-0.789
	c-0.089,0.063-0.18,0.127-0.272,0.188c-0.009,0.102-0.048,0.189-0.171,0.248c-0.069,0.027-0.176,0.035-0.291,0.035
	c-0.373,0.215-0.759,0.402-1.154,0.562c0.077,0.004,0.152-0.006,0.229-0.025c0.114-0.028,0.228-0.074,0.349-0.11
	c0.114-0.05,0.236-0.093,0.38-0.103c0.022,0.188,0.062,0.201-0.118,0.307c0.266,0.013,0.588-0.34,0.914-0.188
	c0.393,0.17,0.286,0.599-0.032,0.479c0.367,0.223,0.544,0.695,0.479,1.17c-0.032,0.236-0.121,0.471-0.265,0.664
	c-0.141,0.195-0.355,0.311-0.592,0.359c-0.678,0.123-0.916-0.289-0.938-0.681c-0.02-0.392,0.153-0.757,0.453-0.61
	c-0.41,0.121,0.026,0.728,0.411,0.617c0.123-0.037,0.205-0.102,0.252-0.184c0.045-0.086,0.055-0.189,0.041-0.294
	c-0.025-0.208-0.144-0.425-0.268-0.554c-0.112-0.118-0.219-0.184-0.323-0.219c-0.107-0.041-0.212-0.05-0.317-0.048
	c-0.209,0.007-0.422,0.065-0.643,0.021c-0.082-0.016-0.17-0.053-0.253-0.105c0.153,0.256,0.407,0.438,0.7,0.495
	c-0.173,0.218-0.257,0.481-0.317,0.747c-0.223-0.175-0.455-0.307-0.729-0.357c0.178-0.23,0.253-0.525,0.209-0.812
	c-0.026,0.081-0.064,0.157-0.107,0.216c-0.202,0.256-0.517,0.361-0.688,0.619c-0.066,0.098-0.112,0.223-0.123,0.404
	c-0.016,0.277,0.115,0.703,0.411,0.799c0.086,0.033,0.181,0.025,0.284-0.025c0.362-0.171,0.296-0.918-0.093-0.736
	c0.131-0.31,0.498-0.151,0.741,0.156c0.238,0.309,0.33,0.777-0.266,1.137c-0.157,0.088-0.328,0.15-0.51,0.133
	c-0.392-0.026-0.769-0.245-0.998-0.543c-0.23-0.297-0.317-0.674-0.21-1.006c-0.163,0.311-0.523,0.01-0.331-0.351
	c0.153-0.311,0.618-0.271,0.811-0.452c-0.202,0.037-0.183,0.004-0.286-0.154c0.121-0.092,0.247-0.139,0.373-0.178
	c0.197-0.074,0.393-0.138,0.524-0.289c-0.38,0.11-0.769,0.195-1.163,0.254c-0.108,0.156-0.197,0.334-0.255,0.488
	c-0.07-0.143-0.186-0.295-0.311-0.422c-0.111,0.01-0.223,0.016-0.335,0.021c0.007,0.007,0.015,0.012,0.021,0.021
	c0.198,0.254,0.347,0.611,0.295,0.921c0.101,0.303,0.017,0.674-0.202,0.953c-0.109,0.141-0.25,0.256-0.406,0.33
	c-0.156,0.072-0.328,0.07-0.493,0.02c-0.507-0.164-0.527-0.549-0.407-0.84c0.123-0.291,0.372-0.488,0.527-0.271
	c-0.327-0.067-0.237,0.534,0.064,0.598c0.195,0.048,0.315-0.071,0.371-0.235c0.058-0.16,0.053-0.358,0.014-0.498l-0.006-0.021
	l0.006-0.021c0.034-0.145,0.027-0.344-0.027-0.498c-0.055-0.148-0.155-0.258-0.32-0.246c-0.247,0.029-0.414,0.613-0.09,0.589
	c-0.168,0.198-0.4-0.03-0.457-0.331c-0.03-0.158-0.015-0.338,0.062-0.488c-0.098-0.008-0.192-0.017-0.288-0.027
	c0.047,0.166,0.026,0.344-0.037,0.5c-0.117,0.293-0.39,0.449-0.512,0.217c0.308,0.104,0.266-0.508,0.031-0.598
	c-0.009-0.004-0.018-0.005-0.027-0.007c-0.291-0.077-0.474,0.388-0.465,0.667v0.022l-0.011,0.02
	c-0.133,0.255-0.172,0.745,0.193,0.789c0.012,0.001,0.021,0.003,0.034,0.004c0.307,0.011,0.517-0.553,0.185-0.569
	c0.197-0.176,0.396,0.086,0.459,0.388c0.061,0.299-0.043,0.698-0.567,0.729c-0.072,0.004-0.143-0.002-0.21-0.019
	c-0.292-0.073-0.54-0.288-0.646-0.603c-0.111-0.301-0.101-0.633,0.042-0.877c0.01-0.285,0.186-0.566,0.396-0.766
	c0.031-0.027,0.062-0.053,0.096-0.079c-0.111-0.026-0.221-0.056-0.329-0.087c-0.106,0.092-0.214,0.15-0.368,0.071
	c-0.088-0.035-0.18-0.147-0.269-0.274c-0.359-0.131-0.709-0.281-1.05-0.455c0.036,0.047,0.078,0.09,0.126,0.131
	c0.186,0.142,0.432,0.213,0.612,0.439c-0.134,0.13-0.123,0.169-0.312,0.083c0.146,0.228,0.609,0.295,0.698,0.612
	c0.108,0.402-0.301,0.594-0.405,0.287c0.052,0.404-0.228,0.865-0.639,1.084c-0.402,0.223-0.978,0.266-1.335-0.063
	c-0.495-0.481-0.311-0.922-0.017-1.174c0.298-0.25,0.688-0.324,0.749,0.009c-0.337-0.266-0.561,0.461-0.242,0.698
	c0.438,0.278,0.791-0.259,0.847-0.617c0.052-0.325-0.046-0.508-0.184-0.657c-0.133-0.156-0.301-0.307-0.398-0.514
	c-0.035-0.077-0.059-0.172-0.066-0.271c-0.112,0.278-0.104,0.598,0.024,0.873c-0.277-0.012-0.528,0.065-0.78,0.189
	c-0.004-0.273-0.05-0.523-0.169-0.785c0.144,0.001,0.284-0.023,0.417-0.08c0.134-0.062,0.256-0.146,0.358-0.253
	c-0.084,0.031-0.17,0.052-0.246,0.056c-0.326-0.007-0.588-0.218-0.905-0.182c-0.121,0.012-0.254,0.061-0.403,0.167
	c-0.229,0.165-0.477,0.53-0.361,0.806c0.033,0.08,0.095,0.15,0.194,0.205c0.347,0.188,0.893-0.316,0.521-0.525
	c0.322-0.086,0.406,0.326,0.32,0.688c-0.09,0.363-0.43,0.753-1.051,0.486c-0.164-0.067-0.302-0.181-0.407-0.317
	c-0.238-0.291-0.276-0.738-0.188-1.104c0.09-0.371,0.324-0.682,0.646-0.803c-0.329,0.054-0.356-0.388,0.061-0.482
	c0.347-0.09,0.585,0.34,0.861,0.366c-0.168-0.126-0.118-0.142-0.062-0.321c0.142,0.047,0.271,0.105,0.389,0.174
	c0.117,0.065,0.226,0.141,0.338,0.194c-0.319-0.216-0.627-0.452-0.924-0.705c-0.123,0.019-0.241,0.044-0.342,0.082
	c0.039-0.091,0.062-0.199,0.082-0.31c-0.091-0.082-0.178-0.166-0.266-0.252c-0.085,0.273-0.242,0.537-0.468,0.668
	c-0.168,0.274-0.504,0.444-0.852,0.457c-0.344,0.015-0.7-0.129-0.85-0.431c-0.208-0.478,0.069-0.765,0.358-0.869
	c0.297-0.106,0.594-0.036,0.552,0.214C5.239,25.278,4.859,25.748,5.023,26c0.217,0.332,0.652,0.046,0.812-0.2l0.014-0.02l0.02-0.01
	c0.259-0.136,0.587-0.541,0.316-0.754c-0.207-0.162-0.754,0.108-0.504,0.326c-0.277,0.02-0.248-0.324-0.066-0.572
	c0.055-0.074,0.125-0.141,0.201-0.192c-0.043-0.054-0.084-0.109-0.127-0.163c-0.071,0.059-0.152,0.105-0.236,0.136
	c-0.291,0.109-0.611,0.032-0.537-0.216c0.147,0.268,0.496-0.092,0.46-0.334c-0.048-0.064-0.095-0.129-0.14-0.195
	c-0.196-0.097-0.522,0.061-0.68,0.229L4.54,24.052l-0.021,0.006c-0.27,0.084-0.646,0.408-0.439,0.702
	c0.008,0.009,0.014,0.017,0.021,0.028c0.213,0.216,0.774-0.025,0.539-0.266c0.271,0.015,0.241,0.33,0.059,0.586
	c-0.184,0.252-0.527,0.433-0.933,0.107C3.711,25.17,3.661,25.121,3.63,25.06c-0.292-0.52,0.071-1.33,0.626-1.478
	c0.166-0.157,0.41-0.242,0.658-0.267c-0.211-0.334-0.408-0.682-0.59-1.041c-0.158,0.009-0.178,0.029-0.268-0.149
	c-0.029,0.271,0.305,0.629,0.129,0.942c-0.207,0.377-0.622,0.229-0.479-0.075c-0.252,0.346-0.742,0.479-1.206,0.384
	c-0.231-0.047-0.456-0.148-0.636-0.297c-0.177-0.148-0.283-0.354-0.314-0.583c-0.079-0.654,0.339-0.884,0.728-0.897
	c0.389-0.013,0.746,0.178,0.586,0.471c-0.104-0.416-0.727,0.002-0.638,0.377c0.107,0.496,0.758,0.312,1.023,0.082
	c0.493-0.411,0.211-0.834,0.31-1.286c0.018-0.083,0.058-0.173,0.112-0.257c-0.26,0.149-0.449,0.404-0.52,0.697
	c-0.214-0.185-0.46-0.281-0.736-0.34c0.17-0.216,0.311-0.449,0.362-0.726c0.228,0.18,0.522,0.263,0.81,0.227
	c-0.082-0.03-0.155-0.071-0.215-0.118c-0.262-0.211-0.346-0.541-0.623-0.705c-0.106-0.064-0.24-0.105-0.424-0.107
	c-0.283-0.003-0.699,0.146-0.771,0.43c-0.022,0.082-0.017,0.174,0.03,0.275c0.162,0.349,0.906,0.283,0.732-0.105
	c0.306,0.129,0.143,0.502-0.169,0.736c-0.313,0.232-0.782,0.314-1.122-0.247c-0.09-0.147-0.131-0.313-0.132-0.479
	c-0.016-0.362,0.222-0.739,0.505-0.981c0.291-0.245,0.661-0.364,0.994-0.274c-0.298-0.147-0.065-0.526,0.329-0.363
	c0.333,0.133,0.284,0.629,0.486,0.82c-0.043-0.168-0.023-0.189,0.063-0.25c-0.048-0.187-0.092-0.373-0.133-0.562
	c-0.027-0.011-0.058-0.021-0.084-0.029c0.022-0.013,0.045-0.034,0.065-0.051c-0.028-0.134-0.053-0.271-0.077-0.406
	c-0.182,0.111-0.381,0.181-0.585,0.167c-0.28,0.129-0.681,0.079-0.966-0.105c-0.291-0.18-0.5-0.492-0.451-0.822
	c0.067-0.503,0.459-0.594,0.758-0.523c0.303,0.071,0.55,0.293,0.361,0.48c0.004-0.337-0.57-0.152-0.579,0.148
	c-0.011,0.393,0.509,0.401,0.78,0.287l0.021-0.01l0.022,0.003c0.168,0.021,0.407-0.026,0.557-0.132
	c-0.023-0.167-0.045-0.335-0.063-0.504c-0.198-0.083-0.463-0.051-0.404,0.17c-0.226-0.141-0.049-0.409,0.242-0.52
	c0.039-0.016,0.08-0.028,0.121-0.037c-0.006-0.074-0.008-0.148-0.015-0.223c-0.039-0.004-0.079-0.01-0.117-0.019
	c-0.302-0.068-0.522-0.308-0.322-0.479c-0.021,0.224,0.235,0.223,0.417,0.117c-0.008-0.171-0.011-0.344-0.013-0.516
	c-0.165-0.083-0.405-0.093-0.567-0.049l-0.026,0.008l-0.021-0.006c-0.278-0.072-0.764,0.005-0.727,0.362
	c0.001,0.012,0.003,0.021,0.005,0.034c0.058,0.296,0.655,0.396,0.597,0.063c0.215,0.158,0.012,0.412-0.281,0.527
	c-0.293,0.112-0.678,0.078-0.832-0.408c-0.021-0.067-0.029-0.135-0.029-0.201c-0.019-0.587,0.771-1.086,1.304-0.922
	c0.189-0.039,0.393-0.006,0.582,0.068c0.01-0.406,0.035-0.806,0.074-1.201c-0.074-0.041-0.089-0.068-0.067-0.228
	c-0.087,0.108-0.114,0.285-0.153,0.454c-0.025,0.172-0.073,0.336-0.225,0.426c-0.361,0.218-0.653-0.125-0.383-0.313
	c-0.385,0.167-0.88,0.025-1.238-0.292c-0.338-0.313-0.531-0.805-0.359-1.232c0.116-0.301,0.315-0.447,0.515-0.495
	c0.197-0.048,0.401,0.001,0.569,0.092c0.169,0.091,0.298,0.224,0.357,0.355c0.062,0.132,0.049,0.26-0.091,0.346
	c0.107-0.411-0.635-0.366-0.737,0.001c-0.133,0.482,0.485,0.651,0.844,0.593c0.658-0.101,0.577-0.616,0.906-0.957
	c0.062-0.062,0.146-0.119,0.24-0.163c-0.298-0.002-0.616,0.119-0.815,0.337c-0.099-0.27-0.239-0.474-0.443-0.663
	c0.262-0.098,0.485-0.231,0.665-0.446c0.114,0.271,0.332,0.494,0.601,0.608c-0.057-0.068-0.104-0.141-0.133-0.212
	c-0.123-0.314-0.057-0.648-0.189-0.924c-0.056-0.108-0.146-0.209-0.302-0.303c-0.24-0.145-0.676-0.226-0.895-0.02
	c-0.062,0.059-0.109,0.14-0.122,0.25c-0.025,0.384,0.655,0.704,0.688,0.278c0.206,0.266-0.112,0.509-0.497,0.554
	c-0.384,0.044-0.832-0.123-0.861-0.781c-0.012-0.174,0.041-0.336,0.135-0.479c0.399-0.637,1.433-0.838,1.923-0.333
	c-0.197-0.283,0.214-0.485,0.46-0.149c0.22,0.281-0.045,0.692,0.028,0.958c0.051-0.171,0.076-0.177,0.188-0.186
	c0.055-0.174,0.112-0.346,0.174-0.516c-0.03-0.037-0.062-0.074-0.092-0.106c0.043-0.001,0.09-0.006,0.137-0.012
	c0.047-0.127,0.095-0.253,0.146-0.378c-0.229,0.008-0.457-0.034-0.629-0.153C2.91,10.06,2.611,9.824,2.447,9.515
	C2.288,9.211,2.236,8.822,2.466,8.569C2.807,8.18,3.178,8.297,3.402,8.514c0.224,0.218,0.309,0.527,0.045,0.589
	c0.19-0.28-0.404-0.419-0.577-0.17C2.668,9.27,3.117,9.543,3.405,9.581l0.023,0.002l0.017,0.015
	c0.159,0.118,0.434,0.208,0.621,0.153c0.056-0.122,0.115-0.242,0.173-0.363C4.15,9.176,3.836,8.992,3.752,9.24
	C3.635,9.008,3.938,8.875,4.243,8.931c0.068,0.011,0.134,0.033,0.198,0.062c0.033-0.06,0.063-0.122,0.097-0.182
	C4.474,8.776,4.416,8.734,4.365,8.685C4.143,8.472,4.055,8.14,4.328,8.107c-0.175,0.22,0.215,0.372,0.446,0.294
	C4.83,8.307,4.888,8.215,4.945,8.124C4.913,7.917,4.644,7.715,4.437,7.652L4.415,7.646L4.399,7.63
	c-0.195-0.206-0.651-0.4-0.818-0.08C3.576,7.559,3.57,7.568,3.564,7.58C3.449,7.857,3.908,8.251,4.038,7.943
	c0.087,0.238-0.195,0.361-0.506,0.308C3.229,8.2,2.906,7.966,3.023,7.463c0.02-0.067,0.05-0.128,0.088-0.185
	c0.328-0.497,1.21-0.534,1.59-0.101c0.22,0.082,0.41,0.274,0.543,0.496c0.268-0.382,0.551-0.744,0.854-1.086
	c-0.057,0.04-0.116,0.077-0.181,0.109C5.83,6.529,5.78,6.524,5.925,6.368C5.651,6.443,5.5,6.917,5.141,6.894
	c-0.427-0.017-0.48-0.457-0.148-0.466C4.575,6.357,4.238,5.974,4.117,5.51C3.98,5.041,4.119,4.526,4.512,4.262
	c0.549-0.376,0.96-0.067,1.122,0.27C5.794,4.87,5.791,5.289,5.459,5.269c0.324-0.277-0.312-0.663-0.611-0.413
	C4.454,5.184,4.875,5.665,5.209,5.815C5.812,6.095,6.046,5.644,6.49,5.54c0.088-0.014,0.19-0.011,0.29,0.008
	C6.533,5.37,6.212,5.291,5.928,5.361C5.992,5.08,5.99,4.829,5.935,4.559c0.271,0.07,0.532,0.093,0.803,0.024
	C6.674,4.87,6.723,5.175,6.877,5.422C6.869,5.334,6.873,5.249,6.89,5.175c0.076-0.326,0.324-0.551,0.382-0.849
	c0.019-0.118,0.007-0.254-0.062-0.423c-0.103-0.26-0.401-0.588-0.704-0.55c-0.087,0.01-0.174,0.05-0.253,0.131
	c-0.256,0.3,0.113,0.96,0.389,0.631c0.01,0.337-0.389,0.347-0.73,0.163C5.573,4.092,5.301,3.697,5.678,3.132
	c0.093-0.154,0.243-0.251,0.406-0.316c0.354-0.14,0.782-0.103,1.113,0.068c0.333,0.168,0.583,0.477,0.623,0.818
	C7.848,3.37,8.295,3.47,8.279,3.885C8.265,4.215,7.828,4.392,7.73,4.643c0.168-0.126,0.165-0.085,0.325,0.011
	c-0.071,0.138-0.166,0.24-0.265,0.331c-0.066,0.064-0.138,0.12-0.2,0.183C7.582,5.18,7.573,5.192,7.563,5.204
	C7.834,4.993,8.113,4.795,8.4,4.615c0.004-0.038,0.014-0.074,0.016-0.111C8.428,4.393,8.43,4.283,8.42,4.186
	C8.52,4.263,8.651,4.33,8.785,4.384c0.106-0.06,0.21-0.119,0.317-0.174C8.827,4.07,8.564,3.831,8.48,3.545
	C8.258,3.319,8.172,2.946,8.242,2.596c0.062-0.36,0.307-0.651,0.649-0.706C9.41,1.803,9.603,2.137,9.627,2.452
	c0.021,0.317-0.111,0.609-0.348,0.487C9.6,2.845,9.251,2.351,8.955,2.435c-0.387,0.107-0.221,0.6-0.021,0.818L8.948,3.27
	l0.005,0.022c0.065,0.282,0.373,0.704,0.649,0.519C9.81,3.668,9.695,3.069,9.419,3.242c0.061-0.254,0.37-0.16,0.558,0.083
	c0.092,0.118,0.155,0.27,0.164,0.428c0.083-0.03,0.166-0.057,0.25-0.085c-0.104-0.125-0.156-0.286-0.167-0.437
	c-0.024-0.305,0.145-0.58,0.358-0.43c-0.322,0.053-0.009,0.578,0.241,0.546c0.009-0.001,0.018-0.004,0.027-0.006
	c0.293-0.072,0.246-0.566,0.11-0.813l-0.011-0.02V2.485c0.003-0.286-0.185-0.743-0.527-0.61c-0.012,0.004-0.021,0.008-0.032,0.013
	c-0.276,0.135-0.208,0.735,0.093,0.593C10.388,2.729,10.095,2.598,9.9,2.348C9.709,2.097,9.629,1.719,10.082,1.44
	c0.061-0.039,0.127-0.065,0.193-0.083c0.144-0.038,0.297-0.038,0.442,0.007c0.148,0.054,0.289,0.14,0.405,0.247
	c0.235,0.215,0.377,0.515,0.36,0.798c0.118,0.258,0.09,0.589-0.008,0.866c-0.015,0.04-0.032,0.076-0.05,0.113
	c0.107-0.023,0.217-0.043,0.324-0.061c0.055-0.139,0.121-0.25,0.301-0.253c0.107-0.001,0.265,0.077,0.416,0.166
	c0.229-0.019,0.462-0.032,0.695-0.032c0.165,0,0.329,0.006,0.492,0.015c-0.083-0.069-0.177-0.107-0.28-0.132
	c-0.226-0.071-0.477-0.007-0.736-0.125c0.061-0.177,0.032-0.206,0.238-0.219c-0.231-0.128-0.673,0.021-0.896-0.238
	c-0.277-0.299-0.002-0.685,0.233-0.422c-0.232-0.364-0.188-0.865,0.082-1.258c0.134-0.197,0.32-0.364,0.536-0.472
	c0.109-0.053,0.225-0.094,0.341-0.11c0.117-0.006,0.238,0.006,0.355,0.042c0.668,0.206,0.692,0.682,0.537,1.039
	c-0.16,0.358-0.479,0.601-0.681,0.332c0.423,0.081,0.304-0.66-0.093-0.738c-0.518-0.075-0.594,0.588-0.482,0.924
	c0.1,0.318,0.266,0.415,0.455,0.51c0.188,0.093,0.403,0.14,0.579,0.282c0.066,0.053,0.128,0.128,0.178,0.212
	C14,2.551,13.854,2.272,13.62,2.085c0.254-0.116,0.446-0.298,0.62-0.523c0.124,0.233,0.268,0.477,0.489,0.646
	c-0.263,0.123-0.461,0.342-0.553,0.623c0.062-0.066,0.129-0.11,0.194-0.142c0.294-0.137,0.618-0.064,0.892-0.236
	c0.105-0.069,0.202-0.158,0.294-0.313c0.138-0.234,0.218-0.69-0.006-0.891c-0.065-0.057-0.152-0.095-0.269-0.1
	c-0.401-0.019-0.679,0.674-0.251,0.697c-0.256,0.212-0.51-0.102-0.588-0.489c-0.073-0.385,0.055-0.843,0.749-0.882
	c0.183-0.01,0.358,0.032,0.517,0.11c0.34,0.184,0.571,0.571,0.642,0.939c0.069,0.373-0.021,0.75-0.269,0.995
	c0.281-0.186,0.485,0.198,0.14,0.458C15.939,3.2,15.55,2.93,15.296,3.002c0.198,0.063,0.164,0.084,0.186,0.272
	c-0.149,0.03-0.28-0.004-0.414-0.007c-0.229-0.014-0.445-0.06-0.642,0.035c0.419,0.061,0.828,0.152,1.228,0.272
	c0.154-0.085,0.301-0.192,0.414-0.301c0.003,0.136,0.033,0.306,0.082,0.465c0.104,0.039,0.206,0.08,0.309,0.122
	c-0.057-0.315-0.025-0.686,0.154-0.932c0.045-0.316,0.288-0.607,0.605-0.756c0.159-0.075,0.336-0.114,0.507-0.107
	c0.172,0.004,0.335,0.06,0.454,0.188c0.372,0.374,0.224,0.732-0.011,0.939c-0.235,0.206-0.547,0.27-0.59,0.003
	c0.264,0.208,0.447-0.373,0.207-0.566c-0.328-0.226-0.625,0.214-0.676,0.499L17.105,3.15l-0.017,0.018
	c-0.188,0.228-0.333,0.719-0.01,0.808c0.237,0.09,0.644-0.361,0.342-0.486c0.237-0.1,0.346,0.21,0.265,0.508
	c-0.035,0.131-0.104,0.259-0.205,0.356c0.069,0.039,0.141,0.077,0.209,0.118c0.043-0.13,0.125-0.249,0.227-0.338
	c0.116-0.103,0.258-0.172,0.37-0.176c0.108,0.002,0.192,0.062,0.196,0.195c-0.234-0.232-0.461,0.339-0.284,0.528
	c0.006,0.008,0.015,0.013,0.022,0.02c0.231,0.203,0.592-0.141,0.702-0.4l0.01-0.021l0.019-0.014
	c0.225-0.173,0.467-0.604,0.162-0.802c-0.009-0.006-0.018-0.012-0.029-0.019c-0.267-0.143-0.701,0.274-0.41,0.435
	c-0.125,0.036-0.204-0.026-0.244-0.135c-0.042-0.104-0.049-0.252-0.01-0.402c0.04-0.15,0.123-0.298,0.262-0.391
	c0.136-0.092,0.335-0.135,0.57-0.034c0.066,0.026,0.125,0.064,0.179,0.107c0.231,0.186,0.344,0.505,0.327,0.811
	c-0.02,0.316-0.169,0.621-0.397,0.782c-0.128,0.256-0.397,0.434-0.676,0.53c0.101,0.076,0.2,0.154,0.299,0.235
	c0.075,0.003,0.146,0.031,0.214,0.116c0.024,0.031,0.046,0.077,0.067,0.126c0.181,0.161,0.358,0.329,0.53,0.503
	c-0.045-0.076-0.086-0.156-0.111-0.25c0.174-0.065,0.177-0.107,0.318,0.052c-0.023-0.134-0.134-0.272-0.239-0.404
	c-0.112-0.127-0.204-0.266-0.176-0.44c0.065-0.417,0.513-0.422,0.483-0.094c0.121-0.403,0.543-0.692,1.023-0.758
	c0.466-0.055,0.97,0.138,1.188,0.555c0.283,0.606-0.067,0.964-0.424,1.087c-0.365,0.125-0.744,0.039-0.697-0.275
	c0.24,0.351,0.701-0.229,0.486-0.553c-0.283-0.424-0.815-0.067-1.005,0.243c-0.176,0.281-0.159,0.49-0.09,0.687
	c0.033,0.098,0.081,0.193,0.123,0.292c0.04,0.101,0.066,0.214,0.072,0.33c0.004,0.088-0.011,0.186-0.041,0.284
	c0.206-0.221,0.317-0.526,0.306-0.833c0.25,0.118,0.508,0.141,0.783,0.118c-0.1,0.26-0.152,0.514-0.111,0.788
	c-0.281-0.096-0.594-0.083-0.858,0.039C20.914,6.999,21,7.013,21.072,7.04c0.33,0.107,0.493,0.405,0.797,0.488
	c0.117,0.031,0.255,0.033,0.43-0.016c0.271-0.077,0.63-0.339,0.622-0.638c-0.001-0.086-0.032-0.174-0.104-0.26
	c-0.12-0.148-0.358-0.153-0.532-0.076S22.02,6.757,22.15,6.924c-0.314-0.043-0.299-0.426-0.07-0.745
	c0.224-0.311,0.656-0.536,1.166-0.102c0.125,0.121,0.208,0.272,0.254,0.436c0.101,0.359,0.022,0.768-0.188,1.082
	c-0.214,0.32-0.537,0.539-0.877,0.544c0.32,0.06,0.193,0.493-0.224,0.443c-0.178-0.018-0.277-0.153-0.382-0.29
	c-0.106-0.136-0.2-0.285-0.324-0.346c0.112,0.183,0.071,0.174-0.04,0.325c0.083,0.134,0.163,0.272,0.241,0.41
	c0.065,0.009,0.129,0.015,0.191,0.014c-0.037,0.041-0.071,0.092-0.104,0.143c0.063,0.115,0.123,0.229,0.185,0.346
	c0.152-0.18,0.347-0.326,0.562-0.371c0.241-0.205,0.622-0.26,0.964-0.168c0.351,0.086,0.623,0.336,0.66,0.671
	c0.058,0.511-0.282,0.698-0.595,0.712c-0.316,0.013-0.604-0.136-0.47-0.368c0.081,0.327,0.586-0.006,0.52-0.3
	c-0.089-0.386-0.589-0.253-0.82-0.067L22.78,9.307L22.759,9.31c-0.195,0.031-0.457,0.173-0.551,0.354
	c0.06,0.127,0.114,0.255,0.169,0.384c0.221,0.061,0.535-0.043,0.412-0.263c0.252,0.074,0.146,0.383-0.103,0.566
	c-0.046,0.034-0.098,0.063-0.15,0.087c0.025,0.066,0.049,0.133,0.074,0.199c0.059-0.016,0.118-0.028,0.178-0.03
	c0.308-0.014,0.58,0.159,0.428,0.378c-0.036-0.241-0.327-0.138-0.469,0.038c0.051,0.149,0.101,0.298,0.146,0.449
	c0.184,0.051,0.438-0.006,0.592-0.095l0.02-0.012h0.023c0.285-0.002,0.736-0.204,0.611-0.541c-0.005-0.011-0.009-0.02-0.013-0.032
	c-0.129-0.272-0.73-0.211-0.592,0.096c-0.245-0.097-0.113-0.397,0.141-0.586c0.248-0.184,0.639-0.257,0.904,0.178
	c0.037,0.059,0.061,0.123,0.078,0.188c0.072,0.28-0.031,0.597-0.227,0.833c-0.209,0.24-0.505,0.399-0.785,0.395
	c-0.181,0.095-0.4,0.113-0.612,0.081c0.101,0.385,0.185,0.777,0.255,1.177c0.094,0.022,0.115,0.039,0.135,0.206
	c0.134-0.259-0.118-0.693,0.136-0.945c0.297-0.303,0.663-0.045,0.447,0.206c0.333-0.262,0.844-0.251,1.271-0.035
	c0.433,0.211,0.719,0.642,0.664,1.098c-0.081,0.645-0.568,0.757-0.937,0.666c-0.368-0.093-0.675-0.372-0.444-0.609
	c-0.002,0.426,0.705,0.193,0.713-0.189c0.012-0.501-0.628-0.506-0.961-0.358c-0.608,0.265-0.42,0.745-0.632,1.157
	c-0.04,0.075-0.112,0.153-0.189,0.219c0.297-0.076,0.557-0.273,0.692-0.534c0.168,0.234,0.371,0.394,0.606,0.525
	c-0.228,0.162-0.414,0.349-0.535,0.603c-0.177-0.233-0.441-0.392-0.729-0.434c0.073,0.051,0.135,0.11,0.18,0.171
	c0.202,0.273,0.203,0.614,0.433,0.846c0.079,0.088,0.192,0.163,0.366,0.213c0.268,0.077,0.71,0.041,0.871-0.213
	c0.041-0.073,0.058-0.163,0.036-0.272c-0.071-0.377-0.808-0.51-0.735-0.09c-0.264-0.204-0.015-0.521,0.347-0.664
	c0.36-0.141,0.837-0.094,1.026,0.531c0.051,0.165,0.049,0.334,0.009,0.495c-0.229,0.713-1.181,1.179-1.781,0.822
	c0.252,0.22-0.066,0.527-0.408,0.267c-0.287-0.213-0.127-0.681-0.266-0.919c-0.006,0.154-0.024,0.184-0.098,0.214
	c-0.005,0.201-0.013,0.4-0.025,0.599c0.02,0.014,0.041,0.028,0.061,0.041c-0.02,0.006-0.043,0.021-0.064,0.028
	c-0.01,0.14-0.021,0.277-0.034,0.414c0.205-0.057,0.417-0.071,0.6-0.008c0.315-0.052,0.664,0.097,0.901,0.349
	c0.237,0.25,0.362,0.605,0.233,0.912c-0.194,0.469-0.611,0.454-0.878,0.311c-0.137-0.072-0.242-0.178-0.289-0.281
	c-0.053-0.105-0.041-0.207,0.072-0.273c-0.086,0.325,0.517,0.293,0.599,0.004c0.104-0.377-0.396-0.519-0.687-0.477l-0.021,0.003
	l-0.021-0.008c-0.157-0.063-0.394-0.08-0.566-0.017c-0.021,0.166-0.047,0.334-0.073,0.498c0.171,0.137,0.443,0.178,0.44-0.055
	c0.094,0.098,0.078,0.199,0.004,0.281c-0.08,0.081-0.225,0.14-0.38,0.156c-0.046,0.004-0.092,0.006-0.138,0.002
	c-0.014,0.074-0.025,0.146-0.041,0.218c0.042,0.014,0.083,0.03,0.121,0.051c0.273,0.144,0.431,0.433,0.195,0.546
	c0.077-0.221-0.199-0.279-0.404-0.211c-0.037,0.155-0.076,0.311-0.119,0.463c0.129,0.139,0.374,0.221,0.563,0.223h0.021l0.019,0.012
	c0.238,0.138,0.757,0.197,0.802-0.16c0.002-0.012,0.003-0.021,0.004-0.034c0.018-0.301-0.536-0.553-0.562-0.215
	c-0.168-0.209,0.089-0.403,0.401-0.438c0.311-0.035,0.675,0.098,0.704,0.61c0.004,0.071-0.004,0.138-0.021,0.203
	c-0.061,0.283-0.342,0.497-0.633,0.601c-0.297,0.105-0.629,0.094-0.871-0.052c-0.203-0.009-0.403-0.104-0.575-0.241
	c-0.118,0.381-0.253,0.752-0.4,1.114c0.098,0.091,0.119,0.101,0.05,0.276c0.217-0.165,0.275-0.645,0.604-0.74
	c0.396-0.117,0.608,0.299,0.28,0.402C23.805,21.183,24.234,21.446,24.478,21.837z M22.164,15.748c0-6.17-4.039-11.19-9.004-11.19
	s-9.005,5.02-9.005,11.19c0,6.169,4.04,11.188,9.005,11.188S22.164,21.917,22.164,15.748z M24.914,20.728
	c-0.344,0.168-0.755,0.188-1.119,0.028l-0.027,0.095c0.221,0.211,0.488,0.243,0.717,0.43c0.28,0.227,0.229,0.438,0.404,0.701
	c0.265,0.402,0.384,0.277,0.384-0.008c0.012-0.283-0.16-0.727-0.383-0.928c0.174-0.061,0.407-0.199,0.569-0.383
	c0.163-0.184,0.252-0.41,0.113-0.63C25.338,20.248,25.244,20.562,24.914,20.728z M23.523,18.786c0.094,0.082,0.174,0.17,0.238,0.271
	c0.099-0.067,0.209-0.121,0.327-0.164c-0.093-0.084-0.173-0.172-0.236-0.271C23.753,18.69,23.643,18.744,23.523,18.786z
	 M26.27,16.17c-0.496,0.614-0.989,0.767-1.754,0.72l-0.104,0.041c0.102,0.194,0.563,0.194,0.771,0.418
	c0.211,0.229,0.293,0.633,0.364,0.95c0.524-0.112,0.369-0.616,0.273-1.013C26.265,17.077,26.408,16.668,26.27,16.17z M19.695,28.541
	c-0.379-0.067-0.717-0.302-0.908-0.651l-0.078,0.059c0.044,0.303,0.238,0.498,0.299,0.781c0.067,0.34-0.108,0.481-0.141,0.801
	c-0.058,0.49,0.117,0.463,0.307,0.229c0.096-0.116,0.188-0.28,0.25-0.452c0.058-0.18,0.078-0.369,0.054-0.521
	c0.177,0.055,0.451,0.081,0.696,0.024c0.244-0.056,0.467-0.185,0.484-0.451C20.338,28.403,20.061,28.601,19.695,28.541z
	 M19.723,26.151c0.028,0.119,0.045,0.238,0.038,0.355c0.119,0.003,0.24,0.024,0.363,0.059c-0.026-0.121-0.043-0.239-0.037-0.355
	C19.965,26.21,19.844,26.188,19.723,26.151z M21.586,25.136l-0.108-0.021c-0.021,0.218,0.355,0.461,0.418,0.772
	c0.071,0.325-0.109,0.697-0.229,1.006c0.495,0.193,0.688-0.302,0.794-0.715c0.488,0.063,0.861-0.199,1.008-0.71
	C22.715,25.737,22.199,25.588,21.586,25.136z M10.379,30.397c-0.182-0.351-0.2-0.766-0.044-1.129l-0.093-0.028
	c-0.213,0.218-0.247,0.485-0.438,0.711c-0.23,0.268-0.464,0.237-0.731,0.391c-0.423,0.243-0.296,0.37,0.004,0.39
	c0.305,0.002,0.767-0.144,0.972-0.366c0.064,0.177,0.216,0.417,0.414,0.585c0.201,0.148,0.453,0.216,0.677,0.081
	C10.902,30.778,10.553,30.756,10.379,30.397z M12.258,28.918c-0.069,0.103-0.151,0.201-0.248,0.269
	c0.074,0.099,0.137,0.191,0.188,0.306c0.077-0.104,0.157-0.196,0.249-0.274C12.369,29.13,12.308,29.028,12.258,28.918z
	 M14.234,29.651l-0.062-0.096c-0.174,0.123-0.095,0.566-0.289,0.814c-0.1,0.125-0.25,0.227-0.416,0.312
	c-0.166,0.088-0.349,0.16-0.509,0.199c0.187,0.538,0.702,0.266,1.098,0.104c0.147,0.205,0.34,0.344,0.555,0.379
	c0.215,0.029,0.457-0.023,0.703-0.15C14.563,30.879,14.325,30.421,14.234,29.651z M3.751,23.635l-0.05-0.083
	c-0.299,0.012-0.509,0.186-0.795,0.219C2.56,23.812,2.434,23.63,2.12,23.579c-0.96-0.178,0.055,0.716,0.67,0.652
	c-0.147,0.332-0.206,1.078,0.282,1.203c0.021-0.338-0.164-0.609-0.061-0.966C3.119,24.104,3.385,23.792,3.751,23.635z M5.383,24.765
	C5.26,24.78,5.141,24.78,5.021,24.76c-0.017,0.119-0.051,0.235-0.099,0.353c0.126-0.014,0.246-0.014,0.362,0.005
	C5.3,24.996,5.335,24.88,5.383,24.765z M6.148,26.75l0.035-0.104c-0.216-0.047-0.511,0.303-0.822,0.316
	c-0.312,0.01-0.676-0.199-0.967-0.357c-0.257,0.469,0.23,0.699,0.604,0.885c-0.123,0.478,0.114,0.867,0.6,1.093
	C5.42,27.783,5.621,27.306,6.148,26.75z M1.784,15.097L1.787,15c-0.266-0.146-0.533-0.107-0.801-0.226
	c-0.322-0.144-0.344-0.362-0.594-0.566c-0.354-0.314-0.453-0.165-0.359,0.11c0.091,0.273,0.346,0.652,0.617,0.787
	c-0.153,0.104-0.346,0.298-0.457,0.517c-0.113,0.217-0.112,0.458,0.064,0.634c0.185-0.269,0.154-0.592,0.447-0.837
	C0.996,15.168,1.392,15.041,1.784,15.097z M2.551,16.933c-0.11-0.057-0.211-0.121-0.297-0.203c-0.08,0.092-0.174,0.17-0.278,0.244
	c0.112,0.058,0.207,0.123,0.301,0.202C2.348,17.082,2.446,17.002,2.551,16.933z M2.174,18.953c-0.147-0.162-0.582-0.045-0.855-0.207
	c-0.271-0.165-0.442-0.536-0.593-0.824c-0.474,0.242-0.221,0.693,0,1.048c-0.379,0.316-0.416,0.752-0.158,1.201
	c0.327-0.727,0.766-1.002,1.517-1.152L2.174,18.953z M3.359,6.457c0.365-0.071,0.781,0.042,1.08,0.297l0.058-0.078
	C4.354,6.412,4.105,6.3,3.947,6.058c-0.189-0.295-0.084-0.492-0.176-0.8c-0.27-0.956-0.607,0.385-0.295,0.896
	C3.104,6.16,2.426,6.45,2.532,6.944C2.841,6.813,2.998,6.523,3.359,6.457z M4.146,8.719c-0.069-0.104-0.123-0.213-0.158-0.33
	c-0.112,0.039-0.23,0.06-0.355,0.069c0.066,0.107,0.121,0.216,0.157,0.33C3.903,8.747,4.021,8.727,4.146,8.719z M2.67,10.267
	l0.113-0.011C2.744,10.045,2.31,9.925,2.166,9.65C2.02,9.371,2.043,8.955,2.053,8.625C1.521,8.594,1.542,9.129,1.535,9.541
	c-0.509,0.076-0.752,0.438-0.738,0.962C1.43,10.035,1.938,10.016,2.67,10.267z M11.05,0.94c0.321,0.226,0.525,0.584,0.551,0.98
	l0.096-0.018c0.09-0.294,0-0.547,0.068-0.836c0.084-0.358,0.309-0.392,0.479-0.666c0.271-0.412,0.098-0.466-0.18-0.344
	c-0.279,0.106-0.623,0.465-0.705,0.756c-0.267-0.25-1.002-0.579-1.275-0.102c0.162,0.054,0.321,0.047,0.482,0.061
	C10.73,0.797,10.894,0.831,11.05,0.94z M10.145,2.763C10.035,2.71,9.933,2.64,9.832,2.559C9.811,2.685,9.781,2.806,9.734,2.917
	c0.108,0.042,0.209,0.103,0.303,0.18C10.057,2.978,10.091,2.867,10.145,2.763z M7.943,3.333l0.095,0.061
	c0.102-0.19-0.163-0.555-0.101-0.866c0.063-0.315,0.35-0.642,0.6-0.859C8.342,1.482,8.146,1.481,7.975,1.584
	c-0.169,0.108-0.32,0.301-0.459,0.465C7.294,1.928,7.071,1.897,6.858,1.948C6.643,1.996,6.464,2.158,6.3,2.373
	C7.099,2.353,7.533,2.688,7.943,3.333z M19.879,4.477c0.281-0.112,0.422-0.344,0.685-0.473c0.317-0.153,0.504-0.026,0.826-0.08
	c0.479-0.064,0.424-0.236,0.145-0.349c-0.277-0.115-0.739-0.171-1.016-0.049c0.051-0.385-0.181-1.099-0.695-1.044
	c0.104,0.324,0.387,0.509,0.414,0.879c0.016,0.393-0.138,0.781-0.429,1.049L19.879,4.477z M17.902,3.916
	c0.109-0.061,0.223-0.107,0.342-0.133c-0.029-0.113-0.039-0.232-0.039-0.356c-0.113,0.059-0.225,0.105-0.34,0.133
	C17.896,3.674,17.906,3.793,17.902,3.916z M16.455,2.373l0.01,0.11c0.216-0.041,0.343-0.465,0.625-0.599
	c0.287-0.132,0.716-0.084,1.056-0.051c0.057-0.53-0.506-0.548-0.931-0.579c-0.018-0.126-0.055-0.242-0.106-0.34
	c-0.058-0.092-0.131-0.17-0.219-0.233c-0.179-0.126-0.415-0.192-0.689-0.194C16.71,1.139,16.717,1.653,16.455,2.373z M24.154,12.088
	c0.293,0.072,0.542-0.034,0.83,0.011c0.347,0.058,0.422,0.264,0.714,0.398c0.892,0.427,0.12-0.689-0.472-0.806
	c0.119-0.14,0.271-0.381,0.304-0.618c0.037-0.237-0.011-0.475-0.23-0.599c-0.113,0.311,0.004,0.617-0.202,0.927
	c-0.221,0.319-0.569,0.544-0.965,0.591L24.154,12.088z M22.914,10.427c0.123,0.022,0.245,0.056,0.346,0.113
	c0.058-0.111,0.119-0.209,0.197-0.306c-0.126-0.025-0.244-0.059-0.354-0.111C23.057,10.232,22.992,10.332,22.914,10.427z
	 M22.725,8.385c0.184,0.117,0.568-0.117,0.873-0.034c0.309,0.083,0.604,0.384,0.809,0.629c0.198-0.182,0.209-0.368,0.123-0.539
	c-0.092-0.169-0.271-0.327-0.422-0.472c0.271-0.409,0.225-0.863-0.19-1.208c-0.019,0.195-0.054,0.366-0.106,0.518
	c-0.062,0.155-0.138,0.29-0.23,0.411c-0.189,0.243-0.447,0.429-0.787,0.606L22.725,8.385z"/>
</svg>
