<?xml version="1.0" encoding="utf-8"?>
<!-- Generator: Adobe Illustrator 16.0.4, SVG Export Plug-In . SVG Version: 6.00 Build 0)  -->
<!DOCTYPE svg PUBLIC "-//W3C//DTD SVG 1.1//EN" "http://www.w3.org/Graphics/SVG/1.1/DTD/svg11.dtd">
<svg version="1.1" id="Layer_1" xmlns="http://www.w3.org/2000/svg" xmlns:xlink="http://www.w3.org/1999/xlink" x="0px" y="0px"
	 width="20.699px" height="31.117px" viewBox="0 0 20.699 31.117" enable-background="new 0 0 20.699 31.117" xml:space="preserve">
<path d="M10.349,0C4.642,0,0,6.979,0,15.558s4.642,15.559,10.349,15.559c5.706,0,10.35-6.979,10.35-15.559S16.055,0,10.349,0z
	 M10.349,29.44c-4.782,0-8.673-6.228-8.673-13.882S5.567,1.676,10.349,1.676c4.781,0,8.672,6.228,8.672,13.882
	S15.13,29.44,10.349,29.44z M14.205,5.492l0.76,0.353L5.781,25.625l-0.76-0.353L14.205,5.492z M7.326,15.296l-0.76-0.353
	l4.232-9.112l0.761,0.353L7.326,15.296z M12.231,15.381l0.761,0.353l-4.229,9.114l-0.761-0.353L12.231,15.381z"/>
</svg>
