<?xml version="1.0" encoding="utf-8"?>
<!-- Generator: Adobe Illustrator 16.0.4, SVG Export Plug-In . SVG Version: 6.00 Build 0)  -->
<!DOCTYPE svg PUBLIC "-//W3C//DTD SVG 1.1//EN" "http://www.w3.org/Graphics/SVG/1.1/DTD/svg11.dtd">
<svg version="1.1" id="Layer_1" xmlns="http://www.w3.org/2000/svg" xmlns:xlink="http://www.w3.org/1999/xlink" x="0px" y="0px"
	 width="22.924px" height="31.451px" viewBox="0 0 22.924 31.451" enable-background="new 0 0 22.924 31.451" xml:space="preserve">
<path d="M14.583,7.586l0.615,0.286L7.765,23.907l-0.616-0.285L14.583,7.586z M12.439,8.148l-0.617-0.286L8.4,15.251l0.617,0.286
	L12.439,8.148z M9.561,22.99l0.617,0.286l3.427-7.386l-0.617-0.286L9.561,22.99z M22.01,16.726c0.021,0.026,0.041,0.049,0.026,0.019
	L22.01,16.726z M22.919,16.903c0.04,0.574-0.646,0.986-1.074,1.107c-0.748,0.208-1.525-0.021-2.09-0.41
	c-0.008,0.08-0.018,0.16-0.027,0.241c0.049,0.03,0.096,0.06,0.141,0.091c-0.044,0.055-0.104,0.094-0.166,0.129
	c-0.021,0.172-0.045,0.342-0.071,0.51c0.374-0.196,0.824-0.284,1.234,0.021c0.358,0.274,0.534,0.699,0.202,1.048
	c-0.459,0.483-0.871-0.113-0.527-0.181c-0.146,0.224,0.087,0.324,0.232,0.124c0.15-0.203-0.024-0.48-0.172-0.615
	c-0.273-0.253-0.66-0.279-1.002-0.189c-0.021,0.131-0.045,0.26-0.068,0.389c0.135-0.131,0.289-0.107,0.471-0.1
	c0.118,0.004,0.204-0.012,0.292-0.057c-0.052,0.081-0.08,0.16-0.091,0.271c-0.018,0.178-0.004,0.336-0.188,0.441
	c0.127,0.106-0.207,0.231-0.293,0.24c0.109,0.133-0.142,0.178-0.406,0.189c-0.019,0.076-0.039,0.15-0.059,0.224
	c0.042-0.013,0.083-0.024,0.125-0.037c0.383-0.108,0.729-0.166,0.676,0.089c0.139-0.039,0.743-0.072,0.633,0.187
	c0.369,0.034,0.473,0.288,0.636,0.569c0.103,0.176,0.206,0.285,0.353,0.375c-0.173-0.002-0.32,0.034-0.5,0.127
	c-0.287,0.149-0.512,0.308-0.842,0.139c-0.006,0.053-0.033,0.082-0.066,0.095c-0.09,0.035-0.248-0.042-0.377-0.127
	c-0.086-0.056-0.158-0.116-0.189-0.151c-0.012,0.032-0.027,0.057-0.045,0.072l-0.323-0.109c-0.104-0.094-0.221-0.221-0.333-0.351
	c-0.021,0.062-0.042,0.123-0.062,0.185c0.027,0.021,0.056,0.041,0.082,0.062c0.179,0.134,0.302,0.274,0.16,0.319
	c0.067,0.053,0.281,0.338,0.115,0.357c0.098,0.188,0.003,0.313-0.08,0.471c-0.05,0.1-0.072,0.18-0.07,0.275
	c-0.051-0.085-0.113-0.146-0.215-0.206c-0.158-0.093-0.302-0.155-0.344-0.342c-0.04,0.097-0.081,0.192-0.123,0.288
	c0.239,0.263,0.578,0.452,0.949,0.389c0.197-0.031,0.492-0.173,0.477-0.423c-0.014-0.247-0.266-0.288-0.263-0.022
	c-0.252-0.239,0.416-0.521,0.542,0.133c0.092,0.472-0.288,0.738-0.738,0.771c-0.41,0.028-0.695-0.175-0.9-0.438
	c-0.057-0.071-0.104-0.146-0.148-0.223c-0.035,0.08-0.072,0.155-0.109,0.233c0.25,0.34,0.608,0.617,1.053,0.748
	c0.384,0.112,0.977,0.095,1.334-0.131c0.311-0.185,0.436-0.858-0.02-0.634c-0.002,0.01,0.004,0.031,0.01,0.05
	c-0.221-0.31,0.234-0.444,0.478-0.337c0.259,0.115,0.405,0.506,0.322,0.812c-0.163,0.567-0.946,0.731-1.397,0.695
	c-0.771-0.06-1.423-0.556-1.822-1.113c-0.035,0.072-0.07,0.144-0.106,0.214c0.037,0.047,0.073,0.094,0.106,0.141
	c-0.062,0.037-0.135,0.053-0.211,0.062c-0.08,0.148-0.162,0.296-0.246,0.441c0.091-0.01,0.184-0.016,0.274-0.014
	c0.333,0.012,0.667,0.125,0.884,0.471c0.243,0.386,0.244,0.85-0.193,1.052c-0.609,0.274-0.764-0.435-0.422-0.365
	c-0.221,0.149-0.041,0.331,0.17,0.202c0.218-0.131,0.15-0.457,0.066-0.633c-0.164-0.337-0.523-0.502-0.877-0.543
	c-0.068,0.113-0.14,0.223-0.211,0.333c0.184-0.083,0.319,0.001,0.492,0.079c0.107,0.049,0.193,0.066,0.292,0.058
	c-0.08,0.052-0.129,0.118-0.181,0.216c-0.082,0.156-0.129,0.307-0.338,0.331c0.08,0.148-0.275,0.132-0.357,0.104
	c0.052,0.172-0.213,0.102-0.466,0c-0.048,0.06-0.095,0.121-0.142,0.181c0.051,0.007,0.103,0.015,0.153,0.021
	c0.39,0.061,0.735,0.146,0.583,0.353c0.143,0.022,0.715,0.233,0.506,0.423c0.324,0.18,0.317,0.455,0.35,0.784
	c0.021,0.205,0.062,0.347,0.158,0.489c-0.154-0.071-0.306-0.098-0.509-0.084c-0.323,0.021-0.606,0.059-0.825-0.235
	c-0.031,0.043-0.065,0.06-0.103,0.058c-0.095-0.008-0.202-0.146-0.282-0.279c-0.053-0.088-0.093-0.174-0.107-0.219
	c-0.023,0.022-0.047,0.037-0.069,0.043c-0.093,0.028-0.172-0.078-0.243-0.239c-0.057-0.14-0.113-0.315-0.165-0.49
	c-0.045,0.048-0.091,0.095-0.137,0.14c0.022,0.039,0.046,0.078,0.067,0.118c0.104,0.196,0.157,0.38,0.01,0.351
	c0.039,0.078,0.103,0.423-0.053,0.363c0.01,0.215-0.136,0.274-0.279,0.37c-0.09,0.062-0.143,0.122-0.187,0.203
	c-0.004-0.097-0.03-0.179-0.09-0.28c-0.099-0.164-0.201-0.291-0.146-0.479c-0.014-0.002-0.022-0.008-0.032-0.014
	c-0.069,0.056-0.14,0.108-0.209,0.162c0.079,0.357,0.276,0.717,0.647,0.854c0.188,0.071,0.51,0.084,0.617-0.142
	c0.098-0.228-0.104-0.375-0.223-0.144c-0.051-0.165,0.094-0.228,0.234-0.178c0.139,0.051,0.283,0.224,0.184,0.549
	c-0.146,0.462-0.618,0.519-1.021,0.317c-0.367-0.186-0.506-0.51-0.557-0.832c-0.018-0.111-0.023-0.219-0.023-0.324
	c-0.07,0.049-0.139,0.096-0.207,0.141c0.047,0.43,0.209,0.877,0.533,1.236c0.266,0.294,0.793,0.583,1.23,0.55
	c0.376-0.019,0.826-0.573,0.305-0.58c-0.005,0.009-0.012,0.03-0.016,0.05c-0.039-0.375,0.422-0.298,0.593-0.091
	c0.177,0.218,0.123,0.652-0.119,0.892c-0.214,0.227-0.542,0.276-0.836,0.246c-0.306-0.041-0.588-0.17-0.774-0.299
	c-0.416-0.287-0.675-0.73-0.824-1.174c-0.09-0.266-0.142-0.529-0.166-0.781c-0.063,0.041-0.127,0.076-0.189,0.114
	c0.012,0.08,0.023,0.159,0.03,0.235c-0.091-0.008-0.179-0.049-0.263-0.1c-0.138,0.075-0.276,0.145-0.418,0.209
	c0.1,0.055,0.198,0.113,0.293,0.186c0.261,0.204,0.485,0.479,0.473,0.884c-0.008,0.226-0.076,0.437-0.207,0.582
	c-0.135,0.136-0.325,0.218-0.562,0.165c-0.336-0.076-0.408-0.283-0.386-0.432c0.026-0.15,0.149-0.242,0.269-0.112
	c-0.26-0.021-0.23,0.233,0.016,0.261c0.253,0.025,0.391-0.281,0.421-0.468c0.056-0.401-0.185-0.756-0.466-1
	c-0.096,0.04-0.189,0.079-0.284,0.114c0.013,0.02,0.019,0.042,0.009,0.07c0.182,0.041,0.244,0.192,0.338,0.357
	c0.059,0.102,0.117,0.167,0.2,0.221c-0.094-0.007-0.171,0.012-0.264,0.062c-0.147,0.082-0.276,0.158-0.449,0.051
	c-0.024,0.17-0.284-0.072-0.327-0.146c-0.052,0.144-0.184-0.015-0.294-0.222c-0.026-0.047-0.05-0.098-0.073-0.147
	c-0.074,0.016-0.146,0.031-0.221,0.043c0.047,0.06,0.096,0.121,0.145,0.181c0.238,0.306,0.449,0.595,0.207,0.649
	c0.088,0.111,0.392,0.645,0.106,0.65c0.13,0.346-0.06,0.553-0.267,0.823c-0.131,0.16-0.2,0.298-0.232,0.467
	c-0.068-0.157-0.165-0.276-0.326-0.405c-0.262-0.222-0.491-0.381-0.438-0.748c-0.052,0.011-0.088-0.002-0.112-0.028
	c-0.062-0.075-0.038-0.249,0-0.397c0.026-0.1,0.057-0.189,0.079-0.232c-0.033,0.002-0.059-0.004-0.079-0.016
	c-0.082-0.05-0.062-0.179,0-0.341c0.061-0.161,0.157-0.354,0.246-0.534c-0.065,0.004-0.131,0.008-0.196,0.008
	c-0.014,0.065-0.03,0.133-0.049,0.196c-0.062,0.21-0.151,0.37-0.229,0.248c-0.026,0.078-0.226,0.376-0.286,0.214
	c-0.145,0.144-0.286,0.092-0.447,0.047c-0.102-0.031-0.18-0.033-0.269-0.008c0.069-0.068,0.113-0.145,0.149-0.257
	c0.056-0.181,0.086-0.343,0.251-0.421c-0.017-0.029-0.015-0.057-0.002-0.081c-0.075-0.011-0.149-0.026-0.223-0.041
	c-0.225,0.304-0.39,0.714-0.246,1.089c0.07,0.176,0.271,0.451,0.513,0.364c0.233-0.079,0.205-0.334-0.044-0.259
	c0.087-0.153,0.227-0.088,0.285,0.053c0.056,0.141,0.034,0.357-0.277,0.504c-0.447,0.206-0.813-0.115-0.916-0.559
	c-0.098-0.395,0.065-0.711,0.273-0.965c0.081-0.094,0.169-0.179,0.257-0.258c-0.08-0.018-0.16-0.039-0.24-0.06
	c-0.301,0.317-0.553,0.741-0.622,1.233c-0.058,0.4,0.066,0.974,0.387,1.299c0.133,0.125,0.391,0.197,0.567,0.174
	c0.178-0.029,0.264-0.137,0.089-0.329c-0.01,0.002-0.03,0.012-0.049,0.022c0.259-0.291,0.522,0.111,0.49,0.379
	c-0.036,0.271-0.415,0.527-0.776,0.506c-0.331-0.021-0.599-0.223-0.771-0.481c-0.178-0.25-0.261-0.559-0.282-0.786
	c-0.048-0.508,0.13-0.98,0.376-1.386c0.152-0.246,0.329-0.464,0.509-0.651c-0.07-0.021-0.141-0.039-0.211-0.062
	c-0.057,0.063-0.114,0.129-0.173,0.19c-0.056-0.074-0.078-0.176-0.092-0.283c-0.14-0.051-0.279-0.107-0.416-0.17
	c0.02,0.111,0.036,0.226,0.04,0.345c0.009,0.325-0.062,0.673-0.385,0.925c-0.356,0.28-0.836,0.307-1.064-0.123
	c-0.158-0.301-0.042-0.498,0.085-0.572c0.129-0.072,0.283-0.039,0.261,0.133c-0.157-0.205-0.332-0.022-0.194,0.182
	c0.144,0.205,0.461,0.131,0.631,0.025c0.258-0.15,0.389-0.418,0.447-0.696c0.019-0.097,0.028-0.192,0.031-0.286
	c-0.093-0.045-0.186-0.091-0.277-0.141c-0.009,0.013-0.021,0.025-0.042,0.033c0.084,0.172,0.005,0.316-0.063,0.493
	c-0.043,0.111-0.055,0.198-0.042,0.294c-0.058-0.07-0.118-0.125-0.217-0.168c-0.157-0.066-0.307-0.104-0.331-0.316
	c-0.143,0.084-0.133-0.262-0.107-0.344c-0.172,0.055-0.09-0.229,0.016-0.488c-0.061-0.045-0.121-0.094-0.182-0.141
	c-0.009,0.062-0.018,0.123-0.027,0.186c-0.06,0.38-0.143,0.728-0.349,0.582c-0.023,0.14-0.224,0.713-0.42,0.51
	c-0.176,0.326-0.458,0.325-0.785,0.348c-0.205,0.016-0.352,0.062-0.497,0.155c0.072-0.155,0.099-0.308,0.089-0.513
	c-0.018-0.328-0.059-0.604,0.24-0.823c-0.043-0.031-0.058-0.065-0.055-0.103c0.009-0.097,0.149-0.203,0.282-0.28
	c0.089-0.052,0.175-0.091,0.22-0.103c-0.023-0.024-0.037-0.049-0.043-0.072l0.001-0.002c-0.024-0.093,0.081-0.17,0.242-0.238
	l-0.003,0.003l0.002-0.002c0.141-0.054,0.321-0.11,0.498-0.161c-0.048-0.045-0.095-0.091-0.142-0.137
	c-0.04,0.022-0.08,0.046-0.121,0.066c-0.197,0.1-0.377,0.149-0.351,0.006c-0.08,0.039-0.425,0.098-0.363-0.059
	c-0.21,0.001-0.283-0.134-0.374-0.284c-0.06-0.093-0.12-0.147-0.206-0.19c0.099-0.004,0.182-0.031,0.284-0.092
	c0.163-0.098,0.291-0.201,0.478-0.139c0.001-0.005,0.004-0.008,0.005-0.012c-0.064-0.077-0.127-0.154-0.19-0.233
	c-0.352,0.083-0.695,0.289-0.819,0.647c-0.061,0.182-0.088,0.516,0.144,0.619c0.226,0.1,0.38-0.104,0.142-0.221
	c0.33-0.115,0.272,0.605-0.371,0.416c-0.458-0.148-0.519-0.609-0.321-1.021c0.173-0.368,0.494-0.518,0.823-0.572
	c0.095-0.014,0.19-0.02,0.285-0.021c-0.053-0.068-0.106-0.138-0.157-0.209c-0.421,0.056-0.848,0.233-1.181,0.558
	c-0.289,0.28-0.553,0.799-0.533,1.233c0.012,0.177,0.152,0.383,0.289,0.478c0.14,0.093,0.278,0.069,0.284-0.185
	c-0.008-0.004-0.029-0.012-0.049-0.016c0.379-0.045,0.294,0.419,0.085,0.588c-0.215,0.172-0.653,0.121-0.883-0.113
	c-0.214-0.213-0.271-0.518-0.23-0.812c0.035-0.294,0.158-0.574,0.285-0.766c0.44-0.654,1.197-0.965,1.879-1.043
	c-0.046-0.063-0.092-0.129-0.137-0.195c-0.062,0.009-0.123,0.02-0.183,0.025c0-0.074,0.024-0.147,0.054-0.219
	c-0.09-0.139-0.178-0.279-0.263-0.423c-0.036,0.083-0.077,0.165-0.125,0.243c-0.177,0.284-0.441,0.52-0.848,0.534
	c-0.458,0.021-0.853-0.211-0.818-0.688c0.07-0.668,0.754-0.449,0.526-0.186c-0.02-0.266-0.264-0.201-0.259,0.048
	c0.012,0.25,0.324,0.356,0.518,0.371c0.376,0.024,0.696-0.204,0.908-0.494c-0.064-0.11-0.127-0.226-0.189-0.34
	c-0.017,0.192-0.159,0.271-0.309,0.38c-0.095,0.07-0.153,0.137-0.195,0.227c-0.006-0.098-0.034-0.176-0.097-0.267
	c-0.104-0.146-0.203-0.265-0.122-0.461c-0.166-0.004,0.014-0.304,0.079-0.364c-0.167-0.039,0.008-0.229,0.212-0.4
	c-0.031-0.068-0.061-0.141-0.091-0.211c-0.026,0.037-0.053,0.074-0.079,0.109c-0.233,0.315-0.478,0.576-0.587,0.342
	c-0.087,0.114-0.546,0.512-0.615,0.239c-0.311,0.198-0.558,0.063-0.853-0.063c-0.186-0.076-0.335-0.102-0.505-0.084
	c0.137-0.103,0.226-0.219,0.314-0.403c0.14-0.294,0.224-0.558,0.588-0.622c-0.026-0.047-0.025-0.085-0.006-0.116
	c0.049-0.082,0.221-0.116,0.38-0.132c0.103-0.008,0.199-0.005,0.245,0.004c-0.01-0.033-0.013-0.061-0.009-0.084
	c0.015-0.096,0.145-0.121,0.323-0.109c0.141,0.012,0.311,0.041,0.479,0.076c-0.022-0.061-0.042-0.123-0.063-0.185
	c-0.035,0.002-0.07,0.003-0.104,0.003c-0.226,0.003-0.407-0.035-0.321-0.157c-0.087-0.002-0.427-0.099-0.308-0.215
	c-0.199-0.088-0.195-0.247-0.225-0.424c-0.018-0.111-0.052-0.187-0.115-0.263c0.094,0.037,0.181,0.047,0.299,0.033
	c0.18-0.022,0.332-0.059,0.475,0.06c-0.028-0.101-0.054-0.201-0.08-0.304c-0.349-0.062-0.732-0.004-0.985,0.273
	c-0.13,0.146-0.281,0.436-0.119,0.627c0.165,0.186,0.386,0.066,0.223-0.143c0.342,0.039-0.003,0.664-0.512,0.226
	c-0.353-0.321-0.226-0.758,0.117-1.063c0.385-0.338,0.837-0.287,1.225-0.123c-0.021-0.084-0.039-0.17-0.058-0.254
	c-0.406-0.113-0.861-0.108-1.285,0.062c-0.374,0.149-0.818,0.524-0.973,0.92c-0.123,0.331,0.172,0.94,0.403,0.486
	c-0.005-0.009-0.022-0.022-0.038-0.034c0.358,0.111,0.088,0.492-0.173,0.557c-0.272,0.064-0.637-0.152-0.749-0.445
	c-0.217-0.541,0.302-1.145,0.678-1.393c0.648-0.431,1.457-0.447,2.115-0.252c-0.017-0.079-0.035-0.158-0.052-0.238
	c-0.054-0.015-0.108-0.027-0.16-0.043c0.026-0.065,0.07-0.121,0.119-0.175c-0.031-0.167-0.062-0.335-0.089-0.505
	c-0.296,0.303-0.697,0.523-1.179,0.359c-0.429-0.151-0.723-0.502-0.516-0.936c0.287-0.6,0.863-0.16,0.559,0.01
	c0.07-0.256-0.185-0.28-0.261-0.045c-0.076,0.238,0.169,0.448,0.352,0.531c0.342,0.158,0.716,0.064,1.013-0.127
	c-0.019-0.129-0.037-0.259-0.054-0.39c-0.088,0.165-0.243,0.19-0.417,0.237c-0.114,0.032-0.192,0.076-0.263,0.145
	c0.027-0.094,0.031-0.178,0.006-0.287c-0.04-0.175-0.103-0.32,0.043-0.479C2.443,17.67,2.721,17.446,2.8,17.412
	c-0.145-0.095,0.08-0.214,0.327-0.308c-0.005-0.076-0.01-0.154-0.014-0.231c-0.035,0.024-0.07,0.049-0.106,0.073
	c-0.332,0.223-0.643,0.386-0.669,0.127c-0.123,0.08-0.687,0.299-0.66,0.02c-0.362,0.081-0.54-0.128-0.782-0.342
	c-0.152-0.134-0.285-0.205-0.452-0.244c0.163-0.05,0.291-0.131,0.433-0.275c0.226-0.229,0.389-0.45,0.755-0.396
	c-0.01-0.051,0.003-0.088,0.031-0.111c0.074-0.062,0.248-0.04,0.397,0c0.1,0.026,0.189,0.06,0.231,0.083
	c0-0.035,0.007-0.062,0.018-0.083c0.048-0.087,0.178-0.068,0.341,0c0.131,0.056,0.282,0.14,0.43,0.229
	c0-0.066-0.003-0.132-0.003-0.199c-0.033-0.009-0.066-0.02-0.097-0.03c-0.211-0.071-0.373-0.165-0.252-0.254
	c-0.082-0.029-0.374-0.23-0.225-0.304c-0.161-0.147-0.107-0.298-0.08-0.475c0.017-0.112,0.009-0.195-0.027-0.286
	c0.077,0.062,0.157,0.1,0.273,0.123c0.18,0.035,0.337,0.047,0.436,0.209c0.005-0.106,0.01-0.213,0.017-0.318
	c-0.314-0.169-0.697-0.231-1.022-0.046c-0.17,0.098-0.404,0.327-0.31,0.559c0.097,0.228,0.344,0.184,0.256-0.066
	c0.312,0.145-0.211,0.63-0.556,0.053c-0.233-0.414,0.021-0.788,0.442-0.973c0.474-0.204,0.889-0.013,1.207,0.267
	c0.007-0.088,0.014-0.176,0.022-0.264c-0.351-0.236-0.789-0.372-1.245-0.34c-0.397,0.027-0.939,0.246-1.209,0.573
	c-0.218,0.274-0.131,0.941,0.232,0.585c-0.003-0.01-0.014-0.028-0.026-0.044c0.305,0.219-0.071,0.492-0.339,0.47
	c-0.279-0.024-0.556-0.34-0.572-0.65c-0.04-0.575,0.646-0.987,1.075-1.108c0.749-0.21,1.527,0.022,2.092,0.413
	c0.008-0.081,0.019-0.161,0.028-0.242c-0.049-0.031-0.098-0.062-0.145-0.094c0.046-0.055,0.107-0.095,0.172-0.132
	c0.021-0.172,0.046-0.342,0.072-0.511c-0.375,0.2-0.828,0.292-1.241-0.016c-0.358-0.274-0.535-0.699-0.203-1.047
	c0.459-0.483,0.871,0.113,0.528,0.181c0.147-0.223-0.087-0.324-0.233-0.124c-0.15,0.204,0.025,0.479,0.172,0.615
	c0.277,0.256,0.665,0.281,1.009,0.188c0.022-0.133,0.047-0.263,0.072-0.394c-0.136,0.141-0.295,0.113-0.48,0.106
	c-0.118-0.005-0.204,0.012-0.292,0.056c0.052-0.081,0.08-0.16,0.091-0.271c0.016-0.178,0.004-0.337,0.188-0.442
	c-0.128-0.106,0.206-0.231,0.292-0.24c-0.111-0.136,0.15-0.18,0.418-0.191c0.019-0.077,0.039-0.152,0.059-0.227
	c-0.046,0.015-0.092,0.028-0.137,0.041c-0.383,0.108-0.73,0.166-0.676-0.088c-0.139,0.037-0.744,0.07-0.633-0.187
	c-0.368-0.035-0.472-0.289-0.635-0.57c-0.102-0.175-0.206-0.285-0.352-0.375c0.171,0.004,0.318-0.033,0.498-0.126
	C2.03,9.61,2.254,9.452,2.583,9.621C2.59,9.569,2.616,9.54,2.65,9.526c0.09-0.034,0.248,0.043,0.377,0.127
	C3.113,9.71,3.186,9.77,3.217,9.805C3.229,9.772,3.245,9.75,3.262,9.733l0.324,0.109c0.108,0.096,0.228,0.228,0.344,0.363
	c0.021-0.063,0.043-0.125,0.064-0.188C3.961,9.994,3.929,9.971,3.898,9.948C3.721,9.814,3.597,9.673,3.74,9.629
	C3.672,9.576,3.457,9.291,3.623,9.271C3.525,9.083,3.62,8.958,3.703,8.799C3.753,8.7,3.775,8.62,3.774,8.524
	C3.824,8.609,3.887,8.67,3.988,8.73c0.163,0.097,0.314,0.158,0.35,0.36c0.002-0.001,0.003,0,0.005-0.001
	c0.041-0.098,0.082-0.194,0.124-0.29c-0.24-0.27-0.584-0.468-0.961-0.404C3.309,8.428,3.015,8.567,3.029,8.818
	C3.044,9.064,3.296,9.106,3.293,8.84C3.544,9.08,2.876,9.362,2.75,8.708C2.66,8.235,3.039,7.97,3.489,7.937
	C3.898,7.909,4.184,8.112,4.39,8.376c0.06,0.077,0.111,0.16,0.158,0.243C4.584,8.539,4.623,8.46,4.66,8.382
	C4.409,8.034,4.046,7.75,3.594,7.617C3.21,7.504,2.618,7.522,2.26,7.748C1.949,7.934,1.825,8.606,2.28,8.382
	c0.001-0.01-0.004-0.03-0.01-0.05c0.22,0.31-0.235,0.444-0.478,0.337C1.534,8.555,1.387,8.164,1.47,7.857
	c0.163-0.566,0.947-0.732,1.397-0.695c0.781,0.06,1.437,0.567,1.835,1.131C4.738,8.221,4.774,8.15,4.81,8.079
	C4.769,8.026,4.727,7.974,4.689,7.921c0.07-0.041,0.152-0.056,0.238-0.065c0.08-0.151,0.163-0.298,0.248-0.443
	c-0.1,0.012-0.201,0.02-0.302,0.017C4.541,7.418,4.206,7.306,3.989,6.958c-0.242-0.385-0.243-0.849,0.194-1.05
	c0.609-0.274,0.763,0.434,0.422,0.365c0.22-0.149,0.04-0.331-0.17-0.202C4.218,6.202,4.284,6.528,4.37,6.705
	C4.537,7.05,4.908,7.213,5.271,7.249C5.336,7.143,5.402,7.04,5.47,6.937C5.465,6.93,5.459,6.924,5.457,6.914
	c-0.184,0.083-0.319-0.001-0.493-0.08C4.856,6.786,4.771,6.77,4.672,6.778c0.08-0.053,0.13-0.119,0.181-0.216
	C4.935,6.405,4.982,6.256,5.191,6.23C5.111,6.083,5.467,6.1,5.548,6.126C5.495,5.95,5.779,6.031,6.04,6.137
	C6.089,6.074,6.139,6.011,6.189,5.95C6.127,5.942,6.065,5.934,6.002,5.926C5.613,5.865,5.267,5.779,5.419,5.574
	C5.277,5.549,4.704,5.34,4.913,5.15c-0.324-0.179-0.317-0.455-0.35-0.784c-0.02-0.205-0.062-0.346-0.157-0.49
	c0.156,0.073,0.306,0.098,0.509,0.085C5.239,3.94,5.521,3.902,5.741,4.196c0.03-0.044,0.065-0.06,0.101-0.057
	c0.095,0.007,0.203,0.146,0.283,0.279c0.053,0.089,0.093,0.175,0.107,0.22C6.256,4.614,6.279,4.6,6.301,4.593l0.243,0.24
	C6.604,4.98,6.665,5.17,6.719,5.355C6.766,5.306,6.814,5.258,6.862,5.21C6.833,5.163,6.804,5.113,6.779,5.065
	c-0.104-0.197-0.158-0.38-0.011-0.351C6.73,4.637,6.666,4.292,6.821,4.351C6.811,4.136,6.957,4.077,7.1,3.98
	c0.089-0.06,0.142-0.122,0.187-0.202c0.004,0.097,0.03,0.18,0.09,0.281C7.475,4.222,7.578,4.35,7.522,4.537
	c0.029,0.004,0.045,0.02,0.056,0.04c0.064-0.051,0.128-0.101,0.194-0.149C7.699,4.057,7.5,3.678,7.117,3.535
	c-0.188-0.072-0.51-0.084-0.618,0.141C6.4,3.904,6.601,4.05,6.722,3.819c0.051,0.165-0.094,0.227-0.234,0.178
	c-0.14-0.051-0.285-0.224-0.185-0.549C6.45,2.987,6.921,2.929,7.325,3.13C7.692,3.316,7.83,3.641,7.881,3.963
	c0.021,0.126,0.025,0.249,0.024,0.368c0.07-0.05,0.141-0.098,0.212-0.144c-0.04-0.442-0.205-0.906-0.539-1.276
	C7.312,2.616,6.785,2.327,6.348,2.36C5.972,2.377,5.521,2.933,6.043,2.94c0.006-0.009,0.012-0.03,0.016-0.05
	c0.039,0.375-0.422,0.298-0.593,0.091C5.289,2.763,5.343,2.329,5.585,2.089C5.8,1.863,6.127,1.813,6.421,1.844
	c0.306,0.041,0.588,0.17,0.774,0.298C7.612,2.429,7.87,2.873,8.02,3.316c0.095,0.281,0.147,0.559,0.169,0.822
	C8.252,4.097,8.316,4.061,8.38,4.023C8.368,3.93,8.353,3.836,8.345,3.748C8.45,3.757,8.55,3.81,8.647,3.87
	c0.14-0.075,0.281-0.143,0.423-0.207c-0.113-0.06-0.228-0.127-0.336-0.21C8.473,3.249,8.248,2.974,8.261,2.569
	c0.008-0.225,0.076-0.437,0.207-0.581C8.603,1.853,8.793,1.77,9.032,1.823C9.368,1.899,9.44,2.106,9.417,2.255
	c-0.026,0.15-0.149,0.242-0.269,0.112c0.261,0.02,0.232-0.234-0.015-0.261c-0.252-0.025-0.39,0.281-0.421,0.468
	c-0.057,0.417,0.203,0.783,0.5,1.028C9.306,3.563,9.4,3.526,9.495,3.492C9.458,3.467,9.437,3.435,9.454,3.39
	C9.272,3.349,9.209,3.196,9.117,3.032c-0.059-0.103-0.118-0.167-0.201-0.22C9.01,2.817,9.086,2.8,9.18,2.749
	c0.148-0.082,0.276-0.16,0.449-0.052c0.025-0.17,0.284,0.074,0.328,0.147c0.052-0.143,0.184,0.015,0.294,0.221
	c0.033,0.061,0.064,0.126,0.092,0.188c0.077-0.015,0.154-0.032,0.232-0.044c-0.057-0.072-0.116-0.146-0.175-0.218
	c-0.238-0.305-0.448-0.595-0.211-0.647c-0.087-0.112-0.392-0.645-0.107-0.651c-0.13-0.346,0.06-0.553,0.268-0.823
	c0.13-0.16,0.2-0.298,0.232-0.467c0.067,0.159,0.164,0.277,0.326,0.407c0.261,0.221,0.491,0.38,0.437,0.747
	c0.052-0.011,0.089,0.001,0.113,0.029c0.062,0.075,0.038,0.248,0,0.397c-0.026,0.1-0.058,0.19-0.079,0.232
	c0.033-0.001,0.058,0.005,0.079,0.016c0.082,0.05,0.062,0.18,0,0.341c-0.067,0.176-0.173,0.388-0.268,0.579
	c0.069-0.004,0.139-0.008,0.209-0.008c0.016-0.079,0.035-0.163,0.058-0.241c0.062-0.21,0.151-0.37,0.229-0.248
	c0.026-0.078,0.226-0.376,0.286-0.214c0.146-0.143,0.286-0.092,0.447-0.047c0.102,0.03,0.18,0.032,0.27,0.007
	c-0.07,0.069-0.114,0.145-0.149,0.257c-0.056,0.18-0.085,0.342-0.251,0.42c0.029,0.046,0.009,0.087-0.029,0.121
	c0.077,0.012,0.152,0.026,0.227,0.04c0.24-0.307,0.424-0.736,0.274-1.127c-0.069-0.176-0.271-0.451-0.513-0.364
	c-0.232,0.079-0.205,0.333,0.044,0.259c-0.087,0.153-0.228,0.088-0.286-0.053c-0.056-0.141-0.033-0.359,0.277-0.505
	c0.447-0.205,0.812,0.117,0.916,0.559c0.098,0.394-0.065,0.71-0.274,0.964c-0.092,0.107-0.194,0.205-0.296,0.293
	c0.082,0.018,0.164,0.037,0.245,0.058c0.315-0.321,0.585-0.757,0.657-1.266c0.058-0.401-0.066-0.975-0.387-1.299
	c-0.134-0.126-0.392-0.197-0.567-0.174c-0.177,0.028-0.265,0.136-0.089,0.328c0.01-0.001,0.031-0.011,0.049-0.022
	c-0.258,0.291-0.521-0.112-0.489-0.378c0.036-0.271,0.414-0.528,0.774-0.507c0.33,0.021,0.6,0.222,0.771,0.482
	c0.178,0.251,0.262,0.559,0.282,0.786c0.048,0.508-0.13,0.982-0.376,1.387c-0.161,0.262-0.35,0.492-0.542,0.687
	c0.071,0.02,0.144,0.038,0.215,0.06c0.068-0.075,0.136-0.153,0.203-0.223c0.063,0.084,0.084,0.204,0.097,0.327
	c0.141,0.053,0.281,0.11,0.42,0.173c-0.024-0.126-0.043-0.257-0.048-0.392c-0.009-0.325,0.062-0.673,0.386-0.925
	c0.355-0.279,0.836-0.306,1.063,0.124c0.158,0.301,0.041,0.497-0.086,0.571c-0.129,0.072-0.282,0.039-0.261-0.133
	c0.158,0.207,0.332,0.024,0.195-0.18c-0.146-0.205-0.463-0.132-0.633-0.026c-0.258,0.15-0.388,0.419-0.445,0.697
	c-0.023,0.111-0.031,0.222-0.032,0.329c0.09,0.043,0.178,0.087,0.266,0.135c0.003-0.032,0.019-0.058,0.056-0.071
	c-0.084-0.172-0.006-0.317,0.062-0.494c0.043-0.111,0.055-0.197,0.042-0.293c0.058,0.07,0.118,0.125,0.217,0.167
	c0.157,0.066,0.308,0.104,0.331,0.316c0.143-0.084,0.133,0.263,0.107,0.344c0.179-0.058,0.082,0.254-0.031,0.522
	c0.064,0.047,0.127,0.098,0.189,0.146c0.012-0.075,0.022-0.15,0.033-0.225c0.061-0.379,0.143-0.728,0.35-0.582
	c0.022-0.139,0.224-0.712,0.42-0.509c0.176-0.326,0.458-0.325,0.785-0.348c0.205-0.017,0.352-0.063,0.496-0.156
	c-0.071,0.155-0.099,0.307-0.088,0.513c0.018,0.328,0.059,0.603-0.24,0.823c0.043,0.032,0.058,0.067,0.055,0.104
	c-0.01,0.095-0.15,0.201-0.283,0.279c-0.089,0.052-0.175,0.091-0.22,0.104c0.022,0.024,0.037,0.048,0.043,0.071l0.001-0.001
	c0.025,0.094-0.08,0.172-0.242,0.24l-0.001,0.001c-0.149,0.057-0.344,0.117-0.532,0.171c0.051,0.046,0.1,0.095,0.148,0.143
	c0.049-0.029,0.1-0.058,0.148-0.083c0.198-0.101,0.379-0.15,0.353-0.006c0.08-0.04,0.424-0.098,0.362,0.058
	c0.209-0.001,0.283,0.133,0.375,0.284c0.06,0.092,0.119,0.148,0.205,0.19c-0.099,0.005-0.183,0.031-0.285,0.092
	c-0.161,0.097-0.289,0.201-0.477,0.138c-0.002,0.018-0.009,0.03-0.017,0.041C16.717,5.931,16.776,6,16.833,6.071
	c0.361-0.079,0.723-0.285,0.848-0.653c0.062-0.182,0.088-0.517-0.144-0.619c-0.228-0.1-0.38,0.104-0.142,0.221
	c-0.33,0.115-0.272-0.605,0.371-0.415c0.457,0.148,0.519,0.608,0.32,1.021c-0.174,0.368-0.494,0.518-0.822,0.572
	c-0.106,0.016-0.214,0.02-0.318,0.02C17,6.289,17.056,6.358,17.108,6.43c0.43-0.05,0.869-0.229,1.209-0.56
	c0.289-0.28,0.554-0.799,0.533-1.233c-0.013-0.177-0.151-0.384-0.289-0.478c-0.141-0.093-0.277-0.069-0.283,0.184
	c0.008,0.006,0.029,0.012,0.049,0.016c0.01-0.002,0.02-0.003,0.029-0.004c0.033,0.013,0.002,0.011-0.03,0.004c0,0,0,0,0.001,0
	c-0.379,0.044-0.294-0.418-0.085-0.588c0.214-0.171,0.653-0.12,0.882,0.114c0.215,0.212,0.271,0.517,0.23,0.812
	c-0.035,0.294-0.158,0.576-0.285,0.766c-0.447,0.664-1.219,0.974-1.908,1.045c0.046,0.065,0.092,0.131,0.138,0.198
	c0.07-0.011,0.142-0.022,0.21-0.03c0,0.084-0.027,0.165-0.064,0.246c0.091,0.138,0.179,0.278,0.264,0.422
	c0.039-0.092,0.082-0.183,0.135-0.269c0.178-0.284,0.442-0.52,0.85-0.534c0.457-0.021,0.853,0.212,0.817,0.688
	c-0.069,0.669-0.754,0.451-0.524,0.185c0.021,0.266,0.265,0.201,0.26-0.048c-0.012-0.251-0.324-0.356-0.518-0.371
	c-0.385-0.026-0.711,0.215-0.922,0.514c0.063,0.109,0.125,0.218,0.185,0.329c0.005,0,0.01-0.001,0.016,0
	c0.013-0.2,0.158-0.277,0.312-0.389c0.095-0.07,0.152-0.137,0.195-0.226c0.006,0.097,0.033,0.174,0.096,0.266
	c0.104,0.144,0.203,0.265,0.123,0.46c0.166,0.004-0.015,0.303-0.08,0.364c0.17,0.04-0.017,0.238-0.226,0.412
	c0.031,0.071,0.062,0.145,0.093,0.217c0.029-0.043,0.061-0.084,0.09-0.126c0.234-0.314,0.479-0.576,0.588-0.342
	c0.088-0.114,0.546-0.511,0.615-0.239c0.312-0.197,0.559-0.062,0.854,0.064C20.851,8.377,21,8.402,21.168,8.385
	c-0.138,0.102-0.226,0.219-0.313,0.403c-0.141,0.295-0.226,0.558-0.59,0.623c0.026,0.046,0.025,0.084,0.006,0.116
	c-0.047,0.081-0.221,0.116-0.375,0.127c-0.104,0.008-0.199,0.005-0.246-0.004c0.012,0.033,0.015,0.061,0.011,0.084
	c-0.015,0.096-0.146,0.12-0.323,0.109C19.19,9.832,19.015,9.8,18.842,9.764c0.022,0.062,0.043,0.125,0.064,0.188
	c0.04-0.002,0.079-0.003,0.118-0.003c0.226-0.003,0.406,0.035,0.32,0.157c0.086,0.001,0.428,0.099,0.309,0.215
	c0.199,0.088,0.195,0.248,0.225,0.424c0.018,0.111,0.053,0.187,0.114,0.262c-0.093-0.036-0.181-0.046-0.298-0.031
	c-0.186,0.023-0.342,0.064-0.489-0.068c0.028,0.102,0.055,0.205,0.082,0.309c0.353,0.065,0.741,0.009,0.998-0.271
	c0.13-0.145,0.28-0.436,0.118-0.627c-0.164-0.185-0.385-0.066-0.223,0.144c-0.342-0.039,0.002-0.664,0.512-0.226
	c0.353,0.321,0.226,0.758-0.117,1.063c-0.389,0.341-0.846,0.285-1.235,0.118c0.021,0.085,0.038,0.171,0.058,0.257
	c0.41,0.116,0.869,0.113,1.297-0.059c0.373-0.149,0.818-0.524,0.972-0.92c0.124-0.331-0.171-0.941-0.403-0.487
	c0.006,0.009,0.022,0.022,0.039,0.034c-0.357-0.113-0.088-0.493,0.174-0.557c0.271-0.065,0.637,0.152,0.748,0.444
	c0.217,0.542-0.302,1.146-0.678,1.394c-0.65,0.433-1.465,0.447-2.125,0.248c0.018,0.081,0.037,0.16,0.055,0.241
	c0.057,0.015,0.112,0.029,0.168,0.045c-0.026,0.068-0.074,0.126-0.125,0.182c0.031,0.167,0.062,0.334,0.09,0.504
	c0.297-0.305,0.701-0.531,1.186-0.365c0.43,0.151,0.723,0.502,0.516,0.935c-0.285,0.601-0.863,0.161-0.558-0.009
	c-0.071,0.257,0.185,0.28,0.261,0.045c0.075-0.239-0.17-0.449-0.353-0.532c-0.345-0.159-0.722-0.064-1.021,0.131
	c0.021,0.13,0.039,0.26,0.057,0.392c0.087-0.171,0.244-0.195,0.421-0.244c0.114-0.033,0.192-0.075,0.263-0.144
	c-0.027,0.093-0.031,0.177-0.006,0.286c0.039,0.175,0.104,0.321-0.043,0.479c0.154,0.061-0.123,0.284-0.203,0.319
	c0.146,0.095-0.081,0.216-0.33,0.31c0.006,0.077,0.012,0.154,0.016,0.232c0.037-0.025,0.072-0.051,0.108-0.075
	c0.331-0.223,0.644-0.385,0.669-0.127c0.123-0.079,0.688-0.298,0.66-0.019c0.361-0.081,0.54,0.128,0.782,0.342
	c0.151,0.134,0.284,0.205,0.45,0.244c-0.162,0.05-0.291,0.131-0.433,0.275c-0.227,0.231-0.39,0.452-0.756,0.397
	c0.011,0.051-0.003,0.088-0.03,0.111c-0.074,0.062-0.248,0.039-0.397,0c-0.101-0.026-0.188-0.059-0.231-0.083
	c0,0.035-0.007,0.062-0.018,0.083c-0.049,0.086-0.178,0.068-0.342,0c-0.131-0.056-0.282-0.14-0.43-0.229
	c0,0.066,0.002,0.132,0.002,0.198c0.034,0.01,0.066,0.02,0.098,0.031c0.212,0.071,0.373,0.165,0.253,0.254
	c0.082,0.03,0.374,0.231,0.225,0.304c0.161,0.147,0.107,0.297,0.08,0.475c-0.019,0.112-0.009,0.195,0.026,0.286
	c-0.077-0.064-0.157-0.102-0.273-0.124c-0.178-0.036-0.334-0.048-0.433-0.207c-0.007,0.106-0.011,0.214-0.017,0.317
	c0.312,0.168,0.694,0.229,1.019,0.045c0.17-0.1,0.403-0.327,0.31-0.559c-0.098-0.229-0.345-0.186-0.257,0.065
	c-0.312-0.146,0.212-0.63,0.558-0.053c0.232,0.413-0.021,0.786-0.442,0.972c-0.474,0.203-0.888,0.014-1.204-0.264
	c-0.007,0.089-0.014,0.177-0.021,0.264c0.351,0.234,0.787,0.37,1.24,0.338c0.398-0.027,0.94-0.247,1.209-0.574
	c0.219-0.273,0.131-0.94-0.232-0.584c0.002,0.01,0.014,0.027,0.025,0.043c-0.305-0.218,0.071-0.492,0.34-0.47
	C22.628,16.28,22.906,16.597,22.919,16.903z M19.841,16.377c0.031,0.007,0.064,0.013,0.1,0.019c0.062,0.01,0.104,0.028,0.146,0.061
	c-0.02-0.047-0.025-0.091-0.02-0.15c0.013-0.093,0.037-0.172-0.049-0.249c0.08-0.039-0.078-0.144-0.121-0.16
	c0.047-0.034,0.015-0.068-0.049-0.099C19.849,15.992,19.845,16.186,19.841,16.377z M3.087,15.074
	c-0.032-0.007-0.065-0.012-0.101-0.018c-0.063-0.011-0.105-0.029-0.147-0.061c0.018,0.047,0.025,0.091,0.018,0.149
	c-0.012,0.095-0.036,0.174,0.049,0.25c-0.08,0.04,0.077,0.144,0.121,0.16c-0.047,0.034-0.014,0.069,0.049,0.1
	C3.077,15.459,3.08,15.267,3.087,15.074z M3.97,21.405c-0.06-0.18-0.117-0.362-0.172-0.547c-0.033,0.004-0.066,0.01-0.102,0.016
	c-0.063,0.01-0.111,0.006-0.16-0.012c0.032,0.039,0.053,0.078,0.064,0.136c0.018,0.091,0.02,0.173,0.124,0.219
	c-0.064,0.062,0.118,0.11,0.164,0.111C3.854,21.375,3.897,21.397,3.97,21.405z M4.224,9.386C4.193,9.365,4.158,9.347,4.12,9.326
	C4.064,9.296,4.029,9.265,4,9.221c0.004,0.051-0.006,0.093-0.033,0.145c-0.044,0.082-0.089,0.15-0.033,0.249
	c-0.088,0.01,0.027,0.159,0.064,0.188C3.939,9.821,3.967,9.87,4.026,9.924C4.089,9.742,4.155,9.563,4.224,9.386z M16.062,5.21
	c0.129,0.128,0.256,0.259,0.379,0.397c0.045-0.017,0.088-0.048,0.137-0.08c0.052-0.036,0.096-0.053,0.148-0.059
	c-0.045-0.019-0.078-0.046-0.11-0.092c-0.052-0.074-0.085-0.147-0.196-0.141c0.032-0.082-0.152-0.043-0.193-0.022
	C16.237,5.142,16.157,5.164,16.062,5.21z M11.481,3.138c0.153,0,0.306,0.008,0.458,0.021c0.076-0.05,0.085-0.134,0.106-0.229
	c0.015-0.062,0.033-0.104,0.065-0.144c-0.045,0.017-0.084,0.02-0.135,0.008c-0.082-0.022-0.151-0.045-0.222,0.039
	c-0.033-0.081-0.129,0.075-0.143,0.118C11.564,2.875,11.513,3.002,11.481,3.138z M6.924,4.981C6.853,4.968,6.876,5.052,6.925,5.15
	c0.129-0.126,0.261-0.246,0.394-0.36C7.305,4.734,7.268,4.686,7.23,4.63C7.194,4.577,7.177,4.535,7.171,4.484
	c-0.02,0.043-0.044,0.077-0.089,0.11C7.01,4.646,6.939,4.682,6.947,4.792C6.864,4.76,6.903,4.94,6.924,4.981z M6.833,26.255
	c-0.128-0.128-0.254-0.259-0.378-0.398c-0.035,0.019-0.069,0.043-0.107,0.068c-0.052,0.036-0.096,0.053-0.148,0.059
	c0.045,0.02,0.078,0.047,0.11,0.093c0.052,0.073,0.085,0.147,0.196,0.141c-0.032,0.082,0.151,0.043,0.193,0.022
	C6.687,26.302,6.751,26.291,6.833,26.255z M11.434,28.356c-0.165,0-0.328-0.01-0.491-0.024c-0.037,0.049-0.046,0.117-0.063,0.19
	c-0.014,0.061-0.033,0.104-0.065,0.144c0.043-0.019,0.082-0.021,0.133-0.008c0.081,0.021,0.152,0.045,0.222-0.039
	c0.033,0.08,0.129-0.075,0.143-0.119C11.354,28.567,11.399,28.474,11.434,28.356z M16,26.472c0.063,0.01,0.05-0.057,0.013-0.139
	c-0.13,0.127-0.263,0.248-0.397,0.363c0.019,0.043,0.049,0.082,0.079,0.125c0.035,0.054,0.053,0.096,0.059,0.146
	c0.02-0.043,0.044-0.076,0.089-0.109c0.072-0.053,0.142-0.088,0.136-0.198C16.06,26.692,16.021,26.513,16,26.472z M18.491,15.748
	c0-6.204-3.153-11.251-7.029-11.251S4.433,9.544,4.433,15.748s3.153,11.251,7.029,11.251S18.491,21.952,18.491,15.748z
	 M18.908,21.537c-0.063,0.182-0.128,0.36-0.196,0.536c0.028,0.017,0.059,0.033,0.092,0.051c0.055,0.031,0.09,0.062,0.119,0.105
	c-0.004-0.051,0.006-0.094,0.033-0.145c0.044-0.083,0.089-0.15,0.033-0.249c0.089-0.01-0.027-0.159-0.064-0.188
	C18.979,21.632,18.96,21.588,18.908,21.537z M19.114,10.593c0.035-0.002,0.074-0.009,0.115-0.015c0.063-0.01,0.11-0.007,0.16,0.011
	c-0.033-0.039-0.054-0.078-0.064-0.135c-0.02-0.092-0.021-0.174-0.125-0.219c0.064-0.062-0.118-0.111-0.164-0.111
	c0.035-0.051-0.016-0.073-0.098-0.08C19,10.225,19.06,10.407,19.114,10.593z M22.024,18.444c0.188-0.092,0.398-0.202,0.552-0.367
	c-0.595,0.182-1.091,0.252-1.706,0.176c0.238,0.087,0.42,0.172,0.55,0.29c0.187,0.169,0.25,0.406,0.201,0.808
	c0.212-0.031,0.285-0.302,0.298-0.52c0.322,0.134,0.639,0.357,0.948,0.506c-0.063-0.227-0.216-0.473-0.415-0.65
	C22.319,18.567,22.172,18.479,22.024,18.444z M19.661,21.718l-0.323-0.109C19.472,21.726,19.588,21.784,19.661,21.718z
	 M20.672,23.146l-0.019-0.025C20.664,23.151,20.677,23.179,20.672,23.146z M19.062,24.174c0.19,0.165,0.33,0.31,0.408,0.466
	c0.115,0.226,0.094,0.475-0.107,0.832c0.207,0.049,0.383-0.18,0.474-0.382c0.256,0.244,0.463,0.568,0.695,0.821
	c0.032-0.237-0.024-0.532-0.146-0.771c-0.079-0.16-0.185-0.296-0.312-0.38c0.213-0.021,0.449-0.052,0.646-0.159
	C20.103,24.571,19.61,24.463,19.062,24.174z M16.869,28.593c-0.001-0.011-0.002-0.021-0.004-0.031
	C16.858,28.595,16.856,28.626,16.869,28.593z M14.938,28.685c0.074,0.242,0.112,0.44,0.09,0.617
	c-0.035,0.244-0.193,0.457-0.584,0.633c0.146,0.166,0.434,0.07,0.631-0.056c0.07,0.343,0.049,0.741,0.085,1.087
	c0.178-0.193,0.319-0.476,0.36-0.744c0.026-0.184,0.014-0.357-0.047-0.496c0.192,0.09,0.424,0.192,0.658,0.195
	C15.604,29.583,15.245,29.222,14.938,28.685z M10.385,30.565c-0.031,0.018-0.056,0.037-0.021,0.023L10.385,30.565z M8.604,29.635
	c-0.217,0.138-0.475,0.134-0.862-0.048c-0.035,0.214,0.223,0.372,0.441,0.454c-0.221,0.271-0.541,0.501-0.785,0.747
	c0.259,0.021,0.566-0.047,0.806-0.189c0.159-0.094,0.285-0.213,0.354-0.348c0.05,0.215,0.125,0.443,0.277,0.632
	c-0.084-0.625-0.035-1.122,0.186-1.704C8.882,29.388,8.753,29.542,8.604,29.635z M4.597,27.092
	c-0.033-0.007-0.063-0.009-0.031,0.005C4.577,27.094,4.587,27.093,4.597,27.092z M4.445,25.179c-0.24,0.086-0.435,0.135-0.607,0.125
	c-0.245-0.018-0.464-0.152-0.667-0.509c-0.148,0.158-0.038,0.422,0.098,0.601c-0.335,0.099-0.73,0.123-1.062,0.197
	c0.193,0.143,0.479,0.24,0.744,0.258c0.176,0.012,0.347-0.014,0.484-0.084c-0.084,0.194-0.172,0.416-0.178,0.646
	C3.588,25.883,3.922,25.513,4.445,25.179z M1.623,21.211c-0.027-0.021-0.054-0.032-0.03-0.009
	C1.603,21.205,1.614,21.208,1.623,21.211z M0.665,20.095c0.509-0.355,0.958-0.576,1.568-0.691c-0.253-0.01-0.455-0.035-0.612-0.107
	c-0.224-0.105-0.365-0.309-0.438-0.707c-0.197,0.096-0.179,0.375-0.125,0.586C0.71,19.146,0.339,19.028,0,18.983
	c0.13,0.195,0.354,0.384,0.594,0.492c0.161,0.073,0.331,0.111,0.482,0.099C0.925,19.722,0.759,19.89,0.665,20.095z M0.913,14.726
	c-0.019-0.027-0.041-0.049-0.025-0.018L0.913,14.726z M0.899,13.006c-0.189,0.092-0.4,0.202-0.552,0.368
	c0.595-0.181,1.09-0.252,1.706-0.176c-0.238-0.086-0.421-0.172-0.55-0.29c-0.187-0.169-0.25-0.405-0.201-0.807
	c-0.212,0.03-0.285,0.302-0.298,0.52c-0.322-0.134-0.639-0.358-0.948-0.506c0.064,0.226,0.215,0.474,0.415,0.651
	C0.603,12.884,0.751,12.973,0.899,13.006z M3.263,9.733l0.323,0.109C3.453,9.726,3.335,9.667,3.263,9.733z M2.251,8.307L2.27,8.332
	C2.26,8.3,2.247,8.272,2.251,8.307z M3.863,7.277C3.671,7.112,3.532,6.968,3.454,6.812C3.34,6.586,3.36,6.337,3.563,5.979
	C3.354,5.931,3.18,6.159,3.089,6.361C2.833,6.118,2.626,5.793,2.394,5.54C2.363,5.778,2.418,6.072,2.54,6.313
	c0.08,0.16,0.186,0.295,0.312,0.379c-0.214,0.021-0.449,0.052-0.647,0.16C2.821,6.88,3.313,6.988,3.863,7.277z M6.302,4.593
	l0.243,0.24C6.474,4.67,6.394,4.565,6.302,4.593z M6.055,2.859C6.056,2.87,6.058,2.88,6.059,2.89
	C6.066,2.856,6.068,2.826,6.055,2.859z M7.985,2.767C7.911,2.525,7.873,2.327,7.894,2.15C7.93,1.907,8.088,1.693,8.479,1.519
	c-0.146-0.166-0.434-0.072-0.63,0.055C7.778,1.23,7.799,0.832,7.764,0.486C7.586,0.68,7.445,0.961,7.403,1.231
	C7.376,1.413,7.389,1.588,7.45,1.727c-0.192-0.09-0.423-0.193-0.658-0.196C7.319,1.869,7.679,2.23,7.985,2.767z M12.539,0.886
	c0.03-0.018,0.055-0.037,0.021-0.024L12.539,0.886z M14.319,1.816c0.218-0.138,0.476-0.132,0.863,0.049
	c0.035-0.215-0.224-0.372-0.441-0.454c0.221-0.271,0.541-0.501,0.785-0.747c-0.258-0.021-0.565,0.047-0.805,0.19
	c-0.16,0.092-0.285,0.211-0.354,0.347c-0.05-0.215-0.125-0.443-0.277-0.633c0.084,0.625,0.036,1.123-0.187,1.706
	C14.042,2.064,14.17,1.91,14.319,1.816z M18.479,6.274c0.238-0.086,0.435-0.137,0.606-0.125c0.245,0.018,0.464,0.153,0.667,0.508
	c0.148-0.158,0.038-0.422-0.098-0.6c0.335-0.099,0.729-0.123,1.062-0.198c-0.192-0.143-0.479-0.241-0.743-0.257
	c-0.177-0.012-0.348,0.013-0.484,0.082c0.084-0.194,0.172-0.416,0.178-0.646C19.335,5.568,19.001,5.938,18.479,6.274z M21.331,10.25
	c-0.012-0.003-0.021-0.006-0.03-0.008C21.328,10.26,21.354,10.274,21.331,10.25z M22.259,11.356
	c-0.509,0.356-0.958,0.575-1.566,0.692c0.252,0.01,0.453,0.035,0.611,0.108c0.225,0.104,0.365,0.308,0.438,0.707
	c0.196-0.095,0.178-0.375,0.125-0.586c0.348,0.029,0.719,0.145,1.059,0.19c-0.13-0.195-0.354-0.384-0.594-0.493
	c-0.164-0.072-0.333-0.11-0.483-0.097C21.999,11.73,22.165,11.561,22.259,11.356z"/>
</svg>
