<?xml version="1.0" encoding="utf-8"?>
<!-- Generator: Adobe Illustrator 16.0.4, SVG Export Plug-In . SVG Version: 6.00 Build 0)  -->
<!DOCTYPE svg PUBLIC "-//W3C//DTD SVG 1.1//EN" "http://www.w3.org/Graphics/SVG/1.1/DTD/svg11.dtd">
<svg version="1.1" id="Layer_1" xmlns="http://www.w3.org/2000/svg" xmlns:xlink="http://www.w3.org/1999/xlink" x="0px" y="0px"
	 width="30.727px" height="31.412px" viewBox="0 0 30.727 31.412" enable-background="new 0 0 30.727 31.412" xml:space="preserve">
<path d="M15.526,14.24c-0.3-1.608-0.665-3.534-1.009-5.341c0.599-3.163,1.132-5.945,1.132-5.945l0.385-0.613L15.526,14.24z
	 M13.062,16.724l1.023,0.943l-0.406,9.723c0,0-0.007-0.009-0.014-0.019c0,0.006,0,0.013,0.001,0.019
	c-0.016,2.032-1.506,3.674-3.32,3.661c-1.814-0.016-3.278-1.681-3.263-3.713c0.012-1.419,0.743-2.646,1.8-3.253
	c0.092-0.066,3.276-2.45,3.989-6.202C12.878,17.791,12.948,17.369,13.062,16.724z M12.6,27.38c0.011-1.443-0.979-2.626-2.205-2.636
	c-1.228-0.009-2.235,1.157-2.246,2.601c-0.011,1.446,0.979,2.629,2.205,2.639C11.582,29.992,12.588,28.825,12.6,27.38z
	 M21.435,27.753c-0.017,2.032-1.505,3.674-3.32,3.66c-1.814-0.016-3.277-1.68-3.261-3.711c0-0.064,0.006-0.129,0.009-0.193
	l-0.289-10.003l-1.417-1.308L12.613,2.653l0.383,0.573c0,0,2.779,14.395,2.799,14.981c0.638,3.674,3.603,6.054,3.824,6.228
	C20.703,25.045,21.445,26.304,21.435,27.753z M14.871,15.702c0.002-0.309-0.248-0.563-0.558-0.566
	c-0.311-0.002-0.564,0.247-0.566,0.557c-0.003,0.311,0.247,0.565,0.558,0.567C14.614,16.263,14.869,16.011,14.871,15.702z
	 M20.368,27.744c0.011-1.445-0.977-2.626-2.204-2.638c-1.226-0.008-2.232,1.16-2.245,2.603c-0.011,1.444,0.979,2.627,2.204,2.638
	C19.349,30.354,20.357,29.188,20.368,27.744z M23.882,14.514c-4.55,0.104-4.393,4.603-3.975,6.014
	c0.419,1.412,2.44-0.418,3.662-0.627c1.221-0.209,3.295,1.621,4.289,0.627C28.851,19.535,28.433,14.409,23.882,14.514z M22.613,13.8
	c0.884-0.078,1.504-1.225,1.387-2.563c-0.118-1.338-0.93-2.359-1.812-2.282c-0.883,0.078-1.503,1.226-1.386,2.563
	C20.92,12.856,21.73,13.877,22.613,13.8z M25.597,13.702c0.849,0.256,1.852-0.579,2.239-1.864s0.015-2.536-0.834-2.792
	c-0.849-0.256-1.851,0.579-2.239,1.865C24.376,12.196,24.749,13.446,25.597,13.702z M30.102,12.003
	c-0.707-0.365-1.728,0.208-2.279,1.279c-0.553,1.071-0.428,2.235,0.279,2.6c0.707,0.364,1.728-0.208,2.28-1.28
	C30.934,13.531,30.809,12.367,30.102,12.003z M20.192,15.64c0.701-0.375,0.808-1.541,0.239-2.603
	c-0.569-1.062-1.598-1.62-2.299-1.244c-0.7,0.375-0.808,1.54-0.238,2.603C18.463,15.458,19.492,16.015,20.192,15.64z M6.196,17.015
	l0.06,13.603l-0.094,0.091c-0.028,0.027-0.733,0.699-1.676,0.704c-0.935,0.003-1.691-0.655-1.724-0.683l-0.104-0.09L2.599,17.028
	l0.791-0.002l-0.001-0.332l-0.333,0.002c0,0-0.002-0.454-0.006-1.2L0.064,15.51l-0.001-0.408l2.985-0.013
	c0-0.124-0.001-0.249-0.001-0.384l-2.985,0.014L0.06,14.312l2.985-0.014c-0.001-0.123-0.002-0.254-0.002-0.383l-2.985,0.013
	L0.056,13.52l2.984-0.014c-0.002-0.097-0.001-0.194-0.002-0.294l-2.985,0.014l-0.003-0.407l2.987-0.015
	c-0.001-0.127-0.001-0.252-0.002-0.382L0.05,12.436l-0.002-0.409l2.986-0.014c0-0.126-0.001-0.253-0.001-0.383l-2.986,0.014
	l-0.001-0.408l2.986-0.013c0-0.127-0.001-0.254-0.001-0.384l-2.987,0.015l-0.002-0.41l2.987-0.013c0-0.146-0.001-0.296-0.001-0.446
	L0.041,10L0.039,9.59l2.986-0.013C3.024,9.45,3.024,9.322,3.023,9.194L0.037,9.207L0.035,8.8l2.987-0.013
	C3.021,8.658,3.021,8.532,3.02,8.404L0.033,8.417L0.032,8.008l2.985-0.014c0.001-0.127,0-0.254,0-0.381L0.03,7.627l-0.002-0.41
	l2.986-0.012c0-0.132-0.001-0.263-0.001-0.395L0.026,6.823L0.025,6.414l2.986-0.013C3.01,6.272,3.01,6.146,3.009,6.018L0.023,6.031
	L0.021,5.625l2.985-0.014c0-0.129-0.001-0.258-0.001-0.384L0.02,5.24L0.018,4.831l2.984-0.013c0-0.128-0.001-0.257-0.001-0.383
	L0.015,4.448L0.014,4.04L3,4.028c0-0.153,0-0.301-0.001-0.446L0.012,3.594L0.011,3.188l2.984-0.014
	C2.995,3.041,2.995,2.916,2.995,2.791L0.008,2.805l-0.001-0.41l2.986-0.014c0-0.131,0-0.259-0.001-0.381L0.005,2.013L0.003,1.604
	L2.99,1.59C2.989,1.451,2.988,1.324,2.988,1.207L0.001,1.22L0,0.813l2.986-0.014c0-0.213-0.001-0.361-0.001-0.408
	c-0.003-0.612,2.729-0.42,2.73-0.012c0,0.033,0,0.183,0.001,0.409l2.959-0.014l0.003,0.409L5.718,1.195
	C5.72,1.313,5.721,1.441,5.721,1.578l2.958-0.013l0.002,0.409L5.722,1.988c0.001,0.121,0.001,0.249,0.003,0.383l2.957-0.015
	l0.003,0.409L5.726,2.778C5.727,2.904,5.727,3.029,5.728,3.16l2.959-0.012v0.409L5.729,3.57C5.73,3.715,5.73,3.865,5.73,4.016
	l2.96-0.013l0.002,0.408L5.734,4.424c0,0.126,0.001,0.255,0.001,0.382l2.958-0.013l0.001,0.409L5.736,5.215
	c0.001,0.127,0.001,0.254,0.002,0.384l2.959-0.014l0.001,0.408L5.74,6.007C5.741,6.134,5.741,6.26,5.741,6.39L8.7,6.377l0.003,0.406
	L5.744,6.797c0,0.131,0,0.263,0,0.394l2.96-0.014l0.002,0.41L5.748,7.6c0.001,0.128,0.001,0.254,0.001,0.383L8.707,7.97l0.002,0.408
	L5.751,8.391c0.001,0.128,0,0.255,0.001,0.382l2.959-0.011L8.713,9.17L5.754,9.182C5.755,9.31,5.756,9.437,5.756,9.566l2.958-0.013
	l0.002,0.408L5.758,9.975c0.001,0.148,0.001,0.297,0.002,0.444l2.961-0.012l0.002,0.409l-2.959,0.012
	c0,0.129,0.001,0.256,0.001,0.383l2.958-0.013l0.002,0.408l-2.959,0.013c0.001,0.131,0.001,0.256,0.002,0.384l2.958-0.013
	l0.002,0.407L5.768,12.41c0.001,0.129,0.002,0.258,0.002,0.383l2.958-0.014l0.002,0.408l-2.959,0.015
	c0.001,0.098,0.001,0.196,0.002,0.292l2.958-0.014l0.004,0.409l-2.959,0.013c0,0.131,0.001,0.259,0.001,0.383l2.959-0.013
	l0.002,0.407l-2.959,0.014c0,0.136,0.001,0.261,0.001,0.384l2.959-0.013l0.001,0.408l-2.958,0.014
	c0.003,0.744,0.005,1.199,0.005,1.199H5.378l0.001,0.332L6.196,17.015z M5.643,30.347L5.586,17.629L3.214,17.64l0.056,12.711
	c0.204,0.149,0.685,0.45,1.214,0.449C5.006,30.797,5.455,30.493,5.643,30.347z"/>
</svg>
