<?xml version="1.0" encoding="iso-8859-1"?>
<!-- Generator: Adobe Illustrator 16.0.0, SVG Export Plug-In . SVG Version: 6.00 Build 0)  -->
<!DOCTYPE svg PUBLIC "-//W3C//DTD SVG 1.1//EN" "http://www.w3.org/Graphics/SVG/1.1/DTD/svg11.dtd">
<svg version="1.1" id="Layer_1" xmlns="http://www.w3.org/2000/svg" xmlns:xlink="http://www.w3.org/1999/xlink" x="0px" y="0px"
	 width="17.646px" height="30.443px" viewBox="0 0 17.646 30.443" style="enable-background:new 0 0 17.646 30.443;"
	 xml:space="preserve">
<g>
	<path d="M15.061,10.164c0,0,7.841-11.69-11.862-9.996C3.055,0.334,3.228,0.082,2.825,0.599
		C19.054,1.26,15.061,10.164,15.061,10.164z"/>
	<path d="M15.779,14.07c2.5,1.264-1.034,1.924-1.781,1.709C11.471,14.443,19.312,5.31,9.713,2.15
		c5.894,3.476,3.107,7.726,3.107,7.726s1.867-7.295-10.197-8.76c2.154,1.092,1.88,1.608,3.361,2.097
		c6.52,1.608,3.676,6.894,3.389,7.87c-2.93,4.883-9.679,5.802-9.363,11.719s7.209,4.699,6.692,1.293
		c-2.298,2.067-4.539-1.638-3.217-4.223c1.348-2.666,3.288-3.994,4.834-5.473c-2.005,3.411-4.084,3.94-4.272,5.208
		c-0.776,4.279,2.34,3.452,2.34,3.452s-3.074-1.866,0-4.825c-1.379,6.606,6.692,10.542-0.086,12.207
		c8.243,0.144,2.958-7.353,2.585-8.272c-1.321-4.71,2.226-10.2,2.47-14.332c1.851,1.201-3.476,10.455-1.81,13.155
		c1.666,2.699,3.332,0.258,3.849,0.058c-4.509,1.119-1.838-4.94-1.838-4.94s2.068,3.102,4.854,0.947
		C19.197,14.903,16.497,13.122,15.779,14.07z"/>
</g>
<g>
</g>
<g>
</g>
<g>
</g>
<g>
</g>
<g>
</g>
<g>
</g>
<g>
</g>
<g>
</g>
<g>
</g>
<g>
</g>
<g>
</g>
<g>
</g>
<g>
</g>
<g>
</g>
<g>
</g>
</svg>
