<?xml version="1.0" encoding="iso-8859-1"?>
<!-- Generator: Adobe Illustrator 16.0.0, SVG Export Plug-In . SVG Version: 6.00 Build 0)  -->
<!DOCTYPE svg PUBLIC "-//W3C//DTD SVG 1.1//EN" "http://www.w3.org/Graphics/SVG/1.1/DTD/svg11.dtd">
<svg version="1.1" id="Layer_1" xmlns="http://www.w3.org/2000/svg" xmlns:xlink="http://www.w3.org/1999/xlink" x="0px" y="0px"
	 width="31.906px" height="30.975px" viewBox="0 0 31.906 30.975" style="enable-background:new 0 0 31.906 30.975;"
	 xml:space="preserve">
<g>
	<polygon points="18.484,26.075 18.484,26.008 18.495,26.011 20.812,15.549 18.475,15.031 16.56,23.682 7.77,23.682 7.77,26.075 
		11.712,26.075 11.212,28.887 7.656,28.887 6.439,30.711 20.119,30.711 18.902,28.887 15.118,28.887 14.619,26.075 	"/>
	<path d="M28.432,28.595V14.39h0.635v-1.295h-0.635v-5.28h2.626V4.186h-1.736c-0.088-0.824-0.776-1.468-1.623-1.468
		c-0.846,0-1.534,0.644-1.622,1.468h-2.122v0.81h-2.468c-0.118-1.771-1.213-3.706-3.28-4.557c-2.822-1.163-6.374,0.138-7.208,2.163
		c-0.481,1.168-0.066,2.167,0.911,3.027c0,0.001,0,0.001,0,0.001c0.002,0.001,0.005,0.003,0.007,0.005
		c0.348,0.305,0.766,0.592,1.24,0.863c0.023,0.013,0.047,0.026,0.07,0.039c0.225,0.127,0.461,0.249,0.708,0.368
		c0.037,0.019,0.077,0.036,0.114,0.054c0.253,0.119,0.513,0.235,0.785,0.348c0.174,0.072,0.349,0.141,0.522,0.207
		c0.044,0.017,0.087,0.03,0.13,0.047c0.129,0.047,0.257,0.094,0.384,0.138c0.074,0.024,0.147,0.047,0.221,0.07
		c0.096,0.031,0.19,0.063,0.285,0.091c0.087,0.026,0.172,0.048,0.259,0.072c0.079,0.021,0.159,0.045,0.237,0.064
		c0.096,0.025,0.188,0.045,0.281,0.065c0.067,0.016,0.135,0.032,0.202,0.046c0.097,0.02,0.191,0.034,0.286,0.05
		c0.062,0.011,0.124,0.022,0.185,0.031c0.095,0.015,0.187,0.022,0.278,0.032c0.059,0.006,0.118,0.014,0.176,0.018
		c0.09,0.008,0.177,0.01,0.265,0.013c0.045,0.001,0.093,0.007,0.137,0.007c0.001-0.001,0.001-0.002,0.002-0.003
		c1.184,0.007,2.114-0.398,2.542-1.438c0.041-0.1,0.057-0.212,0.089-0.316h2.64v1.314h3.011v20.78l-3.474,0.759v1.621h8.415v-1.621
		L28.432,28.595z"/>
	<path d="M18.434,8.695c-1.051-0.049-2.313-0.364-3.774-0.967c-1.206-0.497-2.154-1.031-2.857-1.601
		c-0.025,0.175-0.042,0.351-0.042,0.531c0,2.015,1.633,3.647,3.647,3.647C16.668,10.307,17.779,9.667,18.434,8.695z"/>
	<path d="M8.198,22.77h2.041h3.23h2.173c0,0,1.907-9.332,2.118-10.361s0.123-1.525-0.562-1.531c-0.684-0.006-3.42,0-3.42,0v0.001
		l-0.006-0.003c0,0-2.957,6.239-5.58,6.07c-1.427,0.021-1.386,1.479,1.504,1.574c0.665,0.022,1.332-0.338,1.966-0.9l-0.496,1.795
		c-1.852-0.004-4.229,0.007-4.765,0.081c-0.747,0.104-4.146,5.624-5.316,7.562H0v1.646h5.307v-1.646H5.221L8.198,22.77z"/>
</g>
<g>
</g>
<g>
</g>
<g>
</g>
<g>
</g>
<g>
</g>
<g>
</g>
<g>
</g>
<g>
</g>
<g>
</g>
<g>
</g>
<g>
</g>
<g>
</g>
<g>
</g>
<g>
</g>
<g>
</g>
</svg>
