<?xml version="1.0" encoding="iso-8859-1"?>
<!-- Generator: Adobe Illustrator 16.0.0, SVG Export Plug-In . SVG Version: 6.00 Build 0)  -->
<!DOCTYPE svg PUBLIC "-//W3C//DTD SVG 1.1//EN" "http://www.w3.org/Graphics/SVG/1.1/DTD/svg11.dtd">
<svg version="1.1" id="Layer_1" xmlns="http://www.w3.org/2000/svg" xmlns:xlink="http://www.w3.org/1999/xlink" x="0px" y="0px"
	 width="20.479px" height="31.576px" viewBox="0 0 20.479 31.576" style="enable-background:new 0 0 20.479 31.576;"
	 xml:space="preserve">
<path d="M20.479,6.921C20.275,3.164,19.95,1.832,18.501,0c-0.43,2.063-0.258,2.493-8.426,5.029
	c-14.014,3.826-9.32,14.187-9.32,14.187l0.002-0.002c0.16,0.801,0.39,1.602,0.678,2.378c0.706,2.067,2.622,3.396,2.252,3.934
	c-0.37,0.537-1.427,6.039-1.427,6.039l8.461,0.012c0,0-0.692-0.391-1.144-0.908c-0.31-0.354,0.094-1.056,0.541-2.271
	c0.062-0.164,0.428,0.069,0.663-0.485c0.234-0.554-0.232-0.833-0.177-1c0.049-0.146,0.085-0.129,0.116-0.244
	c0.063-0.338,0.215-0.541,0.423-0.661c3.153,0.095,3.975-0.062,3.196-2.246c0.101-0.093,0.665-0.458,0.784-0.721
	c0.119-0.261-0.163-0.326-0.163-0.326s0.207,0.011,0.359-0.229c0.152-0.239-0.262-1.177-0.262-1.177s1.046-0.229,1.275-0.622
	c0.229-0.392-1.843-2.801-1.767-3.237c0.077-0.436,0.426-0.643,0.524-0.751c0.098-0.109,0.329-1.292-0.948-3.173
	c-0.438-0.645-0.995-1.337-1.747-1.92C14.826,11.254,20.492,10.097,20.479,6.921z"/>
<g>
</g>
<g>
</g>
<g>
</g>
<g>
</g>
<g>
</g>
<g>
</g>
<g>
</g>
<g>
</g>
<g>
</g>
<g>
</g>
<g>
</g>
<g>
</g>
<g>
</g>
<g>
</g>
<g>
</g>
</svg>
