<?xml version="1.0" encoding="iso-8859-1"?>
<!-- Generator: Adobe Illustrator 16.0.0, SVG Export Plug-In . SVG Version: 6.00 Build 0)  -->
<!DOCTYPE svg PUBLIC "-//W3C//DTD SVG 1.1//EN" "http://www.w3.org/Graphics/SVG/1.1/DTD/svg11.dtd">
<svg version="1.1" id="Layer_1" xmlns="http://www.w3.org/2000/svg" xmlns:xlink="http://www.w3.org/1999/xlink" x="0px" y="0px"
	 width="24.384px" height="31.717px" viewBox="0 0 24.384 31.717" style="enable-background:new 0 0 24.384 31.717;"
	 xml:space="preserve">
<path d="M22.131,13.869c0.096-0.551,0.537-0.813,0.661-0.95c0.124-0.138,0.416-1.632-1.198-4.008
	c-0.348-0.512-0.758-1.048-1.247-1.56l2.679-2.559l-4.508-0.339l0.598-2.824l-3.259,2.227l-1.086-3.232l-2.498,3.069L9.775,0v4.128
	L5.703,2.771l1.684,2.933c0,0-4.291,0-4.508,0S4.942,8.31,4.942,8.31L1.629,9.776l2.362,1.691L0,13.144l3.534,1.9L0.76,17.379
	l2.774,0.876l-1.09,4.057l4.174-1.139c0.993,1.446,2.095,2.422,1.766,2.9c-0.467,0.679-1.803,7.629-1.803,7.629l10.688,0.015
	c0,0-0.874-0.493-1.444-1.147c-0.391-0.448,0.118-1.334,0.685-2.868c0.077-0.208,0.539,0.088,0.836-0.613
	c0.297-0.7-0.293-1.053-0.223-1.263c0.062-0.186,0.108-0.163,0.146-0.31c0.08-0.427,0.272-0.684,0.535-0.835
	c3.984,0.12,5.022-0.077,4.037-2.838c0.127-0.117,0.84-0.579,0.992-0.909s-0.206-0.413-0.206-0.413s0.261,0.014,0.454-0.289
	c0.193-0.303-0.331-1.487-0.331-1.487s1.322-0.29,1.611-0.785C24.651,17.463,22.035,14.42,22.131,13.869z"/>
<g>
</g>
<g>
</g>
<g>
</g>
<g>
</g>
<g>
</g>
<g>
</g>
<g>
</g>
<g>
</g>
<g>
</g>
<g>
</g>
<g>
</g>
<g>
</g>
<g>
</g>
<g>
</g>
<g>
</g>
</svg>
