<?xml version="1.0" encoding="iso-8859-1"?>
<!-- Generator: Adobe Illustrator 16.0.0, SVG Export Plug-In . SVG Version: 6.00 Build 0)  -->
<!DOCTYPE svg PUBLIC "-//W3C//DTD SVG 1.1//EN" "http://www.w3.org/Graphics/SVG/1.1/DTD/svg11.dtd">
<svg version="1.1" id="Layer_1" xmlns="http://www.w3.org/2000/svg" xmlns:xlink="http://www.w3.org/1999/xlink" x="0px" y="0px"
	 width="21.261px" height="31.152px" viewBox="0 0 21.261 31.152" style="enable-background:new 0 0 21.261 31.152;"
	 xml:space="preserve">
<path d="M19.18,0C17.824,4.548,6.799,5.824,2.556,8.653c-5.621,4.076-0.218,14.514-0.218,14.514l0.458-0.179
	c0.734,1.003,1.454,1.688,1.213,2.039c-0.374,0.544-1.444,6.113-1.444,6.113l8.565,0.012c0,0-0.701-0.396-1.157-0.919
	c-0.313-0.359,0.095-1.069,0.548-2.299c0.062-0.166,0.432,0.07,0.67-0.491s-0.235-0.844-0.179-1.012
	c0.05-0.149,0.087-0.131,0.118-0.249c0.063-0.342,0.218-0.547,0.429-0.669c3.192,0.097,4.024-0.062,3.235-2.273
	c0.102-0.094,0.673-0.464,0.794-0.729c0.122-0.264-0.165-0.33-0.165-0.33s0.209,0.011,0.364-0.231
	c0.154-0.243-0.265-1.192-0.265-1.192s1.06-0.231,1.291-0.629c0.232-0.397-1.865-2.836-1.787-3.277
	c0.077-0.441,0.43-0.65,0.53-0.761c0.099-0.111,0.333-1.308-0.96-3.212c-0.252-0.371-0.544-0.759-0.887-1.134
	c1.685,0.073,3.978-0.01,5.864-2.166C23.292,5.324,19.795,0.952,19.18,0z"/>
<g>
</g>
<g>
</g>
<g>
</g>
<g>
</g>
<g>
</g>
<g>
</g>
<g>
</g>
<g>
</g>
<g>
</g>
<g>
</g>
<g>
</g>
<g>
</g>
<g>
</g>
<g>
</g>
<g>
</g>
</svg>
