<?xml version="1.0" encoding="utf-8"?>
<!-- Generator: Adobe Illustrator 16.0.4, SVG Export Plug-In . SVG Version: 6.00 Build 0)  -->
<!DOCTYPE svg PUBLIC "-//W3C//DTD SVG 1.1//EN" "http://www.w3.org/Graphics/SVG/1.1/DTD/svg11.dtd">
<svg version="1.1" id="Layer_1" xmlns="http://www.w3.org/2000/svg" xmlns:xlink="http://www.w3.org/1999/xlink" x="0px" y="0px"
	 width="31.062px" height="28.336px" viewBox="0 0 31.062 28.336" enable-background="new 0 0 31.062 28.336" xml:space="preserve">
<path d="M31.062,20.014V8.365H28.66l1.081-2.602H1.602l0.881,2.602H0v11.649h2.482v0.199l-0.881,2.36H29.74l-1.08-2.36v-0.199
	H31.062z M27.299,17.164H26.1v-1.893h-0.895c-0.173,0.928-0.981,1.633-1.964,1.633c-0.978,0-1.791-0.705-1.963-1.633h-1.024v1.86
	h-1.198v-1.86h-1.588c-0.246,0.827-1.003,1.432-1.91,1.432c-0.905,0-1.664-0.604-1.908-1.432h-1.32v1.86h-1.201v-1.86h-1.065
	c-0.245,0.827-1.003,1.432-1.908,1.432c-0.909,0-1.664-0.604-1.912-1.432H5.204v1.86h-1.2v-4.925h1.2v1.862h1.06
	c0.266-0.792,1.007-1.368,1.89-1.368c0.882,0,1.623,0.577,1.888,1.369h1.086v-1.863h1.201v1.862h1.339
	c0.267-0.792,1.005-1.369,1.89-1.369c0.883,0,1.624,0.577,1.891,1.369h1.604v-1.862h1.2v1.862h1.174
	c0.314-0.688,1.009-1.168,1.813-1.168c0.808,0,1.499,0.48,1.817,1.168h1.041v-1.828h1.198v4.923H27.299z"/>
</svg>
