<?xml version="1.0" encoding="iso-8859-1"?>
<!-- Generator: Adobe Illustrator 16.0.0, SVG Export Plug-In . SVG Version: 6.00 Build 0)  -->
<!DOCTYPE svg PUBLIC "-//W3C//DTD SVG 1.1//EN" "http://www.w3.org/Graphics/SVG/1.1/DTD/svg11.dtd">
<svg version="1.1" id="Layer_1" xmlns="http://www.w3.org/2000/svg" xmlns:xlink="http://www.w3.org/1999/xlink" x="0px" y="0px"
	 width="30.114px" height="31.372px" viewBox="0 0 30.114 31.372" style="enable-background:new 0 0 30.114 31.372;"
	 xml:space="preserve">
<g>
	<path d="M9.958,29.91c-2.692-3.581-4.649-9.336-5.953-16.864c0.73-0.948,1.303-1.729,1.592-1.981
		c0.7-0.607,2.256-2.434,2.256-2.434S8.33,9.158,8.448,8.992c0.12-0.164,5.098-7.074,5.098-7.074s-1.125-2.04-1.953-0.925
		c-0.501,0.676-4.646,6.261-7.833,10.556c-0.013-0.081-0.026-0.162-0.039-0.244c-0.077-0.665-0.983-0.367-1.601,0.779
		c-0.167,0.476-0.215,1.13-0.171,1.905c-1.151,1.549-1.926,2.595-1.926,2.595s-0.138,0.529,0.279,0.481
		c0.6-0.453,1.21-1.051,1.793-1.695c0.819,5.441,4.462,14.38,4.971,15.02C7.705,31.193,10.726,30.279,9.958,29.91z M2.937,13.144
		c-0.173-0.031-0.291-0.197-0.259-0.371c0.031-0.175,0.197-0.291,0.371-0.26c0.174,0.03,0.292,0.196,0.261,0.371
		C3.278,13.058,3.11,13.174,2.937,13.144z M8.163,29.764c-0.175-0.031-0.291-0.197-0.261-0.371c0.031-0.175,0.197-0.291,0.372-0.261
		s0.291,0.197,0.26,0.372C8.502,29.678,8.336,29.793,8.163,29.764z"/>
	<path d="M18.526,10.912l0.037-1.221L12.65,9.509l-0.038,1.22l-1.304-0.59l-0.443,14.289l1.334-0.407l-0.039,1.261l5.914,0.184
		l0.04-1.261l0.103,0.004l1.185,0.484l0.443-14.289l-1.216,0.512L18.526,10.912z M17.04,12.167l-0.961-0.029l-0.014,0.453
		c0.469,0.104,0.813,0.525,0.798,1.023c-0.016,0.496-0.386,0.898-0.86,0.972l-0.016,0.52l0.944,0.029l-0.019,0.61l-0.944-0.029
		l-0.025,0.805c0.416,0.139,0.712,0.532,0.697,0.993c-0.014,0.459-0.334,0.835-0.757,0.946l-0.021,0.669l0.944,0.029l-0.019,0.61
		l-0.944-0.029l-0.017,0.542c0.416,0.138,0.712,0.532,0.697,0.991c-0.014,0.462-0.333,0.835-0.757,0.948l-0.016,0.527l0.944,0.029
		l-0.019,0.609l-2.5-0.077l0.019-0.61l0.945,0.029l0.017-0.536c-0.397-0.149-0.679-0.534-0.665-0.982
		c0.015-0.448,0.318-0.815,0.725-0.938l0.017-0.552l-0.945-0.029l0.019-0.61l0.945,0.029l0.021-0.68
		c-0.397-0.146-0.679-0.532-0.665-0.98c0.014-0.448,0.318-0.814,0.724-0.938l0.025-0.815l-0.946-0.029l0.019-0.609l0.946,0.029
		l0.019-0.597c-0.346-0.17-0.578-0.529-0.564-0.938c0.012-0.411,0.266-0.754,0.622-0.905l0.016-0.528L14.54,12.09l0.019-0.609
		l2.501,0.077L17.04,12.167z"/>
	<path d="M19.985,0L19.91,3.251l0.369,0.01l3.169,3.319l0,0.007l0.212,0.005l-0.072,3.125L23.2,9.708l-0.017,0.731l0.389,0.01
		l-0.015,0.618l-0.388-0.009l-0.017,0.732l0.389,0.008l-0.012,0.508l-0.388-0.009l-0.018,0.729l0.389,0.01l-0.019,0.845l-0.388-0.01
		l-0.017,0.731l0.388,0.01l-0.02,0.844l-0.388-0.01l-0.018,0.731l0.389,0.009l-0.012,0.508l-0.389-0.009l-0.017,0.73l0.388,0.009
		l-0.02,0.844l-0.388-0.009l-0.016,0.732l0.388,0.009l-0.012,0.507L22.973,19.5l-0.018,0.731l0.389,0.008l-0.016,0.657l-0.388-0.009
		l-0.018,0.73l0.389,0.01l-0.011,0.507l-0.389-0.01l-0.016,0.731l0.388,0.009l-0.018,0.781l-0.389-0.009l-0.017,0.731l0.388,0.009
		l-0.011,0.508l-0.388-0.009l-0.019,0.73l0.389,0.009L23.2,26.46l-0.389-0.01l-0.017,0.733l0.389,0.008l-0.012,0.508l-0.39-0.01
		l-0.017,0.731l0.389,0.009l-0.016,0.657l-0.388-0.01l-0.018,0.731l0.389,0.009l-0.011,0.508l-0.388-0.01l-0.017,0.732l0.387,0.008
		l-0.006,0.263l2.338,0.054l0.006-0.262l0.389,0.008l0.016-0.731l-0.388-0.009l0.012-0.506l0.388,0.01l0.018-0.732l-0.388-0.009
		l0.015-0.656l0.389,0.008l0.017-0.729l-0.387-0.01l0.01-0.508l0.388,0.009l0.017-0.73l-0.388-0.009l0.02-0.844l0.387,0.008
		l0.018-0.73l-0.388-0.009l0.012-0.508l0.388,0.009l0.017-0.729l-0.388-0.009l0.019-0.782l0.387,0.009l0.018-0.73l-0.387-0.01
		l0.011-0.507l0.388,0.009l0.017-0.73l-0.388-0.009l0.015-0.657l0.388,0.009l0.017-0.73l-0.388-0.01l0.012-0.507l0.388,0.01
		l0.017-0.732l-0.388-0.008l0.02-0.844l0.388,0.009l0.017-0.732l-0.388-0.01l0.012-0.506l0.387,0.01l0.017-0.731l-0.388-0.009
		l0.02-0.845l0.389,0.009l0.016-0.731l-0.388-0.009l0.02-0.844l0.389,0.009l0.017-0.73l-0.389-0.009l0.012-0.508l0.388,0.01
		l0.017-0.731l-0.388-0.009l0.014-0.62l0.389,0.008l0.017-0.729l-0.388-0.009l0.073-3.127l0.288,0.007V6.651h0.001l3.326-3.175
		l0.425,0.01l0.076-3.25L19.985,0z M23.476,5.378l-1.994-2.09l2.042,0.048L23.476,5.378z M25.498,3.97L24.36,3.943l0.014-0.588
		l1.137,0.026L25.498,3.97z M26.315,5.45l0.048-2.049l2.048,0.048L26.315,5.45z M29.423,3.046L20.47,2.84l0.013-0.552l8.954,0.209
		L29.423,3.046z M29.444,2.121l-8.952-0.207l0.013-0.55l8.953,0.207L29.444,2.121z M29.466,1.17l-8.953-0.207l0.013-0.55
		l8.953,0.209L29.466,1.17z"/>
</g>
<g>
</g>
<g>
</g>
<g>
</g>
<g>
</g>
<g>
</g>
<g>
</g>
<g>
</g>
<g>
</g>
<g>
</g>
<g>
</g>
<g>
</g>
<g>
</g>
<g>
</g>
<g>
</g>
<g>
</g>
</svg>
