<?xml version="1.0" encoding="iso-8859-1"?>
<!-- Generator: Adobe Illustrator 16.0.0, SVG Export Plug-In . SVG Version: 6.00 Build 0)  -->
<!DOCTYPE svg PUBLIC "-//W3C//DTD SVG 1.1//EN" "http://www.w3.org/Graphics/SVG/1.1/DTD/svg11.dtd">
<svg version="1.1" id="Layer_1" xmlns="http://www.w3.org/2000/svg" xmlns:xlink="http://www.w3.org/1999/xlink" x="0px" y="0px"
	 width="27.522px" height="31.786px" viewBox="0 0 27.522 31.786" style="enable-background:new 0 0 27.522 31.786;"
	 xml:space="preserve">
<g>
	<path d="M24.891,18.621l0.687-0.885l-4.291-3.332L20.6,15.289l-0.649-1.142l-8.049,10.366l1.211,0.418l-0.71,0.915l4.29,3.332
		l0.711-0.915l0.072,0.057l0.618,1.001l8.05-10.366l-1.179-0.276L24.891,18.621z M23.107,18.75l-0.696-0.542l-0.256,0.328
		c0.294,0.33,0.321,0.829,0.041,1.191c-0.28,0.36-0.773,0.458-1.165,0.257l-0.292,0.376l0.686,0.532l-0.345,0.441l-0.685-0.532
		l-0.452,0.584c0.231,0.328,0.24,0.779-0.021,1.115c-0.259,0.334-0.699,0.439-1.072,0.293l-0.377,0.486l0.684,0.531l-0.344,0.443
		l-0.686-0.532l-0.306,0.394c0.235,0.326,0.243,0.779-0.017,1.112c-0.261,0.335-0.699,0.44-1.074,0.294l-0.298,0.382l0.685,0.532
		l-0.344,0.442l-1.813-1.408l0.345-0.442l0.686,0.533l0.303-0.39c-0.216-0.326-0.216-0.763,0.037-1.089
		c0.253-0.324,0.676-0.432,1.044-0.303l0.312-0.4L17,22.846l0.344-0.443l0.687,0.533l0.383-0.492
		c-0.217-0.324-0.217-0.762,0.034-1.087c0.253-0.325,0.678-0.433,1.047-0.305l0.459-0.592l-0.685-0.533l0.342-0.442l0.687,0.532
		l0.335-0.432c-0.162-0.313-0.141-0.706,0.09-1.002c0.23-0.297,0.604-0.415,0.949-0.335l0.297-0.383l-0.673-0.522l0.343-0.442
		l1.814,1.408L23.107,18.75z"/>
	<path d="M11.922,19.54l0.343,0.271l0.51-0.643l-0.34-0.271l0.353-0.445l0.341,0.271l0.512-0.643L13.3,17.81l0.59-0.742l0.34,0.271
		l0.512-0.643l-0.342-0.271l0.592-0.742l0.34,0.271l0.51-0.642l-0.34-0.271l0.355-0.446l0.34,0.271l0.513-0.642l-0.343-0.272
		l0.433-0.543l0.343,0.271l0.51-0.643l-0.34-0.271l2.186-2.747l0.252,0.202v-0.001l0.002,0.001l5.126-0.584l0.374,0.297l2.271-2.855
		L18.625,0l-2.271,2.856l0.324,0.258l0.581,5.118l-0.003,0.005l0.186,0.148l-2.184,2.747l-0.342-0.271l-0.513,0.643l0.343,0.271
		l-0.433,0.543l-0.343-0.271l-0.51,0.643l0.34,0.271l-0.354,0.445l-0.342-0.271l-0.51,0.642l0.34,0.271l-0.59,0.742l-0.34-0.271
		l-0.512,0.642l0.342,0.271l-0.592,0.743l-0.34-0.272l-0.513,0.642l0.343,0.271l-0.354,0.445l-0.342-0.271l-0.513,0.643l0.343,0.271
		l-0.59,0.741l-0.342-0.271l-0.511,0.643l0.34,0.271l-0.353,0.445l-0.343-0.271l-0.51,0.643l0.34,0.271l-0.459,0.577l-0.34-0.271
		L6.59,21.326l0.343,0.271l-0.355,0.445l-0.34-0.271l-0.513,0.643l0.343,0.271l-0.546,0.686L5.18,23.1l-0.513,0.643l0.343,0.271
		l-0.355,0.445l-0.341-0.271l-0.512,0.643l0.342,0.271l-0.589,0.741l-0.343-0.271l-0.51,0.643l0.34,0.271l-0.353,0.445l-0.343-0.271
		l-0.51,0.643l0.34,0.271L1.718,28.15l-0.34-0.271l-0.513,0.643l0.343,0.271l-0.355,0.445l-0.341-0.271L0,29.609l0.342,0.271
		l-0.183,0.23l2.053,1.634l0.184-0.23l0.342,0.271l0.511-0.643l-0.341-0.271l0.354-0.445l0.34,0.271l0.513-0.643l-0.34-0.271
		l0.457-0.577l0.342,0.271l0.51-0.643l-0.34-0.271l0.355-0.445l0.34,0.271l0.511-0.643l-0.341-0.271l0.59-0.741l0.34,0.271
		l0.513-0.643l-0.34-0.271l0.353-0.445l0.343,0.271l0.51-0.643l-0.34-0.271l0.545-0.687l0.34,0.271l0.513-0.642l-0.34-0.271
		l0.353-0.445l0.34,0.271l0.513-0.643l-0.34-0.271l0.459-0.577l0.34,0.271l0.511-0.643l-0.341-0.271l0.354-0.445l0.343,0.271
		l0.51-0.643l-0.34-0.271L11.922,19.54z M18.1,7.176l-0.366-3.221l1.795,1.427L18.1,7.176z M20.59,9.167l1.431-1.801l1.802,1.433
		L20.59,9.167z M19.863,6.493l0.411-0.516l1,0.795l-0.411,0.516L19.863,6.493z M18.828,0.736l7.866,6.257l-0.384,0.483l-7.866-6.257
		L18.828,0.736z M18.163,1.571l7.867,6.257l-0.385,0.483l-7.866-6.258L18.163,1.571z M17.133,2.867l0.386-0.483l7.864,6.258
		l-0.384,0.483L17.133,2.867z"/>
</g>
<g>
</g>
<g>
</g>
<g>
</g>
<g>
</g>
<g>
</g>
<g>
</g>
<g>
</g>
<g>
</g>
<g>
</g>
<g>
</g>
<g>
</g>
<g>
</g>
<g>
</g>
<g>
</g>
<g>
</g>
</svg>
