<?xml version="1.0" encoding="iso-8859-1"?>
<!-- Generator: Adobe Illustrator 16.0.0, SVG Export Plug-In . SVG Version: 6.00 Build 0)  -->
<!DOCTYPE svg PUBLIC "-//W3C//DTD SVG 1.1//EN" "http://www.w3.org/Graphics/SVG/1.1/DTD/svg11.dtd">
<svg version="1.1" id="Layer_1" xmlns="http://www.w3.org/2000/svg" xmlns:xlink="http://www.w3.org/1999/xlink" x="0px" y="0px"
	 width="27.559px" height="31.828px" viewBox="0 0 27.559 31.828" style="enable-background:new 0 0 27.559 31.828;"
	 xml:space="preserve">
<path d="M19.774,10.236L19.774,10.236l0.001,0l5.134-0.585l0.374,0.297l2.275-2.86L18.649,0l-2.275,2.86l0.324,0.259l0.583,5.125
	L17.277,8.25l0.187,0.148l-2.188,2.75l-0.342-0.271l-0.512,0.643l0.342,0.272l-0.434,0.544l-0.341-0.272l-0.512,0.644l0.342,0.271
	l-0.354,0.446l-0.342-0.271l-0.512,0.643l0.341,0.272l-0.591,0.743L12.02,14.54l-0.512,0.643l0.341,0.272l-0.591,0.744l-0.342-0.272
	l-0.511,0.643l0.341,0.272l-0.354,0.445l-0.342-0.271l-0.512,0.644L9.88,17.93L9.29,18.672L8.948,18.4l-0.512,0.644l0.341,0.272
	l-0.354,0.445L8.082,19.49L7.57,20.133l0.342,0.271l-0.46,0.578L7.11,20.711l-0.512,0.643l0.342,0.272l-0.354,0.446L6.243,21.8
	l-0.511,0.644l0.341,0.272l-0.546,0.687L5.185,23.13l-0.512,0.644l0.341,0.271L4.66,24.492L4.318,24.22l-0.512,0.644l0.342,0.271
	l-0.591,0.743l-0.342-0.272l-0.512,0.643l0.342,0.271l-0.355,0.446l-0.342-0.272l-0.512,0.644l0.342,0.272L1.72,28.188l-0.341-0.272
	l-0.513,0.644l0.342,0.272l-0.355,0.446l-0.341-0.272L0,29.648l0.341,0.272l-0.184,0.231l2.057,1.637l0.184-0.231l0.341,0.271
	l0.512-0.644L2.91,30.913l0.355-0.445l0.341,0.271l0.512-0.643l-0.341-0.271l0.459-0.578l0.342,0.271l0.512-0.643l-0.341-0.271
	l0.354-0.446l0.341,0.271l0.512-0.643l-0.342-0.271l0.591-0.742l0.341,0.272l0.512-0.644l-0.342-0.271l0.355-0.446l0.342,0.271
	l0.512-0.644l-0.342-0.271l0.547-0.688l0.341,0.271l0.512-0.643l-0.341-0.271l0.355-0.446l0.341,0.271l0.512-0.643l-0.341-0.272
	l0.459-0.578l0.341,0.271l0.512-0.644l-0.341-0.271l0.354-0.445l0.341,0.271l0.513-0.644l-0.342-0.271l0.591-0.743l0.342,0.271
	l0.512-0.643l-0.341-0.271l0.354-0.445l0.341,0.271l0.512-0.643l-0.341-0.271l0.591-0.743l0.342,0.271l0.511-0.644l-0.341-0.271
	l0.591-0.743l0.342,0.272l0.511-0.644l-0.341-0.271l0.355-0.446l0.341,0.271l0.513-0.644l-0.342-0.271l0.433-0.544l0.342,0.271
	l0.512-0.643l-0.341-0.271l2.188-2.75L19.774,10.236z M20.615,9.179l1.434-1.803l1.802,1.434L20.615,9.179z M18.853,0.737
	l7.876,6.266l-0.385,0.483l-7.875-6.266L18.853,0.737z M18.188,1.574l7.875,6.266l-0.385,0.484l-7.875-6.266L18.188,1.574z
	 M17.54,2.387l7.876,6.266l-0.385,0.484l-7.876-6.266L17.54,2.387z M18.123,7.186l-0.367-3.225l1.796,1.428L18.123,7.186z
	 M20.89,7.298l-1.001-0.796L20.3,5.985l1.001,0.796L20.89,7.298z"/>
<g>
</g>
<g>
</g>
<g>
</g>
<g>
</g>
<g>
</g>
<g>
</g>
<g>
</g>
<g>
</g>
<g>
</g>
<g>
</g>
<g>
</g>
<g>
</g>
<g>
</g>
<g>
</g>
<g>
</g>
</svg>
