<?xml version="1.0" encoding="iso-8859-1"?>
<!-- Generator: Adobe Illustrator 16.0.0, SVG Export Plug-In . SVG Version: 6.00 Build 0)  -->
<!DOCTYPE svg PUBLIC "-//W3C//DTD SVG 1.1//EN" "http://www.w3.org/Graphics/SVG/1.1/DTD/svg11.dtd">
<svg version="1.1" id="Layer_1" xmlns="http://www.w3.org/2000/svg" xmlns:xlink="http://www.w3.org/1999/xlink" x="0px" y="0px"
	 width="30.528px" height="31.638px" viewBox="0 0 30.528 31.638" style="enable-background:new 0 0 30.528 31.638;"
	 xml:space="preserve">
<path d="M28.113,5.051c-4.168,5.755-11.752,11.423-22.175,16.941c0.5-1.1,0.895-1.942,1.161-2.308
	c0.921-1.271,2.794-4.872,2.794-4.872s0.987,0.687,1.121,0.37c0.132-0.318,5.716-13.609,5.716-13.609s-2.633-2.938-3.574-0.784
	C12.535,2.212,6.99,14.906,3.3,23.354c-0.712,0.358-1.433,0.718-2.168,1.075c-0.826,0.363-0.399,1.268,0.894,1.84
	C0.809,29.057,0,30.91,0,30.91s-0.025,0.927,0.644,0.688c1.134-1.351,2.188-3.169,3.115-4.986
	c7.003-0.613,25.619-15.729,26.572-17.124C31.312,8.055,28.325,3.623,28.113,5.051z M4.842,25.007
	c-0.219,0.205-0.563,0.192-0.767-0.025C3.87,24.763,3.882,24.42,4.1,24.215c0.219-0.205,0.562-0.194,0.767,0.025
	C5.071,24.458,5.06,24.803,4.842,25.007z"/>
<g>
</g>
<g>
</g>
<g>
</g>
<g>
</g>
<g>
</g>
<g>
</g>
<g>
</g>
<g>
</g>
<g>
</g>
<g>
</g>
<g>
</g>
<g>
</g>
<g>
</g>
<g>
</g>
<g>
</g>
</svg>
