<?xml version="1.0" encoding="utf-8"?>
<!-- Generator: Adobe Illustrator 16.0.4, SVG Export Plug-In . SVG Version: 6.00 Build 0)  -->
<!DOCTYPE svg PUBLIC "-//W3C//DTD SVG 1.1//EN" "http://www.w3.org/Graphics/SVG/1.1/DTD/svg11.dtd">
<svg version="1.1" id="Layer_1" xmlns="http://www.w3.org/2000/svg" xmlns:xlink="http://www.w3.org/1999/xlink" x="0px" y="0px"
	 width="31.917px" height="28.982px" viewBox="0 0 31.917 28.982" enable-background="new 0 0 31.917 28.982" xml:space="preserve">
<path d="M26.139,23.256h-0.291v-0.292h0.291V23.256z M16.662,23.256h0.287v-0.292h-0.287V23.256z M12.642,23.256h0.287v-0.292
	h-0.287V23.256z M13.79,23.256h0.287v-0.292H13.79V23.256z M16.086,23.256h0.287v-0.292h-0.287V23.256z M12.067,23.256h0.287v-0.292
	h-0.287V23.256z M15.513,23.256H15.8v-0.292h-0.287V23.256z M14.364,23.256h0.287v-0.292h-0.287V23.256z M14.938,23.256h0.287
	v-0.292h-0.287V23.256z M13.215,23.256h0.288v-0.292h-0.288V23.256z M7.186,22.964H6.899v0.292h0.287V22.964z M6.613,22.964H6.326
	v0.292h0.287V22.964z M9.771,23.256h0.287v-0.292H9.771V23.256z M9.196,23.256h0.287v-0.292H9.196V23.256z M8.909,22.964H8.622
	v0.292h0.287V22.964z M11.493,23.256h0.288v-0.292h-0.288V23.256z M8.335,22.964H8.048v0.292h0.287V22.964z M10.919,23.256h0.287
	v-0.292h-0.287V23.256z M18.382,23.256h0.287v-0.292h-0.287V23.256z M23.264,22.964h-0.287v0.292h0.287V22.964z M24.986,22.964
	h-0.287v0.292h0.287V22.964z M21.83,23.256h0.287v-0.292H21.83V23.256z M25.274,23.256h0.287v-0.292h-0.287V23.256z M24.412,22.964
	h-0.287v0.292h0.287V22.964z M22.689,22.964h-0.287v0.292h0.287V22.964z M7.761,22.964H7.474v0.292h0.287V22.964z M21.253,23.256
	h0.289v-0.292h-0.289V23.256z M20.68,23.256h0.286v-0.292H20.68V23.256z M10.345,23.256h0.287v-0.292h-0.287V23.256z M18.957,23.256
	h0.287v-0.292h-0.287V23.256z M17.809,23.256h0.287v-0.292h-0.287V23.256z M20.106,23.256h0.287v-0.292h-0.287V23.256z
	 M23.837,22.964H23.55v0.292h0.287V22.964z M17.234,23.256h0.288v-0.292h-0.288V23.256z M19.531,23.256h0.288v-0.292h-0.288V23.256z
	 M6.039,22.964H5.747v0.292h0.292V22.964z M6.039,16.071H5.747v0.287h0.292V16.071z M6.039,17.22H5.747v0.287h0.292V17.22z
	 M6.039,16.646H5.747v0.287h0.292V16.646z M6.039,17.794H5.747v0.287h0.292V17.794z M6.039,15.497H5.747v0.288h0.292V15.497z
	 M6.039,14.348H5.747v0.288h0.292V14.348z M6.039,18.369H5.747v0.287h0.292V18.369z M6.039,14.922H5.747v0.287h0.292V14.922z
	 M6.039,20.666H5.747v0.288h0.292V20.666z M6.039,21.241H5.747v0.286h0.292V21.241z M6.039,13.773H5.747v0.288h0.292V13.773z
	 M6.039,22.389H5.747v0.288h0.292V22.389z M6.039,18.943H5.747v0.288h0.292V18.943z M6.039,19.518H5.747v0.288h0.292V19.518z
	 M6.039,20.092H5.747v0.287h0.292V20.092z M6.039,21.815H5.747v0.287h0.292V21.815z M6.039,7.455H5.747v0.288h0.292V7.455z
	 M6.039,8.03H5.747v0.287h0.292V8.03z M6.039,8.604H5.747v0.288h0.292V8.604z M6.039,6.88H5.747v0.288h0.292V6.88z M6.039,6.307
	H5.747v0.287h0.292V6.307z M6.039,13.199H5.747v0.286h0.292V13.199z M6.039,9.179H5.747v0.287h0.292V9.179z M6.039,9.753H5.747
	v0.287h0.292V9.753z M6.039,12.625H5.747v0.288h0.292V12.625z M6.039,12.051H5.747v0.287h0.292V12.051z M6.039,11.476H5.747v0.287
	h0.292V11.476z M6.039,10.328H5.747v0.287h0.292V10.328z M6.039,10.901H5.747v0.287h0.292V10.901z M6.039,5.728H5.747V6.02h0.292
	V5.728z M24.412,5.728h-0.287V6.02h0.287V5.728z M25.56,5.728h-0.287V6.02h0.287V5.728z M24.986,5.728h-0.287V6.02h0.287V5.728z
	 M10.058,5.728H9.77V6.02h0.288V5.728z M13.502,5.728h-0.287V6.02h0.287V5.728z M15.225,5.728h-0.287V6.02h0.287V5.728z
	 M14.078,5.728H13.79V6.02h0.288V5.728z M14.651,5.728h-0.287V6.02h0.287V5.728z M16.373,5.728h-0.287V6.02h0.287V5.728z
	 M15.8,5.728h-0.288V6.02H15.8V5.728z M19.819,5.728h-0.288V6.02h0.288V5.728z M19.244,5.728h-0.287V6.02h0.287V5.728z
	 M18.096,5.728h-0.287V6.02h0.287V5.728z M17.521,5.728h-0.287V6.02h0.287V5.728z M16.949,5.728h-0.287V6.02h0.287V5.728z
	 M18.669,5.728h-0.287V6.02h0.287V5.728z M8.909,5.728H8.622V6.02h0.287V5.728z M8.335,5.728H8.048V6.02h0.287V5.728z M7.761,5.728
	H7.474V6.02h0.287V5.728z M7.186,5.728H6.899V6.02h0.287V5.728z M6.613,5.728H6.326V6.02h0.287V5.728z M11.78,5.728h-0.287V6.02
	h0.287V5.728z M12.929,5.728h-0.287V6.02h0.287V5.728z M12.355,5.728h-0.288V6.02h0.288V5.728z M10.632,5.728h-0.287V6.02h0.287
	V5.728z M9.483,5.728H9.196V6.02h0.287V5.728z M11.206,5.728h-0.287V6.02h0.287V5.728z M20.966,5.728H20.68V6.02h0.286V5.728z
	 M22.117,5.728H21.83V6.02h0.287V5.728z M21.541,5.728h-0.287V6.02h0.287V5.728z M23.837,5.728H23.55V6.02h0.287V5.728z
	 M22.689,5.728h-0.287V6.02h0.287V5.728z M23.264,5.728h-0.287V6.02h0.287V5.728z M20.393,5.728h-0.287V6.02h0.287V5.728z
	 M26.139,5.728h-0.291V6.02h0.291V5.728z M26.139,18.369h-0.291v0.287h0.291V18.369z M26.139,18.943h-0.291v0.288h0.291V18.943z
	 M26.139,17.22h-0.291v0.287h0.291V17.22z M26.139,16.646h-0.291v0.287h0.291V16.646z M26.139,17.794h-0.291v0.287h0.291V17.794z
	 M26.139,19.518h-0.291v0.287h0.291V19.518z M26.139,21.241h-0.291v0.286h0.291V21.241z M26.139,20.092h-0.291v0.287h0.291V20.092z
	 M26.139,22.389h-0.291v0.288h0.291V22.389z M26.139,21.815h-0.291v0.287h0.291V21.815z M26.139,20.666h-0.291v0.288h0.291V20.666z
	 M26.139,16.071h-0.291v0.287h0.291V16.071z M26.139,14.348h-0.291v0.288h0.291V14.348z M26.139,15.497h-0.291v0.288h0.291V15.497z
	 M26.139,8.03h-0.291v0.287h0.291V8.03z M26.139,9.178h-0.291v0.287h0.291V9.178z M26.139,8.604h-0.291v0.288h0.291V8.604z
	 M26.139,9.753h-0.291v0.287h0.291V9.753z M26.139,10.901h-0.291v0.287h0.291V10.901z M26.139,12.051h-0.291v0.287h0.291V12.051z
	 M26.139,11.476h-0.291v0.287h0.291V11.476z M26.139,10.328h-0.291v0.287h0.291V10.328z M26.139,12.625h-0.291v0.287h0.291V12.625z
	 M26.139,13.773h-0.291v0.288h0.291V13.773z M26.139,14.922h-0.291v0.287h0.291V14.922z M26.139,13.199h-0.291v0.286h0.291V13.199z
	 M26.139,6.88h-0.291v0.288h0.291V6.88z M26.139,6.307h-0.291v0.287h0.291V6.307z M26.139,7.455h-0.291v0.288h0.291V7.455z
	 M31.696,19.911c0.276,0.354,0.341,1.056-0.083,1.49c-0.689,0.703-2.091-0.155-2.386-0.545c-0.147-0.202-0.528-0.558-0.953-1.307
	c-0.021-0.035-0.096-0.185-0.168-0.339v0.016c0,0.004,0.001,0.009,0.002,0.011l0.108,0.713c0.16,1.706,0.312,3.059,0.502,4.135
	l0.062,0.003l0.114,0.012l0.113,0.019l0.113,0.023l0.057,0.016l0.056,0.018l0.056,0.019l0.055,0.021l0.055,0.023l0.055,0.025
	l0.053,0.029l0.052,0.03l0.052,0.032l0.051,0.036l0.051,0.037l0.049,0.041l0.047,0.044l0.047,0.046l0.045,0.049l0.045,0.053
	l0.043,0.055l0.042,0.058c0,0-0.038,0.019-0.1,0.047c-0.031,0.014-0.068,0.028-0.109,0.047c-0.041,0.016-0.087,0.031-0.135,0.051
	l-0.074,0.023l-0.077,0.022l-0.078,0.02L29.376,25L29.3,25.015l-0.038,0.004l-0.037,0.002h-0.036l-0.034-0.002l-0.034-0.004
	l-0.031-0.006c0,0,0.018,0.01,0.05,0.029c0.016,0.01,0.036,0.021,0.058,0.036c0.021,0.014,0.047,0.031,0.074,0.05
	c0.025,0.021,0.055,0.043,0.085,0.065c0.015,0.015,0.03,0.027,0.046,0.04l0.047,0.042l0.049,0.046l0.049,0.052l0.05,0.055
	l0.048,0.059l0.048,0.063l0.045,0.066l0.044,0.071l0.042,0.075l0.038,0.08l0.035,0.084l0.031,0.089l0.025,0.092
	c0.008,0.033,0.014,0.065,0.021,0.099c0.005,0.033,0.011,0.067,0.016,0.102c0.004,0.035,0.006,0.07,0.01,0.106
	c0,0.035,0.002,0.072,0.002,0.11c0,0.037-0.002,0.075-0.004,0.115c-0.002,0.039-0.006,0.079-0.011,0.12
	c-0.007,0.041-0.013,0.082-0.021,0.125c-0.008,0.042-0.018,0.085-0.027,0.129c-0.044,0.01-0.087,0.019-0.129,0.028
	c-0.043,0.007-0.085,0.014-0.125,0.02c-0.041,0.004-0.082,0.009-0.121,0.012c-0.04,0.002-0.078,0.004-0.116,0.005
	c-0.038-0.001-0.075-0.003-0.11-0.004c-0.037-0.003-0.071-0.006-0.106-0.009c-0.035-0.005-0.069-0.011-0.103-0.016
	c-0.032-0.007-0.065-0.014-0.098-0.021c-0.031-0.009-0.062-0.018-0.093-0.025l-0.089-0.031l-0.084-0.035l-0.08-0.039l-0.076-0.041
	l-0.07-0.044l-0.067-0.046l-0.063-0.047l-0.059-0.048l-0.055-0.049l-0.051-0.05l-0.047-0.048l-0.043-0.047
	c-0.014-0.016-0.027-0.031-0.039-0.046c-0.023-0.03-0.046-0.06-0.066-0.086c-0.019-0.027-0.035-0.052-0.051-0.073
	c-0.014-0.022-0.025-0.042-0.035-0.058c-0.019-0.032-0.028-0.051-0.028-0.051l0.006,0.031l0.003,0.033l0.002,0.035v0.036
	l-0.002,0.037l-0.003,0.038l-0.011,0.077l-0.016,0.078l-0.02,0.078l-0.021,0.077l-0.024,0.074c-0.017,0.049-0.035,0.093-0.05,0.135
	c-0.018,0.041-0.032,0.078-0.047,0.109c-0.027,0.061-0.045,0.099-0.045,0.099l-0.059-0.042l-0.055-0.043l-0.053-0.044l-0.049-0.046
	l-0.046-0.046l-0.043-0.048l-0.04-0.049l-0.037-0.051l-0.037-0.051l-0.033-0.052l-0.029-0.052l-0.029-0.054l-0.025-0.054
	l-0.022-0.054l-0.022-0.056l-0.019-0.055l-0.017-0.056l-0.016-0.057l-0.025-0.112l-0.018-0.113l-0.012-0.114l-0.005-0.112v-0.112
	l0.005-0.11l0.009-0.108l0.013-0.105l0.016-0.103c0.001-0.009,0.003-0.016,0.004-0.023h-0.779v0.882
	c-0.424,0.187-0.748,0.408-0.984,0.693c-0.572,0.684-1.205,0.754-1.395-0.083c-0.199-0.857,0.741-1.133,0.741-1.133
	c-2.045,0.295-2.153,1.722-2.153,1.722s0.215-0.038,0.413,0.255c0.286,0.423,0.13,1.024-0.069,1.254
	c-0.226,0.275-0.672,0.339-0.948-0.083c-0.446-0.69,0.099-2.091,0.347-2.386c0.129-0.148,0.355-0.529,0.831-0.953
	c0.022-0.02,0.117-0.096,0.215-0.168h-0.01c-0.003,0-0.006,0.001-0.007,0.002l-0.453,0.108c-1.545,0.227-2.643,0.437-3.408,0.771
	c-0.424,0.187-0.747,0.408-0.984,0.693c-0.071,0.085-0.144,0.162-0.215,0.227c-0.219,0.198-0.436,0.304-0.625,0.303
	c-0.254-0.003-0.459-0.193-0.555-0.612c-0.197-0.857,0.742-1.133,0.742-1.133c-2.045,0.295-2.154,1.722-2.154,1.722
	s0.215-0.038,0.414,0.255c0.286,0.423,0.129,1.024-0.07,1.254c-0.225,0.275-0.672,0.339-0.948-0.083
	c-0.028-0.043-0.051-0.089-0.072-0.138c-0.307-0.724,0.187-1.973,0.419-2.249c0.096-0.11,0.247-0.353,0.518-0.646
	c0.091-0.099,0.194-0.201,0.313-0.308c0.023-0.02,0.118-0.096,0.216-0.168h-0.01c-0.002,0-0.005,0.001-0.007,0.002l-0.453,0.108
	c-1.545,0.227-2.643,0.437-3.408,0.771c-0.424,0.187-0.748,0.408-0.985,0.693c-0.572,0.684-1.205,0.754-1.394-0.083
	c-0.199-0.857,0.741-1.133,0.741-1.133C8.839,25.83,8.73,27.257,8.73,27.257s0.217-0.038,0.415,0.255
	c0.286,0.423,0.13,1.024-0.07,1.254c-0.225,0.275-0.672,0.339-0.948-0.083c-0.446-0.69,0.099-2.091,0.347-2.386
	c0.127-0.148,0.354-0.529,0.83-0.953c0.022-0.02,0.118-0.096,0.215-0.168h-0.01c-0.002,0-0.005,0.001-0.007,0.002l-0.453,0.108
	c-1.545,0.227-2.643,0.437-3.408,0.771v-0.882H4.853c0.002,0.007,0.003,0.014,0.005,0.021L4.874,25.3l0.013,0.104l0.008,0.108
	l0.005,0.11v0.111l-0.006,0.112L4.883,25.96l-0.019,0.114l-0.025,0.112l-0.015,0.057l-0.017,0.056l-0.02,0.055l-0.021,0.056
	l-0.023,0.054l-0.025,0.054L4.689,26.57l-0.03,0.054l-0.033,0.052l-0.035,0.051l-0.038,0.05l-0.041,0.05l-0.043,0.048l-0.046,0.046
	l-0.049,0.046l-0.052,0.044l-0.055,0.043l-0.058,0.042c0,0-0.017-0.038-0.046-0.099c-0.013-0.031-0.028-0.068-0.046-0.109
	c-0.016-0.042-0.032-0.088-0.051-0.135l-0.024-0.074L4.02,26.6L4,26.522l-0.018-0.076l-0.01-0.076l-0.004-0.038l-0.001-0.037v-0.036
	l0.001-0.035l0.004-0.033l0.006-0.032c0,0-0.01,0.018-0.029,0.051c-0.01,0.016-0.022,0.035-0.036,0.057
	c-0.015,0.022-0.032,0.047-0.051,0.074c-0.02,0.025-0.042,0.054-0.066,0.085c-0.013,0.014-0.026,0.03-0.039,0.046l-0.042,0.047
	l-0.046,0.049l-0.051,0.05l-0.055,0.049l-0.059,0.048l-0.063,0.047l-0.067,0.046l-0.071,0.043L3.228,26.89l-0.08,0.038l-0.084,0.035
	l-0.089,0.031L2.883,27.02c-0.033,0.007-0.065,0.015-0.098,0.021c-0.034,0.005-0.067,0.011-0.102,0.016
	c-0.035,0.003-0.07,0.006-0.106,0.009c-0.036,0.002-0.073,0.002-0.111,0.003c-0.038-0.001-0.076-0.002-0.116-0.003
	c-0.039-0.005-0.079-0.008-0.12-0.012c-0.041-0.006-0.082-0.013-0.125-0.02c-0.042-0.009-0.085-0.018-0.129-0.027
	c-0.01-0.045-0.019-0.088-0.028-0.13c-0.008-0.043-0.014-0.084-0.021-0.125c-0.003-0.041-0.008-0.081-0.011-0.121
	c-0.001-0.039-0.003-0.077-0.004-0.115c0.001-0.038,0.002-0.075,0.003-0.111c0.003-0.035,0.006-0.07,0.009-0.105
	c0.006-0.035,0.011-0.069,0.016-0.103c0.007-0.032,0.014-0.065,0.021-0.098c0.009-0.031,0.018-0.062,0.026-0.093l0.031-0.088
	l0.035-0.084l0.039-0.08l0.041-0.076l0.044-0.071l0.046-0.066l0.05-0.064l0.048-0.059l0.049-0.056l0.049-0.05l0.048-0.047
	l0.048-0.042c0.015-0.014,0.03-0.027,0.045-0.039c0.031-0.023,0.06-0.046,0.086-0.065c0.027-0.02,0.052-0.036,0.073-0.052
	c0.023-0.015,0.042-0.026,0.058-0.035c0.033-0.019,0.051-0.028,0.051-0.028l-0.032,0.006l-0.034,0.003l-0.035,0.002H2.691
	l-0.037-0.002l-0.038-0.003l-0.077-0.011L2.46,24.982l-0.078-0.02L2.305,24.94l-0.074-0.023c-0.048-0.019-0.093-0.035-0.135-0.05
	c-0.041-0.019-0.078-0.033-0.109-0.047c-0.061-0.027-0.099-0.046-0.099-0.046l0.042-0.058l0.044-0.055l0.044-0.053l0.045-0.049
	l0.047-0.046l0.048-0.044l0.048-0.04l0.05-0.038l0.051-0.036l0.052-0.032l0.052-0.03l0.053-0.028l0.052-0.024
	c-0.087-0.172-0.179-0.329-0.282-0.464c-0.684-0.9-0.754-1.896,0.083-2.193C3.174,21.27,3.45,22.75,3.45,22.75
	c-0.295-3.219-1.722-3.393-1.722-3.393s0.038,0.342-0.255,0.653c-0.423,0.45-1.024,0.203-1.254-0.11
	c-0.275-0.354-0.339-1.057,0.083-1.491c0.691-0.702,2.091,0.154,2.386,0.545c0.148,0.202,0.529,0.558,0.953,1.307
	c0.02,0.035,0.096,0.185,0.168,0.339v-0.016c0-0.004-0.001-0.008-0.002-0.011L3.699,19.86c-0.227-2.43-0.437-4.157-0.771-5.361
	c-0.186-0.668-0.408-1.177-0.693-1.549c-0.684-0.901-0.754-1.897,0.083-2.195c0.857-0.313,1.133,1.167,1.133,1.167
	C3.156,8.702,1.729,8.53,1.729,8.53S1.767,8.87,1.474,9.183C1.051,9.633,0.45,9.385,0.22,9.072c-0.276-0.354-0.339-1.057,0.083-1.49
	c0.691-0.703,2.091,0.154,2.386,0.545c0.147,0.201,0.528,0.558,0.953,1.307c0.02,0.035,0.096,0.186,0.168,0.339V9.756
	c0-0.003-0.001-0.008-0.003-0.011L3.699,9.033C3.54,7.327,3.388,5.973,3.196,4.898l-0.06-0.003L3.023,4.884L2.909,4.865L2.796,4.84
	L2.74,4.825L2.684,4.808L2.629,4.789L2.574,4.768L2.52,4.744L2.466,4.718L2.413,4.69L2.36,4.659L2.307,4.628L2.256,4.593
	l-0.05-0.038L2.157,4.514L2.11,4.47L2.063,4.424L2.017,4.375L1.973,4.323L1.93,4.268L1.889,4.21c0,0,0.038-0.019,0.099-0.047
	C2.019,4.15,2.056,4.135,2.097,4.117c0.041-0.016,0.087-0.032,0.135-0.051l0.074-0.024L2.383,4.02L2.461,4L2.54,3.983l0.076-0.011
	l0.038-0.003l0.037-0.001l0.036-0.001l0.035,0.002l0.034,0.003l0.032,0.007c0,0-0.018-0.011-0.051-0.028
	C2.761,3.94,2.742,3.928,2.72,3.913S2.673,3.881,2.646,3.863C2.621,3.842,2.592,3.82,2.561,3.797
	c-0.015-0.013-0.03-0.026-0.046-0.04L2.468,3.715L2.419,3.669L2.37,3.618L2.32,3.563L2.273,3.505L2.225,3.442L2.179,3.375
	L2.136,3.304L2.094,3.228l-0.039-0.08L2.021,3.064L1.99,2.975L1.963,2.883C1.956,2.85,1.949,2.818,1.942,2.785
	C1.937,2.751,1.931,2.717,1.927,2.683c-0.004-0.035-0.007-0.07-0.01-0.105c-0.002-0.036-0.002-0.073-0.003-0.11
	C1.915,2.429,1.916,2.39,1.917,2.35c0.005-0.039,0.008-0.079,0.012-0.12c0.006-0.04,0.012-0.081,0.019-0.124
	c0.01-0.042,0.019-0.085,0.029-0.129c0.044-0.01,0.087-0.019,0.129-0.028c0.042-0.008,0.084-0.014,0.125-0.02
	C2.272,1.925,2.312,1.92,2.352,1.917c0.039-0.001,0.077-0.003,0.115-0.004c0.038,0.001,0.075,0.002,0.111,0.003
	C2.614,1.919,2.65,1.922,2.684,1.925c0.035,0.006,0.068,0.011,0.102,0.016c0.033,0.008,0.066,0.016,0.098,0.021
	C2.916,1.971,2.946,1.98,2.977,1.988l0.088,0.031l0.084,0.034l0.08,0.039l0.076,0.041l0.071,0.044l0.067,0.046l0.063,0.048
	l0.059,0.048l0.056,0.051l0.05,0.048l0.047,0.048L3.76,2.514c0.014,0.015,0.027,0.03,0.039,0.045
	c0.024,0.03,0.046,0.061,0.066,0.086c0.019,0.026,0.037,0.051,0.052,0.072C3.93,2.74,3.943,2.759,3.953,2.775
	c0.018,0.032,0.028,0.052,0.028,0.052L3.975,2.794L3.971,2.76L3.969,2.725V2.689l0.002-0.036l0.003-0.037l0.011-0.076L4,2.46
	l0.02-0.078l0.022-0.076l0.025-0.074c0.018-0.048,0.035-0.093,0.05-0.135C4.135,2.056,4.15,2.019,4.163,1.988
	c0.028-0.061,0.046-0.099,0.046-0.099L4.268,1.93l0.054,0.044l0.053,0.044l0.048,0.045L4.47,2.11l0.043,0.049l0.041,0.049
	l0.038,0.05l0.035,0.051L4.66,2.36l0.03,0.053l0.028,0.053l0.026,0.054l0.024,0.056l0.021,0.055l0.02,0.055L4.826,2.74L4.84,2.796
	l0.026,0.113l0.017,0.111l0.012,0.114L4.9,3.248V3.36L4.896,3.471L4.887,3.579L4.874,3.684L4.858,3.787
	C4.856,3.795,4.855,3.802,4.854,3.81h0.779V2.928C6.058,2.742,6.381,2.52,6.618,2.235C7.19,1.55,7.822,1.48,8.012,2.317
	C8.211,3.174,7.271,3.45,7.271,3.45c2.045-0.294,2.154-1.722,2.154-1.722S9.21,1.767,9.012,1.474C8.726,1.051,8.883,0.45,9.082,0.22
	c0.225-0.276,0.671-0.339,0.948,0.083c0.446,0.691-0.099,2.091-0.347,2.386C9.554,2.837,9.328,3.218,8.852,3.642
	C8.83,3.662,8.734,3.738,8.636,3.81h0.01c0.003,0,0.005-0.001,0.008-0.002l0.45-0.108c1.545-0.228,2.643-0.438,3.408-0.771
	c0.424-0.186,0.748-0.408,0.985-0.693c0.071-0.085,0.143-0.161,0.216-0.227c0.218-0.197,0.435-0.303,0.625-0.302
	c0.253,0.002,0.458,0.192,0.553,0.611c0.199,0.857-0.741,1.134-0.741,1.134c2.046-0.295,2.155-1.723,2.155-1.723
	s-0.217,0.038-0.415-0.255c-0.286-0.423-0.129-1.023,0.07-1.254c0.225-0.276,0.672-0.339,0.948,0.083
	c0.057,0.086,0.098,0.184,0.125,0.288c0.191,0.735-0.254,1.84-0.47,2.098c-0.128,0.148-0.355,0.529-0.831,0.953
	c-0.022,0.021-0.118,0.096-0.215,0.168h0.01c0.003,0,0.005-0.001,0.008-0.003l0.453-0.107c1.545-0.228,2.643-0.438,3.407-0.771
	c0.424-0.186,0.748-0.408,0.985-0.693c0.572-0.685,1.203-0.755,1.394,0.082c0.198,0.857-0.741,1.134-0.741,1.134
	c2.045-0.296,2.154-1.723,2.154-1.723s-0.216,0.038-0.414-0.255c-0.287-0.423-0.13-1.023,0.068-1.254
	c0.226-0.276,0.673-0.339,0.949,0.083c0.445,0.691-0.099,2.091-0.347,2.386c-0.128,0.148-0.354,0.529-0.83,0.953
	c-0.024,0.021-0.118,0.096-0.216,0.168h0.01c0.004,0,0.006-0.001,0.008-0.002l0.453-0.107c1.545-0.228,2.643-0.438,3.407-0.771
	v0.881h0.788c-0.001-0.007-0.003-0.014-0.004-0.021l-0.016-0.104l-0.012-0.104l-0.01-0.108l-0.005-0.11V3.249l0.005-0.113
	l0.012-0.114l0.018-0.112l0.025-0.113l0.014-0.056l0.018-0.057l0.02-0.055l0.021-0.055l0.024-0.055l0.025-0.054l0.028-0.053
	l0.03-0.054l0.033-0.053l0.035-0.051l0.038-0.05l0.04-0.049l0.043-0.049l0.047-0.047l0.049-0.045l0.051-0.044l0.056-0.043
	l0.06-0.041c0,0,0.017,0.037,0.045,0.099c0.014,0.031,0.029,0.068,0.047,0.109c0.015,0.041,0.031,0.087,0.05,0.135l0.024,0.075
	l0.023,0.077l0.02,0.078l0.017,0.078l0.011,0.076l0.004,0.037l0.002,0.037v0.036l-0.002,0.034l-0.005,0.034l-0.005,0.032
	c0,0,0.01-0.019,0.027-0.052c0.011-0.015,0.022-0.034,0.037-0.057c0.014-0.022,0.031-0.047,0.05-0.074
	c0.021-0.024,0.043-0.054,0.065-0.085c0.014-0.014,0.026-0.03,0.039-0.046l0.043-0.047l0.047-0.048l0.051-0.049l0.055-0.051
	l0.061-0.048l0.062-0.048l0.066-0.045l0.071-0.044l0.076-0.042l0.08-0.039l0.083-0.034l0.089-0.03l0.093-0.026
	c0.031-0.007,0.064-0.014,0.098-0.021c0.033-0.005,0.068-0.01,0.102-0.016c0.034-0.003,0.07-0.006,0.105-0.009
	c0.037-0.001,0.074-0.002,0.111-0.003c0.037,0.001,0.075,0.003,0.115,0.004c0.038,0.003,0.079,0.007,0.12,0.011
	c0.041,0.006,0.083,0.013,0.125,0.02c0.042,0.01,0.085,0.019,0.129,0.028c0.009,0.044,0.019,0.087,0.028,0.129
	c0.007,0.043,0.014,0.085,0.02,0.125C29.992,2.272,29.996,2.312,30,2.352c0.002,0.039,0.002,0.077,0.004,0.115
	C30.001,2.505,30.001,2.542,30,2.578s-0.006,0.07-0.008,0.105c-0.006,0.035-0.012,0.069-0.017,0.103
	c-0.007,0.032-0.015,0.065-0.021,0.098c-0.01,0.031-0.019,0.062-0.026,0.093l-0.031,0.088l-0.035,0.084l-0.038,0.08l-0.041,0.076
	l-0.044,0.071l-0.046,0.066l-0.047,0.063l-0.049,0.06l-0.049,0.056L29.5,3.671l-0.049,0.046L29.404,3.76
	c-0.016,0.014-0.031,0.027-0.046,0.039c-0.03,0.024-0.06,0.046-0.085,0.067c-0.027,0.018-0.052,0.034-0.074,0.05
	c-0.021,0.014-0.041,0.025-0.057,0.036C29.11,3.97,29.091,3.98,29.091,3.98l0.031-0.007l0.033-0.003l0.035-0.002h0.036l0.037,0.002
	l0.038,0.003l0.076,0.011L29.457,4l0.078,0.02l0.074,0.023l0.074,0.023c0.048,0.018,0.093,0.035,0.135,0.051
	c0.041,0.018,0.078,0.032,0.109,0.046c0.061,0.027,0.1,0.046,0.1,0.046l-0.042,0.058l-0.042,0.055l-0.045,0.053l-0.045,0.049
	l-0.046,0.046l-0.048,0.043L29.71,4.553L29.66,4.591l-0.051,0.036L29.558,4.66L29.505,4.69l-0.053,0.028L29.4,4.743
	c0.088,0.17,0.18,0.328,0.282,0.463c0.685,0.9,0.755,1.895-0.083,2.193c-0.855,0.313-1.133-1.167-1.133-1.167
	c0.295,3.22,1.722,3.392,1.722,3.392s-0.039-0.34,0.255-0.652c0.424-0.45,1.023-0.203,1.254,0.111
	c0.276,0.354,0.34,1.056-0.083,1.491c-0.69,0.701-2.091-0.155-2.386-0.546c-0.146-0.201-0.527-0.558-0.953-1.307
	c-0.02-0.035-0.096-0.185-0.168-0.339V8.4c0,0.003,0.001,0.009,0.002,0.011l0.109,0.713c0.227,2.43,0.438,4.156,0.771,5.361
	c0.187,0.667,0.408,1.177,0.693,1.55c0.685,0.9,0.755,1.896-0.083,2.194c-0.855,0.313-1.133-1.167-1.133-1.167
	c0.295,3.221,1.722,3.393,1.722,3.393s-0.039-0.34,0.255-0.653C30.867,19.351,31.466,19.598,31.696,19.911z M26.65,5.267H5.267
	v18.45H26.65V5.267z M22.183,8.853l-0.404-0.42L9.174,20.596l0.405,0.42L22.183,8.853z M13.324,13.305l0.404,0.419l5.807-5.604
	L19.131,7.7L13.324,13.305z M17.441,15.274l-5.809,5.602l0.404,0.419l5.81-5.602L17.441,15.274z"/>
</svg>
