<?xml version="1.0" encoding="iso-8859-1"?>
<!-- Generator: Adobe Illustrator 16.0.0, SVG Export Plug-In . SVG Version: 6.00 Build 0)  -->
<!DOCTYPE svg PUBLIC "-//W3C//DTD SVG 1.1//EN" "http://www.w3.org/Graphics/SVG/1.1/DTD/svg11.dtd">
<svg version="1.1" id="Layer_1" xmlns="http://www.w3.org/2000/svg" xmlns:xlink="http://www.w3.org/1999/xlink" x="0px" y="0px"
	 width="31.589px" height="29.269px" viewBox="0 0 31.589 29.269" style="enable-background:new 0 0 31.589 29.269;"
	 xml:space="preserve">
<g>
	<path d="M29.629,9.804c-0.168-0.329-0.447-0.652-0.772-0.485c-0.015,0.007-0.092,0.047-0.214,0.109
		c-0.094,0.048-0.21,0.108-0.361,0.186l-12.33,6.319c0.014-0.057,0.022-0.112,0.038-0.169c0.23-0.552,3.737-15.069,3.737-15.069
		L19.615,0l-5.221,12.785l0.761,1.812l-0.938,2.226L4.57,21.767c-0.346,0.178-0.549,0.282-0.574,0.294
		c-0.325,0.167-0.226,0.583-0.058,0.91c0.168,0.329,1.858,3.467,2.089,3.918c0.558-0.219,0.591-0.556,0.411-0.908
		c-0.181-0.352-1.384-2.7-1.384-2.7s0.083-0.042,0.232-0.119l0.296-0.152l1.577,3.077l0.445-0.229l-1.577-3.077l0.373-0.19
		l1.578,3.077l0.445-0.228l-1.577-3.077l0.313-0.161l1.577,3.077l0.445-0.228l-1.577-3.077l0.374-0.191l1.577,3.077l0.446-0.229
		l-1.577-3.077l0.385-0.198l1.577,3.077l0.445-0.228l-1.577-3.078l0.373-0.191l1.566,3.055c-0.029,0.057-0.062,0.113-0.089,0.172
		c-0.726,1.559-0.416,3.354,0.752,4.363c0.212,0.184,0.449,0.337,0.703,0.455c0.824,0.384,1.764,0.38,2.646-0.01
		c0.858-0.379,1.56-1.082,1.978-1.979c0.618-1.328,0.482-2.824-0.292-3.864c-0.077-0.15-0.38-0.775-0.661-1.692l0.222-0.114
		l-0.505-0.986c-0.09-0.428-0.165-0.886-0.207-1.374l1.106,2.158l0.445-0.228l-1.578-3.077l0.374-0.191l1.577,3.077l0.446-0.228
		l-1.577-3.077l0.314-0.162l1.577,3.076l0.446-0.227l-1.577-3.077l0.373-0.192l1.578,3.077l0.445-0.228L18.11,16.59l0.386-0.197
		l1.578,3.077l0.445-0.228l-1.577-3.077l0.374-0.191l1.577,3.077l0.445-0.229l-1.578-3.077l0.365-0.188l1.577,3.078l0.445-0.228
		L20.57,15.33l0.374-0.191l1.577,3.076l0.445-0.229l-1.577-3.076l0.386-0.198l1.577,3.077l0.446-0.228l-1.578-3.077l0.373-0.192
		l1.578,3.078l0.445-0.228l-1.578-3.077l0.394-0.202l1.578,3.077l0.445-0.229l-1.578-3.077l0.374-0.191l1.577,3.077l0.446-0.228
		l-1.577-3.077l0.314-0.162l1.577,3.078l0.445-0.229l-1.578-3.077l0.374-0.191l1.577,3.076l0.445-0.228l-1.577-3.077l0.386-0.198
		l1.577,3.077l0.445-0.228l-1.577-3.077l0.372-0.191l1.577,3.077l0.445-0.229l-1.577-3.077l0.39-0.2l1.577,3.077l0.445-0.228
		l-1.577-3.077l0.241-0.124c0.15-0.076,0.233-0.119,0.233-0.119s1.203,2.348,1.384,2.699c0.18,0.353,0.472,0.523,0.976,0.197
		C31.358,13.336,29.798,10.132,29.629,9.804z M15.211,12.499c0.207-0.239,0.568-0.266,0.807-0.059
		c0.239,0.207,0.266,0.569,0.059,0.808c-0.207,0.239-0.568,0.266-0.808,0.059C15.03,13.1,15.004,12.738,15.211,12.499z
		 M13.268,19.071l-0.023,0.058l-0.018-0.036L13.268,19.071z M12.781,19.321l0.21,0.409l-0.213,0.505l-0.37-0.722L12.781,19.321z
		 M11.963,19.741l0.562,1.096l-0.178,0.424l-0.697-1.359L11.963,19.741z M11.203,20.13l0.889,1.733l-0.212,0.503l-1.048-2.046
		L11.203,20.13z M10.386,20.55l1.24,2.418l-0.179,0.424l-1.375-2.682L10.386,20.55z M16.199,26.538
		c-0.307,0.657-0.815,1.17-1.432,1.443c-0.592,0.261-1.213,0.269-1.75,0.019c-0.162-0.076-0.315-0.175-0.451-0.292
		c-0.803-0.694-1-1.962-0.478-3.083c0.307-0.658,0.815-1.171,1.432-1.444c0.591-0.261,1.213-0.268,1.749-0.019
		c0.164,0.077,0.315,0.174,0.452,0.292C16.524,24.147,16.721,25.416,16.199,26.538z"/>
	<path d="M16.897,14.04l11.26-6.657L27.42,7.396c0,0-5.67,2.313-9.872,4.051C17.302,12.439,17.077,13.335,16.897,14.04z"/>
	<path d="M5.451,19.275c0.005-0.003,0.011-0.008,0.016-0.011c-0.006,0.014-0.009,0.022-0.009,0.022l8.939-5.296l0.006,0.001
		l-0.439-1.045c-0.466,0.198-0.766,0.331-0.833,0.371c-3.519,1.443-7.236,0.141-7.501,0.044c-1.124-0.583-2.588-0.503-3.79,0.265
		c-0.834,0.533-1.437,1.322-1.699,2.223c-0.27,0.926-0.147,1.858,0.342,2.624c0.158,0.248,0.351,0.47,0.573,0.662
		C2.21,20.133,4.019,20.191,5.451,19.275z M1.764,18.312c-0.142-0.123-0.265-0.266-0.366-0.424
		c-0.319-0.499-0.395-1.115-0.214-1.737c0.188-0.647,0.629-1.219,1.24-1.61c1.031-0.659,2.307-0.639,3.102,0.048
		c0.143,0.123,0.266,0.266,0.368,0.424c0.318,0.499,0.394,1.115,0.214,1.736c-0.188,0.647-0.629,1.219-1.241,1.61
		C3.835,19.019,2.56,19,1.764,18.312z"/>
</g>
<g>
</g>
<g>
</g>
<g>
</g>
<g>
</g>
<g>
</g>
<g>
</g>
<g>
</g>
<g>
</g>
<g>
</g>
<g>
</g>
<g>
</g>
<g>
</g>
<g>
</g>
<g>
</g>
<g>
</g>
</svg>
