<?xml version="1.0" encoding="iso-8859-1"?>
<!-- Generator: Adobe Illustrator 16.0.0, SVG Export Plug-In . SVG Version: 6.00 Build 0)  -->
<!DOCTYPE svg PUBLIC "-//W3C//DTD SVG 1.1//EN" "http://www.w3.org/Graphics/SVG/1.1/DTD/svg11.dtd">
<svg version="1.1" id="Layer_1" xmlns="http://www.w3.org/2000/svg" xmlns:xlink="http://www.w3.org/1999/xlink" x="0px" y="0px"
	 width="31.892px" height="30.06px" viewBox="0 0 31.892 30.06" style="enable-background:new 0 0 31.892 30.06;"
	 xml:space="preserve">
<path d="M28.415,19.753c-0.167-0.544-0.45-1.055-0.858-1.484c-1.103-1.151-2.782-1.453-4.125-0.796
	c-0.011,0.001-0.017-0.003-0.029,0c-1.519,0.682-3.895-0.752-5.109-1.146c-0.666-0.215-1.273-0.683-1.857-1.098
	c0.922,0.06,1.893,0.555,2.344,0.79c0.088,0.046,0.165,0.004,0.113-0.057c-0.414-0.484-0.755-0.934-0.96-1.359l1.168,1.063
	l0.159-0.175l-1.498-1.363c-0.026-0.118-0.036-0.234-0.032-0.349l1.688,1.537l0.159-0.175l-1.804-1.641
	c0.02-0.074,0.048-0.148,0.084-0.221l1.868,1.699l0.16-0.175l-1.904-1.731c0.045-0.062,0.093-0.122,0.149-0.184l1.914,1.741
	l0.159-0.175l-1.915-1.741c0.046-0.051,0.1-0.109,0.16-0.175l1.915,1.741l0.159-0.174l-1.914-1.742
	c0.046-0.05,0.097-0.106,0.148-0.163l1.914,1.742l0.159-0.175l-1.914-1.741c0.042-0.047,0.086-0.095,0.131-0.146l1.914,1.742
	l0.159-0.175l-1.914-1.741c0.052-0.058,0.105-0.116,0.159-0.175l1.914,1.742l0.159-0.175l-1.914-1.742
	c0.049-0.053,0.098-0.107,0.148-0.163l1.914,1.741l0.159-0.175L19.83,11.02c0.052-0.058,0.104-0.116,0.158-0.175l1.914,1.741
	l0.159-0.174l-1.914-1.741c0.052-0.058,0.105-0.116,0.159-0.175l1.915,1.742l0.158-0.175l-1.913-1.742
	c0.049-0.053,0.098-0.107,0.148-0.162l1.914,1.741l0.158-0.175l-1.914-1.741c0.038-0.042,0.078-0.085,0.115-0.126l1.914,1.741
	l0.159-0.175l-1.914-1.741c0.053-0.059,0.106-0.117,0.159-0.175l1.914,1.741l0.16-0.175l-1.914-1.741
	c0.049-0.054,0.099-0.108,0.148-0.163l1.914,1.742l0.159-0.175l-1.914-1.741c0.053-0.058,0.106-0.116,0.159-0.175l1.914,1.742
	l0.158-0.175L21.99,8.644c0.054-0.058,0.106-0.117,0.16-0.175l1.914,1.742l0.159-0.175l-1.914-1.742
	c0.05-0.054,0.099-0.109,0.148-0.163l1.914,1.741l0.16-0.175l-1.915-1.741c0.042-0.047,0.084-0.093,0.127-0.139l1.914,1.741
	l0.159-0.175l-1.914-1.741C22.951,7.589,23,7.534,23.049,7.48l1.914,1.741l0.159-0.175l-1.914-1.741
	c0.044-0.048,0.088-0.097,0.132-0.145l1.914,1.742l0.159-0.175l-1.914-1.742c0.053-0.058,0.106-0.117,0.159-0.174l1.914,1.741
	l0.159-0.175l-1.914-1.741c0.05-0.055,0.1-0.11,0.148-0.163l1.914,1.741l0.159-0.175l-1.914-1.741
	c0.054-0.06,0.107-0.117,0.159-0.175l1.914,1.742l0.159-0.175L24.442,5.95c0.054-0.06,0.107-0.119,0.159-0.175l1.915,1.741
	l0.158-0.175L24.761,5.6c0.051-0.056,0.101-0.11,0.148-0.163l1.914,1.741l0.159-0.174l-1.914-1.742
	c0.041-0.044,0.079-0.085,0.116-0.126l1.914,1.741l0.159-0.174L25.342,4.96c0.059-0.064,0.111-0.122,0.159-0.175l1.914,1.741
	l0.159-0.175L25.66,4.611c0.082-0.091,0.129-0.142,0.129-0.142c0.007-0.007,0.013-0.013,0.019-0.021l1.914,1.742l0.159-0.175
	l-1.914-1.741c0.055-0.06,0.108-0.118,0.16-0.175l1.914,1.742l0.159-0.174l-1.914-1.742c0.056-0.062,0.109-0.121,0.16-0.174
	l1.914,1.741l0.159-0.175l-1.914-1.741c0.058-0.063,0.106-0.116,0.148-0.163l1.914,1.741l0.159-0.174l-1.912-1.74
	C26.957,3.19,27,3.146,27.045,3.105l1.906,1.734l0.16-0.175l-1.873-1.703c0.074-0.047,0.15-0.084,0.227-0.113l1.805,1.642
	l0.159-0.174l-1.689-1.537c0.115-0.015,0.231-0.016,0.351-0.001l1.498,1.363l0.159-0.175l-1.168-1.063
	c0.432,0.159,0.899,0.447,1.406,0.802c0.069,0.048,0.138-0.007,0.084-0.09c-1.03-1.585-3.226-2.064-4.081-1.125
	c-0.183,0.201-0.574,0.63-1.076,1.182c0,0-3.125,3.435-5.402,5.938c-0.094,0.103-0.188,0.207-0.279,0.307
	c-0.938,1.03-1.692,1.859-1.954,2.147l-2.212,2.432c-0.013-0.003-0.026-0.01-0.039-0.013c-0.063-0.014-0.177-0.058-0.336-0.126
	L7.924,0l3.709,12.546c0,0,0.032,0.117,0.085,0.321C7.15,10.467,0,5.881,0,5.881S12.142,16.485,12.578,16.84
	c0.018,0.103,0.044,0.208,0.069,0.312l-8.409,9.242l0.268,0.245l8.379-8.694c0.75,2.105,2.264,4.309,0.677,5.434
	c-0.004,0.007,0,0.013-0.003,0.021c-1.43,1.005-1.742,3.129-0.67,4.817c1.101,1.733,3.24,2.354,4.769,1.383
	c0.939-0.597,1.406-1.805,1.774-2.967c-0.314-0.934-0.572-1.27-0.997-1.938c-0.277-0.436-0.621-0.8-1.003-1.089
	c-0.83-0.789-3.259-6.681-3.011-7.231c2.961-0.044,6.744,2.259,7.175,4.4c0.004,0,0.011-0.006,0.015-0.007
	c0.073,0.827,0.411,1.611,1.003,2.229c1.191,1.245,3.063,1.511,4.447,0.632c0.181-0.115,0.352-0.249,0.508-0.398
	c0.564-0.539,0.893-1.25,0.981-2.026c0.322-0.114,0.789-0.228,1.231-0.129c1.635,0.427,2.076-0.919,2.109-1.34
	C31.924,19.338,29.561,20.516,28.415,19.753z M12.472,15.385c-0.211-0.331-0.112-0.772,0.219-0.983
	c0.333-0.21,0.772-0.112,0.982,0.22c0.211,0.332,0.113,0.772-0.219,0.983C13.123,15.815,12.682,15.717,12.472,15.385z
	 M15.371,23.986c0.083,0.009,0.166,0.016,0.248,0.024c0.705,0.112,1.408,0.563,1.869,1.287c0.769,1.211,0.575,2.715-0.432,3.354
	c-1.005,0.639-2.45,0.175-3.218-1.035c-0.768-1.21-0.575-2.716,0.431-3.354C14.602,24.049,14.983,23.97,15.371,23.986z
	 M26.795,22.418c-0.104,0.098-0.215,0.187-0.334,0.263c-0.936,0.593-2.211,0.399-3.034-0.462c-0.46-0.481-0.716-1.101-0.722-1.743
	c-0.005-0.631,0.235-1.209,0.673-1.628c0.103-0.098,0.215-0.187,0.334-0.262c0.934-0.593,2.209-0.399,3.032,0.46
	c0.461,0.481,0.716,1.102,0.722,1.744C27.471,21.42,27.231,22,26.795,22.418z"/>
<g>
</g>
<g>
</g>
<g>
</g>
<g>
</g>
<g>
</g>
<g>
</g>
<g>
</g>
<g>
</g>
<g>
</g>
<g>
</g>
<g>
</g>
<g>
</g>
<g>
</g>
<g>
</g>
<g>
</g>
</svg>
