<?xml version="1.0" encoding="iso-8859-1"?>
<!-- Generator: Adobe Illustrator 16.0.0, SVG Export Plug-In . SVG Version: 6.00 Build 0)  -->
<!DOCTYPE svg PUBLIC "-//W3C//DTD SVG 1.1//EN" "http://www.w3.org/Graphics/SVG/1.1/DTD/svg11.dtd">
<svg version="1.1" id="Layer_1" xmlns="http://www.w3.org/2000/svg" xmlns:xlink="http://www.w3.org/1999/xlink" x="0px" y="0px"
	 width="31.65px" height="27.249px" viewBox="0 0 31.65 27.249" style="enable-background:new 0 0 31.65 27.249;"
	 xml:space="preserve">
<g>
	<path d="M8.205,14.565l5.449-1.312l0.706-2.133c-0.669,0.407-1.202,0.714-1.49,0.849c-1.177,0.549-4.175,1.131-5.478,1.368
		c-1.487-1.44-4.033-1.298-5.797,0.327c-0.869,0.802-1.424,1.847-1.562,2.943c-0.142,1.131,0.174,2.182,0.889,2.958
		c0.046,0.049,0.093,0.098,0.141,0.144c1.489,1.434,4.034,1.287,5.794-0.336c0.871-0.802,1.425-1.847,1.563-2.943
		C8.503,15.767,8.425,15.135,8.205,14.565z M6.099,18.55c-1.366,1.26-3.313,1.388-4.354,0.256c-0.487-0.529-0.701-1.261-0.601-2.06
		c0.105-0.834,0.535-1.636,1.209-2.259c1.327-1.222,3.197-1.377,4.261-0.353c0.032,0.032,0.063,0.064,0.095,0.097
		c0.487,0.53,0.701,1.261,0.601,2.06C7.205,17.125,6.775,17.928,6.099,18.55z"/>
	<path d="M12.596,20.274c0.501-1.286,1.564-3.567,3.48-5.838C16.7,13.32,31.65,0.506,31.65,0.506l-0.485-0.442h0L31.118,0
		l-0.304,0.207l0.056,0.051L15.355,10.507c0,0-2.184,6.368-3.857,8.755c-0.694-0.402-1.52-0.559-2.393-0.438
		c-1.096,0.151-2.133,0.72-2.924,1.6c-1.634,1.818-1.723,4.391-0.203,5.856c0.028,0.027,0.058,0.055,0.087,0.082
		c1.592,1.431,4.235,1.094,5.891-0.748C13.414,23.992,13.64,21.774,12.596,20.274z M16.241,12.229
		c-0.271-0.261-0.279-0.692-0.018-0.963c0.261-0.27,0.691-0.278,0.961-0.017c0.271,0.261,0.279,0.69,0.019,0.961
		S16.512,12.489,16.241,12.229z M6.814,25.529c-1.14-1.019-1.03-2.987,0.201-4.357c0.614-0.684,1.411-1.125,2.244-1.239
		c0.797-0.11,1.531,0.094,2.066,0.575c0.021,0.018,0.041,0.037,0.059,0.055c1.066,1.028,0.95,2.957-0.258,4.302
		C9.881,26.25,7.947,26.547,6.814,25.529z"/>
</g>
<g>
</g>
<g>
</g>
<g>
</g>
<g>
</g>
<g>
</g>
<g>
</g>
<g>
</g>
<g>
</g>
<g>
</g>
<g>
</g>
<g>
</g>
<g>
</g>
<g>
</g>
<g>
</g>
<g>
</g>
</svg>
