<?xml version="1.0" encoding="iso-8859-1"?>
<!-- Generator: Adobe Illustrator 16.0.0, SVG Export Plug-In . SVG Version: 6.00 Build 0)  -->
<!DOCTYPE svg PUBLIC "-//W3C//DTD SVG 1.1//EN" "http://www.w3.org/Graphics/SVG/1.1/DTD/svg11.dtd">
<svg version="1.1" id="Layer_1" xmlns="http://www.w3.org/2000/svg" xmlns:xlink="http://www.w3.org/1999/xlink" x="0px" y="0px"
	 width="31.953px" height="32px" viewBox="0 0 31.953 32" style="enable-background:new 0 0 31.953 32;" xml:space="preserve">
<g>
	<path d="M30.976,16.647c0.009-0.209,0.032-0.414,0.032-0.626c0-0.188-0.021-0.371-0.028-0.558c0.074-0.362,0.255-0.733,0.43-1.074
		c0.173-0.382,0.352-0.725,0.391-0.918c0.158-0.642-0.215-1.028-0.625-1.277c-0.292-0.182-0.6-0.3-0.792-0.432
		c-0.11-0.368-0.241-0.727-0.376-1.082c-0.04-0.384-0.002-0.804,0.031-1.187c0.05-0.424,0.116-0.81,0.096-1.008
		c-0.184-1.126-1.371-1.011-1.927-1.151c-0.223-0.311-0.449-0.617-0.694-0.909c-0.367-0.692-0.399-1.772-0.599-2.094
		c-0.502-1.039-1.618-0.507-2.182-0.471c-0.311-0.223-0.632-0.432-0.96-0.63c-0.548-0.577-0.966-1.52-1.239-1.802
		c-0.452-0.479-0.99-0.356-1.413-0.171c-0.31,0.135-0.577,0.331-0.797,0.43c-0.385-0.114-0.776-0.218-1.173-0.302
		c-0.692-0.35-1.363-1.124-1.706-1.271c-0.586-0.269-1.051-0.029-1.391,0.285c-0.248,0.248-0.437,0.525-0.612,0.688
		c-0.396,0.017-0.79,0.04-1.178,0.086c-0.776-0.088-1.682-0.637-2.058-0.646c-0.646-0.081-1.013,0.281-1.221,0.727
		c-0.157,0.311-0.248,0.632-0.364,0.838C10.258,2.235,9.907,2.392,9.56,2.56C8.778,2.703,7.763,2.537,7.378,2.613
		C6.73,2.729,6.54,3.247,6.464,3.702C6.406,4.038,6.427,4.374,6.389,4.613c-0.303,0.257-0.6,0.521-0.881,0.801
		c-0.666,0.397-1.712,0.52-2.009,0.74C2.514,6.752,3.123,7.81,3.211,8.373C3.013,8.704,2.828,9.041,2.655,9.389
		c-0.238,0.288-0.588,0.529-0.896,0.755c-0.336,0.254-0.657,0.469-0.785,0.621c-0.451,0.487-0.283,1.012-0.054,1.421
		c0.173,0.299,0.378,0.547,0.487,0.755c-0.08,0.384-0.135,0.775-0.186,1.167c-0.316,0.726-0.978,1.479-1.146,1.835
		c-0.366,1.07,0.709,1.537,1.136,1.925c0.05,0.404,0.106,0.807,0.188,1.201c-0.038,0.77-0.503,1.696-0.479,2.063
		c-0.037,1.149,1.179,1.219,1.701,1.451c0.17,0.348,0.353,0.687,0.548,1.018c0.113,0.357,0.125,0.782,0.144,1.166
		c0.028,0.42,0.034,0.806,0.091,0.997c0.162,0.642,0.693,0.788,1.16,0.822c0.347,0.02,0.667-0.017,0.903,0.005
		c0.275,0.275,0.568,0.533,0.864,0.785c0.448,0.648,0.69,1.657,0.914,1.972c0.389,0.515,0.911,0.526,1.362,0.41
		c0.338-0.102,0.639-0.257,0.871-0.315c0.349,0.173,0.704,0.334,1.068,0.479c0.306,0.21,0.58,0.521,0.823,0.824
		c0.277,0.325,0.523,0.611,0.685,0.728c0.263,0.189,0.521,0.25,0.759,0.23c0.242-0.039,0.463-0.155,0.661-0.293
		c0.283-0.194,0.515-0.432,0.713-0.557c0.385,0.047,0.775,0.075,1.169,0.094c0.752,0.251,1.559,0.87,1.93,0.986
		c0.626,0.221,1.039-0.159,1.323-0.521c0.206-0.271,0.35-0.56,0.495-0.747c0.393-0.082,0.777-0.187,1.157-0.298
		c0.783-0.015,1.747,0.326,2.129,0.312c0.644-0.046,0.938-0.478,1.087-0.917c0.101-0.339,0.134-0.677,0.212-0.904
		c0.324-0.193,0.643-0.394,0.951-0.611c0.351-0.153,0.772-0.22,1.173-0.258c0.422-0.057,0.798-0.104,0.982-0.176
		c0.62-0.223,0.747-0.737,0.726-1.222c-0.008-0.348-0.08-0.673-0.073-0.908c0.244-0.287,0.47-0.587,0.693-0.894
		c0.135-0.113,0.281-0.22,0.448-0.312c0.182-0.117,0.379-0.221,0.57-0.315c0.383-0.189,0.743-0.345,0.897-0.47
		c0.841-0.768,0.102-1.697-0.086-2.24c0.142-0.363,0.279-0.727,0.392-1.103c0.382-0.678,1.259-1.286,1.414-1.627
		C32.361,17.737,31.328,17.099,30.976,16.647z M16.047,29.332c-7.34,0-13.312-5.972-13.312-13.311
		c0-7.34,5.972-13.312,13.312-13.312s13.311,5.972,13.311,13.312C29.357,23.36,23.387,29.332,16.047,29.332z"/>
	<path d="M15.76,18.563c0,0-2.065-1.07-3.602-1.859c-0.348,0.174-0.662,0.33-0.91,0.451l4.696,1.619L15.76,18.563z"/>
	<path d="M6.916,15.131c0.003,0.002,0.005,0.002,0.008,0.002c-0.006,0.003-0.009,0.003-0.009,0.003l3.732,1.283l0.001,0.001
		l0.194-0.384c-0.171-0.086-0.285-0.141-0.312-0.15c-1.283-0.662-1.82-2.057-1.859-2.158c-0.108-0.469-0.491-0.872-1.01-1.031
		c-0.359-0.11-0.735-0.09-1.061,0.057c-0.333,0.149-0.573,0.414-0.674,0.743c-0.033,0.107-0.051,0.218-0.051,0.329
		C5.871,14.405,6.299,14.943,6.916,15.131z M6.32,13.617c0.066-0.216,0.226-0.389,0.451-0.489c0.232-0.104,0.506-0.118,0.771-0.036
		c0.443,0.135,0.751,0.509,0.75,0.908c-0.001,0.071-0.011,0.143-0.033,0.21c-0.066,0.215-0.225,0.388-0.449,0.49
		c-0.235,0.104-0.508,0.118-0.772,0.036c-0.444-0.136-0.751-0.508-0.75-0.907C6.289,13.757,6.299,13.685,6.32,13.617z"/>
	<path d="M15.979,14.485l-4.984,1.637l-0.336,0.666l-3.691,1.166c-0.025,0.005-0.05,0.01-0.075,0.018
		c-0.63,0.172-1.072,0.703-1.077,1.29c-0.001,0.105,0.013,0.213,0.042,0.315c0.092,0.334,0.325,0.604,0.654,0.763
		c0.319,0.155,0.697,0.185,1.059,0.085c0.536-0.148,0.936-0.556,1.046-1.034c0.062-0.151,0.637-1.462,1.909-2.075
		c0.215-0.069,5.279-2.627,5.279-2.627L15.979,14.485z M7.46,20.026c-0.265,0.074-0.539,0.054-0.769-0.058
		c-0.222-0.107-0.376-0.284-0.437-0.501c-0.018-0.065-0.026-0.134-0.025-0.203c0.002-0.402,0.321-0.771,0.774-0.896
		c0.265-0.074,0.54-0.053,0.771,0.058c0.22,0.107,0.375,0.286,0.435,0.502c0.018,0.067,0.027,0.134,0.026,0.203
		C8.232,19.533,7.914,19.903,7.46,20.026z M11.276,16.722c-0.121-0.001-0.218-0.098-0.216-0.218
		c0.001-0.121,0.099-0.218,0.219-0.217s0.217,0.1,0.216,0.219C11.493,16.626,11.395,16.723,11.276,16.722z"/>
	<path d="M16.789,14.695c0,0,2.065,1.071,3.602,1.859c0.348-0.172,0.663-0.329,0.909-0.45l-4.696-1.619L16.789,14.695z"/>
	<path d="M25.631,18.127c-0.002-0.001-0.003-0.001-0.007-0.001c0.006-0.002,0.009-0.002,0.009-0.002l-3.732-1.284l-0.001-0.001
		l-0.193,0.383c0.171,0.088,0.284,0.141,0.312,0.15c1.284,0.663,1.823,2.059,1.86,2.159c0.107,0.469,0.491,0.872,1.01,1.031
		c0.359,0.11,0.735,0.09,1.06-0.057c0.334-0.148,0.574-0.414,0.676-0.744c0.032-0.105,0.048-0.216,0.049-0.328
		C26.677,18.854,26.249,18.315,25.631,18.127z M26.228,19.642c-0.066,0.214-0.226,0.389-0.45,0.489
		c-0.234,0.104-0.508,0.117-0.771,0.036c-0.444-0.135-0.752-0.509-0.749-0.907c0-0.072,0.012-0.144,0.032-0.212
		c0.065-0.214,0.226-0.388,0.449-0.489c0.234-0.104,0.508-0.118,0.772-0.037c0.444,0.137,0.752,0.51,0.75,0.909
		C26.26,19.502,26.249,19.573,26.228,19.642z"/>
	<path d="M23.932,13.868c-0.063,0.151-0.638,1.462-1.91,2.076c-0.216,0.068-5.279,2.626-5.279,2.626l-0.173,0.203l4.983-1.636
		l0.337-0.666l3.69-1.165c0.023-0.006,0.05-0.012,0.074-0.018c0.631-0.174,1.073-0.705,1.078-1.292
		c0.001-0.106-0.012-0.214-0.042-0.316c-0.092-0.332-0.323-0.603-0.655-0.761c-0.32-0.155-0.696-0.187-1.058-0.086
		C24.442,12.981,24.042,13.389,23.932,13.868z M21.27,16.972c-0.12-0.002-0.217-0.1-0.216-0.219c0.001-0.12,0.1-0.218,0.22-0.217
		c0.119,0.002,0.217,0.1,0.215,0.22C21.489,16.876,21.39,16.973,21.27,16.972z M25.858,13.29c0.221,0.106,0.375,0.285,0.436,0.501
		c0.018,0.066,0.026,0.134,0.025,0.203c-0.002,0.403-0.321,0.771-0.773,0.897c-0.266,0.073-0.541,0.052-0.771-0.061
		c-0.221-0.105-0.375-0.284-0.436-0.501c-0.017-0.066-0.026-0.134-0.026-0.201c0.003-0.403,0.322-0.772,0.774-0.897
		C25.353,13.159,25.626,13.18,25.858,13.29z"/>
	<circle cx="16.304" cy="24.676" r="1.422"/>
	<circle cx="16.304" cy="7.374" r="1.423"/>
</g>
<g>
</g>
<g>
</g>
<g>
</g>
<g>
</g>
<g>
</g>
<g>
</g>
<g>
</g>
<g>
</g>
<g>
</g>
<g>
</g>
<g>
</g>
<g>
</g>
<g>
</g>
<g>
</g>
<g>
</g>
</svg>
