<?xml version="1.0" encoding="iso-8859-1"?>
<!-- Generator: Adobe Illustrator 16.0.0, SVG Export Plug-In . SVG Version: 6.00 Build 0)  -->
<!DOCTYPE svg PUBLIC "-//W3C//DTD SVG 1.1//EN" "http://www.w3.org/Graphics/SVG/1.1/DTD/svg11.dtd">
<svg version="1.1" id="Layer_1" xmlns="http://www.w3.org/2000/svg" xmlns:xlink="http://www.w3.org/1999/xlink" x="0px" y="0px"
	 width="31.338px" height="32.44px" viewBox="0 0 31.338 32.44" style="enable-background:new 0 0 31.338 32.44;"
	 xml:space="preserve">
<path d="M16.426,24.21c-0.342-0.307-0.734-0.529-1.155-0.677l1.993-7.005l0.525-0.122c0,0,13.814-1.547,13.545-8
	c-0.331-0.444-12.239,4.35-12.239,4.35l-0.843,0.299l0.16-0.563c0,0,4.03-12.188,3.566-12.491
	c-6.457,0.141-7.125,14.025-7.125,14.025l-0.042,0.249L8.246,16.6c-0.14-0.194-0.298-0.377-0.481-0.542
	c-1.666-1.497-4.5-1.069-6.317,0.954s-1.941,4.886-0.275,6.383c1.666,1.496,4.5,1.068,6.317-0.955
	c1.063-1.184,1.542-2.654,1.427-3.971l5.405-1.257l-1.028,6.16c-1.134,0.179-2.285,0.789-3.186,1.791
	c-1.817,2.023-1.94,4.887-0.274,6.384c1.666,1.497,4.5,1.068,6.317-0.955S18.091,25.707,16.426,24.21z M6.52,21.569
	c-1.337,1.488-3.345,1.872-4.475,0.856s-0.963-3.053,0.374-4.541c1.336-1.487,3.344-1.871,4.475-0.855
	C8.024,18.044,7.856,20.081,6.52,21.569z M16.158,15.689c-0.377-0.338-0.408-0.919-0.069-1.296c0.338-0.376,0.918-0.407,1.295-0.069
	c0.377,0.338,0.408,0.919,0.07,1.295C17.115,15.997,16.535,16.027,16.158,15.689z M10.706,30.577
	c-1.131-1.016-0.964-3.053,0.373-4.541c1.337-1.488,3.344-1.871,4.475-0.855c1.131,1.016,0.963,3.052-0.374,4.54
	C13.843,31.209,11.836,31.593,10.706,30.577z"/>
<g>
</g>
<g>
</g>
<g>
</g>
<g>
</g>
<g>
</g>
<g>
</g>
<g>
</g>
<g>
</g>
<g>
</g>
<g>
</g>
<g>
</g>
<g>
</g>
<g>
</g>
<g>
</g>
<g>
</g>
</svg>
