<?xml version="1.0" encoding="iso-8859-1"?>
<!-- Generator: Adobe Illustrator 16.0.0, SVG Export Plug-In . SVG Version: 6.00 Build 0)  -->
<!DOCTYPE svg PUBLIC "-//W3C//DTD SVG 1.1//EN" "http://www.w3.org/Graphics/SVG/1.1/DTD/svg11.dtd">
<svg version="1.1" id="Layer_1" xmlns="http://www.w3.org/2000/svg" xmlns:xlink="http://www.w3.org/1999/xlink" x="0px" y="0px"
	 width="28.94px" height="31.891px" viewBox="0 0 28.94 31.891" style="enable-background:new 0 0 28.94 31.891;"
	 xml:space="preserve">
<g>
	<path d="M27.522,18.323c-1.441-1.351-3.447-1.598-4.827-0.681c-1.155-0.478-3.203-1.485-5.225-3.264
		c-0.08-0.047-0.233-0.188-0.437-0.392L26.8,3.021l0.406-1.128l-0.057,0.048l-1.116,0.655l-11.039,9.141C11.365,7.578,5.14,0,5.14,0
		L4.73,0.432v0L4.672,0.473l0.182,0.279l0.048-0.05l8.62,13.663l0.284,1.005l-3.097,6.47c-0.592-0.321-1.288-0.439-2.018-0.331
		c-0.936,0.138-1.816,0.632-2.479,1.391c-1.194,1.368-1.385,3.298-0.452,4.589c0.132,0.182,0.284,0.348,0.454,0.497
		c0.382,0.333,0.832,0.553,1.324,0.664c1.144,0.72,0.983,2.425,1.08,2.792c0.101,0.375,0.905,0.58,0.995,0.357
		c0.084-0.209-0.469-2.773,0.533-3.587c0.408-0.235,0.782-0.54,1.106-0.91c1.049-1.2,1.321-2.833,0.744-4.087l2.985-6.36
		c0.08,0.152,0.148,0.288,0.191,0.384c0.476,1.078,0.946,3.805,1.137,4.991c-1.334,1.321-1.253,3.631,0.187,5.26
		c0.71,0.803,1.646,1.326,2.637,1.471c1.023,0.15,1.981-0.117,2.698-0.75c0.045-0.041,0.09-0.083,0.133-0.125
		c1.329-1.322,1.243-3.632-0.194-5.258c-0.71-0.804-1.646-1.327-2.638-1.472c-0.6-0.088-1.174-0.029-1.693,0.16l-1.087-4.963
		L15.3,16.178l0.241-0.515l0.047-0.053c1.863,0.745,4.778,1.989,6.17,3.008c-0.377,0.621-0.534,1.367-0.442,2.161
		c0.116,0.996,0.612,1.946,1.396,2.68c1.617,1.516,3.947,1.645,5.303,0.294c0.025-0.025,0.052-0.051,0.076-0.077
		C29.417,22.26,29.162,19.859,27.522,18.323z M10.483,26.63c-0.504,0.576-1.163,0.95-1.859,1.052
		c-0.665,0.099-1.283-0.067-1.739-0.464c-0.11-0.097-0.21-0.207-0.297-0.326c-0.657-0.91-0.491-2.306,0.394-3.319
		c0.503-0.576,1.163-0.95,1.858-1.053c0.665-0.097,1.283,0.068,1.739,0.465c0.111,0.097,0.211,0.207,0.297,0.325
		C11.534,24.22,11.369,25.616,10.483,26.63z M17.018,22.949c0.028-0.028,0.059-0.056,0.089-0.084c0.49-0.432,1.156-0.611,1.88-0.505
		c0.754,0.111,1.473,0.515,2.023,1.14c1.116,1.262,1.195,3.029,0.15,3.951c-0.489,0.432-1.156,0.611-1.878,0.505
		c-0.755-0.111-1.474-0.515-2.025-1.139C16.174,25.591,16.068,23.893,17.018,22.949z M15.412,14.102
		c-0.213,0.206-0.551,0.198-0.756-0.014c-0.205-0.213-0.198-0.551,0.015-0.757c0.212-0.205,0.552-0.198,0.756,0.014
		C15.631,13.559,15.625,13.897,15.412,14.102z M27.35,22.983c-0.945,1.014-2.728,0.877-3.945-0.264
		c-0.608-0.57-0.992-1.3-1.08-2.057c-0.085-0.725,0.114-1.387,0.56-1.862c0.017-0.018,0.034-0.036,0.051-0.053
		c0.952-0.946,2.698-0.804,3.895,0.316C28.06,20.217,28.293,21.976,27.35,22.983z"/>
	<path d="M6.302,22.331c0.196-0.31,0.167-0.697-0.044-0.973c0.534-0.647,0.861-1.417,0.934-2.212
		c0.042-0.479-0.012-0.939-0.151-1.361l6.029-2.258l-0.632-1.759L6.293,16.59c-0.146-0.144-0.306-0.274-0.478-0.385
		c-1.344-0.855-3.26-0.554-4.556,0.718c-0.72,0.705-1.162,1.612-1.246,2.556c-0.086,0.971,0.217,1.865,0.853,2.514
		c0.158,0.16,0.334,0.303,0.522,0.423c0,0.001,0,0,0,0.001c1.028,0.655,2.39,0.63,3.554,0.014c0.053,0.06,0.11,0.115,0.181,0.16
		C5.521,22.844,6.049,22.729,6.302,22.331z M1.939,21.556c-0.125-0.079-0.24-0.172-0.343-0.277c-0.423-0.433-0.625-1.04-0.566-1.71
		c0.063-0.701,0.398-1.38,0.944-1.917c0.961-0.942,2.345-1.187,3.291-0.583c0.124,0.078,0.239,0.172,0.342,0.277
		c0.425,0.432,0.625,1.041,0.565,1.71c-0.062,0.7-0.396,1.38-0.942,1.917C4.269,21.913,2.885,22.16,1.939,21.556z"/>
</g>
<g>
</g>
<g>
</g>
<g>
</g>
<g>
</g>
<g>
</g>
<g>
</g>
<g>
</g>
<g>
</g>
<g>
</g>
<g>
</g>
<g>
</g>
<g>
</g>
<g>
</g>
<g>
</g>
<g>
</g>
</svg>
