<?xml version="1.0" encoding="iso-8859-1"?>
<!-- Generator: Adobe Illustrator 16.0.0, SVG Export Plug-In . SVG Version: 6.00 Build 0)  -->
<!DOCTYPE svg PUBLIC "-//W3C//DTD SVG 1.1//EN" "http://www.w3.org/Graphics/SVG/1.1/DTD/svg11.dtd">
<svg version="1.1" id="Layer_1" xmlns="http://www.w3.org/2000/svg" xmlns:xlink="http://www.w3.org/1999/xlink" x="0px" y="0px"
	 width="31.425px" height="31.351px" viewBox="0 0 31.425 31.351" style="enable-background:new 0 0 31.425 31.351;"
	 xml:space="preserve">
<g>
	<path d="M31.425,2.744l-0.881,0.202c0,0-2.923,1.984-6.243,4.246c-1.29,1.897-2.667,3.919-3.82,5.6L31.425,2.744z"/>
	<path d="M14.928,13.666c-3.938,2.681-8.85,1.973-8.99,1.953c-1.469-0.397-3.195,0.04-4.458,1.282
		c-1.807,1.778-1.984,4.538-0.396,6.151c1.589,1.613,4.351,1.479,6.157-0.299c0.005-0.006,0.01-0.012,0.016-0.018
		c-0.002,0.016-0.005,0.028-0.005,0.028l8.936-8.218l-0.07-1.736C15.446,13.278,15.013,13.589,14.928,13.666z M2.032,22.118
		c-1.073-1.09-0.902-3.006,0.381-4.271c1.284-1.264,3.202-1.404,4.275-0.313c1.074,1.091,0.903,3.006-0.381,4.27
		C5.024,23.067,3.106,23.208,2.032,22.118z"/>
	<path d="M15.098,25.395c-0.042-0.349-0.558-5.063,2.12-8.866c0.499-0.534,10.746-15.685,10.746-15.685L28.133,0L16.664,12.428
		l0.097,2.403l-8.569,9.08c-0.06,0.054-0.121,0.104-0.179,0.161c-1.806,1.779-1.984,4.538-0.396,6.151
		c1.588,1.613,4.35,1.479,6.157-0.3C15.063,28.655,15.517,26.889,15.098,25.395z M17.621,13.496
		c-0.271-0.275-0.268-0.72,0.008-0.991c0.275-0.271,0.72-0.268,0.991,0.008c0.272,0.276,0.268,0.72-0.008,0.992
		C18.337,13.776,17.893,13.772,17.621,13.496z M8.565,29.29c-1.074-1.091-0.903-3.006,0.381-4.271
		c1.284-1.264,3.202-1.404,4.275-0.314c1.074,1.091,0.903,3.006-0.381,4.271C11.557,30.24,9.639,30.38,8.565,29.29z"/>
</g>
<g>
</g>
<g>
</g>
<g>
</g>
<g>
</g>
<g>
</g>
<g>
</g>
<g>
</g>
<g>
</g>
<g>
</g>
<g>
</g>
<g>
</g>
<g>
</g>
<g>
</g>
<g>
</g>
<g>
</g>
</svg>
