<?xml version="1.0" encoding="iso-8859-1"?>
<!-- Generator: Adobe Illustrator 16.0.0, SVG Export Plug-In . SVG Version: 6.00 Build 0)  -->
<!DOCTYPE svg PUBLIC "-//W3C//DTD SVG 1.1//EN" "http://www.w3.org/Graphics/SVG/1.1/DTD/svg11.dtd">
<svg version="1.1" id="Layer_1" xmlns="http://www.w3.org/2000/svg" xmlns:xlink="http://www.w3.org/1999/xlink" x="0px" y="0px"
	 width="30.021px" height="31.476px" viewBox="0 0 30.021 31.476" style="enable-background:new 0 0 30.021 31.476;"
	 xml:space="preserve">
<g>
	<path d="M11.475,25.803c-0.192-0.824,2.51-5.207,4.285-7.767C17.594,15.389,30.865,0.891,29.979,0.03
		c-0.053-0.051-0.156-0.036-0.3,0.034C27.552,0.78,15.302,13.553,12.923,15.447c-2.248,1.79-5.989,4.469-7.211,4.767
		c-1.373-1.116-3.468-0.901-4.748,0.521c-1.319,1.464-1.279,3.657,0.088,4.889c1.368,1.232,3.553,1.043,4.872-0.42
		c0.891-0.989,1.159-2.31,0.82-3.443c0.64-1.245,7.453-5.046,7.453-5.046s0.081-0.077,0.227-0.217l-0.001,0.002
		c0,0-3.443,7.594-4.6,8.151c-0.009,0.004-0.015,0.008-0.022,0.013c-1.229-0.342-2.646,0.045-3.605,1.11
		c-1.319,1.464-1.279,3.657,0.088,4.889s3.553,1.043,4.872-0.421C12.326,28.942,12.423,27.069,11.475,25.803z M5.4,24.73
		c-1.059,1.175-2.796,1.34-3.875,0.369c-1.078-0.971-1.095-2.717-0.036-3.892c1.059-1.174,2.796-1.34,3.875-0.369
		C6.441,21.81,6.458,23.556,5.4,24.73z M15.4,15.62c-0.392-0.353-0.423-0.958-0.07-1.35c0.353-0.391,0.958-0.423,1.35-0.07
		s0.423,0.958,0.07,1.35C16.397,15.941,15.792,15.973,15.4,15.62z M6.756,30.138c-1.078-0.971-1.095-2.717-0.036-3.892
		c1.058-1.174,2.796-1.34,3.875-0.369c1.079,0.971,1.095,2.717,0.037,3.892C9.573,30.944,7.834,31.109,6.756,30.138z"/>
	<circle cx="16.04" cy="14.91" r="0.603"/>
</g>
<g>
</g>
<g>
</g>
<g>
</g>
<g>
</g>
<g>
</g>
<g>
</g>
<g>
</g>
<g>
</g>
<g>
</g>
<g>
</g>
<g>
</g>
<g>
</g>
<g>
</g>
<g>
</g>
<g>
</g>
</svg>
