<?xml version="1.0" encoding="iso-8859-1"?>
<!-- Generator: Adobe Illustrator 16.0.0, SVG Export Plug-In . SVG Version: 6.00 Build 0)  -->
<!DOCTYPE svg PUBLIC "-//W3C//DTD SVG 1.1//EN" "http://www.w3.org/Graphics/SVG/1.1/DTD/svg11.dtd">
<svg version="1.1" id="Layer_1" xmlns="http://www.w3.org/2000/svg" xmlns:xlink="http://www.w3.org/1999/xlink" x="0px" y="0px"
	 width="28.999px" height="31.975px" viewBox="0 0 28.999 31.975" style="enable-background:new 0 0 28.999 31.975;"
	 xml:space="preserve">
<g>
	<path d="M6.67,20.747c0.569-0.689,0.919-1.51,0.995-2.358c0.045-0.511-0.012-1.001-0.161-1.45l6.426-2.407l-0.674-1.875
		l-6.548,3.01c-0.157-0.153-0.326-0.293-0.51-0.41c-1.432-0.912-3.474-0.591-4.855,0.765c-0.768,0.752-1.239,1.719-1.328,2.725
		c-0.092,1.035,0.231,1.987,0.91,2.68c0.168,0.171,0.355,0.323,0.556,0.451c0,0.001,0,0,0,0.001
		c1.095,0.698,2.546,0.672,3.788,0.015c0.055,0.063,0.117,0.123,0.192,0.171c0.423,0.27,0.985,0.146,1.255-0.278
		C6.927,21.454,6.895,21.041,6.67,20.747z M2.067,20.959c-0.132-0.084-0.255-0.184-0.364-0.296
		c-0.452-0.461-0.667-1.108-0.604-1.822c0.066-0.747,0.423-1.472,1.006-2.044c1.024-1.004,2.499-1.266,3.508-0.622
		c0.132,0.083,0.255,0.184,0.365,0.295c0.452,0.461,0.666,1.109,0.603,1.823c-0.066,0.746-0.423,1.472-1.005,2.043
		C4.55,21.339,3.076,21.603,2.067,20.959z"/>
	<path d="M10.247,31.877c0.09-0.224-0.499-2.956,0.568-3.824c0.435-0.25,0.835-0.575,1.179-0.97c1.118-1.279,1.409-3.02,0.793-4.356
		l3.777-8.049L28.566,1.202L28.999,0l-0.059,0.051l-1.19,0.698L14.07,12.077l0.646,2.288l-3.3,6.896
		c-0.631-0.342-1.374-0.468-2.151-0.353c-0.998,0.146-1.936,0.674-2.643,1.482c-1.273,1.458-1.476,3.516-0.481,4.892
		c0.14,0.193,0.303,0.371,0.483,0.529c0.407,0.355,0.888,0.59,1.412,0.707c1.219,0.768,1.048,2.585,1.152,2.977
		C9.293,31.896,10.151,32.114,10.247,31.877z M15.622,12.999c-0.218-0.228-0.211-0.588,0.015-0.807
		c0.228-0.219,0.588-0.211,0.806,0.015c0.218,0.228,0.211,0.588-0.016,0.807C16.201,13.232,15.84,13.225,15.622,12.999z
		 M9.193,27.488c-0.709,0.105-1.368-0.071-1.854-0.495c-0.118-0.104-0.225-0.221-0.317-0.348c-0.7-0.97-0.524-2.458,0.419-3.538
		c0.536-0.614,1.24-1.013,1.981-1.122c0.709-0.104,1.368,0.072,1.854,0.496c0.119,0.104,0.225,0.221,0.317,0.347
		c0.701,0.971,0.524,2.458-0.419,3.539C10.638,26.98,9.935,27.38,9.193,27.488z"/>
</g>
<g>
</g>
<g>
</g>
<g>
</g>
<g>
</g>
<g>
</g>
<g>
</g>
<g>
</g>
<g>
</g>
<g>
</g>
<g>
</g>
<g>
</g>
<g>
</g>
<g>
</g>
<g>
</g>
<g>
</g>
</svg>
