<?xml version="1.0" encoding="iso-8859-1"?>
<!-- Generator: Adobe Illustrator 16.0.0, SVG Export Plug-In . SVG Version: 6.00 Build 0)  -->
<!DOCTYPE svg PUBLIC "-//W3C//DTD SVG 1.1//EN" "http://www.w3.org/Graphics/SVG/1.1/DTD/svg11.dtd">
<svg version="1.1" id="Layer_1" xmlns="http://www.w3.org/2000/svg" xmlns:xlink="http://www.w3.org/1999/xlink" x="0px" y="0px"
	 width="29.48px" height="31.944px" viewBox="0 0 29.48 31.944" style="enable-background:new 0 0 29.48 31.944;"
	 xml:space="preserve">
<g>
	<polygon points="28.871,8.836 29.48,8.241 17.933,11.978 17.039,14.642 	"/>
	<path d="M13.719,12.977l-7.362,0.272c-0.068-0.091-0.141-0.179-0.22-0.261c-1.028-1.069-2.828-1.214-4.279-0.347
		c-0.806,0.481-1.404,1.206-1.686,2.041c-0.291,0.861-0.211,1.736,0.224,2.462c0.107,0.181,0.235,0.348,0.38,0.498
		c0,0.001,0,0,0,0.001c0.787,0.817,2.025,1.093,3.213,0.789c0.034,0.065,0.075,0.128,0.129,0.184
		c0.304,0.316,0.806,0.326,1.122,0.022c0.247-0.237,0.304-0.596,0.173-0.892c0.625-0.468,1.09-1.093,1.328-1.799
		c0.163-0.48,0.205-0.964,0.139-1.425l5.942,0.189L13.719,12.977z M5.84,15.645c-0.209,0.62-0.661,1.163-1.273,1.529
		c-1.075,0.643-2.381,0.563-3.106-0.19c-0.095-0.099-0.179-0.208-0.249-0.325c-0.29-0.484-0.339-1.078-0.139-1.671
		c0.209-0.621,0.661-1.164,1.272-1.53c1.075-0.643,2.382-0.563,3.106,0.19c0.095,0.099,0.179,0.209,0.249,0.326
		C5.991,14.458,6.04,15.052,5.84,15.645z"/>
	<path d="M15.198,31.825c0.05-0.205-0.793-2.497,0.023-3.378c0.346-0.269,0.652-0.601,0.901-0.983
		c0.922-1.418,0.846-3.222-0.182-4.29c-0.028-0.029-0.06-0.054-0.089-0.083l0.502-8.346L21.302,0l-0.76,0.977l-7.001,13.546
		l1.168,1.269l-0.444,6.553c-0.407-0.048-0.833-0.012-1.26,0.113c-0.845,0.25-1.592,0.82-2.104,1.606
		c-0.922,1.418-0.846,3.222,0.182,4.291c0.145,0.149,0.308,0.283,0.483,0.397c0.395,0.258,0.84,0.402,1.307,0.439
		c1.149,0.514,1.223,2.107,1.361,2.434C14.375,31.956,15.145,32.041,15.198,31.825z M14.786,14.542
		c-0.19-0.199-0.184-0.514,0.014-0.705c0.198-0.189,0.513-0.184,0.704,0.015c0.19,0.197,0.184,0.513-0.014,0.703
		C15.292,14.746,14.977,14.74,14.786,14.542z M13.75,28.157c-0.601,0.178-1.192,0.105-1.665-0.202
		c-0.115-0.075-0.221-0.162-0.316-0.261c-0.725-0.753-0.754-2.063-0.071-3.111c0.388-0.598,0.948-1.028,1.577-1.214
		c0.601-0.177,1.191-0.105,1.664,0.202c0.115,0.075,0.221,0.164,0.316,0.263c0.725,0.752,0.754,2.061,0.071,3.111
		C14.937,27.541,14.377,27.973,13.75,28.157z"/>
</g>
<g>
</g>
<g>
</g>
<g>
</g>
<g>
</g>
<g>
</g>
<g>
</g>
<g>
</g>
<g>
</g>
<g>
</g>
<g>
</g>
<g>
</g>
<g>
</g>
<g>
</g>
<g>
</g>
<g>
</g>
</svg>
