<?xml version="1.0" encoding="iso-8859-1"?>
<!-- Generator: Adobe Illustrator 16.0.0, SVG Export Plug-In . SVG Version: 6.00 Build 0)  -->
<!DOCTYPE svg PUBLIC "-//W3C//DTD SVG 1.1//EN" "http://www.w3.org/Graphics/SVG/1.1/DTD/svg11.dtd">
<svg version="1.1" id="Layer_1" xmlns="http://www.w3.org/2000/svg" xmlns:xlink="http://www.w3.org/1999/xlink" x="0px" y="0px"
	 width="30.944px" height="31.842px" viewBox="0 0 30.944 31.842" style="enable-background:new 0 0 30.944 31.842;"
	 xml:space="preserve">
<g>
	<path d="M12.676,4.009c0,0,1.825,3.042,1.724,6.287c-0.22,0.422-1.181,2.369-1.678,4l2.873,1.748
		c0.441-0.852,1.156-1.983,1.086-3.263c-0.101-1.876-1.749-4.512-1.749-4.512s0.025-8.467-5.754-8.264
		C3.398,0.207,1.624,9.585,1.573,10.701c-0.051,1.115,0.152,2.788,0.152,2.788s-0.507,0.102-0.456,0.558
		c0.05,0.457,0.481,0.913,0.507,1.268s-1.065,0.279-1.014,0.761c0.051,0.481,0.761,0.659,0.659,1.014s-1.47,0.735-1.419,1.927
		s2.104,2.307,2.23,3.65c0.127,1.343-1.8,2.18-1.977,3.6c-0.177,1.419,2.357,2.281,2.383,3.574c0.025,1.292-1.673,2.002-1.673,2.002
		s4.436-0.076,2.839-5.121c-0.279-0.507,2.535-3.27,1.572-5.881c0.963-0.71,0-2.333,0-2.333s0.982-0.786,0.963-2.154
		c-0.019-1.369-0.963-3.118-0.963-3.118S7.53,9.357,8.214,7.608C10.598,8.496,12.676,4.009,12.676,4.009z"/>
	<path d="M19.064,26.316c0-1.571-2.484-2.94-2.484-2.94s0.542-1.022,0.64-2.162l1.527-0.14c-0.428-0.357-0.97-0.814-1.568-1.32
		c-0.049,0.012-0.101,0.024-0.151,0.036c-0.041-0.096-0.083-0.192-0.131-0.284l-4.457-3.755c-0.002,0.054-0.019,0.123-0.017,0.172
		c0.042,1.262,1.399,3.67,1.897,4.514c-2.644,0.635-5.095,1.229-5.095,1.229L8.76,21.989l5.173-0.474
		c-0.278,0.451-0.56,1.047-0.598,1.658c-0.076,1.242,0.963,4.538,3.448,5.171c-0.836,1.394,0.355,1.926,0.355,1.926
		s2.23,0.279,1.318-2.281C18.126,27.761,19.064,27.888,19.064,26.316z"/>
	<path d="M29.975,14.676c-0.567-0.441-1.296-0.662-2.054-0.619c-1.092,0.062-2.038,0.669-2.475,1.536
		c-0.122,0.18-1.848,2.658-4.683,3.34c-0.06,0.005-0.306,0.058-0.685,0.143l0.196,0.847l0.003-0.003l7.934-0.72
		c0,0-0.005-0.003-0.015-0.009c0.005,0,0.01,0,0.015,0c1.301-0.073,2.4-0.921,2.669-2.062c0.052-0.218,0.072-0.443,0.059-0.668
		C30.901,15.765,30.558,15.13,29.975,14.676z M30.072,16.937c-0.186,0.784-0.971,1.37-1.907,1.422
		c-0.556,0.032-1.086-0.126-1.494-0.444c-0.391-0.306-0.62-0.723-0.646-1.175c-0.008-0.144,0.005-0.289,0.038-0.429
		c0.186-0.784,0.97-1.369,1.906-1.422c0.556-0.031,1.086,0.126,1.494,0.444c0.391,0.306,0.621,0.722,0.646,1.175
		C30.117,16.651,30.104,16.796,30.072,16.937z"/>
	<path d="M26.893,24.767c-0.045-0.025-0.092-0.046-0.138-0.069l-6.675-4.061l-0.34-1.467l-8.984-5.604l0.242,0.481
		c0,0,8.697,7.45,9.087,7.689c2.199,1.813,2.695,4.661,2.746,4.985c-0.015,0.994,0.573,1.985,1.553,2.533
		c0.662,0.37,1.414,0.492,2.117,0.343c0.724-0.154,1.31-0.574,1.649-1.182c0.105-0.188,0.184-0.389,0.233-0.599
		C28.657,26.665,28.044,25.411,26.893,24.767z M19.43,19.887c-0.056,0.236-0.293,0.382-0.529,0.326
		c-0.236-0.056-0.382-0.293-0.326-0.528c0.055-0.236,0.292-0.382,0.528-0.326C19.34,19.415,19.486,19.651,19.43,19.887z
		 M27.574,27.625c-0.032,0.134-0.082,0.264-0.149,0.384c-0.222,0.396-0.611,0.67-1.096,0.773c-0.506,0.107-1.052,0.017-1.538-0.254
		c-0.828-0.463-1.274-1.339-1.087-2.131c0.032-0.134,0.083-0.264,0.15-0.384c0.221-0.396,0.61-0.671,1.095-0.773
		c0.506-0.107,1.052-0.017,1.538,0.255C27.314,25.957,27.761,26.833,27.574,27.625z"/>
</g>
<g>
</g>
<g>
</g>
<g>
</g>
<g>
</g>
<g>
</g>
<g>
</g>
<g>
</g>
<g>
</g>
<g>
</g>
<g>
</g>
<g>
</g>
<g>
</g>
<g>
</g>
<g>
</g>
<g>
</g>
</svg>
