<?xml version="1.0" encoding="iso-8859-1"?>
<!-- Generator: Adobe Illustrator 16.0.0, SVG Export Plug-In . SVG Version: 6.00 Build 0)  -->
<!DOCTYPE svg PUBLIC "-//W3C//DTD SVG 1.1//EN" "http://www.w3.org/Graphics/SVG/1.1/DTD/svg11.dtd">
<svg version="1.1" id="Layer_1" xmlns="http://www.w3.org/2000/svg" xmlns:xlink="http://www.w3.org/1999/xlink" x="0px" y="0px"
	 width="31.986px" height="31.999px" viewBox="0 0 31.986 31.999" style="enable-background:new 0 0 31.986 31.999;"
	 xml:space="preserve">
<g>
	<path d="M17.807,3.527c-0.623-0.093-1.256-0.142-1.882-0.142c-6.156,0-11.491,4.596-12.411,10.688
		C2.481,20.92,7.212,27.332,14.06,28.366c0.623,0.094,1.256,0.142,1.881,0.142c6.156,0,11.491-4.594,12.411-10.688
		c0.5-3.312-0.323-6.624-2.317-9.326C24.042,5.791,21.12,4.026,17.807,3.527z M28.106,17.783
		c-0.901,5.973-6.131,10.477-12.165,10.477c-0.614,0-1.234-0.047-1.845-0.14C7.384,27.107,2.747,20.822,3.76,14.11
		C4.661,8.138,9.891,3.634,15.925,3.634c0.614,0,1.235,0.047,1.846,0.14c3.247,0.489,6.111,2.218,8.065,4.867
		S28.597,14.537,28.106,17.783z"/>
	<path d="M31.529,16.426c0.163-0.245,0.304-0.456,0.356-0.601c0.226-0.545,0.071-1.047-0.458-1.487
		c-0.063-0.054-0.123-0.094-0.187-0.141c0.152-0.326,0.299-0.62,0.333-0.791c0.157-0.637-0.214-1.02-0.621-1.268
		c-0.094-0.059-0.187-0.103-0.28-0.151c0.025-0.114,0.049-0.228,0.077-0.343c0.029-0.102,0.058-0.205,0.085-0.301
		c0.083-0.289,0.155-0.539,0.162-0.707c-0.009-0.846-0.622-1.151-1.154-1.325c0.045-0.359,0.094-0.681,0.075-0.854
		c-0.13-0.804-0.778-0.968-1.337-1.05c-0.017-0.19-0.029-0.384-0.036-0.557c-0.016-0.36-0.027-0.645-0.097-0.803
		c-0.247-0.799-0.917-0.891-1.4-0.891c-0.036,0-0.068,0.002-0.104,0.003c-0.07-0.361-0.126-0.677-0.219-0.826
		c-0.36-0.743-1.035-0.674-1.594-0.564C25.042,3.58,24.96,3.388,24.89,3.216c-0.122-0.298-0.228-0.556-0.33-0.699
		c-0.232-0.335-0.557-0.505-0.964-0.505c-0.16,0-0.333,0.026-0.53,0.079c-0.08,0.021-0.147,0.052-0.222,0.079
		c-0.186-0.311-0.345-0.585-0.471-0.716c-0.448-0.474-0.981-0.353-1.401-0.17c-0.108,0.047-0.204,0.104-0.302,0.16
		c-0.138-0.147-0.272-0.301-0.389-0.437c-0.226-0.266-0.404-0.475-0.554-0.567c-0.484-0.315-0.999-0.296-1.55,0.079
		c-0.066,0.049-0.119,0.099-0.18,0.151c-0.277-0.24-0.513-0.451-0.675-0.521c-0.582-0.265-1.042-0.028-1.381,0.285
		c-0.085,0.085-0.157,0.172-0.229,0.259c-0.167-0.089-0.333-0.184-0.488-0.275c-0.313-0.187-0.561-0.334-0.733-0.363
		c-0.585-0.164-1.082,0.039-1.44,0.58c-0.046,0.064-0.08,0.127-0.12,0.192c-0.338-0.138-0.633-0.263-0.807-0.267
		c-0.641-0.08-1.005,0.28-1.211,0.722c-0.054,0.105-0.092,0.207-0.134,0.31c-0.206-0.031-0.411-0.069-0.604-0.106
		C9.877,1.43,9.62,1.38,9.444,1.38L9.408,1.381C8.559,1.405,8.316,2.154,8.236,2.4C8.211,2.477,8.2,2.548,8.182,2.624
		C7.823,2.611,7.51,2.595,7.334,2.629C6.691,2.745,6.502,3.258,6.427,3.711c-0.02,0.114-0.024,0.225-0.031,0.337
		c-0.188,0.031-0.38,0.059-0.561,0.08C5.473,4.173,5.187,4.209,5.032,4.291c-0.785,0.328-0.817,1.014-0.76,1.571
		c-0.349,0.098-0.651,0.18-0.79,0.282C2.781,6.57,2.897,7.232,3.05,7.777c-0.074,0.041-0.146,0.082-0.219,0.12L2.724,7.954
		c-0.095,0.05-0.188,0.1-0.277,0.146C2.186,8.237,1.959,8.356,1.842,8.459C1.168,8.998,1.448,9.741,1.541,9.987
		c0.029,0.074,0.062,0.138,0.094,0.206c-0.287,0.212-0.546,0.394-0.657,0.526c-0.447,0.484-0.281,1.005-0.054,1.409
		c0.058,0.101,0.119,0.187,0.179,0.275c-0.155,0.177-0.315,0.345-0.46,0.495c-0.205,0.213-0.383,0.397-0.483,0.549
		c-0.386,0.747,0.002,1.308,0.385,1.713c-0.201,0.286-0.383,0.536-0.459,0.698c-0.261,0.767,0.223,1.22,0.67,1.559
		c-0.076,0.175-0.16,0.351-0.24,0.513c-0.163,0.331-0.292,0.593-0.305,0.769c-0.155,0.842,0.408,1.242,0.909,1.499
		c-0.108,0.342-0.207,0.64-0.195,0.81c-0.026,0.82,0.586,1.084,1.126,1.255c-0.008,0.091-0.013,0.183-0.022,0.273l-0.011,0.097
		C2.01,22.737,2,22.84,1.991,22.938c-0.028,0.297-0.053,0.553-0.031,0.709c0.083,0.854,0.857,1.03,1.115,1.089
		c0.083,0.018,0.156,0.024,0.234,0.036c0.021,0.353,0.031,0.668,0.08,0.834c0.161,0.639,0.688,0.781,1.152,0.816
		c0.111,0.006,0.213,0.002,0.317,0.001c0.056,0.209,0.104,0.42,0.145,0.608c0.072,0.329,0.129,0.59,0.21,0.75
		c0.278,0.514,0.769,0.731,1.401,0.666c0.089-0.013,0.167-0.032,0.251-0.051c0.127,0.333,0.235,0.623,0.336,0.767
		c0.385,0.511,0.904,0.522,1.351,0.406c0.108-0.033,0.207-0.073,0.307-0.112C8.929,29.563,9,29.673,9.057,29.77
		c0.239,0.387,0.435,0.695,0.583,0.838c0.233,0.229,0.499,0.354,0.8,0.375c0.231-0.003,0.475-0.069,0.744-0.202
		c0.076-0.037,0.138-0.078,0.208-0.117c0.234,0.274,0.442,0.509,0.583,0.609c0.26,0.188,0.518,0.248,0.754,0.229
		c0.24-0.039,0.459-0.153,0.656-0.29c0.089-0.063,0.165-0.127,0.245-0.193c0.172,0.13,0.339,0.264,0.487,0.385
		c0.249,0.204,0.463,0.379,0.619,0.456c0.177,0.094,0.356,0.141,0.534,0.141c0.427,0,0.767-0.272,0.985-0.479
		c0.064-0.063,0.113-0.124,0.17-0.187c0.306,0.181,0.573,0.344,0.743,0.397c0.622,0.219,1.03-0.159,1.313-0.519
		c0.066-0.088,0.118-0.174,0.173-0.26c0.206,0.067,0.408,0.143,0.588,0.211c0.312,0.117,0.558,0.21,0.736,0.231
		c0.583,0.042,1.022-0.227,1.325-0.811c0.039-0.082,0.064-0.159,0.095-0.239c0.352,0.074,0.658,0.145,0.835,0.139
		c0.639-0.044,0.931-0.474,1.079-0.909c0.033-0.111,0.052-0.217,0.075-0.324c0.118,0.001,0.236,0.004,0.356,0.011
		c0.169,0.004,0.331,0.007,0.476,0.007c0.264,0,0.432-0.012,0.541-0.036c0.585-0.115,0.919-0.519,0.992-1.197
		c0.01-0.084,0.011-0.158,0.015-0.24c0.362-0.047,0.676-0.092,0.838-0.155c0.615-0.221,0.741-0.731,0.72-1.212
		c-0.003-0.107-0.015-0.206-0.026-0.308c0.112-0.042,0.226-0.088,0.334-0.124c0.104-0.033,0.204-0.063,0.301-0.093
		c0.299-0.091,0.535-0.163,0.681-0.249c0.709-0.475,0.624-1.164,0.476-1.706c0.325-0.156,0.617-0.288,0.751-0.396
		c0.6-0.548,0.389-1.176,0.154-1.688c0.15-0.116,0.304-0.23,0.451-0.336c0.293-0.209,0.524-0.375,0.619-0.52
		c0.543-0.664,0.234-1.287-0.087-1.753c0.264-0.257,0.498-0.477,0.57-0.635c0.417-0.706,0.002-1.23-0.394-1.637
		c0.066-0.099,0.129-0.195,0.199-0.295C31.414,16.598,31.473,16.509,31.529,16.426z M1.19,19.956
		c-0.454-0.237-0.857-0.553-0.733-1.225c0.011-0.142,0.142-0.409,0.282-0.691c0.073-0.149,0.148-0.311,0.22-0.472
		c0.096,0.07,0.186,0.137,0.255,0.2c0.049,0.4,0.104,0.801,0.186,1.192C1.384,19.283,1.289,19.63,1.19,19.956z M1.224,14.036
		c-0.137,0.313-0.338,0.626-0.536,0.915c-0.334-0.363-0.612-0.803-0.314-1.377c0.081-0.121,0.251-0.299,0.448-0.505
		c0.131-0.136,0.277-0.291,0.419-0.45c0.062,0.091,0.125,0.182,0.167,0.261C1.328,13.26,1.274,13.647,1.224,14.036z M28.214,6.133
		c0.056,0.13,0.068,0.421,0.081,0.729c0.007,0.156,0.021,0.335,0.035,0.51c-0.12-0.016-0.233-0.032-0.326-0.056
		c-0.221-0.308-0.445-0.612-0.688-0.902c-0.157-0.296-0.25-0.662-0.324-1.009C27.478,5.392,28.007,5.463,28.214,6.133z M23.13,2.329
		c0.593-0.157,0.961-0.052,1.227,0.331c0.086,0.12,0.187,0.366,0.303,0.65c0.065,0.157,0.141,0.333,0.22,0.507
		c-0.118,0.023-0.23,0.045-0.323,0.051c-0.31-0.221-0.627-0.428-0.954-0.625c-0.234-0.246-0.442-0.559-0.628-0.857
		C23.027,2.367,23.076,2.345,23.13,2.329z M18.32,0.721c0.458-0.311,0.867-0.337,1.272-0.071c0.121,0.074,0.305,0.29,0.5,0.519
		c0.106,0.124,0.229,0.262,0.354,0.396c-0.093,0.056-0.187,0.112-0.267,0.147c-0.382-0.114-0.77-0.217-1.164-0.3
		c-0.288-0.146-0.57-0.364-0.828-0.58C18.232,0.794,18.273,0.756,18.32,0.721z M13.255,0.775c0.231-0.351,0.52-0.527,0.854-0.527
		c0.1,0,0.205,0.015,0.326,0.048c0.14,0.024,0.394,0.175,0.662,0.335c0.134,0.08,0.291,0.167,0.447,0.252
		c-0.072,0.086-0.144,0.174-0.21,0.234c-0.392,0.016-0.784,0.039-1.168,0.086c-0.328-0.037-0.674-0.161-1-0.287
		C13.197,0.869,13.221,0.822,13.255,0.775z M8.472,2.477c0.186-0.573,0.477-0.834,0.972-0.849c0.153,0,0.399,0.047,0.684,0.102
		c0.167,0.031,0.358,0.065,0.55,0.097c-0.042,0.104-0.083,0.21-0.127,0.288C10.193,2.254,9.844,2.408,9.5,2.577
		C9.164,2.638,8.788,2.641,8.435,2.632C8.449,2.579,8.455,2.528,8.472,2.477z M5.137,4.515c0.125-0.065,0.418-0.103,0.728-0.141
		C6.021,4.354,6.2,4.328,6.375,4.3C6.37,4.412,6.366,4.524,6.353,4.613C6.051,4.869,5.757,5.132,5.478,5.408
		C5.195,5.577,4.847,5.695,4.515,5.792C4.465,5.285,4.512,4.776,5.137,4.515z M1.838,10.042C1.816,9.994,1.792,9.949,1.772,9.898
		C1.559,9.332,1.628,8.948,2,8.648C2.1,8.562,2.314,8.449,2.562,8.32c0.09-0.048,0.184-0.098,0.278-0.147l0.105-0.056
		c0.056-0.028,0.116-0.064,0.173-0.096C3.153,8.14,3.184,8.251,3.199,8.345c-0.196,0.329-0.38,0.664-0.552,1.009
		C2.43,9.615,2.123,9.835,1.838,10.042z M3.128,24.493c-0.592-0.136-0.876-0.403-0.922-0.875c-0.018-0.132,0.005-0.375,0.032-0.657
		c0.01-0.099,0.019-0.201,0.028-0.305l0.01-0.095c0.008-0.07,0.011-0.15,0.018-0.224c0.119,0.036,0.232,0.07,0.32,0.11
		c0.168,0.345,0.35,0.682,0.544,1.011c0.103,0.326,0.12,0.706,0.137,1.06C3.238,24.51,3.185,24.505,3.128,24.493z M6.585,28.202
		c-0.065,0.007-0.13,0.011-0.195,0.011c-0.444,0-0.758-0.181-0.957-0.547c-0.065-0.129-0.122-0.389-0.188-0.688
		c-0.038-0.172-0.084-0.364-0.133-0.555c0.116-0.003,0.23-0.007,0.324,0.002c0.275,0.273,0.565,0.53,0.857,0.78
		c0.195,0.279,0.348,0.627,0.479,0.957C6.711,28.176,6.65,28.192,6.585,28.202z M11.074,30.558
		c-0.235,0.117-0.444,0.175-0.628,0.177c-0.231-0.016-0.444-0.118-0.634-0.304c-0.129-0.124-0.323-0.432-0.543-0.788
		c-0.048-0.083-0.114-0.18-0.172-0.271c0.115-0.046,0.227-0.09,0.32-0.113c0.348,0.17,0.7,0.331,1.06,0.474
		c0.276,0.191,0.523,0.465,0.749,0.739C11.175,30.5,11.128,30.531,11.074,30.558z M16.083,31.341
		c-0.187,0.177-0.475,0.411-0.814,0.411c-0.136,0-0.277-0.038-0.422-0.114c-0.132-0.065-0.337-0.232-0.575-0.427
		c-0.134-0.109-0.289-0.23-0.443-0.349c0.093-0.077,0.183-0.153,0.262-0.203c0.382,0.046,0.77,0.073,1.161,0.091
		c0.322,0.107,0.648,0.284,0.951,0.459C16.163,31.253,16.128,31.299,16.083,31.341z M21.081,30.477
		c-0.236,0.454-0.556,0.676-0.979,0.676c-0.033,0-0.068-0.002-0.099-0.004c-0.143-0.017-0.389-0.109-0.672-0.217
		c-0.164-0.062-0.35-0.128-0.535-0.19c0.061-0.099,0.12-0.196,0.177-0.271c0.389-0.081,0.77-0.184,1.147-0.296
		c0.332-0.006,0.693,0.056,1.032,0.123C21.128,30.357,21.108,30.418,21.081,30.477z M25.507,28.006
		c-0.061,0.568-0.321,0.891-0.797,0.983c-0.122,0.028-0.338,0.031-0.49,0.031c-0.144,0-0.304-0.003-0.467-0.007
		c-0.101-0.006-0.204-0.008-0.307-0.009c0.024-0.119,0.047-0.237,0.079-0.328c0.321-0.191,0.638-0.391,0.943-0.605
		c0.315-0.139,0.688-0.201,1.051-0.241C25.515,27.889,25.515,27.945,25.507,28.006z M28.486,25.444
		c-0.115,0.067-0.351,0.139-0.623,0.222c-0.098,0.029-0.2,0.062-0.306,0.094c-0.091,0.03-0.185,0.07-0.278,0.104
		c-0.015-0.121-0.028-0.24-0.025-0.338c0.242-0.284,0.466-0.582,0.687-0.886c0.134-0.112,0.279-0.219,0.445-0.31
		c0.154-0.1,0.317-0.185,0.48-0.267C28.993,24.548,29.036,25.075,28.486,25.444z M15.938,29.147c-7.284,0-13.211-5.927-13.211-13.21
		c0-7.285,5.927-13.211,13.211-13.211c7.285,0,13.21,5.926,13.21,13.211C29.147,23.221,23.222,29.147,15.938,29.147z M29.814,9.564
		c0.469,0.158,0.926,0.412,0.933,1.068c-0.005,0.133-0.077,0.38-0.152,0.643c-0.028,0.098-0.057,0.2-0.091,0.328
		c-0.02,0.082-0.039,0.174-0.058,0.262c-0.104-0.053-0.206-0.104-0.282-0.156c-0.109-0.364-0.239-0.72-0.374-1.074
		C29.756,10.289,29.785,9.916,29.814,9.564z M30.867,20.862c-0.076,0.116-0.313,0.284-0.563,0.464
		c-0.129,0.092-0.272,0.201-0.412,0.311c-0.053-0.111-0.103-0.217-0.135-0.309c0.141-0.36,0.277-0.723,0.389-1.094
		c0.161-0.286,0.409-0.557,0.654-0.802C31.09,19.857,31.301,20.33,30.867,20.862z M31.151,16.549
		c-0.06,0.084-0.113,0.17-0.171,0.255c-0.086-0.088-0.167-0.17-0.225-0.245c0.008-0.207,0.032-0.412,0.032-0.621
		c0-0.188-0.021-0.368-0.028-0.554c0.066-0.322,0.22-0.648,0.375-0.957c0.046,0.033,0.09,0.063,0.135,0.101
		c0.45,0.375,0.574,0.758,0.388,1.209c-0.044,0.121-0.178,0.32-0.332,0.551C31.266,16.373,31.207,16.462,31.151,16.549z"/>
	<path d="M19.746,6.785l-0.354,0.313c0,0-1.813,3.493-3.145,6.091c0.292,0.588,0.557,1.121,0.761,1.541L19.746,6.785z"/>
	<path d="M14.862,15.943c-1.12,2.172-3.48,3.081-3.651,3.145c-0.792,0.183-1.476,0.831-1.745,1.707
		c-0.186,0.607-0.152,1.244,0.095,1.795c0.253,0.564,0.701,0.972,1.26,1.142c0.179,0.055,0.367,0.083,0.557,0.084
		c0.98,0.009,1.89-0.716,2.208-1.76c0.002-0.005,0.002-0.008,0.003-0.013c0.004,0.011,0.005,0.016,0.005,0.016l2.17-6.314
		l0.003-0.001l-0.649-0.327C14.971,15.706,14.88,15.896,14.862,15.943z M12.919,21.853c-0.229,0.75-0.862,1.271-1.537,1.267
		c-0.122-0.001-0.242-0.02-0.357-0.056c-0.363-0.11-0.656-0.38-0.827-0.761c-0.177-0.394-0.2-0.858-0.063-1.303
		c0.229-0.752,0.861-1.273,1.538-1.269c0.12,0.001,0.24,0.02,0.356,0.055c0.363,0.112,0.657,0.382,0.827,0.762
		C13.033,20.942,13.056,21.405,12.919,21.853z"/>
	<path d="M20.789,19.182c-0.253-0.105-2.471-1.078-3.508-3.232c-0.116-0.364-4.443-8.928-4.443-8.928l-0.344-0.293l2.767,8.43
		l1.125,0.569l1.973,6.243c0.008,0.041,0.018,0.083,0.028,0.125c0.294,1.064,1.191,1.814,2.184,1.821
		c0.18,0.002,0.362-0.021,0.534-0.069c0.562-0.156,1.022-0.549,1.292-1.107c0.26-0.542,0.313-1.178,0.142-1.791
		C22.29,20.043,21.601,19.367,20.789,19.182z M15.906,15.049c-0.204-0.001-0.366-0.168-0.366-0.372
		c0.003-0.203,0.168-0.366,0.372-0.364c0.203,0.001,0.367,0.168,0.365,0.37C16.275,14.886,16.109,15.051,15.906,15.049z
		 M21.769,22.438c-0.18,0.375-0.481,0.637-0.848,0.737c-0.112,0.031-0.227,0.046-0.341,0.045c-0.684-0.006-1.308-0.543-1.518-1.31
		c-0.125-0.449-0.089-0.912,0.099-1.303c0.18-0.375,0.482-0.636,0.849-0.737c0.11-0.03,0.226-0.046,0.343-0.044
		c0.68,0.005,1.305,0.543,1.516,1.31C21.992,21.585,21.957,22.048,21.769,22.438z"/>
	<circle cx="7.954" cy="14.976" r="1.394"/>
	<circle cx="24.032" cy="14.976" r="1.394"/>
</g>
<g>
</g>
<g>
</g>
<g>
</g>
<g>
</g>
<g>
</g>
<g>
</g>
<g>
</g>
<g>
</g>
<g>
</g>
<g>
</g>
<g>
</g>
<g>
</g>
<g>
</g>
<g>
</g>
<g>
</g>
</svg>
