<?xml version="1.0" encoding="iso-8859-1"?>
<!-- Generator: Adobe Illustrator 16.0.0, SVG Export Plug-In . SVG Version: 6.00 Build 0)  -->
<!DOCTYPE svg PUBLIC "-//W3C//DTD SVG 1.1//EN" "http://www.w3.org/Graphics/SVG/1.1/DTD/svg11.dtd">
<svg version="1.1" id="Layer_1" xmlns="http://www.w3.org/2000/svg" xmlns:xlink="http://www.w3.org/1999/xlink" x="0px" y="0px"
	 width="31.776px" height="31.351px" viewBox="0 0 31.776 31.351" style="enable-background:new 0 0 31.776 31.351;"
	 xml:space="preserve">
<g>
	<path d="M31.667,27.18c-0.25-0.247-6.393-6.316-12.746-12.594c2.913-4.206,9.363-13.742,9.363-13.742L28.452,0L16.983,12.428
		l0.01,0.254C10.77,6.532,4.895,0.728,4.748,0.583c-0.313-0.309-0.75-0.039-1.061,0.276C3.375,1.175,0.428,4.282,0,4.714
		c0.459,0.555,0.856,0.467,1.189,0.129C1.524,4.504,3.752,2.25,3.752,2.25S3.858,2.355,4.056,2.55L1.382,5.256l0.361,0.357
		l2.674-2.706C4.509,2.998,4.612,3.1,4.72,3.207L2.046,5.913l0.362,0.358l2.673-2.706c0.1,0.099,0.204,0.201,0.313,0.31L2.722,6.581
		l0.362,0.358l2.674-2.706c0.098,0.096,0.2,0.197,0.303,0.299L3.387,7.238l0.362,0.357l2.674-2.707
		C6.506,4.971,6.59,5.055,6.677,5.14L4.003,7.846l0.362,0.358l2.674-2.707c0.1,0.099,0.2,0.198,0.303,0.3L4.668,8.504L5.03,8.861
		l2.674-2.706c0.105,0.104,0.212,0.209,0.32,0.316L5.35,9.178l0.362,0.357l2.674-2.707c0.099,0.099,0.201,0.199,0.303,0.3
		L6.015,9.834l0.362,0.357L9.05,7.485c0.104,0.103,0.208,0.206,0.314,0.311L6.69,10.502l0.361,0.357l2.674-2.706
		c0.101,0.099,0.202,0.199,0.304,0.299l-2.674,2.706l0.363,0.358l2.673-2.706c0.083,0.083,0.17,0.167,0.255,0.251l-2.674,2.707
		l0.362,0.357l2.674-2.707c0.1,0.1,0.201,0.2,0.303,0.3l-2.674,2.706l0.363,0.357l2.674-2.706c0.084,0.084,0.169,0.167,0.254,0.251
		l-2.674,2.706l0.362,0.357l2.674-2.706c0.101,0.1,0.201,0.199,0.303,0.299L9.917,13.69l0.362,0.358l2.674-2.707
		c0.104,0.103,0.208,0.207,0.313,0.31l-2.673,2.707l0.362,0.357l2.673-2.706c0.101,0.099,0.202,0.199,0.303,0.299l-2.673,2.706
		l0.275,0.271c-2.777,0.689-5.178,0.346-5.275,0.332C4.789,15.221,3.062,15.658,1.8,16.9c-1.807,1.778-1.984,4.538-0.396,6.151
		c1.589,1.613,4.351,1.479,6.157-0.299c0.005-0.006,0.01-0.012,0.016-0.018c-0.002,0.016-0.005,0.028-0.005,0.028l8.774-8.069
		c0.048,0.048,0.096,0.096,0.145,0.143l-2.674,2.706l0.361,0.357l0.158-0.16l-5.824,6.171c-0.06,0.054-0.121,0.104-0.179,0.161
		c-1.806,1.779-1.984,4.538-0.396,6.151c1.588,1.613,4.35,1.479,6.157-0.3c1.289-1.268,1.743-3.035,1.324-4.529
		c-0.038-0.308-0.441-4.03,1.318-7.518l1.398-1.416c6.173,6.099,12.033,11.89,12.207,12.061
		C30.71,28.888,32.187,27.694,31.667,27.18z M17.949,12.505c0.275-0.271,0.72-0.268,0.991,0.008c0.272,0.276,0.268,0.72-0.008,0.992
		c-0.275,0.271-0.72,0.268-0.991-0.008C17.669,13.221,17.672,12.776,17.949,12.505z M6.627,21.803
		c-1.284,1.264-3.202,1.405-4.276,0.314c-1.073-1.09-0.902-3.006,0.381-4.271c1.284-1.264,3.202-1.404,4.275-0.313
		C8.082,18.625,7.911,20.54,6.627,21.803z M15.212,13.575l-0.286,0.29c-0.422,0.265-0.852,0.499-1.285,0.695l1.269-1.284
		C15.011,13.375,15.112,13.475,15.212,13.575z M14.293,12.666c0.085,0.084,0.17,0.168,0.255,0.253l-2.064,2.089
		c-0.241,0.08-0.48,0.151-0.717,0.215L14.293,12.666z M13.16,28.976c-1.284,1.264-3.202,1.404-4.275,0.314
		c-1.074-1.091-0.903-3.006,0.381-4.271c1.284-1.264,3.202-1.404,4.275-0.314C14.614,25.796,14.443,27.712,13.16,28.976z"/>
	<path d="M20.8,12.791L31.744,2.744l-0.881,0.202c0,0-2.923,1.984-6.243,4.246C23.331,9.088,21.954,11.11,20.8,12.791z"/>
</g>
<g>
</g>
<g>
</g>
<g>
</g>
<g>
</g>
<g>
</g>
<g>
</g>
<g>
</g>
<g>
</g>
<g>
</g>
<g>
</g>
<g>
</g>
<g>
</g>
<g>
</g>
<g>
</g>
<g>
</g>
</svg>
