<?xml version="1.0" encoding="iso-8859-1"?>
<!-- Generator: Adobe Illustrator 16.0.0, SVG Export Plug-In . SVG Version: 6.00 Build 0)  -->
<!DOCTYPE svg PUBLIC "-//W3C//DTD SVG 1.1//EN" "http://www.w3.org/Graphics/SVG/1.1/DTD/svg11.dtd">
<svg version="1.1" id="Layer_1" xmlns="http://www.w3.org/2000/svg" xmlns:xlink="http://www.w3.org/1999/xlink" x="0px" y="0px"
	 width="31.895px" height="31.943px" viewBox="0 0 31.895 31.943" style="enable-background:new 0 0 31.895 31.943;"
	 xml:space="preserve">
<g>
	<path d="M19.779,7.506l-0.352,0.312c0,0-1.803,3.471-3.127,6.055c0.291,0.584,0.553,1.112,0.757,1.53L19.779,7.506z"/>
	<path d="M14.925,16.608c-1.113,2.158-3.459,3.062-3.629,3.126c-0.787,0.181-1.467,0.824-1.733,1.696
		c-0.186,0.604-0.151,1.237,0.093,1.782c0.253,0.563,0.697,0.967,1.252,1.136c0.179,0.056,0.365,0.083,0.553,0.085
		c0.976,0.008,1.879-0.713,2.197-1.75c0-0.004,0-0.008,0.002-0.012c0.004,0.009,0.005,0.015,0.005,0.015l2.156-6.274l0.003-0.002
		l-0.646-0.326C15.033,16.373,14.942,16.562,14.925,16.608z M12.994,22.481c-0.229,0.746-0.857,1.264-1.527,1.259
		c-0.121,0-0.241-0.02-0.355-0.055c-0.361-0.11-0.652-0.379-0.822-0.756c-0.176-0.393-0.198-0.853-0.063-1.296
		c0.229-0.748,0.857-1.265,1.527-1.261c0.121,0.002,0.239,0.02,0.355,0.056c0.359,0.11,0.652,0.378,0.822,0.755
		C13.107,21.576,13.129,22.036,12.994,22.481z"/>
	<path d="M20.816,19.826c-0.252-0.105-2.457-1.071-3.486-3.21c-0.117-0.363-4.417-8.875-4.417-8.875l-0.342-0.292l2.75,8.377
		l1.12,0.566l1.959,6.206c0.01,0.041,0.019,0.082,0.029,0.124c0.291,1.059,1.186,1.804,2.171,1.812
		c0.179,0.001,0.358-0.022,0.531-0.07c0.558-0.154,1.015-0.544,1.282-1.1c0.26-0.539,0.311-1.171,0.143-1.78
		C22.307,20.683,21.623,20.012,20.816,19.826z M15.962,15.719c-0.202-0.001-0.363-0.166-0.363-0.368
		c0.002-0.203,0.166-0.364,0.369-0.362c0.202,0.001,0.365,0.166,0.363,0.368C16.329,15.559,16.164,15.721,15.962,15.719z
		 M21.789,23.063c-0.18,0.372-0.479,0.632-0.842,0.733c-0.112,0.029-0.227,0.044-0.342,0.043c-0.678-0.005-1.299-0.539-1.508-1.301
		c-0.123-0.447-0.088-0.907,0.1-1.295c0.18-0.372,0.479-0.632,0.844-0.732c0.109-0.031,0.225-0.046,0.339-0.045
		c0.679,0.006,1.298,0.541,1.509,1.302C22.011,22.216,21.976,22.675,21.789,23.063z"/>
	<polygon points="23.033,14.322 22.616,13.477 22.198,14.322 21.265,14.458 21.941,15.116 21.78,16.046 22.616,15.608 
		23.451,16.046 23.291,15.116 23.966,14.458 	"/>
	<polygon points="9.988,15.777 10.822,16.215 10.663,15.285 11.337,14.627 10.404,14.491 9.988,13.646 9.569,14.491 8.636,14.627 
		9.312,15.285 9.151,16.215 	"/>
	<path d="M30.919,16.617c0.01-0.208,0.033-0.413,0.033-0.625c0-0.188-0.021-0.37-0.029-0.557c0.074-0.361,0.256-0.73,0.43-1.072
		c0.172-0.381,0.352-0.723,0.391-0.916c0.157-0.64-0.215-1.025-0.625-1.274c-0.292-0.181-0.6-0.299-0.791-0.432
		c-0.109-0.367-0.24-0.726-0.376-1.08c-0.039-0.383-0.002-0.802,0.03-1.185c0.051-0.422,0.116-0.808,0.096-1.006
		c-0.184-1.123-1.368-1.008-1.924-1.148c-0.222-0.31-0.448-0.616-0.692-0.908c-0.366-0.69-0.398-1.769-0.597-2.09
		c-0.502-1.037-1.615-0.506-2.178-0.47c-0.311-0.223-0.632-0.431-0.959-0.628c-0.547-0.576-0.965-1.518-1.236-1.8
		c-0.451-0.477-0.988-0.354-1.411-0.17c-0.31,0.134-0.576,0.331-0.796,0.43C19.9,1.571,19.51,1.469,19.113,1.385
		c-0.689-0.35-1.36-1.123-1.702-1.27c-0.585-0.267-1.048-0.029-1.388,0.285c-0.248,0.248-0.437,0.525-0.611,0.688
		c-0.395,0.016-0.789,0.039-1.176,0.085c-0.775-0.088-1.68-0.636-2.054-0.646c-0.645-0.081-1.011,0.28-1.22,0.726
		c-0.155,0.31-0.246,0.631-0.362,0.836c-0.36,0.142-0.711,0.298-1.058,0.465C8.763,2.698,7.749,2.533,7.365,2.608
		C6.718,2.725,6.528,3.241,6.453,3.696C6.395,4.03,6.416,4.367,6.376,4.605c-0.303,0.256-0.598,0.52-0.879,0.799
		C4.833,5.802,3.789,5.923,3.491,6.144C2.509,6.74,3.117,7.796,3.205,8.358C3.007,8.688,2.823,9.025,2.65,9.372
		C2.413,9.66,2.063,9.9,1.756,10.126C1.42,10.379,1.1,10.594,0.972,10.745c-0.45,0.486-0.282,1.011-0.054,1.419
		c0.173,0.298,0.377,0.546,0.487,0.754c-0.08,0.382-0.135,0.772-0.186,1.164c-0.315,0.725-0.977,1.476-1.145,1.832
		c-0.365,1.068,0.708,1.534,1.135,1.922c0.05,0.402,0.105,0.805,0.187,1.198c-0.037,0.769-0.502,1.693-0.478,2.06
		c-0.036,1.148,1.177,1.217,1.698,1.448c0.169,0.348,0.352,0.686,0.547,1.017c0.113,0.357,0.125,0.781,0.144,1.164
		c0.028,0.419,0.034,0.805,0.09,0.994c0.162,0.642,0.691,0.787,1.158,0.821c0.346,0.02,0.665-0.017,0.901,0.005
		c0.274,0.274,0.567,0.532,0.862,0.784c0.447,0.647,0.688,1.654,0.912,1.968c0.389,0.514,0.909,0.525,1.359,0.409
		c0.338-0.101,0.639-0.256,0.869-0.313c0.349,0.171,0.703,0.332,1.066,0.478c0.305,0.209,0.578,0.52,0.822,0.823
		c0.275,0.324,0.521,0.61,0.683,0.726c0.263,0.189,0.521,0.249,0.759,0.229c0.241-0.038,0.462-0.154,0.659-0.291
		c0.283-0.195,0.515-0.432,0.712-0.557c0.385,0.048,0.773,0.074,1.168,0.094c0.75,0.25,1.556,0.869,1.926,0.985
		c0.625,0.22,1.037-0.159,1.32-0.521c0.205-0.271,0.35-0.56,0.495-0.746c0.392-0.082,0.774-0.186,1.153-0.298
		c0.783-0.015,1.745,0.325,2.127,0.312c0.642-0.045,0.936-0.477,1.084-0.916c0.102-0.338,0.135-0.676,0.213-0.902
		c0.322-0.193,0.642-0.393,0.949-0.609c0.35-0.154,0.77-0.221,1.17-0.259c0.422-0.056,0.797-0.103,0.981-0.175
		c0.618-0.222,0.745-0.736,0.725-1.22c-0.009-0.346-0.08-0.672-0.073-0.906c0.244-0.286,0.47-0.587,0.691-0.892
		c0.135-0.114,0.281-0.221,0.447-0.312c0.183-0.117,0.379-0.22,0.57-0.314c0.381-0.189,0.74-0.344,0.895-0.469
		c0.84-0.767,0.103-1.694-0.086-2.236c0.142-0.362,0.278-0.727,0.392-1.101c0.381-0.677,1.257-1.284,1.411-1.624
		C32.303,17.706,31.271,17.068,30.919,16.617z M16.017,29.279c-7.326,0-13.287-5.96-13.287-13.287
		c0-7.326,5.96-13.287,13.287-13.287c7.327,0,13.287,5.961,13.287,13.287C29.304,23.319,23.344,29.279,16.017,29.279z"/>
	<path d="M16.107,3.424c-6.92,0-12.548,5.629-12.548,12.549c0,6.918,5.628,12.548,12.548,12.548s12.549-5.63,12.549-12.548
		C28.656,9.053,23.027,3.424,16.107,3.424z M16.107,27.717c-6.476,0-11.745-5.269-11.745-11.744c0-6.477,5.27-11.746,11.745-11.746
		c6.477,0,11.745,5.27,11.745,11.746C27.852,22.448,22.583,27.717,16.107,27.717z"/>
</g>
<g>
</g>
<g>
</g>
<g>
</g>
<g>
</g>
<g>
</g>
<g>
</g>
<g>
</g>
<g>
</g>
<g>
</g>
<g>
</g>
<g>
</g>
<g>
</g>
<g>
</g>
<g>
</g>
<g>
</g>
</svg>
