<?xml version="1.0" encoding="iso-8859-1"?>
<!-- Generator: Adobe Illustrator 16.0.0, SVG Export Plug-In . SVG Version: 6.00 Build 0)  -->
<!DOCTYPE svg PUBLIC "-//W3C//DTD SVG 1.1//EN" "http://www.w3.org/Graphics/SVG/1.1/DTD/svg11.dtd">
<svg version="1.1" id="Layer_1" xmlns="http://www.w3.org/2000/svg" xmlns:xlink="http://www.w3.org/1999/xlink" x="0px" y="0px"
	 width="31.88px" height="27.22px" viewBox="0 0 31.88 27.22" style="enable-background:new 0 0 31.88 27.22;" xml:space="preserve"
	>
<g>
	<path d="M25.633,24.925c0.136-0.496,0.168-1.02,0.064-1.543c-0.282-1.41-1.414-2.45-2.753-2.599
		c-0.01-0.004-0.012-0.011-0.023-0.014c-1.485-0.215-2.599-2.455-3.333-3.34c-0.733-0.885-2.058-2.322-2.738-2.981
		c-0.042-0.041-0.108-0.129-0.196-0.258L18.749,0l-3.542,11.335c0,0-0.033,0.104-0.091,0.285C12.8,7.589,9.058,0.708,9.058,0.708
		s4.631,13.869,4.792,14.35c-0.837,2.023-1.727,4.6-3.789,4.705c-0.007,0.003-0.006,0.011-0.012,0.014
		c-1.574,0.075-2.837,1.539-2.837,3.342c0,1.85,1.329,3.355,2.96,3.355c1.003,0,1.94-0.694,2.782-1.4
		c0.213-0.862,0.178-1.242,0.178-1.955c0-0.466-0.085-0.909-0.237-1.313v0c-0.25-1,2.127-5.911,2.582-6.21
		c2.274,1.396,5.183,4.977,4.477,6.813c0.003,0.001,0.011,0.001,0.015,0.002c-0.345,0.664-0.465,1.425-0.313,2.181
		c0.305,1.523,1.599,2.629,3.077,2.629c0.194,0,0.389-0.019,0.579-0.058c0.688-0.138,1.283-0.519,1.725-1.067
		c0.3,0.068,0.709,0.208,0.999,0.497c1.037,1.113,2.024,0.304,2.251,0C28.503,26.304,26.138,26.059,25.633,24.925z M10.172,25.463
		c-1.074,0-1.948-1.051-1.948-2.343c0-1.292,0.874-2.344,1.948-2.344c0.355,0,0.685,0.124,0.972,0.324
		c0.059,0.046,0.118,0.092,0.178,0.137c0.482,0.427,0.799,1.108,0.799,1.882C12.121,24.412,11.246,25.463,10.172,25.463z
		 M15.114,14.542c-0.354,0-0.642-0.288-0.642-0.642c0-0.354,0.288-0.642,0.642-0.642s0.642,0.288,0.642,0.642
		C15.756,14.254,15.469,14.542,15.114,14.542z M24.412,25.256c-0.301,0.482-0.763,0.807-1.298,0.914
		c-0.125,0.025-0.254,0.038-0.381,0.038c-0.998,0-1.874-0.764-2.084-1.815c-0.118-0.588-0.014-1.184,0.293-1.675
		c0.301-0.482,0.762-0.807,1.298-0.914c0.126-0.025,0.254-0.038,0.381-0.038c0.998,0,1.874,0.764,2.085,1.815
		C24.823,24.169,24.718,24.764,24.412,25.256z"/>
	<path d="M11.255,8.874l-0.273-0.907c-0.735-0.051-1.449-0.099-2.128-0.159C8.04,7.733,7.272,7.659,6.566,7.569
		C5.861,7.475,5.216,7.376,4.65,7.264C4.085,7.148,3.595,7.029,3.2,6.905c-0.395-0.128-0.7-0.246-0.902-0.34
		C2.096,6.467,1.99,6.41,1.99,6.41S2.085,6.483,2.27,6.611c0.189,0.124,0.473,0.302,0.857,0.48c0.767,0.362,1.924,0.745,3.34,1.048
		c0.708,0.154,1.479,0.297,2.297,0.417C9.556,8.674,10.391,8.786,11.255,8.874z"/>
	<path d="M14.255,9.14c0.408,0.027,0.817,0.054,1.229,0.081l0.305-0.979c-0.543-0.029-1.084-0.058-1.621-0.086
		c-0.16-0.01-0.318-0.019-0.477-0.028L14.255,9.14z"/>
	<path d="M31.835,11.079c-0.026-0.053-0.079-0.122-0.153-0.209c-0.153-0.169-0.42-0.385-0.804-0.576
		c-0.381-0.193-0.867-0.379-1.436-0.541c-0.568-0.166-1.217-0.318-1.929-0.445c-0.712-0.132-1.486-0.251-2.307-0.35
		c-0.82-0.101-1.686-0.197-2.582-0.27c-0.896-0.073-1.821-0.157-2.762-0.209c-0.639-0.039-1.285-0.078-1.933-0.117l-0.131,0.995
		c0.673,0.033,1.345,0.065,2.009,0.098c0.939,0.052,1.864,0.076,2.756,0.123c0.893,0.048,1.756,0.083,2.572,0.133
		c0.815,0.054,1.586,0.106,2.295,0.173c1.416,0.136,2.588,0.325,3.367,0.595c0.387,0.137,0.674,0.291,0.845,0.431
		c0.084,0.071,0.147,0.13,0.18,0.177c0.037,0.044,0.057,0.068,0.057,0.068S31.865,11.129,31.835,11.079z"/>
	<path d="M3.73,6.096c0.573,0.193,1.231,0.375,1.958,0.53c0.726,0.157,1.517,0.298,2.358,0.409c0.84,0.114,1.728,0.218,2.648,0.289
		c0.031,0.002,0.064,0.004,0.096,0.007l-0.272-0.906C9.689,6.383,8.887,6.344,8.126,6.286C7.293,6.22,6.508,6.149,5.787,6.056
		c-0.72-0.097-1.377-0.204-1.954-0.331c-0.575-0.129-1.071-0.267-1.471-0.41c-0.4-0.142-0.703-0.284-0.907-0.386
		C1.254,4.817,1.147,4.757,1.147,4.757s0.096,0.076,0.277,0.218C1.614,5.106,1.893,5.307,2.282,5.5
		C2.669,5.695,3.155,5.907,3.73,6.096z"/>
	<path d="M16.296,6.614c-0.915-0.026-1.828-0.052-2.728-0.078c-0.261-0.01-0.52-0.019-0.778-0.027l0.553,0.993
		c0.062,0.003,0.124,0.007,0.186,0.009c0.811,0.033,1.633,0.066,2.456,0.1L16.296,6.614z"/>
	<path d="M24.89,7.152c-0.842-0.104-1.73-0.194-2.65-0.257c-0.92-0.063-1.869-0.131-2.834-0.166
		c-0.416-0.016-0.834-0.032-1.254-0.047l-0.13,0.989c0.452,0.012,0.903,0.023,1.35,0.035c0.961,0.034,1.907,0.042,2.82,0.079
		c0.913,0.038,1.795,0.068,2.628,0.119c0.833,0.056,1.619,0.118,2.341,0.202c0.721,0.088,1.376,0.194,1.949,0.325
		c0.571,0.134,1.062,0.286,1.445,0.459c0.383,0.173,0.665,0.354,0.835,0.504c0.092,0.069,0.148,0.136,0.191,0.177
		c0.042,0.042,0.063,0.064,0.063,0.064s-0.018-0.024-0.053-0.073c-0.036-0.047-0.083-0.124-0.163-0.208
		c-0.15-0.176-0.404-0.416-0.78-0.643c-0.745-0.465-1.939-0.886-3.395-1.18C26.525,7.382,25.731,7.252,24.89,7.152z"/>
	<path d="M12.382,5.544c0.964,0.039,1.944,0.079,2.923,0.118c0.426,0.011,0.852,0.022,1.276,0.033l0.307-0.985
		c-0.516-0.02-1.034-0.039-1.552-0.059c-0.977-0.028-1.954-0.056-2.916-0.083c-0.243-0.009-0.485-0.018-0.726-0.025l0.554,0.994
		C12.293,5.54,12.338,5.542,12.382,5.544z"/>
	<path d="M4.542,4.659c0.726,0.157,1.517,0.297,2.358,0.409c0.84,0.114,1.729,0.218,2.648,0.289c0.218,0.017,0.442,0.033,0.663,0.05
		L9.933,4.482c-0.109-0.004-0.22-0.007-0.328-0.013c-0.912-0.046-1.792-0.087-2.625-0.15C6.147,4.252,5.361,4.181,4.64,4.088
		C3.919,3.991,3.262,3.884,2.686,3.757C2.111,3.628,1.615,3.49,1.215,3.348c-0.4-0.142-0.703-0.284-0.908-0.386
		C0.107,2.85,0,2.79,0,2.79s0.096,0.076,0.277,0.218c0.189,0.132,0.469,0.332,0.858,0.525c0.387,0.196,0.873,0.407,1.447,0.597
		C3.156,4.322,3.815,4.504,4.542,4.659z"/>
	<path d="M18.274,5.74c0.944,0.032,1.873,0.041,2.77,0.077c0.913,0.037,1.794,0.068,2.628,0.119c0.833,0.056,1.619,0.118,2.34,0.202
		c0.721,0.088,1.377,0.194,1.949,0.325c0.571,0.134,1.062,0.286,1.445,0.459c0.383,0.173,0.665,0.354,0.836,0.504
		c0.091,0.069,0.148,0.136,0.191,0.177c0.042,0.042,0.063,0.064,0.063,0.064s-0.018-0.024-0.053-0.073
		c-0.036-0.047-0.083-0.125-0.163-0.208c-0.151-0.176-0.404-0.416-0.78-0.643c-0.745-0.466-1.939-0.886-3.395-1.18
		c-0.729-0.15-1.522-0.28-2.364-0.381c-0.842-0.104-1.73-0.194-2.65-0.257c-0.874-0.061-1.775-0.124-2.69-0.159L18.274,5.74z"/>
</g>
<g>
</g>
<g>
</g>
<g>
</g>
<g>
</g>
<g>
</g>
<g>
</g>
<g>
</g>
<g>
</g>
<g>
</g>
<g>
</g>
<g>
</g>
<g>
</g>
<g>
</g>
<g>
</g>
<g>
</g>
</svg>
