<?xml version="1.0" encoding="iso-8859-1"?>
<!-- Generator: Adobe Illustrator 16.0.0, SVG Export Plug-In . SVG Version: 6.00 Build 0)  -->
<!DOCTYPE svg PUBLIC "-//W3C//DTD SVG 1.1//EN" "http://www.w3.org/Graphics/SVG/1.1/DTD/svg11.dtd">
<svg version="1.1" id="Layer_1" xmlns="http://www.w3.org/2000/svg" xmlns:xlink="http://www.w3.org/1999/xlink" x="0px" y="0px"
	 width="27.301px" height="31.871px" viewBox="0 0 27.301 31.871" style="enable-background:new 0 0 27.301 31.871;"
	 xml:space="preserve">
<g>
	<path d="M7.502,19.082l5.233-2.143c-0.019-0.798-0.045-1.495-0.067-1.98c-0.609,0.513-1.097,0.905-1.361,1.082
		c-0.985,0.658-3.524,1.583-4.804,2.029c-1.517-0.98-3.729-0.618-5.199,0.945c-1.607,1.71-1.746,4.175-0.317,5.611
		c0.025,0.026,0.052,0.051,0.078,0.077c1.495,1.405,4.035,1.14,5.661-0.592C8.133,22.613,8.415,20.539,7.502,19.082z M1.8,23.92
		l-0.053-0.052c-1.002-1.006-0.85-2.854,0.338-4.119c1.222-1.3,3.082-1.544,4.145-0.544l0.053,0.051
		c1.003,1.006,0.85,2.854-0.338,4.119C4.723,24.675,2.864,24.92,1.8,23.92z"/>
	<path d="M14.803,29.796c1.161-1.745,1.074-3.946-0.207-5.234c-0.018-0.017-0.037-0.032-0.055-0.049
		c-0.05-1.207-0.01-3.824,0.944-6.802c0.145-1.217,8.692-17.497,8.692-17.497L23.585,0L13.408,14.388c0,0,0.399,6.649-0.235,9.344
		c-1.586-0.448-3.471,0.297-4.565,1.942c-1.161,1.745-1.074,3.945,0.207,5.232c0.153,0.154,0.323,0.294,0.505,0.415
		C11.027,32.458,13.487,31.773,14.803,29.796z M14.506,15.176c-0.254-0.255-0.252-0.668,0.002-0.922
		C14.764,14,15.176,14,15.431,14.256c0.254,0.255,0.253,0.668-0.002,0.922C15.173,15.433,14.76,15.432,14.506,15.176z M9.913,30.428
		c-0.122-0.081-0.236-0.174-0.338-0.278c-0.923-0.927-0.954-2.559-0.074-3.882c0.988-1.485,2.781-2.036,3.997-1.226
		c0.122,0.081,0.236,0.175,0.339,0.277c0.922,0.927,0.954,2.56,0.074,3.882C12.922,30.687,11.129,31.236,9.913,30.428z"/>
	<path d="M27.301,2.498l-0.449-0.451l-5.784,5.408c-1.055,2.059-2.15,4.222-3.034,6.023L27.301,2.498z"/>
</g>
<g>
</g>
<g>
</g>
<g>
</g>
<g>
</g>
<g>
</g>
<g>
</g>
<g>
</g>
<g>
</g>
<g>
</g>
<g>
</g>
<g>
</g>
<g>
</g>
<g>
</g>
<g>
</g>
<g>
</g>
</svg>
