<?xml version="1.0" encoding="iso-8859-1"?>
<!-- Generator: Adobe Illustrator 16.0.0, SVG Export Plug-In . SVG Version: 6.00 Build 0)  -->
<!DOCTYPE svg PUBLIC "-//W3C//DTD SVG 1.1//EN" "http://www.w3.org/Graphics/SVG/1.1/DTD/svg11.dtd">
<svg version="1.1" id="Layer_1" xmlns="http://www.w3.org/2000/svg" xmlns:xlink="http://www.w3.org/1999/xlink" x="0px" y="0px"
	 width="27.223px" height="31.762px" viewBox="0 0 27.223 31.762" style="enable-background:new 0 0 27.223 31.762;"
	 xml:space="preserve">
<g>
	<path d="M22.061,17.875L22.061,17.875h-0.001c-0.19-0.049-0.38-0.087-0.57-0.112c-0.006-0.001-0.012-0.002-0.019-0.003
		c-0.194-0.025-0.387-0.04-0.577-0.04c-0.131,0-0.26,0.008-0.388,0.02c-0.039,0.004-0.077,0.009-0.116,0.014
		c-0.09,0.011-0.18,0.025-0.269,0.042c-0.042,0.008-0.083,0.017-0.124,0.027c-0.089,0.02-0.176,0.044-0.263,0.071
		c-0.035,0.011-0.07,0.021-0.105,0.032c-0.118,0.041-0.234,0.085-0.346,0.138c-0.001,0-0.002,0.001-0.002,0.001l0,0
		c-0.174,0.082-0.339,0.181-0.498,0.292l0,0l0,0c-0.115,0.081-0.227,0.166-0.333,0.262c-0.024,0.022-0.045,0.047-0.069,0.07l0,0
		c-0.119,0.115-0.227,0.237-0.325,0.366l0,0v0c-0.151,0.199-0.281,0.411-0.387,0.637c-0.093-0.115-0.219-0.271-0.37-0.458h0
		c-0.117-0.145-0.255-0.315-0.402-0.497c-0.256-0.317-0.557-0.689-0.892-1.104c-0.187-0.231-0.383-0.474-0.59-0.73h0
		c-0.201-0.249-0.41-0.508-0.627-0.777l0,0c-0.011-0.014-0.022-0.028-0.033-0.041l0,0c-0.427-0.528-0.88-1.09-1.354-1.676
		C15.659,9.124,17.883,2.985,17.522,0c-0.386,0.842-3.224,7.032-5.707,12.448C8.136,7.894,4.04,2.823,3.472,2.12
		c0.378,2.908,3.883,8.12,7.298,12.609c-0.989,2.157-1.839,4.012-2.335,5.093c-0.099-0.12-0.205-0.234-0.322-0.341
		c-0.666-0.606-1.526-0.898-2.443-0.898c-1.396,0-2.923,0.678-4.085,1.954c-1.925,2.114-2.124,5.068-0.443,6.599
		c0.666,0.606,1.526,0.898,2.443,0.898c1.397,0,2.923-0.678,4.085-1.954c0.67-0.736,1.126-1.574,1.372-2.418l0.021,0.054
		c0,0,1.535-2.996,3.3-6.934c0.469,0.593,0.923,1.16,1.359,1.697l0,0c0.019,0.023,0.038,0.046,0.057,0.07
		c0.052,0.064,0.104,0.129,0.156,0.192c0.008,0.01,0.016,0.02,0.023,0.029h0c0.221,0.271,0.435,0.532,0.643,0.784l0,0
		c0.004,0.005,0.007,0.009,0.011,0.014c0.406,0.492,0.784,0.945,1.124,1.349l0,0c0.016,0.019,0.029,0.035,0.044,0.053
		c0.218,0.259,0.421,0.499,0.605,0.714c0.008,0.01,0.017,0.021,0.025,0.031h0c0.253,0.297,0.469,0.548,0.642,0.749l0,0
		c0.002,0.002,0.003,0.004,0.005,0.006c0.299,0.346,0.471,0.542,0.471,0.542l0.015-0.132c0.251,0.817,0.699,1.626,1.348,2.339
		c0,0,0,0,0,0l0,0c1.163,1.276,2.688,1.954,4.085,1.954c0.917,0,1.777-0.292,2.443-0.898c1.68-1.531,1.481-4.484-0.444-6.599
		C24.134,18.748,23.099,18.141,22.061,17.875z M7.072,23.089c-0.168,0.578-0.485,1.134-0.918,1.609
		c-0.732,0.804-1.692,1.284-2.569,1.284c-0.439,0-0.797-0.123-1.062-0.364c-0.813-0.74-0.542-2.47,0.579-3.701
		c0.732-0.805,1.693-1.285,2.569-1.285c0.439,0,0.797,0.123,1.063,0.364c0.035,0.032,0.076,0.077,0.123,0.133l0.582,0.702
		L7.072,23.089z M12.203,15.276c-0.283,0-0.513-0.229-0.513-0.513s0.229-0.513,0.513-0.513c0.283,0,0.513,0.229,0.513,0.513
		S12.486,15.276,12.203,15.276z M24.04,24.756c-0.265,0.241-0.622,0.363-1.062,0.363c-0.876,0-1.837-0.48-2.569-1.284
		c-0.225-0.247-0.417-0.518-0.575-0.801c0.451-1.045,0.924-2.141,1.398-3.24c0.778,0.105,1.59,0.559,2.228,1.26
		C24.583,22.286,24.853,24.016,24.04,24.756z"/>
	<path d="M21.691,0.003c-0.193-0.03-0.237,0.14-0.094,0.224c1.046,0.621,1.94,1.225,2.576,1.868l-2.852-1.23l-0.184,0.426
		l3.655,1.577c0.123,0.203,0.217,0.413,0.283,0.628l-4.121-1.778L20.77,2.145l4.403,1.9c0.011,0.161,0.003,0.327-0.02,0.498
		l-4.568-1.971l-0.184,0.427l4.65,2.006c-0.035,0.113-0.08,0.229-0.129,0.346l-4.667-2.014l-0.184,0.426l4.67,2.016
		c-0.05,0.116-0.105,0.245-0.171,0.397L19.9,4.161l-0.184,0.427l4.67,2.016c-0.058,0.133-0.119,0.276-0.184,0.426l-4.671-2.015
		L19.348,5.44l4.67,2.016c-0.06,0.138-0.121,0.279-0.184,0.427l-4.67-2.016l-0.185,0.427l4.67,2.016
		c-0.007,0.018-0.014,0.034-0.022,0.052c0,0-0.053,0.125-0.148,0.345l-4.671-2.015l-0.184,0.427l4.67,2.015
		c-0.056,0.129-0.116,0.269-0.184,0.427l-4.671-2.016l-0.184,0.427l4.671,2.016c-0.043,0.1-0.087,0.201-0.134,0.309l-4.67-2.016
		l-0.185,0.427l4.67,2.015c-0.056,0.129-0.112,0.26-0.171,0.397l-4.67-2.016l-0.185,0.427l4.671,2.016
		c-0.06,0.138-0.122,0.282-0.184,0.427l-4.67-2.016l-0.185,0.426l4.67,2.016c-0.06,0.14-0.122,0.282-0.184,0.426l-4.67-2.015
		l-0.184,0.426l4.67,2.016c-0.056,0.131-0.114,0.263-0.171,0.397l-4.67-2.015l-0.185,0.426l4.67,2.016
		c-0.061,0.141-0.122,0.284-0.184,0.427l-4.671-2.015l-0.184,0.426l4.67,2.016c-0.05,0.117-0.101,0.235-0.152,0.353l-4.67-2.016
		l-0.184,0.427l4.671,2.016c-0.057,0.132-0.114,0.264-0.172,0.397l-4.67-2.016l-0.184,0.427l4.67,2.015
		c-0.049,0.113-0.097,0.225-0.146,0.338l-4.67-2.016L15.1,15.283l4.514,1.948c0.403-0.116,0.831-0.178,1.279-0.178
		c0.475,0,0.957,0.077,1.433,0.209c1.845-4.275,3.442-7.977,3.442-7.977c0.582-1.348,1.033-2.394,1.246-2.885
		C28.002,4.108,25.364,0.563,21.691,0.003z"/>
	<path d="M17.733,18.409c0.087-0.097,0.172-0.196,0.268-0.284c0.028-0.025,0.057-0.046,0.085-0.07l-1.354-0.584l0.628,0.777
		L17.733,18.409z"/>
	<path d="M17.044,23.469l-4.617-1.992l-0.185,0.427l4.671,2.016c-0.062,0.145-0.124,0.287-0.184,0.427l-4.671-2.016l-0.184,0.427
		l4.67,2.016c-0.058,0.134-0.115,0.267-0.171,0.397l-4.671-2.016l-0.184,0.427l4.67,2.016c-0.063,0.146-0.124,0.288-0.184,0.427
		l-4.67-2.016l-0.185,0.427l4.67,2.015c-0.052,0.122-0.103,0.239-0.152,0.354l-4.671-2.016l-0.184,0.426l4.67,2.016
		c-0.06,0.139-0.118,0.273-0.171,0.397l-4.671-2.016l-0.184,0.427l4.67,2.016c-0.07,0.162-0.131,0.304-0.184,0.426l-4.67-2.015
		l-0.185,0.426l4.668,2.015c-0.063,0.15-0.133,0.289-0.207,0.417l-4.646-2.004l-0.185,0.426l4.559,1.967
		c-0.102,0.124-0.21,0.233-0.327,0.33l-4.403-1.9l-0.185,0.426l4.122,1.779c-0.202,0.1-0.418,0.175-0.651,0.225l-3.655-1.578
		l-0.185,0.427l2.851,1.23c-0.928-0.022-2.009-0.27-3.212-0.618c-0.151-0.044-0.163,0.128-0.009,0.249
		c2.926,2.286,7.314,1.774,8.303-0.518c0.246-0.57,0.87-2.017,1.678-3.891c-0.069-0.07-0.142-0.135-0.209-0.209
		C17.81,25.017,17.346,24.264,17.044,23.469z"/>
	<path d="M19.026,17.449l-3.551-1.533l0.222,0.274l0.406,0.503l2.41,1.04C18.677,17.627,18.848,17.531,19.026,17.449z"/>
	<path d="M12.611,21.051l3.735,1.612c-0.194-0.226-0.422-0.493-0.684-0.801l-2.868-1.238L12.611,21.051z"/>
	<path d="M13.284,19.491l0.624,0.269c-0.158-0.192-0.32-0.389-0.485-0.592L13.284,19.491z"/>
	<path d="M12.967,20.227l2.07,0.894c-0.207-0.247-0.429-0.513-0.658-0.79L13.15,19.8L12.967,20.227z"/>
</g>
<g>
</g>
<g>
</g>
<g>
</g>
<g>
</g>
<g>
</g>
<g>
</g>
<g>
</g>
<g>
</g>
<g>
</g>
<g>
</g>
<g>
</g>
<g>
</g>
<g>
</g>
<g>
</g>
<g>
</g>
</svg>
