<?xml version="1.0" encoding="iso-8859-1"?>
<!-- Generator: Adobe Illustrator 16.0.0, SVG Export Plug-In . SVG Version: 6.00 Build 0)  -->
<!DOCTYPE svg PUBLIC "-//W3C//DTD SVG 1.1//EN" "http://www.w3.org/Graphics/SVG/1.1/DTD/svg11.dtd">
<svg version="1.1" id="Layer_1" xmlns="http://www.w3.org/2000/svg" xmlns:xlink="http://www.w3.org/1999/xlink" x="0px" y="0px"
	 width="31.636px" height="31.588px" viewBox="0 0 31.636 31.588" style="enable-background:new 0 0 31.636 31.588;"
	 xml:space="preserve">
<g>
	<path d="M12.907,26.158c0.071-0.008,0.088-0.049,0.021-0.132c-0.422-0.521,1.828-4.986,3.313-7.577
		c0.401-0.698,1.502-2.31,2.878-4.305c5.146-3.529,12.987-9.059,12.495-9.655c-0.392-0.472-5.007,2.434-9.61,5.468
		c3.201-4.675,6.411-9.53,5.918-9.934C27.302-0.484,21.32,7.759,17.774,12.77c-2.303,1.539-4.19,2.803-4.953,3.245
		c-2.415,1.402-6.467,3.48-7.408,3.402c-1.218-1.076-3.15-0.972-4.397,0.274c-1.291,1.292-1.36,3.324-0.154,4.53
		c1.208,1.207,3.239,1.138,4.531-0.153c0.866-0.867,1.18-2.064,0.931-3.125c0.889-1.083,8.465-3.864,8.465-3.864
		s0.077-0.052,0.218-0.145c-0.62,1.675-2.85,7.575-3.728,8.093c-0.095,0.053-0.124,0.118-0.108,0.192
		c-1-0.157-2.092,0.173-2.896,0.978c-1.291,1.292-1.36,3.324-0.155,4.53c1.208,1.207,3.241,1.138,4.532-0.154
		C13.901,29.32,14,27.375,12.907,26.158z M4.929,23.604c-1.036,1.036-2.653,1.105-3.604,0.154c-0.952-0.951-0.882-2.569,0.153-3.605
		c1.037-1.037,2.654-1.106,3.605-0.154C6.036,20.951,5.966,22.568,4.929,23.604z M15.969,15.911c-0.325-0.325-0.325-0.854,0-1.179
		c0.325-0.325,0.854-0.325,1.179,0c0.325,0.325,0.325,0.853,0,1.178C16.823,16.236,16.294,16.236,15.969,15.911z M8.582,30.264
		C7.63,29.313,7.7,27.695,8.735,26.659c1.038-1.037,2.655-1.106,3.606-0.155c0.951,0.952,0.882,2.569-0.154,3.605
		C11.149,31.146,9.533,31.215,8.582,30.264z"/>
	<circle cx="16.558" cy="15.322" r="0.505"/>
</g>
<g>
</g>
<g>
</g>
<g>
</g>
<g>
</g>
<g>
</g>
<g>
</g>
<g>
</g>
<g>
</g>
<g>
</g>
<g>
</g>
<g>
</g>
<g>
</g>
<g>
</g>
<g>
</g>
<g>
</g>
</svg>
