<?xml version="1.0" encoding="iso-8859-1"?>
<!-- Generator: Adobe Illustrator 16.0.0, SVG Export Plug-In . SVG Version: 6.00 Build 0)  -->
<!DOCTYPE svg PUBLIC "-//W3C//DTD SVG 1.1//EN" "http://www.w3.org/Graphics/SVG/1.1/DTD/svg11.dtd">
<svg version="1.1" id="Layer_1" xmlns="http://www.w3.org/2000/svg" xmlns:xlink="http://www.w3.org/1999/xlink" x="0px" y="0px"
	 width="31.831px" height="31.705px" viewBox="0 0 31.831 31.705" style="enable-background:new 0 0 31.831 31.705;"
	 xml:space="preserve">
<g>
	<path d="M31.831,8.881L31.018,8.83c0,0-6.445,2.042-11.222,3.582c-0.359,1.07-0.685,2.036-0.946,2.796L31.831,8.881z"/>
	<path d="M14.769,14.077c-4,1.275-7.974-0.488-8.258-0.618c-1.184-0.741-2.803-0.783-4.193-0.044
		c-0.965,0.512-1.698,1.327-2.067,2.294c-0.379,0.995-0.328,2.032,0.143,2.918c0.152,0.286,0.344,0.548,0.571,0.779
		c1.183,1.202,3.168,1.426,4.825,0.545c0.006-0.003,0.012-0.007,0.019-0.011c-0.008,0.015-0.012,0.023-0.012,0.023l10.307-5.035
		l0.006,0.002l-0.391-1.189C15.189,13.919,14.847,14.039,14.769,14.077z M5.228,18.893c-1.192,0.634-2.595,0.499-3.409-0.328
		c-0.145-0.148-0.269-0.316-0.366-0.5c-0.307-0.577-0.335-1.262-0.081-1.93c0.265-0.696,0.8-1.286,1.508-1.662
		c1.193-0.633,2.594-0.499,3.408,0.328c0.146,0.148,0.269,0.316,0.367,0.5c0.306,0.577,0.335,1.262,0.082,1.929
		C6.472,17.926,5.936,18.516,5.228,18.893z"/>
	<path d="M18.015,29.487c0.798-1.406,0.782-3.064,0.022-4.277c-0.18-0.437-1.693-4.313-0.339-8.188
		c0.302-0.586,5.451-16.25,5.451-16.25L23.087,0l-6.88,13.604l0.676,2.06l-5.189,9.981c-0.039,0.063-0.081,0.124-0.118,0.188
		c-0.937,1.651-0.756,3.653,0.44,4.868l0,0c0.217,0.221,0.464,0.411,0.733,0.563c0.873,0.496,1.907,0.575,2.913,0.224
		C16.641,31.148,17.476,30.438,18.015,29.487z M17.124,14.255c-0.245-0.249-0.241-0.648,0.007-0.894
		c0.249-0.245,0.649-0.242,0.894,0.007c0.245,0.249,0.242,0.649-0.007,0.894C17.769,14.507,17.369,14.504,17.124,14.255z
		 M15.269,30.357c-0.675,0.235-1.359,0.188-1.927-0.135c-0.172-0.098-0.331-0.22-0.47-0.361c-0.822-0.835-0.926-2.248-0.252-3.436
		c0.396-0.697,1-1.216,1.704-1.461c0.674-0.235,1.358-0.188,1.926,0.135c0.173,0.099,0.332,0.22,0.471,0.361
		c0.822,0.835,0.926,2.248,0.252,3.436C16.576,29.593,15.971,30.112,15.269,30.357z"/>
</g>
<g>
</g>
<g>
</g>
<g>
</g>
<g>
</g>
<g>
</g>
<g>
</g>
<g>
</g>
<g>
</g>
<g>
</g>
<g>
</g>
<g>
</g>
<g>
</g>
<g>
</g>
<g>
</g>
<g>
</g>
</svg>
