<?xml version="1.0" encoding="iso-8859-1"?>
<!-- Generator: Adobe Illustrator 16.0.0, SVG Export Plug-In . SVG Version: 6.00 Build 0)  -->
<!DOCTYPE svg PUBLIC "-//W3C//DTD SVG 1.1//EN" "http://www.w3.org/Graphics/SVG/1.1/DTD/svg11.dtd">
<svg version="1.1" id="Layer_1" xmlns="http://www.w3.org/2000/svg" xmlns:xlink="http://www.w3.org/1999/xlink" x="0px" y="0px"
	 width="29.143px" height="32px" viewBox="0 0 29.143 32" style="enable-background:new 0 0 29.143 32;" xml:space="preserve">
<g>
	<ellipse cx="25.769" cy="4.369" rx="3.374" ry="3.477"/>
	<path d="M27.987,9.338c-1.219-0.991-3.338-0.438-4.392-0.143c-1.18,0.452-3.439-0.237-6.462-1.13
		c0.028-0.108,0.047-0.217,0.047-0.327c0-0.713-0.559-1.299-1.285-1.349c-0.158-0.587-0.698-1.003-1.321-1.003
		c-0.458,0-0.884,0.231-1.137,0.609c-0.139-0.046-0.285-0.07-0.433-0.07c-0.755,0-1.37,0.607-1.37,1.354
		c0,0.349,0.136,0.667,0.359,0.907c-1.03,0.525-1.736,1.596-1.736,2.831c0,1.758,1.424,3.183,3.182,3.183
		c1.757,0,3.182-1.425,3.182-3.183c0-0.075-0.006-0.147-0.011-0.221c0.054,0.007,0.107,0.017,0.162,0.017
		c0.507,0,0.945-0.277,1.183-0.683c2.205,0.382,5.616,1.052,5.597,1.538c-0.028,0.718-0.343,7.937-0.063,8.176l0,0l-0.577,5.348
		l0.51,5.26h-1.488V32h5.059v-0.336v-1.211v-9.937c0.595-0.116,1.049-0.431,1.128-1.081C28.365,17.39,29.346,10.442,27.987,9.338z
		 M11.9,7.28c0-0.601,0.496-1.09,1.104-1.09c0.151,0,0.298,0.03,0.437,0.089l0.11,0.049l0.058-0.105
		c0.194-0.353,0.564-0.572,0.965-0.572c0.533,0,0.988,0.376,1.084,0.892l0.043,0.106h0.111c0.608,0,1.104,0.488,1.104,1.09
		c0,0.085-0.013,0.17-0.034,0.253c-0.249-0.073-0.5-0.146-0.757-0.222v1.547c-0.565-0.889-1.555-1.479-2.685-1.479
		c-0.421,0-0.822,0.082-1.189,0.23C12.035,7.871,11.9,7.591,11.9,7.28z M16.772,10.55c-0.066,0-0.13-0.012-0.193-0.023
		c-0.035-0.226-0.093-0.443-0.173-0.651c0.271,0.042,0.722,0.116,1.27,0.208C17.476,10.365,17.146,10.55,16.772,10.55z"/>
	<circle cx="16.661" cy="5.02" r="0.536"/>
	<circle cx="14.351" cy="3.831" r="0.537"/>
	<circle cx="15.54" cy="2.618" r="0.312"/>
	<circle cx="16.305" cy="3.654" r="0.36"/>
	<circle cx="16.367" cy="1.691" r="0.244"/>
	<circle cx="14.503" cy="0.243" r="0.243"/>
	<path d="M16.125,27.896l0.009,0.002l2.021-9.125l-1.936-0.429c0.098,3.326-0.082,7.902-1.188,8.789
		c-0.687,0.55-2.11,0.827-4.229,0.827c-1.181,0-2.571-0.089-4.023-0.254v0.248h3.438L9.78,30.409H6.678L5.617,32h11.932
		l-1.061-1.591h-3.3l-0.437-2.454h3.373V27.896z"/>
	<path d="M2.569,26.199c0.004,0.006,0.012,0.012,0.017,0.018c0.06,0.071,0.129,0.139,0.207,0.201
		c0.008,0.005,0.015,0.013,0.023,0.019c0.088,0.067,0.187,0.13,0.299,0.187c0.018,0.009,0.04,0.018,0.058,0.026
		c0.094,0.044,0.195,0.084,0.306,0.121c0.035,0.012,0.07,0.022,0.106,0.034c0.138,0.04,0.284,0.076,0.447,0.105
		c0.535,0.094,1.087,0.18,1.646,0.256c0.006,0.001,0.01,0.002,0.016,0.003v-0.001c0.359,0.051,0.721,0.097,1.083,0.138v0.001
		c0.017,0.002,0.034,0.003,0.051,0.004c0.311,0.036,0.621,0.068,0.93,0.097c0.031,0.003,0.062,0.006,0.093,0.009
		c0.657,0.06,1.303,0.104,1.925,0.127c0.079,0.002,0.156,0.004,0.233,0.007c0.216,0.007,0.428,0.011,0.637,0.011
		c0.05,0.001,0.104,0.004,0.154,0.004c0.066,0,0.129-0.003,0.196-0.004c0.101,0,0.202-0.002,0.301-0.004
		c0.128-0.002,0.254-0.007,0.378-0.013c0.097-0.004,0.193-0.009,0.287-0.016c0.121-0.006,0.237-0.015,0.353-0.025
		c0.09-0.007,0.181-0.015,0.267-0.024c0.113-0.011,0.219-0.025,0.325-0.04c0.082-0.012,0.165-0.022,0.243-0.035
		c0.104-0.017,0.2-0.036,0.298-0.057c0.071-0.015,0.145-0.029,0.212-0.045c0.096-0.023,0.183-0.05,0.27-0.077
		c0.059-0.018,0.121-0.034,0.176-0.054c0.091-0.031,0.171-0.069,0.251-0.105c0.041-0.019,0.086-0.034,0.124-0.053
		c0.113-0.058,0.213-0.12,0.299-0.191c0.049-0.038,0.096-0.09,0.141-0.148c0.015-0.017,0.028-0.041,0.042-0.062
		c0.03-0.043,0.06-0.09,0.087-0.14c0.015-0.029,0.03-0.059,0.044-0.09c0.026-0.052,0.052-0.108,0.076-0.168
		c0.013-0.033,0.026-0.067,0.041-0.104c0.025-0.066,0.048-0.138,0.071-0.212c0.011-0.034,0.021-0.065,0.032-0.101
		c0.065-0.225,0.124-0.477,0.175-0.747c0.007-0.041,0.014-0.081,0.021-0.121c0.018-0.102,0.036-0.204,0.052-0.31
		c0.008-0.051,0.015-0.101,0.022-0.15c0.016-0.104,0.029-0.21,0.042-0.318c0.006-0.05,0.013-0.1,0.019-0.151
		c0.015-0.121,0.028-0.243,0.04-0.366c0.004-0.041,0.008-0.079,0.012-0.12c0.033-0.34,0.06-0.691,0.081-1.055
		c0.001-0.032,0.003-0.064,0.005-0.097c0.009-0.147,0.016-0.296,0.022-0.446c0.002-0.047,0.004-0.095,0.006-0.141
		c0.006-0.142,0.011-0.281,0.015-0.422c0.001-0.047,0.003-0.093,0.004-0.139c0.004-0.15,0.008-0.301,0.01-0.451
		c0-0.034,0.001-0.07,0.002-0.104c0.006-0.372,0.007-0.742,0.005-1.105c0-0.011,0-0.022,0-0.034v0.002
		c-0.014-2.049-0.142-3.882-0.284-4.494c-1.047-0.753-3.197-0.331-3.988-0.331c-0.224,0.123-0.444,1.006-0.745,2.107l0,0
		c-0.055,0.199-0.113,0.405-0.173,0.615c-0.001,0.003-0.002,0.007-0.003,0.011c-0.062,0.211-0.125,0.426-0.192,0.643
		c0,0.002,0,0.003,0,0.004c-0.412,1.304-0.961,2.633-1.767,3.277c0,0,0,0,0,0c-0.354,0.282-0.756,0.436-1.22,0.393
		c-2.872-0.4-6.175,2.884-4.908,4.451C2.57,26.197,2.57,26.197,2.569,26.199z"/>
	<path d="M7.907,21.321c1.033-0.255,1.727-1.922,2.21-3.477c-0.88,1.173-1.954,2.213-2.971,2.147
		C6.002,20.009,5.946,21.085,7.907,21.321z"/>
	<path d="M3.964,27.303c-0.814-0.143-1.312-0.43-1.617-0.756c-0.57,0.901-1.08,1.735-1.4,2.266H0v1.435h4.629v-1.435H4.554
		l0.888-1.279C4.949,27.464,4.456,27.389,3.964,27.303z"/>
</g>
<g>
</g>
<g>
</g>
<g>
</g>
<g>
</g>
<g>
</g>
<g>
</g>
<g>
</g>
<g>
</g>
<g>
</g>
<g>
</g>
<g>
</g>
<g>
</g>
<g>
</g>
<g>
</g>
<g>
</g>
</svg>
