<?xml version="1.0" encoding="iso-8859-1"?>
<!-- Generator: Adobe Illustrator 16.0.0, SVG Export Plug-In . SVG Version: 6.00 Build 0)  -->
<!DOCTYPE svg PUBLIC "-//W3C//DTD SVG 1.1//EN" "http://www.w3.org/Graphics/SVG/1.1/DTD/svg11.dtd">
<svg version="1.1" id="Layer_1" xmlns="http://www.w3.org/2000/svg" xmlns:xlink="http://www.w3.org/1999/xlink" x="0px" y="0px"
	 width="11.372px" height="31.124px" viewBox="0 0 11.372 31.124" style="enable-background:new 0 0 11.372 31.124;"
	 xml:space="preserve">
<g>
	<path d="M11.361,23.333C11.216,21.724,9.569,3.35,9.569,1.396c0-2.043-7.765-1.67-7.765,0c0,1.598-1.649,20.312-1.792,21.938H0
		v3.656h1.027v4.134H1.63v-2.815h0.253v2.815h0.413v-2.815H2.55v2.815h0.423v-2.815h0.253v2.815H3.64v-2.815h0.254v2.815h0.46
		v-2.815h0.254v2.815H5.02v-2.815h0.254v2.815h0.423v-2.815h0.254v2.815h0.413v-2.815h0.254v2.815h0.498v-2.815h0.253v2.815h0.414
		v-2.815h0.253v2.815h0.423v-2.815h0.253v2.815h0.414v-2.815h0.253v2.815h0.46v-2.815h0.253v2.815h0.527V26.99h0.752v-3.656H11.361z
		 M5.686,13.818c0.643,0,1.165,1.075,1.165,2.403s-0.522,2.403-1.165,2.403s-1.164-1.075-1.164-2.403S5.043,13.818,5.686,13.818z
		 M10.344,24.937H1.027V24.31h9.317V24.937z"/>
	<ellipse cx="5.686" cy="16.319" rx="0.558" ry="1.153"/>
</g>
<g>
</g>
<g>
</g>
<g>
</g>
<g>
</g>
<g>
</g>
<g>
</g>
<g>
</g>
<g>
</g>
<g>
</g>
<g>
</g>
<g>
</g>
<g>
</g>
<g>
</g>
<g>
</g>
<g>
</g>
</svg>
