<?xml version="1.0" encoding="iso-8859-1"?>
<!-- Generator: Adobe Illustrator 16.0.0, SVG Export Plug-In . SVG Version: 6.00 Build 0)  -->
<!DOCTYPE svg PUBLIC "-//W3C//DTD SVG 1.1//EN" "http://www.w3.org/Graphics/SVG/1.1/DTD/svg11.dtd">
<svg version="1.1" id="Layer_1" xmlns="http://www.w3.org/2000/svg" xmlns:xlink="http://www.w3.org/1999/xlink" x="0px" y="0px"
	 width="17.597px" height="31.95px" viewBox="0 0 17.597 31.95" style="enable-background:new 0 0 17.597 31.95;"
	 xml:space="preserve">
<g>
	<path d="M2.315,14.405c0,3.083,0,15.217,0,16.415c2.876,1.674,10.946,1.33,12.706,0c0-1.099,0-12.789,0-16.194
		c-1.651,1.39-3.829,2.243-6.223,2.243C6.279,16.869,3.994,15.927,2.315,14.405z M10.772,21.048c0,1.218-0.692,2.204-1.545,2.204
		s-1.545-0.986-1.545-2.204c0-1.216,0.692-2.203,1.545-2.203S10.772,19.832,10.772,21.048z"/>
	<path d="M8.799,16.354c4.859,0,8.798-3.661,8.798-8.178S13.658,0,8.799,0C3.939,0,0,3.66,0,8.177S3.939,16.354,8.799,16.354z
		 M2.315,4.011c0.856-1.597,4.851-3.152,6.825-1.607c1.417-1.545,5.416,0.151,6.288,1.466c2.276,3.342-1.892,10.253-6.086,10.597
		C5.149,14.809-0.232,8.861,2.315,4.011z"/>
	<path d="M6.093,11.268c0,1.479,1.204,2.683,2.683,2.683c1.479,0,2.683-1.203,2.683-2.683s-1.204-2.683-2.683-2.683
		C7.297,8.585,6.093,9.788,6.093,11.268z M8.776,9.958c0.722,0,1.31,0.588,1.31,1.31s-0.587,1.31-1.31,1.31s-1.309-0.588-1.309-1.31
		S8.054,9.958,8.776,9.958z"/>
	<path d="M12.446,8.33c1.479,0,2.683-1.203,2.683-2.683s-1.204-2.683-2.683-2.683c-1.479,0-2.683,1.203-2.683,2.683
		S10.966,8.33,12.446,8.33z M12.446,4.338c0.722,0,1.309,0.588,1.309,1.31s-0.587,1.31-1.309,1.31s-1.309-0.588-1.309-1.31
		S11.724,4.338,12.446,4.338z"/>
	<path d="M7.917,5.647c0-1.479-1.204-2.683-2.683-2.683c-1.479,0-2.683,1.203-2.683,2.683S3.755,8.33,5.234,8.33
		C6.713,8.33,7.917,7.127,7.917,5.647z M3.925,5.647c0-0.722,0.587-1.31,1.31-1.31c0.722,0,1.309,0.588,1.309,1.31
		s-0.587,1.31-1.309,1.31C4.512,6.957,3.925,6.369,3.925,5.647z"/>
	<ellipse cx="9.227" cy="21.048" rx="0.813" ry="1.159"/>
</g>
<g>
</g>
<g>
</g>
<g>
</g>
<g>
</g>
<g>
</g>
<g>
</g>
<g>
</g>
<g>
</g>
<g>
</g>
<g>
</g>
<g>
</g>
<g>
</g>
<g>
</g>
<g>
</g>
<g>
</g>
</svg>
