<?xml version="1.0" encoding="iso-8859-1"?>
<!-- Generator: Adobe Illustrator 16.0.0, SVG Export Plug-In . SVG Version: 6.00 Build 0)  -->
<!DOCTYPE svg PUBLIC "-//W3C//DTD SVG 1.1//EN" "http://www.w3.org/Graphics/SVG/1.1/DTD/svg11.dtd">
<svg version="1.1" id="Layer_1" xmlns="http://www.w3.org/2000/svg" xmlns:xlink="http://www.w3.org/1999/xlink" x="0px" y="0px"
	 width="26.794px" height="31.805px" viewBox="0 0 26.794 31.805" style="enable-background:new 0 0 26.794 31.805;"
	 xml:space="preserve">
<g>
	<path d="M19.251,15.537c0.107-0.12,0.36-1.412-1.037-3.468c-0.415-0.611-3.887-3.686-6.876-3.366c-0.042-1.432,0,0,0.389-4.899
		c-2.804,0.175-5.481,1.154-6.562,2.54c-1.222,1.744-5.64,4.74-5.123,7.842c0.517,3.103,0.329,5.97,1.974,7.678
		c1.146,1.19,2.222,0.556,2.77,0.061c0.922,1.673,2.335,2.773,1.996,3.266c-0.404,0.588-1.56,6.604-1.56,6.604l9.25,0.012
		c0,0-0.756-0.427-1.25-0.993c-0.339-0.388,0.102-1.154,0.592-2.481c0.067-0.181,0.466,0.075,0.724-0.531
		c0.257-0.605-0.254-0.911-0.193-1.093c0.054-0.16,0.094-0.142,0.127-0.269c0.068-0.369,0.235-0.591,0.462-0.722
		c3.448,0.104,4.346-0.067,3.494-2.456c0.11-0.102,0.727-0.501,0.858-0.787c0.131-0.285-0.179-0.357-0.179-0.357
		s0.227,0.013,0.394-0.25c0.166-0.263-0.287-1.288-0.287-1.288s1.145-0.25,1.395-0.679c0.25-0.429-2.014-3.063-1.93-3.539
		C18.762,15.883,19.144,15.656,19.251,15.537z"/>
	<path d="M24.995,0.031c-0.57,0.335-7.59,3.663-8.2,3.953l-0.003-0.005l-1.303,0.765l0.214,0.368l-1.475,0.863l0.126,0.217
		l1.005-0.59l0.052,0.09l-1.004,0.59l0.086,0.147l1.004-0.59l0.054,0.091L14.547,6.52l0.09,0.151l1.004-0.589l0.053,0.09
		l-1.004,0.59l0.086,0.147l1.003-0.59l0.054,0.09L14.83,7l0.095,0.163l1.004-0.589l0.054,0.09l-1.004,0.589l0.087,0.148l1.004-0.591
		l0.053,0.092L15.118,7.49l0.089,0.152l1.004-0.59l0.053,0.09l-1.004,0.591l0.087,0.147L16.35,7.29l0.053,0.091l-1.004,0.59
		l0.105,0.178l1.003-0.589l0.052,0.089l-1.003,0.59l0.087,0.147l1.003-0.589l0.053,0.09l-1.004,0.589l0.088,0.151l1.004-0.59
		l0.053,0.091l-1.003,0.589l0.086,0.148l1.004-0.59l0.053,0.091l-1.004,0.59l0.095,0.164l1.004-0.589l0.053,0.09L16.128,9.21
		l0.109,0.188l1.475-0.865l0.158,0.27l1.304-0.767L19.17,8.032c0.543-0.389,6.753-4.822,7.45-5.231
		C27.349,2.375,25.591-0.318,24.995,0.031z M18.386,8.004l-1.95-3.322L16.66,4.55l1.951,3.324L18.386,8.004z M20.764,4.935
		c-0.474,0.277-0.966,0.316-1.101,0.088c-0.136-0.23,0.14-0.642,0.613-0.92c0.474-0.276,0.967-0.315,1.1-0.087
		C21.511,4.245,21.238,4.658,20.764,4.935z"/>
</g>
<g>
</g>
<g>
</g>
<g>
</g>
<g>
</g>
<g>
</g>
<g>
</g>
<g>
</g>
<g>
</g>
<g>
</g>
<g>
</g>
<g>
</g>
<g>
</g>
<g>
</g>
<g>
</g>
<g>
</g>
</svg>
