<?xml version="1.0" encoding="iso-8859-1"?>
<!-- Generator: Adobe Illustrator 16.0.0, SVG Export Plug-In . SVG Version: 6.00 Build 0)  -->
<!DOCTYPE svg PUBLIC "-//W3C//DTD SVG 1.1//EN" "http://www.w3.org/Graphics/SVG/1.1/DTD/svg11.dtd">
<svg version="1.1" id="Layer_1" xmlns="http://www.w3.org/2000/svg" xmlns:xlink="http://www.w3.org/1999/xlink" x="0px" y="0px"
	 width="30.431px" height="30.541px" viewBox="0 0 30.431 30.541" style="enable-background:new 0 0 30.431 30.541;"
	 xml:space="preserve">
<g>
	<path d="M27.61,22.279c-0.132-0.443-0.357-0.86-0.685-1.211c-0.886-0.943-2.246-1.202-3.34-0.68c-0.01,0.001-0.014-0.002-0.024,0
		c-1.238,0.542-3.154-0.642-4.135-0.97c-0.982-0.329-1.804-1.342-2.636-1.524c-0.052-0.012-0.145-0.047-0.272-0.105L11.143,6.087
		l2.909,10.209c0,0,0.025,0.095,0.066,0.261c-3.688-1.984-9.452-5.762-9.452-5.762s9.766,8.701,10.117,8.993
		c0.321,1.944,2.273,4.253,0.746,5.312c-0.003,0.006,0,0.012-0.003,0.018c-1.167,0.804-1.438,2.524-0.581,3.903
		c0.878,1.415,2.609,1.936,3.858,1.16c0.767-0.477,1.154-1.453,1.462-2.393c-0.247-0.76-0.453-1.035-0.792-1.581
		c-0.222-0.355-0.498-0.654-0.806-0.891c-0.666-0.646-2.589-5.446-2.384-5.892c2.402-0.012,5.453,1.888,5.786,3.627
		c0.003,0,0.009-0.004,0.012-0.005c0.052,0.671,0.321,1.311,0.796,1.817c0.956,1.021,2.472,1.25,3.603,0.549
		c0.148-0.092,0.288-0.2,0.416-0.319c0.461-0.432,0.734-1.007,0.812-1.636c0.262-0.091,0.642-0.179,1.001-0.096
		c1.322,0.36,1.69-0.729,1.721-1.069C30.459,21.97,28.533,22.907,27.61,22.279z M15.505,18.793
		c-0.271,0.167-0.628,0.084-0.796-0.186c-0.168-0.27-0.084-0.628,0.187-0.796c0.271-0.168,0.627-0.085,0.795,0.186
		C15.859,18.268,15.775,18.624,15.505,18.793z M16.992,25.608c0.068,0.007,0.134,0.015,0.202,0.021
		c0.571,0.096,1.138,0.468,1.505,1.059c0.615,0.988,0.445,2.207-0.377,2.718c-0.821,0.511-1.989,0.122-2.603-0.866
		c-0.613-0.989-0.445-2.208,0.376-2.718C16.368,25.653,16.678,25.592,16.992,25.608z M26.273,24.428
		c-0.084,0.079-0.176,0.15-0.273,0.21c-0.764,0.474-1.797,0.306-2.457-0.398c-0.37-0.394-0.572-0.899-0.571-1.421
		c0.001-0.511,0.2-0.979,0.559-1.315c0.083-0.079,0.175-0.15,0.272-0.211c0.763-0.472,1.796-0.306,2.457,0.399
		c0.371,0.395,0.574,0.899,0.573,1.42C26.831,23.624,26.631,24.091,26.273,24.428z"/>
	<path d="M7.431,14.263c-1.582-1.409-2.91-2.592-3.264-2.907l0.91-1.188c0.05,0.033,4.334,2.836,7.831,4.854l-2.487-8.729
		l1.403-0.519l5.033,10.96c-0.031-0.223,0.245,0.268,0.381,0.521c0.039,0.014,0.079,0.027,0.118,0.044
		c0.191-0.394,0.9-2,0.348-3.143c1.093-0.042,2.665,2.522,3.022,4.991c0.241,0.105,0.494,0.21,0.752,0.309
		c0.071-0.396,0.124-0.791,0.159-1.168c0.153-1.64,3.06-6.098,1.268-12.216c-1.793-6.12-10.053-6.469-14.729-5.857
		C3.5,0.826,1.139,4.191,0.134,9.217c-1.006,5.026,3.933,12.708,5.637,14.38c-0.306-0.645-0.48-2.36-0.48-2.36
		s0.021-0.612,0.787,0.218c-0.295-0.546-0.82-1.693-0.82-1.693s0.164-0.426,1.039-0.099c-0.382-0.12-1.355-1.355-1.355-1.355
		s-0.065-0.448,1.005-0.35c-0.24-0.393-2.35-2.94-1.268-4.808C4.714,13.058,5.939,13.565,7.431,14.263z"/>
</g>
<g>
</g>
<g>
</g>
<g>
</g>
<g>
</g>
<g>
</g>
<g>
</g>
<g>
</g>
<g>
</g>
<g>
</g>
<g>
</g>
<g>
</g>
<g>
</g>
<g>
</g>
<g>
</g>
<g>
</g>
</svg>
