<?xml version="1.0" encoding="iso-8859-1"?>
<!-- Generator: Adobe Illustrator 16.0.0, SVG Export Plug-In . SVG Version: 6.00 Build 0)  -->
<!DOCTYPE svg PUBLIC "-//W3C//DTD SVG 1.1//EN" "http://www.w3.org/Graphics/SVG/1.1/DTD/svg11.dtd">
<svg version="1.1" id="Layer_1" xmlns="http://www.w3.org/2000/svg" xmlns:xlink="http://www.w3.org/1999/xlink" x="0px" y="0px"
	 width="30.942px" height="22.737px" viewBox="0 0 30.942 22.737" style="enable-background:new 0 0 30.942 22.737;"
	 xml:space="preserve">
<path d="M8.633,22.149c0,0-4.079,0.583-4.427-2.757c-2.525,0.233-3.768-2.873-4.156-3.611s1.593-1.204,1.787-1.864
	c0.193-0.66-1.708-0.311-1.554-1.126c0.154-0.815,1.321-1.243,1.554-2.059c0.232-0.815-1.554-2.368-1.321-2.757
	s0.505-0.193,0.505-0.193S0.479,6.149,0.944,5.257c0.465-0.893,2.251-0.466,2.251-0.466s-0.542-1.28,0.195-1.669
	c0.737-0.389,3.029,0.35,3.029,0.35s-0.659-1.36,0.233-1.593c0.892-0.233,2.175,2.02,3.845,2.252
	c1.669,0.233,4.193-4.893,8.931-3.611c1.592-1.397,2.835,0.466,2.835,0.466s1.863,0,2.757,1.748c4.815,0.893,0.39,5.242,1.321,5.01
	c3.766-0.078,3.029,2.369,3.029,2.369s2.563,0.854-1.243,2.852c1.087-0.601,5.087,2.313,1.049,4.099
	c1.436,1.941-1.087,3.106-1.087,3.106s-2.601-1.049-2.602-0.077c-0.001,0.971-4.185,2.646-4.185,2.646v-9.398
	c0,0,0.535-2.955-3.232-4.393c-3.767-1.437-7.224,0.271-9.244,1.67C6.807,12.014,8.633,22.149,8.633,22.149z"/>
<g>
</g>
<g>
</g>
<g>
</g>
<g>
</g>
<g>
</g>
<g>
</g>
<g>
</g>
<g>
</g>
<g>
</g>
<g>
</g>
<g>
</g>
<g>
</g>
<g>
</g>
<g>
</g>
<g>
</g>
</svg>
