<?xml version="1.0" encoding="iso-8859-1"?>
<!-- Generator: Adobe Illustrator 16.0.0, SVG Export Plug-In . SVG Version: 6.00 Build 0)  -->
<!DOCTYPE svg PUBLIC "-//W3C//DTD SVG 1.1//EN" "http://www.w3.org/Graphics/SVG/1.1/DTD/svg11.dtd">
<svg version="1.1" id="Layer_1" xmlns="http://www.w3.org/2000/svg" xmlns:xlink="http://www.w3.org/1999/xlink" x="0px" y="0px"
	 width="31.319px" height="24.688px" viewBox="0 0 31.319 24.688" style="enable-background:new 0 0 31.319 24.688;"
	 xml:space="preserve">
<path d="M3.098,1.73c0.193,0.24-1.494,4.288,3.132,1.638c4.627-2.65,13.446-6.024,14.7,0c4.675-2.072,4.337,8.916,4.241,10.073
	c-0.088,1.064,4.012,6.687,4.735,3.198c0.018-1.319-0.826-0.062-0.879-0.403c-0.621-1.169,2.843-3.662,2.217,1.977
	c-0.699,5.06-4.579,0.529-4.579,0.529s1.663,3.52,2.458,3.229c-1.855,2.505-3.47,0.337-3.47,0.337s-0.024,1.639,1.012,1.302
	c-2.482,1.565-2.506,0.964-2.506,0.964s-3.253-0.604-2.795-6.893c0.145-0.844-12.048-14.121-14.94-7.421
	C4.881,10.55,2.616,9.923,1.314,7.128C2.375,6.501,2.76,6.019,2.76,6.019S0.543,6.936,0.11,5.826
	C-0.324,4.718,0.495,1.199,3.098,1.73z"/>
<g>
</g>
<g>
</g>
<g>
</g>
<g>
</g>
<g>
</g>
<g>
</g>
<g>
</g>
<g>
</g>
<g>
</g>
<g>
</g>
<g>
</g>
<g>
</g>
<g>
</g>
<g>
</g>
<g>
</g>
</svg>
