<?xml version="1.0" encoding="iso-8859-1"?>
<!-- Generator: Adobe Illustrator 16.0.0, SVG Export Plug-In . SVG Version: 6.00 Build 0)  -->
<!DOCTYPE svg PUBLIC "-//W3C//DTD SVG 1.1//EN" "http://www.w3.org/Graphics/SVG/1.1/DTD/svg11.dtd">
<svg version="1.1" id="Layer_1" xmlns="http://www.w3.org/2000/svg" xmlns:xlink="http://www.w3.org/1999/xlink" x="0px" y="0px"
	 width="28.403px" height="31.005px" viewBox="0 0 28.403 31.005" style="enable-background:new 0 0 28.403 31.005;"
	 xml:space="preserve">
<path d="M7.472,28.199c0.334,0.969-0.242,2.083-0.242,2.083l-0.178-1.211c0,0-0.119,2.013-1.049,1.904
	c0.576-0.688,0.355-1.308,0.355-1.308s-1.319,1.566-1.905,1.308c0.813-0.495,1.856-1.84,1.712-3.051
	c-0.145-1.212-5.249-3.472-5.506-5.022c-0.258-1.55,0.274-2.472,0.242-2.81c-0.032-0.337-1.469-4.316-0.646-6.717
	c0.685-1.109-1.081-4.209,4.586-9.284c2.945-2.288,7.746-5.217,13.192-3.649c3.812-0.275,6.104,5.684,6.104,5.684
	s3.595,2.934,4.053,4.569c0.458,1.636-0.813,2.788-0.533,3.084c1.658,5.527,0.118,7.961-0.403,8.413
	c-0.522,0.452-0.479,1.722-1.082,1.905c-0.021,0.635-0.237,2.454-0.937,2.632c0.463-1.287,0.656-2.019,0.194-1.728
	c-0.463,0.29-1.302,2.96-1.302,2.96s-0.334-1.398-0.652-1.119c-0.511,0.646-0.403,2.497,0.226,3.067
	c-1.577-0.032-1.663-2.535-1.663-2.535s-1.271,2.676-2.422,1.825c1.519-0.894,3.036-4.764,3.036-4.764s-0.227-0.059-0.872,0.227
	c0.776-0.813,1.582-3.429,1.405-3.649c-0.436-0.006-0.807,0.727-0.807,0.727s1.318-2.638,0.953-3.311
	c-0.516,0.727-0.856,0.791-0.856,0.791s0.733-1.683,0.372-2.147c-0.57-0.5-3.628-4.408-3.746-4.812
	c-0.097,2.374,1.497,3.875,2.229,4.634c-1.98,0.124-3.1-2.647-3.957-4.859c-0.866-1.599-4.333-4.031-4.408-4.86
	c-0.572,0.695,0.775,2.887,2.379,6.599c0.358,0.827,1.129,1.938,1.286,2.476c-0.813-0.603-1.114-0.71-1.114-0.71
	s0.161,0.904,0.113,1.323c-1.34-2.68-4.521-5.279-4.521-5.279s2.19,4.396,0.629,4.65c0.581-1.034-0.505-3.235-3.541-5.689
	C7.203,9.813,7.611,6.788,7.31,7.224c-3.552,1.922,0.862,6.873-0.743,9.56c-0.376-1.395-0.904-1.324-0.904-1.324
	s0.916,3.59-0.597,5.021c-0.342,0.78,0.028,2.725,0.673,4.338C6.384,26.433,7.305,27.715,7.472,28.199z"/>
<g>
</g>
<g>
</g>
<g>
</g>
<g>
</g>
<g>
</g>
<g>
</g>
<g>
</g>
<g>
</g>
<g>
</g>
<g>
</g>
<g>
</g>
<g>
</g>
<g>
</g>
<g>
</g>
<g>
</g>
</svg>
