<?xml version="1.0" encoding="iso-8859-1"?>
<!-- Generator: Adobe Illustrator 16.0.0, SVG Export Plug-In . SVG Version: 6.00 Build 0)  -->
<!DOCTYPE svg PUBLIC "-//W3C//DTD SVG 1.1//EN" "http://www.w3.org/Graphics/SVG/1.1/DTD/svg11.dtd">
<svg version="1.1" id="Layer_1" xmlns="http://www.w3.org/2000/svg" xmlns:xlink="http://www.w3.org/1999/xlink" x="0px" y="0px"
	 width="31.932px" height="31.239px" viewBox="0 0 31.932 31.239" style="enable-background:new 0 0 31.932 31.239;"
	 xml:space="preserve">
<path d="M16.952,17.332c-0.833,9.58-4.156,13.104-4.156,13.104s4.938-3.031,5.037-4.205c-0.049,1.858-2.054,4.205-2.054,4.205
	s5.266,1.462,5.819,0.44c0.587-2.151,1.956-3.618,1.956-3.618s-1.516,3.568-0.685,3.618c4.939-0.44,6.112-5.818,6.112-5.818
	l0.245,1.662c0,0,8.117-14.816-3.765-19.657c-0.88-0.293,0.782-1.222,2.103-1.761c-1.076-0.88-5.477,1.027-5.477,1.027
	s0.049-1.125,1.369-2.054c-0.782-0.733-3.129,1.761-3.129,1.761s0.049-1.223,0.978-1.761c-0.685-0.685-2.005,1.467-2.005,1.467
	s-2.2-6.161-6.503-5.721c2.738,1.662,2.249,3.521,2.249,3.521S7.222,0.071,0.474,8.678c1.772-0.441,3.032-0.245,3.032-0.245
	s-3.251,1.821-3.459,2.958c-0.208,1.136,0.318,5.753,0.966,5.646c0.647-0.108,1.455-1.635,2.2-2.003
	c-0.563,0.941-0.929,2.886-0.929,2.886l1.027,1.858c0,0,5.574-2.604,5.574-1.663c-1.083-0.087-5.232,2.837-5.232,2.837
	S13.48,21.586,16.952,17.332z"/>
<g>
</g>
<g>
</g>
<g>
</g>
<g>
</g>
<g>
</g>
<g>
</g>
<g>
</g>
<g>
</g>
<g>
</g>
<g>
</g>
<g>
</g>
<g>
</g>
<g>
</g>
<g>
</g>
<g>
</g>
</svg>
