<?xml version="1.0" encoding="iso-8859-1"?>
<!-- Generator: Adobe Illustrator 16.0.0, SVG Export Plug-In . SVG Version: 6.00 Build 0)  -->
<!DOCTYPE svg PUBLIC "-//W3C//DTD SVG 1.1//EN" "http://www.w3.org/Graphics/SVG/1.1/DTD/svg11.dtd">
<svg version="1.1" id="Layer_1" xmlns="http://www.w3.org/2000/svg" xmlns:xlink="http://www.w3.org/1999/xlink" x="0px" y="0px"
	 width="27.23px" height="31.941px" viewBox="0 0 27.23 31.941" style="enable-background:new 0 0 27.23 31.941;"
	 xml:space="preserve">
<path d="M8.18,17.298c-1.732,0.399,0.533,4.672,0,7.074c-0.533,2.403,2.027,7.058,2.938,7.503c-0.959,0.406-2.436-1.172-2.436-1.172
	s1.012,1.068,0.166,1.172c-4.221,0.256-5.873-7.705-8.275-12.442C-1.363,12.56,1.771,2.674,7.512,0.609
	c5.742-2.064,10.68,1.606,14.016,3.741c3.336,2.136,6.275,10.88,5.607,16.417c-0.668,5.539-3.74,8.01-5.207,7.609
	c1.27-2.27,1.869-14.016,1.869-14.016s-5.34-0.4-5.873-2.002C17.924,12.359,9.916,16.897,8.18,17.298z"/>
<g>
</g>
<g>
</g>
<g>
</g>
<g>
</g>
<g>
</g>
<g>
</g>
<g>
</g>
<g>
</g>
<g>
</g>
<g>
</g>
<g>
</g>
<g>
</g>
<g>
</g>
<g>
</g>
<g>
</g>
</svg>
