<?xml version="1.0" encoding="iso-8859-1"?>
<!-- Generator: Adobe Illustrator 16.0.0, SVG Export Plug-In . SVG Version: 6.00 Build 0)  -->
<!DOCTYPE svg PUBLIC "-//W3C//DTD SVG 1.1//EN" "http://www.w3.org/Graphics/SVG/1.1/DTD/svg11.dtd">
<svg version="1.1" id="Layer_1" xmlns="http://www.w3.org/2000/svg" xmlns:xlink="http://www.w3.org/1999/xlink" x="0px" y="0px"
	 width="31.067px" height="31.363px" viewBox="0 0 31.067 31.363" style="enable-background:new 0 0 31.067 31.363;"
	 xml:space="preserve">
<path d="M19.461,7.951c-5.559,2.869-3.048,11.208-6.903,12.373c-2.151-2.241-4.274-1.504-4.633-0.428
	c-0.358,1.075,3.378,2.221,4.185,7.601s-5.112,3.933-5.559,2.779c-0.447-1.153-1.076-3.048-2.063-4.124s-2.441-2.35-2.6-4.035
	s-0.448-3.586-0.09-5.021s-2.146-2.237-1.758-3.774c1.972-2.24,2.206-13.439,14.131-9.315c1.255,0.808,0.61-4.349,4.286-3.989
	c1.793-0.09,3.872,0.672,6.921,1.838c7.441,4.303,6.007,15.421,4.393,15.959C28.158,18.352,25.02,5.083,19.461,7.951z"/>
<g>
</g>
<g>
</g>
<g>
</g>
<g>
</g>
<g>
</g>
<g>
</g>
<g>
</g>
<g>
</g>
<g>
</g>
<g>
</g>
<g>
</g>
<g>
</g>
<g>
</g>
<g>
</g>
<g>
</g>
</svg>
