<?xml version="1.0" encoding="iso-8859-1"?>
<!-- Generator: Adobe Illustrator 16.0.0, SVG Export Plug-In . SVG Version: 6.00 Build 0)  -->
<!DOCTYPE svg PUBLIC "-//W3C//DTD SVG 1.1//EN" "http://www.w3.org/Graphics/SVG/1.1/DTD/svg11.dtd">
<svg version="1.1" id="Layer_1" xmlns="http://www.w3.org/2000/svg" xmlns:xlink="http://www.w3.org/1999/xlink" x="0px" y="0px"
	 width="27.086px" height="30.599px" viewBox="0 0 27.086 30.599" style="enable-background:new 0 0 27.086 30.599;"
	 xml:space="preserve">
<path d="M7.036,29.182l0.911-1.823c0,0-2.735-5.471-2.621-7.066c0.115-1.596,4.844-7.75,6.44-9.973
	c1.966-3.076,4.246-2.365,6.524-3.391c2.451,2.051,4.016,2.537,4.016,2.537s-0.569,2.23,0.457,6.244
	c1.026,4.014-5.357,9.256-3.875,12.446c2.051,6.04,7.75-1.026,7.75-1.026s2.394-17.437-3.875-23.477
	C21.548,2.856,13.76-2.956,9.087,1.944c-4.673,4.9-9.803,12.879-9.004,19.83C0.882,28.727,7.036,29.182,7.036,29.182z"/>
<g>
</g>
<g>
</g>
<g>
</g>
<g>
</g>
<g>
</g>
<g>
</g>
<g>
</g>
<g>
</g>
<g>
</g>
<g>
</g>
<g>
</g>
<g>
</g>
<g>
</g>
<g>
</g>
<g>
</g>
</svg>
