<?xml version="1.0" encoding="iso-8859-1"?>
<!-- Generator: Adobe Illustrator 16.0.0, SVG Export Plug-In . SVG Version: 6.00 Build 0)  -->
<!DOCTYPE svg PUBLIC "-//W3C//DTD SVG 1.1//EN" "http://www.w3.org/Graphics/SVG/1.1/DTD/svg11.dtd">
<svg version="1.1" id="Layer_1" xmlns="http://www.w3.org/2000/svg" xmlns:xlink="http://www.w3.org/1999/xlink" x="0px" y="0px"
	 width="31.961px" height="29.231px" viewBox="0 0 31.961 29.231" style="enable-background:new 0 0 31.961 29.231;"
	 xml:space="preserve">
<path d="M19.039,1.917c0,0-4.621-2.516-7.594-1.783c-2.974,0.732-6.39,5.887-7.229,7.182c-0.839,1.297-2.699,1.602-3.385,3.889
	c-0.687,2.289-1.053,5.582-0.687,7.824C0.511,21.27,1.64,21.423,2.34,21.91c0.701,0.487,0.885,1.769-0.229,2.974
	c1.327,0.32,1.967-1.602,1.967-1.602s0.336,3.508,0.183,4.393C4.109,28.56,2.523,27.43,2.523,27.43s1.197,1.862,2.471,1.8
	c1.274-0.061,4.941,0.184,5.169-2.744c0.229-2.928-2.699-6.771-2.699-10.34s0.824-6.404,8.418-7.183
	c3.294,3.706,5.976,9.043,6.268,11.712c0.292,2.669-1.814,7.183-3.797,6.634c-0.427,1.281,2.439,2.196,4.254,1.372
	c1.815-0.823,1.281-3.064,1.281-3.064s1.694-0.383,1.418,1.326c2.501-0.215,2.196-3.554,2.716-6.07
	c0.52-2.516,0.75-3.631,1.63-3.309c0.879,0.324,1.297,0.017,1.967,1.785c1.283-2.654-1.281-3.568-3.843-5.307
	C24.117,5.349,19.039,1.917,19.039,1.917z"/>
<g>
</g>
<g>
</g>
<g>
</g>
<g>
</g>
<g>
</g>
<g>
</g>
<g>
</g>
<g>
</g>
<g>
</g>
<g>
</g>
<g>
</g>
<g>
</g>
<g>
</g>
<g>
</g>
<g>
</g>
</svg>
