<?xml version="1.0" encoding="iso-8859-1"?>
<!-- Generator: Adobe Illustrator 16.0.0, SVG Export Plug-In . SVG Version: 6.00 Build 0)  -->
<!DOCTYPE svg PUBLIC "-//W3C//DTD SVG 1.1//EN" "http://www.w3.org/Graphics/SVG/1.1/DTD/svg11.dtd">
<svg version="1.1" id="Layer_1" xmlns="http://www.w3.org/2000/svg" xmlns:xlink="http://www.w3.org/1999/xlink" x="0px" y="0px"
	 width="26.656px" height="31.411px" viewBox="0 0 26.656 31.411" style="enable-background:new 0 0 26.656 31.411;"
	 xml:space="preserve">
<path d="M14.664,6.091c-4.291,1.237-4.811,5.017-5.237,6.982c-0.426,1.967-1.149,4.484-0.63,6.037
	c-0.946-0.679-0.728-1.77-0.728-1.77s-5.697,8.388,4.218,12.558c-0.678,0.825-3.927-0.484-3.927-0.484s-0.218,1.818,1.987,1.261
	c-3.587,3.104-7.37-4.606-7.37-4.606l0.485,2.183c0,0-1.262,0.338-3.152-10.377C-1.58,7.158,5.693,1.63,7.487,0.951
	s4.849-0.873,6.449,0c3.637-2.764,7.26,1.252,8.097,2.521c0.838,1.27,3.493,5.044,3.977,7.613c0.484,2.569,2.86,20.001-6.109,17.602
	c3.151-0.898,3.151-6.499,3.151-6.499s-2.449,2.522-3.2,1.504c3.2-1.504,3.322-8.024,1.309-11.686
	C19.595,9.064,16.209,6.731,14.664,6.091z"/>
<g>
</g>
<g>
</g>
<g>
</g>
<g>
</g>
<g>
</g>
<g>
</g>
<g>
</g>
<g>
</g>
<g>
</g>
<g>
</g>
<g>
</g>
<g>
</g>
<g>
</g>
<g>
</g>
<g>
</g>
</svg>
