<?xml version="1.0" encoding="iso-8859-1"?>
<!-- Generator: Adobe Illustrator 16.0.0, SVG Export Plug-In . SVG Version: 6.00 Build 0)  -->
<!DOCTYPE svg PUBLIC "-//W3C//DTD SVG 1.1//EN" "http://www.w3.org/Graphics/SVG/1.1/DTD/svg11.dtd">
<svg version="1.1" id="Layer_1" xmlns="http://www.w3.org/2000/svg" xmlns:xlink="http://www.w3.org/1999/xlink" x="0px" y="0px"
	 width="30.479px" height="31.688px" viewBox="0 0 30.479 31.688" style="enable-background:new 0 0 30.479 31.688;"
	 xml:space="preserve">
<path d="M5.221,30.785c-1.53-1.938-1.824-2.503-1.824-2.503s0.196-2.233-0.393-3.141c-0.589-0.908-1.177-1.538-2.429-2.732
	c-1.252-1.194-0.328-10.47,1.504-13.284C3.913,6.312,10.848-2.85,20.271,0.88s10.208,14.462,10.208,14.462s-0.287,0.106-1.833-0.9
	c1.767,1.963,1.236,5.12,1.833,6.658c-0.9-0.425-1.09,0.546-1.09,0.546s-0.399,4.55,0.827,5.163
	c-1.497-0.098-2.992-0.531-3.925-1.259c-0.124,2.167,0.146,3.173,1.791,4.376c-1.398,0.368-3.214-0.981-3.214-0.981
	s0.024,1.791,1.472,2.724c-0.687,0.196-3.656-1.08-2.993-4.744c0.073-2.2-0.571-4.841-0.571-4.841s-0.141,2.199-0.902,3.082
	c-0.27-2.012-4.024-4.654-4.024-4.654s0.941,2.928,0.654,3.534c-0.287-1.039-1.702-2.813-1.702-2.813s1.547,2.821,1.309,3.795
	c-0.999-1.873-3.795-4.123-3.795-4.123s1.375,3.092,0.785,3.665c-0.148-1.072-4.777-6.086-4.777-6.086s1.284,2.021,0.981,2.879
	c-0.303-1.006-5.104-3.861-5.104-3.861s1.073,2.863,0.851,3.73c-0.933-1.342-1.898-1.146-2.487-0.917
	C3.601,21.542,4.444,29.042,5.221,30.785z"/>
<g>
</g>
<g>
</g>
<g>
</g>
<g>
</g>
<g>
</g>
<g>
</g>
<g>
</g>
<g>
</g>
<g>
</g>
<g>
</g>
<g>
</g>
<g>
</g>
<g>
</g>
<g>
</g>
<g>
</g>
</svg>
