<?xml version="1.0" encoding="iso-8859-1"?>
<!-- Generator: Adobe Illustrator 16.0.0, SVG Export Plug-In . SVG Version: 6.00 Build 0)  -->
<!DOCTYPE svg PUBLIC "-//W3C//DTD SVG 1.1//EN" "http://www.w3.org/Graphics/SVG/1.1/DTD/svg11.dtd">
<svg version="1.1" id="Layer_1" xmlns="http://www.w3.org/2000/svg" xmlns:xlink="http://www.w3.org/1999/xlink" x="0px" y="0px"
	 width="27.261px" height="31.21px" viewBox="0 0 27.261 31.21" style="enable-background:new 0 0 27.261 31.21;"
	 xml:space="preserve">
<path d="M5.887,18.756L4.71,17.971c0,0-0.286,8.975,3.425,12.561C6.994,31.03,6.03,29.246,6.03,29.246s-0.357,0.804,0.589,1.963
	c-1.017,0.071-4.193-6.815-4.193-6.815s-0.678,0.5-0.678,2.105c-0.535-0.143-0.214-2.069-0.214-2.069s-0.767,0.089-0.999,1.249
	c-0.481-0.875,1.124-7.297,0.642-7.708C0.696,17.561,0.625,18.167,0,19.934C0.286,17.364,0.321,9.087,3.318,4.876
	c1.463-2.712,10.705-8.063,19.089-2.319c8.385,5.745,3.372,16.146,3.318,16.842c-0.053,0.695,1.142,2.105,1.213,5.602
	c-1.177-2.747-2.069-2.176-2.069-2.176s-0.946,3.817-0.107,5.103c-0.785,0.428-1.355-1.143-1.355-1.143s-1.606,3.551-2.498,3.89
	c0.535-0.91,0.428-2.141-0.036-1.713c-1.659,1.017-1.445,0.82-2.498,0.393c1.463-0.356,2.64-2.177,3.176-4.175
	c-0.446,0.089-1.142,1.053-1.749,0.393c0.803-0.232,2.783-1.605,2.783-1.605s-1.213,0.321-1.642-0.393
	c1.32,0,1.427-0.803,1.392-1.249s-0.036-0.446-1.213-0.107c1.231-0.856,1.748-3.889,1.748-3.889s-0.464,0.838-1.142,0.892
	c0.714-0.963,0.999-1.998,0.999-1.998s-0.481,0.678-1.499,0.714c0.963-0.893,1.142-2.712,1.142-2.712s-1.133,2.185-1.998,2.105
	c0.856-0.874,1.392-2.783,1.392-2.783s-1.855,3.443-2.926,2.676c1.873-0.838,2.141-6.298,1.552-6.993
	c-0.411-0.232-1.088,6.083-3.14,6.404c1.356-1.463,2.926-8.153,1.338-8.902c-0.767,0.143-1.891,3.729-2.676,4.246
	c0.82-1.73,0.178-2.712,0.178-2.712s-0.339,1.873-1.106,2.533c0.375-1.034-0.071-3.496-0.071-3.496s-1.445,6.69-2.891,6.993
	c1.088-1.73,0.785-6.102,0.785-6.102s-3.39,7.797-4.282,8.1c0.714-1.552,0.785-5.031,0.785-5.031s-1.927,3.141-1.927,4.621
	C6.619,17.347,6.28,12.405,6.28,11.62s-1.499,4.959-1.499,4.959L5.887,18.756z"/>
<g>
</g>
<g>
</g>
<g>
</g>
<g>
</g>
<g>
</g>
<g>
</g>
<g>
</g>
<g>
</g>
<g>
</g>
<g>
</g>
<g>
</g>
<g>
</g>
<g>
</g>
<g>
</g>
<g>
</g>
</svg>
