<?xml version="1.0" encoding="iso-8859-1"?>
<!-- Generator: Adobe Illustrator 16.0.0, SVG Export Plug-In . SVG Version: 6.00 Build 0)  -->
<!DOCTYPE svg PUBLIC "-//W3C//DTD SVG 1.1//EN" "http://www.w3.org/Graphics/SVG/1.1/DTD/svg11.dtd">
<svg version="1.1" id="Layer_1" xmlns="http://www.w3.org/2000/svg" xmlns:xlink="http://www.w3.org/1999/xlink" x="0px" y="0px"
	 width="27.318px" height="31.89px" viewBox="0 0 27.318 31.89" style="enable-background:new 0 0 27.318 31.89;"
	 xml:space="preserve">
<path d="M10.245,5.458c-0.329-0.894-0.796,4.01-0.313,7.557c0.085,0.627-0.827-6.857-0.722-6.193
	c0.367,2.332-1.002,9.859-0.282,13.217c1.47,6.859,3.562,10.339,4.468,10.771c-0.259,1.177-3.48-4.186-3.48-4.186
	s1.796,3.833,1.082,4.892c-0.291-2.428-3.648-7.243-3.648-7.243s-0.375,2.342,1.626,3.763c-1.669-0.694-5.456-1.929-6.573-7.22
	c-0.744-2.019-1.235-7.973-1.235-7.973s-0.176,5.15,1.646,10.677C0.285,21.237-3.383,3.424,6.482,2.165
	c3.01-3.574,16.027-3.609,19.613,6.773c0.365,1.223,0,2.822,0,2.822l1.223,7.666l-1.082-3.95c0,0,1.822,14.507-1.552,16.413
	c1.705-2.715-0.282-7.478-0.282-7.478s1.553,6.942-0.752,7.388c1.506-0.991,0.047-7.341,0.047-7.341l-0.329,3.575L21.392,26.2
	c0,0,3.668-8.185,2.728-9.643c-6.349-1.223-9.359-5.926-10.629-8.325c2.022,4.986,2.163,6.209,4.327,8.938
	C18.24,18.157,12.832,12.419,10.245,5.458z"/>
<g>
</g>
<g>
</g>
<g>
</g>
<g>
</g>
<g>
</g>
<g>
</g>
<g>
</g>
<g>
</g>
<g>
</g>
<g>
</g>
<g>
</g>
<g>
</g>
<g>
</g>
<g>
</g>
<g>
</g>
</svg>
