<?xml version="1.0" encoding="iso-8859-1"?>
<!-- Generator: Adobe Illustrator 16.0.0, SVG Export Plug-In . SVG Version: 6.00 Build 0)  -->
<!DOCTYPE svg PUBLIC "-//W3C//DTD SVG 1.1//EN" "http://www.w3.org/Graphics/SVG/1.1/DTD/svg11.dtd">
<svg version="1.1" id="Layer_1" xmlns="http://www.w3.org/2000/svg" xmlns:xlink="http://www.w3.org/1999/xlink" x="0px" y="0px"
	 width="25.13px" height="28.967px" viewBox="0 0 25.13 28.967" style="enable-background:new 0 0 25.13 28.967;"
	 xml:space="preserve">
<path d="M3.248,12.764c-1.311,1.652-2.052,6.668-2.052,6.668S0,14.074,0,11.168s2.849-6.381,2.849-6.381S1.938,3.646,0.57,4.273
	c0.113-2.108,4.273-2.678,6.268-3.59s7.579-0.91,10.314,0c2.735,0.911,5.982,3.816,7.236,6.324c1.254,2.508,0.684,7.694,0,10.543
	c-0.684,2.849-2.849,8.26-4.217,8.262c-0.057-1.366-1.312-1.48-1.312-1.48s-0.797,3.76-1.994,4.502
	c0.115-1.084-0.626-1.539-0.626-1.539s-0.741,2.68-1.425,1.254c1.141-1.824,2.052-7.18,2.052-7.18S3.419,14.36,3.248,12.764z"/>
<g>
</g>
<g>
</g>
<g>
</g>
<g>
</g>
<g>
</g>
<g>
</g>
<g>
</g>
<g>
</g>
<g>
</g>
<g>
</g>
<g>
</g>
<g>
</g>
<g>
</g>
<g>
</g>
<g>
</g>
</svg>
