<?xml version="1.0" encoding="iso-8859-1"?>
<!-- Generator: Adobe Illustrator 16.0.0, SVG Export Plug-In . SVG Version: 6.00 Build 0)  -->
<!DOCTYPE svg PUBLIC "-//W3C//DTD SVG 1.1//EN" "http://www.w3.org/Graphics/SVG/1.1/DTD/svg11.dtd">
<svg version="1.1" id="Layer_1" xmlns="http://www.w3.org/2000/svg" xmlns:xlink="http://www.w3.org/1999/xlink" x="0px" y="0px"
	 width="31.947px" height="28.162px" viewBox="0 0 31.947 28.162" style="enable-background:new 0 0 31.947 28.162;"
	 xml:space="preserve">
<path d="M8.314,26.049c-0.374,0.949-3.506,1.955-5.297-0.737c-0.46-0.316-2.692,1.226-2.951,0.306
	c-0.258-0.92,2.5-1.494,2.558-2.069c0.058-0.575-1.321-0.661-1.437-1.293c-0.115-0.632,1.178-1.667,1.035-2.299
	c-0.144-0.632-2.357,1.063-2.185-0.546c0-2.672,1.525-3.223,1.611-3.913c0.086-0.69-1.496-0.312-1.64-1.921
	c-0.144-1.609,1.552-1.811,1.897-2.213C2.25,10.96,1.79,9.811,2.192,8.546c1.783-3.075,3.363-4.167,6.122-6.581
	c2.759-2.414,7.586-3.047,13.421,0.661c5.834,3.708,3.449,8.105,3.449,8.105s3.594-0.316,4.226,0.374
	c0.632,0.69-0.108,1.525,0.459,1.954c0.567,0.43,1.896,1.582,1.811,3.018c-0.086,1.437-2.185,3.391-2.5,3.995
	c-0.316,0.604,2.96,0.345,2.759,1.983c-0.201,1.638-4.311,1.667-4.311,2.5c-0.143,2.472-1.724,3.419-3.075,3.592
	s-0.804-1.208-1.293-1.552c-0.489-0.344-1.696,0.144-2.127-0.689c-0.431-0.833-0.229-1.43,0.058-2.213
	c0.278-0.761,2.538-2.272,2.759-3.391c0.222-1.119-1.595-1.17-1.753-2.271c-0.136-0.938,0.885-2.095,0.058-2.644
	c-1.472-0.287-3.475-0.797-5.519-2.069c-4.305-2.677-5.23-6.266-10.278-5.31C2.911,20.675,8.688,25.101,8.314,26.049z"/>
<g>
</g>
<g>
</g>
<g>
</g>
<g>
</g>
<g>
</g>
<g>
</g>
<g>
</g>
<g>
</g>
<g>
</g>
<g>
</g>
<g>
</g>
<g>
</g>
<g>
</g>
<g>
</g>
<g>
</g>
</svg>
