<?xml version="1.0" encoding="iso-8859-1"?>
<!-- Generator: Adobe Illustrator 16.0.0, SVG Export Plug-In . SVG Version: 6.00 Build 0)  -->
<!DOCTYPE svg PUBLIC "-//W3C//DTD SVG 1.1//EN" "http://www.w3.org/Graphics/SVG/1.1/DTD/svg11.dtd">
<svg version="1.1" id="Layer_1" xmlns="http://www.w3.org/2000/svg" xmlns:xlink="http://www.w3.org/1999/xlink" x="0px" y="0px"
	 width="30.494px" height="31.036px" viewBox="0 0 30.494 31.036" style="enable-background:new 0 0 30.494 31.036;"
	 xml:space="preserve">
<path d="M20.527,8.95c0,0-5.44,5.987-7.909,5.395c1.554-0.641,2.148-2.697,2.148-2.697s-6.995,2.195-7.498,3.611
	c-0.548,2.561,4.343,8.458,5.166,9.007c0.823,0.548-0.594,6.771-0.594,6.771s-2.789-3.297-2.469-4.896
	c-1.097,2.286-5.852,3.795-5.852,3.795l2.332-6.446c0,0-3.84,5.212-5.852,1.783C2.926,24.677,5.395,8.127,8.823,4.79
	c3.429-3.338,9.83-8.001,13.35-1.601c5.303-2.377,5.669,9.783,5.669,9.783s1.508,11.109,2.652,13.441
	c-1.601,1.28-3.109-3.337-3.109-3.337s-1.965,5.852-2.011,6.812c-1.692,0.411-3.017-3.338-3.017-3.338s-1.509,2.332-2.057,3.612
	c-0.915,0.091-1.137-5.67-1.137-5.67s4.793-3.474,5.296-7.38c-1.508-2.221-2.972-7.249-2.972-7.249s-0.091,2.698-0.914,2.926
	c0.571-0.766,0.32-3.521,0.32-3.521s-1.235,3.763-3.109,4.122C19.442,12.136,20.527,8.95,20.527,8.95z"/>
<g>
</g>
<g>
</g>
<g>
</g>
<g>
</g>
<g>
</g>
<g>
</g>
<g>
</g>
<g>
</g>
<g>
</g>
<g>
</g>
<g>
</g>
<g>
</g>
<g>
</g>
<g>
</g>
<g>
</g>
</svg>
