<?xml version="1.0" encoding="iso-8859-1"?>
<!-- Generator: Adobe Illustrator 16.0.0, SVG Export Plug-In . SVG Version: 6.00 Build 0)  -->
<!DOCTYPE svg PUBLIC "-//W3C//DTD SVG 1.1//EN" "http://www.w3.org/Graphics/SVG/1.1/DTD/svg11.dtd">
<svg version="1.1" id="Layer_1" xmlns="http://www.w3.org/2000/svg" xmlns:xlink="http://www.w3.org/1999/xlink" x="0px" y="0px"
	 width="31.604px" height="27.111px" viewBox="0 0 31.604 27.111" style="enable-background:new 0 0 31.604 27.111;"
	 xml:space="preserve">
<path d="M4.876,27.107c-0.733,0.146-1.149-3.935-1.149-3.935s-0.636,0.098-0.635,1.76c-1.882-0.465-1.076-7.626-1.076-7.626
	s-1.124-0.196-1.98,0.464c-0.317-0.66,1.54-1.49,1.54-1.49s-0.44-0.343-1.223-0.172C0.208,15.62,1.65,15.277,1.65,15.277
	s-0.464-0.464-1.393-0.391c0.123-0.611,1.296-0.636,1.296-0.636s0.707-3.519,0.659-4.082c-0.048-0.562,0.123-1.418-1.613,1.125
	C0.526,5.501,5.316,5.501,6.685,4.229c1.368-1.27,4.022-1.916,4.571-2.444s1.931-1.832,3.006-1.784
	c-1.197,0.929-2.176,2.127-1.149,1.809c4.792-1.613,8.579-1.002,10.486,0.049s6.772,4.719,7.725,10.022s-0.794,5.793-1.173,6.673
	c1.955,4.814-2.469,8.359-2.469,8.359s0.391-7.505-1.418-8.482c-0.512-0.244-0.171,1.785-1.001,2.469
	c0.073-2.492-0.856-4.692-0.856-4.692s0.293,1.613-0.244,2.321c-0.097-1.76-0.929-2.957-0.929-2.957s0.488,1.809-0.293,2.322
	c-0.097-1.639-1.001-3.105-1.001-3.105s-0.194,0.672-0.123,2.372c-0.464-0.979-4.033-5.72-4.767-4.425
	c-0.733,1.296,4.057,4.645,4.081,6.526c-1.612-1.661-7.845-7.138-8.701-7.553s2.396,4.571,4.521,6.111
	c-1.734-0.196-4.008-2.493-4.008-2.493s1.442,2.64,2.517,3.544c-1.1,0.537-3.52-2.689-4.033-3.397
	c0.049,0.807,0.016,2.009,2.143,3.549c-2.029,0.659-4.122-4.846-4.391-4.282c-0.66,2.835,0.781,4.84,2.737,6.453
	c-2.126-0.025-5.378-4.009-5.378-4.009s-0.928,3.422,0.759,4.155C4.411,21.56,4.46,25.494,4.876,27.107z"/>
<g>
</g>
<g>
</g>
<g>
</g>
<g>
</g>
<g>
</g>
<g>
</g>
<g>
</g>
<g>
</g>
<g>
</g>
<g>
</g>
<g>
</g>
<g>
</g>
<g>
</g>
<g>
</g>
<g>
</g>
</svg>
