<?xml version="1.0" encoding="iso-8859-1"?>
<!-- Generator: Adobe Illustrator 16.0.0, SVG Export Plug-In . SVG Version: 6.00 Build 0)  -->
<!DOCTYPE svg PUBLIC "-//W3C//DTD SVG 1.1//EN" "http://www.w3.org/Graphics/SVG/1.1/DTD/svg11.dtd">
<svg version="1.1" id="Layer_1" xmlns="http://www.w3.org/2000/svg" xmlns:xlink="http://www.w3.org/1999/xlink" x="0px" y="0px"
	 width="21.847px" height="30.243px" viewBox="0 0 21.847 30.243" style="enable-background:new 0 0 21.847 30.243;"
	 xml:space="preserve">
<path d="M17.706,4.038c-0.234-0.093-0.088-0.842-0.088-0.842s-0.972,0.156-1.128-0.03c-0.156-0.188-0.312-3.741-6.889-3.086
	c1.839,0.499,1.465,0.64,1.465,0.64S7.357-0.2,6.453,0.578C8.77,0.797,8.292,1.702,8.292,1.702S4.77,1.274,4.068,1.903
	c1.47,0.047,1.465,0.483,1.465,0.483S3.751,2.147,3.382,2.869c1.242-0.15,1.325,0.219,1.325,0.219S1.539,3.894,1.574,5.129
	c1.118-0.883,1.73-0.404,1.792-0.404c0.063,0-2.296,0.706-1.948,1.527c0.274-0.383,0.733-0.528,1.116-0.58
	c-1.822,2.004-1.223,5.257-0.815,6.306c0.012,0.044,0.021,0.089,0.031,0.135c-0.245,0.05-0.629,0.05-0.937-0.385
	c-0.129,0.626,0.596,0.719,0.992,0.725c0.043,0.416-0.01,0.867-0.293,1.293c-0.595,0.893-1.259,1.302-1.474,1.9
	c-0.305,0.836,1.299,0.981,1.299,0.981l0.004,0.316c0,0-0.515,0.499-0.405,0.889c0.146,0.52,1.18,0.335,1.18,0.335
	s-0.993,0.366-0.946,0.85C1.217,19.5,1.632,19.71,1.632,19.71s-0.961,1.889,0.453,2.305c1.414,0.415,4.281-1.31,4.655,0.706
	c0.361,1.391,1.971,4.805,1.413,5.444c-0.558,0.64-1.413,1.621-1.413,1.621l14.671,0.457c0,0-4.531-5.86-4.987-6.525
	c-0.324-0.47-1.248-2.422-1.175-4.172c0.302,0.378,0.623,0.668,0.868,0.608c-0.635-0.342,0-1.621,0-1.621s0.26,3.438,1.091,3.272
	c-0.493-0.388-0.25-3.241-0.25-3.241s0.853,4.737,1.59,4.146c-0.637-0.562-0.93-4.146-0.343-4.707
	c0.586-0.561,1.278-4.426,1.278-4.426s0.032,1.205,0.561,0.997c-0.468-0.383,0-1.247,0-1.247s0.094,1.288,0.686,1.247
	c-0.229-0.756,0.065-2.022,0.254-2.689c0.055-0.134,0.1-0.28,0.135-0.44l0.001-0.002h-0.001c0.366-1.665-0.249-4.567-0.249-4.567
	s0.795,0.265,0.624,1.2C22.07,7.639,22.553,3.789,17.706,4.038z"/>
<g>
</g>
<g>
</g>
<g>
</g>
<g>
</g>
<g>
</g>
<g>
</g>
<g>
</g>
<g>
</g>
<g>
</g>
<g>
</g>
<g>
</g>
<g>
</g>
<g>
</g>
<g>
</g>
<g>
</g>
</svg>
