<?xml version="1.0" encoding="iso-8859-1"?>
<!-- Generator: Adobe Illustrator 16.0.0, SVG Export Plug-In . SVG Version: 6.00 Build 0)  -->
<!DOCTYPE svg PUBLIC "-//W3C//DTD SVG 1.1//EN" "http://www.w3.org/Graphics/SVG/1.1/DTD/svg11.dtd">
<svg version="1.1" id="Layer_1" xmlns="http://www.w3.org/2000/svg" xmlns:xlink="http://www.w3.org/1999/xlink" x="0px" y="0px"
	 width="25.957px" height="31.126px" viewBox="0 0 25.957 31.126" style="enable-background:new 0 0 25.957 31.126;"
	 xml:space="preserve">
<path d="M22.827,17.678c0,0,2.829,1.34,3.13,0.15c-0.57,0.793-3.226-0.904-3.226-0.904s2.952,1.004,2.98,0
	c-0.82,0.607-3.018-0.85-3.018-0.85s2.311,0.878,2.66-0.169c-0.731,0.763-3.376-0.963-3.376-0.963s2.745,0.538,2.773-0.132
	c-0.849,0.416-2.584-0.849-2.584-0.849s3.164,0.74,3.546,0.283c-0.834,0.26-3.301-0.85-3.301-0.85s2.763,0.543,2.848-0.207
	c-0.523,0.51-2.979-0.472-2.979-0.472s2.796,0.047,2.772-0.415c-0.5,0.435-2.754-0.282-2.754-0.282s2.754,0.282,2.867-0.246
	c-0.613,0.382-3.414-0.509-3.414-0.509s3.225,0.411,3.263-0.302c-0.561,0.429-3.126-0.34-3.126-0.34s2.848-0.022,2.768-0.584
	c-0.557,0.674-3.188,0.131-3.188,0.131s2.25,0.091,2.244-0.471c-0.462,0.49-2.452,0-2.452,0s2.938-0.132,2.886-0.585
	c-0.385,0.27-3.508,0.076-3.508,0.076s3.532-0.146,3.414-0.774c-0.66,0.6-3.49,0.076-3.49,0.076s3.169-0.368,3.094-1.095
	c-0.589,0.798-3.188,0.396-3.188,0.396s2.555-0.59,2.508-1.34c-0.604,0.793-3.471,0.774-3.471,0.774s3.094-0.872,2.886-1.565
	c-0.514,0.735-3.886,1.264-3.886,1.264s3.372-1.363,3.018-2.113c-0.792,1.09-1.735,0.51-1.735,0.51s1.438-0.692,1.358-1.32
	c-0.5,0.995-3.056,1.585-3.056,1.585s2.556-1.835,1.679-2.717C19.658,4.39,16.979,5.04,16.979,5.04s1.915-1.839,1.584-2.471
	c-0.109,1.015-2.15,1.604-2.15,1.604s1.66-1.48,1.264-2.564C17.55,2.933,15.47,3.682,15.47,3.682s1.033-1.47,0.736-2.206
	c-0.116,1.057-1.66,1.943-1.66,1.943s1.094-1.562,0.66-1.943c-0.103,0.637-0.886,1.547-0.886,1.547s0.859-1.425,0.453-2.094
	c-0.278,0.674-1.509,3.226-1.509,3.226l0.377-2.98l-1.302,2.188l0.773-2.887l-1.094,1.34L11.811,0l-0.339,1.928l-0.302-1.641
	l-0.641,3.226L10.396,0.57L9.962,2.814L9.717,0.155L9.604,2.663c0,0-1.131-1.301-0.641-2.602C7.812,0.25,8.642,3.815,8.642,3.815
	s-1.037-3.283-1.056-3.34s0.34,2.999,0.359,3.056S6.963,1.174,6.963,1.174L7.36,3.531c0,0-0.972-0.854-1.189-2.584
	C5.346,2.328,6.888,5.221,6.888,5.221S4.591,3.159,4.285,1.362c-0.688,0.594,1.019,3.49,1.019,3.49s-1.164-1.1-1.773-3.264
	C2.993,2.848,5.171,6.267,5.171,6.267S3.276,3.527,2.833,1.589c-0.556,0.99,1.321,4.093,1.321,4.093S2.795,3.979,2.267,2.06
	C1.625,3.083,3.493,5.606,3.493,5.606S1.975,3.838,1.625,2.588C1.191,3.277,2.908,6.097,2.908,6.097s-1.5-1.693-1.811-3.056
	C0.645,4.578,2.625,6.907,2.625,6.907s-1.471-1.216-2-2.546C0.267,5.507,2.7,8.586,2.7,8.586S0.249,5.818,0.022,4.984
	c-0.254,1.004,1.797,3.522,1.797,3.522S1.449,9.501,0.022,6.36c0.067,2.451,2.578,4.32,3.649,5.009
	c-0.16,1.328,0.123,2.61,0.343,3.178c0.011,0.04,0.02,0.082,0.028,0.123c-0.222,0.045-0.571,0.046-0.85-0.349
	c-0.118,0.567,0.541,0.651,0.9,0.656c0.039,0.379-0.009,0.787-0.266,1.174c-0.54,0.812-1.143,1.183-1.338,1.725
	c-0.277,0.759,1.18,0.892,1.18,0.892l0.003,0.288c0,0-0.467,0.452-0.368,0.806c0.132,0.472,1.071,0.304,1.071,0.304
	s-0.901,0.333-0.858,0.771c0.042,0.438,0.419,0.629,0.419,0.629s-0.872,1.715,0.411,2.092c1.283,0.378,3.886-1.188,4.226,0.641
	c0.328,1.264,1.789,4.362,1.282,4.942c-0.506,0.581-1.282,1.471-1.282,1.471l13.316,0.415c0,0-4.112-5.319-4.527-5.922
	c-0.415-0.604,1.66-1.019,3.169-2.678c0.206-0.226,0.364-0.559,0.489-0.955c0.228,0.074,0.511,0.104,0.731-0.084
	c-0.298,0.002-0.507-0.091-0.654-0.201c0.015-0.058,0.033-0.108,0.046-0.17c0.302,0.136,0.75,0.279,1.116,0.146
	c-0.398-0.09-0.765-0.282-1.058-0.472c0.007-0.043,0.015-0.085,0.022-0.129c0.5,0.24,1.156,0.478,1.507,0.261
	c-0.416-0.036-1.065-0.704-1.408-1.088c0.001-0.018,0.003-0.032,0.005-0.049c0.39,0.334,1.199,0.889,1.913,0.477
	c-0.593-0.024-1.589-0.942-1.876-1.218c0-0.008,0.001-0.016,0.001-0.024c0.461,0.316,2.774,1.843,3.384,1.148
	c-1.005,0.334-2.98-1.66-2.98-1.66s2.424,1.451,3.037,0.962c-0.891-0.198-2.376-1.377-2.376-1.377s3.211,1.759,3.527,0.773
	C25.274,19.243,22.827,17.678,22.827,17.678z"/>
<g>
</g>
<g>
</g>
<g>
</g>
<g>
</g>
<g>
</g>
<g>
</g>
<g>
</g>
<g>
</g>
<g>
</g>
<g>
</g>
<g>
</g>
<g>
</g>
<g>
</g>
<g>
</g>
<g>
</g>
</svg>
