<?xml version="1.0" encoding="iso-8859-1"?>
<!-- Generator: Adobe Illustrator 16.0.0, SVG Export Plug-In . SVG Version: 6.00 Build 0)  -->
<!DOCTYPE svg PUBLIC "-//W3C//DTD SVG 1.1//EN" "http://www.w3.org/Graphics/SVG/1.1/DTD/svg11.dtd">
<svg version="1.1" id="Layer_1" xmlns="http://www.w3.org/2000/svg" xmlns:xlink="http://www.w3.org/1999/xlink" x="0px" y="0px"
	 width="29.594px" height="31.792px" viewBox="0 0 29.594 31.792" style="enable-background:new 0 0 29.594 31.792;"
	 xml:space="preserve">
<path d="M6.965,29.79C7.504,31.407,1.041,30.889,0,28.713C2.423,3.618,12.662,4.465,12.662,4.465S12.646,0.153,14.785,0
	c-1.782,1.984-0.968,4.08-0.968,4.08s1.54-3.891,3.002-3.282c-1.222,0.896-1.54,3.359-1.54,3.359s2.387-3.061,3.388-1.925
	c-1.007-0.157-3.233,2.694-3.233,2.694s6.161-2.88,10.7,3.849s3.31,23.017,3.31,23.017s-5.311-0.925-7.313-2.002
	c-2.002-1.077,0-10.161,0-10.161l-3.079,0.078l-7.929-3.156c0,0-1.308-2.002-1.77-4.157c-0.462,1.133,0.053,3.868-0.231,4.619
	c-0.289,0.766-3.58,0.405-3.772,1.457C4.648,22.314,6.69,28.968,6.965,29.79z"/>
<g>
</g>
<g>
</g>
<g>
</g>
<g>
</g>
<g>
</g>
<g>
</g>
<g>
</g>
<g>
</g>
<g>
</g>
<g>
</g>
<g>
</g>
<g>
</g>
<g>
</g>
<g>
</g>
<g>
</g>
</svg>
