<?xml version="1.0" encoding="iso-8859-1"?>
<!-- Generator: Adobe Illustrator 16.0.0, SVG Export Plug-In . SVG Version: 6.00 Build 0)  -->
<!DOCTYPE svg PUBLIC "-//W3C//DTD SVG 1.1//EN" "http://www.w3.org/Graphics/SVG/1.1/DTD/svg11.dtd">
<svg version="1.1" id="Layer_1" xmlns="http://www.w3.org/2000/svg" xmlns:xlink="http://www.w3.org/1999/xlink" x="0px" y="0px"
	 width="26.474px" height="29.543px" viewBox="0 0 26.474 29.543" style="enable-background:new 0 0 26.474 29.543;"
	 xml:space="preserve">
<path d="M9.641,21.376c0,0-0.125,2.335-0.25,3.209c-1.583,0.874-5.318-2.5-5.318-2.5s-0.138,3.773,1.568,5.333
	c-2.292,0.124-2.5-5.833-2.5-5.833s-4.823-4.666-2.516-9.625S6.308-2.374,12.474,1.085c8.792-5.084,11.042,9.249,11.167,11.041
	s2.25,4,2.833,4.084c-0.375,1.332-2.125-0.625-2.125-0.625s0.708,5.625-1.208,6.208c0.292-0.876-0.125-1.5-0.125-1.5l-1.792,2.083
	c0,0,0.083,6.668-3.208,7.167c2.123-1.732,1.899-7.125,1.899-7.125s-1.524,2.833-4.092,2.583c-0.038-0.331-0.39-3.375-0.39-3.375
	l4.659-3.695c-0.349-0.478-4.784-6.472-6.876-10.438c-3.2,4.758-7.867,8.674-7.95,9.424C5.974,19.792,9.641,21.376,9.641,21.376z"/>
<g>
</g>
<g>
</g>
<g>
</g>
<g>
</g>
<g>
</g>
<g>
</g>
<g>
</g>
<g>
</g>
<g>
</g>
<g>
</g>
<g>
</g>
<g>
</g>
<g>
</g>
<g>
</g>
<g>
</g>
</svg>
