<?xml version="1.0" encoding="iso-8859-1"?>
<!-- Generator: Adobe Illustrator 16.0.0, SVG Export Plug-In . SVG Version: 6.00 Build 0)  -->
<!DOCTYPE svg PUBLIC "-//W3C//DTD SVG 1.1//EN" "http://www.w3.org/Graphics/SVG/1.1/DTD/svg11.dtd">
<svg version="1.1" id="Layer_1" xmlns="http://www.w3.org/2000/svg" xmlns:xlink="http://www.w3.org/1999/xlink" x="0px" y="0px"
	 width="31.001px" height="31.64px" viewBox="0 0 31.001 31.64" style="enable-background:new 0 0 31.001 31.64;"
	 xml:space="preserve">
<path d="M7.033,13.518c-0.986,1.096,0.95,7.38,0.95,7.38s-1.553-3.945-2.119-3.689c-1.772,4.055,0.237,12.55,0.511,12.751
	s-0.858,1.681-1.607,0.95c0.877-0.896,0-1.827,0-1.827s-0.201,0.201-0.658,0.365c0.311-0.694,0.438-2.484,0.438-2.484v-1.827
	c0,0-0.402,1.681-1.242,1.9c0.475-0.73,0.876-3.215,0.876-3.215s-0.438,0.712-0.876,0.73c0.255-0.457,0-1.9,0-1.9
	s-1.443,1.918-2.266,1.535c0.786-0.365,1.096-1.974,1.096-1.974s-1.37,0.841-1.681,0c1.005-0.036,1.535-1.096,1.535-1.096
	s-1.553,0.768-1.535,0.292c0.804-0.457,1.461-1.826,1.461-1.826s-0.858,0.968-1.297,0.73c0.566-0.476,1.443-1.535,1.443-1.535
	s-1.443,0.841-1.607,0.073c1.114-0.347,1.461-2.338,1.461-2.338s-1.096,1.242-1.461,0.804c0.731-0.438,1.681-1.607,1.388-1.681
	c-0.292-0.073-1.151,0.712-1.827,0.292c1.261-0.657,2.046-4.312,2.046-4.312s-2.283,1.334-2.046,0.731
	c0.694-0.22,2.046-1.17,2.046-2.777C2.429,3.908,15.546-2.229,22.305,0.803c1.428,0.997,3.142,2.192,3.142,2.192
	s0.712,0.785,1.315,1.022c-0.019,0.274-0.95,0.293-0.95,0.293s0.84,0.712,1.608,0.73c0,0.512-1.681,0.292-1.681,0.292
	s3.336,3.774,3.434,5.042s1.133,4.257,1.827,4.677c-0.53,0.438-0.914,0.621-1.973,0.073c-0.237,0.438,1.206,1.863,1.37,2.667
	s0.019,2.211,0.603,3.179c-0.676,0.604-1.608-0.877-1.608-0.877s0.311,5.682,0.877,6.577c-0.347,0.292-0.95-0.877-0.95-0.877
	s-1.315,0.986-0.438,1.973c-1.333,0.493-1.461-2.996-1.461-2.996s-2.485,2.247-0.292,6.139c-0.566,0.328-2.137-2.558-2.137-2.558
	s-0.311,1.516,1.188,3.288c-4.823-2.138-2.119-7.197-2.338-8.403S21.721,21.3,21.721,21.3S21.246,23.438,23,25.557
	c-1.188,0.292-5.061-6.139-5.061-6.139s0.237,2.813,1.224,3.672c-0.603,0.53-2.686-2.759-2.686-2.759s1.242,3.818,2.338,4.987
	c-1.114,0.622-5.426-6.503-5.426-6.503s1.333,3.891,2.558,5.48c-0.438,0.273-5.006-6.175-5.006-6.175s-0.274,0.603,0.622,2.302
	C10.339,20.112,7.398,13.006,7.033,13.518z"/>
<g>
</g>
<g>
</g>
<g>
</g>
<g>
</g>
<g>
</g>
<g>
</g>
<g>
</g>
<g>
</g>
<g>
</g>
<g>
</g>
<g>
</g>
<g>
</g>
<g>
</g>
<g>
</g>
<g>
</g>
</svg>
