<?xml version="1.0" encoding="iso-8859-1"?>
<!-- Generator: Adobe Illustrator 16.0.0, SVG Export Plug-In . SVG Version: 6.00 Build 0)  -->
<!DOCTYPE svg PUBLIC "-//W3C//DTD SVG 1.1//EN" "http://www.w3.org/Graphics/SVG/1.1/DTD/svg11.dtd">
<svg version="1.1" id="Layer_1" xmlns="http://www.w3.org/2000/svg" xmlns:xlink="http://www.w3.org/1999/xlink" x="0px" y="0px"
	 width="27.534px" height="31.319px" viewBox="0 0 27.534 31.319" style="enable-background:new 0 0 27.534 31.319;"
	 xml:space="preserve">
<path d="M9.706,5.221C9.982,8.178,8.827,7.946,8.597,8.27c-0.23,0.324-2.495,0.832-2.495,0.832s-2.217,5.359-1.663,9.701
	c-0.416,0.878-1.616-2.495-2.032-2.032c-0.554,0.878,1.663,6.744,2.032,7.298c0.369,0.555,0.553-0.323,1.201,0
	c0.647,0.324,0.832,3.051,1.663,3.696c0.832,0.646,0.878,3.973-3.51,3.511c-0.786-0.369,0.092-1.755,0.092-1.755
	s-4.896-3.28-3.695-13.119C1.39,6.562,3.838,2.219,8.042,2.819c9.331-9.285,16.262,7.205,16.815,8.776s0.324,3.604,1.109,4.989
	c0.785,1.386,3.094,9.471,0,12.104c-1.895,1.479-5.782,3.025-6.515,1.063c-0.734-1.964,2.402-6.189,2.818-8.084
	c0.277-2.771-3.742-5.497-5.267-8.038S9.567,6.191,9.706,5.221z"/>
<g>
</g>
<g>
</g>
<g>
</g>
<g>
</g>
<g>
</g>
<g>
</g>
<g>
</g>
<g>
</g>
<g>
</g>
<g>
</g>
<g>
</g>
<g>
</g>
<g>
</g>
<g>
</g>
<g>
</g>
</svg>
