<?xml version="1.0" encoding="iso-8859-1"?>
<!-- Generator: Adobe Illustrator 16.0.0, SVG Export Plug-In . SVG Version: 6.00 Build 0)  -->
<!DOCTYPE svg PUBLIC "-//W3C//DTD SVG 1.1//EN" "http://www.w3.org/Graphics/SVG/1.1/DTD/svg11.dtd">
<svg version="1.1" id="Layer_1" xmlns="http://www.w3.org/2000/svg" xmlns:xlink="http://www.w3.org/1999/xlink" x="0px" y="0px"
	 width="31.418px" height="27.792px" viewBox="0 0 31.418 27.792" style="enable-background:new 0 0 31.418 27.792;"
	 xml:space="preserve">
<path d="M30.923,15.387c-0.944,0.494-1.753,0-1.753,0s1.978-1.214,2.248-2.383c-0.495-0.225-2.472-0.584-2.472-0.584
	s2.382-0.854,2.157-2.202c-0.494,0.404-2.876,1.033-2.876,1.033s3.775-3.325,2.876-6.966c-0.719,1.482-4.129,2.337-4.129,2.337
	s2.871-1.708,2.152-3.287c-0.989,1.624-3.551,2.928-3.551,2.928s3.191-4.854,1.659-5.664c-1.435,1.483-7.098,6.068-7.098,6.068
	s1.573-4.405,2.697-5.618c-0.809-0.72-3.641,2.966-3.641,2.966s-0.45-1.978,0.809-3.461c-2.485-1.218-4.674,4.091-4.81,4.226
	c-0.135,0.135,0-4.779,0-4.779s-1.213,4.779-1.213,4.914s-1.843-3.146-1.843-3.146l0.359,3.506c0,0-3.011-4.359-6.427-2.651
	c2.876,0.771,3.686,4.27,3.686,4.27L3.281,4.734l4.54,2.157c0,0-5.843-1.124-6.517,0.359c3.551-0.09,4.584,4.315,4.584,4.315
	s-3.011-0.899-4.135-2.563c-0.621,1.63,3.383,3.552,3.383,3.687S2.292,14.173,0,12.555c0.135,1.573,4.675,5.259,4.675,5.259
	l-4.09-0.539l3.506,1.483c0,0-1.798,2.112-4.09,0.988c0.661,3.146,6.292,4.09,6.292,4.09s-2.607,0.899-4.135,0.854
	c0.596,1.107,3.734,0.359,4.134,0.146c-0.239,0.224-1.435,1.42-3.37,1.923c3.582,2.022,6.652,0.494,6.832,0.27
	c0,0,0.064-1.186,0.146-2.695c-0.679-0.305-1.508-0.088-2.019-1.238c-0.667-1.5-1.333-2.583-0.333-4.625
	c0.61-1.246,1.762-0.536,2.596,0.215c-0.023-0.724-0.122-1.21-0.345-1.903c-0.404-1.259,1.888-4.226,1.888-4.226
	s0.764,6.832,1.708,5.844c-0.09-4.181,1.659-6.424,2.315-7.507c0.292,6.158,2.854,7.057,3.214,6.518
	c-1.304-6.832,2.586-6.248,2.586-6.248s0.2-1.708,2.277-1.431c4.44,1.521,4.53,12.128,4.53,12.128h1.259l-0.944-1.078l1.933,0.314
	l-1.798-1.169c0,0,2.112-0.09,1.348-0.847c-0.809-0.058-1.258-1.715-1.258-1.715S31.058,16.689,30.923,15.387z"/>
<g>
</g>
<g>
</g>
<g>
</g>
<g>
</g>
<g>
</g>
<g>
</g>
<g>
</g>
<g>
</g>
<g>
</g>
<g>
</g>
<g>
</g>
<g>
</g>
<g>
</g>
<g>
</g>
<g>
</g>
</svg>
