<?xml version="1.0" encoding="iso-8859-1"?>
<!-- Generator: Adobe Illustrator 16.0.0, SVG Export Plug-In . SVG Version: 6.00 Build 0)  -->
<!DOCTYPE svg PUBLIC "-//W3C//DTD SVG 1.1//EN" "http://www.w3.org/Graphics/SVG/1.1/DTD/svg11.dtd">
<svg version="1.1" id="Layer_1" xmlns="http://www.w3.org/2000/svg" xmlns:xlink="http://www.w3.org/1999/xlink" x="0px" y="0px"
	 width="31.379px" height="31.527px" viewBox="0 0 31.379 31.527" style="enable-background:new 0 0 31.379 31.527;"
	 xml:space="preserve">
<path d="M7.711,31.527C5.434,29.293-1.165,19.03,0.179,12.315C1.521,5.6,4.676,1.104,10.923,0.286
	c6.248-0.817,17.284-0.351,19.679,7.825c2.395,8.176-1.489,14.131-1.694,16.322c-0.205,2.189-0.788,4.846-2.335,5.927
	c3.211-3.154-0.643-11.533-2.919-11.445c0.846,1.751-0.526,4.321-0.526,4.321s-0.788-1.519-0.583-0.759
	c0.204,0.759-0.088,0.92-0.234,2.044c0.015-1.504-2.276-3.329-2.276-3.329s-0.162,0.963,0.174,2.044
	c-0.774-1.913-2.744-3.854-2.744-3.854s0.861,1.767,0.759,2.687c-0.249-1.081-1.154-1.752-1.635-1.46
	c0.627,0.905,0.569,1.46,0.598,2.525c-1.007-1.299-10.816-5.869-10.934-5.562c-1.446,2.496,1.374,5.898,1.694,6.423
	c-1.431-0.131-1.343,0.467-1.343,0.467s1.3,1.65,1.811,1.81c-1.169-0.438-1.388,0.132-1.388,0.132s0.702,1.533,1.096,2.262
	c-1.022-1.109-1.051-0.292-1.051-0.292S7.303,30.666,7.711,31.527z"/>
<g>
</g>
<g>
</g>
<g>
</g>
<g>
</g>
<g>
</g>
<g>
</g>
<g>
</g>
<g>
</g>
<g>
</g>
<g>
</g>
<g>
</g>
<g>
</g>
<g>
</g>
<g>
</g>
<g>
</g>
</svg>
