<?xml version="1.0" encoding="iso-8859-1"?>
<!-- Generator: Adobe Illustrator 16.0.0, SVG Export Plug-In . SVG Version: 6.00 Build 0)  -->
<!DOCTYPE svg PUBLIC "-//W3C//DTD SVG 1.1//EN" "http://www.w3.org/Graphics/SVG/1.1/DTD/svg11.dtd">
<svg version="1.1" id="Layer_1" xmlns="http://www.w3.org/2000/svg" xmlns:xlink="http://www.w3.org/1999/xlink" x="0px" y="0px"
	 width="31.743px" height="27.283px" viewBox="0 0 31.743 27.283" style="enable-background:new 0 0 31.743 27.283;"
	 xml:space="preserve">
<path d="M6.579,9.845c2.707-0.416,13.848,0.937,13.848,0.937l-0.313,4.113c0,0-1.092,3.486-1.25,5.568
	c-0.158,2.083,2.705,6.873,4.111,6.82c0.443-0.781,1.666-1.354,1.666-1.354s0.678,0.962,1.822,0.78c0-0.468,0.729-1.196,0.729-1.196
	s0.416,0.311,1.092-0.053c-0.232-0.441,0-1.822,0-1.822s1.148,0.549,1.668-0.104c-0.703-0.599-0.365-2.498-0.365-2.498
	s2.238,0.281,1.822-1.406c-1.041,0.729-1.197-0.468-1.197-0.468s2.393-0.366,1.197-1.667c-0.262,0.938-1.596,0.27-1.926,0
	s-4.322-3.383-4.166-5.256c0.156-1.875-1.404-10.255-4.631-11.4c-3.229-1.146-8.85-1.094-11.088,0s-5.357,10.613-5.41,11.497
	c-0.053,0.885-3.023,0.94-3.492,1.306c-0.571,0.939,0.781,2.917,0.781,2.917s0.011,1.376-1.343,1.794
	c-0.832,1.3,2.438,4.244,3.114,4.141s-0.73,0.418-2.083,1.146c1.666,2.498,5.83-0.054,4.945,0.988
	c0.713,1.51,2.758,3.279,4.945,1.978C9.911,25.202,6.006,20.568,6.579,9.845z"/>
<g>
</g>
<g>
</g>
<g>
</g>
<g>
</g>
<g>
</g>
<g>
</g>
<g>
</g>
<g>
</g>
<g>
</g>
<g>
</g>
<g>
</g>
<g>
</g>
<g>
</g>
<g>
</g>
<g>
</g>
</svg>
