<?xml version="1.0" encoding="iso-8859-1"?>
<!-- Generator: Adobe Illustrator 16.0.0, SVG Export Plug-In . SVG Version: 6.00 Build 0)  -->
<!DOCTYPE svg PUBLIC "-//W3C//DTD SVG 1.1//EN" "http://www.w3.org/Graphics/SVG/1.1/DTD/svg11.dtd">
<svg version="1.1" id="Layer_1" xmlns="http://www.w3.org/2000/svg" xmlns:xlink="http://www.w3.org/1999/xlink" x="0px" y="0px"
	 width="31.949px" height="25.688px" viewBox="0 0 31.949 25.688" style="enable-background:new 0 0 31.949 25.688;"
	 xml:space="preserve">
<path d="M30.271,13.396c0,0,0.121-2.52,0.148-3.088c0.028-0.567-1.581,0.174-1.927-0.321c-0.346-0.494-0.716-2.644-1.284-3.014
	c-0.569-0.371,0.222-2.001-0.124-2.149S26.022,4.973,25.8,4.503c-0.223-0.469-0.816-1.388-0.988-1.68
	c-0.171-0.291-2.926-0.864-3.261-0.964c-0.334-0.098-0.692-1.062-1.013-1.136S18.24,1.267,18.24,1.267s-1.26-0.84-1.556-0.815
	c-0.297,0.026-0.716,0.545-1.236,0.371c-0.52-0.173-2.25-0.734-2.494-0.815c-0.245-0.079-0.124,0.544-0.741,0.347
	c-1.951,0.222-3.978,2.47-4.867,2.594C6.457,3.071,3.911,3.96,3.789,5.12C3.666,6.282,4.283,7.344,3.764,7.74
	C3.245,8.136,2.629,8.152,2.182,9.049c-0.447,0.896-1.136,1.977-1.062,3.311c0.074,1.334,1.828,2.594,1.754,3.434
	c-0.074,0.841-2.421,0.767-2.766,1.384s0.321,1.136,0.444,1.58c0.124,0.445-0.643,0.495-0.544,0.89
	c0.098,0.396,1.038,0.618,0.989,1.063c-0.048,0.443-0.396,0.519-0.42,0.987s1.829,4.423,2.075,3.952
	c0.247-0.47,0.371-2.742,0.889-3.038c0.519-0.297,1.581,0.963,1.581,0.963s-0.617-6.916-0.099-7.064
	c0.963-0.321,1.062-1.532,0.815-1.804c0.469-0.147,0.444-2.545,2.049-2.644c1.605-0.098,2.027,0.741,3.187,0.766
	s2.026,0.198,4.076-0.123c2.05-0.32,3.558,0,4.002,0.47c0.445,0.469,1.977-0.445,2.52,0c0.543,0.444,3.188,2.495,3.706,3.952
	c0.518,1.459-0.173,4.867,0.444,4.892c0.618,0.025,1.211-0.964,1.73-0.864c0.519,0.1,1.358,0.271,1.556,1.062
	c0.198,0.791,1.21,1.359,2.025,1.112c0.815-0.248,0.247-1.384,0.741-2.273c0.494-0.89-1.705-2.321-1.705-2.321
	s0.815-0.644,0.791-1.285c-0.024-0.641,0.369-1.778-0.322-1.927C30.864,14.533,30.271,13.396,30.271,13.396z"/>
<g>
</g>
<g>
</g>
<g>
</g>
<g>
</g>
<g>
</g>
<g>
</g>
<g>
</g>
<g>
</g>
<g>
</g>
<g>
</g>
<g>
</g>
<g>
</g>
<g>
</g>
<g>
</g>
<g>
</g>
</svg>
