<?xml version="1.0" encoding="iso-8859-1"?>
<!-- Generator: Adobe Illustrator 16.0.0, SVG Export Plug-In . SVG Version: 6.00 Build 0)  -->
<!DOCTYPE svg PUBLIC "-//W3C//DTD SVG 1.1//EN" "http://www.w3.org/Graphics/SVG/1.1/DTD/svg11.dtd">
<svg version="1.1" id="Layer_1" xmlns="http://www.w3.org/2000/svg" xmlns:xlink="http://www.w3.org/1999/xlink" x="0px" y="0px"
	 width="28.843px" height="22.125px" viewBox="0 0 28.843 22.125" style="enable-background:new 0 0 28.843 22.125;"
	 xml:space="preserve">
<g>
	<path d="M13.012,9.467c4.454,0,9.559-1.472,10.729-2.056s4.49-0.434,4.753-0.527c0.264-0.095,0.594-4.147,0.076-4.203
		c-0.52-0.057-3.366,0.02-4.829-0.625S17.465,0,13.012,0C5.826,0,0,2.12,0,4.734S5.826,9.467,13.012,9.467z M13.033,6.978
		c-3.89,0-7.256-0.51-8.899-1.254h17.797C20.289,6.468,16.922,6.978,13.033,6.978z M9.164,5.346v-1.46h7.346v1.46H9.164z
		 M22.999,4.696c0,0.226-0.146,0.444-0.414,0.65h-4.54v-1.46h4.305C22.768,4.138,22.999,4.411,22.999,4.696z M13.033,2.415
		c3.604,0,6.762,0.438,8.512,1.094H4.52C6.271,2.852,9.428,2.415,13.033,2.415z M3.715,3.886h3.913v1.46H3.479
		C3.212,5.14,3.066,4.922,3.066,4.696C3.066,4.411,3.297,4.138,3.715,3.886z"/>
	<path d="M28.57,15.338c-0.52-0.057-3.366,0.02-4.829-0.625s-6.275-2.056-10.729-2.056C5.826,12.658,0,14.777,0,17.391
		s5.826,4.733,13.012,4.733c4.454,0,9.559-1.472,10.729-2.056s4.49-0.434,4.753-0.527C28.758,19.447,29.088,15.394,28.57,15.338z
		 M13.033,15.072c3.604,0,6.762,0.438,8.512,1.094H4.52C6.271,15.509,9.428,15.072,13.033,15.072z M16.51,16.543v1.46H9.164v-1.46
		H16.51z M3.066,17.353c0-0.285,0.231-0.559,0.649-0.81h3.913v1.46H3.479C3.212,17.797,3.066,17.58,3.066,17.353z M13.033,19.635
		c-3.89,0-7.256-0.51-8.899-1.254h17.797C20.289,19.125,16.922,19.635,13.033,19.635z M22.585,18.003h-4.54v-1.46h4.305
		c0.417,0.251,0.649,0.524,0.649,0.81C22.999,17.58,22.853,17.797,22.585,18.003z"/>
</g>
<g>
</g>
<g>
</g>
<g>
</g>
<g>
</g>
<g>
</g>
<g>
</g>
<g>
</g>
<g>
</g>
<g>
</g>
<g>
</g>
<g>
</g>
<g>
</g>
<g>
</g>
<g>
</g>
<g>
</g>
</svg>
