<?xml version="1.0" encoding="iso-8859-1"?>
<!-- Generator: Adobe Illustrator 16.0.0, SVG Export Plug-In . SVG Version: 6.00 Build 0)  -->
<!DOCTYPE svg PUBLIC "-//W3C//DTD SVG 1.1//EN" "http://www.w3.org/Graphics/SVG/1.1/DTD/svg11.dtd">
<svg version="1.1" id="Layer_1" xmlns="http://www.w3.org/2000/svg" xmlns:xlink="http://www.w3.org/1999/xlink" x="0px" y="0px"
	 width="31.815px" height="30.028px" viewBox="0 0 31.815 30.028" style="enable-background:new 0 0 31.815 30.028;"
	 xml:space="preserve">
<g>
	<path d="M9.5,15.256c0.42-0.417,0.465-1.063,0.152-1.54l0.752-0.748c0.476,0.313,1.12,0.271,1.54-0.147
		c0.42-0.419,0.464-1.062,0.151-1.539l0.71-0.709c0.477,0.315,1.121,0.272,1.541-0.145c0.419-0.42,0.464-1.063,0.15-1.54
		l0.803-0.801c0.476,0.315,1.121,0.273,1.54-0.147c0.421-0.417,0.465-1.061,0.151-1.538l2.773-2.763c0,0,0.383-0.094,0.58-0.131
		c0.875-0.167,2.503-0.48,2.385-2.202c-0.046-0.666-0.28-1.083-0.698-1.24c-0.692-0.26-1.615,0.33-1.997,0.63l-0.008-0.003L0,20.65
		l0.262,0.264L20.131,1.109c0,0,1.224-0.862,1.757-0.662c0.252,0.096,0.4,0.394,0.434,0.885c0.086,1.256-0.968,1.565-2.055,1.774
		C19.942,3.168,19.6,3.282,19.6,3.282l-3.02,3.009l0.144,0.376c0.174,0.325,0.127,0.737-0.147,1.01
		c-0.274,0.274-0.688,0.319-1.011,0.142l-0.341-0.178l-1.133,1.13l0.138,0.381c0.175,0.326,0.128,0.737-0.146,1.011
		c-0.275,0.273-0.687,0.319-1.012,0.143l-0.358-0.162l-1.042,1.039l0.158,0.362c0.173,0.326,0.127,0.737-0.146,1.012
		c-0.275,0.273-0.688,0.317-1.012,0.144l-0.316-0.206l-1.146,1.142l0.176,0.347c0.175,0.323,0.128,0.736-0.146,1.01
		c-0.298,0.298-0.86,0.213-1.094,0.095c-0.151-0.03-0.274-0.12-0.274-0.12l-5.477,5.457l0.263,0.263l5.304-5.286
		C8.437,15.716,9.082,15.674,9.5,15.256z"/>
	<path d="M31.296,10.699c-1.575-1.525-6.249,0.746-10.441,5.072c-2.599,2.683-4.689,6.614-5.021,7.66
		c-0.331,1.045-2.358,2.955-2.456,3.169c-0.098,0.214,2.15,2.776,2.486,2.498c0.337-0.28,1.952-2.038,3.193-2.543
		c1.242-0.506,4.898-2.579,7.497-5.261C30.747,16.969,32.869,12.225,31.296,10.699z M22.342,17.237
		c2.269-2.343,4.54-4.071,5.946-4.626L17.906,23.326C18.416,21.903,20.073,19.579,22.342,17.237z M26.46,16.712l-4.285,4.422
		l-0.88-0.852l4.285-4.424L26.46,16.712z M18.768,24.65c-0.396,0.104-0.695,0.084-0.867-0.082c-0.136-0.132-0.182-0.347-0.15-0.629
		l2.648-2.733l0.879,0.853L18.768,24.65z M25.089,19.898c-2.103,2.171-4.208,3.816-5.624,4.486l9.931-10.25
		C28.771,15.572,27.192,17.729,25.089,19.898z M29.639,13.431l-2.283,2.355l-0.88-0.852l2.42-2.498
		c0.281-0.04,0.497-0.001,0.633,0.131C29.701,12.733,29.731,13.032,29.639,13.431z"/>
	<path d="M30.031,8.06c-0.311-0.753,0,0-0.275-0.868c-7.788,0.135-16.853,13.771-16.853,13.771s2.012-10.217,15.594-16.39
		c-0.717-1.411,0.33,0.647-0.619-1.219C12.847,7.893,8.645,22.87,8.645,22.87l-5.131,2.324L4.64,26.43l5.2-0.082l-2.433,3.114
		l0.515,0.566l4.354-4.726C12.276,25.303,18.394,10.479,30.031,8.06z M10.663,24.42c-0.301,0.273-0.766,0.253-1.041-0.049
		c-0.274-0.3-0.252-0.767,0.048-1.04s0.766-0.252,1.04,0.048C10.984,23.681,10.964,24.146,10.663,24.42z"/>
</g>
<g>
</g>
<g>
</g>
<g>
</g>
<g>
</g>
<g>
</g>
<g>
</g>
<g>
</g>
<g>
</g>
<g>
</g>
<g>
</g>
<g>
</g>
<g>
</g>
<g>
</g>
<g>
</g>
<g>
</g>
</svg>
