<?xml version="1.0" encoding="iso-8859-1"?>
<!-- Generator: Adobe Illustrator 16.0.0, SVG Export Plug-In . SVG Version: 6.00 Build 0)  -->
<!DOCTYPE svg PUBLIC "-//W3C//DTD SVG 1.1//EN" "http://www.w3.org/Graphics/SVG/1.1/DTD/svg11.dtd">
<svg version="1.1" id="Layer_1" xmlns="http://www.w3.org/2000/svg" xmlns:xlink="http://www.w3.org/1999/xlink" x="0px" y="0px"
	 width="30.911px" height="30.276px" viewBox="0 0 30.911 30.276" style="enable-background:new 0 0 30.911 30.276;"
	 xml:space="preserve">
<g>
	<path d="M12.26,19.686c0.542-0.539,0.6-1.371,0.195-1.986l0.971-0.967c0.614,0.404,1.445,0.35,1.987-0.189
		c0.542-0.541,0.599-1.371,0.194-1.986l0.916-0.914c0.615,0.406,1.446,0.352,1.988-0.188c0.541-0.541,0.599-1.371,0.193-1.986
		l1.037-1.033c0.614,0.406,1.446,0.352,1.986-0.19c0.543-0.539,0.6-1.369,0.195-1.985l3.578-3.565c0,0,0.494-0.121,0.749-0.17
		c1.128-0.216,3.229-0.619,3.077-2.842c-0.059-0.859-0.36-1.396-0.9-1.6c-0.893-0.336-2.084,0.426-2.576,0.813L25.84,0.892L0,26.647
		l0.337,0.339L25.977,1.431c0,0,1.578-1.113,2.267-0.854c0.325,0.124,0.517,0.508,0.56,1.142c0.111,1.621-1.249,2.02-2.651,2.289
		c-0.418,0.08-0.86,0.229-0.86,0.229l-3.896,3.883l0.186,0.484c0.225,0.42,0.165,0.951-0.189,1.304
		c-0.354,0.354-0.887,0.411-1.305,0.184l-0.44-0.23l-1.462,1.458l0.178,0.492c0.227,0.42,0.166,0.951-0.188,1.305
		s-0.886,0.412-1.306,0.186l-0.462-0.211l-1.345,1.34l0.203,0.469c0.225,0.42,0.165,0.951-0.188,1.305
		c-0.354,0.354-0.888,0.41-1.306,0.186l-0.408-0.266l-1.479,1.473l0.228,0.447c0.226,0.418,0.165,0.951-0.188,1.303
		c-0.385,0.385-1.109,0.275-1.412,0.123c-0.195-0.039-0.354-0.154-0.354-0.154l-7.067,7.042l0.339,0.339l6.844-6.822
		C10.887,20.279,11.719,20.225,12.26,19.686z"/>
	<path d="M30.425,5.303c-0.436-0.436-1.208-0.599-2.066,0.257L5.695,28.152l0.353,0.354L28.711,5.915
		c0.523-0.522,1.006-0.612,1.36-0.259c0.391,0.393,0.502,1.228,0.053,1.676C29.15,8.303,7.459,29.923,7.459,29.923l0.353,0.354
		c0,0,21.69-21.619,22.666-22.59C31.133,7.032,30.988,5.868,30.425,5.303z"/>
</g>
<g>
</g>
<g>
</g>
<g>
</g>
<g>
</g>
<g>
</g>
<g>
</g>
<g>
</g>
<g>
</g>
<g>
</g>
<g>
</g>
<g>
</g>
<g>
</g>
<g>
</g>
<g>
</g>
<g>
</g>
</svg>
