<?xml version="1.0" encoding="iso-8859-1"?>
<!-- Generator: Adobe Illustrator 16.0.0, SVG Export Plug-In . SVG Version: 6.00 Build 0)  -->
<!DOCTYPE svg PUBLIC "-//W3C//DTD SVG 1.1//EN" "http://www.w3.org/Graphics/SVG/1.1/DTD/svg11.dtd">
<svg version="1.1" id="Layer_1" xmlns="http://www.w3.org/2000/svg" xmlns:xlink="http://www.w3.org/1999/xlink" x="0px" y="0px"
	 width="31.63px" height="31.817px" viewBox="0 0 31.63 31.817" style="enable-background:new 0 0 31.63 31.817;"
	 xml:space="preserve">
<path d="M10.452,26.18c0,0,7.297-17.681,21.178-20.568c-0.371-0.898,0,0-0.328-1.035c-9.29,0.161-20.104,16.428-20.104,16.428
	S13.6,8.817,29.801,1.454C28.945-0.229,30.194,2.226,29.063,0C11.132,5.414,6.12,23.279,6.12,23.279L0,26.052l1.343,1.473
	l6.203-0.099l-2.902,3.716l0.615,0.675L10.452,26.18z M7.287,25.07c-0.327-0.357-0.301-0.914,0.058-1.24
	c0.358-0.327,0.914-0.302,1.24,0.057s0.302,0.914-0.057,1.241C8.169,25.454,7.614,25.428,7.287,25.07z"/>
<g>
</g>
<g>
</g>
<g>
</g>
<g>
</g>
<g>
</g>
<g>
</g>
<g>
</g>
<g>
</g>
<g>
</g>
<g>
</g>
<g>
</g>
<g>
</g>
<g>
</g>
<g>
</g>
<g>
</g>
</svg>
