<?xml version="1.0" encoding="iso-8859-1"?>
<!-- Generator: Adobe Illustrator 16.0.0, SVG Export Plug-In . SVG Version: 6.00 Build 0)  -->
<!DOCTYPE svg PUBLIC "-//W3C//DTD SVG 1.1//EN" "http://www.w3.org/Graphics/SVG/1.1/DTD/svg11.dtd">
<svg version="1.1" id="Layer_1" xmlns="http://www.w3.org/2000/svg" xmlns:xlink="http://www.w3.org/1999/xlink" x="0px" y="0px"
	 width="28.341px" height="31.506px" viewBox="0 0 28.341 31.506" style="enable-background:new 0 0 28.341 31.506;"
	 xml:space="preserve">
<g>
	<rect y="29.962" width="8.184" height="1.307"/>
	<path d="M0,29.532h8.184V8.271H0V29.532z M1.011,9.767h1.035v18.482H1.011V9.767z"/>
	<path d="M0,0v7.738h8.184V0H0z M2.046,7.367H1.011V0.432h1.035V7.367z"/>
</g>
<g>
	<path d="M20.156,23.768v7.738h8.185v-7.738H20.156z M22.201,31.136h-1.033V24.2h1.033V31.136z"/>
	<g>
		<rect x="10.361" y="29.987" width="8.183" height="1.306"/>
		<path d="M17.754,8.296V6.548h-0.449V5.977h-1.361V3.632l-2.574-0.001v2.346h-1.547v0.571h-0.485v1.749h-0.976v21.26h8.183V8.296
			H17.754z M12.407,28.274h-1.036V9.79h1.036V28.274z M14.678,5.407c-0.333,0-0.603-0.27-0.603-0.603s0.27-0.603,0.603-0.603
			s0.603,0.27,0.603,0.603S15.011,5.407,14.678,5.407z"/>
	</g>
	<circle cx="14.678" cy="4.805" r="0.246"/>
</g>
<g>
</g>
<g>
</g>
<g>
</g>
<g>
</g>
<g>
</g>
<g>
</g>
<g>
</g>
<g>
</g>
<g>
</g>
<g>
</g>
<g>
</g>
<g>
</g>
<g>
</g>
<g>
</g>
<g>
</g>
</svg>
