<?xml version="1.0" encoding="iso-8859-1"?>
<!-- Generator: Adobe Illustrator 16.0.0, SVG Export Plug-In . SVG Version: 6.00 Build 0)  -->
<!DOCTYPE svg PUBLIC "-//W3C//DTD SVG 1.1//EN" "http://www.w3.org/Graphics/SVG/1.1/DTD/svg11.dtd">
<svg version="1.1" id="Layer_1" xmlns="http://www.w3.org/2000/svg" xmlns:xlink="http://www.w3.org/1999/xlink" x="0px" y="0px"
	 width="14.807px" height="30.881px" viewBox="0 0 14.807 30.881" style="enable-background:new 0 0 14.807 30.881;"
	 xml:space="preserve">
<path d="M14.128,5.297C13.204,2.224,10.524,0,7.359,0C4.131,0,1.408,2.313,0.537,5.481H0v4.294h0.537
	c0.809,2.826,3.219,4.709,6.148,4.962v4.203H6.223v10.798H1.865v1.143h11.21v-1.143H8.584v-7.894h1.227v-1.203H8.584V18.94H8.123
	v-4.214c2.951-0.289,5.357-2.238,6.105-5.136h0.58V5.297H14.128z M7.359,13.59c-2.696,0-4.882-1.648-4.882-4.061
	S4.664,5.16,7.359,5.16c2.695,0,4.881,1.957,4.881,4.369S10.055,13.59,7.359,13.59z"/>
<g>
</g>
<g>
</g>
<g>
</g>
<g>
</g>
<g>
</g>
<g>
</g>
<g>
</g>
<g>
</g>
<g>
</g>
<g>
</g>
<g>
</g>
<g>
</g>
<g>
</g>
<g>
</g>
<g>
</g>
</svg>
