<?xml version="1.0" encoding="iso-8859-1"?>
<!-- Generator: Adobe Illustrator 16.0.0, SVG Export Plug-In . SVG Version: 6.00 Build 0)  -->
<!DOCTYPE svg PUBLIC "-//W3C//DTD SVG 1.1//EN" "http://www.w3.org/Graphics/SVG/1.1/DTD/svg11.dtd">
<svg version="1.1" id="Layer_1" xmlns="http://www.w3.org/2000/svg" xmlns:xlink="http://www.w3.org/1999/xlink" x="0px" y="0px"
	 width="23.535px" height="31.207px" viewBox="0 0 23.535 31.207" style="enable-background:new 0 0 23.535 31.207;"
	 xml:space="preserve">
<path d="M12.226,2.115C11.182,4.082,8.588,9.33,8.588,9.33s0.019,9.739-0.418,10.794c-0.436,1.055-0.796,1.093-1.61,1.253
	c-0.813,0.16-1.014-0.717-1.014-0.717s-1.968,1.908-1.968,0.717c0.936-0.159,0-2.386,0-2.386S3.558,23.92,1.789,24.18
	c0.3-1.054,0-2.207,0-2.207S0.934,23.88,0,23.046c0.736-0.356,1.134-2.981,1.134-2.981S0.816,18.793,0,19.229
	c0.101-1.151,1.074-1.253,1.074-1.253l1.908-2.691c0,0-1.175-0.787-0.418-0.945c0.279,0.398,1.253-1.193,1.253-1.193
	s0.101-1.748-1.134-3.041C4.076,9.928,9.661,0.292,14.074,0.011c4.412-0.281,5.904,5.175,6.142,5.86
	c0.238,0.687,2.355,2.803,2.385,3.996c-0.805-0.895-1.551,0.596-1.551,0.596s0.756-1.908,0.756-1.133s0.004,2.742-0.039,4.175
	c-0.045,1.433-0.119,3.936-0.119,3.936s1.621,1.734,1.65,3.94c0.029,2.207-0.459,3.216-0.459,3.216s1.59,2.106-0.039,3.101
	c0.438-1.432-0.557-2.146-0.557-2.146s0.477,2.981-0.953,1.749c0.889-0.903-0.182-3.555,0.41-4.04
	c0.592-0.484,1.17-0.571,0.363-2.182c-0.189-0.382-0.418-0.725-0.654-1.023c-0.166-0.21-0.16,2.117-0.955,1.72
	c0.318-0.875,0.217-2.519,0.105-2.616c-0.432-0.383-0.762-0.584-0.762-0.584l0.18,5.068l1.014,4.234c0,0,0.09,2.027,2.266,3.279
	c-3.398,0.596-3.816-4.234-3.816-4.234s-1.252,3.936-2.863,2.803c1.104-1.014,1.373-3.936,1.373-3.936s-1.969,0.895-2.982-0.715
	c1.371-0.18,0.089-1.372,0-4.95c-0.09-3.578,2.384-8.378,2.326-9.481C17.234,9.539,13.687,4.977,12.226,2.115z"/>
<g>
</g>
<g>
</g>
<g>
</g>
<g>
</g>
<g>
</g>
<g>
</g>
<g>
</g>
<g>
</g>
<g>
</g>
<g>
</g>
<g>
</g>
<g>
</g>
<g>
</g>
<g>
</g>
<g>
</g>
</svg>
