<?xml version="1.0" encoding="iso-8859-1"?>
<!-- Generator: Adobe Illustrator 16.0.0, SVG Export Plug-In . SVG Version: 6.00 Build 0)  -->
<!DOCTYPE svg PUBLIC "-//W3C//DTD SVG 1.1//EN" "http://www.w3.org/Graphics/SVG/1.1/DTD/svg11.dtd">
<svg version="1.1" id="Layer_1" xmlns="http://www.w3.org/2000/svg" xmlns:xlink="http://www.w3.org/1999/xlink" x="0px" y="0px"
	 width="31.015px" height="28.891px" viewBox="0 0 31.015 28.891" style="enable-background:new 0 0 31.015 28.891;"
	 xml:space="preserve">
<path d="M6.602,21.952c2.346-0.241,3.246-5.419,3.132-7.052c0.134-0.134,2.105,1.344,1.992-0.932
	c-1.162,1.141-1.676-0.435-1.253-1.125s0.744-0.638,0.979-1.061s0.343-2.896,1.173-2.987c1.206,1.537,2.073,1.119,1.719,0.273
	c-0.481,0.941-1.06-0.644-0.442-1.085c0.788-0.546,1.631-0.415,2.423,1.095c0.199,0.611,0.031,2.346,0.139,2.721
	c0.107,0.374,1.405,1.791,1.405,2.346c0,0.554-0.816,0.211-0.859,0.385c-0.043,0.175-0.134,0.389-0.008,0.563
	c0.143,0.197,0.539,0.251,0.539,0.417c0,0.313-0.466,0.547-0.466,0.547s0.377,0.257,0.369,0.547c-0.008,0.288-0.68,0.057-0.69,0.32
	c1.007,3.229-2.625,1.002-3.807,1.606c-1.183,0.605-2.586,3.486-1.173,6.185c1.414,2.698,11.566,5.719,15.679,3.277
	c4.112-2.442,3.68-5.221,3.382-7.614c-0.298-2.394-2.9-3.534-4.459-2.65c-1.221,0.61-0.851,2.297,0.145,2.586
	c-0.016-2.168,3.775,0.16,1.35,1.703c-2.426,1.542-4.739-1.703-5.285-3.133c-0.546-1.43-0.402-2.169-0.578-3.983
	c-0.176-1.815-0.98-4.531-0.98-4.531s-0.878-7.865-9.044-9.975S-0.027,5.192,0,7.832c0.011,1.062,0.138,2.457,0.288,3.789
	c0.082,0.727-0.303,1.435-0.224,2.058c0.136,1.074,0.643,0.884,0.723,2.137c0.011,0.632,0.867,0.835,1.028,1.108
	c0.161,0.273-0.118,0.787,0.128,1.173c0.248,0.387,0.911,0.332,1.189,0.595S4.257,22.192,6.602,21.952z"/>
<g>
</g>
<g>
</g>
<g>
</g>
<g>
</g>
<g>
</g>
<g>
</g>
<g>
</g>
<g>
</g>
<g>
</g>
<g>
</g>
<g>
</g>
<g>
</g>
<g>
</g>
<g>
</g>
<g>
</g>
</svg>
