<?xml version="1.0" encoding="iso-8859-1"?>
<!-- Generator: Adobe Illustrator 16.0.0, SVG Export Plug-In . SVG Version: 6.00 Build 0)  -->
<!DOCTYPE svg PUBLIC "-//W3C//DTD SVG 1.1//EN" "http://www.w3.org/Graphics/SVG/1.1/DTD/svg11.dtd">
<svg version="1.1" id="Layer_1" xmlns="http://www.w3.org/2000/svg" xmlns:xlink="http://www.w3.org/1999/xlink" x="0px" y="0px"
	 width="23.408px" height="31.507px" viewBox="0 0 23.408 31.507" style="enable-background:new 0 0 23.408 31.507;"
	 xml:space="preserve">
<g>
	<path d="M2.333,2.091c0.004,0.001,0.013,0,0.027-0.003C2.337,2.088,2.327,2.09,2.333,2.091z"/>
	<path d="M22.311,12.737c-0.004-0.26-0.032-0.904-0.335-0.898c-0.305,0.004-1.437-0.162-1.437-0.162l-0.094-0.496
		c0,0,0.474,0.276,0.859,0.228c0.385-0.049,0.563-0.577,0.872-0.482c0.309,0.094,0.568,0.496,0.914,0.349
		c0.345-0.147,0.389-0.389,0.228-0.537s-0.553-0.055-0.725-0.027c-0.171,0.029-0.206-0.451-0.417-0.496
		c-0.209-0.045-0.577,0.707-0.805,0.712c-0.228,0.004-0.363-0.381-0.604-0.403c-0.242-0.022-0.779,0.577-0.819,0.242
		c-0.041-0.336,0.421-0.779,0.421-0.779s0.693,0.381,1.243,0.202c0.55-0.181,0.291-0.824,0.725-0.874
		c0.435-0.048-0.219,0.534-0.08,0.698c0.139,0.166,0.523,0.337,0.685,0.081s0.125-1.176-0.255-1.49
		c-0.158-0.13-0.384-0.085-0.602,0.008c0.013-0.01,0.026-0.017,0.039-0.035c0.165-0.25,0.175-0.732-0.094-0.939
		c-0.143-0.109-0.538,0.112-0.875,0.342c-0.163-0.249-0.919-0.674-0.938-0.812c-0.022-0.175,0.269-0.244,0.269-0.244l0.349,0.15
		c0,0,0.353-0.537,0.188-0.698c-0.166-0.162-1.267,0.752-1.396,0.548c-0.13-0.206-0.859-0.427-0.859-0.427s0.864-0.568,1.222-0.604
		c0.358-0.036-0.358,0.484,0.04,0.537c0.399,0.053,0.748-0.877,0.524-1.142c-0.131-0.154-0.659,0.076-1.072,0.293
		c0.275-0.186,0.529-0.682,0.347-0.829c-0.215-0.176-1.36-0.165-1.262,0.295c0.099,0.461-0.282,0.993-0.282,0.993l-0.846-0.621
		c0,0-0.152-0.527,0.107-0.601c0.26-0.072,0.868,0.395,0.913,0.161c0.044-0.233,0.098-0.482,0.282-0.591
		c0.184-0.107,0.46,0.162,0.59,0.014c0.13-0.148-0.309-0.747-0.671-0.766s-0.57,0.362-0.752,0.604
		c-0.181,0.242-1.168,0.349-1.168,0.349s0.994-0.559,0.994-0.953c0-0.394-0.591-0.805-0.846-0.805
		c-0.255-0.001-0.64-0.126-0.537,0.309c0.104,0.434,0.726,0.188,0.779,0.188c0.053,0-0.349,0.524-0.349,0.524
		s-0.157-0.483-0.497-0.269c-0.34,0.214-0.215,0.501-0.39,0.429c-0.667-0.894,0.192-0.662,0-1.369s-0.309-0.384-0.819-0.174
		c-0.51,0.209-0.698,0.979-0.698,0.979s-0.206-0.886,0.027-1.101c0.233-0.216,0.68-0.447,0.671-0.686
		c-0.009-0.237-0.797-1.158-1.182-0.818c-0.176,0.155-0.05,0.253,0.137,0.313c-0.187-0.005-0.342,0.037-0.298,0.211
		c0.099,0.397,0.564,0.246,0.47,0.712c-0.094,0.465-1.168,0.376-1.168,0.376s0.313-0.716,0.269-1.142
		c-0.045-0.425-0.654-1.222-0.886-1.262c-0.233-0.041-0.305-0.156-0.282,0.202c0.022,0.356,0.622,0.483,0.658,0.831
		c0.036,0.35-0.846,1.208-0.846,1.208s-0.354-0.822-0.174-1.1c0.179-0.278-0.501-0.331-0.698,0c-0.197,0.33,0.075,0.751,0.075,0.751
		l-0.612,0.31c0,0-0.214-0.712,0.242-1.008c0.077-0.319,0.027-0.276-0.51-0.188s-0.255,1.195-0.255,1.195S9.633,1.607,9.57,1.501
		C9.507,1.394,9.964,1.094,9.946,0.829C9.928,0.565,9.302,0.271,8.953,0.346C8.604,0.422,8.452,0.622,8.59,0.829
		c0.139,0.208,0.837-0.165,0.886,0.067S9.194,1.237,9.221,1.515c0.027,0.276,0.497,0.725,0.497,0.725L8.697,2.548
		c0,0,0.192-0.596,0.081-0.899C8.666,1.344,8.407,1.18,8.268,1.004C8.129,0.829,9.015,0.163,8.67,0.051
		C8.326-0.063,7.672,0.503,7.637,0.91C7.601,1.316,8.01,1.471,8.268,1.621c0.257,0.151,0,0.792,0,0.792L7.194,2.614
		c0,0,0.64-0.536,0.631-0.926s-0.579-0.218-0.926-0.35c-0.347-0.13,0.434-0.353,0.362-0.685c-0.072-0.331-1.49,0-1.49,0l0.994,0.175
		c0,0-0.362,0.3-0.376,0.551C6.375,1.63,6.957,1.685,6.979,1.93C7.001,2.177,6.684,2.48,6.684,2.48s-0.837-0.939-1.41-0.698
		c-0.573,0.242,0.483,0.35,0.738,0.645c0.255,0.296-0.577,0.081-0.416,0.43s0.671,0.686,0.671,0.686S5.256,3.617,5.019,3.475
		C4.782,3.33,5.131,2.687,4.938,2.508C4.746,2.328,4.057,2.65,3.797,2.494c-0.26-0.157,0.438-0.309,0.134-0.591
		C3.647,1.64,2.549,2.043,2.36,2.088c0.162-0.007,0.954,0.003,0.954,0.003S2.911,2.598,3.059,2.803s1.164-0.058,1.316-0.094
		C4.526,2.673,4.379,3.564,4.643,3.77c0.264,0.205,0.899,0.027,0.899,0.027s0.269,0.716,0,0.912C5.274,4.906,4.831,4.4,4.831,4.4
		S4.415,3.546,4.079,3.407C3.743,3.269,2.991,3.688,2.991,3.688S3.09,3.116,2.777,2.816S1.743,2.964,1.743,2.964
		S1.568,2.222,1.219,2.091C0.87,1.961,0.159,2.789,0.159,2.789s0.676-0.388,0.913-0.376C1.309,2.426,1.318,3.015,1.434,3.3
		c0.116,0.284,0.725-0.184,0.94,0c0.215,0.183-0.322,0.497-0.041,0.725c0.282,0.228,0.954,0.135,0.954,0.135L3.247,5.005
		l-0.43,0.389c0,0-0.891-0.862-1.289-0.845S0.405,5.103,0.239,5.394C0.074,5.685-0.168,6.553,0.172,6.522
		c0.34-0.032,0.161-0.686,0.336-0.793c0.174-0.107,0.255,0.537,0.591,0.403c0.335-0.135-0.032-0.868,0.175-0.98
		c0.206-0.111,1.034,0.726,1.034,0.726l0.026,0.966c0,0-0.926-0.2-1.499,0.078C0.262,7.198,0.119,7.807,0.092,8.361
		C0.065,8.915,0.96,8.54,1.179,8.294S0.924,7.573,1.246,7.462C1.568,7.35,1.389,8.146,1.77,8.065c0.38-0.08,0.103-0.581,0.282-0.604
		c0.179-0.023,0.537,1.074,0.537,1.074S2.195,8.164,1.823,8.307c-0.371,0.144-0.59,0.578-0.59,0.578S0.824,8.53,0.656,8.603
		C0.487,8.676-0.222,9.507,0.159,9.677s0.274-0.592,0.55-0.685s0.34,0.104,0.618,0.188s0.484-0.578,0.484-0.578l0.116,0.913
		c0,0-0.247-0.395-0.563-0.21s-1.55,1.113-1.335,1.437C0.317,11.175,0.4,10.818,0.4,10.818s0.595-0.882,0.846-1.021
		s0.358,0.496,0.681,0.47c0.063-0.005,0.143-0.045,0.227-0.097L1.77,10.912c0,0-0.273-0.546-0.537-0.323
		c-0.264,0.225,0.067,0.869-0.202,1.008c-0.268,0.139-0.375-0.766-0.725-0.537c-0.349,0.228-0.081,1.061,0.59,1.074
		c0.671,0.013,1.03-0.43,1.03-0.43h0.796c0,0-1.128,0.257-1.141,0.537c-0.014,0.279-0.497,0.847-1.021,0.939
		c-0.523,0.094-0.255,1.45-0.255,1.45s0.259-1.15,0.618-1.182c0.358-0.032,0.747-0.03,0.846-0.457
		c0.099-0.425,0.758-0.604,0.758-0.604l0.302,0.416c0,0-1.06,0.188-1.208,0.51c-0.147,0.322,0.162,0.564,0.376,0.807
		c0.214,0.241-0.483,0.38-0.255,0.778c0.228,0.398,0.899-0.201,0.859-0.47c-0.041-0.27-0.676-0.697-0.591-0.994
		c0.085-0.296,0.345,0.206,0.578,0.081c0.104-0.057,0.286-0.163,0.454-0.263c-0.042,1.073,0.182,2.051,0.364,2.519
		c0.01,0.037,0.019,0.077,0.027,0.116c-0.211,0.042-0.542,0.043-0.807-0.331c-0.112,0.538,0.514,0.619,0.854,0.624
		c0.037,0.358-0.008,0.747-0.252,1.114c-0.512,0.769-1.084,1.121-1.269,1.637c-0.263,0.719,1.119,0.845,1.119,0.845l0.003,0.273
		c0,0-0.443,0.43-0.349,0.765c0.125,0.448,1.017,0.289,1.017,0.289s-0.855,0.315-0.815,0.731s0.397,0.598,0.397,0.598
		s-0.828,1.627,0.39,1.985c1.217,0.357,3.688-1.128,4.01,0.608c0.311,1.197,1.698,4.139,1.217,4.689s-1.217,1.396-1.217,1.396
		l12.638,0.394c0,0-3.902-5.049-4.296-5.621c-0.297-0.434-1.108-2.074-0.867-3.53c0.457,0.309,1.504-0.06,1.56-0.341
		c0.072-0.362-0.376,0.137-0.658,0c-0.282-0.136-0.161-0.685-0.161-0.685l1.047,0.309l0.121-0.255l-0.362-0.188l0.349-0.752
		c0,0,0.219-0.233,0.47-0.175c0.25,0.059-0.179,0.461,0.229,0.577c0.407,0.116,0.397-0.922,0.684-1.007
		c0.287-0.085,0.264,0.138,0.51,0.269c0.247,0.131,0.796-0.397,0.766-0.577c-0.031-0.179-0.184-0.215-0.376-0.317
		c-0.192-0.103-0.238,0.442-0.403,0.317c-0.166-0.125-0.094-0.082-0.295-0.317s0.416-0.797,0.416-0.797s0.524,0.281,0.604,0.281
		c0.081,0,0.054-0.657,0.054-0.657l0.121,0.43c0,0,0.895-0.301,0.833-0.604c-0.063-0.304-1.034-0.416-1.034-0.416l0.349-0.241
		l-0.094-1.074c0,0,0.823,0.21,0.833,0.482c0.009,0.273-0.564,0.336-0.397,0.592c0.167,0.255,0.012,0.263,0.599,0
		c0.598,0,0.434-0.632,0.214-0.939c-0.219-0.31-0.98-0.354-1.061-0.538s0.188-0.818,0.188-0.818s0.645,0.035,0.698,0.309
		c0.054,0.272-0.662,0.12-0.563,0.51s0.685-0.007,0.967-0.16c0.282-0.155-0.188-0.999-0.041-1.129
		c0.147-0.129,0.739-0.011,0.886,0.014c0.147,0.024-0.372,0.027-0.014,0.523c0.358,0.497,0.823-0.39,0.712-0.711
		c-0.112-0.323-1.464-0.336-1.464-0.336l-0.953-1.383c0,0,1.204-0.25,1.249,0.04c0.044,0.291-0.045,1.23,0.375,1.195
		c0.421-0.036,0.152-0.591,0.457-0.672c0.305-0.08,0.197,0.438,0.457,0.255c0.259-0.183,0.42-0.37,0.242-0.697
		S22.315,12.998,22.311,12.737z M21.707,8.228c0,0,0.176,0.412,0.33,0.403c-0.29,0.133-0.553,0.336-0.598,0.32
		C21.357,8.926,21.707,8.228,21.707,8.228z M20.886,8.169c-0.166,0.124-0.28,0.219-0.28,0.219l-0.443-0.43
		C20.163,7.958,20.556,8.157,20.886,8.169z M19.183,5.206c0.43-0.112-0.171,0.503,0.147,0.442c0.023-0.004,0.046-0.018,0.07-0.027
		c-0.252,0.136-0.445,0.257-0.445,0.257S18.753,5.318,19.183,5.206z"/>
</g>
<g>
</g>
<g>
</g>
<g>
</g>
<g>
</g>
<g>
</g>
<g>
</g>
<g>
</g>
<g>
</g>
<g>
</g>
<g>
</g>
<g>
</g>
<g>
</g>
<g>
</g>
<g>
</g>
<g>
</g>
</svg>
