<?xml version="1.0" encoding="iso-8859-1"?>
<!-- Generator: Adobe Illustrator 16.0.0, SVG Export Plug-In . SVG Version: 6.00 Build 0)  -->
<!DOCTYPE svg PUBLIC "-//W3C//DTD SVG 1.1//EN" "http://www.w3.org/Graphics/SVG/1.1/DTD/svg11.dtd">
<svg version="1.1" id="Layer_1" xmlns="http://www.w3.org/2000/svg" xmlns:xlink="http://www.w3.org/1999/xlink" x="0px" y="0px"
	 width="26.32px" height="31.519px" viewBox="0 0 26.32 31.519" style="enable-background:new 0 0 26.32 31.519;"
	 xml:space="preserve">
<g>
	<path d="M17.653,3.553c0.174,0.067,0.343,0.145,0.507,0.229c0.05,0.025,0.098,0.054,0.147,0.081
		c0.113,0.062,0.226,0.125,0.335,0.194c0.053,0.032,0.104,0.066,0.155,0.101c0.105,0.071,0.21,0.143,0.313,0.219
		c0.044,0.033,0.088,0.066,0.132,0.1c0.114,0.088,0.227,0.178,0.336,0.271c0.027,0.021,0.055,0.045,0.08,0.067
		c1.423,1.228,2.533,2.809,3.879,3.438c0,0,0,0,0.001,0c0.315,0.147,0.644,0.248,0.992,0.272c1.987,0.144,2.626-3.476,0.318-6.813
		c-2.309-3.338-2.725,0.102-3.837-0.853S15.735,2.683,17.653,3.553z"/>
	<path d="M20.227,10.179c1.246,0,2.351-0.601,3.046-1.525c-0.907-0.444-1.692-1.248-2.506-2.093c-0.976-1.013-1.984-2.06-3.31-2.574
		c-0.053-0.023-0.101-0.051-0.147-0.078c-0.56,0.664-0.898,1.52-0.898,2.456C16.411,8.471,18.119,10.179,20.227,10.179z"/>
	<path d="M12.454,25.894c0.3,0.034,0.598,0.066,0.896,0.096c0.12,0.012,0.238,0.022,0.357,0.033c0.309,0.028,0.615,0.053,0.92,0.075
		c0.085,0.007,0.171,0.014,0.255,0.019c0.379,0.025,0.752,0.046,1.118,0.061c0.092,0.003,0.18,0.004,0.271,0.007
		c0.276,0.009,0.549,0.015,0.816,0.017c0.059,0,0.121,0.003,0.18,0.003c0.08,0,0.156-0.003,0.235-0.004
		c0.121-0.001,0.242-0.003,0.36-0.006c0.154-0.003,0.305-0.009,0.454-0.015c0.116-0.005,0.231-0.011,0.344-0.018
		c0.145-0.009,0.284-0.02,0.423-0.031c0.108-0.01,0.216-0.019,0.32-0.029c0.135-0.015,0.262-0.031,0.39-0.049
		c0.099-0.014,0.198-0.026,0.292-0.042c0.124-0.021,0.24-0.045,0.356-0.069c0.085-0.017,0.174-0.033,0.255-0.053
		c0.114-0.028,0.219-0.061,0.323-0.093c0.071-0.021,0.146-0.04,0.211-0.063c0.109-0.038,0.205-0.082,0.302-0.127
		c0.049-0.021,0.104-0.041,0.148-0.064c0.136-0.069,0.256-0.145,0.359-0.227c0.062-0.05,0.121-0.117,0.178-0.191
		c0.018-0.023,0.034-0.05,0.051-0.074c0.039-0.06,0.078-0.124,0.115-0.195c0.017-0.031,0.033-0.063,0.049-0.096
		c0.041-0.086,0.08-0.178,0.117-0.277c0.009-0.023,0.018-0.044,0.026-0.068c0.046-0.126,0.088-0.263,0.128-0.408
		c0.01-0.035,0.019-0.073,0.028-0.109c0.03-0.116,0.06-0.236,0.087-0.361c0.012-0.05,0.022-0.1,0.032-0.15
		c0.027-0.129,0.052-0.263,0.076-0.4c0.008-0.043,0.015-0.084,0.022-0.127c0.03-0.186,0.06-0.377,0.086-0.575
		c0.001-0.011,0.002-0.022,0.004-0.033c0.024-0.188,0.047-0.38,0.067-0.576c0.006-0.052,0.011-0.104,0.017-0.155
		c0.017-0.169,0.033-0.34,0.047-0.515c0.004-0.047,0.008-0.094,0.012-0.142c0.036-0.45,0.064-0.914,0.085-1.388
		c0.002-0.027,0.003-0.057,0.004-0.085c0.01-0.212,0.017-0.426,0.023-0.64c0.002-0.036,0.002-0.073,0.004-0.109
		c0.021-0.733,0.026-1.471,0.021-2.187c0-0.023,0-0.047,0-0.07c-0.002-0.227-0.006-0.45-0.01-0.67
		c-0.001-0.008-0.001-0.016-0.001-0.022l0,0c-0.041-2.091-0.179-3.87-0.328-4.515c-1.256-0.904-3.833-0.397-4.781-0.398
		c-0.321,0.176-0.633,1.645-1.113,3.311c-0.003,0.012-0.007,0.023-0.01,0.034c-0.032,0.11-0.065,0.222-0.099,0.334
		c-0.009,0.028-0.018,0.057-0.026,0.085c-0.03,0.101-0.062,0.201-0.093,0.303c-0.013,0.039-0.025,0.078-0.038,0.118
		c-0.029,0.093-0.06,0.187-0.091,0.279c-0.016,0.047-0.032,0.093-0.048,0.139c-0.029,0.088-0.06,0.175-0.091,0.261
		c-0.018,0.053-0.037,0.104-0.057,0.155c-0.029,0.082-0.06,0.163-0.091,0.244c-0.021,0.056-0.044,0.11-0.066,0.165
		c-0.03,0.075-0.06,0.152-0.091,0.226c-0.026,0.063-0.055,0.123-0.081,0.185c-0.044,0.1-0.089,0.197-0.135,0.294
		c-0.042,0.088-0.084,0.176-0.127,0.261c-0.022,0.043-0.046,0.084-0.069,0.127c-0.039,0.075-0.08,0.15-0.121,0.223
		c-0.026,0.044-0.053,0.086-0.08,0.13c-0.04,0.066-0.081,0.133-0.123,0.196c-0.028,0.043-0.058,0.083-0.086,0.124
		c-0.043,0.061-0.086,0.121-0.13,0.178c-0.03,0.039-0.061,0.076-0.091,0.113c-0.045,0.054-0.09,0.107-0.137,0.158
		c-0.032,0.035-0.065,0.069-0.099,0.103c-0.047,0.047-0.094,0.093-0.142,0.135c-0.453,0.404-0.974,0.63-1.582,0.574
		c-3.448-0.483-7.416,3.469-5.879,5.343c0.007,0.009,0.014,0.017,0.021,0.025c0.042,0.048,0.086,0.096,0.136,0.142
		c0.01,0.01,0.021,0.019,0.032,0.027c0.09,0.08,0.192,0.154,0.308,0.224c0.023,0.014,0.044,0.029,0.068,0.042
		c0.044,0.024,0.093,0.047,0.141,0.07c0.051,0.023,0.103,0.048,0.157,0.071c0.046,0.019,0.093,0.036,0.142,0.053
		c0.069,0.025,0.143,0.049,0.218,0.07c0.043,0.013,0.084,0.025,0.13,0.037c0.124,0.032,0.255,0.063,0.395,0.087
		c0.995,0.172,2.04,0.325,3.088,0.45v0.001C12.311,25.879,12.382,25.885,12.454,25.894z"/>
	<path d="M23.445,26.601l0.011,0.002l2.422-10.941l-2.114-0.468c0.113,3.983-0.104,9.435-1.426,10.492
		c-0.824,0.659-2.53,0.994-5.071,0.994c-1.47,0-3.212-0.117-5.027-0.331v0.322h4.122l-0.522,2.94h-3.72l-1.271,1.907h14.306
		l-1.271-1.907h-3.957l-0.523-2.94h4.044V26.601z"/>
	<path d="M8.901,4.788c0-2.271-1.842-4.112-4.113-4.112c-2.271,0-4.112,1.841-4.112,4.112s1.842,4.113,4.112,4.113
		C7.06,8.901,8.901,7.06,8.901,4.788z M7.09,4.56H8.48v0.457H7.09V4.56z M4.541,0.979h0.457v1.391H4.541V0.979z M2.493,5.017H1.103
		V4.56h1.391V5.017z M2.92,2.967l1.85,1.814l1.323-1.357l0.327,0.32L4.783,5.437L2.6,3.293L2.92,2.967z M4.477,7.033h0.457v1.392
		H4.477V7.033z"/>
	<path d="M9.577,4.788C9.577,2.148,7.429,0,4.788,0C2.148,0,0,2.148,0,4.788c0,2.641,2.148,4.789,4.788,4.789
		C7.429,9.577,9.577,7.429,9.577,4.788z M0.159,4.788c0-2.553,2.077-4.629,4.629-4.629c2.553,0,4.63,2.076,4.63,4.629
		s-2.077,4.63-4.63,4.63C2.236,9.418,0.159,7.341,0.159,4.788z"/>
	<path d="M11.839,18.093l0.041-0.025c0.258,0.291,0.843,0.561,1.821,0.662c1.404-0.243,2.3-2.642,2.897-4.679
		c-1.03,1.477-2.343,2.923-3.611,3.062l-2.936-4.664l-1.266,0.797L11.839,18.093z"/>
	<path d="M9.069,25.889c-1.088-0.189-1.707-0.597-2.057-1.041c-0.717,1.13-1.365,2.189-1.764,2.849H4.113v1.723h5.55v-1.723H9.572
		l1.083-1.558C10.126,26.062,9.597,25.979,9.069,25.889z"/>
</g>
<g>
</g>
<g>
</g>
<g>
</g>
<g>
</g>
<g>
</g>
<g>
</g>
<g>
</g>
<g>
</g>
<g>
</g>
<g>
</g>
<g>
</g>
<g>
</g>
<g>
</g>
<g>
</g>
<g>
</g>
</svg>
