<?xml version="1.0" encoding="iso-8859-1"?>
<!-- Generator: Adobe Illustrator 16.0.0, SVG Export Plug-In . SVG Version: 6.00 Build 0)  -->
<!DOCTYPE svg PUBLIC "-//W3C//DTD SVG 1.1//EN" "http://www.w3.org/Graphics/SVG/1.1/DTD/svg11.dtd">
<svg version="1.1" id="Layer_1" xmlns="http://www.w3.org/2000/svg" xmlns:xlink="http://www.w3.org/1999/xlink" x="0px" y="0px"
	 width="24.983px" height="30.98px" viewBox="0 0 24.983 30.98" style="enable-background:new 0 0 24.983 30.98;"
	 xml:space="preserve">
<path d="M22.897,23.562c0,0,1.091-0.337,1.725,0.374c0.104-0.956-1.363-0.851-1.933-1.205c-0.569-0.355-1.081-2.723-1.081-2.723
	s1.943,1.097,1.351,2.286c0.842-0.51,0.873-1.252,0.79-2.576c-0.083-1.325-1.366-1.076-1.413-1.601
	c-0.033-0.373,0.32-0.424,0.531-0.706c-0.001,0.064,0.005,0.128,0.03,0.187c0.218,0.526,1.297,1.426,0.977,2.12
	c0.992-0.686-0.556-1.855-0.582-2.328s1.055-0.977,1.081-1.745c0.026-0.77-2.13-1.195-2.182-1.725
	c-0.052-0.53,0.956-0.732,0.977-1.269c0.009-0.227-0.304-0.868-0.666-1.531c0.289,0.238,0.583,0.467,0.521,0.701
	c0.577-0.275-0.358-0.895-0.312-1.164c0.046-0.271,0.779-0.463,0.457-1.247c-0.322-0.785-2.514-2.016-2.514-2.016
	s0.67-0.192,1.413-0.125c0.743,0.068,1.484,0.555,0.894,1.372c0.826,0.255,0.686-1.533,0.208-1.809
	c-0.478-0.274-1.33-0.52-2.307-0.291c0.915-4.063-3.886-4.343-3.886-4.343s0.265-0.904-0.125-1.226
	c-0.39-0.322-3.012-0.655-4.302-0.936c-1.289-0.28-4.707,1.07-5.922,1.579S4.117,4.396,3.259,4.381
	C2.402,4.365,1.374,4.662,1.088,6.355c0.193,0.604,0.41,1.104,0.599,1.493C1.553,8.205,1.46,8.572,1.4,8.94
	C0.889,9.035,0.267,9.008,0.018,8.412C-0.132,9.35,0.714,9.451,1.34,9.404c-0.128,1.394,0.163,2.712,0.396,3.311
	c0.012,0.044,0.021,0.09,0.031,0.135c-0.245,0.05-0.629,0.05-0.937-0.385c-0.13,0.626,0.596,0.719,0.992,0.725
	c0.042,0.417-0.01,0.867-0.293,1.293c-0.595,0.893-1.259,1.302-1.473,1.9c-0.306,0.836,1.299,0.981,1.299,0.981l0.004,0.316
	c0,0-0.514,0.499-0.405,0.889c0.146,0.52,1.18,0.335,1.18,0.335s-0.993,0.366-0.946,0.85s0.462,0.693,0.462,0.693
	s-0.961,1.889,0.452,2.305c1.414,0.415,4.281-1.31,4.655,0.706c0.361,1.391,1.971,4.806,1.413,5.445
	c-0.558,0.639-1.413,1.62-1.413,1.62l14.671,0.457c0,0-2.609-3.376-4.067-5.293c1.356,1.391,1.775-0.464,1.775-0.464
	s-0.416,1.71,0.083,1.995c0.499,0.286,2.229,0.323,1.849,1.933c0.244,0.083,0.566,0.229,0.541-0.623
	c-0.013-0.426-0.296-1.066-0.563-1.65c2.853-0.271,1.811-2.589,1.811-2.589s3.159,0.432,0.706,2.265
	C27.11,24.881,22.897,23.562,22.897,23.562z M23.583,15.769c0,0.318-0.351,0.746-0.563,1.15c0.01-0.795-1.079-1.752-1.079-1.752
	S23.583,15.26,23.583,15.769z M22.461,9.576c0.204,0.355-0.27,0.294-0.426,0.722c-0.331-0.568-0.607-1.013-0.607-1.013
	S22.243,9.197,22.461,9.576z M21.016,26.813c-0.256-0.558-0.488-1.056-0.44-1.25c0.099-0.405,0.853-1.231,0.853-1.231
	S23.774,26.048,21.016,26.813z"/>
<path d="M6.771,22.855c0,0-0.758,1.622-1.579,1.933c0.487,0.308,1.85-1.351,1.85-1.351S6.574,24.627,5.4,25.266
	c-1.174,0.64-0.306,1.735,0.25,1.413c-0.473-0.119-0.765-0.847,0.187-1.371s2.037-1.122,2.037-1.122v0.582
	c0,0-2.167,1.979-0.333,2.016c-0.621-0.17-0.914-0.624-0.042-1.289c0.873-0.665,1.018-1.039,1.018-1.039L6.771,22.855z"/>
<g>
</g>
<g>
</g>
<g>
</g>
<g>
</g>
<g>
</g>
<g>
</g>
<g>
</g>
<g>
</g>
<g>
</g>
<g>
</g>
<g>
</g>
<g>
</g>
<g>
</g>
<g>
</g>
<g>
</g>
</svg>
