<?xml version="1.0" encoding="iso-8859-1"?>
<!-- Generator: Adobe Illustrator 16.0.0, SVG Export Plug-In . SVG Version: 6.00 Build 0)  -->
<!DOCTYPE svg PUBLIC "-//W3C//DTD SVG 1.1//EN" "http://www.w3.org/Graphics/SVG/1.1/DTD/svg11.dtd">
<svg version="1.1" id="Layer_1" xmlns="http://www.w3.org/2000/svg" xmlns:xlink="http://www.w3.org/1999/xlink" x="0px" y="0px"
	 width="30.191px" height="30.311px" viewBox="0 0 30.191 30.311" style="enable-background:new 0 0 30.191 30.311;"
	 xml:space="preserve">
<g>
	<path d="M3.187,16.4c0,0,0.007,0.004,0.015,0.009c-0.005,0-0.009,0-0.014,0c-1.551,0.063-2.768,1.243-2.711,2.628
		c0.057,1.386,1.366,2.461,2.917,2.397c1.083-0.045,2.001-0.635,2.439-1.457c0.048-0.071,1.788-2.565,4.635-3.204
		c0.07-0.006,0.391-0.07,0.881-0.174l-0.747-0.758L3.187,16.4z M3.36,20.621c-1.103,0.045-2.032-0.681-2.07-1.617
		c-0.039-0.937,0.828-1.734,1.93-1.78c1.103-0.046,2.031,0.68,2.069,1.616S4.463,20.575,3.36,20.621z"/>
	<path d="M10.146,14.551c-2.822-0.394-4.714-2.597-4.853-2.762c-0.493-0.813-1.473-1.349-2.58-1.303
		c-1.552,0.063-2.768,1.242-2.711,2.628c0.057,1.386,1.366,2.46,2.917,2.396c0.05-0.001,0.099-0.008,0.148-0.013l7.646-0.032
		l1.035,1.048l10.358,0.072l-0.448-0.278C21.657,16.308,10.593,14.551,10.146,14.551z M2.885,14.697
		c-1.102,0.045-2.03-0.68-2.069-1.616s0.827-1.736,1.929-1.781c1.103-0.045,2.031,0.681,2.07,1.617
		C4.854,13.853,3.988,14.651,2.885,14.697z M12.117,16.051c-0.237,0.01-0.438-0.175-0.447-0.412
		c-0.009-0.236,0.175-0.437,0.412-0.445c0.237-0.011,0.437,0.174,0.447,0.41C12.538,15.841,12.354,16.041,12.117,16.051z"/>
	<path d="M30.191,29.597c-1.952-1.582-2.304-8.551-2.304-8.551s0.156,0.508,0.683,0.8c-0.683-2.909-1.015-5.231-1.015-5.231
		s0.546,0.82,1.132,0.625c-0.546-0.527-0.996-1.875-0.996-1.875s0.717,0.659,1.054,0.586c-0.439-0.645-1.093-3.24-1.093-3.24
		s1.137,1.059,1.664,1c-0.483-0.322-1.332-2.309-1.332-2.309s0.952,0.786,1.317,0.508c-0.6-0.22-1.024-0.957-1.024-0.957
		s1.303,0.211,1.698-0.098c-0.996-0.102-1.171-0.78-1.171-0.78s0.981-0.068,1.21-0.488c-2.147,0.522-1.782-3.065-2.206-4.31
		s-2.44-6.818-6.149-4.865c-2.179-1.047-4.382,1.098-5.095,3.377c-0.884,2.826-0.221,6.17-3.182,7.574
		c0.576,0.156,1.474-0.469,1.474-0.469s0.159,0.361-0.104,0.498c0.469,0.225,1.52-0.791,1.52-0.791s-0.527,1.016-0.878,1.191
		c0.04,0.303,0.645-0.137,0.645-0.137s-0.479,1.211-0.996,1.582c0.01,0.37,0.8-0.225,1.288-0.527
		c-0.192,0.202-0.85,1.244-1.812,1.844l-1.336,0.102c0.725,0.11,1.535,0.235,2.36,0.363c-0.011,0.023-0.019,0.047-0.032,0.072
		c0.036-0.016,0.065-0.043,0.1-0.063c0.56,0.087,1.124,0.175,1.675,0.262c2.401-0.538,4.511-1.016,4.511-1.016l0.459-0.31
		l-3.923,0.299c-0.109-0.519-0.217-1.048-0.324-1.612c-0.273-0.695,1.581-8.668,2.226-8.766c1.425,2.069,3.572,4.998,4.587,5.837
		c2.694,2.304-0.61,4.23-1.289,4.725c-0.703,0.819,1.093,6.149,2.108,6.579c0.156,0.326-0.451,3.471,0.057,4.388
		s1.728,2.072,1.036,4.65c1.367,1.776,0.352-6.638,0.352-6.638S28.454,29.771,30.191,29.597z M15.881,13.979
		c0,0-0.031,0.198-0.12,0.48l-0.732,0.056C15.491,14.349,15.881,13.979,15.881,13.979z M16.297,14.418
		c0.032-0.041,0.053-0.069,0.053-0.069s0,0.027,0.001,0.065L16.297,14.418z"/>
</g>
<g>
</g>
<g>
</g>
<g>
</g>
<g>
</g>
<g>
</g>
<g>
</g>
<g>
</g>
<g>
</g>
<g>
</g>
<g>
</g>
<g>
</g>
<g>
</g>
<g>
</g>
<g>
</g>
<g>
</g>
</svg>
