<?xml version="1.0" encoding="utf-8"?>
<!-- Generator: Adobe Illustrator 16.0.4, SVG Export Plug-In . SVG Version: 6.00 Build 0)  -->
<!DOCTYPE svg PUBLIC "-//W3C//DTD SVG 1.1//EN" "http://www.w3.org/Graphics/SVG/1.1/DTD/svg11.dtd">
<svg version="1.1" id="Layer_1" xmlns="http://www.w3.org/2000/svg" xmlns:xlink="http://www.w3.org/1999/xlink" x="0px" y="0px"
	 width="31.961px" height="27.157px" viewBox="0 0 31.961 27.157" enable-background="new 0 0 31.961 27.157" xml:space="preserve">
<path d="M4.423,10.475c-0.794,0.33,0.441,4.189,0.441,4.189s-1.808-1.961-2.161-0.506c-0.352,1.455,1.345,2.623,1.345,2.623
	s0.772,3.55-0.507,3.638c-1.036-3.77-4.365-3.924-3.351-9.282C1.204,5.78,6.187,6.023,11.522,7.125
	c2.317,0.722,13.935,4.541,16.095,3.263c0.484,1.08-4.542,2.646-4.542,2.646s7.095,0.814,8.862-1.852
	c0.596,3.857-10.893,5.335-10.893,5.335s6.551,0.044,8.422-0.267C17.827,22.646,7.2,20.22,7.2,20.22l-0.265-0.75
	c0,0,2.447,0.179,3.241-0.265c0.793-0.438,0.396-2.38,0.44-3.062c0.044-0.685,0.552-1.062,0.42-1.679
	c-0.057-0.265-0.927-0.459-1.257-1.08c-0.439-0.828-0.191-2.116-0.506-2.267c-0.552-0.265-3,0.134-3.441,0.068
	C5.392,11.121,5.217,10.145,4.423,10.475z"/>
</svg>
