<?xml version="1.0" encoding="iso-8859-1"?>
<!-- Generator: Adobe Illustrator 16.0.0, SVG Export Plug-In . SVG Version: 6.00 Build 0)  -->
<!DOCTYPE svg PUBLIC "-//W3C//DTD SVG 1.1//EN" "http://www.w3.org/Graphics/SVG/1.1/DTD/svg11.dtd">
<svg version="1.1" id="Layer_1" xmlns="http://www.w3.org/2000/svg" xmlns:xlink="http://www.w3.org/1999/xlink" x="0px" y="0px"
	 width="24.577px" height="31.835px" viewBox="0 0 24.577 31.835" style="enable-background:new 0 0 24.577 31.835;"
	 xml:space="preserve">
<path d="M24.577,9.854c-0.058-0.908-2.151,0.802-2.151,0.802s1.467-2.082,1.98-1.976c-0.249-0.746-2.263,1.202-2.263,1.202
	l0.143-2.234l-0.258,0.716L21.627,7.22l-0.753,0.918c0.419-0.521,1.479-1.916,1.154-2.293c-0.144,0.543-1.089,1.23-1.089,1.23
	s0.603-1.774-0.257-1.805c0.296,0.535-0.345,1.046-0.345,1.046s-0.829-0.453-0.659-0.931c-0.534,0.114-0.601,1.202-0.601,1.202
	S18.849,5.614,18.104,5.3c-0.744-0.315,0.688-1.433,0.258-2.12c-0.314,0.517-1.375,1.204-1.375,1.204s0.23-1.892-0.802-2.407
	c0.401,0.975-0.286,1.747-0.286,1.747s-1.721-3.055-1.117-3.466c-0.726,0.159-0.456,1.399-0.145,2.325
	c-0.328-0.922-0.678-2.175-0.285-2.468c-1.022,0.257,0,3.18,0,3.18s-2.242-1.818-2.406-2.894c-0.783,0.429,1.461,2.578,1.461,2.578
	s-2.33-1.154-2.692-1.977c-0.268,0.134,0.114,0.601,0.114,0.601s-0.572,0.125-0.945-0.515c-0.21,0.772,1.575,2.406,1.575,2.406
	S8.479,1.175,8.594,0C7.867,0.495,8.822,2.664,8.822,2.664s-2.415-1.25-2.807-1.845C5.681,1.59,8.364,3.122,8.364,3.122
	s-1.813-0.357-2.063-0.63C6.28,2.624,6.793,2.945,7.379,3.266C5.986,2.603,4.144,1.833,3.667,2.148
	C4.622,2.521,5.93,3.953,5.93,3.953S2.474,3.286,2.033,4.125c0.831-0.133,4.784,0.573,4.784,0.573S0.793,4.594,0.83,5.606
	c0.984-0.345,2.809,0.352,2.809,0.352S0.02,6.847,0,8.565c1.07-1.165,2.492-1.06,2.492-1.06S0.463,8.368,0.561,8.681
	c0.385-0.182,1.092-0.182,1.092-0.182S0.812,9.224,1.146,9.625c0.392-0.754,1.605-1.261,1.605-1.261s-1.71,1.882-1.176,2.492
	c0.401-0.858,1.934-1.06,1.934-1.06S2.367,10.714,2.32,11.2c0.372-0.276,1.117-0.314,1.117-0.314s-0.964,1.127-0.687,1.747
	c0.218-0.496,0.821-0.938,1.299-1.228c-0.29,1.489,0.033,3.008,0.279,3.645c0.011,0.04,0.02,0.081,0.029,0.123
	c-0.225,0.046-0.578,0.046-0.86-0.354c-0.119,0.575,0.548,0.661,0.912,0.666c0.039,0.383-0.009,0.797-0.271,1.188
	c-0.546,0.82-1.156,1.196-1.354,1.746c-0.279,0.768,1.194,0.902,1.194,0.902l0.003,0.29c0,0-0.472,0.459-0.371,0.817
	c0.133,0.478,1.084,0.308,1.084,0.308s-0.913,0.337-0.869,0.781c0.043,0.443,0.424,0.637,0.424,0.637s-0.883,1.735,0.416,2.118
	c1.299,0.381,3.935-1.204,4.277,0.648c0.332,1.278,1.812,4.415,1.299,5.003c-0.512,0.588-1.299,1.49-1.299,1.49l13.482,0.42
	c0,0-4.163-5.386-4.583-5.997c-0.345-0.499-1.58-2.244-1.176-3.783c0.24-0.086,0.579-0.183,1.064-0.283
	c3.17-1.451,2.864-3.61,2.864-3.61s0.745,0.268,0.487,1.231c0.63-0.391,0.344-2.492,0.344-2.492s0.812-0.066,0.487,1.82
	c2.129-2.191,0.144-4.169,0.144-4.169s1.575-0.046,1.632,0.602c0.727-0.496-1.264-1.433-1.264-1.433s1.197-0.429,0.978-1.002
	c-0.294,0.636-0.978,0.201-0.978,0.201s1.656-0.315,1.665-1.232c-0.383,0.506-2.033,0.344-2.033,0.344S24.26,9.592,24.577,9.854z"/>
<g>
</g>
<g>
</g>
<g>
</g>
<g>
</g>
<g>
</g>
<g>
</g>
<g>
</g>
<g>
</g>
<g>
</g>
<g>
</g>
<g>
</g>
<g>
</g>
<g>
</g>
<g>
</g>
<g>
</g>
</svg>
