<?xml version="1.0" encoding="iso-8859-1"?>
<!-- Generator: Adobe Illustrator 16.0.0, SVG Export Plug-In . SVG Version: 6.00 Build 0)  -->
<!DOCTYPE svg PUBLIC "-//W3C//DTD SVG 1.1//EN" "http://www.w3.org/Graphics/SVG/1.1/DTD/svg11.dtd">
<svg version="1.1" id="Layer_1" xmlns="http://www.w3.org/2000/svg" xmlns:xlink="http://www.w3.org/1999/xlink" x="0px" y="0px"
	 width="24.369px" height="31.054px" viewBox="0 0 24.369 31.054" style="enable-background:new 0 0 24.369 31.054;"
	 xml:space="preserve">
<path d="M7.671,30.534l16.698,0.52c0,0-0.25-0.323-0.645-0.835c0,0,1.221-16.38-0.482-22.907c-1.368-5.243-5.941-6.695-7.689-7.063
	c-0.027-0.02-0.045-0.032-0.045-0.032c-0.113-0.017-0.22-0.025-0.332-0.039c-0.199-0.034-0.313-0.045-0.313-0.045l0.002,0.007
	C8.933-0.548,4.85,1.472,3.366,2.624c-2.655,2.206-1.906,6.363-1.41,7.641c0.013,0.05,0.024,0.102,0.036,0.153
	c-0.279,0.057-0.716,0.057-1.066-0.438c-0.147,0.712,0.679,0.817,1.129,0.824c0.049,0.474-0.011,0.987-0.333,1.472
	c-0.677,1.017-1.433,1.481-1.677,2.163c-0.347,0.951,1.479,1.116,1.479,1.116l0.004,0.361c0,0-0.585,0.567-0.461,1.011
	c0.166,0.592,1.342,0.382,1.342,0.382s-1.129,0.417-1.076,0.967s0.525,0.789,0.525,0.789s-1.094,2.149,0.515,2.623
	c1.608,0.473,4.873-1.49,5.298,0.804c0.411,1.583,2.243,5.469,1.608,6.196C8.644,29.417,7.671,30.534,7.671,30.534z"/>
<g>
</g>
<g>
</g>
<g>
</g>
<g>
</g>
<g>
</g>
<g>
</g>
<g>
</g>
<g>
</g>
<g>
</g>
<g>
</g>
<g>
</g>
<g>
</g>
<g>
</g>
<g>
</g>
<g>
</g>
</svg>
