<?xml version="1.0" encoding="iso-8859-1"?>
<!-- Generator: Adobe Illustrator 16.0.0, SVG Export Plug-In . SVG Version: 6.00 Build 0)  -->
<!DOCTYPE svg PUBLIC "-//W3C//DTD SVG 1.1//EN" "http://www.w3.org/Graphics/SVG/1.1/DTD/svg11.dtd">
<svg version="1.1" id="Layer_1" xmlns="http://www.w3.org/2000/svg" xmlns:xlink="http://www.w3.org/1999/xlink" x="0px" y="0px"
	 width="24.1px" height="29.369px" viewBox="0 0 24.1 29.369" style="enable-background:new 0 0 24.1 29.369;" xml:space="preserve"
	>
<path d="M2.236,12.38c0.292-0.438,0.346-0.903,0.302-1.332c-0.407-0.006-1.155-0.102-1.021-0.746
	c0.316,0.447,0.712,0.447,0.965,0.396c-0.011-0.046-0.021-0.093-0.032-0.139C2.218,9.964,1.501,7.876,1.722,6.689
	C1.155,6.708,1.193,6.132,1.511,5.391C0.72,4.314-0.158,2.522,0.024,0c2.247,2.825,9.822-1.497,14.06,1.852
	C18.322,5.2,18.707,23.048,24.1,24.075c-1.023,0.758-3.255,1.314-4.912,1.644c1.744,1.814,3.54,3.65,3.54,3.65L7.62,28.898
	c0,0,0.881-1.011,1.455-1.669c0.574-0.659-1.083-4.175-1.455-5.606c-0.385-2.076-3.338-0.3-4.794-0.728
	C1.37,20.467,2.36,18.522,2.36,18.522s-0.428-0.217-0.476-0.715c-0.048-0.497,0.974-0.875,0.974-0.875s-1.065,0.19-1.215-0.345
	c-0.112-0.4,0.417-0.915,0.417-0.915l-0.004-0.326c0,0-1.652-0.15-1.338-1.01C0.939,13.72,1.624,13.299,2.236,12.38z"/>
<g>
</g>
<g>
</g>
<g>
</g>
<g>
</g>
<g>
</g>
<g>
</g>
<g>
</g>
<g>
</g>
<g>
</g>
<g>
</g>
<g>
</g>
<g>
</g>
<g>
</g>
<g>
</g>
<g>
</g>
</svg>
