<?xml version="1.0" encoding="iso-8859-1"?>
<!-- Generator: Adobe Illustrator 16.0.0, SVG Export Plug-In . SVG Version: 6.00 Build 0)  -->
<!DOCTYPE svg PUBLIC "-//W3C//DTD SVG 1.1//EN" "http://www.w3.org/Graphics/SVG/1.1/DTD/svg11.dtd">
<svg version="1.1" id="Layer_1" xmlns="http://www.w3.org/2000/svg" xmlns:xlink="http://www.w3.org/1999/xlink" x="0px" y="0px"
	 width="26.907px" height="31.507px" viewBox="0 0 26.907 31.507" style="enable-background:new 0 0 26.907 31.507;"
	 xml:space="preserve">
<path d="M26.745,9.739c-0.904,1.402-1.746,0.811-1.746,0.811s2.151-1.507,1.247-2.962c-0.779,1.424-1.59,1.061-1.59,1.061
	s1.278-2.629,0.156-2.962c-0.467,1.144-2.026,0.249-2.026,0.249s0.914-0.759,1.465-0.373c0.01-0.77-2.213-0.936-2.213-0.936
	s0.29-0.665,0-0.967c-0.26,0.291-0.779,0.137-0.779,0.137s0.384-1.301-0.468-1.414c0.259,0.872-1.008,0.955-0.998,0.583
	c-0.998-2.142-2.587-1.55-2.587-1.55s-0.499-0.488,0-0.935C16.811,0.169,14.9,1.229,14.9,1.229l-1.308-0.624
	c0,0-1.332-0.861-1.841-0.529c0.717,0.54,0.499,1.808,0.499,1.808s-1.102-1.454-1.496-1.278c0.312,0.427,0,0.655,0,0.655
	s-0.696-0.936-1.465-0.904C8.52,0.388,8.136,1.385,8.073,1.385s-0.198-0.654,0-1.028c-0.77,0.01-1.029,2.609-1.029,2.609
	s-0.583-0.905,0-1.644c-1.58,0.219-0.405,1.809-0.405,1.809s-0.728-0.219-1.309,0C4.749,3.349,4.405,3.816,3.896,4.004
	C3.387,4.19,2.722,3.577,2.774,4.658c0.301-0.063,0.904,0,0.904,0s-0.561,0.966-0.624,1.06s-0.79-0.831-1.684-0.654
	S1.111,6.3,1.465,5.718c0.353-0.581,1.81,0.944,2.275,0.405c0.466-0.539,1.403-1.06,1.403-1.06S4.665,6.352,4.177,6.497
	C3.688,6.643,2.681,6.56,2.431,7.308s0.156,2.089,0.156,2.089s-3.896-0.572-1.808,1.651c-0.353-1.62,2.109-0.498,2.109-0.498
	s-1.185,0.321-1.268,0.872c-0.083,0.551,0.748,0.945,0.468,1.652c-0.281,0.707-2.026,0.375-1.87-0.395
	c-1.091,1.164,2.254,1.527,2.494,0.551c0.238-0.977-0.053-1.164,0.176-1.559c0.164-0.284,0.9-0.465,1.303-0.545
	c0.056,0.912,0.25,1.692,0.415,2.114c0.012,0.044,0.021,0.089,0.031,0.135c-0.246,0.05-0.629,0.05-0.938-0.385
	c-0.129,0.626,0.596,0.719,0.993,0.725c0.043,0.416-0.01,0.867-0.293,1.293c-0.595,0.893-1.26,1.302-1.474,1.9
	c-0.305,0.835,1.3,0.981,1.3,0.981l0.004,0.316c0,0-0.515,0.499-0.405,0.889c0.145,0.52,1.18,0.335,1.18,0.335
	s-0.993,0.366-0.946,0.85c0.046,0.483,0.461,0.693,0.461,0.693s-0.961,1.889,0.452,2.305c1.414,0.415,4.281-1.31,4.655,0.706
	c0.361,1.391,1.971,4.805,1.414,5.444c-0.559,0.64-1.414,1.621-1.414,1.621l14.671,0.457c0,0-4.531-5.86-4.987-6.525
	c-0.457-0.664-2.364-3.346-0.702-5.174c0.077-0.085,0.161-0.186,0.245-0.285c0.491,0.258,1.479,0.624,2.234-0.073
	c1.044-0.967,1.044-1.824,1.044-1.824s1.901,0.437,1.418-0.108c-0.483-0.546,1.013-2.322,1.013-2.322s0.571,0.425,0.312,1.153
	c0.924-0.146,0.281-1.684,0.281-1.684s0.259,0.26,0.81,0c-0.583-0.271-0.343-1.839-0.343-1.839S27.451,11.807,26.745,9.739z"/>
<g>
</g>
<g>
</g>
<g>
</g>
<g>
</g>
<g>
</g>
<g>
</g>
<g>
</g>
<g>
</g>
<g>
</g>
<g>
</g>
<g>
</g>
<g>
</g>
<g>
</g>
<g>
</g>
<g>
</g>
</svg>
