<?xml version="1.0" encoding="iso-8859-1"?>
<!-- Generator: Adobe Illustrator 16.0.0, SVG Export Plug-In . SVG Version: 6.00 Build 0)  -->
<!DOCTYPE svg PUBLIC "-//W3C//DTD SVG 1.1//EN" "http://www.w3.org/Graphics/SVG/1.1/DTD/svg11.dtd">
<svg version="1.1" id="Layer_1" xmlns="http://www.w3.org/2000/svg" xmlns:xlink="http://www.w3.org/1999/xlink" x="0px" y="0px"
	 width="20.698px" height="31.116px" viewBox="0 0 20.698 31.116" style="enable-background:new 0 0 20.698 31.116;"
	 xml:space="preserve">
<g>
	<path d="M10.349,0C4.642,0,0,6.979,0,15.558s4.642,15.558,10.349,15.558c5.706,0,10.349-6.979,10.349-15.558S16.055,0,10.349,0z
		 M10.349,29.44c-4.782,0-8.673-6.228-8.673-13.882S5.567,1.676,10.349,1.676c4.782,0,8.672,6.228,8.672,13.882
		S15.131,29.44,10.349,29.44z"/>
	<path d="M14.33,19.126c0,0,0.11,0.356,0.479,0.561c-0.479-2.041-0.712-3.67-0.712-3.67s0.383,0.575,0.794,0.439
		c-0.383-0.37-0.699-1.315-0.699-1.315s0.503,0.462,0.74,0.411c-0.308-0.451-0.767-2.273-0.767-2.273s0.798,0.743,1.167,0.702
		c-0.338-0.226-0.934-1.619-0.934-1.619s0.667,0.551,0.923,0.355c-0.42-0.154-0.718-0.671-0.718-0.671s0.913,0.147,1.191-0.068
		c-0.699-0.072-0.822-0.548-0.822-0.548s0.688-0.047,0.849-0.342c-1.506,0.366-1.25-2.15-1.547-3.023
		C13.977,7.19,12.563,3.281,9.961,4.65C8.433,3.917,6.887,5.42,6.387,7.02c-0.621,1.982-0.155,4.329-2.232,5.313
		c0.404,0.109,1.034-0.328,1.034-0.328s0.112,0.253-0.073,0.349c0.329,0.157,1.065-0.555,1.065-0.555s-0.369,0.712-0.616,0.835
		c0.028,0.212,0.453-0.096,0.453-0.096s-0.336,0.849-0.698,1.109c0.007,0.26,0.562-0.158,0.903-0.37
		c-0.137,0.144-0.609,0.897-1.301,1.314c0.458,0.083,0.986-0.424,0.986-0.424s-0.042,0.363-0.26,0.781
		c0.328-0.144,0.588-0.521,0.588-0.521s0.151,5.813-0.068,6.958c0.123-0.212,0.253-0.528,0.424-0.275
		c0.26,0.357-0.165,1.781-0.165,1.781s0.548-0.466,0.74-0.849c0.369,0.5-0.301,3.108-0.301,3.108s0.465-0.473,0.89-1.343
		c0.321,0.014,0.109,1.466,0.109,1.466s0.28-0.124,0.534-1.082c0.213,0.294-0.219,1.89-0.329,2.15
		c0.343-0.137,0.85-1.835,0.85-1.835s0.205,1.973,0.54,2.246c-0.185-0.489-0.739-6.094-0.623-6.258c0.534,1,0.589,3.39,0.917,3.519
		c-0.185-0.541-0.014-1.492-0.014-1.492s0.24,1.644,0.473,1.808c-0.11-0.412-0.157-1.807-0.314-2.327
		c-0.157-0.52-1.432-3.11-2.5-8.766c-0.191-0.488,1.109-6.08,1.562-6.149c1,1.452,2.506,3.506,3.218,4.095
		c1.89,1.616-0.428,2.968-0.904,3.314c-0.493,0.575,0.767,4.314,1.479,4.615c0.11,0.229-0.316,2.435,0.04,3.079
		c0.356,0.643,1.211,1.454,0.727,3.262c0.958,1.247,0.246-4.656,0.246-4.656s0.958,4.451,2.178,4.328
		C14.577,24.014,14.33,19.126,14.33,19.126z"/>
</g>
<g>
</g>
<g>
</g>
<g>
</g>
<g>
</g>
<g>
</g>
<g>
</g>
<g>
</g>
<g>
</g>
<g>
</g>
<g>
</g>
<g>
</g>
<g>
</g>
<g>
</g>
<g>
</g>
<g>
</g>
</svg>
