<?xml version="1.0" encoding="iso-8859-1"?>
<!-- Generator: Adobe Illustrator 16.0.0, SVG Export Plug-In . SVG Version: 6.00 Build 0)  -->
<!DOCTYPE svg PUBLIC "-//W3C//DTD SVG 1.1//EN" "http://www.w3.org/Graphics/SVG/1.1/DTD/svg11.dtd">
<svg version="1.1" id="Layer_1" xmlns="http://www.w3.org/2000/svg" xmlns:xlink="http://www.w3.org/1999/xlink" x="0px" y="0px"
	 width="21.41px" height="29.639px" viewBox="0 0 21.41 29.639" style="enable-background:new 0 0 21.41 29.639;"
	 xml:space="preserve">
<path d="M6.739,29.182l14.671,0.457c0,0-4.53-5.861-4.987-6.525c-0.174-0.252-0.557-0.797-0.874-1.475
	c1.402-1.146,4.734-4.162,4.668-6.921c-0.083-3.49,0.749-7.48-1.039-9.85S13.401-1.449,9.162,0.545
	C4.922,2.54,4.174,2.499,2.595,4.494c-1.579,1.995-2.992,2.618-2.328,5.984c0.407,0.021,0.852,0.021,1.202,0.017
	c0.077,0.363,0.167,0.666,0.249,0.878c0.012,0.043,0.021,0.089,0.031,0.135c-0.245,0.05-0.629,0.05-0.937-0.385
	c-0.13,0.626,0.596,0.719,0.992,0.725c0.043,0.416-0.009,0.867-0.293,1.293c-0.595,0.893-1.259,1.302-1.473,1.9
	c-0.306,0.835,1.299,0.98,1.299,0.98l0.004,0.317c0,0-0.514,0.499-0.405,0.889c0.146,0.52,1.18,0.335,1.18,0.335
	s-0.993,0.366-0.946,0.85s0.461,0.693,0.461,0.693S0.67,20.994,2.084,21.41c1.414,0.415,4.281-1.31,4.655,0.706
	c0.361,1.391,1.971,4.805,1.413,5.444S6.739,29.182,6.739,29.182z"/>
<g>
</g>
<g>
</g>
<g>
</g>
<g>
</g>
<g>
</g>
<g>
</g>
<g>
</g>
<g>
</g>
<g>
</g>
<g>
</g>
<g>
</g>
<g>
</g>
<g>
</g>
<g>
</g>
<g>
</g>
</svg>
