<?xml version="1.0" encoding="iso-8859-1"?>
<!-- Generator: Adobe Illustrator 16.0.0, SVG Export Plug-In . SVG Version: 6.00 Build 0)  -->
<!DOCTYPE svg PUBLIC "-//W3C//DTD SVG 1.1//EN" "http://www.w3.org/Graphics/SVG/1.1/DTD/svg11.dtd">
<svg version="1.1" id="Layer_1" xmlns="http://www.w3.org/2000/svg" xmlns:xlink="http://www.w3.org/1999/xlink" x="0px" y="0px"
	 width="29.959px" height="31.94px" viewBox="0 0 29.959 31.94" style="enable-background:new 0 0 29.959 31.94;"
	 xml:space="preserve">
<path d="M28.043,23.926c0,0,1.357-0.377,1.266-0.992c-0.593,0.364-1.983-0.821-1.983-0.821s0.684-1.186,0.638-2.645
	c-0.046-1.459-0.194-2.862-0.194-2.862s0.833,0.969,1.89,0.029c-2.083-1.021-1.958-2.402-1.729-3.292
	c0.228-0.89,1.131-4.998-2.315-8.161c-2.266-1.968-3.523-0.206-3.523-0.206s-0.333-0.573-0.752-0.548
	c-0.419,0.026-0.718,0.479-0.718,0.479s-0.239-0.727-0.616-0.624c-0.376,0.103-0.479,0.453-0.479,0.453s-0.411-2.189-4.994-4.115
	C9.949-1.304,3.929,1.761,2.664,2.854C1.398,3.949,0.919,4.292,1.329,5.592c0.145,0.455,0.381,0.621,0.634,0.65
	c-0.952,2.114-0.446,4.706-0.077,5.655c0.019,0.072,0.029,0.15,0.045,0.227c-0.27,0.041-0.655,0.008-0.967-0.433
	c-0.135,0.652,0.572,0.774,1.016,0.791c0.035,0.439-0.024,0.908-0.321,1.354c-0.652,0.979-1.382,1.428-1.617,2.085
	c-0.335,0.917,1.426,1.077,1.426,1.077l0.004,0.348c0,0-0.564,0.547-0.444,0.975c0.16,0.57,1.294,0.367,1.294,0.367
	s-1.089,0.402-1.039,0.933c0.052,0.53,0.507,0.761,0.507,0.761s-1.054,2.072,0.497,2.529c1.551,0.455,4.698-1.438,5.108,0.774
	c0.396,1.526,2.162,5.273,1.55,5.976c-0.612,0.701-1.55,1.777-1.55,1.777l16.099,0.502c0,0-4.972-6.431-5.473-7.16
	c-0.267-0.389,0.321-0.713,1.202-1.233c0.312,1.576,1.207,4.91,3.381,6.297c2.896,1.846,4.401,0.204,4.31-0.445
	c-1.551,0.969-1.881-0.89-1.881-0.89s2.587,0.81,2.668-0.787c-2.109,0.685-2.6-3.249-2.6-3.249s4.093,4.253,4.857-0.205
	C28.625,25.762,28.043,23.926,28.043,23.926z"/>
<g>
</g>
<g>
</g>
<g>
</g>
<g>
</g>
<g>
</g>
<g>
</g>
<g>
</g>
<g>
</g>
<g>
</g>
<g>
</g>
<g>
</g>
<g>
</g>
<g>
</g>
<g>
</g>
<g>
</g>
</svg>
