<?xml version="1.0" encoding="iso-8859-1"?>
<!-- Generator: Adobe Illustrator 16.0.0, SVG Export Plug-In . SVG Version: 6.00 Build 0)  -->
<!DOCTYPE svg PUBLIC "-//W3C//DTD SVG 1.1//EN" "http://www.w3.org/Graphics/SVG/1.1/DTD/svg11.dtd">
<svg version="1.1" id="Layer_1" xmlns="http://www.w3.org/2000/svg" xmlns:xlink="http://www.w3.org/1999/xlink" x="0px" y="0px"
	 width="30.097px" height="31.48px" viewBox="0 0 30.097 31.48" style="enable-background:new 0 0 30.097 31.48;"
	 xml:space="preserve">
<path d="M27.887,18.407c0.616,0.243,0.715,0.377,0.585,1.222c-0.13,0.846-0.82,0.595-1.269,0.546s-1.383-0.61-1.89-1.508
	c-1.482-3.432,0-6.863,0-12.427c0-5.563-3.042-6.135-6.187-6.238c-3.146-0.104-6.018,3.301-5.199,6.343
	c-1.248,0.312-0.975-1.481-4.939,0.624C5.022,9.074,5.521,8.633,3.164,9.465c-2.357,0.83-5.147,3.626-1.144,6.615
	c5.239,1.184,13.934,8.207,13.934,8.207l1.976-2.916c0,0,0.728,2.443,1.248,2.651c0.081,0.032-0.143-3.587,0.442-3.185
	c-0.369,0.77-0.039,3.664,0.011,3.752c0.643,1.144,1.441,3.659,0.379,4.476c-1.352,1.039-1.508-0.832-1.508-0.832
	s-1.612,4.004,2.964,3.12c4.575-0.885,3.535-10.035,3.535-10.035s4.992,2.912,5.095-1.508
	C30.164,16.944,27.271,18.163,27.887,18.407z"/>
<g>
</g>
<g>
</g>
<g>
</g>
<g>
</g>
<g>
</g>
<g>
</g>
<g>
</g>
<g>
</g>
<g>
</g>
<g>
</g>
<g>
</g>
<g>
</g>
<g>
</g>
<g>
</g>
<g>
</g>
</svg>
