<?xml version="1.0" encoding="iso-8859-1"?>
<!-- Generator: Adobe Illustrator 16.0.0, SVG Export Plug-In . SVG Version: 6.00 Build 0)  -->
<!DOCTYPE svg PUBLIC "-//W3C//DTD SVG 1.1//EN" "http://www.w3.org/Graphics/SVG/1.1/DTD/svg11.dtd">
<svg version="1.1" id="Layer_1" xmlns="http://www.w3.org/2000/svg" xmlns:xlink="http://www.w3.org/1999/xlink" x="0px" y="0px"
	 width="24.406px" height="31.184px" viewBox="0 0 24.406 31.184" style="enable-background:new 0 0 24.406 31.184;"
	 xml:space="preserve">
<g>
	<path d="M13.003,23.928c-5.605-0.029-3.06,4.001-2.333,3.897c-0.427-0.626,0.341-1.053,0.341-1.053s0.655,4.468,1.792,4.41
		c1.138-0.058,1.821-4.667,1.821-4.667s0.427,0.541,0,1.31C15.052,27.825,18.608,23.956,13.003,23.928z"/>
	<path d="M20.856,3.042c0,0,0.313,0.569,0.313,1.195c-1.223-1.28-4.609-1.195-4.609-1.195s1.508-1.223,3.472-1.052
		c-0.683-1.366-5.122-0.968-5.122-0.968s0.711-0.626,2.219-0.939c-4.012-0.597-7.739,2.22-7.668,2.135
		c0.071-0.086,0.27-1.252,1.607-2.135c-1.593-0.427-4.296,2.22-4.296,2.22s1.423-1.765,0.626-1.878
		C7.056,1.449,5.377,2.246,5.377,2.246S0.143,2.331,0,3.498c2.361-0.626,3.955,0.739,3.955,0.739S0.939,6.03,1.252,6.827
		C2.191,6.287,2.646,7.14,2.646,7.14s-2.191,3.272-0.911,4.211c0.057-1.849,1.252-1.166,1.252-1.166s-0.655,8.224,0.768,9.134
		c-0.398-2.59,0.427-5.18,0.427-5.18s-0.057,3.271,1.366,3.329c-1.11-2.305,1.479-7.17,1.479-7.17s2.333,2.447,1.622,3.841
		c1.28,0.171,1.451-4.381,1.28-5.52c-0.171-1.139,4.154-0.455,4.154-0.455s0.597,0.797-0.882,1.564
		c1.479,0.598,4.667-1.564,4.667-1.564s2.305,4.895,1.28,8.935c1.395-0.285,1.821-6.517,1.821-6.517s0.968,2.916,0.284,4.013
		c0.569,0.057,1.195-3.044,1.195-3.044s0.625,1.536-0.911,6.061C28.368,6.57,20.856,3.042,20.856,3.042z"/>
</g>
<g>
</g>
<g>
</g>
<g>
</g>
<g>
</g>
<g>
</g>
<g>
</g>
<g>
</g>
<g>
</g>
<g>
</g>
<g>
</g>
<g>
</g>
<g>
</g>
<g>
</g>
<g>
</g>
<g>
</g>
</svg>
